<svg width="600" height="199" viewBox="0 0 600 199" fill="none" xmlns="http://www.w3.org/2000/svg">
<path d="M0 0H600V199H308.766H0V0Z" fill="#D2EAF5"/>
<path d="M450.864 135.748L449.892 123.436L449.712 118.072H455.688L455.508 123.436L454.536 135.748H450.864ZM452.7 145.324C451.788 145.324 451.032 145.024 450.432 144.424C449.832 143.824 449.532 143.068 449.532 142.156C449.532 141.22 449.832 140.452 450.432 139.852C451.032 139.252 451.788 138.952 452.7 138.952C453.612 138.952 454.368 139.252 454.968 139.852C455.568 140.452 455.868 141.22 455.868 142.156C455.868 143.068 455.568 143.824 454.968 144.424C454.368 145.024 453.612 145.324 452.7 145.324Z" fill="white"/>
<path d="M414.028 119.836C415.132 119.98 416.368 120.088 417.736 120.16C419.128 120.208 420.532 120.232 421.948 120.232C423.388 120.208 424.768 120.16 426.088 120.088C427.408 119.992 428.548 119.896 429.508 119.8V124.444C428.404 124.54 427.192 124.624 425.872 124.696C424.552 124.744 423.196 124.768 421.804 124.768C420.412 124.768 419.044 124.744 417.7 124.696C416.38 124.624 415.156 124.54 414.028 124.444V119.836ZM416.908 135.208C416.764 135.808 416.656 136.348 416.584 136.828C416.512 137.284 416.476 137.752 416.476 138.232C416.476 138.616 416.572 138.976 416.764 139.312C416.956 139.624 417.244 139.9 417.628 140.14C418.036 140.356 418.552 140.524 419.176 140.644C419.824 140.74 420.604 140.788 421.516 140.788C423.124 140.788 424.636 140.716 426.052 140.572C427.468 140.404 428.968 140.164 430.552 139.852L430.624 144.712C429.472 144.928 428.14 145.096 426.628 145.216C425.14 145.336 423.376 145.396 421.336 145.396C418.24 145.396 415.936 144.88 414.424 143.848C412.912 142.792 412.156 141.34 412.156 139.492C412.156 138.796 412.204 138.076 412.3 137.332C412.42 136.564 412.576 135.724 412.768 134.812L416.908 135.208ZM408.484 117.424C408.388 117.664 408.28 118 408.16 118.432C408.04 118.864 407.92 119.284 407.8 119.692C407.704 120.1 407.632 120.412 407.584 120.628C407.512 121.132 407.392 121.792 407.224 122.608C407.08 123.4 406.924 124.3 406.756 125.308C406.612 126.292 406.468 127.3 406.324 128.332C406.18 129.364 406.06 130.36 405.964 131.32C405.892 132.28 405.856 133.12 405.856 133.84C405.856 134.176 405.856 134.56 405.856 134.992C405.88 135.424 405.928 135.82 406 136.18C406.168 135.772 406.348 135.364 406.54 134.956C406.732 134.548 406.924 134.14 407.116 133.732C407.308 133.3 407.476 132.892 407.62 132.508L409.852 134.272C409.516 135.256 409.168 136.312 408.808 137.44C408.472 138.568 408.16 139.636 407.872 140.644C407.608 141.628 407.404 142.444 407.26 143.092C407.212 143.356 407.164 143.656 407.116 143.992C407.092 144.328 407.08 144.592 407.08 144.784C407.08 144.976 407.08 145.204 407.08 145.468C407.104 145.756 407.128 146.02 407.152 146.26L402.976 146.548C402.616 145.3 402.292 143.644 402.004 141.58C401.716 139.492 401.572 137.224 401.572 134.776C401.572 133.432 401.632 132.064 401.752 130.672C401.872 129.28 402.016 127.948 402.184 126.676C402.352 125.38 402.508 124.204 402.652 123.148C402.82 122.092 402.964 121.216 403.084 120.52C403.132 120.016 403.192 119.452 403.264 118.828C403.36 118.18 403.42 117.568 403.444 116.992L408.484 117.424Z" fill="white"/>
<path d="M372.188 133.516L375.032 131.392C376.904 132.352 378.428 133.444 379.604 134.668C380.78 135.868 381.656 137.104 382.232 138.376C382.808 139.624 383.108 140.824 383.132 141.976C383.18 143.128 382.988 144.16 382.556 145.072C382.124 145.984 381.488 146.704 380.648 147.232C379.976 147.664 379.328 147.964 378.704 148.132C378.104 148.3 377.36 148.384 376.472 148.384C376.04 148.384 375.572 148.372 375.068 148.348C374.588 148.348 374.084 148.336 373.556 148.312C373.532 147.76 373.424 147.112 373.232 146.368C373.04 145.648 372.752 145.012 372.368 144.46C372.992 144.532 373.604 144.58 374.204 144.604C374.804 144.604 375.32 144.604 375.752 144.604C376.208 144.604 376.616 144.58 376.976 144.532C377.36 144.46 377.696 144.304 377.984 144.064C378.512 143.728 378.836 143.176 378.956 142.408C379.1 141.64 378.98 140.752 378.596 139.744C378.212 138.736 377.492 137.692 376.436 136.612C375.404 135.532 373.988 134.5 372.188 133.516ZM376.148 133.84L379.028 135.28C377.972 136.168 376.676 137.02 375.14 137.836C373.628 138.628 372.032 139.336 370.352 139.96C368.672 140.584 367.04 141.088 365.456 141.472C365.192 141.064 364.832 140.572 364.376 139.996C363.944 139.42 363.548 138.952 363.188 138.592C364.748 138.304 366.344 137.92 367.976 137.44C369.608 136.96 371.144 136.408 372.584 135.784C374.048 135.16 375.236 134.512 376.148 133.84ZM378.488 137.116L381.548 138.736C380.54 139.648 379.376 140.524 378.056 141.364C376.76 142.204 375.38 142.996 373.916 143.74C372.452 144.484 370.952 145.144 369.416 145.72C367.904 146.32 366.428 146.824 364.988 147.232C364.724 146.776 364.352 146.236 363.872 145.612C363.392 144.988 362.948 144.484 362.54 144.1C364.004 143.764 365.492 143.356 367.004 142.876C368.516 142.396 369.98 141.856 371.396 141.256C372.812 140.632 374.132 139.972 375.356 139.276C376.58 138.58 377.624 137.86 378.488 137.116ZM372.332 116.668H382.88V119.872H372.332V116.668ZM378.416 128.332L381.656 129.844C380.312 130.876 378.716 131.824 376.868 132.688C375.02 133.528 373.088 134.272 371.072 134.92C369.08 135.568 367.136 136.12 365.24 136.576C365.096 136.312 364.892 135.988 364.628 135.604C364.364 135.22 364.1 134.836 363.836 134.452C363.572 134.068 363.32 133.756 363.08 133.516C364.976 133.204 366.872 132.796 368.768 132.292C370.688 131.788 372.488 131.2 374.168 130.528C375.872 129.856 377.288 129.124 378.416 128.332ZM383.276 129.052C383.924 131.308 384.8 133.396 385.904 135.316C387.032 137.212 388.424 138.868 390.08 140.284C391.736 141.7 393.68 142.792 395.912 143.56C395.624 143.824 395.3 144.172 394.94 144.604C394.58 145.012 394.244 145.444 393.932 145.9C393.62 146.356 393.356 146.776 393.14 147.16C390.74 146.176 388.676 144.856 386.948 143.2C385.22 141.544 383.756 139.6 382.556 137.368C381.38 135.112 380.42 132.604 379.676 129.844L383.276 129.052ZM391.664 130.888L395.12 133.444C394.232 134.02 393.284 134.596 392.276 135.172C391.268 135.748 390.272 136.3 389.288 136.828C388.304 137.332 387.38 137.764 386.516 138.124L383.816 135.892C384.632 135.484 385.52 135.004 386.48 134.452C387.44 133.876 388.376 133.276 389.288 132.652C390.2 132.028 390.992 131.44 391.664 130.888ZM370.712 124.912V127.684H387.776V124.912H370.712ZM366.68 121.78H392.06V130.816H366.68V121.78ZM372.368 114.256L376.832 115.156C375.464 117.172 373.856 119.104 372.008 120.952C370.16 122.8 367.964 124.492 365.42 126.028C365.228 125.668 364.964 125.296 364.628 124.912C364.292 124.528 363.932 124.156 363.548 123.796C363.188 123.436 362.852 123.16 362.54 122.968C364.1 122.152 365.504 121.252 366.752 120.268C368 119.284 369.092 118.276 370.028 117.244C370.988 116.212 371.768 115.216 372.368 114.256ZM376.868 123.472H381.116V129.628H376.868V123.472ZM381.152 116.668H382.124L382.808 116.488L385.76 118.396C385.328 119.092 384.812 119.836 384.212 120.628C383.636 121.396 383.024 122.14 382.376 122.86C381.752 123.58 381.152 124.216 380.576 124.768C380.168 124.456 379.664 124.108 379.064 123.724C378.464 123.316 377.924 122.98 377.444 122.716C377.948 122.236 378.44 121.684 378.92 121.06C379.4 120.412 379.844 119.764 380.252 119.116C380.66 118.468 380.96 117.916 381.152 117.46V116.668Z" fill="white"/>
<path d="M341.904 122.428H359.112V126.568H341.904V122.428ZM325.956 119.98H343.092V123.976H325.956V119.98ZM350.976 114.4H355.26V142.84C355.26 144.064 355.128 145.012 354.864 145.684C354.6 146.38 354.12 146.908 353.424 147.268C352.728 147.652 351.84 147.904 350.76 148.024C349.68 148.144 348.384 148.204 346.872 148.204C346.848 147.772 346.764 147.28 346.62 146.728C346.476 146.176 346.308 145.612 346.116 145.036C345.924 144.484 345.732 143.992 345.54 143.56C346.548 143.608 347.484 143.632 348.348 143.632C349.212 143.632 349.8 143.632 350.112 143.632C350.424 143.632 350.64 143.584 350.76 143.488C350.904 143.368 350.976 143.152 350.976 142.84V114.4ZM341.544 131.104L345 129.448C345.576 130.24 346.128 131.092 346.656 132.004C347.208 132.916 347.688 133.816 348.096 134.704C348.504 135.568 348.804 136.372 348.996 137.116L345.252 138.988C345.084 138.292 344.808 137.488 344.424 136.576C344.064 135.664 343.632 134.728 343.128 133.768C342.624 132.808 342.096 131.92 341.544 131.104ZM326.64 129.052L329.7 126.568C330.756 127.72 331.848 128.944 332.976 130.24C334.104 131.536 335.196 132.856 336.252 134.2C337.332 135.544 338.292 136.852 339.132 138.124C339.972 139.372 340.656 140.536 341.184 141.616L337.764 144.568C337.284 143.488 336.636 142.3 335.82 141.004C335.004 139.708 334.08 138.364 333.048 136.972C332.04 135.58 330.984 134.212 329.88 132.868C328.8 131.5 327.72 130.228 326.64 129.052ZM332.256 114.436H336.396V122.428H332.256V114.436ZM336.18 124.696L340.392 125.272C339.792 128.752 338.952 131.92 337.872 134.776C336.792 137.608 335.436 140.128 333.804 142.336C332.172 144.52 330.192 146.392 327.864 147.952C327.696 147.664 327.432 147.304 327.072 146.872C326.736 146.44 326.376 146.008 325.992 145.576C325.608 145.168 325.26 144.832 324.948 144.568C327.156 143.296 329.004 141.7 330.492 139.78C331.98 137.836 333.18 135.604 334.092 133.084C335.028 130.564 335.724 127.768 336.18 124.696Z" fill="white"/>
<path d="M308.777 120.34C308.537 122.164 308.225 124.108 307.841 126.172C307.457 128.236 306.941 130.324 306.293 132.436C305.597 134.86 304.781 136.948 303.845 138.7C302.909 140.452 301.877 141.808 300.749 142.768C299.645 143.704 298.433 144.172 297.113 144.172C295.793 144.172 294.569 143.728 293.441 142.84C292.337 141.928 291.449 140.68 290.777 139.096C290.129 137.512 289.805 135.712 289.805 133.696C289.805 131.608 290.225 129.64 291.065 127.792C291.905 125.944 293.069 124.312 294.557 122.896C296.069 121.456 297.821 120.328 299.813 119.512C301.829 118.696 304.001 118.288 306.329 118.288C308.561 118.288 310.565 118.648 312.341 119.368C314.141 120.088 315.677 121.084 316.949 122.356C318.221 123.628 319.193 125.116 319.865 126.82C320.537 128.524 320.873 130.36 320.873 132.328C320.873 134.848 320.357 137.104 319.325 139.096C318.293 141.088 316.757 142.732 314.717 144.028C312.701 145.324 310.181 146.212 307.157 146.692L304.457 142.408C305.153 142.336 305.765 142.252 306.293 142.156C306.821 142.06 307.325 141.952 307.805 141.832C308.957 141.544 310.025 141.136 311.009 140.608C312.017 140.056 312.893 139.384 313.637 138.592C314.381 137.776 314.957 136.828 315.365 135.748C315.797 134.668 316.013 133.48 316.013 132.184C316.013 130.768 315.797 129.472 315.365 128.296C314.933 127.12 314.297 126.1 313.457 125.236C312.617 124.348 311.597 123.676 310.397 123.22C309.197 122.74 307.817 122.5 306.257 122.5C304.337 122.5 302.645 122.848 301.181 123.544C299.717 124.216 298.481 125.092 297.473 126.172C296.465 127.252 295.697 128.416 295.169 129.664C294.665 130.912 294.413 132.1 294.413 133.228C294.413 134.428 294.557 135.436 294.845 136.252C295.133 137.044 295.481 137.644 295.889 138.052C296.321 138.436 296.777 138.628 297.257 138.628C297.761 138.628 298.253 138.376 298.733 137.872C299.237 137.344 299.729 136.552 300.209 135.496C300.689 134.44 301.169 133.108 301.649 131.5C302.201 129.772 302.669 127.924 303.053 125.956C303.437 123.988 303.713 122.068 303.881 120.196L308.777 120.34Z" fill="white"/>
<path d="M260.061 119.26C259.965 119.692 259.881 120.184 259.809 120.736C259.761 121.288 259.713 121.828 259.665 122.356C259.641 122.884 259.629 123.316 259.629 123.652C259.605 124.444 259.593 125.26 259.593 126.1C259.617 126.94 259.641 127.804 259.665 128.692C259.713 129.556 259.773 130.42 259.845 131.284C260.013 133.012 260.253 134.536 260.565 135.856C260.877 137.176 261.285 138.208 261.789 138.952C262.293 139.672 262.929 140.032 263.697 140.032C264.105 140.032 264.501 139.804 264.885 139.348C265.293 138.892 265.653 138.304 265.965 137.584C266.301 136.84 266.589 136.06 266.829 135.244C267.093 134.428 267.321 133.66 267.513 132.94L271.113 137.332C270.321 139.42 269.529 141.088 268.737 142.336C267.969 143.56 267.165 144.448 266.325 145C265.485 145.528 264.573 145.792 263.589 145.792C262.293 145.792 261.057 145.36 259.881 144.496C258.729 143.632 257.745 142.24 256.929 140.32C256.113 138.376 255.537 135.796 255.201 132.58C255.081 131.476 254.985 130.312 254.913 129.088C254.865 127.864 254.829 126.7 254.805 125.596C254.805 124.492 254.805 123.58 254.805 122.86C254.805 122.356 254.781 121.756 254.733 121.06C254.685 120.364 254.613 119.74 254.517 119.188L260.061 119.26ZM278.061 120.088C278.733 120.904 279.381 121.9 280.005 123.076C280.629 124.252 281.205 125.512 281.733 126.856C282.261 128.2 282.729 129.58 283.137 130.996C283.545 132.388 283.869 133.756 284.109 135.1C284.373 136.42 284.541 137.632 284.613 138.736L279.861 140.572C279.741 139.108 279.525 137.512 279.213 135.784C278.901 134.056 278.481 132.316 277.953 130.564C277.425 128.812 276.789 127.156 276.045 125.596C275.325 124.036 274.473 122.692 273.489 121.564L278.061 120.088Z" fill="white"/>
<path d="M234.708 115.336L239.424 116.128C239.04 118.552 238.608 121.06 238.128 123.652C237.648 126.22 237.132 128.764 236.58 131.284C236.028 133.78 235.452 136.168 234.852 138.448C234.276 140.728 233.7 142.792 233.124 144.64L229.02 143.812C229.596 141.94 230.16 139.84 230.712 137.512C231.288 135.184 231.828 132.748 232.332 130.204C232.836 127.66 233.292 125.128 233.7 122.608C234.108 120.064 234.444 117.64 234.708 115.336ZM225.6 142.948C227.184 142.804 229.044 142.624 231.18 142.408C233.316 142.168 235.584 141.916 237.984 141.652C240.408 141.364 242.796 141.076 245.148 140.788L245.328 144.82C243.12 145.156 240.9 145.48 238.668 145.792C236.436 146.104 234.276 146.404 232.188 146.692C230.124 146.98 228.24 147.244 226.536 147.484L225.6 142.948ZM238.776 132.004L242.592 130.672C243.504 132.352 244.404 134.152 245.292 136.072C246.18 137.968 246.972 139.84 247.668 141.688C248.364 143.512 248.88 145.144 249.216 146.584L244.932 148.204C244.74 147.148 244.428 145.96 243.996 144.64C243.588 143.296 243.096 141.904 242.52 140.464C241.968 139.024 241.368 137.584 240.72 136.144C240.072 134.68 239.424 133.3 238.776 132.004ZM215.34 121.276H229.272V125.308H215.34V121.276ZM220.452 114.364H224.664V143.488C224.664 144.592 224.532 145.432 224.268 146.008C224.028 146.608 223.596 147.088 222.972 147.448C222.324 147.76 221.52 147.964 220.56 148.06C219.6 148.18 218.424 148.24 217.032 148.24C216.936 147.664 216.768 146.98 216.528 146.188C216.312 145.396 216.06 144.724 215.772 144.172C216.588 144.196 217.38 144.22 218.148 144.244C218.916 144.244 219.432 144.244 219.696 144.244C219.984 144.22 220.176 144.16 220.272 144.064C220.392 143.944 220.452 143.74 220.452 143.452V114.364ZM214.8 132.58C216.024 132.364 217.428 132.124 219.012 131.86C220.62 131.572 222.312 131.26 224.088 130.924C225.888 130.564 227.664 130.216 229.416 129.88L229.704 133.696C228.096 134.056 226.464 134.428 224.808 134.812C223.152 135.172 221.544 135.52 219.984 135.856C218.448 136.192 217.02 136.504 215.7 136.792L214.8 132.58Z" fill="white"/>
<path d="M188.944 131.572C190.816 135.1 193.696 137.908 197.584 139.996C201.472 142.084 206.308 143.452 212.092 144.1C211.78 144.436 211.444 144.844 211.084 145.324C210.748 145.828 210.424 146.344 210.112 146.872C209.8 147.4 209.536 147.88 209.32 148.312C205.288 147.712 201.724 146.764 198.628 145.468C195.556 144.196 192.892 142.528 190.636 140.464C188.38 138.376 186.46 135.88 184.876 132.976L188.944 131.572ZM181.348 127.648H204.424V131.86H181.348V127.648ZM179.584 119.152H210.472V123.436H179.584V119.152ZM192.724 114.4H197.224V129.556H192.724V114.4ZM203.056 127.648H203.956L204.712 127.468L207.772 129.196C206.692 132.124 205.24 134.668 203.416 136.828C201.616 138.988 199.528 140.824 197.152 142.336C194.776 143.824 192.184 145.048 189.376 146.008C186.568 146.968 183.604 147.712 180.484 148.24C180.364 147.832 180.16 147.364 179.872 146.836C179.608 146.308 179.32 145.792 179.008 145.288C178.696 144.784 178.396 144.376 178.108 144.064C181.132 143.656 183.976 143.08 186.64 142.336C189.304 141.568 191.716 140.572 193.876 139.348C196.06 138.1 197.932 136.588 199.492 134.812C201.052 133.012 202.24 130.876 203.056 128.404V127.648Z" fill="white"/>
<path d="M155.996 115.768C155.972 115.96 155.936 116.26 155.888 116.668C155.84 117.052 155.792 117.448 155.744 117.856C155.72 118.24 155.696 118.588 155.672 118.9C155.624 119.596 155.576 120.364 155.528 121.204C155.504 122.02 155.48 122.872 155.456 123.76C155.432 124.624 155.408 125.5 155.384 126.388C155.384 127.276 155.384 128.14 155.384 128.98C155.384 129.964 155.396 131.056 155.42 132.256C155.444 133.432 155.468 134.608 155.492 135.784C155.54 136.936 155.564 137.992 155.564 138.952C155.588 139.912 155.6 140.656 155.6 141.184C155.6 142.672 155.432 143.824 155.096 144.64C154.784 145.456 154.328 146.02 153.728 146.332C153.128 146.668 152.432 146.836 151.64 146.836C150.776 146.836 149.852 146.656 148.868 146.296C147.884 145.96 146.96 145.48 146.096 144.856C145.256 144.232 144.56 143.512 144.008 142.696C143.48 141.856 143.216 140.956 143.216 139.996C143.216 138.844 143.648 137.704 144.512 136.576C145.4 135.424 146.564 134.368 148.004 133.408C149.468 132.448 151.04 131.68 152.72 131.104C154.328 130.504 155.984 130.072 157.688 129.808C159.392 129.52 160.928 129.376 162.296 129.376C164.144 129.376 165.812 129.688 167.3 130.312C168.788 130.912 169.976 131.8 170.864 132.976C171.752 134.152 172.196 135.568 172.196 137.224C172.196 138.616 171.932 139.9 171.404 141.076C170.876 142.252 170.024 143.272 168.848 144.136C167.696 144.976 166.16 145.636 164.24 146.116C163.424 146.284 162.608 146.404 161.792 146.476C161 146.572 160.244 146.644 159.524 146.692L157.868 142.048C158.684 142.048 159.464 142.036 160.208 142.012C160.976 141.964 161.672 141.892 162.296 141.796C163.28 141.604 164.168 141.316 164.96 140.932C165.752 140.548 166.376 140.044 166.832 139.42C167.288 138.796 167.516 138.052 167.516 137.188C167.516 136.372 167.288 135.676 166.832 135.1C166.4 134.524 165.788 134.08 164.996 133.768C164.204 133.456 163.28 133.3 162.224 133.3C160.712 133.3 159.176 133.456 157.616 133.768C156.08 134.08 154.604 134.512 153.188 135.064C152.132 135.472 151.184 135.952 150.344 136.504C149.504 137.032 148.844 137.584 148.364 138.16C147.884 138.736 147.644 139.288 147.644 139.816C147.644 140.104 147.728 140.38 147.896 140.644C148.088 140.884 148.328 141.1 148.616 141.292C148.904 141.484 149.192 141.64 149.48 141.76C149.792 141.856 150.056 141.904 150.272 141.904C150.608 141.904 150.884 141.808 151.1 141.616C151.316 141.4 151.424 140.992 151.424 140.392C151.424 139.744 151.4 138.82 151.352 137.62C151.328 136.396 151.292 135.04 151.244 133.552C151.22 132.064 151.208 130.588 151.208 129.124C151.208 128.116 151.208 127.096 151.208 126.064C151.232 125.032 151.244 124.048 151.244 123.112C151.244 122.176 151.244 121.348 151.244 120.628C151.268 119.908 151.28 119.344 151.28 118.936C151.28 118.672 151.268 118.336 151.244 117.928C151.22 117.52 151.184 117.112 151.136 116.704C151.112 116.272 151.076 115.96 151.028 115.768H155.996ZM166.256 119.656C167.168 120.088 168.188 120.616 169.316 121.24C170.468 121.864 171.56 122.488 172.592 123.112C173.648 123.712 174.488 124.252 175.112 124.732L172.952 128.404C172.496 128.02 171.896 127.588 171.152 127.108C170.432 126.628 169.64 126.136 168.776 125.632C167.936 125.128 167.12 124.66 166.328 124.228C165.536 123.772 164.852 123.412 164.276 123.148L166.256 119.656ZM144.188 121.636C145.244 121.756 146.168 121.84 146.96 121.888C147.776 121.912 148.508 121.924 149.156 121.924C150.092 121.924 151.124 121.888 152.252 121.816C153.38 121.72 154.532 121.6 155.708 121.456C156.884 121.288 158.024 121.096 159.128 120.88C160.256 120.664 161.276 120.424 162.188 120.16L162.296 124.624C161.288 124.864 160.196 125.08 159.02 125.272C157.844 125.44 156.656 125.596 155.456 125.74C154.28 125.884 153.152 125.992 152.072 126.064C151.016 126.136 150.092 126.172 149.3 126.172C148.1 126.172 147.116 126.16 146.348 126.136C145.58 126.112 144.884 126.064 144.26 125.992L144.188 121.636Z" fill="white"/>
<path d="M477.984 66.164C477.84 66.812 477.72 67.388 477.624 67.892C477.528 68.396 477.444 68.888 477.372 69.368C477.276 69.872 477.156 70.604 477.012 71.564C476.892 72.5 476.748 73.568 476.58 74.768C476.436 75.944 476.28 77.18 476.112 78.476C475.968 79.748 475.824 80.996 475.68 82.22C475.536 83.444 475.416 84.56 475.32 85.568C475.248 86.576 475.212 87.38 475.212 87.98C475.212 89.468 475.656 90.608 476.544 91.4C477.456 92.168 478.8 92.552 480.576 92.552C482.256 92.552 483.672 92.324 484.824 91.868C485.976 91.388 486.852 90.752 487.452 89.96C488.052 89.168 488.352 88.28 488.352 87.296C488.352 86.072 488.028 84.884 487.38 83.732C486.756 82.556 485.844 81.416 484.644 80.312L489.72 79.232C490.92 80.744 491.796 82.184 492.348 83.552C492.924 84.896 493.212 86.336 493.212 87.872C493.212 89.672 492.696 91.28 491.664 92.696C490.632 94.112 489.156 95.216 487.236 96.008C485.34 96.8 483.072 97.196 480.432 97.196C478.56 97.196 476.892 96.908 475.428 96.332C473.964 95.756 472.824 94.844 472.008 93.596C471.192 92.348 470.784 90.728 470.784 88.736C470.784 87.992 470.844 87.008 470.964 85.784C471.084 84.536 471.228 83.168 471.396 81.68C471.588 80.168 471.78 78.644 471.972 77.108C472.164 75.548 472.332 74.072 472.476 72.68C472.644 71.288 472.776 70.088 472.872 69.08C472.92 68.24 472.944 67.604 472.944 67.172C472.968 66.716 472.956 66.284 472.908 65.876L477.984 66.164ZM465.132 70.628C466.212 70.964 467.388 71.252 468.66 71.492C469.932 71.708 471.24 71.876 472.584 71.996C473.928 72.092 475.2 72.14 476.4 72.14C477.816 72.14 479.136 72.092 480.36 71.996C481.584 71.9 482.652 71.78 483.564 71.636L483.42 75.92C482.34 76.016 481.26 76.1 480.18 76.172C479.1 76.244 477.804 76.28 476.292 76.28C475.068 76.28 473.796 76.22 472.476 76.1C471.156 75.956 469.848 75.776 468.552 75.56C467.256 75.32 466.044 75.056 464.916 74.768L465.132 70.628ZM464.376 79.556C465.672 79.988 466.98 80.324 468.3 80.564C469.644 80.804 470.964 80.972 472.26 81.068C473.58 81.14 474.84 81.176 476.04 81.176C477.144 81.176 478.332 81.14 479.604 81.068C480.9 80.996 482.124 80.888 483.276 80.744L483.168 85.028C482.16 85.124 481.128 85.208 480.072 85.28C479.016 85.328 477.924 85.352 476.796 85.352C474.396 85.352 472.092 85.232 469.884 84.992C467.676 84.728 465.756 84.368 464.124 83.912L464.376 79.556Z" fill="white"/>
<path d="M445.972 64.5796H450.184V70.2676H445.972V64.5796ZM437.944 68.3596H458.824V75.4876H454.828V72.0316H441.76V75.4876H437.944V68.3596ZM440.608 74.9476H456.052V78.6556H440.608V74.9476ZM438.448 81.2836H458.644V85.1356H438.448V81.2836ZM442.516 83.1196H446.62C446.548 85.0636 446.38 86.8276 446.116 88.4116C445.876 89.9716 445.444 91.3756 444.82 92.6236C444.22 93.8476 443.332 94.9156 442.156 95.8276C440.98 96.7636 439.432 97.5556 437.512 98.2036C437.392 97.8436 437.2 97.4476 436.936 97.0156C436.696 96.6076 436.42 96.1996 436.108 95.7916C435.796 95.3836 435.496 95.0596 435.208 94.8196C436.84 94.3396 438.136 93.7516 439.096 93.0556C440.056 92.3596 440.764 91.5436 441.22 90.6076C441.7 89.6476 442.024 88.5556 442.192 87.3316C442.36 86.0836 442.468 84.6796 442.516 83.1196ZM449.176 82.6876H453.208V92.9116C453.208 93.4636 453.232 93.7996 453.28 93.9196C453.352 94.0396 453.52 94.0996 453.784 94.0996C453.856 94.0996 453.976 94.0996 454.144 94.0996C454.312 94.0996 454.468 94.0996 454.612 94.0996C454.78 94.0996 454.912 94.0996 455.008 94.0996C455.176 94.0996 455.308 94.0036 455.404 93.8116C455.524 93.6196 455.608 93.2236 455.656 92.6236C455.704 91.9996 455.74 91.0756 455.764 89.8516C456.028 90.0676 456.364 90.2836 456.772 90.4996C457.204 90.7156 457.648 90.9076 458.104 91.0756C458.584 91.2436 458.992 91.3756 459.328 91.4716C459.232 93.1516 459.028 94.4596 458.716 95.3956C458.428 96.3316 458.02 96.9796 457.492 97.3396C456.988 97.7236 456.304 97.9156 455.44 97.9156C455.296 97.9156 455.116 97.9156 454.9 97.9156C454.684 97.9156 454.456 97.9156 454.216 97.9156C454 97.9156 453.784 97.9156 453.568 97.9156C453.352 97.9156 453.172 97.9156 453.028 97.9156C451.996 97.9156 451.192 97.7596 450.616 97.4476C450.064 97.1356 449.68 96.6076 449.464 95.8636C449.272 95.1436 449.176 94.1716 449.176 92.9476V82.6876ZM426.856 65.9476H435.352V69.8356H430.636V98.2396H426.856V65.9476ZM434.056 65.9476H434.74L435.352 65.8036L438.16 67.4236C437.872 68.4316 437.548 69.5236 437.188 70.6996C436.828 71.8756 436.456 73.0276 436.072 74.1556C435.712 75.2836 435.364 76.3156 435.028 77.2516C436.132 78.6196 436.852 79.9156 437.188 81.1396C437.524 82.3636 437.692 83.5036 437.692 84.5596C437.692 85.7116 437.56 86.6716 437.296 87.4396C437.056 88.2076 436.648 88.7956 436.072 89.2036C435.784 89.3956 435.46 89.5516 435.1 89.6716C434.764 89.7916 434.404 89.8876 434.02 89.9596C433.348 90.0316 432.556 90.0556 431.644 90.0316C431.62 89.5276 431.524 88.9156 431.356 88.1956C431.212 87.4756 430.996 86.8636 430.708 86.3596C431.044 86.3836 431.332 86.3956 431.572 86.3956C431.836 86.3956 432.076 86.3956 432.292 86.3956C432.724 86.3716 433.06 86.2636 433.3 86.0716C433.516 85.9036 433.66 85.6516 433.732 85.3156C433.828 84.9556 433.876 84.5236 433.876 84.0196C433.876 83.1796 433.708 82.2196 433.372 81.1396C433.06 80.0596 432.4 78.9196 431.392 77.7196C431.632 76.9036 431.872 76.0156 432.112 75.0556C432.376 74.0716 432.628 73.0876 432.868 72.1036C433.132 71.1196 433.36 70.2076 433.552 69.3676C433.768 68.5036 433.936 67.7836 434.056 67.2076V65.9476Z" fill="white"/>
<path d="M397.401 78.4398V91.7238H393.261V82.4358H388.653V78.4398H397.401ZM397.401 89.9958C398.121 91.2198 399.105 92.1078 400.353 92.6598C401.625 93.2118 403.173 93.5238 404.997 93.5958C406.077 93.6438 407.373 93.6798 408.885 93.7038C410.397 93.7038 411.981 93.6918 413.637 93.6678C415.317 93.6438 416.961 93.6078 418.569 93.5598C420.177 93.4878 421.605 93.3918 422.853 93.2718C422.685 93.5838 422.505 94.0038 422.313 94.5318C422.145 95.0358 421.989 95.5518 421.845 96.0798C421.701 96.6078 421.581 97.0758 421.485 97.4838C420.381 97.5558 419.109 97.6038 417.669 97.6278C416.229 97.6518 414.741 97.6638 413.205 97.6638C411.669 97.6878 410.181 97.6878 408.741 97.6638C407.325 97.6638 406.065 97.6398 404.961 97.5918C402.801 97.4958 400.965 97.1478 399.453 96.5478C397.965 95.9478 396.681 94.9518 395.601 93.5598C394.761 94.2798 393.897 94.9878 393.009 95.6838C392.145 96.4038 391.209 97.1478 390.201 97.9158L388.185 93.5958C389.049 93.1158 389.961 92.5638 390.921 91.9398C391.881 91.3158 392.793 90.6678 393.657 89.9958H397.401ZM389.193 67.9278L392.145 65.1558C392.913 65.6598 393.693 66.2478 394.485 66.9198C395.301 67.5678 396.069 68.2278 396.789 68.8998C397.509 69.5478 398.073 70.1598 398.481 70.7358L395.241 73.8318C394.881 73.2558 394.365 72.6198 393.693 71.9238C393.021 71.2278 392.289 70.5318 391.497 69.8358C390.705 69.1158 389.937 68.4798 389.193 67.9278ZM403.737 71.4198L406.509 69.1158C407.565 69.4758 408.729 69.9198 410.001 70.4478C411.273 70.9518 412.497 71.4798 413.673 72.0318C414.873 72.5838 415.869 73.0878 416.661 73.5438L413.709 76.1358C412.989 75.6558 412.053 75.1398 410.901 74.5878C409.773 74.0358 408.573 73.4838 407.301 72.9318C406.029 72.3558 404.841 71.8518 403.737 71.4198ZM400.497 73.4358H418.821V76.5678H404.529V92.0838H400.497V73.4358ZM416.805 73.4358H420.909V88.3758C420.909 89.2638 420.801 89.9598 420.585 90.4638C420.393 90.9438 420.009 91.3278 419.433 91.6158C418.881 91.9038 418.197 92.0838 417.381 92.1558C416.589 92.2038 415.653 92.2278 414.573 92.2278C414.477 91.6998 414.321 91.1238 414.105 90.4998C413.913 89.8518 413.709 89.2878 413.493 88.8078C414.045 88.8318 414.597 88.8438 415.149 88.8438C415.701 88.8438 416.073 88.8438 416.265 88.8438C416.457 88.8438 416.589 88.8078 416.661 88.7358C416.757 88.6398 416.805 88.4958 416.805 88.3038V73.4358ZM400.821 65.6238H417.957V68.8998H400.821V65.6238ZM402.729 78.5118H418.209V81.5358H402.729V78.5118ZM402.729 83.5518H418.209V86.6838H402.729V83.5518ZM408.669 74.9118H412.521V91.9398H408.669V74.9118ZM416.409 65.6238H417.417L418.245 65.4078L420.801 67.4598C419.961 68.2518 419.013 69.0558 417.957 69.8718C416.925 70.6878 415.845 71.4558 414.717 72.1758C413.589 72.8718 412.473 73.4838 411.369 74.0118C411.129 73.6518 410.781 73.2318 410.325 72.7518C409.893 72.2718 409.533 71.8878 409.245 71.5998C410.157 71.1678 411.069 70.6518 411.981 70.0518C412.917 69.4278 413.769 68.7918 414.537 68.1438C415.329 67.4958 415.953 66.9078 416.409 66.3798V65.6238Z" fill="white"/>
<path d="M371.976 70.3396C371.736 72.1636 371.424 74.1076 371.04 76.1716C370.656 78.2356 370.14 80.3236 369.492 82.4356C368.796 84.8596 367.98 86.9476 367.044 88.6996C366.108 90.4516 365.076 91.8076 363.948 92.7676C362.844 93.7036 361.632 94.1716 360.312 94.1716C358.992 94.1716 357.768 93.7276 356.64 92.8396C355.536 91.9276 354.648 90.6796 353.976 89.0956C353.328 87.5116 353.004 85.7116 353.004 83.6956C353.004 81.6076 353.424 79.6396 354.264 77.7916C355.104 75.9436 356.268 74.3116 357.756 72.8956C359.268 71.4556 361.02 70.3276 363.012 69.5116C365.028 68.6956 367.2 68.2876 369.528 68.2876C371.76 68.2876 373.764 68.6476 375.54 69.3676C377.34 70.0876 378.876 71.0836 380.148 72.3556C381.42 73.6276 382.392 75.1156 383.064 76.8196C383.736 78.5236 384.072 80.3596 384.072 82.3276C384.072 84.8476 383.556 87.1036 382.524 89.0956C381.492 91.0876 379.956 92.7316 377.916 94.0276C375.9 95.3236 373.38 96.2116 370.356 96.6916L367.656 92.4076C368.352 92.3356 368.964 92.2516 369.492 92.1556C370.02 92.0596 370.524 91.9516 371.004 91.8316C372.156 91.5436 373.224 91.1356 374.208 90.6076C375.216 90.0556 376.092 89.3836 376.836 88.5916C377.58 87.7756 378.156 86.8276 378.564 85.7476C378.996 84.6676 379.212 83.4796 379.212 82.1836C379.212 80.7676 378.996 79.4716 378.564 78.2956C378.132 77.1196 377.496 76.0996 376.656 75.2356C375.816 74.3476 374.796 73.6756 373.596 73.2196C372.396 72.7396 371.016 72.4996 369.456 72.4996C367.536 72.4996 365.844 72.8476 364.38 73.5436C362.916 74.2156 361.68 75.0916 360.672 76.1716C359.664 77.2516 358.896 78.4156 358.368 79.6636C357.864 80.9116 357.612 82.0996 357.612 83.2276C357.612 84.4276 357.756 85.4356 358.044 86.2516C358.332 87.0436 358.68 87.6436 359.088 88.0516C359.52 88.4356 359.976 88.6276 360.456 88.6276C360.96 88.6276 361.452 88.3756 361.932 87.8716C362.436 87.3436 362.928 86.5516 363.408 85.4956C363.888 84.4396 364.368 83.1076 364.848 81.4996C365.4 79.7716 365.868 77.9236 366.252 75.9556C366.636 73.9876 366.912 72.0676 367.08 70.1956L371.976 70.3396Z" fill="white"/>
<path d="M316.384 70.304C317.104 70.28 317.788 70.256 318.436 70.232C319.084 70.184 319.576 70.148 319.912 70.124C320.656 70.076 321.568 70.004 322.648 69.908C323.752 69.788 324.976 69.668 326.32 69.548C327.688 69.428 329.14 69.308 330.676 69.188C332.212 69.068 333.808 68.936 335.464 68.792C336.712 68.672 337.948 68.576 339.172 68.504C340.42 68.408 341.596 68.336 342.7 68.288C343.828 68.216 344.812 68.168 345.652 68.144L345.688 72.752C345.04 72.752 344.296 72.764 343.456 72.788C342.616 72.812 341.776 72.86 340.936 72.932C340.12 72.98 339.388 73.088 338.74 73.256C337.66 73.544 336.652 74.036 335.716 74.732C334.78 75.404 333.964 76.208 333.268 77.144C332.596 78.056 332.068 79.052 331.684 80.132C331.3 81.188 331.108 82.256 331.108 83.336C331.108 84.512 331.312 85.556 331.72 86.468C332.152 87.356 332.728 88.124 333.448 88.772C334.192 89.396 335.056 89.924 336.04 90.356C337.024 90.764 338.08 91.076 339.208 91.292C340.36 91.508 341.548 91.652 342.772 91.724L341.08 96.656C339.568 96.56 338.092 96.32 336.652 95.936C335.236 95.552 333.904 95.024 332.656 94.352C331.408 93.68 330.316 92.864 329.38 91.904C328.468 90.92 327.736 89.804 327.184 88.556C326.656 87.284 326.392 85.868 326.392 84.308C326.392 82.58 326.668 80.996 327.22 79.556C327.772 78.092 328.456 76.82 329.272 75.74C330.112 74.636 330.94 73.784 331.756 73.184C331.084 73.28 330.268 73.376 329.308 73.472C328.372 73.568 327.352 73.688 326.248 73.832C325.168 73.952 324.064 74.084 322.936 74.228C321.808 74.372 320.716 74.54 319.66 74.732C318.628 74.9 317.692 75.068 316.852 75.236L316.384 70.304ZM340.54 76.28C340.852 76.712 341.176 77.228 341.512 77.828C341.872 78.404 342.22 78.992 342.556 79.592C342.892 80.168 343.18 80.696 343.42 81.176L340.684 82.4C340.228 81.392 339.784 80.504 339.352 79.736C338.944 78.968 338.452 78.188 337.876 77.396L340.54 76.28ZM344.572 74.624C344.884 75.056 345.22 75.56 345.58 76.136C345.964 76.688 346.336 77.264 346.696 77.864C347.056 78.44 347.356 78.956 347.596 79.412L344.896 80.708C344.416 79.748 343.948 78.896 343.492 78.152C343.06 77.408 342.544 76.64 341.944 75.848L344.572 74.624Z" fill="white"/>
<path d="M302.936 59.7559C303.317 60.2839 303.713 60.9292 304.124 61.6919C304.564 62.4252 304.989 63.1585 305.4 63.8919C305.811 64.6252 306.148 65.2559 306.412 65.7839L302.892 67.3239C302.423 66.4145 301.88 65.3879 301.264 64.2439C300.648 63.0705 300.047 62.0585 299.46 61.2079L302.936 59.7559ZM308.128 57.7759C308.509 58.3332 308.92 58.9932 309.36 59.7559C309.829 60.4892 310.269 61.2225 310.68 61.9559C311.091 62.6599 311.428 63.2612 311.692 63.7599L308.172 65.2999C307.732 64.3612 307.189 63.3199 306.544 62.1759C305.899 61.0319 305.268 60.0492 304.652 59.2279L308.128 57.7759ZM291.628 60.1519C291.569 60.6799 291.511 61.3399 291.452 62.1319C291.423 62.9239 291.393 63.5839 291.364 64.1119C291.247 68.4825 290.88 72.3545 290.264 75.7279C289.648 79.1012 288.768 82.1079 287.624 84.7479C286.48 87.3585 285.028 89.7052 283.268 91.7879C281.508 93.8412 279.411 95.7186 276.976 97.4199L271.872 93.2839C272.781 92.7852 273.749 92.1692 274.776 91.4359C275.832 90.7025 276.785 89.8959 277.636 89.0159C279.073 87.5785 280.291 86.0239 281.288 84.3519C282.285 82.6505 283.077 80.8025 283.664 78.8079C284.28 76.8132 284.735 74.6132 285.028 72.2079C285.321 69.7732 285.468 67.1039 285.468 64.1999C285.468 63.8772 285.453 63.4665 285.424 62.9679C285.395 62.4692 285.351 61.9705 285.292 61.4719C285.263 60.9439 285.219 60.5039 285.16 60.1519H291.628ZM306.588 69.5679C306.529 69.9492 306.456 70.3745 306.368 70.8439C306.309 71.3132 306.28 71.6652 306.28 71.8999C306.251 72.8385 306.192 74.0412 306.104 75.5079C306.045 76.9745 305.943 78.5585 305.796 80.2599C305.679 81.9319 305.517 83.6185 305.312 85.3199C305.136 86.9919 304.916 88.5465 304.652 89.9839C304.388 91.3919 304.065 92.5505 303.684 93.4599C303.215 94.5452 302.525 95.3812 301.616 95.9679C300.736 96.5545 299.533 96.8479 298.008 96.8479C296.747 96.8479 295.485 96.8039 294.224 96.7159C292.963 96.6279 291.789 96.5399 290.704 96.4519L290.044 90.5999C291.129 90.7759 292.215 90.9225 293.3 91.0399C294.385 91.1279 295.353 91.1719 296.204 91.1719C296.937 91.1719 297.48 91.0545 297.832 90.8199C298.184 90.5852 298.477 90.1892 298.712 89.6319C298.947 89.0745 299.167 88.3119 299.372 87.3439C299.577 86.3759 299.753 85.2905 299.9 84.0879C300.047 82.8559 300.164 81.5945 300.252 80.3039C300.369 79.0132 300.443 77.7665 300.472 76.5639C300.531 75.3612 300.56 74.2759 300.56 73.3079H279.088C278.355 73.3079 277.445 73.3225 276.36 73.3519C275.275 73.3812 274.248 73.4399 273.28 73.5279V67.7199C274.219 67.8372 275.216 67.9252 276.272 67.9839C277.328 68.0132 278.267 68.0279 279.088 68.0279H299.46C300.017 68.0279 300.575 68.0132 301.132 67.9839C301.719 67.9252 302.261 67.8372 302.76 67.7199L306.588 69.5679Z" fill="white"/>
<path d="M244.056 60.5476C243.792 61.1049 243.528 61.7209 243.264 62.3956C243 63.0703 242.78 63.6423 242.604 64.1116C242.34 64.8449 242.018 65.6663 241.636 66.5756C241.284 67.4849 240.903 68.4089 240.492 69.3476C240.111 70.2569 239.715 71.0929 239.304 71.8556C238.747 72.9703 238.043 74.1729 237.192 75.4636C236.371 76.7249 235.491 77.9423 234.552 79.1156C233.614 80.2596 232.646 81.2569 231.648 82.1076L226.148 78.7636C226.94 78.2063 227.688 77.5463 228.392 76.7836C229.126 76.0209 229.815 75.2289 230.46 74.4076C231.135 73.5863 231.751 72.7796 232.308 71.9876C232.866 71.1663 233.35 70.4036 233.76 69.6996C234.347 68.7023 234.846 67.6609 235.256 66.5756C235.696 65.4903 236.048 64.5369 236.312 63.7156C236.576 62.9823 236.782 62.2196 236.928 61.4276C237.104 60.6063 237.207 59.8583 237.236 59.1836L244.056 60.5476ZM237.104 67.3236C237.603 67.3236 238.336 67.3236 239.304 67.3236C240.272 67.3236 241.402 67.3236 242.692 67.3236C243.983 67.3236 245.332 67.3236 246.74 67.3236C248.178 67.3236 249.6 67.3236 251.008 67.3236C252.446 67.3236 253.78 67.3236 255.012 67.3236C256.274 67.3236 257.359 67.3236 258.268 67.3236C259.207 67.3236 259.896 67.3236 260.336 67.3236C260.923 67.3236 261.656 67.3089 262.536 67.2796C263.416 67.2209 264.208 67.1329 264.912 67.0156V73.0436C264.091 72.9556 263.24 72.9116 262.36 72.9116C261.51 72.8823 260.835 72.8676 260.336 72.8676C259.838 72.8676 259.002 72.8676 257.828 72.8676C256.655 72.8676 255.291 72.8676 253.736 72.8676C252.182 72.8676 250.539 72.8676 248.808 72.8676C247.107 72.8676 245.45 72.8676 243.836 72.8676C242.223 72.8676 240.786 72.8676 239.524 72.8676C238.263 72.8676 237.295 72.8676 236.62 72.8676L237.104 67.3236ZM254.264 70.4916C254.206 73.7476 253.868 76.7396 253.252 79.4676C252.636 82.1663 251.756 84.6156 250.612 86.8156C249.498 89.0156 248.119 91.0103 246.476 92.7996C244.834 94.5596 242.956 96.0996 240.844 97.4196L234.904 93.4156C235.696 93.0929 236.459 92.7263 237.192 92.3156C237.926 91.8756 238.556 91.4356 239.084 90.9956C240.346 90.0276 241.504 88.9276 242.56 87.6956C243.646 86.4343 244.599 84.9823 245.42 83.3396C246.271 81.6676 246.931 79.7756 247.4 77.6636C247.899 75.5516 248.163 73.1609 248.192 70.4916H254.264Z" fill="white"/>
<path d="M213.5 72.6479C214.556 72.6479 215.495 72.9119 216.316 73.4399C217.167 73.9386 217.841 74.6133 218.34 75.4639C218.868 76.2853 219.132 77.2239 219.132 78.2799C219.132 79.3066 218.868 80.2453 218.34 81.096C217.841 81.9466 217.167 82.6359 216.316 83.1639C215.495 83.6626 214.556 83.9119 213.5 83.9119C212.474 83.9119 211.535 83.6626 210.684 83.1639C209.834 82.6359 209.144 81.9466 208.616 81.096C208.117 80.2453 207.868 79.3066 207.868 78.2799C207.868 77.2239 208.117 76.2853 208.616 75.4639C209.144 74.6133 209.834 73.9386 210.684 73.4399C211.535 72.9119 212.474 72.6479 213.5 72.6479Z" fill="white"/>
<path d="M169.656 61.8678H199.664V66.2238H169.656V61.8678ZM170.14 68.3358H195.66V72.6038H170.14V68.3358ZM164.904 74.8038H190.292V79.2038H164.904V74.8038ZM169.128 57.4238L174.672 58.6118C173.616 62.1612 172.193 65.4465 170.404 68.4678C168.615 71.4892 166.649 73.9825 164.508 75.9478C164.185 75.6252 163.716 75.2585 163.1 74.8478C162.513 74.4078 161.912 73.9825 161.296 73.5718C160.68 73.1318 160.152 72.7945 159.712 72.5598C161.883 70.8878 163.775 68.7172 165.388 66.0478C167.031 63.3492 168.277 60.4745 169.128 57.4238ZM179.996 79.4238L185.144 81.0958C183.677 83.8532 181.888 86.4052 179.776 88.7518C177.693 91.0692 175.405 93.1372 172.912 94.9558C170.419 96.7745 167.823 98.3292 165.124 99.6198C164.86 99.2678 164.493 98.8278 164.024 98.2998C163.584 97.7718 163.1 97.2585 162.572 96.7598C162.073 96.2612 161.633 95.8505 161.252 95.5278C163.951 94.4425 166.488 93.1078 168.864 91.5238C171.269 89.9398 173.411 88.1212 175.288 86.0678C177.195 84.0145 178.764 81.7998 179.996 79.4238ZM188.576 74.8038H193.988C193.988 77.4438 194.017 79.9225 194.076 82.2398C194.135 84.5278 194.267 86.5372 194.472 88.2678C194.707 89.9692 195.029 91.3185 195.44 92.3158C195.851 93.2838 196.379 93.7678 197.024 93.7678C197.376 93.7385 197.611 93.1812 197.728 92.0958C197.845 91.0105 197.919 89.5878 197.948 87.8278C198.447 88.4145 199.004 89.0158 199.62 89.6318C200.265 90.2185 200.852 90.7172 201.38 91.1278C201.263 92.9465 201.043 94.4425 200.72 95.6158C200.427 96.7892 199.957 97.6398 199.312 98.1678C198.667 98.7252 197.787 99.0038 196.672 99.0038C194.824 99.0038 193.357 98.3732 192.272 97.1118C191.216 95.8798 190.424 94.1638 189.896 91.9638C189.368 89.7345 189.016 87.1532 188.84 84.2198C188.664 81.2865 188.576 78.1478 188.576 74.8038ZM164.992 84.3078L168.732 80.8318C170.345 81.6825 172.017 82.6358 173.748 83.6918C175.508 84.7185 177.239 85.8038 178.94 86.9478C180.671 88.0918 182.269 89.2358 183.736 90.3798C185.203 91.4945 186.435 92.5652 187.432 93.5918L183.208 97.5958C182.299 96.5985 181.14 95.5132 179.732 94.3398C178.353 93.1665 176.828 91.9932 175.156 90.8198C173.513 89.6172 171.812 88.4585 170.052 87.3438C168.292 86.2292 166.605 85.2172 164.992 84.3078Z" fill="white"/>
<path d="M128.552 69.9636H156.096V74.4076H128.552V69.9636ZM140.036 86.0236L143.116 83.3836C143.938 84.0289 144.788 84.7476 145.668 85.5396C146.578 86.3316 147.443 87.1236 148.264 87.9156C149.115 88.6783 149.79 89.3529 150.288 89.9396L147.076 92.9316C146.578 92.3156 145.932 91.5969 145.14 90.7756C144.348 89.9543 143.498 89.1329 142.588 88.3116C141.708 87.4903 140.858 86.7276 140.036 86.0236ZM129.476 77.5756H151.872V82.0196H134.228V98.9596H129.476V77.5756ZM149.848 77.5756H154.864V93.8116C154.864 94.9263 154.718 95.8209 154.424 96.4956C154.16 97.1703 153.647 97.6983 152.884 98.0796C152.122 98.4609 151.212 98.6956 150.156 98.7836C149.13 98.9009 147.912 98.9449 146.504 98.9156C146.416 98.2409 146.196 97.4636 145.844 96.5836C145.522 95.7036 145.184 94.9556 144.832 94.3396C145.712 94.3689 146.563 94.3983 147.384 94.4276C148.235 94.4276 148.792 94.4129 149.056 94.3836C149.35 94.3836 149.555 94.3396 149.672 94.2516C149.79 94.1343 149.848 93.9583 149.848 93.7236V77.5756ZM139.464 71.4596H144.04V79.2916C144.04 80.4943 143.923 81.7263 143.688 82.9876C143.483 84.2489 143.087 85.4956 142.5 86.7276C141.943 87.9596 141.151 89.1329 140.124 90.2476C139.098 91.3329 137.778 92.3156 136.164 93.1956C135.871 92.6969 135.416 92.1103 134.8 91.4356C134.214 90.7609 133.671 90.2183 133.172 89.8076C134.58 89.1916 135.695 88.4583 136.516 87.6076C137.367 86.7569 137.998 85.8623 138.408 84.9236C138.848 83.9556 139.127 82.9876 139.244 82.0196C139.391 81.0516 139.464 80.1276 139.464 79.2476V71.4596ZM124.856 62.3516H156.36V67.0596H124.856V62.3516ZM121.996 62.3516H127.012V75.5076C127.012 77.2676 126.924 79.1889 126.748 81.2716C126.572 83.3543 126.235 85.4516 125.736 87.5636C125.238 89.6463 124.519 91.6556 123.58 93.5916C122.642 95.5276 121.41 97.2583 119.884 98.7836C119.65 98.4316 119.283 98.0209 118.784 97.5516C118.315 97.0823 117.831 96.6276 117.332 96.1876C116.863 95.7476 116.452 95.4396 116.1 95.2636C117.45 93.8849 118.506 92.3743 119.268 90.7316C120.06 89.0889 120.647 87.4023 121.028 85.6716C121.439 83.9116 121.703 82.1663 121.82 80.4356C121.938 78.6756 121.996 77.0183 121.996 75.4636V62.3516ZM135.24 57.5996H140.784V65.4756H135.24V57.5996ZM115.176 67.8076L119.004 65.9596C119.738 67.2209 120.412 68.6143 121.028 70.1396C121.644 71.6356 122.055 72.9409 122.26 74.0556L118.168 76.2556C118.051 75.4929 117.831 74.6276 117.508 73.6596C117.215 72.6916 116.863 71.7089 116.452 70.7116C116.071 69.6849 115.646 68.7169 115.176 67.8076ZM114.824 82.8556C115.88 82.4449 117.112 81.8876 118.52 81.1836C119.958 80.4796 121.439 79.7609 122.964 79.0276L124.196 83.1636C122.906 83.9556 121.586 84.7476 120.236 85.5396C118.916 86.3316 117.626 87.0943 116.364 87.8276L114.824 82.8556Z" fill="white"/>
<path d="M446.864 135.748L445.892 123.436L445.712 118.072H451.688L451.508 123.436L450.536 135.748H446.864ZM448.7 145.324C447.788 145.324 447.032 145.024 446.432 144.424C445.832 143.824 445.532 143.068 445.532 142.156C445.532 141.22 445.832 140.452 446.432 139.852C447.032 139.252 447.788 138.952 448.7 138.952C449.612 138.952 450.368 139.252 450.968 139.852C451.568 140.452 451.868 141.22 451.868 142.156C451.868 143.068 451.568 143.824 450.968 144.424C450.368 145.024 449.612 145.324 448.7 145.324Z" fill="#4AA9D5"/>
<path d="M410.028 119.836C411.132 119.98 412.368 120.088 413.736 120.16C415.128 120.208 416.532 120.232 417.948 120.232C419.388 120.208 420.768 120.16 422.088 120.088C423.408 119.992 424.548 119.896 425.508 119.8V124.444C424.404 124.54 423.192 124.624 421.872 124.696C420.552 124.744 419.196 124.768 417.804 124.768C416.412 124.768 415.044 124.744 413.7 124.696C412.38 124.624 411.156 124.54 410.028 124.444V119.836ZM412.908 135.208C412.764 135.808 412.656 136.348 412.584 136.828C412.512 137.284 412.476 137.752 412.476 138.232C412.476 138.616 412.572 138.976 412.764 139.312C412.956 139.624 413.244 139.9 413.628 140.14C414.036 140.356 414.552 140.524 415.176 140.644C415.824 140.74 416.604 140.788 417.516 140.788C419.124 140.788 420.636 140.716 422.052 140.572C423.468 140.404 424.968 140.164 426.552 139.852L426.624 144.712C425.472 144.928 424.14 145.096 422.628 145.216C421.14 145.336 419.376 145.396 417.336 145.396C414.24 145.396 411.936 144.88 410.424 143.848C408.912 142.792 408.156 141.34 408.156 139.492C408.156 138.796 408.204 138.076 408.3 137.332C408.42 136.564 408.576 135.724 408.768 134.812L412.908 135.208ZM404.484 117.424C404.388 117.664 404.28 118 404.16 118.432C404.04 118.864 403.92 119.284 403.8 119.692C403.704 120.1 403.632 120.412 403.584 120.628C403.512 121.132 403.392 121.792 403.224 122.608C403.08 123.4 402.924 124.3 402.756 125.308C402.612 126.292 402.468 127.3 402.324 128.332C402.18 129.364 402.06 130.36 401.964 131.32C401.892 132.28 401.856 133.12 401.856 133.84C401.856 134.176 401.856 134.56 401.856 134.992C401.88 135.424 401.928 135.82 402 136.18C402.168 135.772 402.348 135.364 402.54 134.956C402.732 134.548 402.924 134.14 403.116 133.732C403.308 133.3 403.476 132.892 403.62 132.508L405.852 134.272C405.516 135.256 405.168 136.312 404.808 137.44C404.472 138.568 404.16 139.636 403.872 140.644C403.608 141.628 403.404 142.444 403.26 143.092C403.212 143.356 403.164 143.656 403.116 143.992C403.092 144.328 403.08 144.592 403.08 144.784C403.08 144.976 403.08 145.204 403.08 145.468C403.104 145.756 403.128 146.02 403.152 146.26L398.976 146.548C398.616 145.3 398.292 143.644 398.004 141.58C397.716 139.492 397.572 137.224 397.572 134.776C397.572 133.432 397.632 132.064 397.752 130.672C397.872 129.28 398.016 127.948 398.184 126.676C398.352 125.38 398.508 124.204 398.652 123.148C398.82 122.092 398.964 121.216 399.084 120.52C399.132 120.016 399.192 119.452 399.264 118.828C399.36 118.18 399.42 117.568 399.444 116.992L404.484 117.424Z" fill="#4AA9D5"/>
<path d="M368.188 133.516L371.032 131.392C372.904 132.352 374.428 133.444 375.604 134.668C376.78 135.868 377.656 137.104 378.232 138.376C378.808 139.624 379.108 140.824 379.132 141.976C379.18 143.128 378.988 144.16 378.556 145.072C378.124 145.984 377.488 146.704 376.648 147.232C375.976 147.664 375.328 147.964 374.704 148.132C374.104 148.3 373.36 148.384 372.472 148.384C372.04 148.384 371.572 148.372 371.068 148.348C370.588 148.348 370.084 148.336 369.556 148.312C369.532 147.76 369.424 147.112 369.232 146.368C369.04 145.648 368.752 145.012 368.368 144.46C368.992 144.532 369.604 144.58 370.204 144.604C370.804 144.604 371.32 144.604 371.752 144.604C372.208 144.604 372.616 144.58 372.976 144.532C373.36 144.46 373.696 144.304 373.984 144.064C374.512 143.728 374.836 143.176 374.956 142.408C375.1 141.64 374.98 140.752 374.596 139.744C374.212 138.736 373.492 137.692 372.436 136.612C371.404 135.532 369.988 134.5 368.188 133.516ZM372.148 133.84L375.028 135.28C373.972 136.168 372.676 137.02 371.14 137.836C369.628 138.628 368.032 139.336 366.352 139.96C364.672 140.584 363.04 141.088 361.456 141.472C361.192 141.064 360.832 140.572 360.376 139.996C359.944 139.42 359.548 138.952 359.188 138.592C360.748 138.304 362.344 137.92 363.976 137.44C365.608 136.96 367.144 136.408 368.584 135.784C370.048 135.16 371.236 134.512 372.148 133.84ZM374.488 137.116L377.548 138.736C376.54 139.648 375.376 140.524 374.056 141.364C372.76 142.204 371.38 142.996 369.916 143.74C368.452 144.484 366.952 145.144 365.416 145.72C363.904 146.32 362.428 146.824 360.988 147.232C360.724 146.776 360.352 146.236 359.872 145.612C359.392 144.988 358.948 144.484 358.54 144.1C360.004 143.764 361.492 143.356 363.004 142.876C364.516 142.396 365.98 141.856 367.396 141.256C368.812 140.632 370.132 139.972 371.356 139.276C372.58 138.58 373.624 137.86 374.488 137.116ZM368.332 116.668H378.88V119.872H368.332V116.668ZM374.416 128.332L377.656 129.844C376.312 130.876 374.716 131.824 372.868 132.688C371.02 133.528 369.088 134.272 367.072 134.92C365.08 135.568 363.136 136.12 361.24 136.576C361.096 136.312 360.892 135.988 360.628 135.604C360.364 135.22 360.1 134.836 359.836 134.452C359.572 134.068 359.32 133.756 359.08 133.516C360.976 133.204 362.872 132.796 364.768 132.292C366.688 131.788 368.488 131.2 370.168 130.528C371.872 129.856 373.288 129.124 374.416 128.332ZM379.276 129.052C379.924 131.308 380.8 133.396 381.904 135.316C383.032 137.212 384.424 138.868 386.08 140.284C387.736 141.7 389.68 142.792 391.912 143.56C391.624 143.824 391.3 144.172 390.94 144.604C390.58 145.012 390.244 145.444 389.932 145.9C389.62 146.356 389.356 146.776 389.14 147.16C386.74 146.176 384.676 144.856 382.948 143.2C381.22 141.544 379.756 139.6 378.556 137.368C377.38 135.112 376.42 132.604 375.676 129.844L379.276 129.052ZM387.664 130.888L391.12 133.444C390.232 134.02 389.284 134.596 388.276 135.172C387.268 135.748 386.272 136.3 385.288 136.828C384.304 137.332 383.38 137.764 382.516 138.124L379.816 135.892C380.632 135.484 381.52 135.004 382.48 134.452C383.44 133.876 384.376 133.276 385.288 132.652C386.2 132.028 386.992 131.44 387.664 130.888ZM366.712 124.912V127.684H383.776V124.912H366.712ZM362.68 121.78H388.06V130.816H362.68V121.78ZM368.368 114.256L372.832 115.156C371.464 117.172 369.856 119.104 368.008 120.952C366.16 122.8 363.964 124.492 361.42 126.028C361.228 125.668 360.964 125.296 360.628 124.912C360.292 124.528 359.932 124.156 359.548 123.796C359.188 123.436 358.852 123.16 358.54 122.968C360.1 122.152 361.504 121.252 362.752 120.268C364 119.284 365.092 118.276 366.028 117.244C366.988 116.212 367.768 115.216 368.368 114.256ZM372.868 123.472H377.116V129.628H372.868V123.472ZM377.152 116.668H378.124L378.808 116.488L381.76 118.396C381.328 119.092 380.812 119.836 380.212 120.628C379.636 121.396 379.024 122.14 378.376 122.86C377.752 123.58 377.152 124.216 376.576 124.768C376.168 124.456 375.664 124.108 375.064 123.724C374.464 123.316 373.924 122.98 373.444 122.716C373.948 122.236 374.44 121.684 374.92 121.06C375.4 120.412 375.844 119.764 376.252 119.116C376.66 118.468 376.96 117.916 377.152 117.46V116.668Z" fill="#4AA9D5"/>
<path d="M337.904 122.428H355.112V126.568H337.904V122.428ZM321.956 119.98H339.092V123.976H321.956V119.98ZM346.976 114.4H351.26V142.84C351.26 144.064 351.128 145.012 350.864 145.684C350.6 146.38 350.12 146.908 349.424 147.268C348.728 147.652 347.84 147.904 346.76 148.024C345.68 148.144 344.384 148.204 342.872 148.204C342.848 147.772 342.764 147.28 342.62 146.728C342.476 146.176 342.308 145.612 342.116 145.036C341.924 144.484 341.732 143.992 341.54 143.56C342.548 143.608 343.484 143.632 344.348 143.632C345.212 143.632 345.8 143.632 346.112 143.632C346.424 143.632 346.64 143.584 346.76 143.488C346.904 143.368 346.976 143.152 346.976 142.84V114.4ZM337.544 131.104L341 129.448C341.576 130.24 342.128 131.092 342.656 132.004C343.208 132.916 343.688 133.816 344.096 134.704C344.504 135.568 344.804 136.372 344.996 137.116L341.252 138.988C341.084 138.292 340.808 137.488 340.424 136.576C340.064 135.664 339.632 134.728 339.128 133.768C338.624 132.808 338.096 131.92 337.544 131.104ZM322.64 129.052L325.7 126.568C326.756 127.72 327.848 128.944 328.976 130.24C330.104 131.536 331.196 132.856 332.252 134.2C333.332 135.544 334.292 136.852 335.132 138.124C335.972 139.372 336.656 140.536 337.184 141.616L333.764 144.568C333.284 143.488 332.636 142.3 331.82 141.004C331.004 139.708 330.08 138.364 329.048 136.972C328.04 135.58 326.984 134.212 325.88 132.868C324.8 131.5 323.72 130.228 322.64 129.052ZM328.256 114.436H332.396V122.428H328.256V114.436ZM332.18 124.696L336.392 125.272C335.792 128.752 334.952 131.92 333.872 134.776C332.792 137.608 331.436 140.128 329.804 142.336C328.172 144.52 326.192 146.392 323.864 147.952C323.696 147.664 323.432 147.304 323.072 146.872C322.736 146.44 322.376 146.008 321.992 145.576C321.608 145.168 321.26 144.832 320.948 144.568C323.156 143.296 325.004 141.7 326.492 139.78C327.98 137.836 329.18 135.604 330.092 133.084C331.028 130.564 331.724 127.768 332.18 124.696Z" fill="#4AA9D5"/>
<path d="M304.777 120.34C304.537 122.164 304.225 124.108 303.841 126.172C303.457 128.236 302.941 130.324 302.293 132.436C301.597 134.86 300.781 136.948 299.845 138.7C298.909 140.452 297.877 141.808 296.749 142.768C295.645 143.704 294.433 144.172 293.113 144.172C291.793 144.172 290.569 143.728 289.441 142.84C288.337 141.928 287.449 140.68 286.777 139.096C286.129 137.512 285.805 135.712 285.805 133.696C285.805 131.608 286.225 129.64 287.065 127.792C287.905 125.944 289.069 124.312 290.557 122.896C292.069 121.456 293.821 120.328 295.813 119.512C297.829 118.696 300.001 118.288 302.329 118.288C304.561 118.288 306.565 118.648 308.341 119.368C310.141 120.088 311.677 121.084 312.949 122.356C314.221 123.628 315.193 125.116 315.865 126.82C316.537 128.524 316.873 130.36 316.873 132.328C316.873 134.848 316.357 137.104 315.325 139.096C314.293 141.088 312.757 142.732 310.717 144.028C308.701 145.324 306.181 146.212 303.157 146.692L300.457 142.408C301.153 142.336 301.765 142.252 302.293 142.156C302.821 142.06 303.325 141.952 303.805 141.832C304.957 141.544 306.025 141.136 307.009 140.608C308.017 140.056 308.893 139.384 309.637 138.592C310.381 137.776 310.957 136.828 311.365 135.748C311.797 134.668 312.013 133.48 312.013 132.184C312.013 130.768 311.797 129.472 311.365 128.296C310.933 127.12 310.297 126.1 309.457 125.236C308.617 124.348 307.597 123.676 306.397 123.22C305.197 122.74 303.817 122.5 302.257 122.5C300.337 122.5 298.645 122.848 297.181 123.544C295.717 124.216 294.481 125.092 293.473 126.172C292.465 127.252 291.697 128.416 291.169 129.664C290.665 130.912 290.413 132.1 290.413 133.228C290.413 134.428 290.557 135.436 290.845 136.252C291.133 137.044 291.481 137.644 291.889 138.052C292.321 138.436 292.777 138.628 293.257 138.628C293.761 138.628 294.253 138.376 294.733 137.872C295.237 137.344 295.729 136.552 296.209 135.496C296.689 134.44 297.169 133.108 297.649 131.5C298.201 129.772 298.669 127.924 299.053 125.956C299.437 123.988 299.713 122.068 299.881 120.196L304.777 120.34Z" fill="#4AA9D5"/>
<path d="M256.061 119.26C255.965 119.692 255.881 120.184 255.809 120.736C255.761 121.288 255.713 121.828 255.665 122.356C255.641 122.884 255.629 123.316 255.629 123.652C255.605 124.444 255.593 125.26 255.593 126.1C255.617 126.94 255.641 127.804 255.665 128.692C255.713 129.556 255.773 130.42 255.845 131.284C256.013 133.012 256.253 134.536 256.565 135.856C256.877 137.176 257.285 138.208 257.789 138.952C258.293 139.672 258.929 140.032 259.697 140.032C260.105 140.032 260.501 139.804 260.885 139.348C261.293 138.892 261.653 138.304 261.965 137.584C262.301 136.84 262.589 136.06 262.829 135.244C263.093 134.428 263.321 133.66 263.513 132.94L267.113 137.332C266.321 139.42 265.529 141.088 264.737 142.336C263.969 143.56 263.165 144.448 262.325 145C261.485 145.528 260.573 145.792 259.589 145.792C258.293 145.792 257.057 145.36 255.881 144.496C254.729 143.632 253.745 142.24 252.929 140.32C252.113 138.376 251.537 135.796 251.201 132.58C251.081 131.476 250.985 130.312 250.913 129.088C250.865 127.864 250.829 126.7 250.805 125.596C250.805 124.492 250.805 123.58 250.805 122.86C250.805 122.356 250.781 121.756 250.733 121.06C250.685 120.364 250.613 119.74 250.517 119.188L256.061 119.26ZM274.061 120.088C274.733 120.904 275.381 121.9 276.005 123.076C276.629 124.252 277.205 125.512 277.733 126.856C278.261 128.2 278.729 129.58 279.137 130.996C279.545 132.388 279.869 133.756 280.109 135.1C280.373 136.42 280.541 137.632 280.613 138.736L275.861 140.572C275.741 139.108 275.525 137.512 275.213 135.784C274.901 134.056 274.481 132.316 273.953 130.564C273.425 128.812 272.789 127.156 272.045 125.596C271.325 124.036 270.473 122.692 269.489 121.564L274.061 120.088Z" fill="#4AA9D5"/>
<path d="M230.708 115.336L235.424 116.128C235.04 118.552 234.608 121.06 234.128 123.652C233.648 126.22 233.132 128.764 232.58 131.284C232.028 133.78 231.452 136.168 230.852 138.448C230.276 140.728 229.7 142.792 229.124 144.64L225.02 143.812C225.596 141.94 226.16 139.84 226.712 137.512C227.288 135.184 227.828 132.748 228.332 130.204C228.836 127.66 229.292 125.128 229.7 122.608C230.108 120.064 230.444 117.64 230.708 115.336ZM221.6 142.948C223.184 142.804 225.044 142.624 227.18 142.408C229.316 142.168 231.584 141.916 233.984 141.652C236.408 141.364 238.796 141.076 241.148 140.788L241.328 144.82C239.12 145.156 236.9 145.48 234.668 145.792C232.436 146.104 230.276 146.404 228.188 146.692C226.124 146.98 224.24 147.244 222.536 147.484L221.6 142.948ZM234.776 132.004L238.592 130.672C239.504 132.352 240.404 134.152 241.292 136.072C242.18 137.968 242.972 139.84 243.668 141.688C244.364 143.512 244.88 145.144 245.216 146.584L240.932 148.204C240.74 147.148 240.428 145.96 239.996 144.64C239.588 143.296 239.096 141.904 238.52 140.464C237.968 139.024 237.368 137.584 236.72 136.144C236.072 134.68 235.424 133.3 234.776 132.004ZM211.34 121.276H225.272V125.308H211.34V121.276ZM216.452 114.364H220.664V143.488C220.664 144.592 220.532 145.432 220.268 146.008C220.028 146.608 219.596 147.088 218.972 147.448C218.324 147.76 217.52 147.964 216.56 148.06C215.6 148.18 214.424 148.24 213.032 148.24C212.936 147.664 212.768 146.98 212.528 146.188C212.312 145.396 212.06 144.724 211.772 144.172C212.588 144.196 213.38 144.22 214.148 144.244C214.916 144.244 215.432 144.244 215.696 144.244C215.984 144.22 216.176 144.16 216.272 144.064C216.392 143.944 216.452 143.74 216.452 143.452V114.364ZM210.8 132.58C212.024 132.364 213.428 132.124 215.012 131.86C216.62 131.572 218.312 131.26 220.088 130.924C221.888 130.564 223.664 130.216 225.416 129.88L225.704 133.696C224.096 134.056 222.464 134.428 220.808 134.812C219.152 135.172 217.544 135.52 215.984 135.856C214.448 136.192 213.02 136.504 211.7 136.792L210.8 132.58Z" fill="#4AA9D5"/>
<path d="M184.944 131.572C186.816 135.1 189.696 137.908 193.584 139.996C197.472 142.084 202.308 143.452 208.092 144.1C207.78 144.436 207.444 144.844 207.084 145.324C206.748 145.828 206.424 146.344 206.112 146.872C205.8 147.4 205.536 147.88 205.32 148.312C201.288 147.712 197.724 146.764 194.628 145.468C191.556 144.196 188.892 142.528 186.636 140.464C184.38 138.376 182.46 135.88 180.876 132.976L184.944 131.572ZM177.348 127.648H200.424V131.86H177.348V127.648ZM175.584 119.152H206.472V123.436H175.584V119.152ZM188.724 114.4H193.224V129.556H188.724V114.4ZM199.056 127.648H199.956L200.712 127.468L203.772 129.196C202.692 132.124 201.24 134.668 199.416 136.828C197.616 138.988 195.528 140.824 193.152 142.336C190.776 143.824 188.184 145.048 185.376 146.008C182.568 146.968 179.604 147.712 176.484 148.24C176.364 147.832 176.16 147.364 175.872 146.836C175.608 146.308 175.32 145.792 175.008 145.288C174.696 144.784 174.396 144.376 174.108 144.064C177.132 143.656 179.976 143.08 182.64 142.336C185.304 141.568 187.716 140.572 189.876 139.348C192.06 138.1 193.932 136.588 195.492 134.812C197.052 133.012 198.24 130.876 199.056 128.404V127.648Z" fill="#4AA9D5"/>
<path d="M151.996 115.768C151.972 115.96 151.936 116.26 151.888 116.668C151.84 117.052 151.792 117.448 151.744 117.856C151.72 118.24 151.696 118.588 151.672 118.9C151.624 119.596 151.576 120.364 151.528 121.204C151.504 122.02 151.48 122.872 151.456 123.76C151.432 124.624 151.408 125.5 151.384 126.388C151.384 127.276 151.384 128.14 151.384 128.98C151.384 129.964 151.396 131.056 151.42 132.256C151.444 133.432 151.468 134.608 151.492 135.784C151.54 136.936 151.564 137.992 151.564 138.952C151.588 139.912 151.6 140.656 151.6 141.184C151.6 142.672 151.432 143.824 151.096 144.64C150.784 145.456 150.328 146.02 149.728 146.332C149.128 146.668 148.432 146.836 147.64 146.836C146.776 146.836 145.852 146.656 144.868 146.296C143.884 145.96 142.96 145.48 142.096 144.856C141.256 144.232 140.56 143.512 140.008 142.696C139.48 141.856 139.216 140.956 139.216 139.996C139.216 138.844 139.648 137.704 140.512 136.576C141.4 135.424 142.564 134.368 144.004 133.408C145.468 132.448 147.04 131.68 148.72 131.104C150.328 130.504 151.984 130.072 153.688 129.808C155.392 129.52 156.928 129.376 158.296 129.376C160.144 129.376 161.812 129.688 163.3 130.312C164.788 130.912 165.976 131.8 166.864 132.976C167.752 134.152 168.196 135.568 168.196 137.224C168.196 138.616 167.932 139.9 167.404 141.076C166.876 142.252 166.024 143.272 164.848 144.136C163.696 144.976 162.16 145.636 160.24 146.116C159.424 146.284 158.608 146.404 157.792 146.476C157 146.572 156.244 146.644 155.524 146.692L153.868 142.048C154.684 142.048 155.464 142.036 156.208 142.012C156.976 141.964 157.672 141.892 158.296 141.796C159.28 141.604 160.168 141.316 160.96 140.932C161.752 140.548 162.376 140.044 162.832 139.42C163.288 138.796 163.516 138.052 163.516 137.188C163.516 136.372 163.288 135.676 162.832 135.1C162.4 134.524 161.788 134.08 160.996 133.768C160.204 133.456 159.28 133.3 158.224 133.3C156.712 133.3 155.176 133.456 153.616 133.768C152.08 134.08 150.604 134.512 149.188 135.064C148.132 135.472 147.184 135.952 146.344 136.504C145.504 137.032 144.844 137.584 144.364 138.16C143.884 138.736 143.644 139.288 143.644 139.816C143.644 140.104 143.728 140.38 143.896 140.644C144.088 140.884 144.328 141.1 144.616 141.292C144.904 141.484 145.192 141.64 145.48 141.76C145.792 141.856 146.056 141.904 146.272 141.904C146.608 141.904 146.884 141.808 147.1 141.616C147.316 141.4 147.424 140.992 147.424 140.392C147.424 139.744 147.4 138.82 147.352 137.62C147.328 136.396 147.292 135.04 147.244 133.552C147.22 132.064 147.208 130.588 147.208 129.124C147.208 128.116 147.208 127.096 147.208 126.064C147.232 125.032 147.244 124.048 147.244 123.112C147.244 122.176 147.244 121.348 147.244 120.628C147.268 119.908 147.28 119.344 147.28 118.936C147.28 118.672 147.268 118.336 147.244 117.928C147.22 117.52 147.184 117.112 147.136 116.704C147.112 116.272 147.076 115.96 147.028 115.768H151.996ZM162.256 119.656C163.168 120.088 164.188 120.616 165.316 121.24C166.468 121.864 167.56 122.488 168.592 123.112C169.648 123.712 170.488 124.252 171.112 124.732L168.952 128.404C168.496 128.02 167.896 127.588 167.152 127.108C166.432 126.628 165.64 126.136 164.776 125.632C163.936 125.128 163.12 124.66 162.328 124.228C161.536 123.772 160.852 123.412 160.276 123.148L162.256 119.656ZM140.188 121.636C141.244 121.756 142.168 121.84 142.96 121.888C143.776 121.912 144.508 121.924 145.156 121.924C146.092 121.924 147.124 121.888 148.252 121.816C149.38 121.72 150.532 121.6 151.708 121.456C152.884 121.288 154.024 121.096 155.128 120.88C156.256 120.664 157.276 120.424 158.188 120.16L158.296 124.624C157.288 124.864 156.196 125.08 155.02 125.272C153.844 125.44 152.656 125.596 151.456 125.74C150.28 125.884 149.152 125.992 148.072 126.064C147.016 126.136 146.092 126.172 145.3 126.172C144.1 126.172 143.116 126.16 142.348 126.136C141.58 126.112 140.884 126.064 140.26 125.992L140.188 121.636Z" fill="#4AA9D5"/>
<path d="M473.984 66.164C473.84 66.812 473.72 67.388 473.624 67.892C473.528 68.396 473.444 68.888 473.372 69.368C473.276 69.872 473.156 70.604 473.012 71.564C472.892 72.5 472.748 73.568 472.58 74.768C472.436 75.944 472.28 77.18 472.112 78.476C471.968 79.748 471.824 80.996 471.68 82.22C471.536 83.444 471.416 84.56 471.32 85.568C471.248 86.576 471.212 87.38 471.212 87.98C471.212 89.468 471.656 90.608 472.544 91.4C473.456 92.168 474.8 92.552 476.576 92.552C478.256 92.552 479.672 92.324 480.824 91.868C481.976 91.388 482.852 90.752 483.452 89.96C484.052 89.168 484.352 88.28 484.352 87.296C484.352 86.072 484.028 84.884 483.38 83.732C482.756 82.556 481.844 81.416 480.644 80.312L485.72 79.232C486.92 80.744 487.796 82.184 488.348 83.552C488.924 84.896 489.212 86.336 489.212 87.872C489.212 89.672 488.696 91.28 487.664 92.696C486.632 94.112 485.156 95.216 483.236 96.008C481.34 96.8 479.072 97.196 476.432 97.196C474.56 97.196 472.892 96.908 471.428 96.332C469.964 95.756 468.824 94.844 468.008 93.596C467.192 92.348 466.784 90.728 466.784 88.736C466.784 87.992 466.844 87.008 466.964 85.784C467.084 84.536 467.228 83.168 467.396 81.68C467.588 80.168 467.78 78.644 467.972 77.108C468.164 75.548 468.332 74.072 468.476 72.68C468.644 71.288 468.776 70.088 468.872 69.08C468.92 68.24 468.944 67.604 468.944 67.172C468.968 66.716 468.956 66.284 468.908 65.876L473.984 66.164ZM461.132 70.628C462.212 70.964 463.388 71.252 464.66 71.492C465.932 71.708 467.24 71.876 468.584 71.996C469.928 72.092 471.2 72.14 472.4 72.14C473.816 72.14 475.136 72.092 476.36 71.996C477.584 71.9 478.652 71.78 479.564 71.636L479.42 75.92C478.34 76.016 477.26 76.1 476.18 76.172C475.1 76.244 473.804 76.28 472.292 76.28C471.068 76.28 469.796 76.22 468.476 76.1C467.156 75.956 465.848 75.776 464.552 75.56C463.256 75.32 462.044 75.056 460.916 74.768L461.132 70.628ZM460.376 79.556C461.672 79.988 462.98 80.324 464.3 80.564C465.644 80.804 466.964 80.972 468.26 81.068C469.58 81.14 470.84 81.176 472.04 81.176C473.144 81.176 474.332 81.14 475.604 81.068C476.9 80.996 478.124 80.888 479.276 80.744L479.168 85.028C478.16 85.124 477.128 85.208 476.072 85.28C475.016 85.328 473.924 85.352 472.796 85.352C470.396 85.352 468.092 85.232 465.884 84.992C463.676 84.728 461.756 84.368 460.124 83.912L460.376 79.556Z" fill="#4AA9D5"/>
<path d="M441.972 64.5796H446.184V70.2676H441.972V64.5796ZM433.944 68.3596H454.824V75.4876H450.828V72.0316H437.76V75.4876H433.944V68.3596ZM436.608 74.9476H452.052V78.6556H436.608V74.9476ZM434.448 81.2836H454.644V85.1356H434.448V81.2836ZM438.516 83.1196H442.62C442.548 85.0636 442.38 86.8276 442.116 88.4116C441.876 89.9716 441.444 91.3756 440.82 92.6236C440.22 93.8476 439.332 94.9156 438.156 95.8276C436.98 96.7636 435.432 97.5556 433.512 98.2036C433.392 97.8436 433.2 97.4476 432.936 97.0156C432.696 96.6076 432.42 96.1996 432.108 95.7916C431.796 95.3836 431.496 95.0596 431.208 94.8196C432.84 94.3396 434.136 93.7516 435.096 93.0556C436.056 92.3596 436.764 91.5436 437.22 90.6076C437.7 89.6476 438.024 88.5556 438.192 87.3316C438.36 86.0836 438.468 84.6796 438.516 83.1196ZM445.176 82.6876H449.208V92.9116C449.208 93.4636 449.232 93.7996 449.28 93.9196C449.352 94.0396 449.52 94.0996 449.784 94.0996C449.856 94.0996 449.976 94.0996 450.144 94.0996C450.312 94.0996 450.468 94.0996 450.612 94.0996C450.78 94.0996 450.912 94.0996 451.008 94.0996C451.176 94.0996 451.308 94.0036 451.404 93.8116C451.524 93.6196 451.608 93.2236 451.656 92.6236C451.704 91.9996 451.74 91.0756 451.764 89.8516C452.028 90.0676 452.364 90.2836 452.772 90.4996C453.204 90.7156 453.648 90.9076 454.104 91.0756C454.584 91.2436 454.992 91.3756 455.328 91.4716C455.232 93.1516 455.028 94.4596 454.716 95.3956C454.428 96.3316 454.02 96.9796 453.492 97.3396C452.988 97.7236 452.304 97.9156 451.44 97.9156C451.296 97.9156 451.116 97.9156 450.9 97.9156C450.684 97.9156 450.456 97.9156 450.216 97.9156C450 97.9156 449.784 97.9156 449.568 97.9156C449.352 97.9156 449.172 97.9156 449.028 97.9156C447.996 97.9156 447.192 97.7596 446.616 97.4476C446.064 97.1356 445.68 96.6076 445.464 95.8636C445.272 95.1436 445.176 94.1716 445.176 92.9476V82.6876ZM422.856 65.9476H431.352V69.8356H426.636V98.2396H422.856V65.9476ZM430.056 65.9476H430.74L431.352 65.8036L434.16 67.4236C433.872 68.4316 433.548 69.5236 433.188 70.6996C432.828 71.8756 432.456 73.0276 432.072 74.1556C431.712 75.2836 431.364 76.3156 431.028 77.2516C432.132 78.6196 432.852 79.9156 433.188 81.1396C433.524 82.3636 433.692 83.5036 433.692 84.5596C433.692 85.7116 433.56 86.6716 433.296 87.4396C433.056 88.2076 432.648 88.7956 432.072 89.2036C431.784 89.3956 431.46 89.5516 431.1 89.6716C430.764 89.7916 430.404 89.8876 430.02 89.9596C429.348 90.0316 428.556 90.0556 427.644 90.0316C427.62 89.5276 427.524 88.9156 427.356 88.1956C427.212 87.4756 426.996 86.8636 426.708 86.3596C427.044 86.3836 427.332 86.3956 427.572 86.3956C427.836 86.3956 428.076 86.3956 428.292 86.3956C428.724 86.3716 429.06 86.2636 429.3 86.0716C429.516 85.9036 429.66 85.6516 429.732 85.3156C429.828 84.9556 429.876 84.5236 429.876 84.0196C429.876 83.1796 429.708 82.2196 429.372 81.1396C429.06 80.0596 428.4 78.9196 427.392 77.7196C427.632 76.9036 427.872 76.0156 428.112 75.0556C428.376 74.0716 428.628 73.0876 428.868 72.1036C429.132 71.1196 429.36 70.2076 429.552 69.3676C429.768 68.5036 429.936 67.7836 430.056 67.2076V65.9476Z" fill="#4AA9D5"/>
<path d="M393.401 78.4398V91.7238H389.261V82.4358H384.653V78.4398H393.401ZM393.401 89.9958C394.121 91.2198 395.105 92.1078 396.353 92.6598C397.625 93.2118 399.173 93.5238 400.997 93.5958C402.077 93.6438 403.373 93.6798 404.885 93.7038C406.397 93.7038 407.981 93.6918 409.637 93.6678C411.317 93.6438 412.961 93.6078 414.569 93.5598C416.177 93.4878 417.605 93.3918 418.853 93.2718C418.685 93.5838 418.505 94.0038 418.313 94.5318C418.145 95.0358 417.989 95.5518 417.845 96.0798C417.701 96.6078 417.581 97.0758 417.485 97.4838C416.381 97.5558 415.109 97.6038 413.669 97.6278C412.229 97.6518 410.741 97.6638 409.205 97.6638C407.669 97.6878 406.181 97.6878 404.741 97.6638C403.325 97.6638 402.065 97.6398 400.961 97.5918C398.801 97.4958 396.965 97.1478 395.453 96.5478C393.965 95.9478 392.681 94.9518 391.601 93.5598C390.761 94.2798 389.897 94.9878 389.009 95.6838C388.145 96.4038 387.209 97.1478 386.201 97.9158L384.185 93.5958C385.049 93.1158 385.961 92.5638 386.921 91.9398C387.881 91.3158 388.793 90.6678 389.657 89.9958H393.401ZM385.193 67.9278L388.145 65.1558C388.913 65.6598 389.693 66.2478 390.485 66.9198C391.301 67.5678 392.069 68.2278 392.789 68.8998C393.509 69.5478 394.073 70.1598 394.481 70.7358L391.241 73.8318C390.881 73.2558 390.365 72.6198 389.693 71.9238C389.021 71.2278 388.289 70.5318 387.497 69.8358C386.705 69.1158 385.937 68.4798 385.193 67.9278ZM399.737 71.4198L402.509 69.1158C403.565 69.4758 404.729 69.9198 406.001 70.4478C407.273 70.9518 408.497 71.4798 409.673 72.0318C410.873 72.5838 411.869 73.0878 412.661 73.5438L409.709 76.1358C408.989 75.6558 408.053 75.1398 406.901 74.5878C405.773 74.0358 404.573 73.4838 403.301 72.9318C402.029 72.3558 400.841 71.8518 399.737 71.4198ZM396.497 73.4358H414.821V76.5678H400.529V92.0838H396.497V73.4358ZM412.805 73.4358H416.909V88.3758C416.909 89.2638 416.801 89.9598 416.585 90.4638C416.393 90.9438 416.009 91.3278 415.433 91.6158C414.881 91.9038 414.197 92.0838 413.381 92.1558C412.589 92.2038 411.653 92.2278 410.573 92.2278C410.477 91.6998 410.321 91.1238 410.105 90.4998C409.913 89.8518 409.709 89.2878 409.493 88.8078C410.045 88.8318 410.597 88.8438 411.149 88.8438C411.701 88.8438 412.073 88.8438 412.265 88.8438C412.457 88.8438 412.589 88.8078 412.661 88.7358C412.757 88.6398 412.805 88.4958 412.805 88.3038V73.4358ZM396.821 65.6238H413.957V68.8998H396.821V65.6238ZM398.729 78.5118H414.209V81.5358H398.729V78.5118ZM398.729 83.5518H414.209V86.6838H398.729V83.5518ZM404.669 74.9118H408.521V91.9398H404.669V74.9118ZM412.409 65.6238H413.417L414.245 65.4078L416.801 67.4598C415.961 68.2518 415.013 69.0558 413.957 69.8718C412.925 70.6878 411.845 71.4558 410.717 72.1758C409.589 72.8718 408.473 73.4838 407.369 74.0118C407.129 73.6518 406.781 73.2318 406.325 72.7518C405.893 72.2718 405.533 71.8878 405.245 71.5998C406.157 71.1678 407.069 70.6518 407.981 70.0518C408.917 69.4278 409.769 68.7918 410.537 68.1438C411.329 67.4958 411.953 66.9078 412.409 66.3798V65.6238Z" fill="#4AA9D5"/>
<path d="M367.976 70.3396C367.736 72.1636 367.424 74.1076 367.04 76.1716C366.656 78.2356 366.14 80.3236 365.492 82.4356C364.796 84.8596 363.98 86.9476 363.044 88.6996C362.108 90.4516 361.076 91.8076 359.948 92.7676C358.844 93.7036 357.632 94.1716 356.312 94.1716C354.992 94.1716 353.768 93.7276 352.64 92.8396C351.536 91.9276 350.648 90.6796 349.976 89.0956C349.328 87.5116 349.004 85.7116 349.004 83.6956C349.004 81.6076 349.424 79.6396 350.264 77.7916C351.104 75.9436 352.268 74.3116 353.756 72.8956C355.268 71.4556 357.02 70.3276 359.012 69.5116C361.028 68.6956 363.2 68.2876 365.528 68.2876C367.76 68.2876 369.764 68.6476 371.54 69.3676C373.34 70.0876 374.876 71.0836 376.148 72.3556C377.42 73.6276 378.392 75.1156 379.064 76.8196C379.736 78.5236 380.072 80.3596 380.072 82.3276C380.072 84.8476 379.556 87.1036 378.524 89.0956C377.492 91.0876 375.956 92.7316 373.916 94.0276C371.9 95.3236 369.38 96.2116 366.356 96.6916L363.656 92.4076C364.352 92.3356 364.964 92.2516 365.492 92.1556C366.02 92.0596 366.524 91.9516 367.004 91.8316C368.156 91.5436 369.224 91.1356 370.208 90.6076C371.216 90.0556 372.092 89.3836 372.836 88.5916C373.58 87.7756 374.156 86.8276 374.564 85.7476C374.996 84.6676 375.212 83.4796 375.212 82.1836C375.212 80.7676 374.996 79.4716 374.564 78.2956C374.132 77.1196 373.496 76.0996 372.656 75.2356C371.816 74.3476 370.796 73.6756 369.596 73.2196C368.396 72.7396 367.016 72.4996 365.456 72.4996C363.536 72.4996 361.844 72.8476 360.38 73.5436C358.916 74.2156 357.68 75.0916 356.672 76.1716C355.664 77.2516 354.896 78.4156 354.368 79.6636C353.864 80.9116 353.612 82.0996 353.612 83.2276C353.612 84.4276 353.756 85.4356 354.044 86.2516C354.332 87.0436 354.68 87.6436 355.088 88.0516C355.52 88.4356 355.976 88.6276 356.456 88.6276C356.96 88.6276 357.452 88.3756 357.932 87.8716C358.436 87.3436 358.928 86.5516 359.408 85.4956C359.888 84.4396 360.368 83.1076 360.848 81.4996C361.4 79.7716 361.868 77.9236 362.252 75.9556C362.636 73.9876 362.912 72.0676 363.08 70.1956L367.976 70.3396Z" fill="#4AA9D5"/>
<path d="M312.384 70.304C313.104 70.28 313.788 70.256 314.436 70.232C315.084 70.184 315.576 70.148 315.912 70.124C316.656 70.076 317.568 70.004 318.648 69.908C319.752 69.788 320.976 69.668 322.32 69.548C323.688 69.428 325.14 69.308 326.676 69.188C328.212 69.068 329.808 68.936 331.464 68.792C332.712 68.672 333.948 68.576 335.172 68.504C336.42 68.408 337.596 68.336 338.7 68.288C339.828 68.216 340.812 68.168 341.652 68.144L341.688 72.752C341.04 72.752 340.296 72.764 339.456 72.788C338.616 72.812 337.776 72.86 336.936 72.932C336.12 72.98 335.388 73.088 334.74 73.256C333.66 73.544 332.652 74.036 331.716 74.732C330.78 75.404 329.964 76.208 329.268 77.144C328.596 78.056 328.068 79.052 327.684 80.132C327.3 81.188 327.108 82.256 327.108 83.336C327.108 84.512 327.312 85.556 327.72 86.468C328.152 87.356 328.728 88.124 329.448 88.772C330.192 89.396 331.056 89.924 332.04 90.356C333.024 90.764 334.08 91.076 335.208 91.292C336.36 91.508 337.548 91.652 338.772 91.724L337.08 96.656C335.568 96.56 334.092 96.32 332.652 95.936C331.236 95.552 329.904 95.024 328.656 94.352C327.408 93.68 326.316 92.864 325.38 91.904C324.468 90.92 323.736 89.804 323.184 88.556C322.656 87.284 322.392 85.868 322.392 84.308C322.392 82.58 322.668 80.996 323.22 79.556C323.772 78.092 324.456 76.82 325.272 75.74C326.112 74.636 326.94 73.784 327.756 73.184C327.084 73.28 326.268 73.376 325.308 73.472C324.372 73.568 323.352 73.688 322.248 73.832C321.168 73.952 320.064 74.084 318.936 74.228C317.808 74.372 316.716 74.54 315.66 74.732C314.628 74.9 313.692 75.068 312.852 75.236L312.384 70.304ZM336.54 76.28C336.852 76.712 337.176 77.228 337.512 77.828C337.872 78.404 338.22 78.992 338.556 79.592C338.892 80.168 339.18 80.696 339.42 81.176L336.684 82.4C336.228 81.392 335.784 80.504 335.352 79.736C334.944 78.968 334.452 78.188 333.876 77.396L336.54 76.28ZM340.572 74.624C340.884 75.056 341.22 75.56 341.58 76.136C341.964 76.688 342.336 77.264 342.696 77.864C343.056 78.44 343.356 78.956 343.596 79.412L340.896 80.708C340.416 79.748 339.948 78.896 339.492 78.152C339.06 77.408 338.544 76.64 337.944 75.848L340.572 74.624Z" fill="#4AA9D5"/>
<path d="M298.936 59.7559C299.317 60.2839 299.713 60.9292 300.124 61.6919C300.564 62.4252 300.989 63.1585 301.4 63.8919C301.811 64.6252 302.148 65.2559 302.412 65.7839L298.892 67.3239C298.423 66.4145 297.88 65.3879 297.264 64.2439C296.648 63.0705 296.047 62.0585 295.46 61.2079L298.936 59.7559ZM304.128 57.7759C304.509 58.3332 304.92 58.9932 305.36 59.7559C305.829 60.4892 306.269 61.2225 306.68 61.9559C307.091 62.6599 307.428 63.2612 307.692 63.7599L304.172 65.2999C303.732 64.3612 303.189 63.3199 302.544 62.1759C301.899 61.0319 301.268 60.0492 300.652 59.2279L304.128 57.7759ZM287.628 60.1519C287.569 60.6799 287.511 61.3399 287.452 62.1319C287.423 62.9239 287.393 63.5839 287.364 64.1119C287.247 68.4825 286.88 72.3545 286.264 75.7279C285.648 79.1012 284.768 82.1079 283.624 84.7479C282.48 87.3585 281.028 89.7052 279.268 91.7879C277.508 93.8412 275.411 95.7186 272.976 97.4199L267.872 93.2839C268.781 92.7852 269.749 92.1692 270.776 91.4359C271.832 90.7025 272.785 89.8959 273.636 89.0159C275.073 87.5785 276.291 86.0239 277.288 84.3519C278.285 82.6505 279.077 80.8025 279.664 78.8079C280.28 76.8132 280.735 74.6132 281.028 72.2079C281.321 69.7732 281.468 67.1039 281.468 64.1999C281.468 63.8772 281.453 63.4665 281.424 62.9679C281.395 62.4692 281.351 61.9705 281.292 61.4719C281.263 60.9439 281.219 60.5039 281.16 60.1519H287.628ZM302.588 69.5679C302.529 69.9492 302.456 70.3745 302.368 70.8439C302.309 71.3132 302.28 71.6652 302.28 71.8999C302.251 72.8385 302.192 74.0412 302.104 75.5079C302.045 76.9745 301.943 78.5585 301.796 80.2599C301.679 81.9319 301.517 83.6185 301.312 85.3199C301.136 86.9919 300.916 88.5465 300.652 89.9839C300.388 91.3919 300.065 92.5505 299.684 93.4599C299.215 94.5452 298.525 95.3812 297.616 95.9679C296.736 96.5545 295.533 96.8479 294.008 96.8479C292.747 96.8479 291.485 96.8039 290.224 96.7159C288.963 96.6279 287.789 96.5399 286.704 96.4519L286.044 90.5999C287.129 90.7759 288.215 90.9225 289.3 91.0399C290.385 91.1279 291.353 91.1719 292.204 91.1719C292.937 91.1719 293.48 91.0545 293.832 90.8199C294.184 90.5852 294.477 90.1892 294.712 89.6319C294.947 89.0745 295.167 88.3119 295.372 87.3439C295.577 86.3759 295.753 85.2905 295.9 84.0879C296.047 82.8559 296.164 81.5945 296.252 80.3039C296.369 79.0132 296.443 77.7665 296.472 76.5639C296.531 75.3612 296.56 74.2759 296.56 73.3079H275.088C274.355 73.3079 273.445 73.3225 272.36 73.3519C271.275 73.3812 270.248 73.4399 269.28 73.5279V67.7199C270.219 67.8372 271.216 67.9252 272.272 67.9839C273.328 68.0132 274.267 68.0279 275.088 68.0279H295.46C296.017 68.0279 296.575 68.0132 297.132 67.9839C297.719 67.9252 298.261 67.8372 298.76 67.7199L302.588 69.5679Z" fill="#4AA9D5"/>
<path d="M240.056 60.5476C239.792 61.1049 239.528 61.7209 239.264 62.3956C239 63.0703 238.78 63.6423 238.604 64.1116C238.34 64.8449 238.018 65.6663 237.636 66.5756C237.284 67.4849 236.903 68.4089 236.492 69.3476C236.111 70.2569 235.715 71.0929 235.304 71.8556C234.747 72.9703 234.043 74.1729 233.192 75.4636C232.371 76.7249 231.491 77.9423 230.552 79.1156C229.614 80.2596 228.646 81.2569 227.648 82.1076L222.148 78.7636C222.94 78.2063 223.688 77.5463 224.392 76.7836C225.126 76.0209 225.815 75.2289 226.46 74.4076C227.135 73.5863 227.751 72.7796 228.308 71.9876C228.866 71.1663 229.35 70.4036 229.76 69.6996C230.347 68.7023 230.846 67.6609 231.256 66.5756C231.696 65.4903 232.048 64.5369 232.312 63.7156C232.576 62.9823 232.782 62.2196 232.928 61.4276C233.104 60.6063 233.207 59.8583 233.236 59.1836L240.056 60.5476ZM233.104 67.3236C233.603 67.3236 234.336 67.3236 235.304 67.3236C236.272 67.3236 237.402 67.3236 238.692 67.3236C239.983 67.3236 241.332 67.3236 242.74 67.3236C244.178 67.3236 245.6 67.3236 247.008 67.3236C248.446 67.3236 249.78 67.3236 251.012 67.3236C252.274 67.3236 253.359 67.3236 254.268 67.3236C255.207 67.3236 255.896 67.3236 256.336 67.3236C256.923 67.3236 257.656 67.3089 258.536 67.2796C259.416 67.2209 260.208 67.1329 260.912 67.0156V73.0436C260.091 72.9556 259.24 72.9116 258.36 72.9116C257.51 72.8823 256.835 72.8676 256.336 72.8676C255.838 72.8676 255.002 72.8676 253.828 72.8676C252.655 72.8676 251.291 72.8676 249.736 72.8676C248.182 72.8676 246.539 72.8676 244.808 72.8676C243.107 72.8676 241.45 72.8676 239.836 72.8676C238.223 72.8676 236.786 72.8676 235.524 72.8676C234.263 72.8676 233.295 72.8676 232.62 72.8676L233.104 67.3236ZM250.264 70.4916C250.206 73.7476 249.868 76.7396 249.252 79.4676C248.636 82.1663 247.756 84.6156 246.612 86.8156C245.498 89.0156 244.119 91.0103 242.476 92.7996C240.834 94.5596 238.956 96.0996 236.844 97.4196L230.904 93.4156C231.696 93.0929 232.459 92.7263 233.192 92.3156C233.926 91.8756 234.556 91.4356 235.084 90.9956C236.346 90.0276 237.504 88.9276 238.56 87.6956C239.646 86.4343 240.599 84.9823 241.42 83.3396C242.271 81.6676 242.931 79.7756 243.4 77.6636C243.899 75.5516 244.163 73.1609 244.192 70.4916H250.264Z" fill="#4AA9D5"/>
<path d="M209.5 72.6479C210.556 72.6479 211.495 72.9119 212.316 73.4399C213.167 73.9386 213.841 74.6133 214.34 75.4639C214.868 76.2853 215.132 77.2239 215.132 78.2799C215.132 79.3066 214.868 80.2453 214.34 81.096C213.841 81.9466 213.167 82.6359 212.316 83.1639C211.495 83.6626 210.556 83.9119 209.5 83.9119C208.474 83.9119 207.535 83.6626 206.684 83.1639C205.834 82.6359 205.144 81.9466 204.616 81.096C204.117 80.2453 203.868 79.3066 203.868 78.2799C203.868 77.2239 204.117 76.2853 204.616 75.4639C205.144 74.6133 205.834 73.9386 206.684 73.4399C207.535 72.9119 208.474 72.6479 209.5 72.6479Z" fill="#4AA9D5"/>
<path d="M165.656 61.8678H195.664V66.2238H165.656V61.8678ZM166.14 68.3358H191.66V72.6038H166.14V68.3358ZM160.904 74.8038H186.292V79.2038H160.904V74.8038ZM165.128 57.4238L170.672 58.6118C169.616 62.1612 168.193 65.4465 166.404 68.4678C164.615 71.4892 162.649 73.9825 160.508 75.9478C160.185 75.6252 159.716 75.2585 159.1 74.8478C158.513 74.4078 157.912 73.9825 157.296 73.5718C156.68 73.1318 156.152 72.7945 155.712 72.5598C157.883 70.8878 159.775 68.7172 161.388 66.0478C163.031 63.3492 164.277 60.4745 165.128 57.4238ZM175.996 79.4238L181.144 81.0958C179.677 83.8532 177.888 86.4052 175.776 88.7518C173.693 91.0692 171.405 93.1372 168.912 94.9558C166.419 96.7745 163.823 98.3292 161.124 99.6198C160.86 99.2678 160.493 98.8278 160.024 98.2998C159.584 97.7718 159.1 97.2585 158.572 96.7598C158.073 96.2612 157.633 95.8505 157.252 95.5278C159.951 94.4425 162.488 93.1078 164.864 91.5238C167.269 89.9398 169.411 88.1212 171.288 86.0678C173.195 84.0145 174.764 81.7998 175.996 79.4238ZM184.576 74.8038H189.988C189.988 77.4438 190.017 79.9225 190.076 82.2398C190.135 84.5278 190.267 86.5372 190.472 88.2678C190.707 89.9692 191.029 91.3185 191.44 92.3158C191.851 93.2838 192.379 93.7678 193.024 93.7678C193.376 93.7385 193.611 93.1812 193.728 92.0958C193.845 91.0105 193.919 89.5878 193.948 87.8278C194.447 88.4145 195.004 89.0158 195.62 89.6318C196.265 90.2185 196.852 90.7172 197.38 91.1278C197.263 92.9465 197.043 94.4425 196.72 95.6158C196.427 96.7892 195.957 97.6398 195.312 98.1678C194.667 98.7252 193.787 99.0038 192.672 99.0038C190.824 99.0038 189.357 98.3732 188.272 97.1118C187.216 95.8798 186.424 94.1638 185.896 91.9638C185.368 89.7345 185.016 87.1532 184.84 84.2198C184.664 81.2865 184.576 78.1478 184.576 74.8038ZM160.992 84.3078L164.732 80.8318C166.345 81.6825 168.017 82.6358 169.748 83.6918C171.508 84.7185 173.239 85.8038 174.94 86.9478C176.671 88.0918 178.269 89.2358 179.736 90.3798C181.203 91.4945 182.435 92.5652 183.432 93.5918L179.208 97.5958C178.299 96.5985 177.14 95.5132 175.732 94.3398C174.353 93.1665 172.828 91.9932 171.156 90.8198C169.513 89.6172 167.812 88.4585 166.052 87.3438C164.292 86.2292 162.605 85.2172 160.992 84.3078Z" fill="#4AA9D5"/>
<path d="M124.552 69.9636H152.096V74.4076H124.552V69.9636ZM136.036 86.0236L139.116 83.3836C139.938 84.0289 140.788 84.7476 141.668 85.5396C142.578 86.3316 143.443 87.1236 144.264 87.9156C145.115 88.6783 145.79 89.3529 146.288 89.9396L143.076 92.9316C142.578 92.3156 141.932 91.5969 141.14 90.7756C140.348 89.9543 139.498 89.1329 138.588 88.3116C137.708 87.4903 136.858 86.7276 136.036 86.0236ZM125.476 77.5756H147.872V82.0196H130.228V98.9596H125.476V77.5756ZM145.848 77.5756H150.864V93.8116C150.864 94.9263 150.718 95.8209 150.424 96.4956C150.16 97.1703 149.647 97.6983 148.884 98.0796C148.122 98.4609 147.212 98.6956 146.156 98.7836C145.13 98.9009 143.912 98.9449 142.504 98.9156C142.416 98.2409 142.196 97.4636 141.844 96.5836C141.522 95.7036 141.184 94.9556 140.832 94.3396C141.712 94.3689 142.563 94.3983 143.384 94.4276C144.235 94.4276 144.792 94.4129 145.056 94.3836C145.35 94.3836 145.555 94.3396 145.672 94.2516C145.79 94.1343 145.848 93.9583 145.848 93.7236V77.5756ZM135.464 71.4596H140.04V79.2916C140.04 80.4943 139.923 81.7263 139.688 82.9876C139.483 84.2489 139.087 85.4956 138.5 86.7276C137.943 87.9596 137.151 89.1329 136.124 90.2476C135.098 91.3329 133.778 92.3156 132.164 93.1956C131.871 92.6969 131.416 92.1103 130.8 91.4356C130.214 90.7609 129.671 90.2183 129.172 89.8076C130.58 89.1916 131.695 88.4583 132.516 87.6076C133.367 86.7569 133.998 85.8623 134.408 84.9236C134.848 83.9556 135.127 82.9876 135.244 82.0196C135.391 81.0516 135.464 80.1276 135.464 79.2476V71.4596ZM120.856 62.3516H152.36V67.0596H120.856V62.3516ZM117.996 62.3516H123.012V75.5076C123.012 77.2676 122.924 79.1889 122.748 81.2716C122.572 83.3543 122.235 85.4516 121.736 87.5636C121.238 89.6463 120.519 91.6556 119.58 93.5916C118.642 95.5276 117.41 97.2583 115.884 98.7836C115.65 98.4316 115.283 98.0209 114.784 97.5516C114.315 97.0823 113.831 96.6276 113.332 96.1876C112.863 95.7476 112.452 95.4396 112.1 95.2636C113.45 93.8849 114.506 92.3743 115.268 90.7316C116.06 89.0889 116.647 87.4023 117.028 85.6716C117.439 83.9116 117.703 82.1663 117.82 80.4356C117.938 78.6756 117.996 77.0183 117.996 75.4636V62.3516ZM131.24 57.5996H136.784V65.4756H131.24V57.5996ZM111.176 67.8076L115.004 65.9596C115.738 67.2209 116.412 68.6143 117.028 70.1396C117.644 71.6356 118.055 72.9409 118.26 74.0556L114.168 76.2556C114.051 75.4929 113.831 74.6276 113.508 73.6596C113.215 72.6916 112.863 71.7089 112.452 70.7116C112.071 69.6849 111.646 68.7169 111.176 67.8076ZM110.824 82.8556C111.88 82.4449 113.112 81.8876 114.52 81.1836C115.958 80.4796 117.439 79.7609 118.964 79.0276L120.196 83.1636C118.906 83.9556 117.586 84.7476 116.236 85.5396C114.916 86.3316 113.626 87.0943 112.364 87.8276L110.824 82.8556Z" fill="#4AA9D5"/>
</svg>
