<svg width="142" height="18" viewBox="0 0 142 18" fill="none" xmlns="http://www.w3.org/2000/svg">
<path d="M138.235 5.00194C138.525 4.98379 139.433 4.893 140.105 4.82037C140.414 4.78406 140.595 4.7659 140.632 4.7659C140.922 4.7659 141.158 5.0201 141.158 5.36508C141.158 5.78269 140.868 5.92794 140.505 5.98241C139.833 6.0732 138.979 6.12767 138.217 6.18214C138.217 8.03414 138.199 9.86798 138.308 11.72C139.07 12.0287 139.796 12.3918 140.505 12.8094C141.14 13.1907 141.63 13.4812 141.63 14.0804C141.63 14.6796 141.231 15.3514 140.577 15.3514C140.178 15.3514 139.924 15.1516 139.343 14.6069C139.052 14.3527 138.762 14.0985 138.453 13.8625C138.417 14.4617 138.308 15.0245 137.944 15.5148C137.182 16.5316 135.657 16.7858 134.458 16.7858C132.733 16.7858 130.446 16.2774 130.446 14.1349C130.446 11.7926 132.951 11.0845 134.876 11.0845C135.185 11.0845 135.493 11.1027 135.802 11.139C135.711 9.54116 135.675 7.9252 135.657 6.30924C134.64 6.34555 133.623 6.38186 132.624 6.38186C132.261 6.38186 131.081 6.43633 130.809 6.34555C130.555 6.25477 130.428 6.01873 130.428 5.76453C130.428 5.40139 130.7 5.16535 131.063 5.16535C131.644 5.16535 132.225 5.18351 132.788 5.18351C133.75 5.18351 134.694 5.16535 135.639 5.12904V4.83853C135.639 4.13041 135.602 3.42229 135.602 2.69602C135.602 1.7337 135.929 1.22531 136.964 1.22531C137.872 1.22531 138.308 1.69739 138.308 2.58708C138.308 3.38598 138.271 4.20304 138.235 5.00194ZM128.085 1.55214C128.793 1.55214 129.483 1.84264 129.483 2.64155C129.483 3.05916 129.284 4.40276 129.157 5.23798C128.902 7.01735 128.83 8.83304 128.83 10.6306C128.83 12.1194 128.957 13.5901 129.102 15.079C129.12 15.2061 129.138 15.3332 129.138 15.4421C129.138 16.2955 128.394 16.4952 127.686 16.4952C127.032 16.4952 126.633 15.9687 126.542 15.3695C126.324 13.7899 126.306 12.1739 126.306 10.5943C126.306 8.39728 126.469 6.18214 126.669 4.00331C126.742 3.24072 126.814 2.44182 127.014 2.02421C127.196 1.64292 127.704 1.55214 128.085 1.55214ZM135.838 12.5552C135.548 12.4826 135.239 12.4099 134.93 12.4099C133.823 12.4099 132.788 12.9002 132.788 14.153C132.788 15.1153 133.587 15.4603 134.44 15.4603C135.457 15.4603 135.875 14.8974 135.875 13.917C135.875 13.463 135.856 13.0091 135.838 12.5552Z" fill="#444444"/>
<path d="M111.617 8.28832C111.327 7.36232 111.218 6.63604 111.181 5.67373C111.145 4.63879 111.127 3.60385 111.127 2.5689C111.127 1.57028 111.363 0.9711 112.489 0.9711C113.251 0.9711 113.85 1.29792 113.85 2.11498C113.85 2.33287 113.832 2.55075 113.814 2.76863C113.723 3.60385 113.669 4.43906 113.669 5.29244C113.669 6.03687 113.742 6.74499 113.905 7.47126C114.795 7.18075 118.68 5.96424 119.316 5.96424C119.842 5.96424 120.169 6.45448 120.169 6.94471C120.169 7.7073 119.588 7.76177 118.68 7.85256C116.574 8.0886 114.286 8.59699 112.343 9.48667C111 10.104 110.019 11.0663 110.019 12.6278C110.019 15.1879 112.852 15.4784 114.795 15.4784C116.12 15.4784 117.427 15.3332 118.717 15.0608C119.134 14.9519 119.243 14.9337 119.407 14.9337C119.879 14.9337 120.133 15.3332 120.133 15.769C120.133 16.1321 119.969 16.4408 119.624 16.5497C119.134 16.7131 118.444 16.7494 117.899 16.7676C116.756 16.8221 115.612 16.8584 114.468 16.8584C111.726 16.8584 107.205 16.6042 107.205 12.882C107.205 11.6655 107.931 10.5035 108.894 9.75903C109.711 9.10538 110.673 8.70593 111.617 8.28832Z" fill="#444444"/>
<path d="M101.086 2.51445V15.0064C101.086 15.7145 100.777 16.2592 99.7969 16.2592C98.8709 16.2592 98.5259 15.7145 98.5259 15.0064V2.51445C98.5259 1.69739 99.0706 1.26163 99.7969 1.26163C100.578 1.26163 101.086 1.73371 101.086 2.51445Z" fill="#444444"/>
<path d="M93.2239 2.51445V15.0064C93.2239 15.7145 92.9153 16.2592 91.9348 16.2592C91.0088 16.2592 90.6638 15.7145 90.6638 15.0064V2.51445C90.6638 1.69739 91.2085 1.26163 91.9348 1.26163C92.7155 1.26163 93.2239 1.73371 93.2239 2.51445Z" fill="#444444"/>
<path d="M73.7778 9.9406C73.6326 12.2284 72.9608 14.1167 71.5627 15.9324C71.2722 16.2955 70.3462 17.4212 69.8923 17.4212C69.6199 17.4212 69.3839 17.2034 69.3839 16.931C69.3839 16.8039 69.402 16.7313 69.6018 16.4408C70.3643 15.3695 70.8001 14.4435 71.1088 13.1725C71.254 12.5552 71.363 11.9379 71.3993 11.3024C71.0906 11.6655 70.5096 12.3555 70.0012 12.3555C69.4383 12.3555 69.2205 11.6837 69.2205 11.2116C69.2205 10.6124 69.511 10.4308 70.0375 10.213C70.5277 10.0132 70.9998 9.77719 71.4719 9.48668V7.92519C71.3085 8.03413 71.1269 8.0886 70.9272 8.0886C70.4007 8.0886 70.2372 7.63468 70.1283 7.21707C69.9467 6.54526 69.6925 5.74636 69.4202 5.32875C69.3112 5.14719 69.2386 4.98377 69.2386 4.83852C69.2386 4.56617 69.4747 4.34828 69.747 4.34828C70.1646 4.34828 71.1814 5.34691 71.4719 5.65558V3.80358C71.4719 2.62338 72.2345 2.06052 73.3602 2.06052H77.2821V1.71554C77.2821 1.00742 77.6997 0.517181 78.5349 0.517181C79.1523 0.517181 79.8059 0.93479 79.8059 1.64291V2.06052H85.834C86.1427 2.06052 86.4513 2.22393 86.4513 2.56891C86.4513 2.93205 86.1427 3.0773 85.834 3.0773H79.8785C80.4233 3.2044 80.8409 3.44044 80.8409 4.07593C80.8409 4.2575 80.7864 4.42091 80.7138 4.60248H85.7251C86.0337 4.60248 86.3424 4.74773 86.3424 5.09271C86.3424 5.45585 86.0337 5.60111 85.7251 5.60111H82.4568C82.7473 6.16397 83.1468 6.67236 83.5826 7.12628C83.8186 6.79946 84.0183 6.45448 84.1999 6.1095C84.327 5.8553 84.5267 5.69189 84.8172 5.69189C85.2711 5.69189 85.8703 6.05503 85.8703 6.56342C85.8703 7.1626 84.8535 7.61652 84.3814 7.8344C84.9625 8.28832 85.6343 8.70593 86.3061 8.99644C86.5421 9.10538 86.76 9.25064 86.76 9.54115C86.76 9.79535 86.5603 10.0314 86.2879 10.0314C85.8522 10.0314 85.144 9.72272 84.5449 9.45037C84.563 9.54115 84.563 9.63193 84.563 9.74088V11.9015C84.563 12.9183 83.8549 13.4267 82.8926 13.4267H81.3311V15.66C81.3311 16.8402 80.5503 17.4031 79.4428 17.4031H77.2821C76.9734 17.4031 76.6829 17.2578 76.6829 16.8947C76.6829 16.5497 76.9734 16.3863 77.2821 16.3863H78.4078C78.7891 16.3863 78.9344 16.241 78.9344 15.8597V13.4267H77.264C76.3016 13.4267 75.5935 12.9183 75.5935 11.9015V9.55931C75.2304 9.75903 74.486 10.1403 74.1591 10.1403C74.0139 10.1403 73.8686 10.0495 73.7778 9.9406ZM73.796 9.34142C73.8323 9.28695 73.9776 9.17801 74.0502 9.1417C74.5949 8.85119 75.1033 8.48805 75.5754 8.10676C75.3756 7.97966 75.303 7.8344 75.2122 7.63468C75.0307 7.21707 74.8128 6.85393 74.5949 6.54526C74.486 6.40001 74.4315 6.29107 74.4315 6.18213C74.4315 5.94609 74.5949 5.74636 74.8309 5.74636C74.9217 5.74636 75.1578 5.83715 75.4119 5.94609C75.9203 6.16397 76.4832 6.43632 76.81 6.81762C77.1187 6.43632 77.3911 6.03687 77.6271 5.60111H74.722C74.4133 5.60111 74.1047 5.45585 74.1047 5.09271C74.1047 4.74773 74.4133 4.60248 74.722 4.60248H78.081C78.4442 3.53122 78.6076 3.22256 79.116 3.0773H74.3225C73.9594 3.0773 73.796 3.24071 73.796 3.60385V9.34142ZM80.0783 5.69189C79.3702 6.63605 78.5894 7.47127 77.6634 8.2157H82.4205C81.44 7.50758 80.7319 6.70868 80.0783 5.69189ZM82.2389 10.3037V9.75903C82.2389 9.37774 82.0937 9.21432 81.7124 9.21432H78.4078C78.0447 9.21432 77.8813 9.37774 77.8813 9.75903V10.3037H82.2389ZM82.2389 11.3024H77.8813V11.8834C77.8813 12.2647 78.0447 12.4281 78.4078 12.4281H81.7124C82.0937 12.4281 82.2389 12.2647 82.2389 11.8834V11.3024ZM73.8505 17.2034C73.5963 17.2034 73.3602 16.9673 73.3602 16.695C73.3602 16.4771 73.4692 16.3681 73.7597 16.1503C74.5223 15.5874 75.1759 14.7885 75.6661 14.0259C75.8659 13.7172 76.1382 13.5175 76.5195 13.5175C77.1187 13.5175 77.8268 13.917 77.8268 14.5888C77.8268 15.1335 77.2821 15.4966 76.7374 15.8597C76.1927 16.2229 74.377 17.2034 73.8505 17.2034ZM84.7809 17.1126C84.3996 17.1126 84.1817 16.9128 83.9638 16.6042C83.4555 15.8416 83.0197 15.2969 82.3842 14.6251C82.2571 14.4798 82.1482 14.3527 82.1482 14.153C82.1482 13.8625 82.366 13.6628 82.6565 13.6628C83.0742 13.6628 84.7446 14.4253 85.1985 14.6795C85.6524 14.9337 86.179 15.3695 86.179 15.8597C86.179 16.5679 85.4527 17.1126 84.7809 17.1126Z" fill="#444444"/>
<path d="M52.7159 2.80496V15.315C52.7159 15.6237 53.0064 15.9142 53.315 15.9142H65.8614C66.1701 15.9142 66.4788 16.0776 66.4788 16.4226C66.4788 16.7858 66.1701 16.931 65.8614 16.931H52.389C51.0636 16.931 50.2102 16.2592 50.2102 14.8974V3.22257C50.2102 1.8608 51.0636 1.189 52.389 1.189H65.5346C65.8614 1.189 66.1519 1.35241 66.1519 1.69739C66.1519 2.06053 65.8614 2.20578 65.5346 2.20578H53.315C52.9882 2.20578 52.7159 2.49629 52.7159 2.80496ZM59.7062 11.375C59.0889 12.2828 58.1992 13.0273 57.3095 13.6446C56.3654 14.2983 55.4757 14.7885 54.35 15.1698C54.1866 15.2243 54.0595 15.2424 53.9868 15.2424C53.7145 15.2424 53.4966 15.0064 53.4966 14.734C53.4966 14.4798 53.66 14.3346 53.8597 14.2438C55.5302 13.5175 57.0372 12.1739 57.7271 10.4853C57.8906 10.104 57.9813 9.70457 58.0721 9.30512H54.0231C53.7145 9.30512 53.4058 9.15986 53.4058 8.81488C53.4058 8.45175 53.7145 8.30649 54.0231 8.30649H58.2174C58.3082 7.36233 58.2719 6.38186 58.29 5.43771H56.5288C56.1838 5.819 55.4394 6.6179 54.8221 7.12629C54.5134 7.38049 54.241 7.56206 54.0776 7.56206C53.8053 7.56206 53.5692 7.34418 53.5692 7.07182C53.5692 6.92657 53.6237 6.81763 53.7145 6.67237C54.2955 5.72822 54.822 4.62064 55.167 3.56755C55.3849 2.9139 55.5665 2.35104 56.3654 2.35104C56.9646 2.35104 57.8179 2.69602 57.8179 3.40413C57.8179 3.78543 57.5819 4.13041 57.3459 4.42092H64.2273C64.536 4.42092 64.8446 4.56618 64.8446 4.92931C64.8446 5.29245 64.536 5.43771 64.2273 5.43771H60.8138C60.8138 6.38186 60.7957 7.34418 60.723 8.30649H65.0262C65.353 8.30649 65.6435 8.45175 65.6435 8.81488C65.6435 9.15986 65.353 9.30512 65.0262 9.30512H61.2314C61.9214 11.4295 63.5918 13.1907 65.4983 14.2438C65.7162 14.3527 65.8614 14.498 65.8614 14.734C65.8614 15.0064 65.6435 15.2424 65.3712 15.2424C65.2078 15.2424 64.8628 15.1335 64.4815 14.9701C63.9186 14.734 63.2832 14.4254 63.0108 14.2801C61.7398 13.5538 60.5596 12.5734 59.7062 11.375Z" fill="#444444"/>
<path d="M35.9676 1.53397H40.1073C44.3742 1.53397 46.208 4.85667 46.208 8.74225C46.208 12.6823 44.4105 15.9868 40.0892 15.9868H35.9676C34.6966 15.9868 33.9521 15.424 33.9521 14.0985V3.44044C33.9521 2.11499 34.7147 1.55212 35.9676 1.53397ZM36.7665 3.34965V14.1712C36.7665 14.5161 37.057 14.8248 37.402 14.8248H38.9816C39.9802 14.8248 41.0333 14.5524 41.7596 13.8625C43.0124 12.6823 43.2122 10.4671 43.2122 8.85119C43.2122 7.27154 42.9943 4.83852 41.7778 3.71279C41.0152 3.00467 39.9802 2.71416 38.9634 2.71416H37.402C37.0388 2.71416 36.7665 3.02283 36.7665 3.34965Z" fill="#444444"/>
<path d="M23.766 2.55077L26.0174 12.537C26.0537 12.7005 26.1082 12.8457 26.2716 12.8457C26.435 12.8457 26.4895 12.6278 26.5076 12.5189L28.5594 1.77002C28.6138 1.47951 28.868 1.26163 29.1586 1.26163C29.5035 1.26163 29.794 1.53398 29.794 1.87896C29.794 1.91528 29.7577 2.13316 29.7396 2.22394L27.361 14.8248C27.1976 15.6963 26.4532 16.2592 25.5816 16.2592C24.6556 16.2592 24.0202 15.7145 23.8204 14.8248L21.569 4.7659C21.5327 4.60249 21.4964 4.49355 21.3511 4.49355C21.2058 4.49355 21.1695 4.65696 21.1514 4.7659L19.027 14.8793C18.8454 15.7508 18.101 16.2592 17.2295 16.2592C16.3761 16.2592 15.6135 15.769 15.432 14.8611L13.0716 2.89575C13.0352 2.73234 13.0171 2.62339 13.0171 2.4963C13.0171 1.71555 13.8523 1.26163 14.5423 1.26163C15.3049 1.26163 15.6862 1.64292 15.8314 2.35104L17.7742 12.4644C17.7923 12.5734 17.8287 12.8094 17.9921 12.8094C18.1555 12.8094 18.1918 12.646 18.2281 12.4644L20.3162 2.55077C20.4977 1.71555 21.3148 1.26163 22.1137 1.26163C22.9126 1.26163 23.5844 1.75186 23.766 2.55077Z" fill="#444444"/>
<path d="M3.24083 8.07044H8.81499C9.14181 8.07044 9.41417 8.32464 9.41417 8.65146C9.41417 8.97829 9.14181 9.23248 8.81499 9.23248H3.24083V14.8974C3.24083 15.7871 2.56902 16.2592 1.82459 16.2592C1.062 16.2592 0.426514 15.7508 0.426514 14.8974V3.44044C0.426514 2.13314 1.1891 1.53397 2.44193 1.53397H9.46864C9.79546 1.53397 10.0678 1.78816 10.0678 2.11499C10.0678 2.44181 9.79546 2.71416 9.46864 2.71416H3.87632C3.5495 2.71416 3.24083 3.02283 3.24083 3.34965V8.07044Z" fill="#444444"/>
</svg>
