<svg width="126" height="39" viewBox="0 0 126 39" fill="none" xmlns="http://www.w3.org/2000/svg">
<path d="M90.3583 37.3988H97.4031C97.73 37.3988 98.0023 37.653 98.0023 37.9799C98.0023 38.3067 97.73 38.5609 97.4031 38.5609H87.6529C87.1082 38.5609 86.5635 38.2522 86.5635 37.653C86.5635 36.7815 87.2897 35.4379 87.8163 34.7661C89.0147 33.2409 90.6851 32.1878 92.3374 31.2437C93.7536 30.4447 95.0064 29.6458 95.0064 27.8483C95.0064 26.196 94.0986 25.0158 92.3918 25.0158C91.72 25.0158 91.0301 25.1611 90.5217 25.6332C89.9951 26.1053 89.6501 26.8678 89.6501 27.576C89.6501 27.7938 89.6683 27.9391 89.6865 28.0844C89.7046 28.2115 89.7228 28.393 89.7228 28.4475C89.7228 29.319 88.9602 29.7729 88.1613 29.7729C87.4168 29.7729 86.6543 29.3553 86.6543 28.5383C86.6543 27.6123 87.09 26.6318 87.6347 25.9055C88.8149 24.344 90.7577 23.8356 92.6279 23.8356C95.3514 23.8356 97.9478 24.9977 97.9478 28.1025C97.9478 30.8079 95.7145 32.1333 93.1363 33.5859C92.0105 34.2214 89.8499 35.5105 89.8499 36.9812C89.8499 37.2717 90.0859 37.3988 90.3583 37.3988Z" fill="#444444"/>
<path d="M78.2959 29.6277V36.2186C78.2959 36.9086 78.5138 37.5259 79.3127 37.5259C79.6396 37.5259 79.8938 37.4533 80.1298 37.3262C80.2569 37.2536 80.3295 37.2536 80.4021 37.2536C80.6745 37.2536 80.8924 37.4896 80.8924 37.762C80.8924 38.0162 80.729 38.1614 80.5111 38.2885C79.8756 38.6517 79.1493 38.8332 78.3867 38.8332C76.6255 38.8332 75.7177 37.8164 75.7177 36.0915V29.6277H74.5193C74.2288 29.6277 73.9746 29.3917 73.9746 29.1011C73.9746 28.7925 74.2288 28.5564 74.5193 28.5564H75.7177V26.3776C75.7177 25.6876 76.1897 25.1248 77.0068 25.1248C77.8239 25.1248 78.2959 25.6695 78.2959 26.3776V28.5564H80.2387C80.5292 28.5564 80.7834 28.7925 80.7834 29.1011C80.7834 29.3917 80.5292 29.6277 80.2387 29.6277H78.2959Z" fill="#444444"/>
<path d="M63.4806 29.8819C64.2432 28.847 65.2055 28.2659 66.4947 28.2659C68.9095 28.2659 70.0171 29.7911 70.0171 32.0789V37.5804C70.0171 38.2885 69.6721 38.8332 68.728 38.8332C67.7656 38.8332 67.4388 38.2885 67.4388 37.5804V31.625C67.4388 30.5355 66.9849 29.6095 65.7865 29.6095C64.6971 29.6095 63.8619 30.5174 63.4806 31.4615V37.5804C63.4806 38.3612 63.0085 38.8332 62.1915 38.8332C61.3926 38.8332 60.9023 38.3612 60.9023 37.5804V29.5006C60.9023 28.7925 61.3563 28.2659 62.1915 28.2659C62.8633 28.2659 63.4806 28.6835 63.4806 29.3917V29.8819Z" fill="#444444"/>
<path d="M54.5648 23.8356C55.4726 23.8356 56.2171 24.5801 56.2171 25.4879C56.2171 26.3776 55.4726 27.122 54.5648 27.122C53.6751 27.122 52.9307 26.3776 52.9307 25.4879C52.9307 24.5801 53.6751 23.8356 54.5648 23.8356ZM55.8539 29.5188V37.5804C55.8539 38.2704 55.5453 38.8332 54.5648 38.8332C53.6933 38.8332 53.2938 38.2885 53.2938 37.5804V29.5188C53.2938 28.8106 53.7477 28.2659 54.5648 28.2659C55.3455 28.2659 55.8539 28.7017 55.8539 29.5188Z" fill="#444444"/>
<path d="M44.0178 28.2659C47.1408 28.2659 48.8475 30.59 48.8475 33.5496C48.8475 36.5273 47.1408 38.8332 44.0178 38.8332C40.8767 38.8332 39.1699 36.5273 39.1699 33.5496C39.1699 30.59 40.8767 28.2659 44.0178 28.2659ZM44.0178 29.3917C41.9661 29.3917 41.8571 32.0607 41.8571 33.5496C41.8571 35.0384 41.9661 37.7257 44.0178 37.7257C46.0514 37.7257 46.1603 35.0384 46.1603 33.5496C46.1603 32.0607 46.0514 29.3917 44.0178 29.3917Z" fill="#444444"/>
<path d="M28.0038 32.4783V37.4715C28.0038 38.2159 27.5317 38.8332 26.5875 38.8332C25.5707 38.8332 25.1895 38.2341 25.1895 37.4715V26.0145C25.1895 24.7072 25.9702 24.108 27.223 24.108H32.0709C34.7037 24.108 36.5375 25.5424 36.5375 28.2841C36.5375 31.0258 34.6673 32.4783 32.0346 32.4783H28.0038ZM28.0038 31.3163H30.927C32.8517 31.3163 33.5416 29.9908 33.5416 28.2478C33.5416 26.5229 32.8698 25.2882 30.9815 25.2882H28.6574C28.3124 25.2882 28.0038 25.5969 28.0038 25.9237V31.3163Z" fill="#444444"/>
<path d="M118.78 3.10526C118.544 5.91958 118.344 8.75205 117.437 11.4393C116.837 13.2368 115.948 15.2522 113.733 15.2522C110.882 15.2522 109.502 12.1655 109.502 9.71436C109.502 7.77158 110.21 5.84695 111.499 4.41256C113.188 2.50608 115.566 1.67087 118.054 1.67087C122.339 1.67087 125.662 4.0131 125.662 8.55232C125.662 11.2759 124.427 13.6181 121.976 14.9072C121.177 15.3067 119.724 15.8695 118.816 15.8695C118.49 15.8695 118.199 15.5972 118.199 15.2522C118.199 14.8891 118.453 14.6893 118.762 14.5986C119.706 14.3262 120.487 13.8178 121.141 13.0915C122.303 11.7842 122.938 9.9504 122.938 8.2255C122.938 5.33856 121.449 3.88601 118.78 3.10526ZM116.166 3.10526C114.949 3.5955 114.096 4.17652 113.388 5.28409C112.353 6.88189 111.808 8.80652 111.808 10.6948C111.808 11.5119 111.881 12.3834 112.316 13.0915C112.534 13.4728 112.934 13.8541 113.406 13.8541C114.132 13.8541 114.568 12.6013 114.967 11.4211C115.784 8.73389 116.002 5.90142 116.166 3.10526Z" fill="#444444"/>
<path d="M101.44 2.27004V14.3988H102.293C102.62 14.3988 102.892 14.653 102.892 14.9799C102.892 15.3067 102.62 15.5609 102.293 15.5609H92.8515C92.5429 15.5609 92.2705 15.3067 92.2705 14.9799C92.2705 14.653 92.5429 14.3988 92.8515 14.3988H93.7049V2.27004H92.8515C92.5429 2.27004 92.2705 2.01585 92.2705 1.68902C92.2705 1.3622 92.5429 1.108 92.8515 1.108H102.293C102.62 1.108 102.892 1.3622 102.892 1.68902C102.892 2.01585 102.62 2.27004 102.293 2.27004H101.44ZM98.6254 2.27004H96.5192V14.3988H98.6254V2.27004Z" fill="#444444"/>
<path d="M73.3513 9.51464C73.2061 11.8024 72.5343 13.6907 71.1362 15.5064C70.8457 15.8695 69.9197 16.9953 69.4658 16.9953C69.1934 16.9953 68.9574 16.7774 68.9574 16.505C68.9574 16.3779 68.9755 16.3053 69.1752 16.0148C69.9378 14.9435 70.3736 14.0175 70.6823 12.7466C70.8275 12.1292 70.9365 11.5119 70.9728 10.8764C70.6641 11.2395 70.0831 11.9295 69.5747 11.9295C69.0118 11.9295 68.7939 11.2577 68.7939 10.7856C68.7939 10.1864 69.0845 10.0049 69.611 9.78699C70.1012 9.58726 70.5733 9.35122 71.0454 9.06071V7.49922C70.882 7.60816 70.7004 7.66263 70.5007 7.66263C69.9741 7.66263 69.8107 7.20871 69.7018 6.7911C69.5202 6.1193 69.266 5.3204 68.9937 4.90279C68.8847 4.72122 68.8121 4.55781 68.8121 4.41255C68.8121 4.1402 69.0481 3.92232 69.3205 3.92232C69.7381 3.92232 70.7549 4.92095 71.0454 5.22961V3.37761C71.0454 2.19741 71.808 1.63455 72.9337 1.63455H76.8556V1.28957C76.8556 0.581453 77.2732 0.091217 78.1084 0.091217C78.7258 0.091217 79.3794 0.508825 79.3794 1.21694V1.63455H85.4075C85.7162 1.63455 86.0248 1.79796 86.0248 2.14294C86.0248 2.50608 85.7162 2.65134 85.4075 2.65134H79.452C79.9967 2.77843 80.4143 3.01447 80.4143 3.64997C80.4143 3.83153 80.3599 3.99495 80.2872 4.17651H85.2985C85.6072 4.17651 85.9159 4.32177 85.9159 4.66675C85.9159 5.02989 85.6072 5.17514 85.2985 5.17514H82.0303C82.3208 5.73801 82.7203 6.2464 83.156 6.70032C83.3921 6.3735 83.5918 6.02852 83.7734 5.68353C83.9005 5.42934 84.1002 5.26593 84.3907 5.26593C84.8446 5.26593 85.4438 5.62906 85.4438 6.13746C85.4438 6.73663 84.427 7.19056 83.9549 7.40844C84.536 7.86236 85.2078 8.27997 85.8796 8.57048C86.1156 8.67942 86.3335 8.82467 86.3335 9.11518C86.3335 9.36938 86.1338 9.60542 85.8614 9.60542C85.4256 9.60542 84.7175 9.29675 84.1183 9.0244C84.1365 9.11519 84.1365 9.20597 84.1365 9.31491V11.4756C84.1365 12.4924 83.4284 13.0008 82.4661 13.0008H80.9046V15.2341C80.9046 16.4142 80.1238 16.9771 79.0163 16.9771H76.8556C76.5469 16.9771 76.2564 16.8319 76.2564 16.4687C76.2564 16.1237 76.5469 15.9603 76.8556 15.9603H77.9813C78.3626 15.9603 78.5079 15.8151 78.5079 15.4338V13.0008H76.8374C75.8751 13.0008 75.167 12.4924 75.167 11.4756V9.13334C74.8039 9.33307 74.0594 9.71436 73.7326 9.71436C73.5874 9.71436 73.4421 9.62358 73.3513 9.51464ZM73.3695 8.91546C73.4058 8.86099 73.551 8.75205 73.6237 8.71573C74.1684 8.42522 74.6768 8.06209 75.1488 7.68079C74.9491 7.55369 74.8765 7.40844 74.7857 7.20871C74.6041 6.7911 74.3863 6.42797 74.1684 6.1193C74.0594 5.97405 74.005 5.8651 74.005 5.75616C74.005 5.52012 74.1684 5.3204 74.4044 5.3204C74.4952 5.3204 74.7312 5.41118 74.9854 5.52012C75.4938 5.73801 76.0567 6.01036 76.3835 6.39165C76.6922 6.01036 76.9645 5.61091 77.2006 5.17514H74.2955C73.9868 5.17514 73.6781 5.02989 73.6781 4.66675C73.6781 4.32177 73.9868 4.17651 74.2955 4.17651H77.6545C78.0176 3.10526 78.181 2.79659 78.6894 2.65134H73.896C73.5329 2.65134 73.3695 2.81475 73.3695 3.17789V8.91546ZM79.6518 5.26593C78.9436 6.21008 78.1629 7.0453 77.2369 7.78973H81.994C81.0135 7.08162 80.3054 6.28271 79.6518 5.26593ZM81.8124 9.87777V9.33307C81.8124 8.95177 81.6672 8.78836 81.2859 8.78836H77.9813C77.6182 8.78836 77.4548 8.95177 77.4548 9.33307V9.87777H81.8124ZM81.8124 10.8764H77.4548V11.4574C77.4548 11.8387 77.6182 12.0021 77.9813 12.0021H81.2859C81.6672 12.0021 81.8124 11.8387 81.8124 11.4574V10.8764ZM73.424 16.7774C73.1698 16.7774 72.9337 16.5413 72.9337 16.269C72.9337 16.0511 73.0427 15.9422 73.3332 15.7243C74.0957 15.1614 74.7494 14.3625 75.2396 13.5999C75.4394 13.2913 75.7117 13.0915 76.093 13.0915C76.6922 13.0915 77.4003 13.491 77.4003 14.1628C77.4003 14.7075 76.8556 15.0706 76.3109 15.4338C75.7662 15.7969 73.9505 16.7774 73.424 16.7774ZM84.3544 16.6866C83.9731 16.6866 83.7552 16.4869 83.5373 16.1782C83.0289 15.4156 82.5932 14.8709 81.9577 14.1991C81.8306 14.0539 81.7216 13.9268 81.7216 13.727C81.7216 13.4365 81.9395 13.2368 82.23 13.2368C82.6476 13.2368 84.3181 13.9994 84.772 14.2536C85.2259 14.5078 85.7525 14.9435 85.7525 15.4338C85.7525 16.1419 85.0262 16.6866 84.3544 16.6866Z" fill="#444444"/>
<path d="M52.2898 2.37898V14.8891C52.2898 15.1977 52.5803 15.4882 52.889 15.4882H65.4354C65.7441 15.4882 66.0527 15.6517 66.0527 15.9966C66.0527 16.3598 65.7441 16.505 65.4354 16.505H51.963C50.6376 16.505 49.7842 15.8332 49.7842 14.4715V2.79659C49.7842 1.43482 50.6376 0.763016 51.963 0.763016H65.1086C65.4354 0.763016 65.7259 0.926428 65.7259 1.27141C65.7259 1.63455 65.4354 1.7798 65.1086 1.7798H52.889C52.5622 1.7798 52.2898 2.07031 52.2898 2.37898ZM59.2802 10.949C58.6629 11.8569 57.7732 12.6013 56.8835 13.2186C55.9394 13.8723 55.0497 14.3625 53.9239 14.7438C53.7605 14.7983 53.6334 14.8164 53.5608 14.8164C53.2885 14.8164 53.0706 14.5804 53.0706 14.308C53.0706 14.0538 53.234 13.9086 53.4337 13.8178C55.1041 13.0915 56.6112 11.7479 57.3011 10.0593C57.4645 9.67804 57.5553 9.27859 57.6461 8.87914H53.5971C53.2885 8.87914 52.9798 8.73389 52.9798 8.3889C52.9798 8.02577 53.2885 7.88051 53.5971 7.88051H57.7914C57.8821 6.93635 57.8458 5.95588 57.864 5.01173H56.1028C55.7578 5.39302 55.0134 6.19192 54.396 6.70031C54.0874 6.95451 53.815 7.13608 53.6516 7.13608C53.3792 7.13608 53.1432 6.9182 53.1432 6.64584C53.1432 6.50059 53.1977 6.39165 53.2885 6.24639C53.8695 5.30224 54.396 4.19467 54.741 3.14157C54.9589 2.48792 55.1405 1.92506 55.9394 1.92506C56.5385 1.92506 57.3919 2.27004 57.3919 2.97816C57.3919 3.35945 57.1559 3.70443 56.9198 3.99494H63.8013C64.11 3.99494 64.4186 4.1402 64.4186 4.50333C64.4186 4.86647 64.11 5.01173 63.8013 5.01173H60.3878C60.3878 5.95588 60.3696 6.9182 60.297 7.88051H64.6002C64.927 7.88051 65.2175 8.02577 65.2175 8.3889C65.2175 8.73389 64.927 8.87914 64.6002 8.87914H60.8054C61.4954 11.0035 63.1658 12.7647 65.0723 13.8178C65.2901 13.9268 65.4354 14.072 65.4354 14.308C65.4354 14.5804 65.2175 14.8164 64.9452 14.8164C64.7818 14.8164 64.4368 14.7075 64.0555 14.5441C63.4926 14.308 62.8571 13.9994 62.5848 13.8541C61.3138 13.1278 60.1336 12.1474 59.2802 10.949Z" fill="#444444"/>
<path d="M35.5408 1.108H39.6806C43.9474 1.108 45.7813 4.43071 45.7813 8.31628C45.7813 12.2563 43.9838 15.5609 39.6624 15.5609H35.5408C34.2698 15.5609 33.5254 14.998 33.5254 13.6726V3.01447C33.5254 1.68902 34.288 1.12616 35.5408 1.108ZM36.3397 2.92369V13.7452C36.3397 14.0902 36.6302 14.3988 36.9752 14.3988H38.5548C39.5535 14.3988 40.6066 14.1265 41.3328 13.4365C42.5857 12.2563 42.7854 10.0412 42.7854 8.42522C42.7854 6.84557 42.5675 4.41255 41.351 3.28683C40.5884 2.57871 39.5535 2.2882 38.5367 2.2882H36.9752C36.6121 2.2882 36.3397 2.59687 36.3397 2.92369Z" fill="#444444"/>
<path d="M23.3397 2.12479L25.5911 12.1111C25.6275 12.2745 25.6819 12.4197 25.8453 12.4197C26.0088 12.4197 26.0632 12.2019 26.0814 12.0929L28.1331 1.34404C28.1876 1.05353 28.4418 0.835648 28.7323 0.835648C29.0773 0.835648 29.3678 1.108 29.3678 1.45298C29.3678 1.4893 29.3315 1.70718 29.3133 1.79796L26.9348 14.3988C26.7713 15.2704 26.0269 15.8332 25.1554 15.8332C24.2294 15.8332 23.5939 15.2885 23.3942 14.3988L21.1427 4.33993C21.1064 4.17651 21.0701 4.06757 20.9248 4.06757C20.7796 4.06757 20.7433 4.23098 20.7251 4.33993L18.6007 14.4533C18.4192 15.3248 17.6747 15.8332 16.8032 15.8332C15.9498 15.8332 15.1873 15.343 15.0057 14.4351L12.6453 2.46977C12.609 2.30636 12.5908 2.19741 12.5908 2.07032C12.5908 1.28957 13.426 0.835648 14.116 0.835648C14.8786 0.835648 15.2599 1.21694 15.4051 1.92506L17.3479 12.0384C17.3661 12.1474 17.4024 12.3834 17.5658 12.3834C17.7292 12.3834 17.7655 12.22 17.8018 12.0384L19.8899 2.12479C20.0715 1.28957 20.8885 0.835648 21.6874 0.835648C22.4863 0.835648 23.1581 1.32588 23.3397 2.12479Z" fill="#444444"/>
<path d="M2.81432 7.64448H8.38848C8.7153 7.64448 8.98765 7.89867 8.98765 8.2255C8.98765 8.55232 8.7153 8.80652 8.38848 8.80652H2.81432V14.4715C2.81432 15.3612 2.14251 15.8332 1.39808 15.8332C0.635491 15.8332 0 15.3248 0 14.4715V3.01447C0 1.70718 0.762589 1.108 2.01541 1.108H9.04212C9.36895 1.108 9.6413 1.3622 9.6413 1.68902C9.6413 2.01585 9.36895 2.2882 9.04212 2.2882H3.44981C3.12298 2.2882 2.81432 2.59687 2.81432 2.92369V7.64448Z" fill="#444444"/>
</svg>
