<svg width="482" height="160" viewBox="0 0 482 160" fill="none" xmlns="http://www.w3.org/2000/svg">
<path d="M457.62 123.289C463.278 124.262 468.814 126.087 474.047 128.46C476.115 129.373 478.184 130.346 480.009 131.746C480.982 132.476 481.591 133.571 481.591 134.848C481.591 137.282 479.705 139.655 477.149 139.655C475.628 139.655 474.716 139.107 472.647 137.099C468.328 132.901 463.278 129.981 457.62 127.791V153.952C457.62 156.994 455.977 158.211 453.057 158.211C450.136 158.211 448.615 156.934 448.615 153.952V109.721C448.615 106.679 450.258 105.462 453.239 105.462C456.159 105.462 457.62 106.74 457.62 109.721V123.289Z" fill="white"/>
<path d="M390.634 116.353C390.634 118.908 388.505 121.159 385.949 121.159C384.367 121.159 383.212 120.125 381.812 118.482C378.588 114.832 375.059 112.033 370.8 109.66C369.583 108.991 368.731 108.504 368.731 107.47C368.731 106.497 369.583 105.645 370.557 105.645C372.686 105.645 379.439 108.261 381.569 109.234C383.881 110.269 386.193 111.364 388.322 112.763C389.6 113.615 390.634 114.71 390.634 116.353ZM371.226 157.116C368.488 157.116 366.906 154.5 366.906 152.005C366.906 148.659 369.097 147.99 373.416 147.321C377.553 146.651 381.508 145.556 385.402 143.974C389.539 142.271 393.554 140.202 397.144 137.586C402.985 133.388 408.278 128.217 411.807 121.889C412.232 121.098 412.719 120.368 413.753 120.368C414.788 120.368 415.7 121.159 415.7 122.194C415.7 122.984 414.727 124.992 413.693 126.939C411.016 132.05 407.548 136.552 403.471 140.507C397.266 146.53 390.026 150.728 381.995 153.952C378.466 155.352 373.72 157.116 371.226 157.116Z" fill="white"/>
<path d="M327.36 122.437V154.926C327.36 157.968 325.656 159.124 322.736 159.124C319.876 159.124 318.355 157.846 318.355 154.926V127.73C314.036 129.92 309.533 131.806 304.91 133.266C302.963 133.875 296.209 135.822 294.871 135.822C293.897 135.822 293.106 134.909 293.106 133.936C293.106 132.841 293.958 132.415 294.932 132.111C302.476 129.799 309.655 126.209 316.043 121.585C321.215 117.874 326.021 113.25 329.672 108.079C330.888 106.314 332.166 104.611 334.478 104.611C337.155 104.611 339.832 106.74 339.832 109.539C339.832 110.816 339.589 111.303 337.52 113.493C335.086 116.049 330.158 120.307 327.36 122.437Z" fill="white"/>
<path d="M268.649 102.359C272.056 102.359 274.855 105.219 274.855 108.565C274.855 111.972 272.056 114.771 268.649 114.771C265.303 114.771 262.443 111.972 262.443 108.565C262.443 105.219 265.303 102.359 268.649 102.359ZM268.649 105.584C267.006 105.584 265.668 106.923 265.668 108.565C265.668 110.208 267.006 111.607 268.649 111.607C270.291 111.607 271.691 110.208 271.691 108.565C271.691 106.923 270.291 105.584 268.649 105.584ZM254.108 121.95V150.058C254.108 155.23 252.83 157.481 247.294 157.481C243.948 157.481 240.48 156.629 237.377 155.473C236.403 155.108 235.491 154.5 235.491 153.344C235.491 152.249 236.282 151.336 237.377 151.336C237.924 151.336 238.35 151.458 239.567 151.884C240.601 152.249 241.757 152.614 242.913 152.614C244.921 152.614 245.103 151.214 245.103 149.572V121.95H227.521C226.304 121.95 225.148 121.342 225.148 120.003C225.148 118.604 226.304 118.056 227.521 118.056H245.103V110.086C245.103 107.044 246.746 105.827 249.667 105.827C252.587 105.827 254.108 107.166 254.108 110.086V118.056H271.812C272.968 118.056 274.124 118.604 274.124 120.003C274.124 121.342 272.968 121.95 271.812 121.95H254.108ZM275.098 146.347C275.098 148.842 272.603 150.667 270.231 150.667C267.614 150.667 267.006 148.842 266.154 146.043C265.363 143.549 263.173 138.377 262.017 135.822C261.287 134.179 260.496 132.658 259.584 131.198C258.914 130.103 258.732 129.555 258.732 129.19C258.732 128.034 259.888 127.182 260.983 127.182C261.835 127.182 262.443 127.852 262.991 128.46C264.877 130.468 266.641 132.597 268.284 134.788C271.326 138.864 275.098 143.914 275.098 146.347ZM228.555 151.214C226.365 151.214 224.174 149.45 224.174 147.077C224.174 145.495 225.269 144.339 226.304 143.244C229.711 139.776 233.605 134.301 235.43 129.799C235.856 128.825 236.403 127.852 237.62 127.852C238.715 127.852 239.628 128.764 239.628 129.859C239.628 132.293 236.829 139.776 235.734 142.21C234.761 144.4 233.726 146.712 232.449 148.659C231.536 150.058 230.38 151.214 228.555 151.214Z" fill="white"/>
<path d="M183.959 113.25C183.168 122.68 182.498 132.171 179.456 141.176C177.449 147.199 174.468 153.952 167.045 153.952C157.493 153.952 152.869 143.609 152.869 135.396C152.869 128.886 155.242 122.437 159.562 117.631C165.22 111.242 173.19 108.444 181.525 108.444C195.883 108.444 207.017 116.292 207.017 131.502C207.017 140.628 202.88 148.477 194.667 152.796C191.99 154.135 187.122 156.021 184.08 156.021C182.985 156.021 182.012 155.108 182.012 153.952C182.012 152.736 182.864 152.066 183.898 151.762C187.062 150.849 189.678 149.146 191.868 146.712C195.762 142.332 197.891 136.187 197.891 130.407C197.891 120.733 192.902 115.866 183.959 113.25ZM175.198 113.25C171.121 114.893 168.262 116.84 165.889 120.551C162.421 125.905 160.596 132.354 160.596 138.681C160.596 141.419 160.839 144.34 162.299 146.712C163.03 147.99 164.368 149.268 165.95 149.268C168.383 149.268 169.844 145.07 171.182 141.115C173.92 132.111 174.65 122.619 175.198 113.25Z" fill="white"/>
<path d="M85.6403 125.114C83.9976 125.114 83.085 123.289 83.085 121.829C83.085 119.638 84.8493 119.152 87.1613 118.543C96.4699 116.11 106.022 113.25 115.817 113.25C126.951 113.25 135.53 119.577 135.53 131.32C135.53 149.085 114.296 154.378 99.9986 154.378C98.5385 154.378 97.2608 153.831 97.2608 152.188C97.2608 150.424 98.5993 150.059 100.059 150.059H100.181C111.437 150.059 126.038 145.191 126.038 131.746C126.038 123.045 120.015 118.056 111.619 118.056C104.744 118.056 94.2188 121.403 88.013 124.323C87.283 124.688 86.3095 125.114 85.6403 125.114Z" fill="white"/>
<path d="M24.1028 149.341H58.3317C59.9196 149.341 61.2429 150.576 61.2429 152.164C61.2429 153.752 59.9196 154.987 58.3317 154.987H10.9582C8.3116 154.987 5.66504 153.487 5.66504 150.576C5.66504 146.341 9.19379 139.813 11.7521 136.549C17.5746 129.139 25.6907 124.022 33.8068 119.434C40.5997 115.553 46.775 111.671 46.775 102.938C46.775 94.9096 42.2758 89.1754 33.9833 89.1754C30.7192 89.1754 27.3669 89.8811 24.8967 92.1748C22.3384 94.4685 20.6622 98.1737 20.6622 101.614C20.6622 102.673 20.7505 103.379 20.8387 104.084C20.9269 104.702 21.0151 105.408 21.0151 105.849C21.0151 110.083 17.3099 112.289 13.4283 112.289C9.81132 112.289 6.10613 110.26 6.10613 106.29C6.10613 101.791 8.22338 97.0269 10.8699 93.4981C16.6042 85.9113 26.0436 83.4412 35.1301 83.4412C48.4512 83.4412 60.9782 89.0872 60.9782 104.173C60.9782 117.582 50.2155 123.757 37.6002 130.815C32.1307 133.902 21.6326 140.607 21.6326 147.312C21.6326 148.723 22.7795 149.341 24.1028 149.341Z" fill="white"/>
<path d="M347.127 47.4472C346.503 54.8838 345.975 62.3684 343.576 69.4692C341.993 74.2191 339.642 79.5447 333.789 79.5447C326.256 79.5447 322.61 71.3884 322.61 64.9113C322.61 59.7776 324.481 54.6919 327.887 50.9016C332.349 45.8639 338.635 43.6569 345.208 43.6569C356.531 43.6569 365.311 49.8461 365.311 61.8407C365.311 69.0374 362.048 75.2267 355.571 78.6331C353.46 79.6887 349.622 81.176 347.223 81.176C346.359 81.176 345.592 80.4563 345.592 79.5447C345.592 78.5851 346.263 78.0574 347.079 77.8175C349.574 77.0978 351.637 75.7544 353.364 73.8353C356.435 70.3808 358.114 65.535 358.114 60.9771C358.114 53.3485 354.18 49.5102 347.127 47.4472ZM340.218 47.4472C337.003 48.7426 334.748 50.2779 332.877 53.2046C330.142 57.4267 328.703 62.5124 328.703 67.5021C328.703 69.6612 328.895 71.9641 330.047 73.8353C330.622 74.8428 331.678 75.8504 332.925 75.8504C334.844 75.8504 335.996 72.5399 337.051 69.4213C339.21 62.3205 339.786 54.8358 340.218 47.4472Z" fill="white"/>
<path d="M303.707 45.2402V77.2898H305.962C306.825 77.2898 307.545 77.9615 307.545 78.8251C307.545 79.6887 306.825 80.3604 305.962 80.3604H281.013C280.197 80.3604 279.478 79.6887 279.478 78.8251C279.478 77.9615 280.197 77.2898 281.013 77.2898H283.268V45.2402H281.013C280.197 45.2402 279.478 44.5685 279.478 43.7049C279.478 42.8413 280.197 42.1696 281.013 42.1696H305.962C306.825 42.1696 307.545 42.8413 307.545 43.7049C307.545 44.5685 306.825 45.2402 305.962 45.2402H303.707ZM296.27 45.2402H290.704V77.2898H296.27V45.2402Z" fill="white"/>
<path d="M224.734 61.121C226.077 59.5857 227.277 58.0504 228.476 56.4192C227.229 56.2272 226.797 55.1237 226.269 54.1162C225.118 52.1491 223.822 50.182 222.143 48.5987C221.376 47.879 221.088 47.5432 221.088 46.9674C221.088 46.2957 221.663 45.672 222.383 45.672C222.863 45.672 224.638 46.5836 226.029 47.4952C227.085 45.5281 227.901 43.465 228.62 41.4019C229.052 40.2025 229.916 39.5787 231.163 39.5787C232.603 39.5787 234.762 40.3944 234.762 42.1216C234.762 42.8413 233.85 44.1847 232.746 45.4801C231.547 46.8715 230.3 48.1669 229.004 49.4143C229.868 50.038 231.019 50.8057 231.547 51.8132C232.459 50.2779 233.322 48.7426 234.186 47.0634C234.666 46.1038 235.529 45.576 236.633 45.576C238.168 45.576 240.423 46.5836 240.423 48.4547C240.423 49.7022 238.456 51.8132 236.345 53.9723C234.042 56.3712 231.691 58.7221 229.244 60.9771C231.595 60.8332 233.898 60.6892 236.201 60.4493C235.961 59.8256 235.001 57.6186 235.001 57.1388C235.001 56.4192 235.625 55.8434 236.345 55.8434C236.585 55.8434 236.969 56.0833 237.256 56.3232C238.36 57.2828 239.463 58.4822 240.519 59.6817C241.479 60.7372 243.158 62.8003 243.158 63.9518C243.158 65.679 241.335 67.0704 239.703 67.0704C238.504 67.0704 237.832 66.3507 237.592 65.3911C237.352 64.4795 237.16 63.6639 236.969 62.9442C236.153 63.1841 235.337 63.376 234.522 63.5679V81.6078C234.522 83.9108 233.274 84.6305 231.547 84.6305C230.06 84.6305 228.62 84.0068 228.62 81.7038V64.9113C227.325 65.1992 222.959 66.1108 222.479 66.1108C221.184 66.1108 220.416 64.5275 220.416 63.472C220.416 62.2245 221.04 61.4089 222.047 61.217C222.527 61.121 223.631 61.121 224.734 61.121ZM249.635 48.9345H259.806C263.165 48.9345 264.796 50.3259 264.796 53.7324C264.796 60.7852 264.412 68.6537 263.597 75.8984C263.021 80.8882 261.054 84.0547 255.584 84.0547H248.483C247.668 84.0547 246.852 83.6229 246.852 82.7113C246.852 81.7518 247.668 81.3679 248.483 81.3679H252.753C254.337 81.3679 255.296 81.0801 256.112 79.6407C257.024 78.0095 257.167 75.9464 257.359 74.1232C258.127 67.2143 258.127 60.2095 258.127 53.3006C258.127 52.293 257.839 51.5733 256.736 51.5733H247.716C246.708 52.8688 242.198 58.0984 240.759 58.0984C240.039 58.0984 239.415 57.5227 239.415 56.803C239.415 56.5151 239.559 56.2752 239.751 55.9874C242.582 51.9572 244.453 47.0634 245.701 42.2655C246.132 40.6343 247.092 39.8186 248.771 39.8186C250.451 39.8186 252.753 40.6822 252.753 42.6014C252.753 44.3766 250.642 47.4472 249.635 48.9345ZM254.481 68.6537C254.481 70.6688 252.274 72.3 250.403 72.3C248.579 72.3 247.86 71.2925 247.524 69.6612C246.852 66.3507 246.084 63.52 244.597 60.4973C244.405 60.1135 244.213 59.6817 244.213 59.3938C244.213 58.7221 244.885 58.1464 245.557 58.1464C246.708 58.1464 249.827 61.5049 250.642 62.4644C251.794 63.7119 254.481 66.9744 254.481 68.6537ZM243.638 76.666C243.638 78.5372 241.718 79.7846 240.039 79.7846C237.784 79.7846 237.688 78.0094 237.544 75.8024C237.352 73.4035 236.921 70.9086 236.057 68.6537C235.961 68.4138 235.865 68.1739 235.865 67.934C235.865 67.2143 236.489 66.6386 237.208 66.6386C238.12 66.6386 238.936 67.886 239.943 69.4213C240.903 70.8127 243.638 75.1307 243.638 76.666ZM221.903 82.6154C221.184 82.6154 220.56 82.0396 220.56 81.32C220.56 81.0801 220.608 80.7442 220.752 80.3124C221.759 76.9539 222.143 73.6914 222.143 70.141C222.143 68.2219 222.623 67.0224 224.734 67.0224C226.221 67.0224 227.997 67.7421 227.997 69.4693C227.997 71.6283 224.158 82.6154 221.903 82.6154Z" fill="white"/>
<path d="M198.777 54.9318V48.8865H191.485C190.621 48.8865 189.853 48.5027 189.853 47.5431C189.853 46.6316 190.573 46.2477 191.485 46.2477H198.777V43.2731C198.777 42.2175 198.921 41.162 199.497 40.5383C200.169 39.8186 201.032 39.6267 202.04 39.6267C203.191 39.6267 204.151 39.9146 204.727 40.7302C205.207 41.4019 205.35 42.2655 205.35 43.2731V46.2477H212.067C212.931 46.2477 213.699 46.6316 213.699 47.5431C213.699 48.5027 212.931 48.8865 212.067 48.8865H205.35V54.9318H213.267C214.13 54.9318 214.898 55.3157 214.898 56.2752C214.898 57.1868 214.226 57.5706 213.267 57.5706H190.525C189.518 57.5706 188.894 57.1868 188.894 56.2752C188.894 55.3157 189.614 54.9318 190.525 54.9318H198.777ZM185.104 61.7927C185.439 61.6488 186.255 61.265 186.927 60.9291C188.078 60.3534 188.222 60.3054 188.558 60.3054C189.326 60.3054 189.901 60.8811 189.901 61.6488C189.901 62.0806 189.709 62.4644 189.134 62.8962C188.222 63.5679 186.543 64.7194 185.104 65.679V81.7518C185.104 82.8073 184.96 83.2391 184.24 83.8628C183.712 84.2946 182.849 84.5825 182.081 84.5825C181.169 84.5825 180.018 84.1987 179.49 83.479C179.25 83.1431 179.106 82.6634 179.106 81.7038V69.2294C174.26 71.7722 173.541 72.1081 172.773 72.1081C171.286 72.1081 170.134 70.8607 170.134 69.3733C170.134 68.2218 170.998 67.3103 172.005 66.9744C175.268 65.8229 177.235 65.1032 179.106 64.3836V52.8208H176.228C175.46 55.4596 174.5 57.9545 173.301 60.3054C172.917 61.0731 172.581 61.5049 171.814 61.5049C171.046 61.5049 170.374 60.9291 170.374 60.1615C170.374 60.0175 170.518 59.4418 170.614 59.1539C171.046 57.6666 171.478 55.9394 171.718 54.596C172.245 51.4294 172.485 47.831 172.485 44.9043C172.485 43.5609 173.109 42.2175 175.22 42.2175C176.707 42.2175 177.763 42.8892 177.763 44.6165C177.763 45.576 177.283 48.5507 176.899 50.134H179.106V42.9852C179.106 41.4979 179.202 40.9701 179.874 40.4423C180.45 39.9626 181.313 39.7227 182.081 39.7227C183.136 39.7227 184.288 40.1545 184.768 40.8741C185.008 41.258 185.104 41.8337 185.104 42.9372V50.134H188.174C189.134 50.134 189.805 50.5658 189.805 51.4774C189.805 52.4369 189.086 52.8208 188.174 52.8208H185.104V61.7927ZM203.431 66.2068H190.429C189.566 66.2068 188.798 65.8229 188.798 64.9113C188.798 63.9518 189.566 63.5679 190.429 63.5679H203.431V61.5049C203.431 60.6413 203.623 59.5857 204.103 59.01C204.775 58.2423 205.638 58.0504 206.646 58.0504C207.797 58.0504 208.709 58.3383 209.333 59.1059C209.764 59.6337 209.956 60.5933 209.956 61.4089V63.5679H213.267C214.178 63.5679 214.898 63.9518 214.898 64.9113C214.898 65.8229 214.37 66.2068 213.267 66.2068H209.956V79.4968C209.956 82.6154 207.941 84.1027 204.967 84.1027H197.146C196.33 84.1027 195.515 83.7189 195.515 82.7593C195.515 82.3755 195.611 82.0396 195.899 81.7997C196.235 81.5119 196.522 81.4159 197.146 81.4159H201.56C202.952 81.4159 203.431 80.8402 203.431 79.5448V66.2068ZM189.997 68.5577C189.997 67.7421 190.669 67.0224 191.485 67.0224C191.916 67.0224 193.932 68.4138 195.995 70.3329C198.298 72.4919 199.209 74.0752 199.209 75.0828C199.209 77.0019 197.386 78.5852 195.563 78.5852C193.884 78.5852 193.212 77.8655 192.636 75.3227C192.156 73.2596 191.389 71.2445 190.333 69.3733C190.141 69.0375 189.997 68.7016 189.997 68.5577Z" fill="white"/>
<path d="M146.577 44.9043V42.3615C146.577 40.6822 148.065 39.6267 149.888 39.6267C151.999 39.6267 153.15 40.7782 153.15 42.8413V44.9043H159.052C162.026 44.9043 164.041 46.3917 164.041 49.5103V52.245C164.041 54.3561 163.034 55.2677 161.019 55.2677C158.716 55.2677 157.948 54.0682 157.948 52.1011V48.9825C157.948 48.0229 157.564 47.5911 156.557 47.5911H143.795C142.787 47.5911 142.403 48.0229 142.403 48.9825V52.245C142.403 54.3081 141.3 55.2677 139.333 55.2677C136.982 55.2677 136.31 53.9723 136.31 51.9572V49.5103C136.31 46.3917 138.325 44.9043 141.3 44.9043H146.577ZM121.053 81.7038V44.8564C121.053 42.2655 122.876 41.21 125.275 41.21H133.575C135.638 41.21 137.078 42.3135 137.078 44.3766C137.078 44.8084 137.03 45.2402 136.886 45.624L132.184 57.0429C132.04 57.3787 131.992 57.5227 131.992 57.6666C131.992 57.8585 132.088 58.0504 132.232 58.2423C133.239 59.7297 134.007 61.169 134.679 62.7043C135.734 65.0553 136.214 67.5501 136.214 70.093C136.214 72.1081 135.878 74.459 134.151 75.7545C133.239 76.4262 132.28 76.5701 131.176 76.5701H128.681C127.866 76.5701 127.05 76.1383 127.05 75.2267C127.05 74.2671 127.866 73.8833 128.681 73.8833H129.113C130.457 73.8833 130.936 72.0121 130.936 69.1814C130.936 65.2952 129.737 62.5124 128.058 59.058C127.818 58.5782 127.578 58.0504 127.578 57.4267C127.578 57.1868 127.626 56.9469 127.674 56.755L130.888 45.4321C130.936 45.2402 131.08 44.8084 131.08 44.7124C131.08 44.1367 130.504 43.8968 130.025 43.8968H128.01C127.05 43.8968 126.762 44.1847 126.762 45.1442V81.6078C126.762 83.6709 125.899 84.6784 123.931 84.6784C122.012 84.6784 121.053 83.7189 121.053 81.7038ZM158.428 57.7146H141.827C140.964 57.7146 140.196 57.2828 140.196 56.3712C140.196 55.4116 140.964 55.0278 141.827 55.0278H158.428C159.244 55.0278 160.059 55.4116 160.059 56.3712C160.059 57.2828 159.244 57.7146 158.428 57.7146ZM147.345 65.8709C147.345 68.9895 147.153 72.0601 146.193 74.8908C145.09 78.1534 142.451 80.5523 139.476 82.2795C138.133 83.0472 134.583 84.4865 133.383 84.4865C132.664 84.4865 132.088 83.8628 132.088 83.1431C132.088 82.4235 132.616 82.0396 133.239 81.7518C137.173 80.0725 139.189 77.9135 140.1 75.2267C140.964 72.6359 141.108 70.3329 141.108 65.8709H137.749C136.934 65.8709 136.118 65.4871 136.118 64.5275C136.118 63.6159 136.934 63.2321 137.749 63.2321H162.842C163.658 63.2321 164.473 63.6159 164.473 64.5275C164.473 65.4871 163.658 65.8709 162.842 65.8709H155.933V79.9286C155.933 80.8881 156.269 81.176 157.228 81.176H157.756C159.052 81.176 159.435 80.9361 159.627 79.6407C159.723 79.017 159.771 78.2014 159.819 77.1458C159.915 75.4666 160.299 74.507 162.122 74.507C163.658 74.507 165.001 75.0348 165.001 76.81C165.001 78.3453 164.857 80.2644 164.185 81.6558C163.274 83.527 161.547 83.7669 159.579 83.7669H154.014C151.663 83.7669 149.792 82.7113 149.792 80.1205V65.8709H147.345Z" fill="white"/>
<path d="M81.0386 50.5178C81.0386 52.5328 79.0715 54.308 77.1043 54.308C75.713 54.308 74.8973 53.3005 74.5615 52.0531C73.5539 48.6466 72.2585 45.3361 69.9556 42.4574C69.7157 42.1695 69.5717 41.8816 69.5717 41.5458C69.5717 40.8261 70.1954 40.2024 70.9151 40.2024C71.6828 40.2024 74.3696 42.3134 75.617 43.4169C77.2003 44.8083 81.0386 48.3587 81.0386 50.5178ZM100.278 68.7016V74.8908C100.278 76.8099 100.182 77.4336 99.6542 78.1053C99.1264 78.825 98.5027 79.1129 97.2073 79.1129C96.2957 79.1129 95.2402 78.873 94.6644 78.1053C94.2806 77.5776 94.0887 77.2417 94.0887 74.8908V68.7016H89.5308V75.5625C89.5308 77.3857 89.4348 77.9614 88.955 78.6331C88.3793 79.4008 87.4197 79.5927 86.5561 79.5927C85.6445 79.5927 84.6369 79.3048 84.0612 78.5851C83.5814 78.0094 83.4855 77.2417 83.4855 75.5625V55.1237C83.4855 52.5328 85.1647 51.4773 87.7076 51.4773H95.9119C94.0887 50.0859 92.2655 48.8865 90.1065 47.735C89.4828 47.3992 88.8591 47.0153 88.8591 46.1517C88.8591 45.432 89.4348 44.8563 90.1545 44.8563C91.306 44.8563 94.9523 46.2477 97.0154 47.0633C97.4472 46.6795 100.038 44.8083 100.038 44.3765C100.038 43.9927 99.7022 43.8488 99.4143 43.8488H84.0132C83.1976 43.8488 82.382 43.4649 82.382 42.5054C82.382 41.5458 83.1976 41.162 84.0132 41.162H108.098C109.106 41.162 110.066 41.7857 110.066 42.8892C110.066 43.7048 109.442 44.2326 108.77 44.6164C106.179 46.1517 103.397 47.4951 100.71 48.7905C101.957 49.4142 102.725 50.038 102.725 51.0935C102.725 51.2374 102.677 51.3334 102.677 51.4773H106.947C109.346 51.4773 111.169 52.5328 111.169 55.1237V75.2266C111.169 77.8175 109.346 78.873 106.947 78.873H102.869C102.053 78.873 101.237 78.4892 101.237 77.5776C101.237 76.666 102.005 76.2342 102.821 76.2342H103.684C104.692 76.2342 104.98 75.9463 104.98 74.9867V68.7016H100.278ZM100.278 58.7221H104.98V55.4115C104.98 54.452 104.692 54.1161 103.684 54.1161H100.278V58.7221ZM94.0887 58.7221V54.1161H90.7782C89.8186 54.1161 89.5308 54.452 89.5308 55.4115V58.7221H94.0887ZM79.983 75.6105C80.3669 77.9614 81.4704 79.4008 83.6774 80.2164C85.7884 80.9361 88.0434 81.032 90.2984 81.032H112.464C113.28 81.032 114.096 81.4159 114.096 82.3754C114.096 83.287 113.28 83.6708 112.464 83.6708H88.7631C86.3162 83.6708 83.7254 83.6229 81.3744 82.8072C79.4553 82.1355 78.0639 80.7442 76.9124 79.1129C75.8569 80.4563 74.7534 81.7517 73.506 82.9032C72.8822 83.5269 71.9227 84.1506 71.203 84.1506C69.5237 84.1506 68.8521 82.3274 68.8521 80.8881C68.8521 79.2568 69.4758 78.6811 70.5313 78.1533C71.5868 77.6256 72.5944 77.2417 73.9857 76.5221V64.1436C73.9857 63.1841 73.6979 62.8962 72.7383 62.8962H70.8192C70.0035 62.8962 69.1879 62.5124 69.1879 61.5528C69.1879 60.6412 70.0035 60.2094 70.8192 60.2094H75.7609C78.1599 60.2094 79.983 61.3129 79.983 63.8558V75.6105ZM100.278 66.0148H104.98V61.3609H100.278V66.0148ZM94.0887 66.0148V61.3609H89.5308V66.0148H94.0887Z" fill="white"/>
<path d="M452.699 123.289C458.357 124.262 463.893 126.087 469.126 128.46C471.194 129.373 473.263 130.346 475.088 131.746C476.062 132.476 476.67 133.571 476.67 134.848C476.67 137.282 474.784 139.655 472.229 139.655C470.708 139.655 469.795 139.107 467.726 137.099C463.407 132.901 458.357 129.981 452.699 127.791V153.952C452.699 156.994 451.056 158.211 448.136 158.211C445.215 158.211 443.694 156.934 443.694 153.952V109.721C443.694 106.679 445.337 105.462 448.318 105.462C451.239 105.462 452.699 106.74 452.699 109.721V123.289Z" fill="#4AA9D5"/>
<path d="M385.713 116.353C385.713 118.908 383.584 121.159 381.028 121.159C379.447 121.159 378.291 120.125 376.891 118.482C373.667 114.832 370.138 112.033 365.879 109.66C364.662 108.991 363.811 108.504 363.811 107.47C363.811 106.497 364.662 105.645 365.636 105.645C367.765 105.645 374.518 108.261 376.648 109.234C378.96 110.269 381.272 111.364 383.401 112.763C384.679 113.615 385.713 114.71 385.713 116.353ZM366.305 157.116C363.567 157.116 361.985 154.5 361.985 152.005C361.985 148.659 364.176 147.99 368.495 147.321C372.632 146.651 376.587 145.556 380.481 143.974C384.618 142.271 388.634 140.202 392.223 137.586C398.064 133.388 403.357 128.217 406.886 121.889C407.312 121.098 407.798 120.368 408.833 120.368C409.867 120.368 410.779 121.159 410.779 122.194C410.779 122.984 409.806 124.992 408.772 126.939C406.095 132.05 402.627 136.552 398.551 140.507C392.345 146.53 385.105 150.728 377.074 153.952C373.545 155.352 368.799 157.116 366.305 157.116Z" fill="#4AA9D5"/>
<path d="M322.439 122.437V154.926C322.439 157.968 320.735 159.124 317.815 159.124C314.955 159.124 313.434 157.846 313.434 154.926V127.73C309.115 129.92 304.612 131.806 299.989 133.266C298.042 133.875 291.288 135.822 289.95 135.822C288.976 135.822 288.186 134.909 288.186 133.936C288.186 132.841 289.037 132.415 290.011 132.111C297.555 129.799 304.734 126.209 311.122 121.585C316.294 117.874 321.1 113.25 324.751 108.079C325.968 106.314 327.245 104.611 329.557 104.611C332.234 104.611 334.911 106.74 334.911 109.539C334.911 110.816 334.668 111.303 332.599 113.493C330.166 116.049 325.237 120.307 322.439 122.437Z" fill="#4AA9D5"/>
<path d="M263.728 102.359C267.135 102.359 269.934 105.219 269.934 108.565C269.934 111.972 267.135 114.771 263.728 114.771C260.382 114.771 257.522 111.972 257.522 108.565C257.522 105.219 260.382 102.359 263.728 102.359ZM263.728 105.584C262.085 105.584 260.747 106.923 260.747 108.565C260.747 110.208 262.085 111.607 263.728 111.607C265.371 111.607 266.77 110.208 266.77 108.565C266.77 106.923 265.371 105.584 263.728 105.584ZM249.187 121.95V150.058C249.187 155.23 247.909 157.481 242.373 157.481C239.027 157.481 235.559 156.629 232.456 155.473C231.482 155.108 230.57 154.5 230.57 153.344C230.57 152.249 231.361 151.336 232.456 151.336C233.003 151.336 233.429 151.458 234.646 151.884C235.68 152.249 236.836 152.614 237.992 152.614C240 152.614 240.183 151.214 240.183 149.572V121.95H222.6C221.383 121.95 220.227 121.342 220.227 120.003C220.227 118.604 221.383 118.056 222.6 118.056H240.183V110.086C240.183 107.044 241.825 105.827 244.746 105.827C247.666 105.827 249.187 107.166 249.187 110.086V118.056H266.892C268.048 118.056 269.204 118.604 269.204 120.003C269.204 121.342 268.048 121.95 266.892 121.95H249.187ZM270.177 146.347C270.177 148.842 267.682 150.667 265.31 150.667C262.694 150.667 262.085 148.842 261.233 146.043C260.442 143.549 258.252 138.377 257.096 135.822C256.366 134.179 255.575 132.658 254.663 131.198C253.993 130.103 253.811 129.555 253.811 129.19C253.811 128.034 254.967 127.182 256.062 127.182C256.914 127.182 257.522 127.852 258.07 128.46C259.956 130.468 261.72 132.597 263.363 134.788C266.405 138.864 270.177 143.914 270.177 146.347ZM223.634 151.214C221.444 151.214 219.253 149.45 219.253 147.077C219.253 145.495 220.349 144.339 221.383 143.244C224.79 139.776 228.684 134.301 230.509 129.799C230.935 128.825 231.482 127.852 232.699 127.852C233.794 127.852 234.707 128.764 234.707 129.859C234.707 132.293 231.908 139.776 230.813 142.21C229.84 144.4 228.805 146.712 227.528 148.659C226.615 150.058 225.459 151.214 223.634 151.214Z" fill="#4AA9D5"/>
<path d="M179.038 113.25C178.247 122.68 177.578 132.171 174.536 141.176C172.528 147.199 169.547 153.952 162.124 153.952C152.572 153.952 147.948 143.609 147.948 135.396C147.948 128.886 150.321 122.437 154.641 117.631C160.299 111.242 168.269 108.444 176.604 108.444C190.963 108.444 202.096 116.292 202.096 131.502C202.096 140.628 197.959 148.477 189.746 152.796C187.069 154.135 182.201 156.021 179.159 156.021C178.064 156.021 177.091 155.108 177.091 153.952C177.091 152.736 177.943 152.066 178.977 151.762C182.141 150.849 184.757 149.146 186.947 146.712C190.841 142.332 192.97 136.187 192.97 130.407C192.97 120.733 187.981 115.866 179.038 113.25ZM170.277 113.25C166.2 114.893 163.341 116.84 160.968 120.551C157.5 125.905 155.675 132.354 155.675 138.681C155.675 141.419 155.918 144.34 157.379 146.712C158.109 147.99 159.447 149.268 161.029 149.268C163.463 149.268 164.923 145.07 166.261 141.115C168.999 132.111 169.729 122.619 170.277 113.25Z" fill="#4AA9D5"/>
<path d="M80.7194 125.114C79.0767 125.114 78.1641 123.289 78.1641 121.829C78.1641 119.638 79.9284 119.152 82.2404 118.543C91.549 116.11 101.101 113.25 110.896 113.25C122.03 113.25 130.609 119.577 130.609 131.32C130.609 149.085 109.375 154.378 95.0777 154.378C93.6176 154.378 92.3399 153.831 92.3399 152.188C92.3399 150.424 93.6784 150.059 95.1386 150.059H95.2603C106.516 150.059 121.117 145.191 121.117 131.746C121.117 123.045 115.094 118.056 106.698 118.056C99.8233 118.056 89.2979 121.403 83.0921 124.323C82.3621 124.688 81.3886 125.114 80.7194 125.114Z" fill="#4AA9D5"/>
<path d="M19.1819 149.341H53.4108C54.9987 149.341 56.322 150.576 56.322 152.164C56.322 153.752 54.9987 154.987 53.4108 154.987H6.03727C3.3907 154.987 0.744141 153.487 0.744141 150.576C0.744141 146.341 4.27289 139.813 6.83124 136.549C12.6537 129.139 20.7698 124.022 28.8859 119.434C35.6788 115.553 41.8541 111.671 41.8541 102.938C41.8541 94.9096 37.3549 89.1754 29.0624 89.1754C25.7983 89.1754 22.446 89.8811 19.9758 92.1748C17.4175 94.4685 15.7413 98.1737 15.7413 101.614C15.7413 102.673 15.8296 103.379 15.9178 104.084C16.006 104.702 16.0942 105.408 16.0942 105.849C16.0942 110.083 12.389 112.289 8.5074 112.289C4.89042 112.289 1.18523 110.26 1.18523 106.29C1.18523 101.791 3.30249 97.0269 5.94905 93.4981C11.6833 85.9113 21.1227 83.4412 30.2092 83.4412C43.5303 83.4412 56.0573 89.0872 56.0573 104.173C56.0573 117.582 45.2946 123.757 32.6793 130.815C27.2098 133.902 16.7117 140.607 16.7117 147.312C16.7117 148.723 17.8586 149.341 19.1819 149.341Z" fill="#4AA9D5"/>
<path d="M342.206 47.4472C341.582 54.8838 341.054 62.3684 338.656 69.4692C337.072 74.2191 334.721 79.5447 328.868 79.5447C321.335 79.5447 317.689 71.3884 317.689 64.9113C317.689 59.7776 319.56 54.6919 322.967 50.9016C327.429 45.8639 333.714 43.6569 340.287 43.6569C351.61 43.6569 360.39 49.8461 360.39 61.8407C360.39 69.0374 357.127 75.2267 350.65 78.6331C348.539 79.6887 344.701 81.176 342.302 81.176C341.438 81.176 340.671 80.4563 340.671 79.5447C340.671 78.5851 341.342 78.0574 342.158 77.8175C344.653 77.0978 346.716 75.7544 348.443 73.8353C351.514 70.3808 353.193 65.535 353.193 60.9771C353.193 53.3485 349.259 49.5102 342.206 47.4472ZM335.297 47.4472C332.083 48.7426 329.828 50.2779 327.956 53.2046C325.222 57.4267 323.782 62.5124 323.782 67.5021C323.782 69.6612 323.974 71.9641 325.126 73.8353C325.701 74.8428 326.757 75.8504 328.004 75.8504C329.923 75.8504 331.075 72.5399 332.13 69.4213C334.289 62.3205 334.865 54.8358 335.297 47.4472Z" fill="#4AA9D5"/>
<path d="M298.786 45.2402V77.2898H301.041C301.904 77.2898 302.624 77.9615 302.624 78.8251C302.624 79.6887 301.904 80.3604 301.041 80.3604H276.092C275.276 80.3604 274.557 79.6887 274.557 78.8251C274.557 77.9615 275.276 77.2898 276.092 77.2898H278.347V45.2402H276.092C275.276 45.2402 274.557 44.5685 274.557 43.7049C274.557 42.8413 275.276 42.1696 276.092 42.1696H301.041C301.904 42.1696 302.624 42.8413 302.624 43.7049C302.624 44.5685 301.904 45.2402 301.041 45.2402H298.786ZM291.349 45.2402H285.784V77.2898H291.349V45.2402Z" fill="#4AA9D5"/>
<path d="M219.813 61.121C221.157 59.5857 222.356 58.0504 223.555 56.4192C222.308 56.2272 221.876 55.1237 221.348 54.1162C220.197 52.1491 218.902 50.182 217.222 48.5987C216.455 47.879 216.167 47.5432 216.167 46.9674C216.167 46.2957 216.743 45.672 217.462 45.672C217.942 45.672 219.717 46.5836 221.109 47.4952C222.164 45.5281 222.98 43.465 223.699 41.4019C224.131 40.2025 224.995 39.5787 226.242 39.5787C227.682 39.5787 229.841 40.3944 229.841 42.1216C229.841 42.8413 228.929 44.1847 227.826 45.4801C226.626 46.8715 225.379 48.1669 224.083 49.4143C224.947 50.038 226.098 50.8057 226.626 51.8132C227.538 50.2779 228.401 48.7426 229.265 47.0634C229.745 46.1038 230.608 45.576 231.712 45.576C233.247 45.576 235.502 46.5836 235.502 48.4547C235.502 49.7022 233.535 51.8132 231.424 53.9723C229.121 56.3712 226.77 58.7221 224.323 60.9771C226.674 60.8332 228.977 60.6892 231.28 60.4493C231.04 59.8256 230.081 57.6186 230.081 57.1388C230.081 56.4192 230.704 55.8434 231.424 55.8434C231.664 55.8434 232.048 56.0833 232.336 56.3232C233.439 57.2828 234.543 58.4822 235.598 59.6817C236.558 60.7372 238.237 62.8003 238.237 63.9518C238.237 65.679 236.414 67.0704 234.782 67.0704C233.583 67.0704 232.911 66.3507 232.671 65.3911C232.432 64.4795 232.24 63.6639 232.048 62.9442C231.232 63.1841 230.416 63.376 229.601 63.5679V81.6078C229.601 83.9108 228.353 84.6305 226.626 84.6305C225.139 84.6305 223.699 84.0068 223.699 81.7038V64.9113C222.404 65.1992 218.038 66.1108 217.558 66.1108C216.263 66.1108 215.495 64.5275 215.495 63.472C215.495 62.2245 216.119 61.4089 217.126 61.217C217.606 61.121 218.71 61.121 219.813 61.121ZM244.714 48.9345H254.885C258.244 48.9345 259.875 50.3259 259.875 53.7324C259.875 60.7852 259.491 68.6537 258.676 75.8984C258.1 80.8882 256.133 84.0547 250.663 84.0547H243.562C242.747 84.0547 241.931 83.6229 241.931 82.7113C241.931 81.7518 242.747 81.3679 243.562 81.3679H247.833C249.416 81.3679 250.375 81.0801 251.191 79.6407C252.103 78.0095 252.247 75.9464 252.439 74.1232C253.206 67.2143 253.206 60.2095 253.206 53.3006C253.206 52.293 252.918 51.5733 251.815 51.5733H242.795C241.787 52.8688 237.277 58.0984 235.838 58.0984C235.118 58.0984 234.495 57.5227 234.495 56.803C234.495 56.5151 234.639 56.2752 234.83 55.9874C237.661 51.9572 239.532 47.0634 240.78 42.2655C241.212 40.6343 242.171 39.8186 243.85 39.8186C245.53 39.8186 247.833 40.6822 247.833 42.6014C247.833 44.3766 245.722 47.4472 244.714 48.9345ZM249.56 68.6537C249.56 70.6688 247.353 72.3 245.482 72.3C243.658 72.3 242.939 71.2925 242.603 69.6612C241.931 66.3507 241.164 63.52 239.676 60.4973C239.484 60.1135 239.292 59.6817 239.292 59.3938C239.292 58.7221 239.964 58.1464 240.636 58.1464C241.787 58.1464 244.906 61.5049 245.722 62.4644C246.873 63.7119 249.56 66.9744 249.56 68.6537ZM238.717 76.666C238.717 78.5372 236.798 79.7846 235.118 79.7846C232.863 79.7846 232.767 78.0094 232.623 75.8024C232.432 73.4035 232 70.9086 231.136 68.6537C231.04 68.4138 230.944 68.1739 230.944 67.934C230.944 67.2143 231.568 66.6386 232.288 66.6386C233.199 66.6386 234.015 67.886 235.022 69.4213C235.982 70.8127 238.717 75.1307 238.717 76.666ZM216.982 82.6154C216.263 82.6154 215.639 82.0396 215.639 81.32C215.639 81.0801 215.687 80.7442 215.831 80.3124C216.839 76.9539 217.222 73.6914 217.222 70.141C217.222 68.2219 217.702 67.0224 219.813 67.0224C221.301 67.0224 223.076 67.7421 223.076 69.4693C223.076 71.6283 219.237 82.6154 216.982 82.6154Z" fill="#4AA9D5"/>
<path d="M193.856 54.9318V48.8865H186.564C185.7 48.8865 184.933 48.5027 184.933 47.5431C184.933 46.6316 185.652 46.2477 186.564 46.2477H193.856V43.2731C193.856 42.2175 194 41.162 194.576 40.5383C195.248 39.8186 196.111 39.6267 197.119 39.6267C198.271 39.6267 199.23 39.9146 199.806 40.7302C200.286 41.4019 200.43 42.2655 200.43 43.2731V46.2477H207.147C208.01 46.2477 208.778 46.6316 208.778 47.5431C208.778 48.5027 208.01 48.8865 207.147 48.8865H200.43V54.9318H208.346C209.21 54.9318 209.977 55.3157 209.977 56.2752C209.977 57.1868 209.306 57.5706 208.346 57.5706H185.604C184.597 57.5706 183.973 57.1868 183.973 56.2752C183.973 55.3157 184.693 54.9318 185.604 54.9318H193.856ZM180.183 61.7927C180.518 61.6488 181.334 61.265 182.006 60.9291C183.157 60.3534 183.301 60.3054 183.637 60.3054C184.405 60.3054 184.98 60.8811 184.98 61.6488C184.98 62.0806 184.789 62.4644 184.213 62.8962C183.301 63.5679 181.622 64.7194 180.183 65.679V81.7518C180.183 82.8073 180.039 83.2391 179.319 83.8628C178.791 84.2946 177.928 84.5825 177.16 84.5825C176.248 84.5825 175.097 84.1987 174.569 83.479C174.329 83.1431 174.185 82.6634 174.185 81.7038V69.2294C169.34 71.7722 168.62 72.1081 167.852 72.1081C166.365 72.1081 165.213 70.8607 165.213 69.3733C165.213 68.2218 166.077 67.3103 167.085 66.9744C170.347 65.8229 172.314 65.1032 174.185 64.3836V52.8208H171.307C170.539 55.4596 169.579 57.9545 168.38 60.3054C167.996 61.0731 167.66 61.5049 166.893 61.5049C166.125 61.5049 165.453 60.9291 165.453 60.1615C165.453 60.0175 165.597 59.4418 165.693 59.1539C166.125 57.6666 166.557 55.9394 166.797 54.596C167.324 51.4294 167.564 47.831 167.564 44.9043C167.564 43.5609 168.188 42.2175 170.299 42.2175C171.786 42.2175 172.842 42.8892 172.842 44.6165C172.842 45.576 172.362 48.5507 171.978 50.134H174.185V42.9852C174.185 41.4979 174.281 40.9701 174.953 40.4423C175.529 39.9626 176.392 39.7227 177.16 39.7227C178.216 39.7227 179.367 40.1545 179.847 40.8741C180.087 41.258 180.183 41.8337 180.183 42.9372V50.134H183.253C184.213 50.134 184.885 50.5658 184.885 51.4774C184.885 52.4369 184.165 52.8208 183.253 52.8208H180.183V61.7927ZM198.51 66.2068H185.508C184.645 66.2068 183.877 65.8229 183.877 64.9113C183.877 63.9518 184.645 63.5679 185.508 63.5679H198.51V61.5049C198.51 60.6413 198.702 59.5857 199.182 59.01C199.854 58.2423 200.717 58.0504 201.725 58.0504C202.876 58.0504 203.788 58.3383 204.412 59.1059C204.844 59.6337 205.035 60.5933 205.035 61.4089V63.5679H208.346C209.258 63.5679 209.977 63.9518 209.977 64.9113C209.977 65.8229 209.449 66.2068 208.346 66.2068H205.035V79.4968C205.035 82.6154 203.02 84.1027 200.046 84.1027H192.225C191.41 84.1027 190.594 83.7189 190.594 82.7593C190.594 82.3755 190.69 82.0396 190.978 81.7997C191.314 81.5119 191.602 81.4159 192.225 81.4159H196.639C198.031 81.4159 198.51 80.8402 198.51 79.5448V66.2068ZM185.076 68.5577C185.076 67.7421 185.748 67.0224 186.564 67.0224C186.996 67.0224 189.011 68.4138 191.074 70.3329C193.377 72.4919 194.288 74.0752 194.288 75.0828C194.288 77.0019 192.465 78.5852 190.642 78.5852C188.963 78.5852 188.291 77.8655 187.715 75.3227C187.235 73.2596 186.468 71.2445 185.412 69.3733C185.22 69.0375 185.076 68.7016 185.076 68.5577Z" fill="#4AA9D5"/>
<path d="M141.656 44.9043V42.3615C141.656 40.6822 143.144 39.6267 144.967 39.6267C147.078 39.6267 148.229 40.7782 148.229 42.8413V44.9043H154.131C157.105 44.9043 159.121 46.3917 159.121 49.5103V52.245C159.121 54.3561 158.113 55.2677 156.098 55.2677C153.795 55.2677 153.027 54.0682 153.027 52.1011V48.9825C153.027 48.0229 152.643 47.5911 151.636 47.5911H138.874C137.866 47.5911 137.482 48.0229 137.482 48.9825V52.245C137.482 54.3081 136.379 55.2677 134.412 55.2677C132.061 55.2677 131.389 53.9723 131.389 51.9572V49.5103C131.389 46.3917 133.404 44.9043 136.379 44.9043H141.656ZM116.132 81.7038V44.8564C116.132 42.2655 117.955 41.21 120.354 41.21H128.654C130.717 41.21 132.157 42.3135 132.157 44.3766C132.157 44.8084 132.109 45.2402 131.965 45.624L127.263 57.0429C127.119 57.3787 127.071 57.5227 127.071 57.6666C127.071 57.8585 127.167 58.0504 127.311 58.2423C128.318 59.7297 129.086 61.169 129.758 62.7043C130.813 65.0553 131.293 67.5501 131.293 70.093C131.293 72.1081 130.957 74.459 129.23 75.7545C128.318 76.4262 127.359 76.5701 126.255 76.5701H123.76C122.945 76.5701 122.129 76.1383 122.129 75.2267C122.129 74.2671 122.945 73.8833 123.76 73.8833H124.192C125.536 73.8833 126.015 72.0121 126.015 69.1814C126.015 65.2952 124.816 62.5124 123.137 59.058C122.897 58.5782 122.657 58.0504 122.657 57.4267C122.657 57.1868 122.705 56.9469 122.753 56.755L125.967 45.4321C126.015 45.2402 126.159 44.8084 126.159 44.7124C126.159 44.1367 125.584 43.8968 125.104 43.8968H123.089C122.129 43.8968 121.841 44.1847 121.841 45.1442V81.6078C121.841 83.6709 120.978 84.6784 119.011 84.6784C117.091 84.6784 116.132 83.7189 116.132 81.7038ZM153.507 57.7146H136.906C136.043 57.7146 135.275 57.2828 135.275 56.3712C135.275 55.4116 136.043 55.0278 136.906 55.0278H153.507C154.323 55.0278 155.138 55.4116 155.138 56.3712C155.138 57.2828 154.323 57.7146 153.507 57.7146ZM142.424 65.8709C142.424 68.9895 142.232 72.0601 141.273 74.8908C140.169 78.1534 137.53 80.5523 134.556 82.2795C133.212 83.0472 129.662 84.4865 128.462 84.4865C127.743 84.4865 127.167 83.8628 127.167 83.1431C127.167 82.4235 127.695 82.0396 128.318 81.7518C132.253 80.0725 134.268 77.9135 135.179 75.2267C136.043 72.6359 136.187 70.3329 136.187 65.8709H132.828C132.013 65.8709 131.197 65.4871 131.197 64.5275C131.197 63.6159 132.013 63.2321 132.828 63.2321H157.921C158.737 63.2321 159.552 63.6159 159.552 64.5275C159.552 65.4871 158.737 65.8709 157.921 65.8709H151.012V79.9286C151.012 80.8881 151.348 81.176 152.308 81.176H152.835C154.131 81.176 154.515 80.9361 154.706 79.6407C154.802 79.017 154.85 78.2014 154.898 77.1458C154.994 75.4666 155.378 74.507 157.201 74.507C158.737 74.507 160.08 75.0348 160.08 76.81C160.08 78.3453 159.936 80.2644 159.264 81.6558C158.353 83.527 156.626 83.7669 154.659 83.7669H149.093C146.742 83.7669 144.871 82.7113 144.871 80.1205V65.8709H142.424Z" fill="#4AA9D5"/>
<path d="M76.1177 50.5178C76.1177 52.5328 74.1506 54.308 72.1834 54.308C70.7921 54.308 69.9764 53.3005 69.6406 52.0531C68.633 48.6466 67.3376 45.3361 65.0347 42.4574C64.7948 42.1695 64.6508 41.8816 64.6508 41.5458C64.6508 40.8261 65.2745 40.2024 65.9942 40.2024C66.7619 40.2024 69.4487 42.3134 70.6961 43.4169C72.2794 44.8083 76.1177 48.3587 76.1177 50.5178ZM95.357 68.7016V74.8908C95.357 76.8099 95.2611 77.4336 94.7333 78.1053C94.2055 78.825 93.5818 79.1129 92.2864 79.1129C91.3748 79.1129 90.3193 78.873 89.7435 78.1053C89.3597 77.5776 89.1678 77.2417 89.1678 74.8908V68.7016H84.6099V75.5625C84.6099 77.3857 84.5139 77.9614 84.0341 78.6331C83.4584 79.4008 82.4988 79.5927 81.6352 79.5927C80.7236 79.5927 79.7161 79.3048 79.1403 78.5851C78.6605 78.0094 78.5646 77.2417 78.5646 75.5625V55.1237C78.5646 52.5328 80.2438 51.4773 82.7867 51.4773H90.991C89.1678 50.0859 87.3446 48.8865 85.1856 47.735C84.5619 47.3992 83.9382 47.0153 83.9382 46.1517C83.9382 45.432 84.5139 44.8563 85.2336 44.8563C86.3851 44.8563 90.0314 46.2477 92.0945 47.0633C92.5263 46.6795 95.1171 44.8083 95.1171 44.3765C95.1171 43.9927 94.7813 43.8488 94.4934 43.8488H79.0923C78.2767 43.8488 77.4611 43.4649 77.4611 42.5054C77.4611 41.5458 78.2767 41.162 79.0923 41.162H103.177C104.185 41.162 105.145 41.7857 105.145 42.8892C105.145 43.7048 104.521 44.2326 103.849 44.6164C101.258 46.1517 98.4756 47.4951 95.7888 48.7905C97.0363 49.4142 97.8039 50.038 97.8039 51.0935C97.8039 51.2374 97.7559 51.3334 97.7559 51.4773H102.026C104.425 51.4773 106.248 52.5328 106.248 55.1237V75.2266C106.248 77.8175 104.425 78.873 102.026 78.873H97.9478C97.1322 78.873 96.3166 78.4892 96.3166 77.5776C96.3166 76.666 97.0842 76.2342 97.8999 76.2342H98.7635C99.771 76.2342 100.059 75.9463 100.059 74.9867V68.7016H95.357ZM95.357 58.7221H100.059V55.4115C100.059 54.452 99.771 54.1161 98.7635 54.1161H95.357V58.7221ZM89.1678 58.7221V54.1161H85.8573C84.8977 54.1161 84.6099 54.452 84.6099 55.4115V58.7221H89.1678ZM75.0621 75.6105C75.446 77.9614 76.5495 79.4008 78.7565 80.2164C80.8675 80.9361 83.1225 81.032 85.3775 81.032H107.544C108.359 81.032 109.175 81.4159 109.175 82.3754C109.175 83.287 108.359 83.6708 107.544 83.6708H83.8422C81.3953 83.6708 78.8045 83.6229 76.4535 82.8072C74.5344 82.1355 73.143 80.7442 71.9915 79.1129C70.936 80.4563 69.8325 81.7517 68.5851 82.9032C67.9613 83.5269 67.0018 84.1506 66.2821 84.1506C64.6029 84.1506 63.9312 82.3274 63.9312 80.8881C63.9312 79.2568 64.5549 78.6811 65.6104 78.1533C66.6659 77.6256 67.6735 77.2417 69.0648 76.5221V64.1436C69.0648 63.1841 68.777 62.8962 67.8174 62.8962H65.8983C65.0826 62.8962 64.267 62.5124 64.267 61.5528C64.267 60.6412 65.0826 60.2094 65.8983 60.2094H70.84C73.239 60.2094 75.0621 61.3129 75.0621 63.8558V75.6105ZM95.357 66.0148H100.059V61.3609H95.357V66.0148ZM89.1678 66.0148V61.3609H84.6099V66.0148H89.1678Z" fill="#4AA9D5"/>
<path fill-rule="evenodd" clip-rule="evenodd" d="M413.257 51.5436C405.316 58.9067 405.316 70.8446 413.257 78.2076C421.199 85.5707 434.074 85.5707 442.015 78.2076C449.956 70.8446 449.956 58.9067 442.015 51.5436C434.074 44.1805 421.199 44.1805 413.257 51.5436ZM410.996 80.3043C401.806 71.7833 401.806 57.968 410.996 49.4469C420.186 40.9259 435.086 40.9259 444.276 49.4469C453.467 57.968 453.467 71.7833 444.276 80.3043C435.086 88.8253 420.186 88.8253 410.996 80.3043Z" fill="white"/>
<path fill-rule="evenodd" clip-rule="evenodd" d="M393.721 74.1845C390.718 74.1845 388.483 76.4175 388.483 78.9291C388.483 81.4406 390.718 83.6736 393.721 83.6736C396.725 83.6736 398.96 81.4406 398.96 78.9291C398.96 76.4175 396.725 74.1845 393.721 74.1845ZM385.399 78.9291C385.399 74.499 389.238 71.1007 393.721 71.1007C398.204 71.1007 402.043 74.499 402.043 78.9291C402.043 83.3591 398.204 86.7574 393.721 86.7574C389.238 86.7574 385.399 83.3591 385.399 78.9291Z" fill="white"/>
<path fill-rule="evenodd" clip-rule="evenodd" d="M392.179 68.8233C392.179 67.9717 392.869 67.2814 393.721 67.2814H405.702C406.554 67.2814 407.244 67.9717 407.244 68.8233C407.244 69.6748 406.554 70.3651 405.702 70.3651H393.721C392.869 70.3651 392.179 69.6748 392.179 68.8233Z" fill="white"/>
<path fill-rule="evenodd" clip-rule="evenodd" d="M373.914 77.5212C373.914 76.6697 374.604 75.9794 375.455 75.9794H386.941C387.793 75.9794 388.483 76.6697 388.483 77.5212C388.483 78.3728 387.793 79.0631 386.941 79.0631H375.455C374.604 79.0631 373.914 78.3728 373.914 77.5212Z" fill="white"/>
<path fill-rule="evenodd" clip-rule="evenodd" d="M426.095 21.0128C426.095 20.1613 426.785 19.4709 427.637 19.4709H439.092C439.944 19.4709 440.634 20.1613 440.634 21.0128C440.634 21.8644 439.944 22.5547 439.092 22.5547H429.178V44.5278C429.178 45.3794 428.488 46.0697 427.637 46.0697C426.785 46.0697 426.095 45.3794 426.095 44.5278V21.0128Z" fill="white"/>
<path fill-rule="evenodd" clip-rule="evenodd" d="M392.164 49.5598C392.164 45.8267 395.402 42.986 399.133 42.986H427.636C428.488 42.986 429.178 43.6763 429.178 44.5278C429.178 45.3794 428.488 46.0697 427.636 46.0697H399.133C396.881 46.0697 395.248 47.7452 395.248 49.5598V72.6427C395.248 73.4942 394.557 74.1845 393.706 74.1845C392.854 74.1845 392.164 73.4942 392.164 72.6427V49.5598Z" fill="white"/>
<path fill-rule="evenodd" clip-rule="evenodd" d="M379.54 50.2686C380.476 47.7214 383.006 46.1223 385.723 46.1223H393.721C394.572 46.1223 395.262 46.8126 395.262 47.6642C395.262 48.5157 394.572 49.2061 393.721 49.2061H385.723C384.173 49.2061 382.887 50.1124 382.437 51.3251L376.713 67.4574C376.707 67.4727 376.701 67.4879 376.696 67.5031C376.236 68.6791 376.847 70.1256 378.34 70.6389C379.877 71.1529 381.48 70.376 381.975 69.1313L381.986 69.1055L387.473 56.0168C387.713 55.4439 388.274 55.0711 388.895 55.0711H393.721C394.572 55.0711 395.262 55.7614 395.262 56.613C395.262 57.4645 394.572 58.1549 393.721 58.1549H389.92L384.835 70.2859C383.672 73.1843 380.292 74.5478 377.354 73.5607L377.346 73.5579L377.346 73.5579C374.37 72.5395 372.669 69.3746 373.814 66.405L379.534 50.2848L379.54 50.2686Z" fill="white"/>
<path fill-rule="evenodd" clip-rule="evenodd" d="M416.511 3.54176C411.824 3.54176 408.221 7.04324 408.221 11.116C408.221 15.1887 411.824 18.6901 416.511 18.6901C421.199 18.6901 424.801 15.1887 424.801 11.116C424.801 7.04324 421.199 3.54176 416.511 3.54176ZM405.138 11.116C405.138 5.12477 410.345 0.458008 416.511 0.458008C422.678 0.458008 427.885 5.12477 427.885 11.116C427.885 17.1071 422.678 21.7739 416.511 21.7739C410.345 21.7739 405.138 17.1071 405.138 11.116Z" fill="white"/>
<path fill-rule="evenodd" clip-rule="evenodd" d="M419.954 27.2243C417.928 27.2243 416.49 28.7185 416.49 30.324V36.8753C416.49 37.7077 415.83 38.3898 414.998 38.4164L402.385 38.8207C402.368 38.8212 402.352 38.8215 402.335 38.8215C400.925 38.8215 399.969 39.8697 399.969 40.9037C399.969 41.9377 400.925 42.9859 402.335 42.9859C403.187 42.9859 403.877 43.6763 403.877 44.5278C403.877 45.3794 403.187 46.0697 402.335 46.0697C399.446 46.0697 396.885 43.8562 396.885 40.9037C396.885 37.9603 399.43 35.7513 402.309 35.7378L413.406 35.3821V30.324C413.406 26.8 416.449 24.1405 419.954 24.1405H427.652C428.503 24.1405 429.193 24.8308 429.193 25.6824C429.193 26.5339 428.503 27.2243 427.652 27.2243H419.954Z" fill="white"/>
<path fill-rule="evenodd" clip-rule="evenodd" d="M410.257 51.5436C402.316 58.9067 402.316 70.8446 410.257 78.2076C418.199 85.5707 431.074 85.5707 439.015 78.2076C446.956 70.8446 446.956 58.9067 439.015 51.5436C431.074 44.1805 418.199 44.1805 410.257 51.5436ZM407.996 80.3043C398.806 71.7833 398.806 57.968 407.996 49.4469C417.186 40.9259 432.086 40.9259 441.276 49.4469C450.467 57.968 450.467 71.7833 441.276 80.3043C432.086 88.8253 417.186 88.8253 407.996 80.3043Z" fill="#4AA9D5"/>
<path fill-rule="evenodd" clip-rule="evenodd" d="M390.721 74.1845C387.718 74.1845 385.483 76.4175 385.483 78.9291C385.483 81.4406 387.718 83.6736 390.721 83.6736C393.725 83.6736 395.96 81.4406 395.96 78.9291C395.96 76.4175 393.725 74.1845 390.721 74.1845ZM382.399 78.9291C382.399 74.499 386.238 71.1007 390.721 71.1007C395.204 71.1007 399.043 74.499 399.043 78.9291C399.043 83.3591 395.204 86.7574 390.721 86.7574C386.238 86.7574 382.399 83.3591 382.399 78.9291Z" fill="#444444"/>
<path fill-rule="evenodd" clip-rule="evenodd" d="M389.179 68.8233C389.179 67.9717 389.869 67.2814 390.721 67.2814H402.702C403.554 67.2814 404.244 67.9717 404.244 68.8233C404.244 69.6748 403.554 70.3651 402.702 70.3651H390.721C389.869 70.3651 389.179 69.6748 389.179 68.8233Z" fill="#444444"/>
<path fill-rule="evenodd" clip-rule="evenodd" d="M370.914 77.5212C370.914 76.6697 371.604 75.9794 372.455 75.9794H383.941C384.793 75.9794 385.483 76.6697 385.483 77.5212C385.483 78.3728 384.793 79.0631 383.941 79.0631H372.455C371.604 79.0631 370.914 78.3728 370.914 77.5212Z" fill="#444444"/>
<path fill-rule="evenodd" clip-rule="evenodd" d="M423.095 21.0128C423.095 20.1613 423.785 19.4709 424.637 19.4709H436.092C436.944 19.4709 437.634 20.1613 437.634 21.0128C437.634 21.8644 436.944 22.5547 436.092 22.5547H426.178V44.5278C426.178 45.3794 425.488 46.0697 424.637 46.0697C423.785 46.0697 423.095 45.3794 423.095 44.5278V21.0128Z" fill="#444444"/>
<path fill-rule="evenodd" clip-rule="evenodd" d="M389.164 49.5598C389.164 45.8267 392.402 42.986 396.133 42.986H424.636C425.488 42.986 426.178 43.6763 426.178 44.5278C426.178 45.3794 425.488 46.0697 424.636 46.0697H396.133C393.881 46.0697 392.248 47.7452 392.248 49.5598V72.6427C392.248 73.4942 391.557 74.1845 390.706 74.1845C389.854 74.1845 389.164 73.4942 389.164 72.6427V49.5598Z" fill="#444444"/>
<path fill-rule="evenodd" clip-rule="evenodd" d="M376.54 50.2686C377.476 47.7214 380.006 46.1223 382.723 46.1223H390.721C391.572 46.1223 392.262 46.8126 392.262 47.6642C392.262 48.5157 391.572 49.2061 390.721 49.2061H382.723C381.173 49.2061 379.887 50.1124 379.437 51.3251L373.713 67.4574C373.707 67.4727 373.701 67.4879 373.696 67.5031C373.236 68.6791 373.847 70.1256 375.34 70.6389C376.877 71.1529 378.48 70.376 378.975 69.1313L378.986 69.1055L384.473 56.0168C384.713 55.4439 385.274 55.0711 385.895 55.0711H390.721C391.572 55.0711 392.262 55.7614 392.262 56.613C392.262 57.4645 391.572 58.1549 390.721 58.1549H386.92L381.835 70.2859C380.672 73.1843 377.292 74.5478 374.354 73.5607L374.346 73.5579L374.346 73.5579C371.37 72.5395 369.669 69.3746 370.814 66.405L376.534 50.2848L376.54 50.2686Z" fill="#444444"/>
<path fill-rule="evenodd" clip-rule="evenodd" d="M413.511 3.54176C408.824 3.54176 405.221 7.04324 405.221 11.116C405.221 15.1887 408.824 18.6901 413.511 18.6901C418.199 18.6901 421.801 15.1887 421.801 11.116C421.801 7.04324 418.199 3.54176 413.511 3.54176ZM402.138 11.116C402.138 5.12477 407.345 0.458008 413.511 0.458008C419.678 0.458008 424.885 5.12477 424.885 11.116C424.885 17.1071 419.678 21.7739 413.511 21.7739C407.345 21.7739 402.138 17.1071 402.138 11.116Z" fill="#444444"/>
<path fill-rule="evenodd" clip-rule="evenodd" d="M416.954 27.2243C414.928 27.2243 413.49 28.7185 413.49 30.324V36.8753C413.49 37.7077 412.83 38.3898 411.998 38.4164L399.385 38.8207C399.368 38.8212 399.352 38.8215 399.335 38.8215C397.925 38.8215 396.969 39.8697 396.969 40.9037C396.969 41.9377 397.925 42.9859 399.335 42.9859C400.187 42.9859 400.877 43.6763 400.877 44.5278C400.877 45.3794 400.187 46.0697 399.335 46.0697C396.446 46.0697 393.885 43.8562 393.885 40.9037C393.885 37.9603 396.43 35.7513 399.309 35.7378L410.406 35.3821V30.324C410.406 26.8 413.449 24.1405 416.954 24.1405H424.652C425.503 24.1405 426.193 24.8308 426.193 25.6824C426.193 26.5339 425.503 27.2243 424.652 27.2243H416.954Z" fill="#444444"/>
</svg>
