<svg width="117" height="39" viewBox="0 0 117 39" fill="none" xmlns="http://www.w3.org/2000/svg">
<path d="M86.5467 37.3625H93.5916C93.9184 37.3625 94.1908 37.6167 94.1908 37.9435C94.1908 38.2704 93.9184 38.5246 93.5916 38.5246H83.8414C83.2967 38.5246 82.752 38.2159 82.752 37.6167C82.752 36.7452 83.4782 35.4016 84.0048 34.7298C85.2031 33.2046 86.8736 32.1515 88.5258 31.2073C89.9421 30.4084 91.1949 29.6095 91.1949 27.812C91.1949 26.1597 90.2871 24.9795 88.5803 24.9795C87.9085 24.9795 87.2185 25.1248 86.7102 25.5969C86.1836 26.0689 85.8386 26.8315 85.8386 27.5396C85.8386 27.7575 85.8568 27.9028 85.8749 28.048C85.8931 28.1751 85.9112 28.3567 85.9112 28.4112C85.9112 29.2827 85.1487 29.7366 84.3498 29.7366C83.6053 29.7366 82.8427 29.319 82.8427 28.502C82.8427 27.576 83.2785 26.5955 83.8232 25.8692C85.0034 24.3077 86.9462 23.7993 88.8163 23.7993C91.5399 23.7993 94.1363 24.9614 94.1363 28.0662C94.1363 30.7716 91.903 32.097 89.3247 33.5496C88.199 34.1851 86.0383 35.4742 86.0383 36.9449C86.0383 37.2354 86.2744 37.3625 86.5467 37.3625Z" fill="#444444"/>
<path d="M74.4844 29.5914V36.1823C74.4844 36.8723 74.7023 37.4896 75.5012 37.4896C75.828 37.4896 76.0822 37.417 76.3183 37.2899C76.4454 37.2173 76.518 37.2173 76.5906 37.2173C76.863 37.2173 77.0809 37.4533 77.0809 37.7257C77.0809 37.9799 76.9174 38.1251 76.6996 38.2522C76.0641 38.6153 75.3378 38.7969 74.5752 38.7969C72.814 38.7969 71.9061 37.7801 71.9061 36.0552V29.5914H70.7078C70.4173 29.5914 70.1631 29.3553 70.1631 29.0648C70.1631 28.7562 70.4173 28.5201 70.7078 28.5201H71.9061V26.3413C71.9061 25.6513 72.3782 25.0885 73.1953 25.0885C74.0123 25.0885 74.4844 25.6332 74.4844 26.3413V28.5201H76.4272C76.7177 28.5201 76.9719 28.7562 76.9719 29.0648C76.9719 29.3553 76.7177 29.5914 76.4272 29.5914H74.4844Z" fill="#444444"/>
<path d="M59.6681 29.8456C60.4307 28.8106 61.393 28.2296 62.6822 28.2296C65.097 28.2296 66.2046 29.7548 66.2046 32.0426V37.5441C66.2046 38.2522 65.8596 38.7969 64.9155 38.7969C63.9531 38.7969 63.6263 38.2522 63.6263 37.5441V31.5886C63.6263 30.4992 63.1724 29.5732 61.974 29.5732C60.8846 29.5732 60.0494 30.4811 59.6681 31.4252V37.5441C59.6681 38.3248 59.196 38.7969 58.379 38.7969C57.5801 38.7969 57.0898 38.3248 57.0898 37.5441V29.4643C57.0898 28.7562 57.5438 28.2296 58.379 28.2296C59.0508 28.2296 59.6681 28.6472 59.6681 29.3553V29.8456Z" fill="#444444"/>
<path d="M50.7533 23.7993C51.6611 23.7993 52.4055 24.5438 52.4055 25.4516C52.4055 26.3413 51.6611 27.0857 50.7533 27.0857C49.8636 27.0857 49.1191 26.3413 49.1191 25.4516C49.1191 24.5438 49.8636 23.7993 50.7533 23.7993ZM52.0424 29.4824V37.5441C52.0424 38.234 51.7337 38.7969 50.7533 38.7969C49.8817 38.7969 49.4823 38.2522 49.4823 37.5441V29.4824C49.4823 28.7743 49.9362 28.2296 50.7533 28.2296C51.534 28.2296 52.0424 28.6654 52.0424 29.4824Z" fill="#444444"/>
<path d="M40.2063 28.2296C43.3293 28.2296 45.036 30.5537 45.036 33.5133C45.036 36.491 43.3293 38.7969 40.2063 38.7969C37.0651 38.7969 35.3584 36.491 35.3584 33.5133C35.3584 30.5537 37.0651 28.2296 40.2063 28.2296ZM40.2063 29.3553C38.1546 29.3553 38.0456 32.0244 38.0456 33.5133C38.0456 35.0021 38.1546 37.6893 40.2063 37.6893C42.2399 37.6893 42.3488 35.0021 42.3488 33.5133C42.3488 32.0244 42.2399 29.3553 40.2063 29.3553Z" fill="#444444"/>
<path d="M24.1922 32.442V37.4351C24.1922 38.1796 23.7202 38.7969 22.776 38.7969C21.7592 38.7969 21.3779 38.1977 21.3779 37.4351V25.9782C21.3779 24.6709 22.1587 24.0717 23.4115 24.0717H28.2594C30.8921 24.0717 32.726 25.5061 32.726 28.2478C32.726 30.9895 30.8558 32.442 28.2231 32.442H24.1922ZM24.1922 31.28H27.1155C29.0401 31.28 29.7301 29.9545 29.7301 28.2115C29.7301 26.4865 29.0583 25.2519 27.17 25.2519H24.8459C24.5009 25.2519 24.1922 25.5605 24.1922 25.8874V31.28Z" fill="#444444"/>
<path d="M109.849 3.06895C109.613 5.88326 109.414 8.71573 108.506 11.403C107.907 13.2005 107.017 15.2159 104.802 15.2159C101.951 15.2159 100.571 12.1292 100.571 9.67805C100.571 7.73526 101.279 5.81063 102.569 4.37624C104.257 2.46977 106.636 1.63455 109.123 1.63455C113.408 1.63455 116.731 3.97679 116.731 8.51601C116.731 11.2395 115.496 13.5818 113.045 14.8709C112.246 15.2704 110.794 15.8332 109.886 15.8332C109.559 15.8332 109.268 15.5609 109.268 15.2159C109.268 14.8528 109.523 14.653 109.831 14.5622C110.775 14.2899 111.556 13.7815 112.21 13.0552C113.372 11.7479 114.007 9.91409 114.007 8.18919C114.007 5.30224 112.519 3.84969 109.849 3.06895ZM107.235 3.06895C106.018 3.55918 105.165 4.1402 104.457 5.24777C103.422 6.84558 102.877 8.7702 102.877 10.6585C102.877 11.4756 102.95 12.3471 103.386 13.0552C103.603 13.4365 104.003 13.8178 104.475 13.8178C105.201 13.8178 105.637 12.565 106.037 11.3848C106.854 8.69758 107.071 5.86511 107.235 3.06895Z" fill="#444444"/>
<path d="M92.5091 2.23373V14.3625H93.3624C93.6893 14.3625 93.9616 14.6167 93.9616 14.9435C93.9616 15.2704 93.6893 15.5246 93.3624 15.5246H83.9209C83.6122 15.5246 83.3398 15.2704 83.3398 14.9435C83.3398 14.6167 83.6122 14.3625 83.9209 14.3625H84.7742V2.23373H83.9209C83.6122 2.23373 83.3398 1.97953 83.3398 1.65271C83.3398 1.32588 83.6122 1.07169 83.9209 1.07169H93.3624C93.6893 1.07169 93.9616 1.32588 93.9616 1.65271C93.9616 1.97953 93.6893 2.23373 93.3624 2.23373H92.5091ZM89.6948 2.23373H87.5886V14.3625H89.6948V2.23373Z" fill="#444444"/>
<path d="M61.7152 8.24365C62.2236 7.66263 62.6775 7.08161 63.1314 6.46428C62.6593 6.39165 62.4959 5.97404 62.2962 5.59275C61.8604 4.84832 61.3702 4.10389 60.7347 3.50471C60.4442 3.23236 60.3353 3.10526 60.3353 2.88738C60.3353 2.63318 60.5531 2.39714 60.8255 2.39714C61.0071 2.39714 61.6789 2.74212 62.2054 3.0871C62.6049 2.34267 62.9135 1.56192 63.1859 0.781178C63.3493 0.327257 63.6761 0.091217 64.1482 0.091217C64.6929 0.091217 65.51 0.399883 65.51 1.05353C65.51 1.32588 65.165 1.83428 64.7474 2.32451C64.2935 2.85106 63.8214 3.3413 63.3311 3.81338C63.658 4.04942 64.0937 4.33993 64.2934 4.72122C64.6384 4.1402 64.9653 3.55918 65.2921 2.92369C65.4736 2.56055 65.8005 2.36083 66.2181 2.36083C66.7991 2.36083 67.6525 2.74212 67.6525 3.45024C67.6525 3.92232 66.908 4.72122 66.1091 5.53828C65.2376 6.44612 64.3479 7.33581 63.4219 8.18918C64.3116 8.13471 65.1831 8.08024 66.0547 7.98946C65.9639 7.75342 65.6007 6.9182 65.6007 6.73663C65.6007 6.46428 65.8368 6.2464 66.1091 6.2464C66.1999 6.2464 66.3452 6.33718 66.4541 6.42797C66.8717 6.7911 67.2893 7.24503 67.6888 7.69895C68.0519 8.0984 68.6874 8.87914 68.6874 9.31491C68.6874 9.96856 67.9975 10.4951 67.3801 10.4951C66.9262 10.4951 66.672 10.2228 66.5812 9.85962C66.4904 9.51464 66.4178 9.20597 66.3452 8.93362C66.0365 9.0244 65.7278 9.09703 65.4192 9.16965V15.9966C65.4192 16.8682 64.9471 17.1405 64.2934 17.1405C63.7306 17.1405 63.1859 16.9045 63.1859 16.033V9.67805C62.6956 9.78699 61.0434 10.132 60.8618 10.132C60.3716 10.132 60.0811 9.53279 60.0811 9.13334C60.0811 8.66126 60.3171 8.3526 60.6984 8.27997C60.88 8.24365 61.2976 8.24365 61.7152 8.24365ZM71.1386 3.63181H74.9879C76.2588 3.63181 76.8762 4.15836 76.8762 5.4475C76.8762 8.11656 76.7309 11.0943 76.4222 13.836C76.2044 15.7243 75.4599 16.9226 73.39 16.9226H70.7028C70.3942 16.9226 70.0855 16.7592 70.0855 16.4142C70.0855 16.0511 70.3942 15.9059 70.7028 15.9059H72.3188C72.918 15.9059 73.2811 15.7969 73.5898 15.2522C73.9348 14.6349 73.9892 13.8541 74.0619 13.1642C74.3524 10.5496 74.3524 7.89867 74.3524 5.28408C74.3524 4.90279 74.2434 4.63044 73.8258 4.63044H70.4123C70.031 5.12067 68.3243 7.09977 67.7796 7.09977C67.5072 7.09977 67.2712 6.88189 67.2712 6.60954C67.2712 6.50059 67.3257 6.40981 67.3983 6.30087C68.4695 4.77569 69.1776 2.92369 69.6497 1.108C69.8131 0.490667 70.1763 0.182001 70.8118 0.182001C71.4473 0.182001 72.3188 0.508825 72.3188 1.2351C72.3188 1.9069 71.5199 3.06894 71.1386 3.63181ZM72.9724 11.0943C72.9724 11.8569 72.1372 12.4742 71.4291 12.4742C70.7391 12.4742 70.4668 12.0929 70.3397 11.4756C70.0855 10.2228 69.795 9.1515 69.2321 8.00762C69.1595 7.86236 69.0869 7.69895 69.0869 7.59001C69.0869 7.33581 69.3411 7.11793 69.5953 7.11793C70.031 7.11793 71.2112 8.38891 71.5199 8.75205C71.9557 9.22413 72.9724 10.4588 72.9724 11.0943ZM68.869 14.1265C68.869 14.8346 68.1427 15.3067 67.5072 15.3067C66.6538 15.3067 66.6175 14.6349 66.5631 13.7997C66.4904 12.8918 66.327 11.9477 66.0002 11.0943C65.9639 11.0035 65.9276 10.9127 65.9276 10.8219C65.9276 10.5496 66.1636 10.3317 66.436 10.3317C66.7809 10.3317 67.0896 10.8038 67.4709 11.3848C67.834 11.9113 68.869 13.5455 68.869 14.1265ZM60.6439 16.3779C60.3716 16.3779 60.1355 16.1601 60.1355 15.8877C60.1355 15.7969 60.1537 15.6698 60.2082 15.5064C60.5894 14.2354 60.7347 13.0008 60.7347 11.6571C60.7347 10.9309 60.9163 10.4769 61.7152 10.4769C62.278 10.4769 62.9498 10.7493 62.9498 11.403C62.9498 12.22 61.4973 16.3779 60.6439 16.3779Z" fill="#444444"/>
<path d="M50.9842 5.90142V3.61365H48.2243C47.8975 3.61365 47.607 3.4684 47.607 3.10526C47.607 2.76028 47.8794 2.61502 48.2243 2.61502H50.9842V1.4893C50.9842 1.08985 51.0387 0.690395 51.2565 0.454355C51.5107 0.182003 51.8376 0.109375 52.2189 0.109375C52.6546 0.109375 53.0178 0.218316 53.2356 0.526983C53.4172 0.781179 53.4717 1.108 53.4717 1.4893V2.61502H56.0136C56.3405 2.61502 56.631 2.76028 56.631 3.10526C56.631 3.4684 56.3405 3.61365 56.0136 3.61365H53.4717V5.90142H56.4676C56.7944 5.90142 57.0849 6.04667 57.0849 6.40981C57.0849 6.75479 56.8307 6.90005 56.4676 6.90005H47.8612C47.4799 6.90005 47.2439 6.75479 47.2439 6.40981C47.2439 6.04667 47.5162 5.90142 47.8612 5.90142H50.9842ZM45.8095 8.49785C45.9366 8.44338 46.2452 8.29813 46.4994 8.17103C46.9352 7.95314 46.9897 7.93499 47.1168 7.93499C47.4073 7.93499 47.6252 8.15287 47.6252 8.44338C47.6252 8.60679 47.5525 8.75205 47.3347 8.91546C46.9897 9.16966 46.3542 9.60542 45.8095 9.96856V16.0511C45.8095 16.4506 45.755 16.614 45.4827 16.85C45.2829 17.0134 44.9561 17.1224 44.6656 17.1224C44.3206 17.1224 43.8848 16.9771 43.6851 16.7048C43.5943 16.5777 43.5399 16.3961 43.5399 16.033V11.3122C41.706 12.2745 41.4337 12.4016 41.1432 12.4016C40.5803 12.4016 40.1445 11.9295 40.1445 11.3666C40.1445 10.9309 40.4714 10.5859 40.8526 10.4588C42.0873 10.023 42.8317 9.75068 43.5399 9.47832V5.10252H42.4505C42.1599 6.10114 41.7968 7.0453 41.3429 7.93499C41.1976 8.2255 41.0705 8.38891 40.78 8.38891C40.4895 8.38891 40.2353 8.17103 40.2353 7.88052C40.2353 7.82605 40.2898 7.60817 40.3261 7.49922C40.4895 6.93636 40.6529 6.28271 40.7437 5.77432C40.9434 4.57597 41.0342 3.2142 41.0342 2.10663C41.0342 1.59824 41.2703 1.08985 42.0692 1.08985C42.632 1.08985 43.0315 1.34404 43.0315 1.99769C43.0315 2.36083 42.8499 3.48655 42.7047 4.08573H43.5399V1.38036C43.5399 0.817493 43.5762 0.617767 43.8304 0.418042C44.0483 0.236473 44.3751 0.145688 44.6656 0.145688C45.065 0.145688 45.5008 0.3091 45.6824 0.581454C45.7732 0.726708 45.8095 0.944591 45.8095 1.3622V4.08573H46.9715C47.3347 4.08573 47.5888 4.24914 47.5888 4.59412C47.5888 4.95726 47.3165 5.10252 46.9715 5.10252H45.8095V8.49785ZM52.7454 10.1683H47.8249C47.4981 10.1683 47.2076 10.023 47.2076 9.67805C47.2076 9.31491 47.4981 9.16966 47.8249 9.16966H52.7454V8.38891C52.7454 8.06209 52.818 7.66264 52.9996 7.44475C53.2538 7.15424 53.5806 7.08162 53.9619 7.08162C54.3977 7.08162 54.7427 7.19056 54.9787 7.48107C55.1421 7.68079 55.2147 8.04393 55.2147 8.3526V9.16966H56.4676C56.8125 9.16966 57.0849 9.31491 57.0849 9.67805C57.0849 10.023 56.8852 10.1683 56.4676 10.1683H55.2147V15.1977C55.2147 16.3779 54.4521 16.9408 53.3264 16.9408H50.3669C50.0582 16.9408 49.7495 16.7955 49.7495 16.4324C49.7495 16.2872 49.7858 16.1601 49.8948 16.0693C50.0219 15.9603 50.1308 15.924 50.3669 15.924H52.0373C52.5638 15.924 52.7454 15.7061 52.7454 15.2159V10.1683ZM47.6615 11.058C47.6615 10.7493 47.9157 10.477 48.2243 10.477C48.3878 10.477 49.1503 11.0035 49.9311 11.7298C50.8026 12.5468 51.1476 13.146 51.1476 13.5273C51.1476 14.2536 50.4576 14.8528 49.7677 14.8528C49.1322 14.8528 48.878 14.5804 48.6601 13.6181C48.4785 12.8373 48.188 12.0748 47.7886 11.3666C47.7159 11.2395 47.6615 11.1124 47.6615 11.058Z" fill="#444444"/>
<path d="M30.3216 2.10663V1.14432C30.3216 0.508827 30.8844 0.109375 31.5744 0.109375C32.3733 0.109375 32.8091 0.54514 32.8091 1.32589V2.10663H35.0424C36.1681 2.10663 36.9307 2.6695 36.9307 3.84969V4.88463C36.9307 5.68354 36.5494 6.02852 35.7868 6.02852C34.9153 6.02852 34.6247 5.57459 34.6247 4.83016V3.64997C34.6247 3.28683 34.4795 3.12342 34.0982 3.12342H29.2685C28.8872 3.12342 28.7419 3.28683 28.7419 3.64997V4.88463C28.7419 5.66538 28.3243 6.02852 27.5799 6.02852C26.6902 6.02852 26.436 5.53828 26.436 4.77569V3.84969C26.436 2.6695 27.1986 2.10663 28.3243 2.10663H30.3216ZM20.6621 16.033V2.08847C20.6621 1.108 21.3521 0.708552 22.2599 0.708552H25.4011C26.1818 0.708552 26.7265 1.12616 26.7265 1.90691C26.7265 2.07032 26.7084 2.23373 26.6539 2.37898L24.8745 6.70032C24.82 6.82742 24.8019 6.88189 24.8019 6.93636C24.8019 7.00899 24.8382 7.08161 24.8927 7.15424C25.274 7.71711 25.5645 8.26181 25.8187 8.84283C26.2181 9.73252 26.3997 10.6767 26.3997 11.639C26.3997 12.4016 26.2726 13.2913 25.6189 13.7815C25.274 14.0357 24.9108 14.0902 24.4932 14.0902H23.5491C23.2404 14.0902 22.9317 13.9268 22.9317 13.5818C22.9317 13.2186 23.2404 13.0734 23.5491 13.0734H23.7125C24.2209 13.0734 24.4024 12.3653 24.4024 11.294C24.4024 9.8233 23.9485 8.77021 23.313 7.46291C23.2222 7.28134 23.1314 7.08162 23.1314 6.84558C23.1314 6.75479 23.1496 6.66401 23.1678 6.59138L24.3843 2.30636C24.4024 2.23373 24.4569 2.07032 24.4569 2.034C24.4569 1.81612 24.239 1.72534 24.0574 1.72534H23.2949C22.9317 1.72534 22.8228 1.83428 22.8228 2.19742V15.9966C22.8228 16.7774 22.496 17.1587 21.7515 17.1587C21.0252 17.1587 20.6621 16.7955 20.6621 16.033ZM34.8063 6.95452H28.524C28.1972 6.95452 27.9067 6.79111 27.9067 6.44613C27.9067 6.08299 28.1972 5.93773 28.524 5.93773H34.8063C35.115 5.93773 35.4237 6.08299 35.4237 6.44613C35.4237 6.79111 35.115 6.95452 34.8063 6.95452ZM30.6121 10.0412C30.6121 11.2214 30.5395 12.3834 30.1763 13.4547C29.7587 14.6893 28.7601 15.5972 27.6343 16.2508C27.126 16.5413 25.7823 17.0861 25.3284 17.0861C25.0561 17.0861 24.8382 16.85 24.8382 16.5777C24.8382 16.3053 25.0379 16.1601 25.274 16.0511C26.7628 15.4156 27.5254 14.5986 27.8704 13.5818C28.1972 12.6013 28.2517 11.7298 28.2517 10.0412H26.9807C26.672 10.0412 26.3634 9.89593 26.3634 9.53279C26.3634 9.18781 26.672 9.04256 26.9807 9.04256H36.4767C36.7854 9.04256 37.0941 9.18781 37.0941 9.53279C37.0941 9.89593 36.7854 10.0412 36.4767 10.0412H33.8622V15.3612C33.8622 15.7243 33.9893 15.8332 34.3524 15.8332H34.5521C35.0424 15.8332 35.1876 15.7424 35.2602 15.2522C35.2966 15.0162 35.3147 14.7075 35.3329 14.3081C35.3692 13.6726 35.5144 13.3094 36.2044 13.3094C36.7854 13.3094 37.2938 13.5091 37.2938 14.181C37.2938 14.762 37.2393 15.4882 36.9851 16.0148C36.6402 16.7229 35.9865 16.8137 35.2421 16.8137H33.1359C32.2462 16.8137 31.5381 16.4143 31.5381 15.4338V10.0412H30.6121Z" fill="#444444"/>
<path d="M4.61185 4.23098C4.61185 4.99357 3.86741 5.66538 3.12298 5.66538C2.59643 5.66538 2.28777 5.28408 2.16067 4.812C1.77937 3.52287 1.28914 2.27004 0.417608 1.18063C0.326824 1.07169 0.272353 0.962745 0.272353 0.835648C0.272353 0.563294 0.508393 0.327255 0.780746 0.327255C1.07126 0.327255 2.08804 1.12616 2.56012 1.54377C3.1593 2.07031 4.61185 3.41392 4.61185 4.23098ZM11.8928 11.1124V13.4547C11.8928 14.181 11.8564 14.417 11.6567 14.6712C11.457 14.9435 11.2209 15.0525 10.7307 15.0525C10.3857 15.0525 9.98628 14.9617 9.7684 14.6712C9.62314 14.4715 9.55052 14.3444 9.55052 13.4547V11.1124H7.82561V13.7089C7.82561 14.3988 7.7893 14.6167 7.60773 14.8709C7.38985 15.1614 7.02671 15.2341 6.69989 15.2341C6.35491 15.2341 5.97361 15.1251 5.75573 14.8528C5.57416 14.6349 5.53785 14.3444 5.53785 13.7089V5.97404C5.53785 4.99357 6.17334 4.59412 7.13565 4.59412H10.2405C9.55052 4.06757 8.86056 3.61365 8.0435 3.17789C7.80746 3.05079 7.57142 2.90553 7.57142 2.57871C7.57142 2.30635 7.7893 2.08847 8.06165 2.08847C8.49742 2.08847 9.87734 2.61502 10.6581 2.92369C10.8215 2.77843 11.802 2.07031 11.802 1.9069C11.802 1.76165 11.6749 1.70718 11.5659 1.70718H5.73757C5.42891 1.70718 5.12024 1.56192 5.12024 1.19879C5.12024 0.835648 5.42891 0.690392 5.73757 0.690392H14.8523C15.2336 0.690392 15.5968 0.926432 15.5968 1.34404C15.5968 1.65271 15.3607 1.85243 15.1065 1.99769C14.1261 2.57871 13.073 3.0871 12.0562 3.57734C12.5282 3.81337 12.8188 4.04941 12.8188 4.44887C12.8188 4.50334 12.8006 4.53965 12.8006 4.59412H14.4166C15.3244 4.59412 16.0144 4.99357 16.0144 5.97404V13.5818C16.0144 14.5622 15.3244 14.9617 14.4166 14.9617H12.8732C12.5646 14.9617 12.2559 14.8164 12.2559 14.4715C12.2559 14.1265 12.5464 13.9631 12.8551 13.9631H13.1819C13.5632 13.9631 13.6721 13.8541 13.6721 13.491V11.1124H11.8928ZM11.8928 7.33581H13.6721V6.08298C13.6721 5.71985 13.5632 5.59275 13.1819 5.59275H11.8928V7.33581ZM9.55052 7.33581V5.59275H8.29769C7.93455 5.59275 7.82561 5.71985 7.82561 6.08298V7.33581H9.55052ZM4.2124 13.727C4.35765 14.6167 4.77526 15.1614 5.61048 15.4701C6.40938 15.7424 7.26275 15.7788 8.11612 15.7788H16.5046C16.8133 15.7788 17.1219 15.924 17.1219 16.2871C17.1219 16.6321 16.8133 16.7774 16.5046 16.7774H7.5351C6.6091 16.7774 5.62863 16.7592 4.73895 16.4506C4.01267 16.1964 3.48612 15.6698 3.05036 15.0525C2.6509 15.5609 2.2333 16.0511 1.76122 16.4869C1.52518 16.7229 1.16204 16.959 0.889687 16.959C0.254196 16.959 0 16.269 0 15.7243C0 15.107 0.236039 14.8891 0.635491 14.6893C1.03494 14.4896 1.41624 14.3444 1.94279 14.072V9.38754C1.94279 9.0244 1.83384 8.91546 1.47071 8.91546H0.744432C0.435765 8.91546 0.127098 8.7702 0.127098 8.40706C0.127098 8.06208 0.435765 7.89867 0.744432 7.89867H2.61459C3.52243 7.89867 4.2124 8.31628 4.2124 9.27859V13.727ZM11.8928 10.0957H13.6721V8.33444H11.8928V10.0957ZM9.55052 10.0957V8.33444H7.82561V10.0957H9.55052Z" fill="#444444"/>
</svg>
