<svg width="295" height="23" viewBox="0 0 295 23" fill="none" xmlns="http://www.w3.org/2000/svg">
<path d="M292.027 18.0123C292.027 17.5789 292.123 17.2583 292.313 17.0503C292.504 16.8423 292.773 16.7383 293.119 16.7383C293.483 16.7383 293.761 16.8423 293.951 17.0503C294.159 17.2583 294.263 17.5789 294.263 18.0123C294.263 18.4283 294.159 18.7489 293.951 18.9743C293.761 19.1823 293.483 19.2863 293.119 19.2863C292.773 19.2863 292.504 19.1823 292.313 18.9743C292.123 18.7489 292.027 18.4283 292.027 18.0123Z" fill="#4AA9D5"/>
<path d="M285.833 19.2602C284.55 19.2602 283.467 18.9829 282.583 18.4282C281.699 17.8562 281.023 17.0415 280.555 15.9842C280.087 14.9269 279.853 13.6529 279.853 12.1622C279.853 10.6022 280.113 9.28487 280.633 8.2102C281.17 7.13554 281.907 6.32087 282.843 5.7662C283.779 5.1942 284.871 4.9082 286.119 4.9082C286.743 4.9082 287.332 4.97754 287.887 5.1162C288.459 5.23754 288.953 5.4022 289.369 5.6102L288.953 6.8582C288.519 6.66754 288.043 6.5202 287.523 6.4162C287.02 6.29487 286.543 6.2342 286.093 6.2342C285.087 6.2342 284.229 6.47687 283.519 6.9622C282.825 7.4302 282.297 8.1062 281.933 8.9902C281.569 9.8742 281.387 10.9315 281.387 12.1622C281.387 13.3062 281.543 14.3202 281.855 15.2042C282.184 16.0709 282.669 16.7469 283.311 17.2322C283.969 17.7175 284.81 17.9602 285.833 17.9602C286.474 17.9602 287.081 17.8909 287.653 17.7522C288.225 17.6135 288.736 17.4315 289.187 17.2062V18.5582C288.771 18.7489 288.285 18.9135 287.731 19.0522C287.176 19.1909 286.543 19.2602 285.833 19.2602Z" fill="#4AA9D5"/>
<path d="M271.883 4.9082C273.357 4.9082 274.483 5.31554 275.263 6.1302C276.061 6.94487 276.459 8.22754 276.459 9.9782V19.0002H275.003V10.0562C275.003 8.72154 274.717 7.7422 274.145 7.1182C273.591 6.4942 272.776 6.1822 271.701 6.1822C270.28 6.1822 269.214 6.6242 268.503 7.5082C267.81 8.3922 267.463 9.70954 267.463 11.4602V19.0002H266.007V5.1682H267.203L267.411 7.5602H267.489C267.732 7.05754 268.053 6.60687 268.451 6.2082C268.867 5.80954 269.361 5.49754 269.933 5.2722C270.523 5.02954 271.173 4.9082 271.883 4.9082Z" fill="#4AA9D5"/>
<path d="M262.655 19.0005H257.429V18.0645L259.275 17.7785V1.68452L257.429 1.37252V0.436523H262.655V1.37252L260.783 1.68452V17.7785L262.655 18.0645V19.0005Z" fill="#4AA9D5"/>
<path d="M247.976 16.2964C247.854 16.9204 247.69 17.5877 247.482 18.2984C247.291 19.009 247.074 19.711 246.832 20.4044C246.606 21.0977 246.372 21.7477 246.13 22.3544H245.012C245.202 21.5917 245.376 20.8464 245.532 20.1184C245.705 19.3904 245.852 18.6797 245.974 17.9864C246.112 17.293 246.216 16.6257 246.286 15.9844H247.846L247.976 16.2964Z" fill="#4AA9D5"/>
<path d="M238.715 10.3685L243.655 0.436523H245.293L239.495 11.8245V19.0005H237.987V11.9285L232.137 0.436523H233.801L238.715 10.3685Z" fill="#4AA9D5"/>
<path d="M226.757 1.52876C225.699 1.52876 224.746 1.72809 223.897 2.12676C223.065 2.50809 222.354 3.06276 221.765 3.79076C221.193 4.50142 220.751 5.35943 220.439 6.36476C220.144 7.35276 219.997 8.45342 219.997 9.66676C219.997 11.3308 220.239 12.7868 220.725 14.0348C221.21 15.2654 221.938 16.2188 222.909 16.8948C223.879 17.5708 225.084 17.9088 226.523 17.9088C227.372 17.9088 228.152 17.8394 228.863 17.7008C229.573 17.5448 230.241 17.3628 230.865 17.1548V18.4808C230.275 18.7234 229.617 18.9141 228.889 19.0528C228.178 19.1914 227.337 19.2608 226.367 19.2608C224.616 19.2608 223.151 18.8621 221.973 18.0648C220.794 17.2674 219.901 16.1494 219.295 14.7108C218.705 13.2721 218.411 11.5908 218.411 9.66676C218.411 8.29742 218.593 7.03209 218.957 5.87076C219.338 4.70943 219.884 3.70409 220.595 2.85476C221.305 2.00542 222.181 1.34676 223.221 0.878758C224.261 0.410758 225.448 0.176758 226.783 0.176758C227.632 0.176758 228.438 0.263425 229.201 0.436758C229.981 0.610091 230.709 0.861425 231.385 1.19076L230.787 2.51676C230.163 2.18742 229.513 1.94476 228.837 1.78876C228.178 1.61542 227.485 1.52876 226.757 1.52876Z" fill="#4AA9D5"/>
<path d="M214.447 19.0005H212.809L202.799 2.77652H202.721C202.721 3.12319 202.73 3.47852 202.747 3.84252C202.764 4.18919 202.773 4.55319 202.773 4.93452C202.79 5.31586 202.799 5.70586 202.799 6.10452C202.816 6.48586 202.825 6.87586 202.825 7.27452V19.0005H201.421V0.436523H203.059L213.043 16.6085H213.121C213.104 16.3485 213.086 16.0452 213.069 15.6985C213.069 15.3345 213.06 14.9532 213.043 14.5545C213.043 14.1559 213.034 13.7572 213.017 13.3585C213.017 12.9599 213.017 12.5785 213.017 12.2145V0.436523H214.447V19.0005Z" fill="#4AA9D5"/>
<path d="M197.507 19.0005H187.913V0.436523H197.507V1.78852H189.421V8.60052H197.065V9.92653H189.421V17.6485H197.507V19.0005Z" fill="#4AA9D5"/>
<path d="M177.235 9.56239H183.579V18.1684C182.713 18.5324 181.803 18.8097 180.849 19.0004C179.913 19.1737 178.899 19.2604 177.807 19.2604C175.953 19.2604 174.393 18.8877 173.127 18.1424C171.879 17.3797 170.926 16.2877 170.267 14.8664C169.626 13.4451 169.305 11.7377 169.305 9.74439C169.305 7.85506 169.661 6.19972 170.371 4.77839C171.082 3.33972 172.105 2.21306 173.439 1.39839C174.774 0.56639 176.377 0.150391 178.249 0.150391C179.203 0.150391 180.104 0.245724 180.953 0.43639C181.803 0.609723 182.609 0.887056 183.371 1.26839L182.799 2.59439C182.071 2.23039 181.317 1.96172 180.537 1.78839C179.775 1.59772 178.986 1.50239 178.171 1.50239C176.663 1.50239 175.363 1.84906 174.271 2.54239C173.179 3.23572 172.339 4.19772 171.749 5.42839C171.16 6.65906 170.865 8.09772 170.865 9.74439C170.865 11.5297 171.134 13.0291 171.671 14.2424C172.226 15.4557 173.032 16.3744 174.089 16.9984C175.164 17.6224 176.49 17.9344 178.067 17.9344C178.639 17.9344 179.159 17.9084 179.627 17.8564C180.113 17.7871 180.555 17.7004 180.953 17.5964C181.369 17.4924 181.751 17.3797 182.097 17.2584V10.9144H177.235V9.56239Z" fill="#4AA9D5"/>
<path d="M166.714 19.0008L164.426 12.6048H157.198L154.91 19.0008H153.35L160.188 0.384766H161.592L168.274 19.0008H166.714ZM161.67 4.54476C161.618 4.37143 161.54 4.13743 161.436 3.84277C161.332 3.5481 161.228 3.2361 161.124 2.90676C161.037 2.57743 160.95 2.28277 160.864 2.02276C160.777 2.31743 160.682 2.62076 160.578 2.93277C160.491 3.24477 160.396 3.53943 160.292 3.81676C160.205 4.0941 160.127 4.34543 160.058 4.57077L157.692 11.2528H163.958L161.67 4.54476Z" fill="#4AA9D5"/>
<path d="M136.802 19.0005V0.436523H138.31V17.6485H146.448V19.0005H136.802Z" fill="#4AA9D5"/>
<path d="M132.792 19.0008L130.504 12.6048H123.276L120.988 19.0008H119.428L126.266 0.384766H127.67L134.352 19.0008H132.792ZM127.748 4.54476C127.696 4.37143 127.618 4.13743 127.514 3.84277C127.41 3.5481 127.306 3.2361 127.202 2.90676C127.115 2.57743 127.028 2.28277 126.942 2.02276C126.855 2.31743 126.76 2.62076 126.656 2.93277C126.569 3.24477 126.474 3.53943 126.37 3.81676C126.283 4.0941 126.205 4.34543 126.136 4.57077L123.77 11.2528H130.036L127.748 4.54476Z" fill="#4AA9D5"/>
<path d="M118.208 19.0005H112.982V18.0645L114.828 17.7785V1.68452L112.982 1.37252V0.436523H118.208V1.37252L116.336 1.68452V17.7785L118.208 18.0645V19.0005Z" fill="#4AA9D5"/>
<path d="M106.38 1.52876C105.322 1.52876 104.369 1.72809 103.52 2.12676C102.688 2.50809 101.977 3.06276 101.388 3.79076C100.816 4.50142 100.374 5.35943 100.062 6.36476C99.767 7.35276 99.6197 8.45342 99.6197 9.66676C99.6197 11.3308 99.8624 12.7868 100.348 14.0348C100.833 15.2654 101.561 16.2188 102.532 16.8948C103.502 17.5708 104.707 17.9088 106.146 17.9088C106.995 17.9088 107.775 17.8394 108.486 17.7008C109.196 17.5448 109.864 17.3628 110.488 17.1548V18.4808C109.898 18.7234 109.24 18.9141 108.512 19.0528C107.801 19.1914 106.96 19.2608 105.99 19.2608C104.239 19.2608 102.774 18.8621 101.596 18.0648C100.417 17.2674 99.5244 16.1494 98.9177 14.7108C98.3284 13.2721 98.0337 11.5908 98.0337 9.66676C98.0337 8.29742 98.2157 7.03209 98.5797 5.87076C98.961 4.70943 99.507 3.70409 100.218 2.85476C100.928 2.00542 101.804 1.34676 102.844 0.878758C103.884 0.410758 105.071 0.176758 106.406 0.176758C107.255 0.176758 108.061 0.263425 108.824 0.436758C109.604 0.610091 110.332 0.861425 111.008 1.19076L110.41 2.51676C109.786 2.18742 109.136 1.94476 108.46 1.78876C107.801 1.61542 107.108 1.52876 106.38 1.52876Z" fill="#4AA9D5"/>
<path d="M94.0699 19.0005H92.4319L82.4219 2.77652H82.3439C82.3439 3.12319 82.3526 3.47852 82.3699 3.84252C82.3873 4.18919 82.3959 4.55319 82.3959 4.93452C82.4133 5.31586 82.4219 5.70586 82.4219 6.10452C82.4393 6.48586 82.4479 6.87586 82.4479 7.27452V19.0005H81.0439V0.436523H82.6819L92.6659 16.6085H92.7439C92.7266 16.3485 92.7093 16.0452 92.6919 15.6985C92.6919 15.3345 92.6833 14.9532 92.6659 14.5545C92.6659 14.1559 92.6573 13.7572 92.6399 13.3585C92.6399 12.9599 92.6399 12.5785 92.6399 12.2145V0.436523H94.0699V19.0005Z" fill="#4AA9D5"/>
<path d="M77.0339 19.0008L74.7459 12.6048H67.5179L65.2299 19.0008H63.6699L70.5079 0.384766H71.9119L78.5939 19.0008H77.0339ZM71.9899 4.54476C71.9379 4.37143 71.8599 4.13743 71.7559 3.84277C71.6519 3.5481 71.5479 3.2361 71.4439 2.90676C71.3573 2.57743 71.2706 2.28277 71.1839 2.02276C71.0973 2.31743 71.0019 2.62076 70.8979 2.93277C70.8113 3.24477 70.7159 3.53943 70.6119 3.81676C70.5253 4.0941 70.4473 4.34543 70.3779 4.57077L68.0119 11.2528H74.2779L71.9899 4.54476Z" fill="#4AA9D5"/>
<path d="M61.2145 19.0005H59.5765L49.5665 2.77652H49.4885C49.4885 3.12319 49.4971 3.47852 49.5145 3.84252C49.5318 4.18919 49.5405 4.55319 49.5405 4.93452C49.5578 5.31586 49.5665 5.70586 49.5665 6.10452C49.5838 6.48586 49.5925 6.87586 49.5925 7.27452V19.0005H48.1885V0.436523H49.8265L59.8105 16.6085H59.8885C59.8711 16.3485 59.8538 16.0452 59.8365 15.6985C59.8365 15.3345 59.8278 14.9532 59.8105 14.5545C59.8105 14.1559 59.8018 13.7572 59.7845 13.3585C59.7845 12.9599 59.7845 12.5785 59.7845 12.2145V0.436523H61.2145V19.0005Z" fill="#4AA9D5"/>
<path d="M44.5243 19.0005H39.2983V18.0645L41.1443 17.7785V1.68452L39.2983 1.37252V0.436523H44.5243V1.37252L42.6523 1.68452V17.7785L44.5243 18.0645V19.0005Z" fill="#4AA9D5"/>
<path d="M29.6379 19.0005H28.1299V0.436523H37.7239V1.78852H29.6379V9.43252H37.2819V10.7845H29.6379V19.0005Z" fill="#4AA9D5"/>
<path d="M9.71217 5.19415C8.56817 5.19415 7.65817 5.60148 6.98217 6.41615C6.30617 7.21348 5.96817 8.32282 5.96817 9.74415C5.96817 10.7148 6.10683 11.5382 6.38417 12.2142C6.67884 12.8902 7.1035 13.4015 7.65817 13.7481C8.21283 14.0775 8.8715 14.2422 9.63417 14.2422C10.1022 14.2422 10.5528 14.1988 10.9862 14.1121C11.4368 14.0081 11.8875 13.8695 12.3382 13.6961V14.8141C11.9222 14.9875 11.4975 15.1348 11.0642 15.2562C10.6482 15.3602 10.1542 15.4121 9.58217 15.4121C8.02217 15.4121 6.80883 14.9181 5.94217 13.9302C5.09283 12.9422 4.66817 11.5468 4.66817 9.74415C4.66817 8.60015 4.8675 7.60348 5.26617 6.75415C5.68217 5.88748 6.26283 5.22015 7.00817 4.75215C7.77083 4.26682 8.6635 4.02415 9.68617 4.02415C10.2928 4.02415 10.8388 4.09348 11.3242 4.23215C11.8268 4.35348 12.2948 4.52682 12.7282 4.75215L12.2342 5.84415C11.8355 5.63615 11.4282 5.48015 11.0122 5.37615C10.6135 5.25482 10.1802 5.19415 9.71217 5.19415ZM0.222168 9.71815C0.222168 8.38348 0.447501 7.14415 0.898168 6.00015C1.36617 4.83882 2.01617 3.82482 2.84817 2.95815C3.68017 2.09148 4.6335 1.41548 5.70817 0.930148C6.78283 0.444815 7.9355 0.202148 9.16617 0.202148C10.4488 0.202148 11.6275 0.462149 12.7022 0.982149C13.7942 1.48482 14.7475 2.17815 15.5622 3.06215C16.3768 3.94615 17.0008 4.96015 17.4342 6.10415C17.8848 7.24815 18.1102 8.45282 18.1102 9.71815C18.1102 11.0181 17.8762 12.2488 17.4082 13.4101C16.9575 14.5541 16.3162 15.5681 15.4842 16.4521C14.6695 17.3188 13.7162 18.0035 12.6242 18.5061C11.5495 18.9915 10.3968 19.2341 9.16617 19.2341C7.8835 19.2341 6.69617 18.9915 5.60417 18.5061C4.5295 18.0035 3.58483 17.3188 2.77017 16.4521C1.9555 15.5681 1.32283 14.5541 0.872168 13.4101C0.438835 12.2488 0.222168 11.0181 0.222168 9.71815ZM1.18417 9.71815C1.18417 10.8795 1.3835 11.9801 1.78217 13.0202C2.18083 14.0428 2.7355 14.9441 3.44617 15.7241C4.17417 16.5041 5.0235 17.1195 5.99417 17.5701C6.96483 18.0035 8.02217 18.2201 9.16617 18.2201C10.2928 18.2201 11.3415 17.9948 12.3122 17.5442C13.2828 17.0935 14.1235 16.4781 14.8342 15.6981C15.5622 14.9181 16.1255 14.0168 16.5242 12.9941C16.9402 11.9715 17.1482 10.8795 17.1482 9.71815C17.1482 8.55681 16.9402 7.46482 16.5242 6.44215C16.1255 5.41948 15.5622 4.51815 14.8342 3.73815C14.1235 2.94082 13.2828 2.32548 12.3122 1.89215C11.3415 1.44148 10.2928 1.21615 9.16617 1.21615C8.05683 1.21615 7.01683 1.44148 6.04617 1.89215C5.0755 2.32548 4.22617 2.93215 3.49817 3.71215C2.7875 4.47482 2.22417 5.37615 1.80817 6.41615C1.39217 7.43882 1.18417 8.53948 1.18417 9.71815Z" fill="#4AA9D5"/>
</svg>
