<svg width="415" height="87" viewBox="0 0 415 87" fill="none" xmlns="http://www.w3.org/2000/svg">
<path d="M414.117 10.3457L401.769 40.5185C401.23 41.8655 400.422 42.6737 398.895 42.6737C396.965 42.6737 394.899 41.2818 394.899 39.2164C394.899 38.8123 395.079 38.3633 395.303 37.8245L406.708 10.7498C406.798 10.5253 406.843 10.3008 406.843 10.0763C406.843 9.44767 406.259 9.17827 405.675 9.17827H388.164C387.356 9.17827 386.683 8.54967 386.683 7.74147C386.683 6.88837 387.356 6.25977 388.164 6.25977H411.692C413.219 6.25977 414.476 7.24757 414.476 8.81907C414.476 9.35787 414.341 9.85177 414.117 10.3457Z" fill="#4AA9D5"/>
<path d="M371.946 22.6479C374.146 23.0071 376.436 23.501 378.232 24.9378C380.387 26.6889 381.375 29.3829 381.375 32.1218C381.375 40.4732 374.146 42.6733 367.097 42.6733C363.594 42.6733 360.227 41.9998 357.353 39.8446C355.378 38.3629 352.818 35.5342 352.818 32.8851C352.818 31.0442 354.659 29.9666 356.321 29.9666C357.174 29.9666 358.117 30.1462 358.79 30.7299C359.733 31.5381 359.868 32.6157 360.047 33.7831C360.586 37.5098 363.145 39.7099 366.872 39.7099C371.946 39.7099 374.146 36.522 374.146 31.7626C374.146 27.3175 372.485 24.2194 367.635 24.2194H363.19C362.382 24.2194 361.709 23.5908 361.709 22.7826C361.709 21.9744 362.382 21.3458 363.19 21.3458H367.635C371.676 21.3458 373.113 18.9661 373.113 15.1496C373.113 11.1535 371.587 8.63914 367.321 8.63914C365.974 8.63914 364.537 8.90854 363.46 9.71674C362.247 10.6596 361.798 12.0515 361.439 13.4883C361.035 15.1047 359.508 15.9578 357.937 15.9578C356.321 15.9578 354.435 14.8802 354.435 13.0842C354.435 11.1086 356.321 9.35754 357.847 8.36974C360.855 6.43904 364.447 5.58594 367.995 5.58594C373.697 5.58594 380.342 7.87584 380.342 14.6557C380.342 16.9456 379.489 19.2355 377.603 20.5825C376.032 21.705 373.921 22.2438 371.946 22.6479Z" fill="#4AA9D5"/>
<path d="M333.861 5.58594C344.009 5.58594 348.229 15.3292 348.229 24.1296C348.229 32.8851 343.964 42.6733 333.861 42.6733C323.714 42.6733 319.538 32.93 319.538 24.1296C319.538 15.3741 323.804 5.58594 333.861 5.58594ZM333.861 8.59424C331.167 8.59424 329.281 9.98614 328.383 12.5454C327.081 16.2272 326.902 20.2682 326.902 24.1296C326.902 27.9012 327.081 32.2116 328.383 35.7138C329.326 38.2731 331.167 39.665 333.861 39.665C336.555 39.665 338.486 38.2731 339.384 35.7138C340.686 32.032 340.866 27.991 340.866 24.1296C340.866 20.358 340.641 16.1374 339.384 12.5454C338.486 9.98614 336.6 8.59424 333.861 8.59424Z" fill="#4AA9D5"/>
<path d="M305.28 27.1377H313.451C314.798 27.1377 315.786 28.3051 315.786 29.6072C315.786 30.9093 314.798 32.1216 313.451 32.1216H305.28C303.933 32.1216 302.99 30.9093 302.99 29.6072C302.99 28.3051 303.933 27.1826 305.28 27.1377Z" fill="#4AA9D5"/>
<path d="M298.49 10.3457L286.143 40.5185C285.604 41.8655 284.796 42.6737 283.269 42.6737C281.338 42.6737 279.273 41.2818 279.273 39.2164C279.273 38.8123 279.452 38.3633 279.677 37.8245L291.082 10.7498C291.171 10.5253 291.216 10.3008 291.216 10.0763C291.216 9.44767 290.633 9.17827 290.049 9.17827H272.538C271.73 9.17827 271.056 8.54967 271.056 7.74147C271.056 6.88837 271.73 6.25977 272.538 6.25977H296.065C297.592 6.25977 298.849 7.24757 298.849 8.81907C298.849 9.35787 298.715 9.85177 298.49 10.3457Z" fill="#4AA9D5"/>
<path d="M251.515 5.58594C261.663 5.58594 265.883 15.3292 265.883 24.1296C265.883 32.8851 261.618 42.6733 251.515 42.6733C241.368 42.6733 237.192 32.93 237.192 24.1296C237.192 15.3741 241.458 5.58594 251.515 5.58594ZM251.515 8.59424C248.821 8.59424 246.936 9.98614 246.038 12.5454C244.736 16.2272 244.556 20.2682 244.556 24.1296C244.556 27.9012 244.736 32.2116 246.038 35.7138C246.981 38.2731 248.821 39.665 251.515 39.665C254.209 39.665 256.14 38.2731 257.038 35.7138C258.34 32.032 258.52 27.991 258.52 24.1296C258.52 20.358 258.295 16.1374 257.038 12.5454C256.14 9.98614 254.254 8.59424 251.515 8.59424Z" fill="#4AA9D5"/>
<path d="M225.06 26.2399C222.545 28.6645 219.986 30.0115 216.439 30.0115C209.255 30.0115 204.091 25.746 204.091 18.3375C204.091 10.1657 209.659 5.58594 217.606 5.58594C228.921 5.58594 232.423 14.5659 232.423 24.4439C232.423 34.5015 228.023 42.6733 216.888 42.6733C213.341 42.6733 209.839 41.6406 207.234 39.1711C206.202 38.1833 204.989 36.7914 204.989 35.2648C204.989 33.4688 206.785 32.481 208.402 32.481C209.39 32.481 210.557 32.7953 211.186 33.6035C211.5 34.0076 211.814 34.8607 211.994 35.5342C212.712 38.318 214.912 39.7548 217.696 39.7548C221.198 39.7548 223.084 37.6894 224.027 34.4566C224.79 31.8075 224.97 29.0237 225.06 26.2399ZM225.149 22.4234C225.105 19.909 224.88 17.3497 224.476 14.8802C223.892 11.2882 221.962 8.54934 218.055 8.54934C212.622 8.54934 211.32 13.6679 211.32 18.113C211.32 22.3336 212.847 26.9583 217.876 26.9583C221.153 26.9583 223.309 24.9378 225.149 22.4234Z" fill="#4AA9D5"/>
<path d="M189.653 27.1377H197.825C199.172 27.1377 200.16 28.3051 200.16 29.6072C200.16 30.9093 199.172 32.1216 197.825 32.1216H189.653C188.306 32.1216 187.363 30.9093 187.363 29.6072C187.363 28.3051 188.306 27.1826 189.653 27.1377Z" fill="#4AA9D5"/>
<path d="M169.169 5.58594C179.317 5.58594 183.537 15.3292 183.537 24.1296C183.537 32.8851 179.272 42.6733 169.169 42.6733C159.022 42.6733 154.846 32.93 154.846 24.1296C154.846 15.3741 159.112 5.58594 169.169 5.58594ZM169.169 8.59424C166.475 8.59424 164.589 9.98614 163.691 12.5454C162.389 16.2272 162.21 20.2682 162.21 24.1296C162.21 27.9012 162.389 32.2116 163.691 35.7138C164.634 38.2731 166.475 39.665 169.169 39.665C171.863 39.665 173.794 38.2731 174.692 35.7138C175.994 32.032 176.174 27.991 176.174 24.1296C176.174 20.358 175.949 16.1374 174.692 12.5454C173.794 9.98614 171.908 8.59424 169.169 8.59424Z" fill="#4AA9D5"/>
<path d="M131.13 39.1262H148.551C149.359 39.1262 150.033 39.7548 150.033 40.563C150.033 41.3712 149.359 41.9998 148.551 41.9998H124.44C123.093 41.9998 121.746 41.2365 121.746 39.7548C121.746 37.5996 123.542 34.277 124.844 32.6157C127.807 28.8441 131.938 26.2399 136.069 23.9051C139.526 21.9295 142.669 19.9539 142.669 15.5088C142.669 11.4229 140.379 8.50444 136.159 8.50444C134.497 8.50444 132.791 8.86364 131.534 10.031C130.232 11.1984 129.379 13.0842 129.379 14.8353C129.379 15.3741 129.424 15.7333 129.468 16.0925C129.513 16.4068 129.558 16.766 129.558 16.9905C129.558 19.1457 127.672 20.2682 125.697 20.2682C123.856 20.2682 121.97 19.2355 121.97 17.215C121.97 14.9251 123.048 12.5005 124.395 10.7045C127.313 6.84314 132.118 5.58594 136.742 5.58594C143.522 5.58594 149.898 8.45954 149.898 16.1374C149.898 22.9622 144.42 26.1052 137.999 29.6972C135.216 31.2687 129.873 34.6811 129.873 38.0935C129.873 38.8119 130.456 39.1262 131.13 39.1262Z" fill="#4AA9D5"/>
<path d="M106.47 9.35754V39.3058C106.47 41.5059 104.944 42.6733 102.968 42.6733C101.127 42.6733 99.5108 41.6855 99.5108 39.3058V12.7699C99.5108 12.5005 99.4659 12.1413 99.1516 12.1413C99.0169 12.1413 98.6577 12.1862 98.1638 12.3658C96.8617 12.8148 94.1677 13.2189 93.0452 13.2189C92.1921 13.2189 91.5186 12.5005 91.5186 11.6474C91.5186 10.5698 92.4166 10.2106 93.3146 10.031C95.4249 9.62694 97.4005 8.50444 99.0169 7.06764C100.139 6.07984 101.037 5.58594 102.564 5.58594C105.078 5.58594 106.47 6.75334 106.47 9.35754Z" fill="#4AA9D5"/>
<path d="M69.3285 5.58594C79.4759 5.58594 83.6965 15.3292 83.6965 24.1296C83.6965 32.8851 79.431 42.6733 69.3285 42.6733C59.1811 42.6733 55.0054 32.93 55.0054 24.1296C55.0054 15.3741 59.2709 5.58594 69.3285 5.58594ZM69.3285 8.59424C66.6345 8.59424 64.7487 9.98614 63.8507 12.5454C62.5486 16.2272 62.369 20.2682 62.369 24.1296C62.369 27.9012 62.5486 32.2116 63.8507 35.7138C64.7936 38.2731 66.6345 39.665 69.3285 39.665C72.0225 39.665 73.9532 38.2731 74.8512 35.7138C76.1533 32.032 76.3329 27.991 76.3329 24.1296C76.3329 20.358 76.1084 16.1374 74.8512 12.5454C73.9532 9.98614 72.0674 8.59424 69.3285 8.59424Z" fill="#4AA9D5"/>
<path d="M369.043 59.2383C375.69 59.2383 377.966 66.0981 377.966 71.6528C377.966 77.2075 375.66 84.0674 369.043 84.0674C362.395 84.0674 360.119 77.2075 360.119 71.6528C360.119 66.0981 362.395 59.2383 369.043 59.2383ZM369.043 60.8774C367.13 60.8774 365.764 61.9397 365.097 63.7002C364.125 66.2196 364.004 68.9817 364.004 71.6528C364.004 74.2936 364.125 77.0861 365.097 79.6054C365.764 81.3659 367.13 82.4283 369.043 82.4283C370.955 82.4283 372.321 81.3659 372.988 79.6054C373.929 77.0861 374.081 74.2936 374.081 71.6528C374.081 68.9817 373.96 66.2196 372.988 63.7002C372.321 61.9094 370.955 60.8774 369.043 60.8774Z" fill="#4AA9D5"/>
<path d="M346.153 59.2383C352.801 59.2383 355.077 66.0981 355.077 71.6528C355.077 77.2075 352.77 84.0674 346.153 84.0674C339.506 84.0674 337.229 77.2075 337.229 71.6528C337.229 66.0981 339.506 59.2383 346.153 59.2383ZM346.153 60.8774C344.241 60.8774 342.875 61.9397 342.207 63.7002C341.236 66.2196 341.115 68.9817 341.115 71.6528C341.115 74.2936 341.236 77.0861 342.207 79.6054C342.875 81.3659 344.241 82.4283 346.153 82.4283C348.066 82.4283 349.432 81.3659 350.099 79.6054C351.04 77.0861 351.192 74.2936 351.192 71.6528C351.192 68.9817 351.071 66.2196 350.099 63.7002C349.432 61.9094 348.066 60.8774 346.153 60.8774Z" fill="#4AA9D5"/>
<path d="M329.462 66.584C330.707 66.584 331.739 67.616 331.739 68.8605C331.739 70.105 330.707 71.137 329.462 71.137C328.218 71.137 327.186 70.105 327.186 68.8605C327.186 67.616 328.218 66.584 329.462 66.584ZM329.462 79.4842C330.707 79.4842 331.739 80.5465 331.739 81.791C331.739 83.0355 330.707 84.0675 329.462 84.0675C328.218 84.0675 327.186 83.0355 327.186 81.791C327.186 80.5465 328.218 79.4842 329.462 79.4842Z" fill="#4AA9D5"/>
<path d="M317.742 72.3206C316.073 74.2632 314.373 75.3559 311.732 75.3559C307.028 75.3559 303.932 72.2902 303.932 67.5551C303.932 62.395 307.331 59.2383 312.431 59.2383C319.746 59.2383 321.597 65.825 321.597 71.8956C321.597 78.2699 319.108 84.0674 311.854 84.0674C309.547 84.0674 307.301 83.3389 305.662 81.6391C305.115 81.032 304.448 80.2428 304.448 79.3626C304.448 78.3913 305.358 77.7539 306.269 77.7539C307.665 77.7539 307.969 78.6037 308.272 79.7572C308.485 80.4553 308.94 81.1231 309.486 81.5784C310.245 82.2462 311.277 82.4283 312.218 82.4283C317.226 82.4283 317.621 76.904 317.742 72.3206ZM317.742 70.0137C317.712 68.3443 317.5 66.6445 317.135 64.9751C316.589 62.6682 315.071 60.8774 312.552 60.8774C308.758 60.8774 307.756 64.3073 307.756 67.4641C307.756 70.469 308.819 73.6865 312.37 73.6865C314.92 73.6865 316.437 71.9564 317.742 70.0137Z" fill="#4AA9D5"/>
<path d="M292.091 61.5148V82.2765C292.091 83.3389 291.362 84.0674 290.3 84.0674C289.177 84.0674 288.479 83.3692 288.479 82.2765V63.336C288.479 63.1539 288.448 62.8807 288.236 62.8807C288.115 62.8807 287.781 62.9717 287.568 63.0325C286.142 63.427 285.049 63.5485 284.563 63.5485C284.108 63.5485 283.744 63.1539 283.744 62.6986C283.744 62.1826 284.047 62.0308 284.745 61.8487C286.081 61.4844 287.204 60.9077 288.175 60.0578C288.722 59.5418 289.238 59.2383 290.027 59.2383C291.514 59.2383 292.091 59.8757 292.091 61.5148Z" fill="#4AA9D5"/>
<path d="M269.46 73.9902H275.228C275.956 73.9902 276.502 74.5973 276.502 75.3258C276.502 76.0239 275.956 76.631 275.228 76.631H269.46C268.732 76.631 268.186 76.0239 268.186 75.3258C268.186 74.5973 268.732 74.0206 269.46 73.9902Z" fill="#4AA9D5"/>
<path d="M254.796 59.2383C261.444 59.2383 263.72 66.0981 263.72 71.6528C263.72 77.2075 261.414 84.0674 254.796 84.0674C248.149 84.0674 245.873 77.2075 245.873 71.6528C245.873 66.0981 248.149 59.2383 254.796 59.2383ZM254.796 60.8774C252.884 60.8774 251.518 61.9397 250.851 63.7002C249.879 66.2196 249.758 68.9817 249.758 71.6528C249.758 74.2936 249.879 77.0861 250.851 79.6054C251.518 81.3659 252.884 82.4283 254.796 82.4283C256.709 82.4283 258.075 81.3659 258.742 79.6054C259.683 77.0861 259.835 74.2936 259.835 71.6528C259.835 68.9817 259.714 66.2196 258.742 63.7002C258.075 61.9094 256.709 60.8774 254.796 60.8774Z" fill="#4AA9D5"/>
<path d="M231.907 59.2383C238.554 59.2383 240.831 66.0981 240.831 71.6528C240.831 77.2075 238.524 84.0674 231.907 84.0674C225.259 84.0674 222.983 77.2075 222.983 71.6528C222.983 66.0981 225.259 59.2383 231.907 59.2383ZM231.907 60.8774C229.995 60.8774 228.629 61.9397 227.961 63.7002C226.99 66.2196 226.868 68.9817 226.868 71.6528C226.868 74.2936 226.99 77.0861 227.961 79.6054C228.629 81.3659 229.995 82.4283 231.907 82.4283C233.819 82.4283 235.185 81.3659 235.853 79.6054C236.794 77.0861 236.945 74.2936 236.945 71.6528C236.945 68.9817 236.824 66.2196 235.853 63.7002C235.185 61.9094 233.819 60.8774 231.907 60.8774Z" fill="#4AA9D5"/>
<path d="M215.216 66.584C216.46 66.584 217.492 67.616 217.492 68.8605C217.492 70.105 216.46 71.137 215.216 71.137C213.971 71.137 212.939 70.105 212.939 68.8605C212.939 67.616 213.971 66.584 215.216 66.584ZM215.216 79.4842C216.46 79.4842 217.492 80.5465 217.492 81.791C217.492 83.0355 216.46 84.0675 215.216 84.0675C213.971 84.0675 212.939 83.0355 212.939 81.791C212.939 80.5465 213.971 79.4842 215.216 79.4842Z" fill="#4AA9D5"/>
<path d="M198.518 59.2383C205.166 59.2383 207.442 66.0981 207.442 71.6528C207.442 77.2075 205.135 84.0674 198.518 84.0674C191.871 84.0674 189.594 77.2075 189.594 71.6528C189.594 66.0981 191.871 59.2383 198.518 59.2383ZM198.518 60.8774C196.606 60.8774 195.24 61.9397 194.572 63.7002C193.601 66.2196 193.479 68.9817 193.479 71.6528C193.479 74.2936 193.601 77.0861 194.572 79.6054C195.24 81.3659 196.606 82.4283 198.518 82.4283C200.43 82.4283 201.796 81.3659 202.464 79.6054C203.405 77.0861 203.557 74.2936 203.557 71.6528C203.557 68.9817 203.435 66.2196 202.464 63.7002C201.796 61.9094 200.43 60.8774 198.518 60.8774Z" fill="#4AA9D5"/>
<path d="M177.845 61.5148V82.2765C177.845 83.3389 177.116 84.0674 176.054 84.0674C174.931 84.0674 174.233 83.3692 174.233 82.2765V63.336C174.233 63.1539 174.202 62.8807 173.99 62.8807C173.868 62.8807 173.535 62.9717 173.322 63.0325C171.895 63.427 170.803 63.5485 170.317 63.5485C169.862 63.5485 169.498 63.1539 169.498 62.6986C169.498 62.1826 169.801 62.0308 170.499 61.8487C171.835 61.4844 172.958 60.9077 173.929 60.0578C174.476 59.5418 174.992 59.2383 175.781 59.2383C177.268 59.2383 177.845 59.8757 177.845 61.5148Z" fill="#4AA9D5"/>
<path d="M133.799 59.6631H146.365C148.915 59.6631 150.19 60.3916 150.19 63.093V81.8211C150.19 84.4922 148.915 85.251 146.365 85.251H133.799C131.249 85.251 129.975 84.4922 129.975 81.8211V63.093C129.975 60.3005 131.28 59.7238 133.799 59.6631ZM146.821 71.5009V62.6377C146.821 61.5146 146.365 61.029 145.242 61.029H134.892C133.738 61.029 133.313 61.5146 133.313 62.6377V71.5009H146.821ZM146.821 72.8972H133.313V82.246C133.313 83.3691 133.738 83.8547 134.892 83.8547H145.242C146.365 83.8547 146.821 83.3691 146.821 82.246V72.8972Z" fill="#4AA9D5"/>
<path d="M111.399 61.0291V73.4436H122.842C123.267 73.4436 123.692 73.6257 123.692 74.1417C123.692 74.6274 123.267 74.8095 122.842 74.8095H111.399V83.9459C111.399 85.0993 111.034 86.0706 109.699 86.0706C108.394 86.0706 107.999 85.1297 107.999 83.9762V74.8095H96.5861C96.1612 74.8095 95.7666 74.6274 95.7666 74.1417C95.7666 73.6257 96.1612 73.4436 96.5861 73.4436H107.999V61.0291H97.8913C97.4664 61.0291 97.0718 60.8166 97.0718 60.3309C97.0718 59.8149 97.4664 59.6328 97.8913 59.6328H121.597C122.022 59.6328 122.447 59.8149 122.447 60.3309C122.447 60.8166 122.053 61.0291 121.597 61.0291H111.399ZM99.6215 63.0324C100.32 63.0324 102.505 65.6124 102.991 66.2195C103.689 67.039 105.115 68.7692 105.115 69.8316C105.115 70.8636 104.205 71.6831 103.173 71.6831C102.141 71.6831 101.746 71.0457 101.503 70.1351C100.957 68.1318 100.259 66.1588 99.1965 64.3679C98.9841 64.0037 98.9234 63.8823 98.9234 63.7002C98.9234 63.3359 99.2572 63.0324 99.6215 63.0324ZM119.017 63.2145C119.958 63.2145 121.051 63.9126 121.051 64.9447C121.051 66.1588 118.805 68.4353 116.771 70.2565C116.012 70.9546 115.041 71.7742 114.616 71.7742C114.252 71.7742 113.948 71.4706 113.948 71.1064C113.948 70.8939 114.039 70.7422 114.191 70.5297C115.253 69.1638 116.073 67.6461 116.68 66.1284C117.044 65.2178 117.439 64.2162 117.803 63.7305C118.076 63.3966 118.592 63.2145 119.017 63.2145Z" fill="#4AA9D5"/>
<g clip-path="url(#clip0_2005_236)">
<path d="M9.42521 3.06408C5.92799 5.33221 5.24097 12.422 6.56132 18.2004C7.58962 22.7002 9.77583 28.7365 13.4623 34.4205C16.9303 39.7678 21.7687 44.5625 25.458 47.3366C30.1955 50.8987 36.9491 53.1628 40.4464 50.8947C42.2147 49.7478 44.842 46.6143 44.9619 46.052C44.9619 46.052 43.4213 43.6766 43.0832 43.1552L37.9167 35.1891C37.5328 34.5971 35.1251 35.1382 33.9019 35.831C32.252 36.7658 30.7325 39.2741 30.7325 39.2741C29.6013 39.9277 28.6537 39.2765 26.6739 38.3653C24.2406 37.2457 21.5049 33.7672 19.3275 30.6166C17.3388 27.3438 15.2783 23.4271 15.2485 20.7488C15.224 18.5696 15.0158 17.4389 16.074 16.6725C16.074 16.6725 18.9839 16.308 20.5104 15.1829C21.6417 14.3487 23.1177 12.371 22.7338 11.7789L17.5673 3.81284C17.2292 3.29153 15.6885 0.916042 15.6885 0.916042C15.1261 0.796254 11.1936 1.9172 9.42521 3.06408Z" fill="#4AA9D5"/>
</g>
<defs>
<clipPath id="clip0_2005_236">
<rect width="50.8977" height="50.8977" fill="white" transform="translate(0 0.90625)"/>
</clipPath>
</defs>
</svg>
