<svg width="568" height="30" viewBox="0 0 568 30" fill="none" xmlns="http://www.w3.org/2000/svg">
<path d="M557.99 0.368164L560.594 0.844164C559.772 2.2815 558.708 3.6535 557.402 4.96017C556.095 6.26683 554.48 7.44283 552.558 8.48816C552.446 8.3015 552.287 8.09616 552.082 7.87216C551.895 7.6295 551.69 7.4055 551.466 7.20016C551.26 6.97616 551.064 6.79883 550.878 6.66816C552.651 5.82816 554.126 4.83883 555.302 3.70016C556.478 2.5615 557.374 1.45083 557.99 0.368164ZM557.654 2.80416H564.262V4.96017H556.114L557.654 2.80416ZM563.31 2.80416H563.786L564.262 2.69216L565.942 3.47616C565.382 4.95083 564.654 6.27616 563.758 7.45216C562.88 8.6095 561.872 9.62683 560.734 10.5042C559.595 11.3815 558.363 12.1375 557.038 12.7722C555.712 13.4068 554.331 13.9295 552.894 14.3402C552.763 14.0228 552.558 13.6588 552.278 13.2482C552.016 12.8188 551.764 12.4828 551.522 12.2402C552.828 11.9228 554.088 11.4935 555.302 10.9522C556.534 10.4108 557.673 9.76683 558.718 9.02016C559.763 8.25483 560.678 7.38683 561.462 6.41616C562.264 5.4455 562.88 4.3815 563.31 3.22416V2.80416ZM554.602 6.97616L556.254 5.63216C556.739 5.91216 557.225 6.2295 557.71 6.58416C558.214 6.93883 558.68 7.30283 559.11 7.67616C559.558 8.0495 559.922 8.39483 560.202 8.71216L558.466 10.1682C558.204 9.85083 557.859 9.5055 557.43 9.13216C557 8.75883 556.534 8.3855 556.03 8.01216C555.544 7.62016 555.068 7.27483 554.602 6.97616ZM559.446 11.0642L562.05 11.5402C561.154 13.1082 559.978 14.6108 558.522 16.0482C557.084 17.4855 555.292 18.7642 553.146 19.8842C553.034 19.6975 552.884 19.4922 552.698 19.2682C552.511 19.0255 552.306 18.7922 552.082 18.5682C551.876 18.3442 551.681 18.1762 551.494 18.0642C552.819 17.4295 553.995 16.7295 555.022 15.9642C556.048 15.1802 556.926 14.3682 557.654 13.5282C558.4 12.6882 558.998 11.8668 559.446 11.0642ZM559.054 13.6402H565.438V15.8522H557.486L559.054 13.6402ZM564.598 13.6402H565.13L565.606 13.5282L567.286 14.2562C566.726 16.0482 565.951 17.6162 564.962 18.9602C563.972 20.3042 562.824 21.4615 561.518 22.4322C560.211 23.4028 558.774 24.2055 557.206 24.8402C555.656 25.4935 554.014 26.0162 552.278 26.4082C552.147 26.0722 551.951 25.6802 551.69 25.2322C551.447 24.7842 551.195 24.4202 550.934 24.1402C552.539 23.8602 554.06 23.4495 555.498 22.9082C556.935 22.3482 558.251 21.6575 559.446 20.8362C560.64 19.9962 561.676 19.0162 562.554 17.8962C563.45 16.7762 564.131 15.4882 564.598 14.0322V13.6402ZM555.274 18.2602L557.066 16.7762C557.607 17.0748 558.167 17.4202 558.746 17.8122C559.324 18.2042 559.866 18.6055 560.37 19.0162C560.874 19.4268 561.284 19.8188 561.602 20.1922L559.698 21.8162C559.399 21.4428 559.007 21.0508 558.522 20.6402C558.036 20.2108 557.504 19.7908 556.926 19.3802C556.366 18.9508 555.815 18.5775 555.274 18.2602ZM545.866 2.80416H548.442V26.3242H545.866V2.80416ZM541.526 8.23616H551.746V10.7282H541.526V8.23616ZM546.006 9.21616L547.602 9.91616C547.322 10.9055 546.986 11.9415 546.594 13.0242C546.202 14.0882 545.772 15.1428 545.306 16.1882C544.858 17.2335 544.372 18.2135 543.85 19.1282C543.327 20.0428 542.795 20.8268 542.254 21.4802C542.123 21.1068 541.927 20.6868 541.666 20.2202C541.404 19.7348 541.171 19.3335 540.966 19.0162C541.47 18.4562 541.964 17.7935 542.45 17.0282C542.935 16.2442 543.402 15.4135 543.85 14.5362C544.316 13.6402 544.727 12.7348 545.082 11.8202C545.455 10.9055 545.763 10.0375 546.006 9.21616ZM550.122 0.704165L551.942 2.74816C551.027 3.10283 550.01 3.4295 548.89 3.72816C547.788 4.00816 546.65 4.26016 545.474 4.48416C544.298 4.6895 543.159 4.87616 542.058 5.04416C542.002 4.7455 541.899 4.40016 541.75 4.00816C541.6 3.61616 541.451 3.28016 541.302 3.00016C542.347 2.83216 543.411 2.63616 544.494 2.41216C545.595 2.1695 546.631 1.90816 547.602 1.62816C548.591 1.3295 549.431 1.0215 550.122 0.704165ZM548.386 11.9882C548.554 12.1188 548.815 12.3708 549.17 12.7442C549.524 13.0988 549.907 13.4815 550.318 13.8922C550.747 14.3028 551.13 14.6948 551.466 15.0682C551.802 15.4228 552.035 15.6842 552.166 15.8522L550.626 17.9242C550.458 17.6255 550.224 17.2522 549.926 16.8042C549.646 16.3562 549.328 15.8988 548.974 15.4322C548.638 14.9468 548.311 14.4895 547.994 14.0602C547.677 13.6308 547.406 13.2855 547.182 13.0242L548.386 11.9882Z" fill="#454545"/>
<path d="M525.37 11.204H538.026V13.472H525.37V11.204ZM525.37 16.804H538.026V19.072H525.37V16.804ZM525.089 22.488H539.229V24.924H525.089V22.488ZM530.83 6.83601H533.294V23.3H530.83V6.83601ZM532.706 0.42401L535.477 1.04001C535.029 2.17868 534.535 3.33601 533.994 4.51201C533.452 5.68801 532.958 6.68668 532.51 7.50801L530.27 6.89201C530.568 6.31335 530.867 5.65068 531.166 4.90401C531.483 4.13868 531.772 3.36401 532.034 2.58001C532.295 1.79601 532.519 1.07734 532.706 0.42401ZM526.266 0.312012L528.813 0.956012C528.365 2.46801 527.824 3.95201 527.19 5.40801C526.555 6.86401 525.846 8.22668 525.062 9.49601C524.296 10.7467 523.466 11.848 522.57 12.8C522.458 12.6133 522.299 12.38 522.094 12.1C521.888 11.82 521.674 11.5307 521.45 11.232C521.226 10.9333 521.02 10.7 520.833 10.532C522.047 9.31868 523.111 7.81601 524.026 6.02401C524.959 4.21334 525.706 2.30934 526.266 0.312012ZM526.826 5.57601H538.726V7.92801H526.826V26.324H524.278V6.97601L525.649 5.57601H526.826ZM512.938 15.012C514.095 14.7507 515.485 14.4053 517.109 13.976C518.733 13.528 520.367 13.0707 522.01 12.604L522.346 14.984C520.815 15.432 519.275 15.8893 517.726 16.356C516.195 16.804 514.795 17.2147 513.526 17.588L512.938 15.012ZM513.469 5.85601H522.065V8.32001H513.469V5.85601ZM517.054 0.396011H519.573V23.272C519.573 23.9627 519.499 24.504 519.349 24.896C519.2 25.3067 518.92 25.6147 518.51 25.82C518.099 26.044 517.576 26.184 516.942 26.24C516.326 26.3147 515.541 26.3427 514.589 26.324C514.552 25.988 514.459 25.568 514.31 25.064C514.16 24.56 514.001 24.1307 513.833 23.776C514.431 23.7947 514.981 23.804 515.485 23.804C516.008 23.804 516.353 23.804 516.521 23.804C516.708 23.804 516.839 23.7667 516.914 23.692C517.007 23.5987 517.054 23.4587 517.054 23.272V0.396011Z" fill="#454545"/>
<path d="M500.394 4.84797C500.207 6.2853 499.965 7.80663 499.666 9.41197C499.386 10.9986 499.003 12.576 498.518 14.144C497.958 16.048 497.323 17.6626 496.614 18.988C495.923 20.2946 495.167 21.2933 494.346 21.984C493.525 22.6746 492.657 23.02 491.742 23.02C490.809 23.02 489.941 22.7026 489.138 22.068C488.335 21.4146 487.682 20.5093 487.178 19.352C486.674 18.176 486.422 16.8133 486.422 15.264C486.422 13.696 486.739 12.212 487.374 10.812C488.027 9.41197 488.923 8.17063 490.062 7.08797C491.201 6.0053 492.526 5.15597 494.038 4.53997C495.55 3.92397 497.183 3.61597 498.938 3.61597C500.618 3.61597 502.13 3.88663 503.474 4.42797C504.837 4.9693 505.994 5.7253 506.946 6.69597C507.917 7.64797 508.654 8.76797 509.158 10.056C509.662 11.344 509.914 12.716 509.914 14.172C509.914 16.132 509.503 17.8773 508.682 19.408C507.879 20.92 506.694 22.1613 505.126 23.132C503.558 24.084 501.635 24.728 499.358 25.064L497.706 22.432C498.191 22.376 498.639 22.32 499.05 22.264C499.461 22.1893 499.843 22.1146 500.198 22.04C501.094 21.8346 501.943 21.5173 502.746 21.088C503.567 20.6586 504.295 20.1173 504.93 19.464C505.565 18.792 506.059 18.008 506.414 17.112C506.787 16.216 506.974 15.208 506.974 14.088C506.974 12.968 506.797 11.932 506.442 10.98C506.087 10.0093 505.565 9.1693 504.874 8.45997C504.183 7.75063 503.334 7.19997 502.326 6.80797C501.318 6.3973 500.179 6.19197 498.91 6.19197C497.379 6.19197 496.017 6.46263 494.822 7.00397C493.627 7.5453 492.61 8.26397 491.77 9.15997C490.949 10.0373 490.323 10.9893 489.894 12.016C489.465 13.0426 489.25 14.032 489.25 14.984C489.25 16.048 489.381 16.9346 489.642 17.644C489.903 18.3346 490.23 18.848 490.622 19.184C491.014 19.52 491.415 19.688 491.826 19.688C492.237 19.688 492.657 19.4826 493.086 19.072C493.515 18.6426 493.945 17.9706 494.374 17.056C494.822 16.1413 495.261 14.9746 495.69 13.556C496.119 12.212 496.474 10.784 496.754 9.27197C497.053 7.7413 497.267 6.24797 497.398 4.79197L500.394 4.84797Z" fill="#454545"/>
<path d="M474.79 15.084L474.639 9.89275L470.069 12.3624L469.481 11.3208L473.883 8.61595L469.481 5.89435L470.069 4.86955L474.639 7.32235L474.79 2.14795H475.983L476.134 7.32235L480.687 4.86955L481.292 5.89435L476.89 8.61595L481.292 11.3208L480.687 12.3624L476.134 9.89275L475.983 15.084H474.79Z" fill="#454545"/>
<path d="M451.506 0.368164H454.25V4.31616H451.506V0.368164ZM451.506 16.5242H454.25V26.4082H451.506V16.5242ZM440.418 18.5402H465.562V21.0042H440.418V18.5402ZM441.286 3.33616H464.722V5.74416H441.286V3.33616ZM462.258 6.33216L464.61 7.50816C463.9 8.1615 463.135 8.79616 462.314 9.41216C461.511 10.0095 460.774 10.5322 460.102 10.9802L458.17 9.91616C458.618 9.59883 459.094 9.23483 459.598 8.82416C460.102 8.4135 460.587 7.9935 461.054 7.56416C461.52 7.11616 461.922 6.7055 462.258 6.33216ZM451.142 5.12816L453.41 5.96816C452.868 6.69616 452.299 7.42416 451.702 8.15216C451.123 8.88016 450.582 9.5055 450.078 10.0282L448.37 9.27216C448.687 8.89883 449.014 8.4695 449.35 7.98416C449.704 7.48016 450.04 6.97616 450.358 6.47216C450.675 5.96816 450.936 5.52016 451.142 5.12816ZM455.286 7.22816L457.358 8.20817C456.611 9.10416 455.79 10.0375 454.894 11.0082C454.016 11.9602 453.12 12.8842 452.206 13.7802C451.31 14.6575 450.46 15.4322 449.658 16.1042L448.09 15.2362C448.892 14.5268 449.732 13.7148 450.61 12.8002C451.487 11.8668 452.336 10.9148 453.158 9.94416C453.998 8.9735 454.707 8.06816 455.286 7.22816ZM447.082 9.41216L448.37 7.87216C448.911 8.1895 449.48 8.5535 450.078 8.96416C450.694 9.37483 451.272 9.7855 451.814 10.1962C452.355 10.5882 452.794 10.9522 453.13 11.2882L451.814 13.0522C451.478 12.6975 451.039 12.3055 450.498 11.8762C449.975 11.4468 449.415 11.0175 448.818 10.5882C448.22 10.1402 447.642 9.74816 447.082 9.41216ZM446.774 14.4242C447.688 14.3868 448.734 14.3495 449.91 14.3122C451.104 14.2562 452.364 14.1908 453.69 14.1162C455.015 14.0415 456.35 13.9762 457.694 13.9202V15.8242C455.808 15.9922 453.942 16.1415 452.094 16.2722C450.246 16.4028 448.603 16.5242 447.166 16.6362L446.774 14.4242ZM454.362 12.1842L456.266 11.3442C456.695 11.8482 457.134 12.4082 457.582 13.0242C458.03 13.6402 458.431 14.2468 458.786 14.8442C459.159 15.4228 459.439 15.9548 459.626 16.4402L457.61 17.4202C457.423 16.9348 457.162 16.3935 456.826 15.7962C456.49 15.1802 456.107 14.5548 455.678 13.9202C455.248 13.2855 454.81 12.7068 454.362 12.1842ZM440.222 14.9562C441.118 14.6575 442.191 14.2562 443.442 13.7522C444.692 13.2295 445.971 12.7162 447.278 12.2122L447.754 14.1722C446.69 14.6948 445.607 15.2175 444.506 15.7402C443.423 16.2442 442.424 16.7015 441.51 17.1122L440.222 14.9562ZM441.146 8.12416L442.91 6.66816C443.414 6.9295 443.946 7.2375 444.506 7.59216C445.066 7.94683 445.598 8.3015 446.102 8.65616C446.606 9.01083 447.016 9.34683 447.334 9.66416L445.486 11.2602C445.187 10.9615 444.786 10.6255 444.282 10.2522C443.796 9.86016 443.283 9.4775 442.742 9.10417C442.2 8.73083 441.668 8.40416 441.146 8.12416ZM457.582 13.3882L459.402 11.9322C460.092 12.2682 460.83 12.6602 461.614 13.1082C462.398 13.5375 463.144 13.9762 463.854 14.4242C464.563 14.8722 465.151 15.2922 465.618 15.6842L463.686 17.3082C463.256 16.9348 462.696 16.5148 462.006 16.0482C461.315 15.5815 460.578 15.1148 459.794 14.6482C459.028 14.1815 458.291 13.7615 457.582 13.3882Z" fill="#454545"/>
<path d="M419.53 7.25616H437.59V9.30016H419.53V7.25616ZM419.446 10.7842L420.846 9.60816C421.35 9.90683 421.891 10.2802 422.47 10.7282C423.048 11.1575 423.496 11.5402 423.814 11.8762L422.358 13.1922C422.04 12.8562 421.602 12.4642 421.042 12.0162C420.5 11.5495 419.968 11.1388 419.446 10.7842ZM431.29 21.5362L433.278 20.5282C433.8 20.9388 434.323 21.4055 434.846 21.9282C435.387 22.4322 435.891 22.9362 436.358 23.4402C436.824 23.9442 437.198 24.4108 437.478 24.8402L435.378 25.9882C435.116 25.5775 434.762 25.1108 434.314 24.5882C433.866 24.0655 433.38 23.5428 432.858 23.0202C432.335 22.4788 431.812 21.9842 431.29 21.5362ZM424.122 16.8602V18.3162H432.326V16.8602H424.122ZM424.122 13.8642V15.2922H432.326V13.8642H424.122ZM421.854 12.2122H434.65V19.9682H421.854V12.2122ZM422.106 20.4722L424.486 21.1442C423.963 22.0588 423.291 22.9455 422.47 23.8042C421.667 24.6442 420.855 25.3535 420.034 25.9322C419.903 25.7828 419.716 25.6055 419.474 25.4002C419.25 25.2135 419.007 25.0175 418.746 24.8122C418.503 24.6255 418.279 24.4762 418.074 24.3642C418.876 23.8788 419.632 23.2908 420.342 22.6002C421.07 21.9095 421.658 21.2002 422.106 20.4722ZM435.686 9.41216L437.254 10.5322C436.806 10.9802 436.32 11.4095 435.798 11.8202C435.294 12.2308 434.827 12.5762 434.398 12.8562L432.998 11.8202C433.427 11.5028 433.903 11.1108 434.426 10.6442C434.948 10.1588 435.368 9.74816 435.686 9.41216ZM431.122 8.06816C431.588 8.90816 432.186 9.72016 432.914 10.5042C433.66 11.2882 434.482 11.9882 435.378 12.6042C436.292 13.2015 437.235 13.6775 438.206 14.0322C437.944 14.2562 437.664 14.5548 437.366 14.9282C437.067 15.2828 436.834 15.6095 436.666 15.9082C435.639 15.4415 434.65 14.8442 433.698 14.1162C432.764 13.3882 431.906 12.5668 431.122 11.6522C430.356 10.7188 429.703 9.74816 429.162 8.74016L431.122 8.06816ZM426.922 19.0442H429.47V23.9442C429.47 24.5228 429.395 24.9708 429.246 25.2882C429.115 25.6242 428.826 25.8762 428.378 26.0442C427.948 26.2122 427.416 26.3148 426.782 26.3522C426.166 26.3895 425.419 26.4082 424.542 26.4082C424.467 26.0722 424.346 25.6988 424.178 25.2882C424.01 24.8962 423.851 24.5508 423.702 24.2522C424.318 24.2708 424.887 24.2802 425.41 24.2802C425.932 24.2802 426.287 24.2708 426.474 24.2522C426.642 24.2522 426.754 24.2242 426.81 24.1682C426.884 24.1122 426.922 24.0095 426.922 23.8602V19.0442ZM426.474 5.07216L428.966 5.38016C428.518 6.74283 427.902 8.0775 427.118 9.38416C426.334 10.6722 425.335 11.8855 424.122 13.0242C422.927 14.1628 421.48 15.1708 419.782 16.0482C419.614 15.7495 419.371 15.4322 419.054 15.0962C418.736 14.7415 418.438 14.4802 418.158 14.3122C419.763 13.5468 421.126 12.6695 422.246 11.6802C423.366 10.6722 424.271 9.59883 424.962 8.46017C425.671 7.3215 426.175 6.19216 426.474 5.07216ZM417.234 2.80416H437.87V5.07216H417.234V2.80416ZM415.946 2.80416H418.382V11.8482C418.382 12.9495 418.326 14.1442 418.214 15.4322C418.12 16.7015 417.934 17.9895 417.654 19.2962C417.374 20.6028 416.963 21.8628 416.422 23.0762C415.88 24.2895 415.171 25.3815 414.294 26.3522C414.182 26.1842 414.004 25.9788 413.762 25.7362C413.538 25.5122 413.304 25.2882 413.062 25.0642C412.838 24.8588 412.632 24.7095 412.446 24.6162C413.248 23.7015 413.883 22.7215 414.35 21.6762C414.816 20.6122 415.162 19.5202 415.386 18.4002C415.61 17.2615 415.759 16.1415 415.834 15.0402C415.908 13.9202 415.946 12.8562 415.946 11.8482V2.80416ZM424.934 0.368164H427.734V4.12016H424.934V0.368164ZM411.998 6.08016L413.93 5.29616C414.359 6.1735 414.742 7.1255 415.078 8.15216C415.414 9.16016 415.628 10.0188 415.722 10.7282L413.65 11.6522C413.594 11.1668 413.482 10.6068 413.314 9.97216C413.164 9.31883 412.968 8.65616 412.726 7.98416C412.502 7.31216 412.259 6.6775 411.998 6.08016ZM411.634 16.1042C412.268 15.8242 413.015 15.4602 413.874 15.0122C414.751 14.5642 415.656 14.1068 416.59 13.6402L417.206 15.6282C416.422 16.1322 415.619 16.6268 414.798 17.1122C413.995 17.5788 413.22 18.0362 412.474 18.4842L411.634 16.1042Z" fill="#454545"/>
<path d="M384.865 8.43203H409.085V14.312H406.509V10.756H387.357V14.312H384.865V8.43203ZM388.561 13.472H403.821V15.936H388.561V13.472ZM405.949 0.228027L407.769 2.38403C406.276 2.66403 404.633 2.92536 402.841 3.16803C401.068 3.41069 399.21 3.62536 397.269 3.81203C395.346 3.98003 393.405 4.12003 391.445 4.23203C389.485 4.34403 387.581 4.43736 385.733 4.51203C385.714 4.17603 385.64 3.78403 385.509 3.33603C385.378 2.88803 385.248 2.52403 385.117 2.24403C386.965 2.16936 388.841 2.07603 390.745 1.96403C392.668 1.83336 394.553 1.68403 396.401 1.51603C398.268 1.34803 400.013 1.16136 401.637 0.956028C403.261 0.732028 404.698 0.489361 405.949 0.228027ZM387.525 5.07203L389.821 4.40003C390.213 4.94136 390.577 5.54803 390.913 6.22003C391.249 6.89203 391.492 7.46136 391.641 7.92803L389.233 8.68403C389.102 8.19869 388.869 7.62003 388.533 6.94803C388.216 6.25736 387.88 5.63203 387.525 5.07203ZM394.945 4.45603L397.325 3.95203C397.624 4.54936 397.904 5.21203 398.165 5.94003C398.445 6.66803 398.632 7.3027 398.725 7.84403L396.233 8.46003C396.158 7.93736 396 7.3027 395.757 6.55603C395.514 5.79069 395.244 5.09069 394.945 4.45603ZM404.213 3.89603L406.985 4.59603C406.649 5.19336 406.294 5.80003 405.921 6.41603C405.566 7.01336 405.202 7.59203 404.829 8.15203C404.474 8.69336 404.138 9.1787 403.821 9.60803L401.665 8.93603C401.964 8.46936 402.272 7.94669 402.589 7.36803C402.906 6.77069 403.205 6.17336 403.485 5.57603C403.784 4.96003 404.026 4.40003 404.213 3.89603ZM402.841 13.472H403.401L403.877 13.36L405.669 14.452C404.81 16.2627 403.7 17.8307 402.337 19.156C400.993 20.4814 399.444 21.6107 397.689 22.544C395.953 23.4587 394.077 24.2147 392.061 24.812C390.045 25.4094 387.954 25.8667 385.789 26.184C385.696 25.9787 385.556 25.7174 385.369 25.4C385.201 25.1014 385.014 24.812 384.809 24.532C384.622 24.252 384.436 24.0187 384.249 23.832C386.377 23.5707 388.412 23.1974 390.353 22.712C392.294 22.208 394.077 21.564 395.701 20.78C397.344 19.9774 398.772 19.016 399.985 17.896C401.198 16.7574 402.15 15.432 402.841 13.92V13.472ZM391.529 15.208C392.593 16.776 394.012 18.1387 395.785 19.296C397.558 20.4534 399.612 21.396 401.945 22.124C404.297 22.852 406.854 23.3747 409.617 23.692C409.43 23.8787 409.234 24.1214 409.029 24.42C408.824 24.7187 408.628 25.0174 408.441 25.316C408.273 25.6334 408.124 25.9134 407.993 26.156C405.174 25.764 402.58 25.1387 400.209 24.28C397.838 23.44 395.729 22.348 393.881 21.004C392.033 19.6414 390.484 18.0267 389.233 16.16L391.529 15.208Z" fill="#454545"/>
<path d="M356.473 12.6882H381.477V15.2362H356.473V12.6882ZM357.817 3.58816H380.357V6.13616H357.817V3.58816ZM367.561 0.368164H370.361V26.3242H367.561V0.368164ZM375.877 6.38816L378.649 7.22816C378.313 7.86283 377.959 8.51616 377.585 9.18816C377.231 9.8415 376.867 10.4668 376.493 11.0642C376.139 11.6428 375.803 12.1655 375.485 12.6322L373.217 11.8482C373.535 11.3628 373.852 10.8028 374.169 10.1682C374.505 9.51483 374.823 8.8615 375.121 8.20817C375.42 7.53616 375.672 6.9295 375.877 6.38816ZM359.889 7.36816L362.269 6.50016C362.624 7.02283 362.969 7.59217 363.305 8.20817C363.66 8.82417 363.968 9.43083 364.229 10.0282C364.491 10.6068 364.687 11.1295 364.817 11.5962L362.297 12.6042C362.185 12.1375 362.008 11.6055 361.765 11.0082C361.523 10.3922 361.233 9.76683 360.897 9.13216C360.58 8.4975 360.244 7.9095 359.889 7.36816ZM367.001 13.6962L369.129 14.5922C368.476 15.6935 367.711 16.7668 366.833 17.8122C365.975 18.8388 365.041 19.8188 364.033 20.7522C363.025 21.6668 361.98 22.5068 360.897 23.2722C359.833 24.0375 358.76 24.6908 357.677 25.2322C357.547 25.0082 357.369 24.7562 357.145 24.4762C356.921 24.2148 356.688 23.9535 356.445 23.6922C356.221 23.4122 355.997 23.1882 355.773 23.0202C356.837 22.5722 357.911 22.0122 358.993 21.3402C360.076 20.6682 361.112 19.9215 362.101 19.1002C363.091 18.2602 364.005 17.3828 364.845 16.4682C365.685 15.5535 366.404 14.6295 367.001 13.6962ZM370.977 13.7242C371.575 14.6575 372.284 15.5815 373.105 16.4962C373.945 17.4108 374.86 18.2882 375.849 19.1282C376.839 19.9495 377.865 20.6962 378.929 21.3682C380.012 22.0402 381.085 22.6095 382.149 23.0762C381.963 23.2442 381.748 23.4682 381.505 23.7482C381.263 24.0095 381.029 24.2708 380.805 24.5322C380.6 24.8122 380.432 25.0735 380.301 25.3162C379.219 24.7748 378.136 24.1215 377.053 23.3562C375.971 22.5908 374.925 21.7415 373.917 20.8082C372.928 19.8562 371.995 18.8575 371.117 17.8122C370.259 16.7668 369.503 15.7028 368.849 14.6202L370.977 13.7242Z" fill="#454545"/>
<path d="M333.654 4.56809H340.654V7.06009H333.654V4.56809ZM345.638 0.396087H348.382V26.2961H345.638V0.396087ZM330.574 12.1561L331.946 10.1961C332.692 10.6068 333.467 11.0734 334.27 11.5961C335.091 12.1188 335.856 12.6508 336.566 13.1921C337.294 13.7334 337.872 14.2374 338.302 14.7041L336.846 16.9161C336.435 16.4494 335.875 15.9268 335.166 15.3481C334.475 14.7694 333.719 14.2001 332.898 13.6401C332.095 13.0801 331.32 12.5854 330.574 12.1561ZM334.242 0.340088L336.902 0.872087C336.416 2.72009 335.81 4.49342 335.082 6.19209C334.372 7.89076 333.57 9.45875 332.674 10.8961C331.796 12.3148 330.835 13.5561 329.79 14.6201C329.64 14.4708 329.426 14.2934 329.146 14.0881C328.884 13.8641 328.604 13.6494 328.306 13.4441C328.026 13.2201 327.774 13.0428 327.55 12.9121C328.595 11.9601 329.547 10.8308 330.406 9.52409C331.264 8.21742 332.011 6.78009 332.646 5.21209C333.299 3.64409 333.831 2.02009 334.242 0.340088ZM343.258 7.06009C343.836 8.14275 344.536 9.20675 345.358 10.2521C346.198 11.2788 347.112 12.2588 348.102 13.1921C349.11 14.1068 350.164 14.9468 351.266 15.7121C352.367 16.4588 353.487 17.0841 354.626 17.5881C354.42 17.7561 354.196 17.9801 353.954 18.2601C353.711 18.5214 353.478 18.7921 353.254 19.0721C353.048 19.3521 352.871 19.6134 352.722 19.8561C351.564 19.2588 350.426 18.5308 349.306 17.6721C348.186 16.8134 347.122 15.8708 346.114 14.8441C345.106 13.7988 344.172 12.6881 343.314 11.5121C342.455 10.3361 341.699 9.13209 341.046 7.90009L343.258 7.06009ZM339.926 4.56809H340.402L340.878 4.45609L342.614 5.04409C342.072 8.68409 341.223 11.8761 340.066 14.6201C338.908 17.3641 337.508 19.6881 335.866 21.5921C334.223 23.4961 332.403 25.0268 330.406 26.1841C330.256 25.9788 330.051 25.7454 329.79 25.4841C329.547 25.2228 329.286 24.9708 329.006 24.7281C328.744 24.5041 328.502 24.3268 328.278 24.1961C330.275 23.1321 332.058 21.7414 333.626 20.0241C335.212 18.2881 336.538 16.1881 337.602 13.7241C338.684 11.2601 339.459 8.40409 339.926 5.15609V4.56809Z" fill="#454545"/>
<path d="M312.962 10.1121C313.559 10.1121 314.101 10.2614 314.586 10.5601C315.071 10.8587 315.463 11.2507 315.762 11.7361C316.061 12.2027 316.21 12.7441 316.21 13.3601C316.21 13.9387 316.061 14.4801 315.762 14.9841C315.463 15.4694 315.071 15.8614 314.586 16.1601C314.119 16.4587 313.578 16.6081 312.962 16.6081C312.383 16.6081 311.842 16.4681 311.338 16.1881C310.853 15.8894 310.461 15.4974 310.162 15.0121C309.863 14.5081 309.714 13.9574 309.714 13.3601C309.714 12.7627 309.854 12.2214 310.134 11.7361C310.433 11.2507 310.825 10.8587 311.31 10.5601C311.814 10.2614 312.365 10.1121 312.962 10.1121Z" fill="#454545"/>
<path d="M287.985 0.452148H290.561V4.73615H287.985V0.452148ZM281.461 3.53215H297.589V8.82415H295.153V5.80015H283.841V8.82415H281.461V3.53215ZM283.617 8.57215H295.377V10.8681H283.617V8.57215ZM281.825 13.5561H297.589V15.9361H281.825V13.5561ZM285.325 14.6481H287.845C287.771 16.1415 287.631 17.5041 287.425 18.7361C287.22 19.9495 286.875 21.0415 286.389 22.0121C285.923 22.9828 285.241 23.8228 284.345 24.5321C283.468 25.2601 282.32 25.8668 280.901 26.3521C280.827 26.1468 280.705 25.9135 280.537 25.6521C280.369 25.3908 280.192 25.1388 280.005 24.8961C279.819 24.6535 279.632 24.4575 279.445 24.3081C280.715 23.8975 281.723 23.4028 282.469 22.8241C283.216 22.2455 283.785 21.5641 284.177 20.7801C284.588 19.9961 284.868 19.0908 285.017 18.0641C285.167 17.0375 285.269 15.8988 285.325 14.6481ZM290.505 14.3961H292.997V22.8241C292.997 23.1975 293.025 23.4308 293.081 23.5241C293.156 23.6175 293.315 23.6641 293.557 23.6641C293.632 23.6641 293.772 23.6641 293.977 23.6641C294.183 23.6641 294.388 23.6641 294.593 23.6641C294.817 23.6641 294.967 23.6641 295.041 23.6641C295.228 23.6641 295.368 23.5895 295.461 23.4401C295.555 23.2908 295.62 22.9735 295.657 22.4881C295.695 21.9841 295.723 21.2375 295.741 20.2481C295.909 20.3975 296.124 20.5375 296.385 20.6681C296.647 20.7988 296.917 20.9201 297.197 21.0321C297.496 21.1255 297.757 21.2001 297.981 21.2561C297.907 22.5068 297.776 23.4775 297.589 24.1681C297.403 24.8775 297.132 25.3628 296.777 25.6241C296.423 25.9041 295.937 26.0441 295.321 26.0441C295.209 26.0441 295.051 26.0441 294.845 26.0441C294.659 26.0441 294.453 26.0441 294.229 26.0441C294.005 26.0441 293.791 26.0441 293.585 26.0441C293.399 26.0441 293.249 26.0441 293.137 26.0441C292.428 26.0441 291.877 25.9415 291.485 25.7361C291.112 25.5495 290.851 25.2228 290.701 24.7561C290.571 24.2895 290.505 23.6455 290.505 22.8241V14.3961ZM273.117 1.57215H279.697V3.95215H275.441V26.3801H273.117V1.57215ZM278.913 1.57215H279.333L279.725 1.46015L281.461 2.46815C281.2 3.25215 280.92 4.09215 280.621 4.98815C280.323 5.86548 280.015 6.73348 279.697 7.59215C279.399 8.45081 279.1 9.25348 278.801 10.0001C279.753 11.1201 280.379 12.1655 280.677 13.1361C280.976 14.1068 281.125 15.0215 281.125 15.8801C281.125 16.6828 281.032 17.3735 280.845 17.9521C280.677 18.5308 280.379 18.9695 279.949 19.2681C279.744 19.4175 279.511 19.5388 279.249 19.6321C279.007 19.7068 278.736 19.7721 278.437 19.8281C277.896 19.8841 277.28 19.8935 276.589 19.8561C276.571 19.5388 276.505 19.1655 276.393 18.7361C276.3 18.2881 276.16 17.9055 275.973 17.5881C276.253 17.6068 276.515 17.6161 276.757 17.6161C277 17.6161 277.224 17.6161 277.429 17.6161C277.784 17.5975 278.064 17.5135 278.269 17.3641C278.456 17.2148 278.587 16.9815 278.661 16.6641C278.736 16.3468 278.773 15.9828 278.773 15.5721C278.773 14.8628 278.624 14.0601 278.325 13.1641C278.027 12.2681 277.42 11.3068 276.505 10.2801C276.748 9.64548 276.981 8.96415 277.205 8.23615C277.429 7.50815 277.644 6.78015 277.849 6.05215C278.073 5.30548 278.269 4.61481 278.437 3.98015C278.624 3.32681 278.783 2.77615 278.913 2.32815V1.57215Z" fill="#454545"/>
<path d="M249.345 1.99194H257.297V4.67994H249.345V1.99194ZM255.981 1.99194H258.697C258.697 2.85061 258.725 3.84928 258.781 4.98794C258.856 6.10794 259.015 7.31194 259.257 8.59994C259.5 9.86928 259.873 11.1853 260.377 12.5479C260.881 13.9106 261.544 15.2639 262.365 16.6079C263.205 17.9519 264.26 19.2586 265.529 20.5279C266.799 21.7786 268.329 22.9359 270.121 23.9999C269.935 24.1493 269.701 24.3546 269.421 24.6159C269.141 24.8959 268.871 25.1853 268.609 25.4839C268.348 25.7826 268.143 26.0439 267.993 26.2679C266.164 25.1479 264.596 23.9159 263.289 22.5719C261.983 21.2093 260.881 19.7719 259.985 18.2599C259.108 16.7479 258.399 15.2266 257.857 13.6959C257.316 12.1653 256.905 10.6813 256.625 9.24394C256.364 7.80661 256.187 6.47194 256.093 5.23994C256.019 3.98928 255.981 2.90661 255.981 1.99194ZM255.001 7.78794L257.997 8.31994C257.344 11.1386 256.485 13.6866 255.421 15.9639C254.357 18.2226 253.069 20.2106 251.557 21.9279C250.064 23.6453 248.3 25.1106 246.265 26.3239C246.116 26.1186 245.892 25.8853 245.593 25.6239C245.295 25.3626 244.987 25.0919 244.669 24.8119C244.371 24.5319 244.1 24.3173 243.857 24.1679C246.9 22.5999 249.308 20.4439 251.081 17.6999C252.873 14.9373 254.18 11.6333 255.001 7.78794Z" fill="#454545"/>
<path d="M231.089 4.84797C230.903 6.2853 230.66 7.80663 230.361 9.41197C230.081 10.9986 229.699 12.576 229.213 14.144C228.653 16.048 228.019 17.6626 227.309 18.988C226.619 20.2946 225.863 21.2933 225.041 21.984C224.22 22.6746 223.352 23.02 222.437 23.02C221.504 23.02 220.636 22.7026 219.833 22.068C219.031 21.4146 218.377 20.5093 217.873 19.352C217.369 18.176 217.117 16.8133 217.117 15.264C217.117 13.696 217.435 12.212 218.069 10.812C218.723 9.41197 219.619 8.17063 220.757 7.08797C221.896 6.0053 223.221 5.15597 224.733 4.53997C226.245 3.92397 227.879 3.61597 229.633 3.61597C231.313 3.61597 232.825 3.88663 234.169 4.42797C235.532 4.9693 236.689 5.7253 237.641 6.69597C238.612 7.64797 239.349 8.76797 239.853 10.056C240.357 11.344 240.609 12.716 240.609 14.172C240.609 16.132 240.199 17.8773 239.377 19.408C238.575 20.92 237.389 22.1613 235.821 23.132C234.253 24.084 232.331 24.728 230.053 25.064L228.401 22.432C228.887 22.376 229.335 22.32 229.745 22.264C230.156 22.1893 230.539 22.1146 230.893 22.04C231.789 21.8346 232.639 21.5173 233.441 21.088C234.263 20.6586 234.991 20.1173 235.625 19.464C236.26 18.792 236.755 18.008 237.109 17.112C237.483 16.216 237.669 15.208 237.669 14.088C237.669 12.968 237.492 11.932 237.137 10.98C236.783 10.0093 236.26 9.1693 235.569 8.45997C234.879 7.75063 234.029 7.19997 233.021 6.80797C232.013 6.3973 230.875 6.19197 229.605 6.19197C228.075 6.19197 226.712 6.46263 225.517 7.00397C224.323 7.5453 223.305 8.26397 222.465 9.15997C221.644 10.0373 221.019 10.9893 220.589 12.016C220.16 13.0426 219.945 14.032 219.945 14.984C219.945 16.048 220.076 16.9346 220.337 17.644C220.599 18.3346 220.925 18.848 221.317 19.184C221.709 19.52 222.111 19.688 222.521 19.688C222.932 19.688 223.352 19.4826 223.781 19.072C224.211 18.6426 224.64 17.9706 225.069 17.056C225.517 16.1413 225.956 14.9746 226.385 13.556C226.815 12.212 227.169 10.784 227.449 9.27197C227.748 7.7413 227.963 6.24797 228.093 4.79197L231.089 4.84797Z" fill="#454545"/>
<path d="M208.285 29.5721L206.269 28.6761C207.463 26.6601 208.35 24.5041 208.929 22.2081C209.507 19.9121 209.797 17.5881 209.797 15.2361C209.797 12.9028 209.507 10.5881 208.929 8.29215C208.35 5.97748 207.463 3.81215 206.269 1.79615L208.285 0.900146C209.61 3.02815 210.637 5.25881 211.365 7.59215C212.093 9.92548 212.457 12.4735 212.457 15.2361C212.457 18.0175 212.093 20.5748 211.365 22.9081C210.637 25.2228 209.61 27.4441 208.285 29.5721Z" fill="#454545"/>
<path d="M192.661 3.19604C192.53 3.3827 192.39 3.59737 192.241 3.84004C192.092 4.06404 191.933 4.3067 191.765 4.56804C191.448 5.05337 191.074 5.66004 190.645 6.38804C190.216 7.09737 189.768 7.8627 189.301 8.68403C188.834 9.50537 188.377 10.3174 187.929 11.12C187.481 11.9227 187.089 12.6507 186.753 13.304C187.35 12.8374 187.966 12.5014 188.601 12.296C189.254 12.072 189.88 11.96 190.477 11.96C191.466 11.96 192.26 12.268 192.857 12.884C193.473 13.4814 193.809 14.3494 193.865 15.488C193.884 15.9734 193.893 16.524 193.893 17.14C193.893 17.7374 193.893 18.3254 193.893 18.904C193.912 19.4827 193.94 19.9867 193.977 20.416C194.014 21.0694 194.229 21.536 194.621 21.816C195.032 22.0774 195.498 22.208 196.021 22.208C196.73 22.208 197.365 22.012 197.925 21.62C198.504 21.228 199.008 20.7054 199.437 20.052C199.885 19.38 200.258 18.652 200.557 17.868C200.874 17.0654 201.126 16.2627 201.313 15.46L203.665 17.392C203.18 18.9414 202.573 20.304 201.845 21.48C201.117 22.6374 200.24 23.5427 199.213 24.196C198.186 24.868 196.973 25.204 195.573 25.204C194.565 25.204 193.744 25.0174 193.109 24.644C192.493 24.2707 192.036 23.804 191.737 23.244C191.457 22.684 191.298 22.1054 191.261 21.508C191.224 20.9667 191.196 20.388 191.177 19.772C191.177 19.1374 191.168 18.5214 191.149 17.924C191.149 17.308 191.13 16.776 191.093 16.328C191.074 15.768 190.906 15.3387 190.589 15.04C190.272 14.7227 189.824 14.564 189.245 14.564C188.554 14.564 187.882 14.7694 187.229 15.18C186.594 15.5907 186.016 16.132 185.493 16.804C184.989 17.476 184.56 18.1854 184.205 18.932C184 19.3427 183.785 19.8374 183.561 20.416C183.337 20.976 183.113 21.564 182.889 22.18C182.684 22.7774 182.497 23.3467 182.329 23.888C182.161 24.4294 182.021 24.8774 181.909 25.232L178.829 24.196C179.184 23.244 179.622 22.1707 180.145 20.976C180.668 19.7627 181.246 18.4934 181.881 17.168C182.516 15.824 183.16 14.4987 183.813 13.192C184.466 11.8854 185.092 10.644 185.689 9.46803C186.286 8.29204 186.818 7.26537 187.285 6.38804C187.752 5.5107 188.106 4.84803 188.349 4.40003C188.536 4.06403 188.732 3.70004 188.937 3.30804C189.142 2.89737 189.338 2.44004 189.525 1.93604L192.661 3.19604Z" fill="#454545"/>
<path d="M161.245 2.18806C161.17 2.46806 161.095 2.78539 161.02 3.14006C160.964 3.49473 160.899 3.82139 160.824 4.12006C160.768 4.49339 160.684 4.96006 160.572 5.52006C160.46 6.06139 160.348 6.63072 160.236 7.22806C160.143 7.80672 160.031 8.36673 159.9 8.90806C159.714 9.69206 159.481 10.5974 159.201 11.6241C158.921 12.6507 158.594 13.7521 158.221 14.9281C157.866 16.0854 157.455 17.2707 156.988 18.4841C156.54 19.6787 156.046 20.8547 155.505 22.0121C154.982 23.1507 154.412 24.2147 153.796 25.2041L150.913 24.0561C151.566 23.1974 152.172 22.2267 152.732 21.1441C153.292 20.0614 153.806 18.9507 154.273 17.8121C154.739 16.6547 155.159 15.5161 155.533 14.3961C155.906 13.2761 156.223 12.2401 156.484 11.2881C156.746 10.3174 156.951 9.48672 157.1 8.79606C157.362 7.60139 157.567 6.40672 157.717 5.21206C157.885 4.01739 157.969 2.89739 157.969 1.85206L161.245 2.18806ZM170.876 5.24006C171.306 5.81872 171.763 6.54672 172.249 7.42406C172.753 8.28273 173.238 9.19739 173.704 10.1681C174.171 11.1387 174.6 12.0814 174.992 12.9961C175.384 13.8921 175.693 14.6667 175.917 15.3201L173.145 16.6361C172.939 15.8894 172.659 15.0494 172.305 14.1161C171.969 13.1827 171.576 12.2401 171.128 11.2881C170.699 10.3174 170.232 9.40272 169.729 8.54406C169.243 7.68539 168.758 6.96672 168.273 6.38806L170.876 5.24006ZM150.604 8.15206C151.071 8.17073 151.519 8.18006 151.949 8.18006C152.378 8.18006 152.835 8.17073 153.32 8.15206C153.75 8.13339 154.291 8.10539 154.945 8.06806C155.617 8.01206 156.326 7.95606 157.072 7.90006C157.838 7.82539 158.594 7.76006 159.34 7.70406C160.087 7.62939 160.778 7.57339 161.413 7.53606C162.066 7.49873 162.588 7.48006 162.98 7.48006C163.876 7.48006 164.679 7.62939 165.389 7.92806C166.117 8.20806 166.686 8.71206 167.096 9.44006C167.526 10.1681 167.74 11.1854 167.74 12.4921C167.74 13.5934 167.684 14.7881 167.572 16.0761C167.479 17.3454 167.311 18.5681 167.068 19.7441C166.844 20.9014 166.537 21.8721 166.145 22.6561C165.697 23.6267 165.108 24.2801 164.38 24.6161C163.652 24.9521 162.803 25.1201 161.833 25.1201C161.291 25.1201 160.712 25.0734 160.096 24.9801C159.499 24.9054 158.967 24.8121 158.501 24.7001L158.025 21.7881C158.417 21.9001 158.827 22.0027 159.257 22.0961C159.686 22.1707 160.096 22.2361 160.488 22.2921C160.88 22.3294 161.207 22.3481 161.469 22.3481C161.954 22.3481 162.393 22.2641 162.785 22.0961C163.176 21.9094 163.503 21.5547 163.764 21.0321C164.044 20.4347 164.268 19.6787 164.436 18.7641C164.623 17.8494 164.763 16.8694 164.857 15.8241C164.95 14.7787 164.997 13.7707 164.997 12.8001C164.997 11.9787 164.884 11.3721 164.66 10.9801C164.436 10.5881 164.11 10.3267 163.68 10.1961C163.251 10.0467 162.738 9.97206 162.141 9.97206C161.693 9.97206 161.076 10.0094 160.292 10.0841C159.527 10.1401 158.706 10.2147 157.829 10.3081C156.97 10.4014 156.158 10.4947 155.393 10.5881C154.646 10.6627 154.067 10.7281 153.656 10.7841C153.302 10.8214 152.845 10.8774 152.285 10.9521C151.743 11.0267 151.277 11.1014 150.885 11.1761L150.604 8.15206ZM170.82 1.23606C171.063 1.57206 171.325 1.97339 171.605 2.44006C171.885 2.90672 172.155 3.37339 172.417 3.84006C172.678 4.30672 172.902 4.72672 173.089 5.10006L171.24 5.88406C171.072 5.51072 170.858 5.09072 170.596 4.62406C170.335 4.15739 170.064 3.69073 169.785 3.22406C169.523 2.75739 169.262 2.34673 169.001 1.99206L170.82 1.23606ZM174.012 0.0600586C174.255 0.414725 174.526 0.825392 174.824 1.29206C175.123 1.75873 175.403 2.22539 175.665 2.69206C175.945 3.14006 176.169 3.53206 176.337 3.86806L174.516 4.68006C174.218 4.08272 173.854 3.42006 173.424 2.69206C173.014 1.96406 172.603 1.33872 172.193 0.816057L174.012 0.0600586Z" fill="#454545"/>
<path d="M145.636 29.5721C144.33 27.4441 143.312 25.2228 142.584 22.9081C141.856 20.5748 141.492 18.0175 141.492 15.2361C141.492 12.4735 141.856 9.92548 142.584 7.59215C143.312 5.25881 144.33 3.02815 145.636 0.900146L147.652 1.79615C146.458 3.81215 145.571 5.97748 144.992 8.29215C144.432 10.5881 144.152 12.9028 144.152 15.2361C144.152 17.5881 144.432 19.9121 144.992 22.2081C145.571 24.5041 146.458 26.6601 147.652 28.6761L145.636 29.5721Z" fill="#454545"/>
<path d="M125.729 0.368164L128.137 0.816163C127.801 2.3655 127.372 3.85883 126.849 5.29616C126.345 6.7335 125.757 8.0775 125.085 9.32816C124.432 10.5602 123.722 11.6428 122.957 12.5762C122.808 12.4455 122.612 12.2868 122.369 12.1002C122.126 11.8948 121.874 11.6988 121.613 11.5122C121.352 11.3255 121.118 11.1762 120.913 11.0642C121.697 10.2428 122.388 9.26283 122.985 8.12416C123.601 6.9855 124.133 5.76283 124.581 4.45616C125.048 3.13083 125.43 1.76816 125.729 0.368164ZM135.277 4.90416H137.797C137.797 4.90416 137.797 4.98816 137.797 5.15616C137.797 5.32416 137.797 5.51083 137.797 5.71616C137.797 5.90283 137.788 6.0615 137.769 6.19216C137.62 9.3655 137.461 12.0535 137.293 14.2562C137.144 16.4588 136.985 18.2695 136.817 19.6882C136.649 21.1068 136.453 22.2175 136.229 23.0202C136.024 23.8228 135.781 24.3922 135.501 24.7282C135.202 25.1575 134.894 25.4562 134.577 25.6242C134.26 25.7922 133.877 25.9135 133.429 25.9882C133.056 26.0442 132.58 26.0722 132.001 26.0722C131.441 26.0908 130.853 26.0815 130.237 26.0442C130.218 25.6522 130.144 25.2042 130.013 24.7002C129.901 24.2148 129.733 23.7948 129.509 23.4402C130.106 23.4962 130.648 23.5335 131.133 23.5522C131.618 23.5522 131.992 23.5522 132.253 23.5522C132.496 23.5522 132.692 23.5242 132.841 23.4682C132.99 23.3935 133.149 23.2628 133.317 23.0762C133.522 22.8148 133.718 22.3202 133.905 21.5922C134.092 20.8642 134.26 19.8188 134.409 18.4562C134.577 17.0935 134.726 15.3575 134.857 13.2482C135.006 11.1202 135.146 8.54416 135.277 5.52016V4.90416ZM125.981 4.90416H136.397V7.36816H124.833L125.981 4.90416ZM128.473 5.68816L130.433 6.66816C130.041 8.29216 129.5 9.9535 128.809 11.6522C128.137 13.3322 127.353 14.9002 126.457 16.3562C125.561 17.8122 124.59 19.0162 123.545 19.9682C123.302 19.7255 122.985 19.4642 122.593 19.1842C122.22 18.8855 121.846 18.6428 121.473 18.4562C122.294 17.8028 123.069 17.0095 123.797 16.0762C124.525 15.1242 125.188 14.0788 125.785 12.9402C126.382 11.7828 126.905 10.5882 127.353 9.35616C127.801 8.1055 128.174 6.88283 128.473 5.68816ZM132.421 5.94016L134.493 6.89217C134.157 8.75883 133.709 10.6068 133.149 12.4362C132.589 14.2655 131.926 16.0202 131.161 17.7002C130.414 19.3802 129.556 20.9108 128.585 22.2922C127.633 23.6735 126.56 24.8402 125.365 25.7922C125.122 25.5495 124.786 25.2695 124.357 24.9522C123.946 24.6535 123.554 24.4108 123.181 24.2242C124.413 23.3468 125.524 22.2548 126.513 20.9482C127.502 19.6228 128.37 18.1482 129.117 16.5242C129.882 14.9002 130.536 13.1922 131.077 11.4002C131.637 9.5895 132.085 7.7695 132.421 5.94016ZM111.897 15.7962C112.793 15.5722 113.81 15.3015 114.949 14.9842C116.106 14.6668 117.32 14.3215 118.589 13.9482C119.877 13.5748 121.165 13.2015 122.453 12.8282L122.789 15.1802C121.034 15.7215 119.252 16.2722 117.441 16.8322C115.63 17.3922 114.006 17.8962 112.569 18.3442L111.897 15.7962ZM117.021 0.368164H119.485V26.3522H117.021V0.368164ZM113.465 1.96416L115.705 2.32816C115.574 3.57883 115.406 4.82016 115.201 6.05216C115.014 7.28416 114.79 8.4415 114.529 9.52416C114.268 10.6068 113.96 11.5682 113.605 12.4082C113.456 12.2962 113.26 12.1655 113.017 12.0162C112.793 11.8668 112.55 11.7175 112.289 11.5682C112.046 11.4188 111.841 11.2975 111.673 11.2042C112.009 10.4388 112.289 9.55216 112.513 8.54416C112.737 7.53616 112.924 6.47216 113.073 5.35216C113.241 4.23216 113.372 3.10283 113.465 1.96416ZM113.913 5.96816H122.117V8.48816H113.437L113.913 5.96816Z" fill="#454545"/>
<path d="M88.8241 5.66016H108.256V8.23616H88.8241V5.66016ZM87.6201 13.8642H107.22V16.4122H87.6201V13.8642ZM84.4841 22.9082H109.628V25.4842H84.4841V22.9082ZM95.6841 0.368164H98.4281V24.1962H95.6841V0.368164ZM89.3001 0.760164L92.0441 1.37616C91.6334 2.8135 91.1388 4.23217 90.5601 5.63216C90.0001 7.0135 89.3841 8.3015 88.7121 9.49617C88.0401 10.6722 87.3401 11.7082 86.6121 12.6042C86.4254 12.4548 86.1828 12.2868 85.8841 12.1002C85.6041 11.8948 85.3148 11.6988 85.0161 11.5122C84.7174 11.3068 84.4468 11.1482 84.2041 11.0362C84.9694 10.2148 85.6694 9.26283 86.3041 8.18017C86.9388 7.07883 87.5081 5.8935 88.0121 4.62416C88.5348 3.35483 88.9641 2.06683 89.3001 0.760164Z" fill="#454545"/>
<path d="M71.5485 9.72013H81.9925V12.1841H71.5485V9.72013ZM56.6245 3.22413H69.0845V5.40813H56.6245V3.22413ZM56.3165 14.3401H69.1405V16.6081H56.3165V14.3401ZM56.2325 9.55213H69.3925V11.7641H56.2325V9.55213ZM76.4485 10.7841H79.0245V26.2121H76.4485V10.7841ZM61.5805 0.536133H64.1565V4.26013H61.5805V0.536133ZM61.5805 11.5121H64.1565V26.3241H61.5805V11.5121ZM70.3165 2.60813L73.4805 3.53213C73.4432 3.75613 73.2285 3.90547 72.8365 3.98013V12.4361C72.8365 13.5001 72.7805 14.6388 72.6685 15.8521C72.5752 17.0468 72.3792 18.2788 72.0805 19.5481C71.7819 20.7988 71.3339 22.0215 70.7365 23.2161C70.1579 24.3921 69.3925 25.4748 68.4405 26.4641C68.3285 26.2588 68.1605 26.0348 67.9365 25.7921C67.7125 25.5495 67.4699 25.3161 67.2085 25.0921C66.9659 24.8868 66.7419 24.7375 66.5365 24.6441C67.3952 23.7668 68.0765 22.8241 68.5805 21.8161C69.0845 20.8081 69.4579 19.7628 69.7005 18.6801C69.9619 17.5975 70.1299 16.5335 70.2045 15.4881C70.2792 14.4241 70.3165 13.3975 70.3165 12.4081V2.60813ZM79.5845 0.676133L81.7125 2.60813C80.8165 3.0188 79.7992 3.40147 78.6605 3.75613C77.5405 4.09213 76.3925 4.40013 75.2165 4.68013C74.0405 4.94147 72.9019 5.1748 71.8005 5.38013C71.7445 5.10013 71.6325 4.76413 71.4645 4.37213C71.2965 3.96147 71.1285 3.62547 70.9605 3.36413C72.0059 3.14013 73.0605 2.88813 74.1245 2.60813C75.2072 2.30947 76.2245 2.00147 77.1765 1.68413C78.1285 1.34813 78.9312 1.01213 79.5845 0.676133ZM63.9605 16.9721C64.1659 17.1028 64.4739 17.3361 64.8845 17.6721C65.3139 17.9895 65.7619 18.3348 66.2285 18.7081C66.7139 19.0815 67.1525 19.4361 67.5445 19.7721C67.9552 20.0895 68.2445 20.3228 68.4125 20.4721L66.8725 22.4041C66.6485 22.1428 66.3499 21.8161 65.9765 21.4241C65.6032 21.0321 65.1925 20.6308 64.7445 20.2201C64.3152 19.7908 63.8952 19.3988 63.4845 19.0441C63.0925 18.6708 62.7659 18.3721 62.5045 18.1481L63.9605 16.9721ZM58.1645 5.88413L60.2365 5.40813C60.5165 5.9868 60.7592 6.62147 60.9645 7.31213C61.1699 8.0028 61.3005 8.5908 61.3565 9.07613L59.1725 9.69213C59.1352 9.16947 59.0232 8.55347 58.8365 7.84413C58.6499 7.1348 58.4259 6.48147 58.1645 5.88413ZM65.2765 5.35213L67.6285 5.85613C67.3672 6.52813 67.1059 7.20013 66.8445 7.87213C66.5832 8.52547 66.3405 9.0948 66.1165 9.58013L63.9885 9.10413C64.1379 8.74947 64.2872 8.35747 64.4365 7.92813C64.6045 7.48013 64.7632 7.03213 64.9125 6.58413C65.0619 6.13613 65.1832 5.72547 65.2765 5.35213ZM61.6085 15.6001L63.4845 16.3001C63.0365 17.3268 62.4765 18.3535 61.8045 19.3801C61.1325 20.4068 60.4139 21.3588 59.6485 22.2361C58.8832 23.1135 58.1272 23.8508 57.3805 24.4481C57.1939 24.1495 56.9232 23.8135 56.5685 23.4401C56.2325 23.0668 55.9245 22.7681 55.6445 22.5441C56.3912 22.0588 57.1379 21.4428 57.8845 20.6961C58.6499 19.9495 59.3499 19.1375 59.9845 18.2601C60.6379 17.3641 61.1792 16.4775 61.6085 15.6001Z" fill="#454545"/>
<path d="M31.5365 0.368164H34.1965V26.3242H31.5365V0.368164ZM29.0445 5.71616L31.0045 5.99617C30.9485 6.7615 30.8552 7.61083 30.7245 8.54416C30.6125 9.4775 30.4632 10.3922 30.2765 11.2882C30.1085 12.1842 29.9032 12.9868 29.6605 13.6962L27.6445 12.9962C27.8872 12.3615 28.1019 11.6242 28.2885 10.7842C28.4752 9.94416 28.6339 9.0855 28.7645 8.20817C28.8952 7.31216 28.9885 6.4815 29.0445 5.71616ZM34.0285 5.71616L35.8485 4.93216C36.2592 5.66016 36.6512 6.46283 37.0245 7.34016C37.3979 8.2175 37.6592 8.95483 37.8085 9.55216L35.8485 10.4762C35.7552 10.0655 35.6152 9.5895 35.4285 9.04816C35.2419 8.50683 35.0179 7.9375 34.7565 7.34016C34.5139 6.74283 34.2712 6.2015 34.0285 5.71616ZM39.5445 1.65616L42.1485 2.04816C41.9245 3.4295 41.6445 4.78283 41.3085 6.10816C40.9725 7.4335 40.5899 8.67483 40.1605 9.83216C39.7499 10.9708 39.2832 11.9788 38.7605 12.8562C38.5925 12.7442 38.3592 12.6135 38.0605 12.4642C37.7805 12.2962 37.4912 12.1468 37.1925 12.0162C36.8939 11.8668 36.6325 11.7455 36.4085 11.6522C36.9312 10.8495 37.3885 9.91616 37.7805 8.85216C38.1912 7.7695 38.5459 6.61216 38.8445 5.38016C39.1432 4.14816 39.3765 2.90683 39.5445 1.65616ZM39.9925 6.19216H52.9845V8.68416H39.2085L39.9925 6.19216ZM44.2205 0.480164H46.8805V24.3082H44.2205V0.480164ZM38.5085 14.0042H52.3685V16.4682H38.5085V14.0042ZM36.4085 22.8802H53.7405V25.4002H36.4085V22.8802Z" fill="#454545"/>
<path d="M7.37245 19.1841H10.0045V22.7401C10.0045 23.0761 10.0978 23.3001 10.2845 23.4121C10.4711 23.5054 10.9005 23.5521 11.5725 23.5521C11.7405 23.5521 12.0111 23.5521 12.3845 23.5521C12.7578 23.5521 13.1778 23.5521 13.6445 23.5521C14.1298 23.5521 14.5778 23.5521 14.9885 23.5521C15.3991 23.5521 15.6978 23.5521 15.8845 23.5521C16.2391 23.5521 16.5098 23.4961 16.6965 23.3841C16.8831 23.2721 17.0138 23.0481 17.0885 22.7121C17.1631 22.3574 17.2191 21.8254 17.2565 21.1161C17.4431 21.2468 17.6765 21.3774 17.9565 21.5081C18.2365 21.6201 18.5258 21.7321 18.8245 21.8441C19.1418 21.9374 19.4125 22.0028 19.6365 22.0401C19.5431 23.0854 19.3751 23.8881 19.1325 24.4481C18.8898 25.0081 18.5351 25.3908 18.0685 25.5961C17.6018 25.8201 16.9578 25.9321 16.1365 25.9321C16.0058 25.9321 15.7725 25.9321 15.4365 25.9321C15.1191 25.9321 14.7551 25.9321 14.3445 25.9321C13.9338 25.9321 13.5138 25.9321 13.0845 25.9321C12.6738 25.9321 12.3098 25.9321 11.9925 25.9321C11.6751 25.9321 11.4511 25.9321 11.3205 25.9321C10.2565 25.9321 9.43512 25.8294 8.85645 25.6241C8.29645 25.4374 7.90445 25.1108 7.68045 24.6441C7.47512 24.1961 7.37245 23.5708 7.37245 22.7681V19.1841ZM9.36045 18.0921L11.0405 16.6641C11.6378 16.9254 12.2538 17.2428 12.8885 17.6161C13.5231 17.9708 14.1205 18.3441 14.6805 18.7361C15.2405 19.1281 15.6978 19.5108 16.0525 19.8841L14.2605 21.4521C13.9245 21.0788 13.4858 20.6868 12.9445 20.2761C12.4031 19.8654 11.8151 19.4734 11.1805 19.1001C10.5645 18.7081 9.95779 18.3721 9.36045 18.0921ZM18.6005 19.8841L20.7285 18.5121C21.4191 19.0161 22.1005 19.5854 22.7725 20.2201C23.4631 20.8361 24.0885 21.4708 24.6485 22.1241C25.2085 22.7588 25.6378 23.3654 25.9365 23.9441L23.6405 25.4281C23.3605 24.8681 22.9498 24.2614 22.4085 23.6081C21.8858 22.9361 21.2885 22.2734 20.6165 21.6201C19.9631 20.9668 19.2911 20.3881 18.6005 19.8841ZM3.56445 18.8761L5.97245 19.8001C5.63645 20.9014 5.17912 21.9654 4.60045 22.9921C4.04045 24.0188 3.27512 24.8681 2.30445 25.5401L0.0644531 23.9441C0.960453 23.3841 1.69779 22.6561 2.27645 21.7601C2.87379 20.8641 3.30312 19.9028 3.56445 18.8761ZM8.57645 2.41211H11.0965V15.9641H8.57645V2.41211ZM14.5685 2.41211H17.1445V15.9641H14.5685V2.41211ZM0.512453 14.9561H25.5165V17.2241H0.512453V14.9561ZM0.960453 1.51611H25.1245V3.75611H0.960453V1.51611ZM5.24445 7.78811V10.8681H20.6165V7.78811H5.24445ZM2.78045 5.74411H23.1925V12.9401H2.78045V5.74411Z" fill="#454545"/>
</svg>
