<svg width="442" height="174" viewBox="0 0 442 174" fill="none" xmlns="http://www.w3.org/2000/svg">
<path d="M277.93 134.686C277.31 132.711 277.078 131.162 277 129.109C276.923 126.902 276.884 124.695 276.884 122.488C276.884 120.358 277.388 119.08 279.788 119.08C281.415 119.08 282.693 119.777 282.693 121.52C282.693 121.984 282.654 122.449 282.615 122.914C282.422 124.695 282.305 126.476 282.305 128.296C282.305 129.884 282.46 131.394 282.809 132.943C284.706 132.323 292.993 129.729 294.348 129.729C295.471 129.729 296.168 130.774 296.168 131.82C296.168 133.446 294.929 133.563 292.993 133.756C288.501 134.26 283.622 135.344 279.479 137.241C276.613 138.558 274.522 140.61 274.522 143.94C274.522 149.4 280.563 150.02 284.706 150.02C287.533 150.02 290.321 149.71 293.071 149.129C293.961 148.897 294.193 148.858 294.542 148.858C295.549 148.858 296.091 149.71 296.091 150.639C296.091 151.414 295.742 152.072 295.007 152.305C293.961 152.653 292.49 152.731 291.328 152.769C288.888 152.885 286.449 152.963 284.009 152.963C278.162 152.963 268.52 152.421 268.52 144.482C268.52 141.888 270.069 139.41 272.121 137.822C273.864 136.428 275.916 135.576 277.93 134.686Z" fill="#4AA9D5"/>
<path d="M226.361 136.467C225.548 136.467 225.044 135.576 225.044 134.802C225.044 133.756 225.858 133.485 227.135 133.137C231.821 131.897 236.7 130.426 241.618 130.426C247.349 130.426 251.763 133.563 251.763 139.642C251.763 145.722 246.884 148.897 241.579 150.33C239.101 151.027 236.197 151.375 233.68 151.375C232.944 151.375 232.286 151.104 232.286 150.291C232.286 149.439 232.944 149.168 233.68 149.168H234.144C239.759 149.168 246.923 146.457 246.923 139.836C246.923 135.421 243.864 132.866 239.566 132.866C236.042 132.866 230.775 134.569 227.561 136.08C227.174 136.273 226.71 136.467 226.361 136.467Z" fill="#4AA9D5"/>
<path d="M345.203 74.9993C346.89 74.9391 348.576 74.909 350.263 74.7885C350.925 74.7283 351.588 74.668 352.01 74.668C352.612 74.668 352.943 75.1499 352.943 75.7222C352.943 76.3848 352.431 76.6859 351.829 76.7161C349.54 76.8365 347.221 76.9269 344.902 77.0172C344.661 78.7641 344.45 80.5109 344.239 82.2277C346.016 82.1674 347.793 82.0771 349.57 81.9566C350.263 81.8964 350.715 81.8662 351.287 81.8662C351.859 81.8662 352.22 82.3481 352.22 82.8902C352.22 83.6131 351.678 83.8841 351.046 83.9444C348.697 84.0649 346.347 84.1552 344.028 84.2456C343.848 85.7213 343.697 87.1971 343.697 88.6729C343.697 92.4979 345.926 93.5219 349.419 93.5219C352.913 93.5219 355.835 92.2871 355.835 88.3416C355.835 86.6851 355.413 85.0587 354.811 83.5528C354.63 83.1011 354.6 82.9806 354.6 82.7999C354.6 82.2879 355.082 81.8964 355.564 81.8964C356.136 81.8964 356.467 82.4385 357.039 83.3721C358.124 85.1491 359.238 87.2272 359.238 89.3656C359.238 91.2329 358.304 92.9798 356.738 94.0038C354.75 95.2989 351.558 95.5699 349.239 95.5699C346.739 95.5699 343.908 95.329 341.769 93.9436C339.872 92.7388 339.39 90.6306 339.39 88.5223C339.39 87.167 339.541 85.7816 339.691 84.4263C338.366 84.4564 337.041 84.4865 335.716 84.4865C335.053 84.4865 334.571 84.1251 334.571 83.4324C334.571 82.7397 335.083 82.4084 335.716 82.4084H336.198C337.433 82.4084 338.667 82.4084 339.902 82.3782C340.113 80.6314 340.294 78.9147 340.474 77.1678C339.209 77.1979 337.914 77.2281 336.619 77.2281C335.957 77.2281 335.294 77.0172 335.294 76.204C335.294 75.3909 335.896 75.2102 336.589 75.2102H336.83C338.125 75.2102 339.42 75.18 340.715 75.1499C340.866 73.9151 340.986 71.6863 341.227 70.6021C341.468 69.4877 342.282 69.0962 343.366 69.0962C344.601 69.0962 345.775 69.6383 345.775 71.0237C345.775 71.9574 345.323 73.9753 345.203 74.9993Z" fill="#4AA9D5"/>
<path d="M302.498 78.3984C303.427 77.7401 304.318 77.1205 305.363 76.6945C306.564 76.2299 307.841 75.9588 309.119 75.9588C312.256 75.9588 314.928 77.6239 314.928 80.9928C314.928 82.3094 314.734 84.3617 314.502 86.2592C314.386 87.3434 314.308 88.8149 314.308 89.4732C314.308 90.751 314.347 92.1838 316.012 92.1838C318.684 92.1838 320.659 89.086 321.627 87.1498C322.363 85.6783 322.556 85.446 323.253 85.446C323.989 85.446 324.725 86.0268 324.725 86.8013C324.725 87.6532 323.447 89.783 322.944 90.5574C321.046 93.5778 317.793 96.4046 313.998 96.4046C310.397 96.4046 308.577 94.1974 308.577 90.7123C308.577 89.783 308.771 87.6532 308.964 86.0268C309.119 84.6328 309.274 83.2 309.274 81.7673C309.274 80.1796 308.616 78.9405 306.873 78.9405C304.047 78.9405 301.994 81.5737 300.755 83.8196C299.361 86.3366 298.045 90.2864 297.193 93.0744C296.728 94.6234 296.302 95.9012 294.405 95.9012C292.894 95.9012 291.423 94.9719 291.423 93.3455C291.423 92.3387 293.127 87.4983 295.295 82.0383C297.928 75.4167 301.142 67.2848 301.994 65.0389C302.653 63.2576 303.04 62.1733 304.744 62.1733C306.138 62.1733 308.229 62.9865 308.229 64.6516C308.229 65.4648 307.338 67.401 306.796 68.6014C305.557 71.2346 303.659 75.5328 302.498 78.3984Z" fill="#4AA9D5"/>
<path d="M279.411 60.6631C279.953 60.6631 281.154 61.5538 281.889 62.1346C282.548 62.6768 283.632 63.5674 283.632 64.3031C283.632 65.0389 282.935 65.7359 282.161 65.7359C281.58 65.7359 281.192 65.3099 280.844 64.884C280.224 64.1095 279.527 63.4125 278.792 62.7155C278.521 62.4444 278.249 62.1734 278.249 61.7474C278.249 61.1278 278.792 60.6631 279.411 60.6631ZM260.669 70.2665C261.521 70.1891 262.876 70.0729 263.844 70.0729C270.001 70.0729 271.434 73.2482 271.434 78.863C271.434 83.0451 270.892 87.4209 269.266 91.2932C268.259 93.694 266.555 95.7851 263.728 95.7851C261.908 95.7851 260.127 94.9719 258.539 94.1587C257.262 93.5004 256.332 93.0357 256.332 92.1451C256.332 91.4094 256.952 90.7123 257.687 90.7123C257.997 90.7123 258.23 90.7898 258.927 91.2545C259.817 91.8353 260.863 92.3774 261.676 92.3774C262.876 92.3774 263.573 90.9447 264.154 89.4345C265.471 85.9494 265.936 82.2707 265.936 78.5533C265.936 76.2686 265.897 74.6422 265.239 73.5967C264.619 72.6673 263.573 72.3963 262.528 72.3963C261.715 72.3963 260.669 72.5512 259.895 72.6673C258.462 76.8882 257.068 81.1477 255.674 85.4073C254.861 87.9243 254.086 90.3251 253.234 92.9196C252.808 94.2362 252.034 95.2817 250.562 95.2817C249.052 95.2817 247.465 94.3523 247.465 92.7259C247.465 91.7191 248.123 89.9766 248.51 89.0085C250.291 83.9745 252.073 78.9405 253.815 73.8678C252.421 74.255 251.027 74.6422 249.672 75.1069C248.588 75.5328 248.2 75.5716 248.007 75.5716C247.193 75.5716 246.651 74.8358 246.651 74.0614C246.651 72.9771 247.619 72.6286 248.51 72.3963C250.601 71.8541 252.692 71.3895 254.783 71.0022C255.403 69.1822 256.913 64.7291 257.533 63.2963C257.881 62.5219 258.656 62.0572 259.546 62.0572C260.863 62.0572 262.489 62.9091 262.489 64.3806C262.489 65.3874 261.095 69.0661 260.669 70.2665ZM275.81 62.638C276.429 62.638 277.746 63.7223 278.521 64.458C279.489 65.3099 280.341 66.1231 280.341 66.8589C280.341 67.6333 279.605 68.3303 278.83 68.3303C278.172 68.3303 277.785 67.8657 277.436 67.3623C276.778 66.3942 276.004 65.5035 275.19 64.6516C274.919 64.3806 274.687 64.1095 274.687 63.7223C274.687 63.1027 275.229 62.638 275.81 62.638ZM272.983 65.8908C273.448 65.8908 273.835 66.1618 274.145 66.4716C275.5 67.7108 276.662 69.221 277.785 70.6925C279.179 72.3963 281.309 75.3005 281.309 76.8882C281.309 78.6307 279.682 79.9086 278.056 79.9086C276.352 79.9086 275.965 78.7469 275.461 77.0431C274.493 73.558 273.68 71.5444 271.783 68.4465C271.55 68.098 271.395 67.7495 271.395 67.3623C271.395 66.5103 272.131 65.8908 272.983 65.8908Z" fill="#4AA9D5"/>
<path d="M223.325 74.9993C225.012 74.9391 226.698 74.909 228.385 74.7885C229.047 74.7283 229.71 74.668 230.132 74.668C230.734 74.668 231.065 75.1499 231.065 75.7222C231.065 76.3848 230.553 76.6859 229.951 76.7161C227.662 76.8365 225.343 76.9269 223.024 77.0172C222.783 78.7641 222.572 80.5109 222.361 82.2277C224.138 82.1674 225.915 82.0771 227.692 81.9566C228.385 81.8964 228.837 81.8662 229.409 81.8662C229.981 81.8662 230.343 82.3481 230.343 82.8902C230.343 83.6131 229.8 83.8841 229.168 83.9444C226.819 84.0649 224.47 84.1552 222.15 84.2456C221.97 85.7213 221.819 87.1971 221.819 88.6729C221.819 92.4979 224.048 93.5219 227.542 93.5219C231.035 93.5219 233.957 92.2871 233.957 88.3416C233.957 86.6851 233.535 85.0587 232.933 83.5528C232.752 83.1011 232.722 82.9806 232.722 82.7999C232.722 82.2879 233.204 81.8964 233.686 81.8964C234.258 81.8964 234.589 82.4385 235.161 83.3721C236.246 85.1491 237.36 87.2272 237.36 89.3656C237.36 91.2329 236.426 92.9798 234.86 94.0038C232.872 95.2989 229.68 95.5699 227.361 95.5699C224.861 95.5699 222.03 95.329 219.892 93.9436C217.994 92.7388 217.512 90.6306 217.512 88.5223C217.512 87.167 217.663 85.7816 217.813 84.4263C216.488 84.4564 215.163 84.4865 213.838 84.4865C213.175 84.4865 212.693 84.1251 212.693 83.4324C212.693 82.7397 213.205 82.4084 213.838 82.4084H214.32C215.555 82.4084 216.789 82.4084 218.024 82.3782C218.235 80.6314 218.416 78.9147 218.596 77.1678C217.332 77.1979 216.036 77.2281 214.741 77.2281C214.079 77.2281 213.416 77.0172 213.416 76.204C213.416 75.3909 214.019 75.2102 214.711 75.2102H214.952C216.247 75.2102 217.542 75.18 218.837 75.1499C218.988 73.9151 219.108 71.6863 219.349 70.6021C219.59 69.4877 220.404 69.0962 221.488 69.0962C222.723 69.0962 223.897 69.6383 223.897 71.0237C223.897 71.9574 223.445 73.9753 223.325 74.9993Z" fill="#4AA9D5"/>
<path d="M201.027 60.5082C201.492 60.5082 202.15 61.0116 203.041 61.941C203.97 62.9091 204.822 63.7997 204.822 64.5742C204.822 65.3486 204.086 66.0069 203.312 66.0069C202.615 66.0069 202.266 65.4648 201.956 64.9227C201.453 64.0708 200.911 63.2189 200.291 62.4444C199.981 62.0184 199.904 61.8248 199.904 61.5538C199.904 60.9342 200.407 60.5082 201.027 60.5082ZM197.193 61.8636C197.735 61.8636 198.549 62.638 199.168 63.3738C199.749 64.032 201.143 65.6197 201.143 66.5103C201.143 67.3235 200.369 67.9818 199.555 67.9818C198.858 67.9818 198.51 67.401 198.239 66.8588C197.774 65.852 197.193 64.8452 196.535 63.9159C196.109 63.335 196.07 63.1801 196.07 62.9478C196.07 62.3282 196.612 61.8636 197.193 61.8636ZM186.196 70.6924H197.387C199.865 70.6924 200.872 72.4737 200.872 74.7197C200.872 79.4826 200.369 84.4392 199.439 89.0085C198.742 92.3774 198.045 95.514 194.328 95.514C192.392 95.514 188.79 94.1974 186.97 93.3842C186.351 93.1132 185.693 92.6872 185.693 91.874C185.693 91.177 186.273 90.5574 186.97 90.5574C187.203 90.5574 187.667 90.751 188.326 91.0221C189.216 91.4093 190.843 91.8353 191.501 91.8353C192.198 91.8353 192.74 91.5255 193.089 90.9059C193.824 89.5119 194.173 87.1498 194.367 85.5621C194.792 82.2319 195.18 78.8243 195.18 75.4554C195.18 74.4486 195.18 73.1707 193.824 73.1707H186.196C185.654 80.1409 184.337 86.3366 178.645 91.0221C176.012 93.1906 171.133 95.5914 170.048 95.5914C169.351 95.5914 168.771 94.9719 168.771 94.2749C168.771 93.5778 169.351 93.1519 170.319 92.6485C177.948 88.5825 180.233 81.4188 180.465 73.1707H171.791C171.016 73.1707 170.319 72.7835 170.319 71.9316C170.319 71.1184 171.016 70.6924 171.791 70.6924H180.465V64.8452C180.465 63.1027 181.627 62.1346 183.447 62.1346C185.886 62.1346 186.196 63.3738 186.196 64.8452V70.6924Z" fill="#4AA9D5"/>
<path d="M149.497 73.132C149.226 80.7992 148.8 88.8536 141.21 92.9582C138.461 94.4685 135.363 95.2429 132.304 95.785C131.297 95.9787 131.22 95.9787 130.987 95.9787C130.29 95.9787 129.709 95.3978 129.709 94.6621C129.709 93.8489 130.329 93.5391 131.065 93.3455C137.028 91.9127 140.087 89.2408 141.636 85.5621C143.069 82.1932 143.301 78.0111 143.418 73.132H134.86C133.001 76.2298 130.716 78.9405 127.812 81.1477C126.883 81.8447 126.573 82.0383 126.147 82.0383C125.411 82.0383 124.753 81.38 124.753 80.6443C124.753 80.2183 125.024 79.9085 125.876 79.0566C129.09 75.92 131.104 70.8086 131.568 66.2392C131.839 63.5286 132.033 62.212 134.744 62.212C136.254 62.212 137.919 63.0252 137.919 64.729C137.919 66.1618 136.718 69.2984 136.099 70.6537H157.28C158.016 70.6537 158.752 71.0409 158.752 71.8928C158.752 72.7835 158.016 73.132 157.28 73.132H149.497Z" fill="#4AA9D5"/>
<path d="M100.691 74.9993C102.377 74.9391 104.064 74.909 105.751 74.7885C106.413 74.7283 107.076 74.668 107.497 74.668C108.1 74.668 108.431 75.1499 108.431 75.7222C108.431 76.3848 107.919 76.6859 107.317 76.7161C105.028 76.8365 102.709 76.9269 100.39 77.0172C100.149 78.7641 99.9378 80.5109 99.727 82.2277C101.504 82.1674 103.281 82.0771 105.058 81.9566C105.751 81.8964 106.202 81.8662 106.775 81.8662C107.347 81.8662 107.708 82.3481 107.708 82.8902C107.708 83.6131 107.166 83.8841 106.534 83.9444C104.184 84.0649 101.835 84.1552 99.5161 84.2456C99.3354 85.7213 99.1848 87.1971 99.1848 88.6729C99.1848 92.4979 101.414 93.5219 104.907 93.5219C108.401 93.5219 111.322 92.2871 111.322 88.3416C111.322 86.6851 110.901 85.0587 110.298 83.5528C110.118 83.1011 110.088 82.9806 110.088 82.7999C110.088 82.2879 110.569 81.8964 111.051 81.8964C111.624 81.8964 111.955 82.4385 112.527 83.3721C113.611 85.1491 114.726 87.2272 114.726 89.3656C114.726 91.2329 113.792 92.9798 112.226 94.0038C110.238 95.2989 107.046 95.5699 104.727 95.5699C102.227 95.5699 99.3957 95.329 97.2573 93.9436C95.3599 92.7388 94.878 90.6306 94.878 88.5223C94.878 87.167 95.0286 85.7816 95.1791 84.4263C93.854 84.4564 92.5288 84.4865 91.2036 84.4865C90.541 84.4865 90.0591 84.1251 90.0591 83.4324C90.0591 82.7397 90.5711 82.4084 91.2036 82.4084H91.6855C92.9203 82.4084 94.1551 82.4084 95.39 82.3782C95.6008 80.6314 95.7815 78.9147 95.9622 77.1678C94.6973 77.1979 93.4022 77.2281 92.1071 77.2281C91.4445 77.2281 90.7819 77.0172 90.7819 76.204C90.7819 75.3909 91.3843 75.2102 92.077 75.2102H92.3179C93.613 75.2102 94.9081 75.18 96.2032 75.1499C96.3538 73.9151 96.4742 71.6863 96.7152 70.6021C96.9561 69.4877 97.7693 69.0962 98.8535 69.0962C100.088 69.0962 101.263 69.6383 101.263 71.0237C101.263 71.9574 100.811 73.9753 100.691 74.9993Z" fill="#4AA9D5"/>
<path d="M56.359 65.2712H78.044C78.7023 65.2712 79.3606 65.581 79.3606 66.3554C79.3606 67.1299 78.7023 67.4397 78.044 67.4397H54.7326C52.9514 69.5695 51.0539 71.5831 48.9241 73.3256C48.3433 73.829 46.6007 75.3005 45.865 75.3005C45.2454 75.3005 44.7808 74.7971 44.7808 74.1775C44.7808 73.7516 45.0518 73.4805 45.3229 73.1707C48.0335 70.189 49.9309 66.549 51.2088 62.7155C51.596 61.5538 52.4867 61.0504 53.6871 61.0504C55.0424 61.0504 57.1335 61.7474 57.1335 63.4125C57.1335 64.1095 56.7462 64.7291 56.359 65.2712ZM75.4108 72.8996H53.6871C53.0288 72.8996 52.4092 72.5899 52.4092 71.8154C52.4092 71.0797 53.0288 70.7699 53.6871 70.7699H75.4108C76.0691 70.7699 76.7274 71.0797 76.7274 71.8154C76.7274 72.5899 76.0691 72.8996 75.4108 72.8996ZM69.5249 78.3596H48.8467C48.1884 78.3596 47.5301 78.0498 47.5301 77.2754C47.5301 76.5009 48.1884 76.1911 48.8467 76.1911H71.6159C73.01 76.1911 74.5976 76.1911 75.6044 77.3141C76.1465 77.9337 76.3789 78.7856 76.3789 79.5988C76.3789 80.1796 76.3014 80.7217 76.224 81.2639C75.9142 83.3549 75.7206 85.4847 75.7206 87.5757C75.7206 88.3889 75.7206 92.0676 76.8823 92.0676C77.6567 92.0676 78.1214 90.9447 78.4699 90.4025C78.7023 90.0153 79.0508 89.7442 79.5155 89.7442C80.561 89.7442 81.4903 90.9059 81.4903 91.9127C81.4903 92.7259 80.6772 93.7714 80.2125 94.391C79.0508 95.9399 77.3857 97.4501 75.3334 97.4501C73.0487 97.4501 71.8095 95.9399 71.1512 93.9651C70.493 91.9515 70.4155 89.4344 70.4155 87.7306C70.4155 85.2523 70.6091 82.7353 70.9189 80.2958C70.9576 79.986 70.9964 79.7149 70.9964 79.4439C70.9964 78.592 70.2606 78.3596 69.5249 78.3596ZM55.8169 88.6987C53.8807 86.9949 51.7897 85.5621 49.5824 84.2455C49.1952 84.0132 48.8854 83.7034 48.8854 83.2C48.8854 82.6192 49.3888 82.1158 49.9697 82.1158C51.0539 82.1158 56.6301 85.1749 57.8692 85.8719C58.6049 84.6715 59.2632 83.3936 59.7666 82.0383C60.3475 80.5668 60.7734 79.56 62.6321 79.56C64.1036 79.56 66.1172 80.4507 66.1172 82.1932C66.1172 82.9677 65.6526 83.9358 64.9943 84.9038C64.0649 86.2979 62.787 87.7306 62.0126 88.5438C63.6002 89.6668 65.5751 90.9059 66.853 92.3C67.2789 92.7646 67.5887 93.268 67.5887 93.9263C67.5887 95.4753 66.0785 96.908 64.5296 96.908C63.6777 96.908 63.1356 96.4821 62.6321 95.8238C61.4317 94.3136 60.1926 92.8421 58.7986 91.4868C56.2041 93.5391 53.2611 95.2042 50.1633 96.3659C49.1565 96.7531 47.4914 97.3727 46.8331 97.3727C46.2522 97.3727 45.7876 96.8693 45.7876 96.3272C45.7876 95.7463 46.1748 95.3978 46.6782 95.2042C50.1633 93.8102 53.3773 91.6029 55.8169 88.6987Z" fill="#4AA9D5"/>
<path d="M17.7628 64.8065V63.7997C17.7628 61.5925 18.8858 60.9342 20.4735 60.9342C21.9449 60.9342 23.2228 61.5538 23.2228 63.761V64.8065H35.8853C36.5436 64.8065 37.2019 65.1163 37.2019 65.8908C37.2019 66.6265 36.5436 66.9363 35.8853 66.9363H11.9156C11.1412 66.9363 10.7927 67.2848 10.7927 68.0593V75.4941C10.7927 78.6694 10.6765 81.9222 10.1344 85.0587C9.47607 88.6987 7.50119 91.9128 5.02291 94.5847C4.82929 94.7783 4.59695 95.0493 4.24844 95.3978C3.5127 96.1723 2.5059 97.0629 1.92505 97.0629C1.34421 97.0629 0.879527 96.5595 0.879527 95.9787C0.879527 95.6302 1.03442 95.3978 1.22804 95.1268C3.70632 91.9127 4.90674 88.2728 5.41014 84.2843C4.63568 85.0587 3.35781 86.569 2.15739 86.569C0.91825 86.569 0.337402 85.1362 0.337402 84.0907C0.337402 83.0839 0.647188 82.7354 1.65399 82.2707C2.93186 81.6898 4.36461 81.1477 5.6812 80.4507C5.6812 79.7537 5.71992 79.0567 5.71992 78.3209V76.5396C5.29397 76.8882 4.79057 77.1205 4.24844 77.1205C3.08675 77.1205 2.77696 76.1524 2.46718 75.2618C2.0025 73.9065 1.42165 72.7061 0.724634 71.3507C0.569741 71.0797 0.414849 70.8473 0.414849 70.5376C0.414849 69.918 0.879527 69.4533 1.46037 69.4533C2.46718 69.4533 5.02291 71.7767 5.71992 72.5124V68.5239C5.71992 66.0069 7.3463 64.8065 9.74714 64.8065H17.7628ZM17.182 90.4413V95.1268C17.182 97.0629 15.9816 97.5663 14.665 97.5663C13.3871 97.5663 12.1867 97.1404 12.1867 95.1268V80.2571C12.1867 77.7401 13.8131 76.5396 16.2139 76.5396H21.4803V72.5512H12.7288C12.0318 72.5512 11.4122 72.2414 11.4122 71.5056C11.4122 70.7312 12.0318 70.4214 12.7288 70.4214H35.6529C36.3112 70.4214 36.9695 70.7312 36.9695 71.5056C36.9695 72.2414 36.3112 72.5512 35.6529 72.5512H26.3207V76.5396H31.7032C34.104 76.5396 35.7304 77.7401 35.7304 80.2571V93.3068C35.7304 95.8238 34.104 97.0242 31.7032 97.0242H27.1726C26.5143 97.0242 25.856 96.7144 25.856 95.94C25.856 95.2042 26.5143 94.8944 27.1726 94.8944H29.4572C30.2704 94.8944 30.5802 94.5459 30.5802 93.7715V90.5574C30.3866 90.8672 30.0768 91.0608 29.6896 91.0608C29.2249 91.0608 28.9151 90.7898 28.2955 90.2089C26.3981 88.5051 24.9266 86.4528 23.9198 84.0907C22.913 86.4528 21.4415 88.5051 19.5054 90.2089C18.8858 90.7898 18.576 91.0608 18.1113 91.0608C17.7241 91.0608 17.3756 90.8285 17.182 90.4413ZM17.182 89.5506C17.3369 89.2409 17.5305 88.9698 17.7628 88.6987C20.2024 85.5621 21.093 82.5417 21.4028 78.6694H18.305C17.5305 78.6694 17.182 79.0179 17.182 79.8311V89.5506ZM26.3981 78.6694C26.7079 82.503 27.7147 85.6396 30.0768 88.6987C30.2704 88.9698 30.4253 89.2021 30.5802 89.4732V79.8311C30.5802 79.0179 30.2704 78.6694 29.4572 78.6694H26.3981Z" fill="#4AA9D5"/>
<path d="M293.16 5.49976L291.882 23.7771C291.805 24.9388 291.224 25.6745 289.946 25.6745C288.668 25.6745 288.165 24.8614 288.087 23.7771L286.809 5.49976C286.693 3.67977 288.32 2.59552 289.985 2.59552C291.727 2.59552 293.237 3.64105 293.16 5.49976ZM289.985 27.572C291.921 27.572 293.509 29.1596 293.509 31.0958C293.509 32.9932 291.882 34.5809 289.985 34.5809C288.087 34.5809 286.461 32.9932 286.461 31.0958C286.461 29.1596 288.087 27.572 289.985 27.572Z" fill="#4AA9D5"/>
<path d="M249.878 4.60911V3.60231C249.878 3.17635 249.878 2.78912 250.072 2.40189C250.537 1.54998 251.582 1.12402 252.473 1.12402C253.402 1.12402 254.409 1.54998 254.874 2.40189C255.067 2.78912 255.106 3.2538 255.106 3.67975V4.60911H261.612C262.27 4.60911 262.928 4.91889 262.928 5.65463C262.928 6.4291 262.27 6.73888 261.612 6.73888H259.714C260.45 7.12612 260.992 7.82313 260.992 8.67504C260.992 10.0304 259.83 10.7274 258.785 11.3082C257.933 11.7729 257.042 12.1601 256.113 12.5086H263.006C263.703 12.5086 264.322 12.8184 264.322 13.5929C264.322 14.3286 263.703 14.6384 263.006 14.6384H241.437C240.779 14.6384 240.12 14.3286 240.12 13.5929C240.12 12.8184 240.779 12.5086 241.437 12.5086H247.361C246.432 12.2376 246.239 11.6955 245.851 10.6886C245.541 9.83674 245.077 9.101 244.69 8.36526C244.457 7.9393 244.264 7.47462 244.264 7.28101C244.264 7.08739 244.341 6.9325 244.457 6.73888H243.063C242.405 6.73888 241.747 6.4291 241.747 5.65463C241.747 4.91889 242.405 4.60911 243.063 4.60911H249.878ZM233.653 30.4375V35.0068C233.653 37.0204 232.569 37.4851 231.369 37.4851C230.168 37.4851 229.045 37.0591 229.045 35.0843V5.34485C229.045 3.2538 230.517 2.40189 232.453 2.40189H238.649C240.159 2.40189 241.476 3.09891 241.476 4.95762C241.476 5.30613 241.437 5.65464 241.321 5.96442L237.719 15.2193C237.642 15.4516 237.603 15.6065 237.603 15.6839C237.603 15.8388 237.642 15.9163 237.758 16.1099C239.849 19.5175 241.088 22.0345 241.088 25.7907C241.088 27.3783 240.856 29.2371 239.539 30.2826C238.881 30.8247 238.145 30.9409 237.332 30.9409H234.776C234.312 30.9409 233.886 30.8247 233.653 30.4375ZM233.653 29.2371C233.963 28.8498 234.196 28.7724 234.776 28.7724H235.125C236.558 28.7724 236.596 26.0618 236.596 24.9775C236.596 21.9958 235.628 19.4788 234.312 16.8844C234.079 16.4197 233.886 15.9937 233.886 15.4903C233.886 15.2967 233.925 15.1031 233.963 14.9482L236.635 5.57719C236.674 5.46102 236.713 5.30613 236.713 5.22868C236.713 4.72528 236.248 4.57039 235.861 4.57039H234.66C233.886 4.57039 233.653 4.80273 233.653 5.57719V29.2371ZM246.742 6.73888C247.865 7.28101 248.949 7.9393 249.956 8.71377C250.575 9.21717 251.04 9.99163 251.04 10.6499C251.04 11.5793 250.382 12.1989 249.53 12.5086H254.293C254.099 12.2763 253.944 12.044 253.944 11.7342C253.944 11.4631 254.099 11.2308 254.37 10.8048C254.912 9.87546 255.261 9.21717 255.726 8.44271C256.035 7.90058 256.539 7.00995 256.887 6.73888H246.742ZM255.106 27.3783V29.7792H262.889C263.548 29.7792 264.206 30.1277 264.206 30.8634C264.206 31.6379 263.548 31.9477 262.889 31.9477H255.106V34.697C255.106 36.6719 253.867 37.4076 252.473 37.4076C251.118 37.4076 249.878 36.8655 249.878 34.7357V31.9477H241.321C240.662 31.9477 240.004 31.6379 240.004 30.8634C240.004 30.1277 240.662 29.7792 241.321 29.7792H249.878V27.3783H245.696C243.876 27.3783 242.599 26.4877 242.599 24.5903V19.2465C242.599 17.3103 243.876 16.4584 245.696 16.4584H259.288C261.069 16.4584 262.386 17.3103 262.386 19.2465V24.5903C262.386 26.4877 261.069 27.3783 259.288 27.3783H255.106ZM257.468 20.7567V19.5563C257.468 18.7818 257.275 18.5882 256.539 18.5882H248.484C247.749 18.5882 247.555 18.7818 247.555 19.5563V20.7567H257.468ZM257.468 22.9252H247.555V24.2805C247.555 25.0162 247.749 25.2098 248.484 25.2098H256.539C257.275 25.2098 257.468 25.0162 257.468 24.2805V22.9252Z" fill="#4AA9D5"/>
<path d="M193.469 9.798V34.7745C193.469 35.4328 193.276 36.2459 192.966 36.6332C192.462 37.2915 191.765 37.4464 190.875 37.4464C189.984 37.4464 188.977 37.1366 188.629 36.2459C188.474 35.82 188.358 35.4328 188.358 34.6196V17.1941C187.506 18.2397 186.731 19.2077 185.686 20.2145C185.415 20.4856 185.144 20.6405 184.756 20.6405C184.214 20.6405 183.711 20.1758 183.711 19.6337C183.711 19.2852 183.866 19.0141 184.059 18.7431C187.351 13.6703 189.248 8.71375 190.294 3.36995C190.604 1.85975 191.223 0.969116 192.85 0.969116C194.321 0.969116 196.219 1.85975 196.219 3.52485C196.219 4.37676 195.405 6.42909 193.469 9.798ZM212.482 21.2988C213.76 25.2873 217.052 29.8179 220.343 32.4898C220.653 32.7221 220.924 33.0319 220.924 33.4966C220.924 34.0774 220.459 34.5808 219.84 34.5808C219.569 34.5808 218.02 33.7289 217.052 33.0706C216.626 32.7609 216.316 32.5672 216.122 32.4123C213.915 30.786 211.901 28.8498 210.198 26.72V34.8132C210.198 35.4715 210.12 36.1298 209.694 36.6332C209.113 37.2915 208.378 37.4464 207.603 37.4464C206.403 37.4464 205.667 37.0978 205.28 36.2072C205.125 35.82 205.047 35.4715 205.047 34.8906V26.8362C203.034 29.5468 200.556 31.9477 197.651 33.8451C196.761 34.4259 195.56 35.0068 195.25 35.0068C194.631 35.0068 194.205 34.5034 194.205 33.9613C194.205 33.4191 194.553 33.1094 194.941 32.7996C198.31 30.0889 201.524 25.4809 202.763 21.2988H195.676C195.018 21.2988 194.36 20.9503 194.36 20.2145C194.36 19.4401 195.018 19.1303 195.676 19.1303H205.047V15.4516H200.594C198.658 15.4516 197.187 14.5997 197.187 12.5086V5.34484C197.187 3.25379 198.658 2.40187 200.594 2.40187H214.728C216.626 2.40187 218.136 3.25379 218.136 5.34484V12.5086C218.136 14.5997 216.626 15.4516 214.728 15.4516H210.198V19.1303H219.181C219.878 19.1303 220.498 19.4401 220.498 20.2145C220.498 20.9503 219.878 21.2988 219.181 21.2988H212.482ZM211.785 4.57037H203.46C202.685 4.57037 202.414 4.80271 202.414 5.57718V12.2763C202.414 13.0508 202.685 13.2831 203.46 13.2831H211.785C212.56 13.2831 212.792 13.0508 212.792 12.2763V5.57718C212.792 4.80271 212.56 4.57037 211.785 4.57037Z" fill="#4AA9D5"/>
<path d="M151.272 6.50652C151.272 7.90055 150.033 9.37204 148.6 9.37204C147.516 9.37204 146.935 8.67502 146.044 7.12609C145.27 5.77078 143.682 4.14441 142.482 2.94399C142.25 2.71165 142.133 2.55676 142.133 2.24697C142.133 1.66612 142.637 1.16272 143.218 1.16272C144.07 1.16272 146.974 2.6342 147.903 3.1376C149.375 3.91207 151.272 4.99632 151.272 6.50652ZM157.003 18.7043C157.274 18.1622 157.7 18.0073 158.242 18.0073H164.012V12.8958H159.52C158.862 12.8958 158.204 12.5861 158.204 11.8116C158.204 11.0759 158.862 10.7661 159.52 10.7661H164.012V7.78438C164.012 6.42907 164.593 5.22865 166.568 5.22865C168.698 5.22865 169.201 6.50652 169.201 7.93928V10.7661H173.693C174.351 10.7661 175.009 11.0759 175.009 11.8116C175.009 12.5861 174.351 12.8958 173.693 12.8958H169.201V18.0073H175.358C176.016 18.0073 176.674 18.3171 176.674 19.0916C176.674 19.866 176.016 20.1758 175.358 20.1758H158.242C157.661 20.1758 157.158 19.9822 156.964 19.3626C156.655 24.9 154.951 30.5923 151.388 34.9293C150.691 35.7812 149.336 37.2527 148.6 37.2527C148.019 37.2527 147.516 36.7493 147.516 36.1685C147.516 35.9749 147.671 35.7038 147.981 35.2004C151.311 29.8179 151.737 23.932 151.737 17.8911V6.19673C151.737 3.67973 153.363 2.47931 155.764 2.47931H175.358C176.016 2.47931 176.674 2.78909 176.674 3.56356C176.674 4.2993 176.016 4.60908 175.358 4.60908H158.126C157.429 4.60908 157.042 4.99632 157.042 5.69333V16.652C157.042 17.349 157.042 18.0073 157.003 18.7043ZM149.568 16.3035C149.568 17.7362 148.29 19.169 146.819 19.169C146.006 19.169 145.425 18.6656 145.038 18.0073C143.876 16.1099 142.482 14.406 140.933 12.8184C140.739 12.6248 140.584 12.4312 140.584 12.1214C140.584 11.5793 141.049 11.1146 141.591 11.1146C142.25 11.1146 145.27 12.5086 146.122 13.012C148.639 14.4835 149.568 15.0256 149.568 16.3035ZM140.972 34.3098C140.972 33.7289 141.32 33.1481 141.746 32.5285C144.186 28.966 146.161 25.0549 147.748 20.989C147.942 20.5243 148.174 20.1371 148.755 20.1371C149.297 20.1371 149.839 20.5243 149.839 21.1052C149.839 21.6473 149.142 24.4354 148.91 25.2873C148.135 28.2302 147.051 31.6766 146.161 34C145.425 35.9361 144.96 36.9817 143.644 36.9817C142.288 36.9817 140.972 35.6651 140.972 34.3098ZM164.012 34.3485V27.9592H158.746C158.087 27.9592 157.429 27.6494 157.429 26.9136C157.429 26.1392 158.087 25.8294 158.746 25.8294H164.012V23.3124C164.012 21.9571 164.67 20.7954 166.606 20.7954C168.698 20.7954 169.201 21.9183 169.201 23.506V25.8294H173.925C174.583 25.8294 175.242 26.1392 175.242 26.9136C175.242 27.6494 174.583 27.9592 173.925 27.9592H169.201V34.3485H175.358C176.016 34.3485 176.674 34.6583 176.674 35.394C176.674 36.1685 176.016 36.4783 175.358 36.4783H155.532C154.873 36.4783 154.215 36.1685 154.215 35.394C154.215 34.6583 154.873 34.3485 155.532 34.3485H164.012Z" fill="#4AA9D5"/>
<path d="M112.289 34V22.809H102.143C101.485 22.809 100.827 22.4992 100.827 21.7247C100.827 20.9503 101.485 20.6405 102.143 20.6405H112.289V10.7661H104.66C103.072 13.3992 101.175 15.8388 99.0065 18.0073C98.6967 18.3171 98.3482 18.6269 97.9223 18.6269C97.3027 18.6269 96.7993 18.1622 96.7993 17.5813C96.7993 17.349 96.9155 17.1554 97.0317 16.9618C99.3938 13.3218 100.827 9.06224 101.562 4.80269C101.872 3.06015 102.221 1.78228 104.312 1.78228C105.744 1.78228 107.487 2.4793 107.487 4.10567C107.487 5.38354 106.558 7.35842 105.899 8.63629H112.289V3.87333C112.289 1.66611 113.528 1.08527 114.999 1.08527C116.355 1.08527 117.671 1.62739 117.671 3.75717V8.63629H129.675C130.334 8.63629 130.992 8.94607 130.992 9.68181C130.992 10.4563 130.334 10.7661 129.675 10.7661H117.671V20.6405H127.855C128.514 20.6405 129.133 20.9503 129.133 21.7247C129.133 22.4992 128.514 22.809 127.855 22.809H117.671V34H131.689C132.347 34 133.005 34.3098 133.005 35.0455C133.005 35.82 132.347 36.1297 131.689 36.1297H98.3482C97.6512 36.1297 97.0317 35.82 97.0317 35.0455C97.0317 34.3098 97.6512 34 98.3482 34H112.289Z" fill="#4AA9D5"/>
<path d="M54.8727 18.0073H87.5938C88.4069 18.0073 89.1814 18.3558 89.1814 19.2852C89.1814 20.1758 88.4069 20.5631 87.5938 20.5631H54.8727C54.0982 20.5631 53.3237 20.1758 53.3237 19.2852C53.3237 18.3558 54.0982 18.0073 54.8727 18.0073Z" fill="#4AA9D5"/>
<path d="M122.504 131.432C122.504 132.555 121.691 133.678 120.49 133.678C120.064 133.678 119.716 133.523 119.329 133.329C116.541 131.819 113.404 131.006 110.306 130.541C109.609 130.464 108.757 130.348 108.757 129.457C108.757 128.528 109.57 128.411 110.306 128.411C113.365 128.411 116.463 128.721 119.445 129.302C120.916 129.534 122.504 129.922 122.504 131.432ZM105.892 142.236C105.001 142.236 104.343 141.422 104.343 140.532C104.343 140.106 104.498 139.719 104.846 139.486C105.388 139.138 106.395 138.673 107.131 138.363C110.461 136.892 114.101 135.653 117.78 135.653C122.698 135.653 125.718 138.751 125.718 143.668C125.718 150.135 120.916 154.162 115.147 155.982C113.907 156.37 111.623 156.989 110.384 156.989C109.841 156.989 109.454 156.525 109.454 156.021C109.454 155.247 110.074 155.092 111.081 154.898C113.83 154.356 116.618 152.846 118.322 150.639C119.987 148.47 120.839 145.488 120.839 142.778C120.839 139.99 119.484 138.054 116.541 138.054C113.365 138.054 109.648 140.145 107.053 141.81C106.705 142.042 106.318 142.236 105.892 142.236Z" fill="#4AA9D5"/>
<path d="M90.4134 124.075C90.4134 124.888 89.6776 125.546 88.9032 125.546C88.0513 125.546 87.7027 124.772 87.393 124.152C87.0832 123.494 86.7347 122.874 86.3087 122.255C85.844 121.596 85.6891 121.364 85.6891 121.015C85.6891 120.396 86.1925 119.931 86.8121 119.931C87.4317 119.931 87.9738 120.551 88.7096 121.403C89.484 122.255 90.4134 123.339 90.4134 124.075ZM82.7075 120.667C83.5206 120.667 84.0241 121.403 84.8372 122.526C85.7666 123.803 86.4249 124.772 86.4249 125.391C86.4249 126.204 85.6504 126.863 84.876 126.863C84.1402 126.863 83.753 126.32 83.5206 125.701C83.1334 124.694 82.6687 123.803 82.1653 122.913C81.9717 122.564 81.6619 121.983 81.6619 121.635C81.6619 121.093 82.1653 120.667 82.7075 120.667ZM77.7509 127.676C80.539 127.598 83.2883 127.521 86.0764 127.521C86.9283 127.521 87.664 127.831 87.664 128.799C87.664 129.883 86.8896 130.154 85.9602 130.154C83.2496 130.154 80.5002 130.193 77.7896 130.27C77.8283 133.717 77.9832 137.163 77.9832 140.648C77.9832 144.017 77.5573 147.154 75.8922 150.135C74.5756 152.536 72.4458 154.317 69.9675 155.518C68.5348 156.254 65.3595 157.454 63.7331 157.454C63.0748 157.454 62.494 156.951 62.494 156.254C62.494 155.556 62.9974 155.208 63.6169 155.014C68.1475 153.698 71.4003 151.413 72.3296 146.534C71.1292 147.967 69.1156 148.819 67.2956 148.819C63.0361 148.819 61.2161 145.062 61.2161 141.306C61.2161 137.24 63.3071 132.942 67.9152 132.942C69.5029 132.942 71.0518 133.484 72.2909 134.452C72.2909 133.097 72.2522 131.78 72.2135 130.425C68.2637 130.541 64.3527 130.696 60.4029 130.967C59.6672 131.006 59.0476 131.045 58.2344 131.122C57.3051 131.2 56.3757 131.277 55.8723 131.277C55.1366 131.277 54.6719 130.696 54.6719 129.999C54.6719 128.954 55.2527 128.683 56.6855 128.605C61.8357 128.295 66.9471 128.063 72.0973 127.831C72.0199 126.669 71.9037 125.507 71.9037 124.346C71.9037 122.603 73.1428 121.751 74.7305 121.751C76.0858 121.751 77.3637 122.371 77.6347 123.803C77.8283 124.965 77.7509 126.475 77.7509 127.676ZM69.3092 135.963C66.831 135.963 66.0565 138.596 66.0565 140.648C66.0565 142.507 66.7148 145.256 69.0769 145.256C71.5939 145.256 72.4458 142.7 72.4458 140.609C72.4458 138.634 71.7101 135.963 69.3092 135.963Z" fill="#4AA9D5"/>
<path d="M440.276 173.009C438.9 172.763 437.514 172.565 436.129 172.366C435.77 172.315 435.412 172.264 435.052 172.214C434.857 172.187 434.662 172.16 434.467 172.134C434.378 172.121 434.291 172.111 434.202 172.098C433.874 172.052 434.218 172.1 434.063 172.08C433.123 171.954 432.18 171.832 431.239 171.715C428.861 171.418 426.481 171.144 424.099 170.891C417.433 170.181 410.753 169.616 404.066 169.155C394.896 168.524 385.714 168.09 376.527 167.815C364.939 167.468 353.344 167.375 341.751 167.496C327.77 167.641 313.795 168.099 299.832 168.83C285.169 169.598 270.533 170.562 255.848 170.869C244.524 171.104 233.195 171.08 221.873 170.785C211.592 170.517 201.229 170.273 191.024 168.918C183.907 167.973 176.994 165.455 170.663 162.093C162.513 157.764 155.098 151.379 151.382 142.743C147.637 134.036 147.029 122.338 155.389 116.12C157.8 114.326 160.801 113.144 163.816 113.022C167.45 112.876 171.253 113.855 174.428 115.606C178.479 117.837 181.421 121.639 182.318 126.212C182.932 129.338 183.286 134.724 179.802 136.449C177.203 137.736 174.663 135.548 174.197 132.995C173.453 128.92 176.268 124.781 179.218 122.268C183.052 119.001 188.265 116.971 193.338 117.515C198.701 118.089 203.412 121.36 205.572 126.333C207.925 131.752 207.94 138.13 205.507 143.522C203.749 147.418 200.828 150.906 197.707 153.782C190.927 160.034 182.318 164.013 173.615 166.784C163.232 170.09 152.354 171.768 141.515 172.643C129.986 173.575 118.378 173.54 106.838 172.813C101.346 172.466 95.863 171.952 90.4022 171.277C89.0247 171.108 89.0083 168.918 90.4022 169.089C101.391 170.446 112.466 171.161 123.541 171.157C134.541 171.151 145.586 170.469 156.439 168.622C166.029 166.989 175.656 164.502 184.396 160.136C191.633 156.522 198.408 151.472 202.581 144.401C205.529 139.404 205.918 133.243 203.845 127.841C202.04 123.14 197.657 119.931 192.612 119.644C187.865 119.375 183.003 121.453 179.68 124.817C178.262 126.252 177.058 128.043 176.514 130.003C176.315 130.718 176.215 131.445 176.277 132.189C176.319 132.672 176.474 133.212 176.71 133.622C176.967 134.067 177.149 134.233 177.542 134.469C177.76 134.6 178.148 134.671 178.373 134.644C178.61 134.614 179.008 134.436 179.245 134.202C179.622 133.832 179.902 133.362 180.102 132.771C180.766 130.822 180.582 128.537 180.164 126.559C179.709 124.409 178.781 122.363 177.334 120.696C174.792 117.766 171.113 116.107 167.346 115.452C164.587 114.973 162.184 115.128 159.634 116.198C156.355 117.575 153.676 120.148 152.233 123.408C150.197 128.008 150.709 133.451 152.053 138.168C154.572 147.012 161.101 153.826 168.794 158.514C172.179 160.576 175.777 162.281 179.485 163.67C182.293 164.724 185.197 165.723 188.15 166.276C193.065 167.195 198.111 167.525 203.092 167.837C207.841 168.134 212.6 168.311 217.355 168.466C227.61 168.797 237.872 168.909 248.133 168.801C261.772 168.659 275.397 168.114 289.009 167.264C302.988 166.391 316.985 165.785 330.987 165.481C342.837 165.224 354.692 165.182 366.544 165.39C376.179 165.559 385.813 165.895 395.435 166.429C402.77 166.837 410.102 167.361 417.419 168.037C422.37 168.495 427.318 169.02 432.251 169.653C434.822 169.983 437.392 170.331 439.952 170.747C440.254 170.796 440.554 170.845 440.855 170.898C442.236 171.144 441.65 173.254 440.274 173.008L440.276 173.009Z" fill="#F49105"/>
</svg>
