<svg width="662" height="192" viewBox="0 0 662 192" fill="none" xmlns="http://www.w3.org/2000/svg">
<path d="M226.086 85.4138V78.6195C226.086 74.1327 230.06 71.3124 234.931 71.3124C240.572 71.3124 243.648 74.3891 243.648 79.9014V85.4138H259.416C267.364 85.4138 272.749 89.3879 272.749 97.7206V105.028C272.749 110.668 270.057 113.104 264.672 113.104C258.519 113.104 256.468 109.899 256.468 104.643V96.3104C256.468 93.7465 255.442 92.5928 252.75 92.5928H218.65C215.958 92.5928 214.933 93.7465 214.933 96.3104V105.028C214.933 110.54 211.984 113.104 206.728 113.104C200.447 113.104 198.652 109.643 198.652 104.259V97.7206C198.652 89.3879 204.036 85.4138 211.984 85.4138H226.086ZM157.886 183.74V85.2857C157.886 78.3631 162.757 75.5428 169.167 75.5428H191.345C196.857 75.5428 200.703 78.4913 200.703 84.0037C200.703 85.1574 200.575 86.3112 200.19 87.3368L187.627 117.847C187.242 118.745 187.114 119.129 187.114 119.514C187.114 120.027 187.371 120.539 187.755 121.052C190.447 125.026 192.498 128.872 194.293 132.974C197.113 139.256 198.395 145.922 198.395 152.716C198.395 158.101 197.498 164.382 192.883 167.843C190.447 169.638 187.883 170.023 184.935 170.023H178.269C176.089 170.023 173.91 168.869 173.91 166.433C173.91 163.869 176.089 162.844 178.269 162.844H179.423C183.012 162.844 184.294 157.844 184.294 150.281C184.294 139.897 181.089 132.461 176.602 123.231C175.961 121.949 175.32 120.539 175.32 118.873C175.32 118.232 175.448 117.591 175.577 117.078L184.166 86.824C184.294 86.3112 184.679 85.1574 184.679 84.9011C184.679 83.3627 183.14 82.7217 181.858 82.7217H176.474C173.91 82.7217 173.141 83.4909 173.141 86.0548V183.483C173.141 188.996 170.833 191.688 165.577 191.688C160.45 191.688 157.886 189.124 157.886 183.74ZM257.75 119.642H213.394C211.087 119.642 209.036 118.488 209.036 116.052C209.036 113.489 211.087 112.463 213.394 112.463H257.75C259.929 112.463 262.108 113.489 262.108 116.052C262.108 118.488 259.929 119.642 257.75 119.642ZM228.137 141.435C228.137 149.768 227.624 157.972 225.06 165.536C222.112 174.253 215.061 180.663 207.113 185.278C203.523 187.329 194.037 191.175 190.832 191.175C188.909 191.175 187.371 189.508 187.371 187.585C187.371 185.662 188.781 184.637 190.447 183.868C200.959 179.381 206.344 173.612 208.779 166.433C211.087 159.511 211.471 153.357 211.471 141.435H202.498C200.318 141.435 198.139 140.41 198.139 137.846C198.139 135.41 200.318 134.384 202.498 134.384H269.544C271.723 134.384 273.902 135.41 273.902 137.846C273.902 140.41 271.723 141.435 269.544 141.435H251.084V178.996C251.084 181.56 251.981 182.329 254.545 182.329H255.955C259.416 182.329 260.442 181.688 260.955 178.227C261.211 176.561 261.339 174.381 261.467 171.561C261.724 167.074 262.749 164.51 267.621 164.51C271.723 164.51 275.313 165.92 275.313 170.664C275.313 174.766 274.928 179.894 273.133 183.611C270.697 188.611 266.082 189.252 260.826 189.252H245.956C239.674 189.252 234.675 186.432 234.675 179.509V141.435H228.137Z" fill="white"/>
<path d="M67.3799 137.461C59.3036 155.28 48.1507 169.253 31.4853 179.765C21.7424 185.919 12.6406 190.021 10.3331 190.021C8.53834 190.021 7 188.226 7 186.432C7 184.893 7.64098 183.74 10.4613 182.458C27.383 174.509 40.0744 159.382 49.048 140.794C54.945 128.616 58.7908 107.463 58.7908 97.336V85.2857C58.7908 82.7217 57.7653 81.568 55.0732 81.568H33.6646C31.4853 81.568 29.306 80.5424 29.306 78.1067C29.306 75.5428 31.4853 74.5173 33.6646 74.5173H64.0469C71.9949 74.5173 77.3791 78.4913 77.3791 86.824V98.6179C77.3791 117.206 81.4814 134.513 91.096 150.665C99.1723 164.126 110.71 175.791 124.94 182.586C126.606 183.355 128.144 184.381 128.144 186.303C128.144 188.226 126.606 189.893 124.683 189.893C123.914 189.893 122.247 189.252 119.684 188.098C109.172 183.483 104.685 180.535 96.352 174.509C82.8915 164.767 73.6615 152.845 67.3799 137.461Z" fill="white"/>
<path fill-rule="evenodd" clip-rule="evenodd" d="M304.312 131.948C304.312 128.287 307.28 125.32 310.94 125.32H356.594C360.254 125.32 363.222 128.287 363.222 131.948C363.222 135.608 360.254 138.575 356.594 138.575H310.94C307.28 138.575 304.312 135.608 304.312 131.948Z" fill="white"/>
<path fill-rule="evenodd" clip-rule="evenodd" d="M334.662 160.955C331.002 160.955 328.035 157.987 328.035 154.327V108.673C328.035 105.013 331.002 102.045 334.662 102.045C338.322 102.045 341.289 105.013 341.289 108.673V154.327C341.289 157.987 338.322 160.955 334.662 160.955Z" fill="white"/>
<path d="M612.712 85.4149V78.6207C612.712 74.1339 616.686 71.3137 621.558 71.3137C627.198 71.3137 630.275 74.3903 630.275 79.9026V85.4149H646.042C653.99 85.4149 659.374 89.3888 659.374 97.7213V105.028C659.374 110.669 656.682 113.104 651.298 113.104C645.145 113.104 643.094 109.9 643.094 104.644V96.3112C643.094 93.7474 642.069 92.5936 639.376 92.5936H605.277C602.585 92.5936 601.56 93.7474 601.56 96.3112V105.028C601.56 110.541 598.611 113.104 593.355 113.104C587.074 113.104 585.279 109.643 585.279 104.259V97.7213C585.279 89.3888 590.663 85.4149 598.611 85.4149H612.712ZM544.514 183.738V85.2867C544.514 78.3643 549.385 75.544 555.795 75.544H577.972C583.485 75.544 587.33 78.4925 587.33 84.0047C587.33 85.1585 587.202 86.3122 586.818 87.3377L574.255 117.848C573.87 118.745 573.742 119.129 573.742 119.514C573.742 120.027 573.998 120.54 574.383 121.052C577.075 125.026 579.126 128.872 580.921 132.974C583.741 139.256 585.023 145.922 585.023 152.716C585.023 158.1 584.126 164.381 579.511 167.843C577.075 169.637 574.511 170.022 571.563 170.022H564.897C562.717 170.022 560.538 168.868 560.538 166.432C560.538 163.869 562.717 162.843 564.897 162.843H566.05C569.64 162.843 570.922 157.844 570.922 150.28C570.922 139.897 567.717 132.461 563.23 123.232C562.589 121.95 561.948 120.54 561.948 118.873C561.948 118.232 562.077 117.591 562.205 117.078L570.794 86.825C570.922 86.3122 571.306 85.1585 571.306 84.9021C571.306 83.3638 569.768 82.7228 568.486 82.7228H563.102C560.538 82.7228 559.769 83.492 559.769 86.0558V183.482C559.769 188.994 557.462 191.686 552.206 191.686C547.078 191.686 544.514 189.122 544.514 183.738ZM644.376 119.642H600.021C597.714 119.642 595.663 118.488 595.663 116.053C595.663 113.489 597.714 112.463 600.021 112.463H644.376C646.555 112.463 648.735 113.489 648.735 116.053C648.735 118.488 646.555 119.642 644.376 119.642ZM614.764 141.435C614.764 149.767 614.251 157.972 611.687 165.535C608.739 174.252 601.688 180.662 593.74 185.277C590.151 187.328 580.664 191.174 577.46 191.174C575.537 191.174 573.998 189.507 573.998 187.584C573.998 185.661 575.409 184.636 577.075 183.867C587.587 179.38 592.971 173.611 595.407 166.432C597.714 159.51 598.099 153.357 598.099 141.435H589.125C586.946 141.435 584.767 140.409 584.767 137.846C584.767 135.41 586.946 134.384 589.125 134.384H656.17C658.349 134.384 660.528 135.41 660.528 137.846C660.528 140.409 658.349 141.435 656.17 141.435H637.71V178.995C637.71 181.559 638.607 182.328 641.171 182.328H642.581C646.042 182.328 647.068 181.687 647.581 178.226C647.837 176.56 647.965 174.38 648.094 171.56C648.35 167.073 649.375 164.51 654.247 164.51C658.349 164.51 661.938 165.92 661.938 170.663C661.938 174.765 661.554 179.893 659.759 183.61C657.323 188.61 652.709 189.251 647.453 189.251H632.582C626.301 189.251 621.301 186.43 621.301 179.508V141.435H614.764Z" fill="white"/>
<path d="M424.783 100.413C424.783 105.797 419.527 110.541 414.271 110.541C410.553 110.541 408.374 107.849 407.477 104.516C404.785 95.4139 401.323 86.5686 395.17 78.8771C394.529 78.1079 394.145 77.3387 394.145 76.4414C394.145 74.5185 395.811 72.852 397.734 72.852C399.785 72.852 406.964 78.4925 410.297 81.4409C414.527 85.1585 424.783 94.6447 424.783 100.413ZM476.188 148.998V165.535C476.188 170.663 475.931 172.329 474.521 174.124C473.111 176.047 471.445 176.816 467.983 176.816C465.548 176.816 462.727 176.175 461.189 174.124C460.164 172.714 459.651 171.816 459.651 165.535V148.998H447.473V167.33C447.473 172.201 447.216 173.739 445.934 175.534C444.396 177.585 441.832 178.098 439.525 178.098C437.089 178.098 434.397 177.329 432.859 175.406C431.577 173.868 431.32 171.816 431.32 167.33V112.72C431.32 105.797 435.807 102.977 442.601 102.977H464.522C459.651 99.2596 454.78 96.0548 449.011 92.9782C447.344 92.0809 445.678 91.0553 445.678 88.7479C445.678 86.825 447.216 85.2867 449.139 85.2867C452.216 85.2867 461.958 89.0042 467.471 91.1835C468.624 90.158 475.547 85.1585 475.547 84.0047C475.547 82.9792 474.649 82.5946 473.88 82.5946H432.73C430.551 82.5946 428.372 81.5691 428.372 79.0052C428.372 76.4414 430.551 75.4159 432.73 75.4159H497.083C499.775 75.4159 502.339 77.0824 502.339 80.0308C502.339 82.21 500.672 83.6202 498.878 84.6457C491.955 88.7479 484.52 92.3372 477.341 95.7984C480.674 97.4649 482.725 99.1314 482.725 101.952C482.725 102.336 482.597 102.593 482.597 102.977H494.006C500.416 102.977 505.287 105.797 505.287 112.72V166.432C505.287 173.355 500.416 176.175 494.006 176.175H483.11C480.931 176.175 478.752 175.149 478.752 172.714C478.752 170.278 480.803 169.124 482.982 169.124H485.289C487.981 169.124 488.751 168.355 488.751 165.791V148.998H476.188ZM476.188 122.334H488.751V113.489C488.751 110.925 487.981 110.028 485.289 110.028H476.188V122.334ZM459.651 122.334V110.028H450.806C448.242 110.028 447.473 110.925 447.473 113.489V122.334H459.651ZM421.962 167.458C422.988 173.739 425.936 177.585 431.833 179.764C437.474 181.687 443.499 181.944 449.524 181.944H508.749C510.928 181.944 513.107 182.969 513.107 185.533C513.107 187.969 510.928 188.994 508.749 188.994H445.422C438.884 188.994 431.961 188.866 425.68 186.687C420.552 184.892 416.835 181.175 413.758 176.816C410.938 180.405 407.989 183.867 404.656 186.943C402.99 188.61 400.426 190.276 398.503 190.276C394.016 190.276 392.222 185.405 392.222 181.559C392.222 177.201 393.888 175.662 396.708 174.252C399.529 172.842 402.221 171.817 405.938 169.894V136.82C405.938 134.256 405.169 133.487 402.605 133.487H397.478C395.298 133.487 393.119 132.461 393.119 129.898C393.119 127.462 395.298 126.308 397.478 126.308H410.681C417.091 126.308 421.962 129.257 421.962 136.051V167.458ZM476.188 141.819H488.751V129.385H476.188V141.819ZM459.651 141.819V129.385H447.473V141.819H459.651Z" fill="white"/>
<path d="M219.086 85.4138V78.6195C219.086 74.1327 223.06 71.3124 227.931 71.3124C233.572 71.3124 236.648 74.3891 236.648 79.9014V85.4138H252.416C260.364 85.4138 265.749 89.3879 265.749 97.7206V105.028C265.749 110.668 263.057 113.104 257.672 113.104C251.519 113.104 249.468 109.899 249.468 104.643V96.3104C249.468 93.7465 248.442 92.5928 245.75 92.5928H211.65C208.958 92.5928 207.933 93.7465 207.933 96.3104V105.028C207.933 110.54 204.984 113.104 199.728 113.104C193.447 113.104 191.652 109.643 191.652 104.259V97.7206C191.652 89.3879 197.036 85.4138 204.984 85.4138H219.086ZM150.886 183.74V85.2857C150.886 78.3631 155.757 75.5428 162.167 75.5428H184.345C189.857 75.5428 193.703 78.4913 193.703 84.0037C193.703 85.1574 193.575 86.3112 193.19 87.3368L180.627 117.847C180.242 118.745 180.114 119.129 180.114 119.514C180.114 120.027 180.371 120.539 180.755 121.052C183.447 125.026 185.498 128.872 187.293 132.974C190.113 139.256 191.395 145.922 191.395 152.716C191.395 158.101 190.498 164.382 185.883 167.843C183.447 169.638 180.883 170.023 177.935 170.023H171.269C169.089 170.023 166.91 168.869 166.91 166.433C166.91 163.869 169.089 162.844 171.269 162.844H172.423C176.012 162.844 177.294 157.844 177.294 150.281C177.294 139.897 174.089 132.461 169.602 123.231C168.961 121.949 168.32 120.539 168.32 118.873C168.32 118.232 168.448 117.591 168.577 117.078L177.166 86.824C177.294 86.3112 177.679 85.1574 177.679 84.9011C177.679 83.3627 176.14 82.7217 174.858 82.7217H169.474C166.91 82.7217 166.141 83.4909 166.141 86.0548V183.483C166.141 188.996 163.833 191.688 158.577 191.688C153.45 191.688 150.886 189.124 150.886 183.74ZM250.75 119.642H206.394C204.087 119.642 202.036 118.488 202.036 116.052C202.036 113.489 204.087 112.463 206.394 112.463H250.75C252.929 112.463 255.108 113.489 255.108 116.052C255.108 118.488 252.929 119.642 250.75 119.642ZM221.137 141.435C221.137 149.768 220.624 157.972 218.06 165.536C215.112 174.253 208.061 180.663 200.113 185.278C196.523 187.329 187.037 191.175 183.832 191.175C181.909 191.175 180.371 189.508 180.371 187.585C180.371 185.662 181.781 184.637 183.447 183.868C193.959 179.381 199.344 173.612 201.779 166.433C204.087 159.511 204.471 153.357 204.471 141.435H195.498C193.318 141.435 191.139 140.41 191.139 137.846C191.139 135.41 193.318 134.384 195.498 134.384H262.544C264.723 134.384 266.902 135.41 266.902 137.846C266.902 140.41 264.723 141.435 262.544 141.435H244.084V178.996C244.084 181.56 244.981 182.329 247.545 182.329H248.955C252.416 182.329 253.442 181.688 253.955 178.227C254.211 176.561 254.339 174.381 254.467 171.561C254.724 167.074 255.749 164.51 260.621 164.51C264.723 164.51 268.313 165.92 268.313 170.664C268.313 174.766 267.928 179.894 266.133 183.611C263.697 188.611 259.082 189.252 253.826 189.252H238.956C232.674 189.252 227.675 186.432 227.675 179.509V141.435H221.137Z" fill="#4AA9D5"/>
<path d="M60.3799 137.461C52.3036 155.28 41.1507 169.253 24.4853 179.765C14.7424 185.919 5.64059 190.021 3.33307 190.021C1.53834 190.021 0 188.226 0 186.432C0 184.893 0.640976 183.74 3.46127 182.458C20.383 174.509 33.0744 159.382 42.048 140.794C47.945 128.616 51.7908 107.463 51.7908 97.336V85.2857C51.7908 82.7217 50.7653 81.568 48.0732 81.568H26.6646C24.4853 81.568 22.306 80.5424 22.306 78.1067C22.306 75.5428 24.4853 74.5173 26.6646 74.5173H57.0469C64.9949 74.5173 70.3791 78.4913 70.3791 86.824V98.6179C70.3791 117.206 74.4814 134.513 84.096 150.665C92.1723 164.126 103.71 175.791 117.94 182.586C119.606 183.355 121.144 184.381 121.144 186.303C121.144 188.226 119.606 189.893 117.683 189.893C116.914 189.893 115.247 189.252 112.684 188.098C102.172 183.483 97.6847 180.535 89.352 174.509C75.8915 164.767 66.6615 152.845 60.3799 137.461Z" fill="#4AA9D5"/>
<path fill-rule="evenodd" clip-rule="evenodd" d="M297.312 131.948C297.312 128.287 300.28 125.32 303.94 125.32H349.594C353.254 125.32 356.222 128.287 356.222 131.948C356.222 135.608 353.254 138.575 349.594 138.575H303.94C300.28 138.575 297.312 135.608 297.312 131.948Z" fill="#F49105"/>
<path fill-rule="evenodd" clip-rule="evenodd" d="M327.662 160.955C324.002 160.955 321.035 157.987 321.035 154.327V108.673C321.035 105.013 324.002 102.045 327.662 102.045C331.322 102.045 334.289 105.013 334.289 108.673V154.327C334.289 157.987 331.322 160.955 327.662 160.955Z" fill="#F49105"/>
<path d="M605.712 85.4149V78.6207C605.712 74.1339 609.686 71.3137 614.558 71.3137C620.198 71.3137 623.275 74.3903 623.275 79.9026V85.4149H639.042C646.99 85.4149 652.374 89.3888 652.374 97.7213V105.028C652.374 110.669 649.682 113.104 644.298 113.104C638.145 113.104 636.094 109.9 636.094 104.644V96.3112C636.094 93.7474 635.069 92.5936 632.376 92.5936H598.277C595.585 92.5936 594.56 93.7474 594.56 96.3112V105.028C594.56 110.541 591.611 113.104 586.355 113.104C580.074 113.104 578.279 109.643 578.279 104.259V97.7213C578.279 89.3888 583.663 85.4149 591.611 85.4149H605.712ZM537.514 183.738V85.2867C537.514 78.3643 542.385 75.544 548.795 75.544H570.972C576.485 75.544 580.33 78.4925 580.33 84.0047C580.33 85.1585 580.202 86.3122 579.818 87.3377L567.255 117.848C566.87 118.745 566.742 119.129 566.742 119.514C566.742 120.027 566.998 120.54 567.383 121.052C570.075 125.026 572.126 128.872 573.921 132.974C576.741 139.256 578.023 145.922 578.023 152.716C578.023 158.1 577.126 164.381 572.511 167.843C570.075 169.637 567.511 170.022 564.563 170.022H557.897C555.717 170.022 553.538 168.868 553.538 166.432C553.538 163.869 555.717 162.843 557.897 162.843H559.05C562.64 162.843 563.922 157.844 563.922 150.28C563.922 139.897 560.717 132.461 556.23 123.232C555.589 121.95 554.948 120.54 554.948 118.873C554.948 118.232 555.077 117.591 555.205 117.078L563.794 86.825C563.922 86.3122 564.306 85.1585 564.306 84.9021C564.306 83.3638 562.768 82.7228 561.486 82.7228H556.102C553.538 82.7228 552.769 83.492 552.769 86.0558V183.482C552.769 188.994 550.462 191.686 545.206 191.686C540.078 191.686 537.514 189.122 537.514 183.738ZM637.376 119.642H593.021C590.714 119.642 588.663 118.488 588.663 116.053C588.663 113.489 590.714 112.463 593.021 112.463H637.376C639.555 112.463 641.735 113.489 641.735 116.053C641.735 118.488 639.555 119.642 637.376 119.642ZM607.764 141.435C607.764 149.767 607.251 157.972 604.687 165.535C601.739 174.252 594.688 180.662 586.74 185.277C583.151 187.328 573.664 191.174 570.46 191.174C568.537 191.174 566.998 189.507 566.998 187.584C566.998 185.661 568.409 184.636 570.075 183.867C580.587 179.38 585.971 173.611 588.407 166.432C590.714 159.51 591.099 153.357 591.099 141.435H582.125C579.946 141.435 577.767 140.409 577.767 137.846C577.767 135.41 579.946 134.384 582.125 134.384H649.17C651.349 134.384 653.528 135.41 653.528 137.846C653.528 140.409 651.349 141.435 649.17 141.435H630.71V178.995C630.71 181.559 631.607 182.328 634.171 182.328H635.581C639.042 182.328 640.068 181.687 640.581 178.226C640.837 176.56 640.965 174.38 641.094 171.56C641.35 167.073 642.375 164.51 647.247 164.51C651.349 164.51 654.938 165.92 654.938 170.663C654.938 174.765 654.554 179.893 652.759 183.61C650.323 188.61 645.709 189.251 640.453 189.251H625.582C619.301 189.251 614.301 186.43 614.301 179.508V141.435H607.764Z" fill="#F49105"/>
<path d="M417.783 100.413C417.783 105.797 412.527 110.541 407.271 110.541C403.553 110.541 401.374 107.849 400.477 104.516C397.785 95.4139 394.323 86.5686 388.17 78.8771C387.529 78.1079 387.145 77.3387 387.145 76.4414C387.145 74.5185 388.811 72.852 390.734 72.852C392.785 72.852 399.964 78.4925 403.297 81.4409C407.527 85.1585 417.783 94.6447 417.783 100.413ZM469.188 148.998V165.535C469.188 170.663 468.931 172.329 467.521 174.124C466.111 176.047 464.445 176.816 460.983 176.816C458.548 176.816 455.727 176.175 454.189 174.124C453.164 172.714 452.651 171.816 452.651 165.535V148.998H440.473V167.33C440.473 172.201 440.216 173.739 438.934 175.534C437.396 177.585 434.832 178.098 432.525 178.098C430.089 178.098 427.397 177.329 425.859 175.406C424.577 173.868 424.32 171.816 424.32 167.33V112.72C424.32 105.797 428.807 102.977 435.601 102.977H457.522C452.651 99.2596 447.78 96.0548 442.011 92.9782C440.344 92.0809 438.678 91.0553 438.678 88.7479C438.678 86.825 440.216 85.2867 442.139 85.2867C445.216 85.2867 454.958 89.0042 460.471 91.1835C461.624 90.158 468.547 85.1585 468.547 84.0047C468.547 82.9792 467.649 82.5946 466.88 82.5946H425.73C423.551 82.5946 421.372 81.5691 421.372 79.0052C421.372 76.4414 423.551 75.4159 425.73 75.4159H490.083C492.775 75.4159 495.339 77.0824 495.339 80.0308C495.339 82.21 493.672 83.6202 491.878 84.6457C484.955 88.7479 477.52 92.3372 470.341 95.7984C473.674 97.4649 475.725 99.1314 475.725 101.952C475.725 102.336 475.597 102.593 475.597 102.977H487.006C493.416 102.977 498.287 105.797 498.287 112.72V166.432C498.287 173.355 493.416 176.175 487.006 176.175H476.11C473.931 176.175 471.752 175.149 471.752 172.714C471.752 170.278 473.803 169.124 475.982 169.124H478.289C480.981 169.124 481.751 168.355 481.751 165.791V148.998H469.188ZM469.188 122.334H481.751V113.489C481.751 110.925 480.981 110.028 478.289 110.028H469.188V122.334ZM452.651 122.334V110.028H443.806C441.242 110.028 440.473 110.925 440.473 113.489V122.334H452.651ZM414.962 167.458C415.988 173.739 418.936 177.585 424.833 179.764C430.474 181.687 436.499 181.944 442.524 181.944H501.749C503.928 181.944 506.107 182.969 506.107 185.533C506.107 187.969 503.928 188.994 501.749 188.994H438.422C431.884 188.994 424.961 188.866 418.68 186.687C413.552 184.892 409.835 181.175 406.758 176.816C403.938 180.405 400.989 183.867 397.656 186.943C395.99 188.61 393.426 190.276 391.503 190.276C387.016 190.276 385.222 185.405 385.222 181.559C385.222 177.201 386.888 175.662 389.708 174.252C392.529 172.842 395.221 171.817 398.938 169.894V136.82C398.938 134.256 398.169 133.487 395.605 133.487H390.478C388.298 133.487 386.119 132.461 386.119 129.898C386.119 127.462 388.298 126.308 390.478 126.308H403.681C410.091 126.308 414.962 129.257 414.962 136.051V167.458ZM469.188 141.819H481.751V129.385H469.188V141.819ZM452.651 141.819V129.385H440.473V141.819H452.651Z" fill="#F49105"/>
<path d="M560.78 1.96H570.42V5.36H564.1V37.4H560.78V1.96ZM569.3 1.96H569.94L570.5 1.8L573.02 3.28C572.647 4.4 572.22 5.61333 571.74 6.92C571.287 8.2 570.82 9.48 570.34 10.76C569.86 12.0133 569.394 13.1867 568.94 14.28C570.407 15.8267 571.367 17.2933 571.82 18.68C572.3 20.04 572.54 21.32 572.54 22.52C572.54 23.6667 572.407 24.6533 572.14 25.48C571.874 26.28 571.42 26.9067 570.78 27.36C570.487 27.5733 570.14 27.7467 569.74 27.88C569.367 27.9867 568.98 28.0667 568.58 28.12C567.727 28.2267 566.767 28.2533 565.7 28.2C565.674 27.72 565.58 27.16 565.42 26.52C565.287 25.88 565.087 25.3333 564.82 24.88C565.274 24.9067 565.687 24.9333 566.06 24.96C566.434 24.96 566.767 24.9467 567.06 24.92C567.594 24.8933 568.02 24.7733 568.34 24.56C568.66 24.3733 568.874 24.0667 568.98 23.64C569.087 23.1867 569.14 22.6533 569.14 22.04C569.14 21.0533 568.887 19.9467 568.38 18.72C567.9 17.4933 566.98 16.16 565.62 14.72C565.967 13.7867 566.314 12.7867 566.66 11.72C567.007 10.6267 567.34 9.54667 567.66 8.48C568.007 7.41333 568.314 6.41333 568.58 5.48C568.874 4.52 569.114 3.70667 569.3 3.04V1.96ZM576.46 9.68H591.82V12.84H576.46V9.68ZM583.94 3.52C583.194 4.61333 582.247 5.73333 581.1 6.88C579.954 8.02667 578.674 9.12 577.26 10.16C575.847 11.1733 574.394 12.0667 572.9 12.84C572.714 12.3867 572.434 11.8533 572.06 11.24C571.714 10.6267 571.38 10.1333 571.06 9.76C572.58 9.06667 574.047 8.21333 575.46 7.2C576.874 6.16 578.154 5.04 579.3 3.84C580.474 2.61333 581.394 1.42667 582.06 0.279999H585.54C586.5 1.53333 587.594 2.74667 588.82 3.92C590.074 5.06667 591.407 6.10667 592.82 7.04C594.234 7.94667 595.634 8.68 597.02 9.24C596.674 9.66667 596.314 10.1867 595.94 10.8C595.594 11.4133 595.3 11.9867 595.06 12.52C593.7 11.8533 592.327 11.04 590.94 10.08C589.554 9.09333 588.247 8.04 587.02 6.92C585.82 5.77333 584.794 4.64 583.94 3.52ZM577.1 18.84V23.44H591.06V18.84H577.1ZM573.78 15.88H594.5V26.44H573.78V15.88ZM582.22 11.52H585.66V21.96C585.66 23.4267 585.5 24.9067 585.18 26.4C584.86 27.8667 584.26 29.2933 583.38 30.68C582.5 32.04 581.207 33.3067 579.5 34.48C577.82 35.68 575.62 36.7067 572.9 37.56C572.794 37.2933 572.607 36.9733 572.34 36.6C572.1 36.2533 571.847 35.9067 571.58 35.56C571.314 35.2133 571.074 34.9467 570.86 34.76C573.394 33.96 575.42 33.08 576.94 32.12C578.46 31.1333 579.594 30.08 580.34 28.96C581.087 27.84 581.58 26.68 581.82 25.48C582.087 24.28 582.22 23.08 582.22 21.88V11.52ZM586.06 24.72C586.86 26.72 587.78 28.3333 588.82 29.56C589.86 30.7867 591.034 31.7733 592.34 32.52C593.674 33.24 595.154 33.8533 596.78 34.36C596.327 34.76 595.887 35.24 595.46 35.8C595.06 36.3867 594.767 36.9733 594.58 37.56C592.767 36.8667 591.14 36.04 589.7 35.08C588.26 34.12 586.967 32.8667 585.82 31.32C584.7 29.7733 583.714 27.8 582.86 25.4L586.06 24.72Z" fill="#4AA9D5"/>
<path d="M540.14 14.16H543.94V37.36H540.14V14.16ZM528.98 19.64H554.82V23.08H528.98V19.64ZM544.82 21.12C545.593 22.64 546.58 24.1467 547.78 25.64C548.98 27.1067 550.287 28.4667 551.7 29.72C553.113 30.9467 554.527 31.96 555.94 32.76C555.647 33 555.327 33.2933 554.98 33.64C554.633 33.9867 554.313 34.3467 554.02 34.72C553.727 35.12 553.473 35.4667 553.26 35.76C551.82 34.8 550.393 33.6 548.98 32.16C547.567 30.6933 546.26 29.1067 545.06 27.4C543.86 25.6933 542.82 23.9467 541.94 22.16L544.82 21.12ZM539.46 20.8L542.46 21.88C541.553 23.72 540.46 25.52 539.18 27.28C537.9 29.04 536.5 30.64 534.98 32.08C533.46 33.52 531.9 34.72 530.3 35.68C530.113 35.36 529.86 35.0133 529.54 34.64C529.247 34.2933 528.94 33.9467 528.62 33.6C528.3 33.2267 527.993 32.92 527.7 32.68C529.247 31.9067 530.767 30.8933 532.26 29.64C533.78 28.36 535.153 26.96 536.38 25.44C537.633 23.92 538.66 22.3733 539.46 20.8ZM535.38 5.4V11.88H548.94V5.4H535.38ZM531.82 2.08H552.7V15.28H531.82V2.08ZM527.18 0.32L530.7 1.48C529.82 3.72 528.78 5.96 527.58 8.2C526.38 10.4133 525.087 12.4933 523.7 14.44C522.313 16.3867 520.887 18.12 519.42 19.64C519.287 19.32 519.1 18.92 518.86 18.44C518.62 17.96 518.353 17.48 518.06 17C517.793 16.52 517.553 16.12 517.34 15.8C518.647 14.5467 519.9 13.1067 521.1 11.48C522.327 9.82667 523.46 8.05334 524.5 6.16C525.54 4.24 526.433 2.29333 527.18 0.32ZM523.14 10.96L526.74 7.4L526.78 7.44V37.24H523.14V10.96Z" fill="#4AA9D5"/>
<path d="M487.54 10.08H513.34V13H487.54V10.08ZM487.42 15.12L489.42 13.44C490.14 13.8667 490.914 14.4 491.74 15.04C492.567 15.6533 493.207 16.2 493.66 16.68L491.58 18.56C491.127 18.08 490.5 17.52 489.7 16.88C488.927 16.2133 488.167 15.6267 487.42 15.12ZM504.34 30.48L507.18 29.04C507.927 29.6267 508.674 30.2933 509.42 31.04C510.194 31.76 510.914 32.48 511.58 33.2C512.247 33.92 512.78 34.5867 513.18 35.2L510.18 36.84C509.807 36.2533 509.3 35.5867 508.66 34.84C508.02 34.0933 507.327 33.3467 506.58 32.6C505.834 31.8267 505.087 31.12 504.34 30.48ZM494.1 23.8V25.88H505.82V23.8H494.1ZM494.1 19.52V21.56H505.82V19.52H494.1ZM490.86 17.16H509.14V28.24H490.86V17.16ZM491.22 28.96L494.62 29.92C493.874 31.2267 492.914 32.4933 491.74 33.72C490.594 34.92 489.434 35.9333 488.26 36.76C488.074 36.5467 487.807 36.2933 487.46 36C487.14 35.7333 486.794 35.4533 486.42 35.16C486.074 34.8933 485.754 34.68 485.46 34.52C486.607 33.8267 487.687 32.9867 488.7 32C489.74 31.0133 490.58 30 491.22 28.96ZM510.62 13.16L512.86 14.76C512.22 15.4 511.527 16.0133 510.78 16.6C510.06 17.1867 509.394 17.68 508.78 18.08L506.78 16.6C507.394 16.1467 508.074 15.5867 508.82 14.92C509.567 14.2267 510.167 13.64 510.62 13.16ZM504.1 11.24C504.767 12.44 505.62 13.6 506.66 14.72C507.727 15.84 508.9 16.84 510.18 17.72C511.487 18.5733 512.834 19.2533 514.22 19.76C513.847 20.08 513.447 20.5067 513.02 21.04C512.594 21.5467 512.26 22.0133 512.02 22.44C510.554 21.7733 509.14 20.92 507.78 19.88C506.447 18.84 505.22 17.6667 504.1 16.36C503.007 15.0267 502.074 13.64 501.3 12.2L504.1 11.24ZM498.1 26.92H501.74V33.92C501.74 34.7467 501.634 35.3867 501.42 35.84C501.234 36.32 500.82 36.68 500.18 36.92C499.567 37.16 498.807 37.3067 497.9 37.36C497.02 37.4133 495.954 37.44 494.7 37.44C494.594 36.96 494.42 36.4267 494.18 35.84C493.94 35.28 493.714 34.7867 493.5 34.36C494.38 34.3867 495.194 34.4 495.94 34.4C496.687 34.4 497.194 34.3867 497.46 34.36C497.7 34.36 497.86 34.32 497.94 34.24C498.047 34.16 498.1 34.0133 498.1 33.8V26.92ZM497.46 6.96L501.02 7.4C500.38 9.34667 499.5 11.2533 498.38 13.12C497.26 14.96 495.834 16.6933 494.1 18.32C492.394 19.9467 490.327 21.3867 487.9 22.64C487.66 22.2133 487.314 21.76 486.86 21.28C486.407 20.7733 485.98 20.4 485.58 20.16C487.874 19.0667 489.82 17.8133 491.42 16.4C493.02 14.96 494.314 13.4267 495.3 11.8C496.314 10.1733 497.034 8.56 497.46 6.96ZM484.26 3.72H513.74V6.96H484.26V3.72ZM482.42 3.72H485.9V16.64C485.9 18.2133 485.82 19.92 485.66 21.76C485.527 23.5733 485.26 25.4133 484.86 27.28C484.46 29.1467 483.874 30.9467 483.1 32.68C482.327 34.4133 481.314 35.9733 480.06 37.36C479.9 37.12 479.647 36.8267 479.3 36.48C478.98 36.16 478.647 35.84 478.3 35.52C477.98 35.2267 477.687 35.0133 477.42 34.88C478.567 33.5733 479.474 32.1733 480.14 30.68C480.807 29.16 481.3 27.6 481.62 26C481.94 24.3733 482.154 22.7733 482.26 21.2C482.367 19.6 482.42 18.08 482.42 16.64V3.72ZM495.26 0.239998H499.26V5.6H495.26V0.239998ZM476.78 8.4L479.54 7.28C480.154 8.53333 480.7 9.89333 481.18 11.36C481.66 12.8 481.967 14.0267 482.1 15.04L479.14 16.36C479.06 15.6667 478.9 14.8667 478.66 13.96C478.447 13.0267 478.167 12.08 477.82 11.12C477.5 10.16 477.154 9.25333 476.78 8.4ZM476.26 22.72C477.167 22.32 478.234 21.8 479.46 21.16C480.714 20.52 482.007 19.8667 483.34 19.2L484.22 22.04C483.1 22.76 481.954 23.4667 480.78 24.16C479.634 24.8267 478.527 25.48 477.46 26.12L476.26 22.72Z" fill="#4AA9D5"/>
<path d="M448.86 9.76H468.78V12.96H448.86V9.76ZM443.54 17H470.58V20.28H443.54V17ZM454.94 10.96H458.7V17.4C458.7 18.6267 458.527 19.8533 458.18 21.08C457.834 22.28 457.207 23.4667 456.3 24.64C455.394 25.8133 454.087 26.92 452.38 27.96C450.673 28.9733 448.433 29.8933 445.66 30.72C445.5 30.4533 445.287 30.1467 445.02 29.8C444.754 29.4533 444.473 29.1067 444.18 28.76C443.887 28.4133 443.607 28.1333 443.34 27.92C445.927 27.2533 447.993 26.5067 449.54 25.68C451.113 24.8267 452.274 23.9333 453.02 23C453.794 22.04 454.3 21.08 454.54 20.12C454.807 19.16 454.94 18.24 454.94 17.36V10.96ZM449.18 6.2L452.74 7.04C452.02 8.8 451.087 10.4667 449.94 12.04C448.82 13.6133 447.647 14.9333 446.42 16C446.18 15.8133 445.86 15.6 445.46 15.36C445.087 15.12 444.7 14.8933 444.3 14.68C443.927 14.44 443.58 14.2533 443.26 14.12C444.54 13.16 445.7 11.9867 446.74 10.6C447.78 9.18667 448.593 7.72 449.18 6.2ZM458.58 19.08C459.54 21.3467 461.074 23.1867 463.18 24.6C465.287 25.9867 467.913 26.9333 471.06 27.44C470.66 27.8133 470.233 28.3067 469.78 28.92C469.353 29.5333 469.02 30.0933 468.78 30.6C465.367 29.8533 462.553 28.5867 460.34 26.8C458.153 25.0133 456.487 22.68 455.34 19.8L458.58 19.08ZM437.66 2.28H471.42V5.92H441.42V37.36H437.66V2.28ZM439.98 31.96H472.34V35.6H439.98V31.96Z" fill="#4AA9D5"/>
<path d="M402.1 4.08C402.607 4.13333 403.14 4.17333 403.7 4.2C404.287 4.22667 404.82 4.24 405.3 4.24C405.7 4.24 406.34 4.24 407.22 4.24C408.127 4.21333 409.14 4.18667 410.26 4.16C411.407 4.13333 412.54 4.10667 413.66 4.08C414.78 4.02667 415.78 3.97333 416.66 3.92C417.567 3.86667 418.233 3.82667 418.66 3.8C419.38 3.74667 419.927 3.69333 420.3 3.64C420.7 3.58667 421.007 3.52 421.22 3.44L423.42 6.32C423.02 6.58667 422.607 6.85333 422.18 7.12C421.753 7.38667 421.327 7.69333 420.9 8.04C420.393 8.41333 419.727 8.93333 418.9 9.6C418.1 10.24 417.233 10.96 416.3 11.76C415.367 12.5333 414.447 13.2933 413.54 14.04C412.633 14.7867 411.82 15.4533 411.1 16.04C411.9 15.7733 412.7 15.6 413.5 15.52C414.3 15.4133 415.1 15.36 415.9 15.36C418.113 15.36 420.1 15.7867 421.86 16.64C423.62 17.4933 425.007 18.64 426.02 20.08C427.033 21.52 427.54 23.1867 427.54 25.08C427.54 27.1867 426.98 29.0667 425.86 30.72C424.767 32.3733 423.167 33.6667 421.06 34.6C418.98 35.5333 416.447 36 413.46 36C411.62 36 410.007 35.7467 408.62 35.24C407.233 34.7333 406.153 34.0267 405.38 33.12C404.633 32.1867 404.26 31.12 404.26 29.92C404.26 28.9333 404.527 28.0133 405.06 27.16C405.62 26.28 406.393 25.5867 407.38 25.08C408.393 24.5467 409.553 24.28 410.86 24.28C412.673 24.28 414.18 24.6533 415.38 25.4C416.607 26.12 417.54 27.08 418.18 28.28C418.847 29.48 419.207 30.7867 419.26 32.2L415.62 32.72C415.54 31.12 415.073 29.8133 414.22 28.8C413.393 27.7867 412.273 27.28 410.86 27.28C410.007 27.28 409.3 27.5067 408.74 27.96C408.207 28.4133 407.94 28.9467 407.94 29.56C407.94 30.44 408.38 31.1333 409.26 31.64C410.167 32.1467 411.327 32.4 412.74 32.4C415.007 32.4 416.94 32.12 418.54 31.56C420.14 30.9733 421.353 30.1333 422.18 29.04C423.007 27.92 423.42 26.5733 423.42 25C423.42 23.7467 423.047 22.6267 422.3 21.64C421.553 20.6533 420.527 19.8933 419.22 19.36C417.913 18.8 416.42 18.52 414.74 18.52C413.14 18.52 411.673 18.7067 410.34 19.08C409.033 19.4267 407.807 19.9467 406.66 20.64C405.513 21.3067 404.38 22.1467 403.26 23.16C402.167 24.1467 401.033 25.28 399.86 26.56L396.94 23.6C397.74 22.96 398.62 22.24 399.58 21.44C400.54 20.64 401.5 19.84 402.46 19.04C403.447 18.2133 404.367 17.44 405.22 16.72C406.1 15.9733 406.833 15.36 407.42 14.88C407.98 14.4267 408.66 13.88 409.46 13.24C410.26 12.5733 411.087 11.88 411.94 11.16C412.793 10.44 413.607 9.76 414.38 9.12C415.153 8.45333 415.793 7.89333 416.3 7.44C415.873 7.46667 415.287 7.49333 414.54 7.52C413.793 7.54667 412.967 7.58667 412.06 7.64C411.18 7.66667 410.287 7.70667 409.38 7.76C408.473 7.78667 407.647 7.82667 406.9 7.88C406.153 7.90667 405.58 7.93333 405.18 7.96C404.7 7.98667 404.193 8.02667 403.66 8.08C403.153 8.10667 402.673 8.14667 402.22 8.2L402.1 4.08Z" fill="#4AA9D5"/>
<path d="M377.26 2.08C377.233 2.24 377.193 2.52 377.14 2.92C377.113 3.32 377.087 3.72 377.06 4.12C377.033 4.52 377.02 4.81333 377.02 5C376.993 5.50667 376.967 6.21333 376.94 7.12C376.94 8 376.94 8.97333 376.94 10.04C376.94 11.1067 376.94 12.1867 376.94 13.28C376.967 14.3467 376.98 15.36 376.98 16.32C377.007 17.2533 377.02 18.04 377.02 18.68L373.14 17.08C373.14 16.6533 373.14 16.0533 373.14 15.28C373.14 14.48 373.127 13.5867 373.1 12.6C373.1 11.5867 373.087 10.5867 373.06 9.6C373.06 8.61333 373.047 7.70667 373.02 6.88C373.02 6.05333 373.007 5.42666 372.98 5C372.927 4.36 372.86 3.76 372.78 3.2C372.727 2.64 372.687 2.26667 372.66 2.08H377.26ZM355.38 7.4C356.527 7.37333 357.807 7.34667 359.22 7.32C360.66 7.29333 362.18 7.26666 363.78 7.24C365.38 7.18667 366.967 7.14667 368.54 7.12C370.14 7.06666 371.66 7.04 373.1 7.04C374.54 7.01333 375.82 7 376.94 7C378.087 7 379.26 7 380.46 7C381.66 7 382.807 7 383.9 7C384.993 7 385.98 7 386.86 7C387.767 7 388.473 7 388.98 7L388.9 10.76C387.753 10.7067 386.193 10.6667 384.22 10.64C382.273 10.5867 379.82 10.56 376.86 10.56C375.1 10.56 373.287 10.5733 371.42 10.6C369.553 10.6267 367.673 10.68 365.78 10.76C363.913 10.8133 362.1 10.88 360.34 10.96C358.607 11.04 356.993 11.1333 355.5 11.24L355.38 7.4ZM376.66 19.08C376.66 21.0533 376.393 22.6933 375.86 24C375.353 25.28 374.62 26.2533 373.66 26.92C372.7 27.56 371.54 27.88 370.18 27.88C369.353 27.88 368.54 27.7333 367.74 27.44C366.967 27.1467 366.247 26.7067 365.58 26.12C364.94 25.5067 364.42 24.7733 364.02 23.92C363.647 23.04 363.46 22.04 363.46 20.92C363.46 19.5067 363.793 18.2667 364.46 17.2C365.153 16.1067 366.06 15.2533 367.18 14.64C368.327 14.0267 369.567 13.72 370.9 13.72C372.553 13.72 373.927 14.0933 375.02 14.84C376.14 15.5867 376.98 16.6 377.54 17.88C378.1 19.1333 378.38 20.56 378.38 22.16C378.38 23.4667 378.18 24.8267 377.78 26.24C377.38 27.6267 376.713 28.9733 375.78 30.28C374.847 31.5867 373.58 32.7867 371.98 33.88C370.407 34.9467 368.433 35.8267 366.06 36.52L362.66 33.16C364.447 32.7867 366.06 32.2933 367.5 31.68C368.94 31.04 370.18 30.2667 371.22 29.36C372.26 28.4267 373.06 27.3333 373.62 26.08C374.207 24.8 374.5 23.32 374.5 21.64C374.5 20.04 374.14 18.88 373.42 18.16C372.727 17.44 371.873 17.08 370.86 17.08C370.247 17.08 369.66 17.2267 369.1 17.52C368.54 17.8133 368.087 18.24 367.74 18.8C367.393 19.36 367.22 20.04 367.22 20.84C367.22 21.96 367.58 22.84 368.3 23.48C369.047 24.0933 369.9 24.4 370.86 24.4C371.633 24.4 372.287 24.1867 372.82 23.76C373.38 23.3067 373.767 22.6133 373.98 21.68C374.193 20.72 374.14 19.5067 373.82 18.04L376.66 19.08Z" fill="#4AA9D5"/>
<path d="M314.38 16.16C314.833 16.1867 315.38 16.2267 316.02 16.28C316.687 16.3067 317.393 16.3333 318.14 16.36C318.913 16.3867 319.647 16.4 320.34 16.4C320.873 16.4 321.607 16.4 322.54 16.4C323.473 16.4 324.527 16.4 325.7 16.4C326.9 16.4 328.153 16.4 329.46 16.4C330.767 16.4 332.06 16.4 333.34 16.4C334.647 16.4 335.873 16.4 337.02 16.4C338.167 16.4 339.18 16.4 340.06 16.4C340.94 16.4 341.62 16.4 342.1 16.4C343.06 16.4 343.927 16.3733 344.7 16.32C345.473 16.24 346.1 16.1867 346.58 16.16V21.12C346.127 21.0933 345.487 21.0533 344.66 21C343.833 20.9467 342.98 20.92 342.1 20.92C341.647 20.92 340.967 20.92 340.06 20.92C339.18 20.92 338.167 20.92 337.02 20.92C335.873 20.92 334.647 20.92 333.34 20.92C332.06 20.92 330.767 20.92 329.46 20.92C328.153 20.92 326.9 20.92 325.7 20.92C324.527 20.92 323.473 20.92 322.54 20.92C321.607 20.92 320.873 20.92 320.34 20.92C319.247 20.92 318.153 20.9467 317.06 21C315.967 21.0267 315.073 21.0667 314.38 21.12V16.16Z" fill="#4AA9D5"/>
<path d="M300.18 2.52C300.527 2.97333 300.887 3.53333 301.26 4.2C301.66 4.86667 302.047 5.53333 302.42 6.2C302.793 6.86667 303.113 7.46667 303.38 8L300.78 9.12C300.38 8.32 299.873 7.38667 299.26 6.32C298.673 5.25333 298.113 4.34667 297.58 3.6L300.18 2.52ZM304.7 0.799999C305.047 1.30667 305.42 1.89333 305.82 2.56C306.247 3.22667 306.66 3.89333 307.06 4.56C307.46 5.2 307.78 5.76 308.02 6.24L305.42 7.4C304.993 6.54667 304.473 5.6 303.86 4.56C303.273 3.52 302.7 2.62667 302.14 1.88L304.7 0.799999ZM277.58 21.8C278.007 20.7067 278.42 19.5467 278.82 18.32C279.247 17.0933 279.633 15.8267 279.98 14.52C280.327 13.1867 280.62 11.8667 280.86 10.56C281.127 9.25333 281.327 8 281.46 6.8L285.98 7.72C285.9 8.06667 285.807 8.45333 285.7 8.88C285.593 9.28 285.487 9.68 285.38 10.08C285.3 10.48 285.22 10.8267 285.14 11.12C285.007 11.76 284.82 12.5867 284.58 13.6C284.367 14.5867 284.1 15.6533 283.78 16.8C283.46 17.92 283.113 19.0667 282.74 20.24C282.393 21.3867 282.02 22.4533 281.62 23.44C281.14 24.6933 280.58 25.9867 279.94 27.32C279.3 28.6267 278.62 29.9067 277.9 31.16C277.18 32.4133 276.46 33.56 275.74 34.6L271.38 32.76C272.633 31.1067 273.807 29.2933 274.9 27.32C275.993 25.32 276.887 23.48 277.58 21.8ZM297.3 20.56C296.9 19.52 296.447 18.4133 295.94 17.24C295.46 16.0667 294.953 14.8933 294.42 13.72C293.913 12.52 293.407 11.4 292.9 10.36C292.393 9.32 291.927 8.42667 291.5 7.68L295.62 6.32C296.02 7.06667 296.473 7.96 296.98 9C297.513 10.04 298.047 11.16 298.58 12.36C299.113 13.5333 299.633 14.7067 300.14 15.88C300.647 17.0533 301.1 18.1467 301.5 19.16C301.873 20.12 302.273 21.2 302.7 22.4C303.153 23.6 303.593 24.84 304.02 26.12C304.473 27.3733 304.887 28.6 305.26 29.8C305.633 30.9733 305.953 32.04 306.22 33L301.66 34.48C301.313 33.0133 300.9 31.48 300.42 29.88C299.94 28.28 299.433 26.68 298.9 25.08C298.393 23.48 297.86 21.9733 297.3 20.56Z" fill="#4AA9D5"/>
<path d="M248.82 2.28C248.793 2.73333 248.753 3.29333 248.7 3.96C248.673 4.6 248.647 5.16 248.62 5.64C248.487 9.69333 248.127 13.2533 247.54 16.32C246.953 19.36 246.127 22.0533 245.06 24.4C244.02 26.72 242.713 28.7733 241.14 30.56C239.593 32.32 237.78 33.9333 235.7 35.4L232.02 32.4C232.74 32.0267 233.513 31.5467 234.34 30.96C235.167 30.3733 235.927 29.7333 236.62 29.04C237.9 27.84 239.02 26.4933 239.98 25C240.94 23.5067 241.74 21.84 242.38 20C243.047 18.1333 243.553 16.0267 243.9 13.68C244.247 11.3067 244.42 8.65333 244.42 5.72C244.42 5.42667 244.407 5.06667 244.38 4.64C244.38 4.21333 244.353 3.78667 244.3 3.36C244.247 2.93333 244.193 2.57333 244.14 2.28H248.82ZM262.62 10.68C262.567 11.0267 262.513 11.3867 262.46 11.76C262.407 12.1333 262.367 12.4533 262.34 12.72C262.313 13.52 262.273 14.5733 262.22 15.88C262.167 17.1867 262.073 18.6133 261.94 20.16C261.833 21.7067 261.687 23.24 261.5 24.76C261.313 26.28 261.1 27.6933 260.86 29C260.62 30.28 260.313 31.32 259.94 32.12C259.54 33.0533 258.967 33.7333 258.22 34.16C257.5 34.6133 256.527 34.84 255.3 34.84C254.233 34.84 253.127 34.8133 251.98 34.76C250.86 34.7067 249.793 34.64 248.78 34.56L248.3 30.36C249.34 30.4933 250.353 30.6133 251.34 30.72C252.353 30.8 253.273 30.84 254.1 30.84C254.713 30.84 255.193 30.7467 255.54 30.56C255.887 30.3467 256.167 29.9867 256.38 29.48C256.647 28.92 256.887 28.1467 257.1 27.16C257.313 26.1467 257.487 25.04 257.62 23.84C257.78 22.6133 257.9 21.36 257.98 20.08C258.087 18.7733 258.153 17.5467 258.18 16.4C258.233 15.2267 258.26 14.2 258.26 13.32H237.86C237.113 13.32 236.3 13.3333 235.42 13.36C234.567 13.3867 233.753 13.4267 232.98 13.48V9.32C233.753 9.37333 234.567 9.42667 235.42 9.48C236.273 9.53333 237.087 9.56 237.86 9.56H257.06C257.593 9.56 258.087 9.54667 258.54 9.52C258.993 9.46667 259.42 9.4 259.82 9.32L262.62 10.68Z" fill="#4AA9D5"/>
<path d="M205.06 2.28C204.927 2.89333 204.807 3.45333 204.7 3.96C204.62 4.46667 204.54 4.96 204.46 5.44C204.38 6.10667 204.26 6.98667 204.1 8.08C203.967 9.14667 203.807 10.3467 203.62 11.68C203.433 13.0133 203.26 14.3867 203.1 15.8C202.94 17.2133 202.78 18.6 202.62 19.96C202.46 21.2933 202.34 22.52 202.26 23.64C202.18 24.7333 202.14 25.6267 202.14 26.32C202.14 28.1333 202.66 29.5467 203.7 30.56C204.767 31.5733 206.38 32.08 208.54 32.08C210.487 32.08 212.153 31.8133 213.54 31.28C214.953 30.7467 216.033 30 216.78 29.04C217.527 28.08 217.9 26.9733 217.9 25.72C217.9 24.36 217.54 23 216.82 21.64C216.127 20.28 215.073 18.9733 213.66 17.72L218.1 16.8C219.433 18.3733 220.433 19.9067 221.1 21.4C221.767 22.8667 222.1 24.4667 222.1 26.2C222.1 28.1733 221.527 29.9067 220.38 31.4C219.26 32.8933 217.687 34.0533 215.66 34.88C213.633 35.7067 211.233 36.12 208.46 36.12C206.513 36.12 204.767 35.8133 203.22 35.2C201.673 34.5867 200.447 33.6133 199.54 32.28C198.66 30.9467 198.22 29.1733 198.22 26.96C198.22 26.1333 198.287 25.0267 198.42 23.64C198.553 22.2533 198.713 20.7333 198.9 19.08C199.113 17.4267 199.327 15.7467 199.54 14.04C199.78 12.3067 199.98 10.68 200.14 9.16C200.327 7.61333 200.46 6.29333 200.54 5.2C200.62 4.4 200.66 3.77333 200.66 3.32C200.66 2.86667 200.633 2.44 200.58 2.04L205.06 2.28ZM191.62 7.44C192.767 7.81333 194.033 8.12 195.42 8.36C196.807 8.6 198.22 8.78667 199.66 8.92C201.1 9.02667 202.447 9.08 203.7 9.08C205.247 9.08 206.7 9.04 208.06 8.96C209.42 8.85333 210.647 8.72 211.74 8.56L211.62 12.32C210.367 12.4267 209.127 12.52 207.9 12.6C206.673 12.68 205.233 12.72 203.58 12.72C202.353 12.72 201.02 12.6533 199.58 12.52C198.167 12.3867 196.753 12.2 195.34 11.96C193.927 11.6933 192.62 11.4133 191.42 11.12L191.62 7.44ZM190.7 17.4C192.06 17.8533 193.46 18.2133 194.9 18.48C196.34 18.7467 197.767 18.9333 199.18 19.04C200.62 19.12 201.98 19.16 203.26 19.16C204.567 19.16 205.913 19.12 207.3 19.04C208.713 18.96 210.1 18.84 211.46 18.68L211.34 22.44C210.113 22.5733 208.887 22.68 207.66 22.76C206.433 22.8133 205.167 22.84 203.86 22.84C201.46 22.84 199.087 22.7067 196.74 22.44C194.393 22.1467 192.313 21.7467 190.5 21.24L190.7 17.4Z" fill="#4AA9D5"/>
<path d="M167.9 16.68L171.34 17.72C170.46 19.2933 169.393 20.8 168.14 22.24C166.913 23.6533 165.593 24.96 164.18 26.16C162.767 27.36 161.327 28.4133 159.86 29.32C159.7 29.0533 159.46 28.7467 159.14 28.4C158.847 28.0533 158.54 27.7067 158.22 27.36C157.9 26.9867 157.607 26.6933 157.34 26.48C159.473 25.36 161.487 23.9467 163.38 22.24C165.3 20.5333 166.807 18.68 167.9 16.68ZM168.26 0.16L171.58 1.88C170.567 3.10667 169.473 4.34667 168.3 5.6C167.153 6.85333 166.087 7.93333 165.1 8.84L162.46 7.32C163.127 6.68 163.807 5.94667 164.5 5.12C165.22 4.29333 165.913 3.45333 166.58 2.6C167.247 1.72 167.807 0.906666 168.26 0.16ZM175.9 3.2L179.3 5.04C177.913 6.50667 176.407 8.02667 174.78 9.6C173.153 11.1467 171.513 12.64 169.86 14.08C168.207 15.52 166.633 16.7867 165.14 17.88L162.62 16.2C163.713 15.3733 164.86 14.4267 166.06 13.36C167.26 12.2933 168.46 11.1867 169.66 10.04C170.86 8.86667 171.993 7.69333 173.06 6.52C174.127 5.34667 175.073 4.24 175.9 3.2ZM158.94 7.08L161.22 4.64C162.233 5.28 163.287 6 164.38 6.8C165.473 7.57333 166.487 8.36 167.42 9.16C168.38 9.96 169.153 10.6933 169.74 11.36L167.3 14.12C166.767 13.4267 166.033 12.6667 165.1 11.84C164.167 10.9867 163.167 10.1467 162.1 9.32C161.033 8.49333 159.98 7.74667 158.94 7.08ZM175.42 11.68L178.34 10.08C179.193 10.96 180.033 11.92 180.86 12.96C181.687 14 182.447 15.0267 183.14 16.04C183.86 17.0533 184.407 17.9867 184.78 18.84L181.62 20.64C181.273 19.84 180.767 18.92 180.1 17.88C179.433 16.8133 178.687 15.7467 177.86 14.68C177.06 13.5867 176.247 12.5867 175.42 11.68ZM157.82 15.16C159.767 15.1333 162.007 15.1067 164.54 15.08C167.073 15.0533 169.78 15.0133 172.66 14.96C175.54 14.88 178.407 14.8 181.26 14.72L181.1 17.8C178.353 17.9067 175.593 18.0133 172.82 18.12C170.073 18.2 167.433 18.28 164.9 18.36C162.393 18.44 160.14 18.5067 158.14 18.56L157.82 15.16ZM165.86 23.04C166.98 24.9067 168.473 26.6 170.34 28.12C172.207 29.6133 174.367 30.88 176.82 31.92C179.3 32.9333 181.967 33.6933 184.82 34.2C184.553 34.4667 184.273 34.7867 183.98 35.16C183.687 35.56 183.407 35.96 183.14 36.36C182.9 36.76 182.687 37.12 182.5 37.44C179.567 36.8 176.847 35.8667 174.34 34.64C171.833 33.4133 169.607 31.92 167.66 30.16C165.713 28.3733 164.087 26.3333 162.78 24.04L165.86 23.04ZM166.78 21.04H178.22V23.92H164.26L166.78 21.04ZM177.02 21.04H177.7L178.34 20.88L180.74 22C179.833 24.1867 178.633 26.1333 177.14 27.84C175.673 29.52 173.98 30.9867 172.06 32.24C170.167 33.4933 168.113 34.5467 165.9 35.4C163.713 36.28 161.46 36.9867 159.14 37.52C158.953 37.04 158.673 36.48 158.3 35.84C157.953 35.2 157.62 34.68 157.3 34.28C159.46 33.88 161.553 33.32 163.58 32.6C165.607 31.88 167.5 30.9867 169.26 29.92C171.047 28.8533 172.593 27.6267 173.9 26.24C175.233 24.8533 176.273 23.2933 177.02 21.56V21.04ZM155.94 8.6L159.3 9.84C158.393 11.44 157.353 13.04 156.18 14.64C155.007 16.2133 153.753 17.7067 152.42 19.12C151.113 20.5067 149.807 21.7467 148.5 22.84C148.393 22.5467 148.207 22.1867 147.94 21.76C147.7 21.3333 147.447 20.8933 147.18 20.44C146.913 19.9867 146.673 19.64 146.46 19.4C147.633 18.4933 148.807 17.4667 149.98 16.32C151.153 15.1733 152.247 13.9467 153.26 12.64C154.3 11.3067 155.193 9.96 155.94 8.6ZM155.1 0.239999L158.46 1.56C157.66 2.70667 156.727 3.86667 155.66 5.04C154.593 6.21333 153.487 7.33333 152.34 8.4C151.193 9.46667 150.047 10.4133 148.9 11.24C148.74 10.9733 148.54 10.68 148.3 10.36C148.06 10.0133 147.807 9.66666 147.54 9.32C147.3 8.97333 147.073 8.69333 146.86 8.48C147.873 7.76 148.9 6.94667 149.94 6.04C150.98 5.10667 151.953 4.13333 152.86 3.12C153.767 2.10667 154.513 1.14666 155.1 0.239999ZM152.42 16.56L155.58 13.4L155.98 13.56V37.48H152.42V16.56Z" fill="#4AA9D5"/>
<path d="M128.82 0.360001H132.5V6.48H128.82V0.360001ZM119.5 4.76H142.54V12.32H139.06V8H122.9V12.32H119.5V4.76ZM122.58 11.96H139.38V15.24H122.58V11.96ZM120.02 19.08H142.54V22.48H120.02V19.08ZM125.02 20.64H128.62C128.513 22.7733 128.313 24.72 128.02 26.48C127.727 28.2133 127.233 29.7733 126.54 31.16C125.873 32.5467 124.9 33.7467 123.62 34.76C122.367 35.8 120.727 36.6667 118.7 37.36C118.593 37.0667 118.42 36.7333 118.18 36.36C117.94 35.9867 117.687 35.6267 117.42 35.28C117.153 34.9333 116.887 34.6533 116.62 34.44C118.433 33.8533 119.873 33.1467 120.94 32.32C122.007 31.4933 122.82 30.52 123.38 29.4C123.967 28.28 124.367 26.9867 124.58 25.52C124.793 24.0533 124.94 22.4267 125.02 20.64ZM132.42 20.28H135.98V32.32C135.98 32.8533 136.02 33.1867 136.1 33.32C136.207 33.4533 136.433 33.52 136.78 33.52C136.887 33.52 137.087 33.52 137.38 33.52C137.673 33.52 137.967 33.52 138.26 33.52C138.58 33.52 138.793 33.52 138.9 33.52C139.167 33.52 139.367 33.4133 139.5 33.2C139.633 32.9867 139.727 32.5333 139.78 31.84C139.833 31.12 139.873 30.0533 139.9 28.64C140.14 28.8533 140.447 29.0533 140.82 29.24C141.193 29.4267 141.58 29.6 141.98 29.76C142.407 29.8933 142.78 30 143.1 30.08C142.993 31.8667 142.807 33.2533 142.54 34.24C142.273 35.2533 141.887 35.9467 141.38 36.32C140.873 36.72 140.18 36.92 139.3 36.92C139.14 36.92 138.913 36.92 138.62 36.92C138.353 36.92 138.06 36.92 137.74 36.92C137.42 36.92 137.113 36.92 136.82 36.92C136.553 36.92 136.34 36.92 136.18 36.92C135.167 36.92 134.38 36.7733 133.82 36.48C133.287 36.2133 132.913 35.7467 132.7 35.08C132.513 34.4133 132.42 33.4933 132.42 32.32V20.28ZM107.58 1.96H116.98V5.36H110.9V37.4H107.58V1.96ZM115.86 1.96H116.46L117.02 1.8L119.5 3.24C119.127 4.36 118.727 5.56 118.3 6.84C117.873 8.09333 117.433 9.33333 116.98 10.56C116.553 11.7867 116.127 12.9333 115.7 14C117.06 15.6 117.953 17.0933 118.38 18.48C118.807 19.8667 119.02 21.1733 119.02 22.4C119.02 23.5467 118.887 24.5333 118.62 25.36C118.38 26.1867 117.953 26.8133 117.34 27.24C117.047 27.4533 116.713 27.6267 116.34 27.76C115.993 27.8667 115.607 27.96 115.18 28.04C114.407 28.12 113.527 28.1333 112.54 28.08C112.513 27.6267 112.42 27.0933 112.26 26.48C112.127 25.84 111.927 25.2933 111.66 24.84C112.06 24.8667 112.433 24.88 112.78 24.88C113.127 24.88 113.447 24.88 113.74 24.88C114.247 24.8533 114.647 24.7333 114.94 24.52C115.207 24.3067 115.393 23.9733 115.5 23.52C115.607 23.0667 115.66 22.5467 115.66 21.96C115.66 20.9467 115.447 19.8 115.02 18.52C114.593 17.24 113.727 15.8667 112.42 14.4C112.767 13.4933 113.1 12.52 113.42 11.48C113.74 10.44 114.047 9.4 114.34 8.36C114.66 7.29333 114.94 6.30667 115.18 5.4C115.447 4.46667 115.673 3.68 115.86 3.04V1.96Z" fill="#4AA9D5"/>
<path d="M72.4201 2.56H83.7801V6.4H72.4201V2.56ZM81.9001 2.56H85.7801C85.7801 3.78667 85.8201 5.21333 85.9001 6.84C86.0067 8.44 86.2334 10.16 86.5801 12C86.9267 13.8133 87.4601 15.6933 88.1801 17.64C88.9001 19.5867 89.8467 21.52 91.0201 23.44C92.2201 25.36 93.7267 27.2267 95.5401 29.04C97.3534 30.8267 99.5401 32.48 102.1 34C101.833 34.2133 101.5 34.5067 101.1 34.88C100.7 35.28 100.313 35.6933 99.9401 36.12C99.5667 36.5467 99.2734 36.92 99.0601 37.24C96.4467 35.64 94.2067 33.88 92.3401 31.96C90.4734 30.0133 88.9001 27.96 87.6201 25.8C86.3667 23.64 85.3534 21.4667 84.5801 19.28C83.8067 17.0933 83.2201 14.9733 82.8201 12.92C82.4467 10.8667 82.1934 8.96 82.0601 7.2C81.9534 5.41333 81.9001 3.86667 81.9001 2.56ZM80.5001 10.84L84.7801 11.6C83.8467 15.6267 82.6201 19.2667 81.1001 22.52C79.5801 25.7467 77.7401 28.5867 75.5801 31.04C73.4467 33.4933 70.9267 35.5867 68.0201 37.32C67.8067 37.0267 67.4867 36.6933 67.0601 36.32C66.6334 35.9467 66.1934 35.56 65.7401 35.16C65.3134 34.76 64.9267 34.4533 64.5801 34.24C68.9267 32 72.3667 28.92 74.9001 25C77.4601 21.0533 79.3267 16.3333 80.5001 10.84Z" fill="#4AA9D5"/>
</svg>
