<svg width="662" height="192" viewBox="0 0 662 192" fill="none" xmlns="http://www.w3.org/2000/svg">
<path d="M226.086 85.4138V78.6195C226.086 74.1327 230.06 71.3124 234.931 71.3124C240.572 71.3124 243.648 74.3891 243.648 79.9014V85.4138H259.416C267.364 85.4138 272.749 89.3879 272.749 97.7206V105.028C272.749 110.668 270.057 113.104 264.672 113.104C258.519 113.104 256.468 109.899 256.468 104.643V96.3104C256.468 93.7465 255.442 92.5928 252.75 92.5928H218.65C215.958 92.5928 214.933 93.7465 214.933 96.3104V105.028C214.933 110.54 211.984 113.104 206.728 113.104C200.447 113.104 198.652 109.643 198.652 104.259V97.7206C198.652 89.3879 204.036 85.4138 211.984 85.4138H226.086ZM157.886 183.74V85.2856C157.886 78.3631 162.757 75.5428 169.167 75.5428H191.345C196.857 75.5428 200.703 78.4913 200.703 84.0037C200.703 85.1574 200.575 86.3112 200.19 87.3368L187.627 117.847C187.242 118.745 187.114 119.129 187.114 119.514C187.114 120.027 187.371 120.539 187.755 121.052C190.447 125.026 192.498 128.872 194.293 132.974C197.113 139.256 198.395 145.922 198.395 152.716C198.395 158.1 197.498 164.382 192.883 167.843C190.447 169.638 187.883 170.023 184.935 170.023H178.269C176.089 170.023 173.91 168.869 173.91 166.433C173.91 163.869 176.089 162.844 178.269 162.844H179.423C183.012 162.844 184.294 157.844 184.294 150.281C184.294 139.897 181.089 132.461 176.602 123.231C175.961 121.949 175.32 120.539 175.32 118.873C175.32 118.232 175.448 117.591 175.577 117.078L184.166 86.824C184.294 86.3112 184.679 85.1574 184.679 84.9011C184.679 83.3627 183.14 82.7217 181.858 82.7217H176.474C173.91 82.7217 173.141 83.4909 173.141 86.0548V183.483C173.141 188.996 170.833 191.688 165.577 191.688C160.45 191.688 157.886 189.124 157.886 183.74ZM257.75 119.642H213.394C211.087 119.642 209.036 118.488 209.036 116.052C209.036 113.489 211.087 112.463 213.394 112.463H257.75C259.929 112.463 262.108 113.489 262.108 116.052C262.108 118.488 259.929 119.642 257.75 119.642ZM228.137 141.435C228.137 149.768 227.624 157.972 225.06 165.536C222.112 174.253 215.061 180.663 207.113 185.278C203.523 187.329 194.037 191.175 190.832 191.175C188.909 191.175 187.371 189.508 187.371 187.585C187.371 185.662 188.781 184.637 190.447 183.868C200.959 179.381 206.344 173.612 208.779 166.433C211.087 159.511 211.471 153.357 211.471 141.435H202.498C200.318 141.435 198.139 140.41 198.139 137.846C198.139 135.41 200.318 134.384 202.498 134.384H269.544C271.723 134.384 273.902 135.41 273.902 137.846C273.902 140.41 271.723 141.435 269.544 141.435H251.084V178.996C251.084 181.56 251.981 182.329 254.545 182.329H255.955C259.416 182.329 260.442 181.688 260.955 178.227C261.211 176.561 261.339 174.381 261.467 171.561C261.724 167.074 262.749 164.51 267.621 164.51C271.723 164.51 275.313 165.92 275.313 170.664C275.313 174.766 274.928 179.894 273.133 183.611C270.697 188.611 266.082 189.252 260.826 189.252H245.956C239.674 189.252 234.675 186.432 234.675 179.509V141.435H228.137Z" fill="white"/>
<path d="M67.3799 137.461C59.3036 155.28 48.1507 169.253 31.4853 179.765C21.7424 185.919 12.6406 190.021 10.3331 190.021C8.53834 190.021 7 188.226 7 186.432C7 184.893 7.64098 183.74 10.4613 182.458C27.383 174.509 40.0744 159.382 49.048 140.794C54.945 128.616 58.7908 107.463 58.7908 97.336V85.2856C58.7908 82.7217 57.7653 81.568 55.0732 81.568H33.6646C31.4853 81.568 29.306 80.5424 29.306 78.1067C29.306 75.5428 31.4853 74.5172 33.6646 74.5172H64.0469C71.9949 74.5172 77.3791 78.4913 77.3791 86.824V98.6179C77.3791 117.206 81.4814 134.513 91.096 150.665C99.1723 164.126 110.71 175.791 124.94 182.586C126.606 183.355 128.144 184.381 128.144 186.303C128.144 188.226 126.606 189.893 124.683 189.893C123.914 189.893 122.247 189.252 119.684 188.098C109.172 183.483 104.685 180.535 96.352 174.509C82.8915 164.767 73.6615 152.844 67.3799 137.461Z" fill="white"/>
<path d="M356.594 125.321L356.935 125.33C360.436 125.507 363.222 128.402 363.222 131.948C363.222 135.494 360.436 138.389 356.935 138.566L356.594 138.575H310.939C307.279 138.575 304.312 135.608 304.312 131.948C304.312 128.288 307.279 125.321 310.939 125.321H356.594Z" fill="white"/>
<path d="M328.035 108.673L328.044 108.333C328.221 104.831 331.116 102.045 334.662 102.045C338.208 102.045 341.103 104.831 341.28 108.333L341.289 108.673V154.328C341.289 157.988 338.322 160.955 334.662 160.955C331.002 160.955 328.035 157.988 328.035 154.328V108.673Z" fill="white"/>
<path d="M612.713 85.4149V78.6207C612.713 74.1339 616.687 71.3137 621.558 71.3137C627.199 71.3137 630.275 74.3903 630.275 79.9026V85.4149H646.043C653.991 85.4149 659.375 89.3888 659.375 97.7213V105.028C659.375 110.669 656.683 113.104 651.299 113.104C645.146 113.104 643.095 109.9 643.095 104.644V96.3112C643.095 93.7474 642.069 92.5936 639.377 92.5936H605.278C602.586 92.5936 601.56 93.7474 601.56 96.3112V105.028C601.56 110.541 598.612 113.104 593.356 113.104C587.075 113.104 585.28 109.643 585.28 104.259V97.7213C585.28 89.3888 590.664 85.4149 598.612 85.4149H612.713ZM544.515 183.738V85.2867C544.515 78.3643 549.386 75.544 555.796 75.544H577.973C583.485 75.544 587.331 78.4925 587.331 84.0047C587.331 85.1585 587.203 86.3122 586.818 87.3377L574.255 117.848C573.871 118.745 573.743 119.129 573.743 119.514C573.743 120.027 573.999 120.54 574.383 121.052C577.076 125.026 579.127 128.872 580.921 132.974C583.741 139.256 585.023 145.922 585.023 152.716C585.023 158.1 584.126 164.381 579.511 167.843C577.075 169.637 574.512 170.022 571.563 170.022H564.897C562.718 170.022 560.539 168.868 560.539 166.432C560.539 163.869 562.718 162.843 564.897 162.843H566.051C569.64 162.843 570.922 157.844 570.922 150.28C570.922 139.897 567.717 132.461 563.231 123.232C562.59 121.95 561.949 120.54 561.949 118.873C561.949 118.232 562.077 117.591 562.205 117.078L570.794 86.825C570.922 86.3122 571.307 85.1585 571.307 84.9021C571.307 83.3638 569.769 82.7228 568.487 82.7228H563.103C560.539 82.7228 559.77 83.492 559.77 86.0558V183.482C559.77 188.994 557.462 191.686 552.206 191.686C547.078 191.686 544.515 189.122 544.515 183.738ZM644.376 119.642H600.022C597.714 119.642 595.663 118.488 595.663 116.053C595.663 113.489 597.714 112.463 600.022 112.463H644.376C646.556 112.463 648.735 113.489 648.735 116.053C648.735 118.488 646.556 119.642 644.376 119.642ZM614.764 141.435C614.764 149.767 614.251 157.972 611.687 165.535C608.739 174.252 601.688 180.662 593.741 185.277C590.151 187.328 580.665 191.174 577.46 191.174C575.537 191.174 573.999 189.507 573.999 187.584C573.999 185.661 575.409 184.636 577.076 183.867C587.587 179.38 592.971 173.611 595.407 166.432C597.714 159.51 598.099 153.357 598.099 141.435H589.126C586.946 141.435 584.767 140.409 584.767 137.846C584.767 135.41 586.946 134.384 589.126 134.384H656.17C658.349 134.384 660.529 135.41 660.529 137.846C660.529 140.409 658.349 141.435 656.17 141.435H637.71V178.995C637.71 181.559 638.608 182.328 641.172 182.328H642.582C646.043 182.328 647.069 181.687 647.581 178.226C647.838 176.56 647.966 174.38 648.094 171.56C648.35 167.073 649.376 164.51 654.247 164.51C658.349 164.51 661.939 165.92 661.939 170.663C661.939 174.765 661.554 179.893 659.76 183.61C657.324 188.61 652.709 189.251 647.453 189.251H632.583C626.301 189.251 621.302 186.43 621.302 179.508V141.435H614.764Z" fill="white"/>
<path d="M424.783 100.413C424.783 105.797 419.527 110.541 414.271 110.541C410.553 110.541 408.374 107.849 407.477 104.516C404.785 95.4139 401.323 86.5686 395.17 78.877C394.529 78.1079 394.145 77.3387 394.145 76.4414C394.145 74.5185 395.811 72.852 397.734 72.852C399.785 72.852 406.964 78.4925 410.297 81.4409C414.527 85.1585 424.783 94.6447 424.783 100.413ZM476.188 148.998V165.535C476.188 170.663 475.931 172.329 474.521 174.124C473.111 176.047 471.445 176.816 467.983 176.816C465.548 176.816 462.727 176.175 461.189 174.124C460.164 172.714 459.651 171.816 459.651 165.535V148.998H447.473V167.33C447.473 172.201 447.216 173.739 445.934 175.534C444.396 177.585 441.832 178.098 439.525 178.098C437.089 178.098 434.397 177.329 432.859 175.406C431.577 173.868 431.32 171.816 431.32 167.33V112.72C431.32 105.797 435.807 102.977 442.601 102.977H464.522C459.651 99.2596 454.78 96.0548 449.011 92.9782C447.344 92.0809 445.678 91.0553 445.678 88.7479C445.678 86.825 447.216 85.2867 449.139 85.2867C452.216 85.2867 461.958 89.0042 467.471 91.1835C468.624 90.158 475.547 85.1585 475.547 84.0047C475.547 82.9792 474.649 82.5946 473.88 82.5946H432.73C430.551 82.5946 428.372 81.5691 428.372 79.0052C428.372 76.4414 430.551 75.4159 432.73 75.4159H497.083C499.775 75.4159 502.339 77.0824 502.339 80.0308C502.339 82.21 500.672 83.6202 498.878 84.6457C491.955 88.7479 484.52 92.3372 477.341 95.7984C480.674 97.4649 482.725 99.1314 482.725 101.952C482.725 102.336 482.597 102.593 482.597 102.977H494.006C500.416 102.977 505.287 105.797 505.287 112.72V166.432C505.287 173.355 500.416 176.175 494.006 176.175H483.11C480.931 176.175 478.752 175.149 478.752 172.714C478.752 170.278 480.803 169.124 482.982 169.124H485.289C487.981 169.124 488.751 168.355 488.751 165.791V148.998H476.188ZM476.188 122.334H488.751V113.489C488.751 110.925 487.981 110.028 485.289 110.028H476.188V122.334ZM459.651 122.334V110.028H450.806C448.242 110.028 447.473 110.925 447.473 113.489V122.334H459.651ZM421.962 167.458C422.988 173.739 425.936 177.585 431.833 179.764C437.474 181.687 443.499 181.944 449.524 181.944H508.749C510.928 181.944 513.107 182.969 513.107 185.533C513.107 187.969 510.928 188.994 508.749 188.994H445.422C438.884 188.994 431.961 188.866 425.68 186.687C420.552 184.892 416.835 181.175 413.758 176.816C410.938 180.405 407.989 183.867 404.656 186.943C402.99 188.61 400.426 190.276 398.503 190.276C394.016 190.276 392.222 185.405 392.222 181.559C392.222 177.201 393.888 175.662 396.708 174.252C399.529 172.842 402.221 171.816 405.938 169.894V136.82C405.938 134.256 405.169 133.487 402.605 133.487H397.478C395.298 133.487 393.119 132.461 393.119 129.898C393.119 127.462 395.298 126.308 397.478 126.308H410.681C417.091 126.308 421.962 129.257 421.962 136.051V167.458ZM476.188 141.819H488.751V129.385H476.188V141.819ZM459.651 141.819V129.385H447.473V141.819H459.651Z" fill="white"/>
<path d="M219.086 85.4138V78.6195C219.086 74.1327 223.06 71.3124 227.931 71.3124C233.572 71.3124 236.648 74.3891 236.648 79.9014V85.4138H252.416C260.364 85.4138 265.749 89.3879 265.749 97.7206V105.028C265.749 110.668 263.057 113.104 257.672 113.104C251.519 113.104 249.468 109.899 249.468 104.643V96.3104C249.468 93.7465 248.442 92.5928 245.75 92.5928H211.65C208.958 92.5928 207.933 93.7465 207.933 96.3104V105.028C207.933 110.54 204.984 113.104 199.728 113.104C193.447 113.104 191.652 109.643 191.652 104.259V97.7206C191.652 89.3879 197.036 85.4138 204.984 85.4138H219.086ZM150.886 183.74V85.2856C150.886 78.3631 155.757 75.5428 162.167 75.5428H184.345C189.857 75.5428 193.703 78.4913 193.703 84.0037C193.703 85.1574 193.575 86.3112 193.19 87.3368L180.627 117.847C180.242 118.745 180.114 119.129 180.114 119.514C180.114 120.027 180.371 120.539 180.755 121.052C183.447 125.026 185.498 128.872 187.293 132.974C190.113 139.256 191.395 145.922 191.395 152.716C191.395 158.1 190.498 164.382 185.883 167.843C183.447 169.638 180.883 170.023 177.935 170.023H171.269C169.089 170.023 166.91 168.869 166.91 166.433C166.91 163.869 169.089 162.844 171.269 162.844H172.423C176.012 162.844 177.294 157.844 177.294 150.281C177.294 139.897 174.089 132.461 169.602 123.231C168.961 121.949 168.32 120.539 168.32 118.873C168.32 118.232 168.448 117.591 168.577 117.078L177.166 86.824C177.294 86.3112 177.679 85.1574 177.679 84.9011C177.679 83.3627 176.14 82.7217 174.858 82.7217H169.474C166.91 82.7217 166.141 83.4909 166.141 86.0548V183.483C166.141 188.996 163.833 191.688 158.577 191.688C153.45 191.688 150.886 189.124 150.886 183.74ZM250.75 119.642H206.394C204.087 119.642 202.036 118.488 202.036 116.052C202.036 113.489 204.087 112.463 206.394 112.463H250.75C252.929 112.463 255.108 113.489 255.108 116.052C255.108 118.488 252.929 119.642 250.75 119.642ZM221.137 141.435C221.137 149.768 220.624 157.972 218.06 165.536C215.112 174.253 208.061 180.663 200.113 185.278C196.523 187.329 187.037 191.175 183.832 191.175C181.909 191.175 180.371 189.508 180.371 187.585C180.371 185.662 181.781 184.637 183.447 183.868C193.959 179.381 199.344 173.612 201.779 166.433C204.087 159.511 204.471 153.357 204.471 141.435H195.498C193.318 141.435 191.139 140.41 191.139 137.846C191.139 135.41 193.318 134.384 195.498 134.384H262.544C264.723 134.384 266.902 135.41 266.902 137.846C266.902 140.41 264.723 141.435 262.544 141.435H244.084V178.996C244.084 181.56 244.981 182.329 247.545 182.329H248.955C252.416 182.329 253.442 181.688 253.955 178.227C254.211 176.561 254.339 174.381 254.467 171.561C254.724 167.074 255.749 164.51 260.621 164.51C264.723 164.51 268.313 165.92 268.313 170.664C268.313 174.766 267.928 179.894 266.133 183.611C263.697 188.611 259.082 189.252 253.826 189.252H238.956C232.674 189.252 227.675 186.432 227.675 179.509V141.435H221.137Z" fill="#4AA9D5"/>
<path d="M60.3799 137.461C52.3036 155.28 41.1507 169.253 24.4853 179.765C14.7424 185.919 5.64059 190.021 3.33307 190.021C1.53834 190.021 0 188.226 0 186.432C0 184.893 0.640976 183.74 3.46127 182.458C20.383 174.509 33.0744 159.382 42.048 140.794C47.945 128.616 51.7908 107.463 51.7908 97.336V85.2856C51.7908 82.7217 50.7653 81.568 48.0732 81.568H26.6646C24.4853 81.568 22.306 80.5424 22.306 78.1067C22.306 75.5428 24.4853 74.5172 26.6646 74.5172H57.0469C64.9949 74.5172 70.3791 78.4913 70.3791 86.824V98.6179C70.3791 117.206 74.4814 134.513 84.096 150.665C92.1723 164.126 103.71 175.791 117.94 182.586C119.606 183.355 121.144 184.381 121.144 186.303C121.144 188.226 119.606 189.893 117.683 189.893C116.914 189.893 115.247 189.252 112.684 188.098C102.172 183.483 97.6847 180.535 89.352 174.509C75.8915 164.767 66.6615 152.844 60.3799 137.461Z" fill="#4AA9D5"/>
<path d="M349.594 125.321L349.935 125.33C353.436 125.507 356.222 128.402 356.222 131.948C356.222 135.494 353.436 138.389 349.935 138.566L349.594 138.575H303.939C300.279 138.575 297.312 135.608 297.312 131.948C297.312 128.288 300.279 125.321 303.939 125.321H349.594Z" fill="#F49105"/>
<path d="M321.035 108.673L321.044 108.333C321.221 104.831 324.116 102.045 327.662 102.045C331.208 102.045 334.103 104.831 334.28 108.333L334.289 108.673V154.328C334.289 157.988 331.322 160.955 327.662 160.955C324.002 160.955 321.035 157.988 321.035 154.328V108.673Z" fill="#F49105"/>
<path d="M605.713 85.4149V78.6207C605.713 74.1339 609.687 71.3137 614.558 71.3137C620.199 71.3137 623.275 74.3903 623.275 79.9026V85.4149H639.043C646.991 85.4149 652.375 89.3888 652.375 97.7213V105.028C652.375 110.669 649.683 113.104 644.299 113.104C638.146 113.104 636.095 109.9 636.095 104.644V96.3112C636.095 93.7474 635.069 92.5936 632.377 92.5936H598.278C595.586 92.5936 594.56 93.7474 594.56 96.3112V105.028C594.56 110.541 591.612 113.104 586.356 113.104C580.075 113.104 578.28 109.643 578.28 104.259V97.7213C578.28 89.3888 583.664 85.4149 591.612 85.4149H605.713ZM537.515 183.738V85.2867C537.515 78.3643 542.386 75.544 548.796 75.544H570.973C576.485 75.544 580.331 78.4925 580.331 84.0047C580.331 85.1585 580.203 86.3122 579.818 87.3377L567.255 117.848C566.871 118.745 566.743 119.129 566.743 119.514C566.743 120.027 566.999 120.54 567.383 121.052C570.076 125.026 572.127 128.872 573.921 132.974C576.741 139.256 578.023 145.922 578.023 152.716C578.023 158.1 577.126 164.381 572.511 167.843C570.075 169.637 567.512 170.022 564.563 170.022H557.897C555.718 170.022 553.539 168.868 553.539 166.432C553.539 163.869 555.718 162.843 557.897 162.843H559.051C562.64 162.843 563.922 157.844 563.922 150.28C563.922 139.897 560.717 132.461 556.231 123.232C555.59 121.95 554.949 120.54 554.949 118.873C554.949 118.232 555.077 117.591 555.205 117.078L563.794 86.825C563.922 86.3122 564.307 85.1585 564.307 84.9021C564.307 83.3638 562.769 82.7228 561.487 82.7228H556.103C553.539 82.7228 552.77 83.492 552.77 86.0558V183.482C552.77 188.994 550.462 191.686 545.206 191.686C540.078 191.686 537.515 189.122 537.515 183.738ZM637.376 119.642H593.022C590.714 119.642 588.663 118.488 588.663 116.053C588.663 113.489 590.714 112.463 593.022 112.463H637.376C639.556 112.463 641.735 113.489 641.735 116.053C641.735 118.488 639.556 119.642 637.376 119.642ZM607.764 141.435C607.764 149.767 607.251 157.972 604.687 165.535C601.739 174.252 594.688 180.662 586.741 185.277C583.151 187.328 573.665 191.174 570.46 191.174C568.537 191.174 566.999 189.507 566.999 187.584C566.999 185.661 568.409 184.636 570.076 183.867C580.587 179.38 585.971 173.611 588.407 166.432C590.714 159.51 591.099 153.357 591.099 141.435H582.126C579.946 141.435 577.767 140.409 577.767 137.846C577.767 135.41 579.946 134.384 582.126 134.384H649.17C651.349 134.384 653.529 135.41 653.529 137.846C653.529 140.409 651.349 141.435 649.17 141.435H630.71V178.995C630.71 181.559 631.608 182.328 634.172 182.328H635.582C639.043 182.328 640.069 181.687 640.581 178.226C640.838 176.56 640.966 174.38 641.094 171.56C641.35 167.073 642.376 164.51 647.247 164.51C651.349 164.51 654.939 165.92 654.939 170.663C654.939 174.765 654.554 179.893 652.76 183.61C650.324 188.61 645.709 189.251 640.453 189.251H625.583C619.301 189.251 614.302 186.43 614.302 179.508V141.435H607.764Z" fill="#F49105"/>
<path d="M417.783 100.413C417.783 105.797 412.527 110.541 407.271 110.541C403.553 110.541 401.374 107.849 400.477 104.516C397.785 95.4139 394.323 86.5686 388.17 78.877C387.529 78.1079 387.145 77.3387 387.145 76.4414C387.145 74.5185 388.811 72.852 390.734 72.852C392.785 72.852 399.964 78.4925 403.297 81.4409C407.527 85.1585 417.783 94.6447 417.783 100.413ZM469.188 148.998V165.535C469.188 170.663 468.931 172.329 467.521 174.124C466.111 176.047 464.445 176.816 460.983 176.816C458.548 176.816 455.727 176.175 454.189 174.124C453.164 172.714 452.651 171.816 452.651 165.535V148.998H440.473V167.33C440.473 172.201 440.216 173.739 438.934 175.534C437.396 177.585 434.832 178.098 432.525 178.098C430.089 178.098 427.397 177.329 425.859 175.406C424.577 173.868 424.32 171.816 424.32 167.33V112.72C424.32 105.797 428.807 102.977 435.601 102.977H457.522C452.651 99.2596 447.78 96.0548 442.011 92.9782C440.344 92.0809 438.678 91.0553 438.678 88.7479C438.678 86.825 440.216 85.2867 442.139 85.2867C445.216 85.2867 454.958 89.0042 460.471 91.1835C461.624 90.158 468.547 85.1585 468.547 84.0047C468.547 82.9792 467.649 82.5946 466.88 82.5946H425.73C423.551 82.5946 421.372 81.5691 421.372 79.0052C421.372 76.4414 423.551 75.4159 425.73 75.4159H490.083C492.775 75.4159 495.339 77.0824 495.339 80.0308C495.339 82.21 493.672 83.6202 491.878 84.6457C484.955 88.7479 477.52 92.3372 470.341 95.7984C473.674 97.4649 475.725 99.1314 475.725 101.952C475.725 102.336 475.597 102.593 475.597 102.977H487.006C493.416 102.977 498.287 105.797 498.287 112.72V166.432C498.287 173.355 493.416 176.175 487.006 176.175H476.11C473.931 176.175 471.752 175.149 471.752 172.714C471.752 170.278 473.803 169.124 475.982 169.124H478.289C480.981 169.124 481.751 168.355 481.751 165.791V148.998H469.188ZM469.188 122.334H481.751V113.489C481.751 110.925 480.981 110.028 478.289 110.028H469.188V122.334ZM452.651 122.334V110.028H443.806C441.242 110.028 440.473 110.925 440.473 113.489V122.334H452.651ZM414.962 167.458C415.988 173.739 418.936 177.585 424.833 179.764C430.474 181.687 436.499 181.944 442.524 181.944H501.749C503.928 181.944 506.107 182.969 506.107 185.533C506.107 187.969 503.928 188.994 501.749 188.994H438.422C431.884 188.994 424.961 188.866 418.68 186.687C413.552 184.892 409.835 181.175 406.758 176.816C403.938 180.405 400.989 183.867 397.656 186.943C395.99 188.61 393.426 190.276 391.503 190.276C387.016 190.276 385.222 185.405 385.222 181.559C385.222 177.201 386.888 175.662 389.708 174.252C392.529 172.842 395.221 171.816 398.938 169.894V136.82C398.938 134.256 398.169 133.487 395.605 133.487H390.478C388.298 133.487 386.119 132.461 386.119 129.898C386.119 127.462 388.298 126.308 390.478 126.308H403.681C410.091 126.308 414.962 129.257 414.962 136.051V167.458ZM469.188 141.819H481.751V129.385H469.188V141.819ZM452.651 141.819V129.385H440.473V141.819H452.651Z" fill="#F49105"/>
<path d="M616.08 1.96H625.72V5.36H619.4V37.4H616.08V1.96ZM624.6 1.96H625.24L625.8 1.8L628.32 3.28C627.947 4.4 627.52 5.61333 627.04 6.92C626.587 8.2 626.12 9.48 625.64 10.76C625.16 12.0133 624.693 13.1867 624.24 14.28C625.707 15.8267 626.667 17.2933 627.12 18.68C627.6 20.04 627.84 21.32 627.84 22.52C627.84 23.6667 627.707 24.6533 627.44 25.48C627.173 26.28 626.72 26.9067 626.08 27.36C625.787 27.5733 625.44 27.7467 625.04 27.88C624.667 27.9867 624.28 28.0667 623.88 28.12C623.027 28.2267 622.067 28.2533 621 28.2C620.973 27.72 620.88 27.16 620.72 26.52C620.587 25.88 620.387 25.3333 620.12 24.88C620.573 24.9067 620.987 24.9333 621.36 24.96C621.733 24.96 622.067 24.9467 622.36 24.92C622.893 24.8933 623.32 24.7733 623.64 24.56C623.96 24.3733 624.173 24.0667 624.28 23.64C624.387 23.1867 624.44 22.6533 624.44 22.04C624.44 21.0533 624.187 19.9467 623.68 18.72C623.2 17.4933 622.28 16.16 620.92 14.72C621.267 13.7867 621.613 12.7867 621.96 11.72C622.307 10.6267 622.64 9.54667 622.96 8.48C623.307 7.41333 623.613 6.41333 623.88 5.48C624.173 4.52 624.413 3.70667 624.6 3.04V1.96ZM631.76 9.68H647.12V12.84H631.76V9.68ZM639.24 3.52C638.493 4.61333 637.547 5.73333 636.4 6.88C635.253 8.02667 633.973 9.12 632.56 10.16C631.147 11.1733 629.693 12.0667 628.2 12.84C628.013 12.3867 627.733 11.8533 627.36 11.24C627.013 10.6267 626.68 10.1333 626.36 9.76C627.88 9.06667 629.347 8.21333 630.76 7.2C632.173 6.16 633.453 5.04 634.6 3.84C635.773 2.61333 636.693 1.42667 637.36 0.279999H640.84C641.8 1.53333 642.893 2.74667 644.12 3.92C645.373 5.06667 646.707 6.10667 648.12 7.04C649.533 7.94667 650.933 8.68 652.32 9.24C651.973 9.66667 651.613 10.1867 651.24 10.8C650.893 11.4133 650.6 11.9867 650.36 12.52C649 11.8533 647.627 11.04 646.24 10.08C644.853 9.09333 643.547 8.04 642.32 6.92C641.12 5.77333 640.093 4.64 639.24 3.52ZM632.4 18.84V23.44H646.36V18.84H632.4ZM629.08 15.88H649.8V26.44H629.08V15.88ZM637.52 11.52H640.96V21.96C640.96 23.4267 640.8 24.9067 640.48 26.4C640.16 27.8667 639.56 29.2933 638.68 30.68C637.8 32.04 636.507 33.3067 634.8 34.48C633.12 35.68 630.92 36.7067 628.2 37.56C628.093 37.2933 627.907 36.9733 627.64 36.6C627.4 36.2533 627.147 35.9067 626.88 35.56C626.613 35.2133 626.373 34.9467 626.16 34.76C628.693 33.96 630.72 33.08 632.24 32.12C633.76 31.1333 634.893 30.08 635.64 28.96C636.387 27.84 636.88 26.68 637.12 25.48C637.387 24.28 637.52 23.08 637.52 21.88V11.52ZM641.36 24.72C642.16 26.72 643.08 28.3333 644.12 29.56C645.16 30.7867 646.333 31.7733 647.64 32.52C648.973 33.24 650.453 33.8533 652.08 34.36C651.627 34.76 651.187 35.24 650.76 35.8C650.36 36.3867 650.067 36.9733 649.88 37.56C648.067 36.8667 646.44 36.04 645 35.08C643.56 34.12 642.267 32.8667 641.12 31.32C640 29.7733 639.013 27.8 638.16 25.4L641.36 24.72Z" fill="#4AA9D5"/>
<path d="M596.239 14.16H600.039V37.36H596.239V14.16ZM585.079 19.64H610.919V23.08H585.079V19.64ZM600.919 21.12C601.693 22.64 602.679 24.1467 603.879 25.64C605.079 27.1067 606.386 28.4667 607.799 29.72C609.213 30.9467 610.626 31.96 612.039 32.76C611.746 33 611.426 33.2933 611.079 33.64C610.733 33.9867 610.413 34.3467 610.119 34.72C609.826 35.12 609.573 35.4667 609.359 35.76C607.919 34.8 606.493 33.6 605.079 32.16C603.666 30.6933 602.359 29.1067 601.159 27.4C599.959 25.6933 598.919 23.9467 598.039 22.16L600.919 21.12ZM595.559 20.8L598.559 21.88C597.653 23.72 596.559 25.52 595.279 27.28C593.999 29.04 592.599 30.64 591.079 32.08C589.559 33.52 587.999 34.72 586.399 35.68C586.213 35.36 585.959 35.0133 585.639 34.64C585.346 34.2933 585.039 33.9467 584.719 33.6C584.399 33.2267 584.093 32.92 583.799 32.68C585.346 31.9067 586.866 30.8933 588.359 29.64C589.879 28.36 591.253 26.96 592.479 25.44C593.733 23.92 594.759 22.3733 595.559 20.8ZM591.479 5.4V11.88H605.039V5.4H591.479ZM587.919 2.08H608.799V15.28H587.919V2.08ZM583.279 0.32L586.799 1.48C585.919 3.72 584.879 5.96 583.679 8.2C582.479 10.4133 581.186 12.4933 579.799 14.44C578.413 16.3867 576.986 18.12 575.519 19.64C575.386 19.32 575.199 18.92 574.959 18.44C574.719 17.96 574.453 17.48 574.159 17C573.893 16.52 573.653 16.12 573.439 15.8C574.746 14.5467 575.999 13.1067 577.199 11.48C578.426 9.82667 579.559 8.05334 580.599 6.16C581.639 4.24 582.533 2.29333 583.279 0.32ZM579.239 10.96L582.839 7.4L582.879 7.44V37.24H579.239V10.96Z" fill="#4AA9D5"/>
<path d="M541.4 4.08C541.907 4.13334 542.44 4.17334 543 4.2C543.587 4.22667 544.12 4.24 544.6 4.24C545 4.24 545.64 4.24 546.52 4.24C547.427 4.21334 548.44 4.18667 549.56 4.16C550.707 4.13334 551.84 4.10667 552.96 4.08C554.08 4.02667 555.08 3.97334 555.96 3.92C556.867 3.86667 557.534 3.82667 557.96 3.8C558.68 3.74667 559.227 3.69334 559.6 3.64C560 3.58667 560.307 3.52 560.52 3.44L562.72 6.32C562.32 6.58667 561.907 6.85334 561.48 7.12C561.054 7.38667 560.627 7.69334 560.2 8.04C559.694 8.41334 559.027 8.93334 558.2 9.6C557.4 10.24 556.534 10.96 555.6 11.76C554.667 12.5333 553.747 13.2933 552.84 14.04C551.934 14.7867 551.12 15.4533 550.4 16.04C551.2 15.7733 552 15.6 552.8 15.52C553.6 15.4133 554.4 15.36 555.2 15.36C557.414 15.36 559.4 15.7867 561.16 16.64C562.92 17.4933 564.307 18.64 565.32 20.08C566.334 21.52 566.84 23.1867 566.84 25.08C566.84 27.1867 566.28 29.0667 565.16 30.72C564.067 32.3733 562.467 33.6667 560.36 34.6C558.28 35.5333 555.747 36 552.76 36C550.92 36 549.307 35.7467 547.92 35.24C546.534 34.7333 545.454 34.0267 544.68 33.12C543.934 32.1867 543.56 31.12 543.56 29.92C543.56 28.9333 543.827 28.0133 544.36 27.16C544.92 26.28 545.694 25.5867 546.68 25.08C547.694 24.5467 548.854 24.28 550.16 24.28C551.974 24.28 553.48 24.6533 554.68 25.4C555.907 26.12 556.84 27.08 557.48 28.28C558.147 29.48 558.507 30.7867 558.56 32.2L554.92 32.72C554.84 31.12 554.374 29.8133 553.52 28.8C552.694 27.7867 551.574 27.28 550.16 27.28C549.307 27.28 548.6 27.5067 548.04 27.96C547.507 28.4133 547.24 28.9467 547.24 29.56C547.24 30.44 547.68 31.1333 548.56 31.64C549.467 32.1467 550.627 32.4 552.04 32.4C554.307 32.4 556.24 32.12 557.84 31.56C559.44 30.9733 560.654 30.1333 561.48 29.04C562.307 27.92 562.72 26.5733 562.72 25C562.72 23.7467 562.347 22.6267 561.6 21.64C560.854 20.6533 559.827 19.8933 558.52 19.36C557.214 18.8 555.72 18.52 554.04 18.52C552.44 18.52 550.974 18.7067 549.64 19.08C548.334 19.4267 547.107 19.9467 545.96 20.64C544.814 21.3067 543.68 22.1467 542.56 23.16C541.467 24.1467 540.334 25.28 539.16 26.56L536.24 23.6C537.04 22.96 537.92 22.24 538.88 21.44C539.84 20.64 540.8 19.84 541.76 19.04C542.747 18.2133 543.667 17.44 544.52 16.72C545.4 15.9733 546.134 15.36 546.72 14.88C547.28 14.4267 547.96 13.88 548.76 13.24C549.56 12.5733 550.387 11.88 551.24 11.16C552.094 10.44 552.907 9.76 553.68 9.12C554.454 8.45334 555.094 7.89334 555.6 7.44C555.174 7.46667 554.587 7.49334 553.84 7.52C553.094 7.54667 552.267 7.58667 551.36 7.64C550.48 7.66667 549.587 7.70667 548.68 7.76C547.774 7.78667 546.947 7.82667 546.2 7.88C545.454 7.90667 544.88 7.93334 544.48 7.96C544 7.98667 543.494 8.02667 542.96 8.08C542.454 8.10667 541.974 8.14667 541.52 8.2L541.4 4.08Z" fill="#4AA9D5"/>
<path d="M517.359 2.08C517.333 2.24 517.293 2.52 517.24 2.92C517.213 3.32 517.186 3.72 517.159 4.12C517.133 4.52 517.12 4.81333 517.12 5C517.093 5.50667 517.066 6.21334 517.039 7.12C517.039 8 517.039 8.97334 517.039 10.04C517.039 11.1067 517.039 12.1867 517.039 13.28C517.066 14.3467 517.079 15.36 517.079 16.32C517.106 17.2533 517.12 18.04 517.12 18.68L513.24 17.08C513.24 16.6533 513.24 16.0533 513.24 15.28C513.24 14.48 513.226 13.5867 513.199 12.6C513.199 11.5867 513.186 10.5867 513.16 9.6C513.16 8.61334 513.146 7.70667 513.12 6.88C513.12 6.05333 513.106 5.42667 513.079 5C513.026 4.36 512.959 3.76 512.879 3.2C512.826 2.64 512.786 2.26667 512.759 2.08H517.359ZM495.479 7.4C496.626 7.37334 497.906 7.34667 499.319 7.32C500.759 7.29333 502.279 7.26667 503.879 7.24C505.479 7.18667 507.066 7.14667 508.639 7.12C510.239 7.06667 511.759 7.04 513.199 7.04C514.639 7.01334 515.919 7 517.039 7C518.186 7 519.36 7 520.56 7C521.76 7 522.906 7 524 7C525.093 7 526.079 7 526.959 7C527.866 7 528.573 7 529.08 7L529 10.76C527.853 10.7067 526.293 10.6667 524.32 10.64C522.373 10.5867 519.92 10.56 516.96 10.56C515.2 10.56 513.386 10.5733 511.52 10.6C509.653 10.6267 507.773 10.68 505.879 10.76C504.013 10.8133 502.2 10.88 500.44 10.96C498.706 11.04 497.093 11.1333 495.599 11.24L495.479 7.4ZM516.759 19.08C516.759 21.0533 516.493 22.6933 515.96 24C515.453 25.28 514.719 26.2533 513.759 26.92C512.799 27.56 511.64 27.88 510.28 27.88C509.453 27.88 508.64 27.7333 507.84 27.44C507.066 27.1467 506.346 26.7067 505.68 26.12C505.04 25.5067 504.52 24.7733 504.12 23.92C503.746 23.04 503.56 22.04 503.56 20.92C503.56 19.5067 503.893 18.2667 504.56 17.2C505.253 16.1067 506.16 15.2533 507.28 14.64C508.426 14.0267 509.666 13.72 511 13.72C512.653 13.72 514.026 14.0933 515.12 14.84C516.24 15.5867 517.079 16.6 517.639 17.88C518.199 19.1333 518.479 20.56 518.479 22.16C518.479 23.4667 518.279 24.8267 517.879 26.24C517.479 27.6267 516.813 28.9733 515.88 30.28C514.946 31.5867 513.679 32.7867 512.079 33.88C510.506 34.9467 508.533 35.8267 506.16 36.52L502.759 33.16C504.546 32.7867 506.159 32.2933 507.599 31.68C509.039 31.04 510.279 30.2667 511.319 29.36C512.359 28.4267 513.16 27.3333 513.72 26.08C514.306 24.8 514.599 23.32 514.599 21.64C514.599 20.04 514.24 18.88 513.52 18.16C512.826 17.44 511.973 17.08 510.96 17.08C510.346 17.08 509.759 17.2267 509.199 17.52C508.639 17.8133 508.186 18.24 507.84 18.8C507.493 19.36 507.319 20.04 507.319 20.84C507.319 21.96 507.68 22.84 508.4 23.48C509.146 24.0933 510 24.4 510.96 24.4C511.733 24.4 512.386 24.1867 512.919 23.76C513.479 23.3067 513.866 22.6133 514.079 21.68C514.293 20.72 514.239 19.5067 513.919 18.04L516.759 19.08Z" fill="#4AA9D5"/>
<path d="M455.28 16.16C455.734 16.1867 456.28 16.2267 456.92 16.28C457.587 16.3067 458.294 16.3333 459.04 16.36C459.814 16.3867 460.547 16.4 461.24 16.4C461.774 16.4 462.507 16.4 463.44 16.4C464.374 16.4 465.427 16.4 466.6 16.4C467.8 16.4 469.054 16.4 470.36 16.4C471.667 16.4 472.96 16.4 474.24 16.4C475.547 16.4 476.774 16.4 477.92 16.4C479.067 16.4 480.08 16.4 480.96 16.4C481.84 16.4 482.52 16.4 483 16.4C483.96 16.4 484.827 16.3733 485.6 16.32C486.374 16.24 487 16.1867 487.48 16.16V21.12C487.027 21.0933 486.387 21.0533 485.56 21C484.734 20.9467 483.88 20.92 483 20.92C482.547 20.92 481.867 20.92 480.96 20.92C480.08 20.92 479.067 20.92 477.92 20.92C476.774 20.92 475.547 20.92 474.24 20.92C472.96 20.92 471.667 20.92 470.36 20.92C469.054 20.92 467.8 20.92 466.6 20.92C465.427 20.92 464.374 20.92 463.44 20.92C462.507 20.92 461.774 20.92 461.24 20.92C460.147 20.92 459.054 20.9467 457.96 21C456.867 21.0267 455.974 21.0667 455.28 21.12V16.16Z" fill="#4AA9D5"/>
<path d="M441.88 2.52C442.227 2.97334 442.587 3.53334 442.96 4.2C443.36 4.86667 443.747 5.53334 444.12 6.2C444.493 6.86667 444.813 7.46667 445.08 8L442.48 9.12C442.08 8.32 441.573 7.38667 440.96 6.32C440.373 5.25334 439.813 4.34667 439.28 3.6L441.88 2.52ZM446.4 0.800003C446.747 1.30667 447.12 1.89334 447.52 2.56C447.947 3.22667 448.36 3.89334 448.76 4.56C449.16 5.2 449.48 5.76 449.72 6.24L447.12 7.4C446.693 6.54667 446.173 5.6 445.56 4.56C444.973 3.52 444.4 2.62667 443.84 1.88L446.4 0.800003ZM419.28 21.8C419.707 20.7067 420.12 19.5467 420.52 18.32C420.947 17.0933 421.333 15.8267 421.68 14.52C422.027 13.1867 422.32 11.8667 422.56 10.56C422.827 9.25334 423.027 8 423.16 6.8L427.68 7.72C427.6 8.06667 427.507 8.45334 427.4 8.88C427.293 9.28 427.187 9.68 427.08 10.08C427 10.48 426.92 10.8267 426.84 11.12C426.707 11.76 426.52 12.5867 426.28 13.6C426.067 14.5867 425.8 15.6533 425.48 16.8C425.16 17.92 424.813 19.0667 424.44 20.24C424.093 21.3867 423.72 22.4533 423.32 23.44C422.84 24.6933 422.28 25.9867 421.64 27.32C421 28.6267 420.32 29.9067 419.6 31.16C418.88 32.4133 418.16 33.56 417.44 34.6L413.08 32.76C414.333 31.1067 415.507 29.2933 416.6 27.32C417.693 25.32 418.587 23.48 419.28 21.8ZM439 20.56C438.6 19.52 438.147 18.4133 437.64 17.24C437.16 16.0667 436.653 14.8933 436.12 13.72C435.613 12.52 435.107 11.4 434.6 10.36C434.093 9.32 433.627 8.42667 433.2 7.68L437.32 6.32C437.72 7.06667 438.173 7.96 438.68 9C439.213 10.04 439.747 11.16 440.28 12.36C440.813 13.5333 441.333 14.7067 441.84 15.88C442.347 17.0533 442.8 18.1467 443.2 19.16C443.573 20.12 443.973 21.2 444.4 22.4C444.853 23.6 445.293 24.84 445.72 26.12C446.173 27.3733 446.587 28.6 446.96 29.8C447.333 30.9733 447.653 32.04 447.92 33L443.36 34.48C443.013 33.0133 442.6 31.48 442.12 29.88C441.64 28.28 441.133 26.68 440.6 25.08C440.093 23.48 439.56 21.9733 439 20.56Z" fill="#4AA9D5"/>
<path d="M391.32 2.28C391.293 2.73333 391.253 3.29333 391.2 3.96C391.173 4.6 391.146 5.16 391.12 5.64C390.986 9.69333 390.626 13.2533 390.04 16.32C389.453 19.36 388.626 22.0533 387.56 24.4C386.52 26.72 385.213 28.7733 383.64 30.56C382.093 32.32 380.28 33.9333 378.2 35.4L374.52 32.4C375.24 32.0267 376.013 31.5467 376.84 30.96C377.666 30.3733 378.426 29.7333 379.12 29.04C380.4 27.84 381.52 26.4933 382.48 25C383.44 23.5067 384.24 21.84 384.88 20C385.546 18.1333 386.053 16.0267 386.4 13.68C386.746 11.3067 386.92 8.65333 386.92 5.72C386.92 5.42667 386.906 5.06667 386.88 4.64C386.88 4.21333 386.853 3.78667 386.8 3.36C386.746 2.93333 386.693 2.57333 386.64 2.28H391.32ZM405.12 10.68C405.066 11.0267 405.013 11.3867 404.96 11.76C404.906 12.1333 404.866 12.4533 404.84 12.72C404.813 13.52 404.773 14.5733 404.72 15.88C404.666 17.1867 404.573 18.6133 404.44 20.16C404.333 21.7067 404.186 23.24 404 24.76C403.813 26.28 403.6 27.6933 403.36 29C403.12 30.28 402.813 31.32 402.44 32.12C402.04 33.0533 401.466 33.7333 400.72 34.16C400 34.6133 399.026 34.84 397.8 34.84C396.733 34.84 395.626 34.8133 394.48 34.76C393.36 34.7067 392.293 34.64 391.28 34.56L390.8 30.36C391.84 30.4933 392.853 30.6133 393.84 30.72C394.853 30.8 395.773 30.84 396.6 30.84C397.213 30.84 397.693 30.7467 398.04 30.56C398.386 30.3467 398.666 29.9867 398.88 29.48C399.146 28.92 399.386 28.1467 399.6 27.16C399.813 26.1467 399.986 25.04 400.12 23.84C400.28 22.6133 400.4 21.36 400.48 20.08C400.586 18.7733 400.653 17.5467 400.68 16.4C400.733 15.2267 400.76 14.2 400.76 13.32H380.36C379.613 13.32 378.8 13.3333 377.92 13.36C377.066 13.3867 376.253 13.4267 375.48 13.48V9.32C376.253 9.37333 377.066 9.42667 377.92 9.48C378.773 9.53333 379.586 9.56 380.36 9.56H399.56C400.093 9.56 400.586 9.54667 401.04 9.52C401.493 9.46667 401.92 9.4 402.32 9.32L405.12 10.68Z" fill="#4AA9D5"/>
<path d="M348.36 2.28001C348.226 2.89334 348.106 3.45334 348 3.96001C347.92 4.46667 347.84 4.96001 347.76 5.44001C347.68 6.10668 347.56 6.98668 347.4 8.08001C347.266 9.14668 347.106 10.3467 346.92 11.68C346.733 13.0133 346.56 14.3867 346.4 15.8C346.24 17.2133 346.08 18.6 345.92 19.96C345.76 21.2933 345.64 22.52 345.56 23.64C345.48 24.7333 345.44 25.6267 345.44 26.32C345.44 28.1333 345.96 29.5467 347 30.56C348.066 31.5733 349.68 32.08 351.84 32.08C353.786 32.08 355.453 31.8133 356.84 31.28C358.253 30.7467 359.333 30 360.08 29.04C360.826 28.08 361.2 26.9733 361.2 25.72C361.2 24.36 360.84 23 360.12 21.64C359.426 20.28 358.373 18.9733 356.96 17.72L361.4 16.8C362.733 18.3733 363.733 19.9067 364.4 21.4C365.066 22.8667 365.4 24.4667 365.4 26.2C365.4 28.1733 364.826 29.9067 363.68 31.4C362.56 32.8933 360.986 34.0533 358.96 34.88C356.933 35.7067 354.533 36.12 351.76 36.12C349.813 36.12 348.066 35.8133 346.52 35.2C344.973 34.5867 343.746 33.6133 342.84 32.28C341.96 30.9467 341.52 29.1733 341.52 26.96C341.52 26.1333 341.586 25.0267 341.72 23.64C341.853 22.2533 342.013 20.7333 342.2 19.08C342.413 17.4267 342.626 15.7467 342.84 14.04C343.08 12.3067 343.28 10.68 343.44 9.16001C343.626 7.61334 343.76 6.29334 343.84 5.20001C343.92 4.40001 343.96 3.77334 343.96 3.32001C343.96 2.86667 343.933 2.44001 343.88 2.04001L348.36 2.28001ZM334.92 7.44001C336.066 7.81334 337.333 8.12001 338.72 8.36001C340.106 8.60001 341.52 8.78667 342.96 8.92001C344.4 9.02668 345.746 9.08001 347 9.08001C348.546 9.08001 350 9.04001 351.36 8.96001C352.72 8.85334 353.946 8.72001 355.04 8.56001L354.92 12.32C353.666 12.4267 352.426 12.52 351.2 12.6C349.973 12.68 348.533 12.72 346.88 12.72C345.653 12.72 344.32 12.6533 342.88 12.52C341.466 12.3867 340.053 12.2 338.64 11.96C337.226 11.6933 335.92 11.4133 334.72 11.12L334.92 7.44001ZM334 17.4C335.36 17.8533 336.76 18.2133 338.2 18.48C339.64 18.7467 341.066 18.9333 342.48 19.04C343.92 19.12 345.28 19.16 346.56 19.16C347.866 19.16 349.213 19.12 350.6 19.04C352.013 18.96 353.4 18.84 354.76 18.68L354.64 22.44C353.413 22.5733 352.186 22.68 350.96 22.76C349.733 22.8133 348.466 22.84 347.16 22.84C344.76 22.84 342.386 22.7067 340.04 22.44C337.693 22.1467 335.613 21.7467 333.8 21.24L334 17.4Z" fill="#4AA9D5"/>
<path d="M312 16.68L315.44 17.72C314.56 19.2933 313.493 20.8 312.24 22.24C311.013 23.6533 309.693 24.96 308.28 26.16C306.866 27.36 305.426 28.4133 303.96 29.32C303.8 29.0533 303.56 28.7467 303.24 28.4C302.946 28.0533 302.64 27.7067 302.32 27.36C302 26.9867 301.706 26.6933 301.44 26.48C303.573 25.36 305.586 23.9467 307.48 22.24C309.4 20.5333 310.906 18.68 312 16.68ZM312.36 0.160004L315.68 1.88C314.666 3.10667 313.573 4.34667 312.4 5.6C311.253 6.85334 310.186 7.93334 309.2 8.84L306.56 7.32C307.226 6.68 307.906 5.94667 308.6 5.12C309.32 4.29334 310.013 3.45334 310.68 2.6C311.346 1.72 311.906 0.90667 312.36 0.160004ZM320 3.2L323.4 5.04C322.013 6.50667 320.506 8.02667 318.88 9.6C317.253 11.1467 315.613 12.64 313.96 14.08C312.306 15.52 310.733 16.7867 309.24 17.88L306.72 16.2C307.813 15.3733 308.96 14.4267 310.16 13.36C311.36 12.2933 312.56 11.1867 313.76 10.04C314.96 8.86667 316.093 7.69334 317.16 6.52C318.226 5.34667 319.173 4.24 320 3.2ZM303.04 7.08L305.32 4.64C306.333 5.28 307.386 6 308.48 6.8C309.573 7.57334 310.586 8.36 311.52 9.16C312.48 9.96 313.253 10.6933 313.84 11.36L311.4 14.12C310.866 13.4267 310.133 12.6667 309.2 11.84C308.266 10.9867 307.266 10.1467 306.2 9.32C305.133 8.49334 304.08 7.74667 303.04 7.08ZM319.52 11.68L322.44 10.08C323.293 10.96 324.133 11.92 324.96 12.96C325.786 14 326.546 15.0267 327.24 16.04C327.96 17.0533 328.506 17.9867 328.88 18.84L325.72 20.64C325.373 19.84 324.866 18.92 324.2 17.88C323.533 16.8133 322.786 15.7467 321.96 14.68C321.16 13.5867 320.346 12.5867 319.52 11.68ZM301.92 15.16C303.866 15.1333 306.106 15.1067 308.64 15.08C311.173 15.0533 313.88 15.0133 316.76 14.96C319.64 14.88 322.506 14.8 325.36 14.72L325.2 17.8C322.453 17.9067 319.693 18.0133 316.92 18.12C314.173 18.2 311.533 18.28 309 18.36C306.493 18.44 304.24 18.5067 302.24 18.56L301.92 15.16ZM309.96 23.04C311.08 24.9067 312.573 26.6 314.44 28.12C316.306 29.6133 318.466 30.88 320.92 31.92C323.4 32.9333 326.066 33.6933 328.92 34.2C328.653 34.4667 328.373 34.7867 328.08 35.16C327.786 35.56 327.506 35.96 327.24 36.36C327 36.76 326.786 37.12 326.6 37.44C323.666 36.8 320.946 35.8667 318.44 34.64C315.933 33.4133 313.706 31.92 311.76 30.16C309.813 28.3733 308.186 26.3333 306.88 24.04L309.96 23.04ZM310.88 21.04H322.32V23.92H308.36L310.88 21.04ZM321.12 21.04H321.8L322.44 20.88L324.84 22C323.933 24.1867 322.733 26.1333 321.24 27.84C319.773 29.52 318.08 30.9867 316.16 32.24C314.266 33.4933 312.213 34.5467 310 35.4C307.813 36.28 305.56 36.9867 303.24 37.52C303.053 37.04 302.773 36.48 302.4 35.84C302.053 35.2 301.72 34.68 301.4 34.28C303.56 33.88 305.653 33.32 307.68 32.6C309.706 31.88 311.6 30.9867 313.36 29.92C315.146 28.8533 316.693 27.6267 318 26.24C319.333 24.8533 320.373 23.2933 321.12 21.56V21.04ZM300.04 8.6L303.4 9.84C302.493 11.44 301.453 13.04 300.28 14.64C299.106 16.2133 297.853 17.7067 296.52 19.12C295.213 20.5067 293.906 21.7467 292.6 22.84C292.493 22.5467 292.306 22.1867 292.04 21.76C291.8 21.3333 291.546 20.8933 291.28 20.44C291.013 19.9867 290.773 19.64 290.56 19.4C291.733 18.4933 292.906 17.4667 294.08 16.32C295.253 15.1733 296.346 13.9467 297.36 12.64C298.4 11.3067 299.293 9.96 300.04 8.6ZM299.2 0.240003L302.56 1.56C301.76 2.70667 300.826 3.86667 299.76 5.04C298.693 6.21334 297.586 7.33334 296.44 8.4C295.293 9.46667 294.146 10.4133 293 11.24C292.84 10.9733 292.64 10.68 292.4 10.36C292.16 10.0133 291.906 9.66667 291.64 9.32C291.4 8.97333 291.173 8.69334 290.96 8.48C291.973 7.76 293 6.94667 294.04 6.04C295.08 5.10667 296.053 4.13334 296.96 3.12C297.866 2.10667 298.613 1.14667 299.2 0.240003ZM296.52 16.56L299.68 13.4L300.08 13.56V37.48H296.52V16.56Z" fill="#4AA9D5"/>
<path d="M273.719 0.360001H277.399V6.48H273.719V0.360001ZM264.399 4.76H287.439V12.32H283.959V8H267.799V12.32H264.399V4.76ZM267.479 11.96H284.279V15.24H267.479V11.96ZM264.919 19.08H287.439V22.48H264.919V19.08ZM269.919 20.64H273.519C273.413 22.7733 273.213 24.72 272.919 26.48C272.626 28.2133 272.133 29.7733 271.439 31.16C270.773 32.5467 269.799 33.7467 268.519 34.76C267.266 35.8 265.626 36.6667 263.6 37.36C263.493 37.0667 263.319 36.7333 263.079 36.36C262.839 35.9867 262.586 35.6267 262.319 35.28C262.053 34.9333 261.786 34.6533 261.519 34.44C263.333 33.8533 264.773 33.1467 265.839 32.32C266.906 31.4933 267.719 30.52 268.279 29.4C268.866 28.28 269.266 26.9867 269.479 25.52C269.693 24.0533 269.839 22.4267 269.919 20.64ZM277.32 20.28H280.88V32.32C280.88 32.8533 280.919 33.1867 280.999 33.32C281.106 33.4533 281.333 33.52 281.679 33.52C281.786 33.52 281.986 33.52 282.279 33.52C282.573 33.52 282.866 33.52 283.16 33.52C283.48 33.52 283.693 33.52 283.799 33.52C284.066 33.52 284.266 33.4133 284.399 33.2C284.533 32.9867 284.626 32.5333 284.679 31.84C284.733 31.12 284.773 30.0533 284.799 28.64C285.039 28.8533 285.346 29.0533 285.719 29.24C286.093 29.4267 286.48 29.6 286.88 29.76C287.306 29.8933 287.679 30 287.999 30.08C287.893 31.8667 287.706 33.2533 287.439 34.24C287.173 35.2533 286.786 35.9467 286.279 36.32C285.773 36.72 285.079 36.92 284.199 36.92C284.039 36.92 283.813 36.92 283.519 36.92C283.253 36.92 282.959 36.92 282.639 36.92C282.319 36.92 282.013 36.92 281.719 36.92C281.453 36.92 281.239 36.92 281.079 36.92C280.066 36.92 279.279 36.7733 278.719 36.48C278.186 36.2133 277.813 35.7467 277.6 35.08C277.413 34.4133 277.32 33.4933 277.32 32.32V20.28ZM252.479 1.96H261.879V5.36H255.799V37.4H252.479V1.96ZM260.759 1.96H261.359L261.919 1.8L264.399 3.24C264.026 4.36 263.626 5.56 263.199 6.84C262.773 8.09333 262.333 9.33333 261.879 10.56C261.453 11.7867 261.026 12.9333 260.599 14C261.959 15.6 262.853 17.0933 263.279 18.48C263.706 19.8667 263.919 21.1733 263.919 22.4C263.919 23.5467 263.786 24.5333 263.519 25.36C263.279 26.1867 262.853 26.8133 262.239 27.24C261.946 27.4533 261.613 27.6267 261.239 27.76C260.893 27.8667 260.506 27.96 260.079 28.04C259.306 28.12 258.426 28.1333 257.439 28.08C257.413 27.6267 257.319 27.0933 257.159 26.48C257.026 25.84 256.826 25.2933 256.559 24.84C256.959 24.8667 257.333 24.88 257.679 24.88C258.026 24.88 258.346 24.88 258.639 24.88C259.146 24.8533 259.546 24.7333 259.839 24.52C260.106 24.3067 260.293 23.9733 260.399 23.52C260.506 23.0667 260.559 22.5467 260.559 21.96C260.559 20.9467 260.346 19.8 259.919 18.52C259.493 17.24 258.626 15.8667 257.319 14.4C257.666 13.4933 257.999 12.52 258.319 11.48C258.639 10.44 258.946 9.4 259.239 8.36C259.559 7.29333 259.839 6.30667 260.079 5.4C260.346 4.46667 260.573 3.68 260.759 3.04V1.96Z" fill="#4AA9D5"/>
<path d="M218.12 2.56H229.48V6.4H218.12V2.56ZM227.6 2.56H231.48C231.48 3.78666 231.52 5.21333 231.6 6.84C231.707 8.44 231.934 10.16 232.28 12C232.627 13.8133 233.16 15.6933 233.88 17.64C234.6 19.5867 235.547 21.52 236.72 23.44C237.92 25.36 239.427 27.2267 241.24 29.04C243.054 30.8267 245.24 32.48 247.8 34C247.534 34.2133 247.2 34.5067 246.8 34.88C246.4 35.28 246.014 35.6933 245.64 36.12C245.267 36.5467 244.974 36.92 244.76 37.24C242.147 35.64 239.907 33.88 238.04 31.96C236.174 30.0133 234.6 27.96 233.32 25.8C232.067 23.64 231.054 21.4667 230.28 19.28C229.507 17.0933 228.92 14.9733 228.52 12.92C228.147 10.8667 227.894 8.96 227.76 7.2C227.654 5.41333 227.6 3.86666 227.6 2.56ZM226.2 10.84L230.48 11.6C229.547 15.6267 228.32 19.2667 226.8 22.52C225.28 25.7467 223.44 28.5867 221.28 31.04C219.147 33.4933 216.627 35.5867 213.72 37.32C213.507 37.0267 213.187 36.6933 212.76 36.32C212.334 35.9467 211.894 35.56 211.44 35.16C211.014 34.76 210.627 34.4533 210.28 34.24C214.627 32 218.067 28.92 220.6 25C223.16 21.0533 225.027 16.3333 226.2 10.84Z" fill="#4AA9D5"/>
<path d="M171.6 7.2C172.373 7.17334 173.08 7.14667 173.72 7.12C174.386 7.06667 174.92 7.02667 175.32 7C176.04 6.92 177 6.82667 178.2 6.72C179.426 6.58667 180.813 6.45334 182.36 6.32C183.906 6.18667 185.56 6.04 187.32 5.88C189.08 5.72 190.88 5.56 192.72 5.4C194.133 5.29334 195.506 5.2 196.84 5.12C198.2 5.01334 199.466 4.93334 200.64 4.88C201.813 4.8 202.853 4.74667 203.76 4.72V8.76C203.013 8.73334 202.16 8.73334 201.2 8.76C200.266 8.78667 199.333 8.84 198.4 8.92C197.493 9 196.68 9.13334 195.96 9.32C194.653 9.72 193.453 10.3467 192.36 11.2C191.266 12.0533 190.32 13.04 189.52 14.16C188.746 15.28 188.146 16.4667 187.72 17.72C187.32 18.9733 187.12 20.1867 187.12 21.36C187.12 22.8267 187.36 24.1067 187.84 25.2C188.346 26.2667 189.04 27.1867 189.92 27.96C190.8 28.7067 191.813 29.3333 192.96 29.84C194.106 30.32 195.32 30.68 196.6 30.92C197.906 31.16 199.213 31.3067 200.52 31.36L199.08 35.64C197.506 35.56 195.946 35.32 194.4 34.92C192.853 34.5467 191.4 34.0133 190.04 33.32C188.68 32.6 187.466 31.7067 186.4 30.64C185.36 29.5733 184.533 28.3467 183.92 26.96C183.333 25.5733 183.04 24 183.04 22.24C183.04 20.2133 183.373 18.3467 184.04 16.64C184.733 14.9333 185.6 13.4533 186.64 12.2C187.68 10.92 188.746 9.93334 189.84 9.24C189.04 9.32 188.053 9.42667 186.88 9.56C185.706 9.66667 184.44 9.8 183.08 9.96C181.746 10.12 180.4 10.2933 179.04 10.48C177.68 10.64 176.386 10.8133 175.16 11C173.96 11.1867 172.906 11.3733 172 11.56L171.6 7.2ZM198 13.2C198.32 13.6533 198.68 14.2133 199.08 14.88C199.48 15.52 199.88 16.1867 200.28 16.88C200.68 17.5467 201.013 18.16 201.28 18.72L198.8 19.84C198.32 18.8267 197.813 17.8533 197.28 16.92C196.773 15.9867 196.213 15.0933 195.6 14.24L198 13.2ZM202.44 11.48C202.76 11.9333 203.133 12.48 203.56 13.12C203.986 13.7333 204.4 14.3733 204.8 15.04C205.2 15.7067 205.546 16.3333 205.84 16.92L203.4 18.08C202.866 17.0667 202.333 16.12 201.8 15.24C201.266 14.3333 200.68 13.44 200.04 12.56L202.44 11.48Z" fill="#4AA9D5"/>
<path d="M152.56 30.16H163.16V33.8H152.56V30.16ZM130.28 7.64H145.32V11.32H130.28V7.64ZM150.84 5.04H164.92V36.36H161.12V8.68H154.48V36.68H150.84V5.04ZM144.36 7.64H148.04C148.04 7.64 148.04 7.76 148.04 8C148.04 8.21334 148.04 8.46667 148.04 8.76C148.04 9.05334 148.027 9.29334 148 9.48C147.92 13.8533 147.84 17.5467 147.76 20.56C147.68 23.5733 147.574 26.0533 147.44 28C147.307 29.92 147.134 31.4133 146.92 32.48C146.734 33.52 146.48 34.2667 146.16 34.72C145.76 35.3067 145.334 35.72 144.88 35.96C144.454 36.2267 143.92 36.4133 143.28 36.52C142.72 36.6 142.014 36.64 141.16 36.64C140.307 36.6667 139.427 36.6533 138.52 36.6C138.494 36.04 138.374 35.4 138.16 34.68C137.974 33.96 137.72 33.3333 137.4 32.8C138.28 32.8533 139.094 32.8933 139.84 32.92C140.587 32.9467 141.147 32.96 141.52 32.96C141.814 32.96 142.067 32.92 142.28 32.84C142.494 32.7333 142.68 32.5467 142.84 32.28C143.08 31.96 143.267 31.3333 143.4 30.4C143.56 29.44 143.694 28.04 143.8 26.2C143.934 24.36 144.04 22 144.12 19.12C144.2 16.2133 144.28 12.6667 144.36 8.48V7.64ZM135.56 0.800003H139.28C139.254 4.58667 139.187 8.26667 139.08 11.84C138.974 15.3867 138.694 18.7333 138.24 21.88C137.814 25.0267 137.107 27.9067 136.12 30.52C135.134 33.1333 133.774 35.4267 132.04 37.4C131.827 37.08 131.56 36.7467 131.24 36.4C130.92 36.08 130.574 35.76 130.2 35.44C129.854 35.12 129.52 34.8667 129.2 34.68C130.48 33.2933 131.52 31.6933 132.32 29.88C133.147 28.04 133.774 26.04 134.2 23.88C134.654 21.6933 134.974 19.36 135.16 16.88C135.347 14.4 135.454 11.8133 135.48 9.12C135.534 6.4 135.56 3.62667 135.56 0.800003Z" fill="#4AA9D5"/>
<path d="M101.68 9.04H126.2V12.84H101.68V9.04ZM117.52 0.679996H121.44V32.52C121.44 33.8267 121.253 34.7867 120.88 35.4C120.507 36.04 119.893 36.5067 119.04 36.8C118.187 37.0933 117.027 37.2667 115.56 37.32C114.093 37.4 112.267 37.4267 110.08 37.4C110.027 37.0533 109.907 36.6533 109.72 36.2C109.56 35.7467 109.373 35.2933 109.16 34.84C108.973 34.3867 108.787 33.9867 108.6 33.64C109.693 33.6933 110.76 33.7333 111.8 33.76C112.84 33.76 113.747 33.76 114.52 33.76C115.32 33.7333 115.88 33.72 116.2 33.72C116.68 33.6933 117.013 33.6 117.2 33.44C117.413 33.2533 117.52 32.9467 117.52 32.52V0.679996ZM103.92 18.04L107.2 16.48C107.867 17.4933 108.56 18.5867 109.28 19.76C110.027 20.9067 110.733 22.04 111.4 23.16C112.067 24.2533 112.6 25.2 113 26L109.44 27.88C109.067 27.0533 108.573 26.08 107.96 24.96C107.347 23.8133 106.68 22.64 105.96 21.44C105.24 20.2133 104.56 19.08 103.92 18.04ZM94.9201 11.48L98.6801 7.68L98.7201 7.76V37.28H94.9201V11.48ZM99.0801 0.479996L102.8 1.64C101.92 3.96 100.867 6.25333 99.6401 8.52C98.4401 10.7867 97.1334 12.92 95.7201 14.92C94.3067 16.92 92.8534 18.68 91.3601 20.2C91.2534 19.9067 91.0534 19.52 90.7601 19.04C90.4934 18.5333 90.2001 18.04 89.8801 17.56C89.5867 17.0533 89.3201 16.6533 89.0801 16.36C90.4134 15.08 91.7067 13.6 92.9601 11.92C94.2134 10.2133 95.3601 8.38666 96.4001 6.44C97.4401 4.49333 98.3334 2.50666 99.0801 0.479996Z" fill="#4AA9D5"/>
<path d="M67.5602 17.8L70.6002 16.28C71.3469 17.2133 72.0802 18.2267 72.8002 19.32C73.5202 20.3867 74.1602 21.4533 74.7202 22.52C75.3069 23.5867 75.7602 24.5467 76.0802 25.4L72.7602 27.16C72.4936 26.3067 72.0802 25.3467 71.5202 24.28C70.9602 23.1867 70.3336 22.08 69.6402 20.96C68.9736 19.8133 68.2802 18.76 67.5602 17.8ZM68.2402 7.28H83.1202V10.84H68.2402V7.28ZM81.5202 7.28H85.1602C85.1602 7.28 85.1602 7.4 85.1602 7.64C85.1602 7.88 85.1602 8.14666 85.1602 8.44C85.1602 8.73333 85.1602 8.96 85.1602 9.12C85.0002 13.5733 84.8269 17.36 84.6402 20.48C84.4802 23.5733 84.2936 26.1333 84.0802 28.16C83.8669 30.16 83.6136 31.7333 83.3202 32.88C83.0269 34 82.6802 34.8133 82.2802 35.32C81.7736 35.9867 81.2402 36.44 80.6802 36.68C80.1469 36.92 79.4802 37.0933 78.6802 37.2C78.0136 37.28 77.1069 37.32 75.9602 37.32C74.8136 37.32 73.6402 37.2933 72.4402 37.24C72.4136 36.68 72.2802 36.04 72.0402 35.32C71.8269 34.6 71.5469 33.9733 71.2002 33.44C72.5069 33.5467 73.7069 33.6133 74.8002 33.64C75.9202 33.6667 76.7336 33.68 77.2402 33.68C77.6402 33.68 77.9736 33.64 78.2402 33.56C78.5069 33.4533 78.7469 33.2667 78.9602 33C79.3069 32.6533 79.6002 31.9467 79.8402 30.88C80.1069 29.8133 80.3336 28.3067 80.5202 26.36C80.7336 24.3867 80.9202 21.9067 81.0802 18.92C81.2402 15.9067 81.3869 12.2933 81.5202 8.08V7.28ZM69.2002 0.199997L73.0802 1.08C72.5469 3 71.8802 4.90666 71.0802 6.8C70.2802 8.66666 69.4136 10.4133 68.4802 12.04C67.5469 13.6667 66.5736 15.0933 65.5602 16.32C65.3202 16.1067 64.9869 15.8533 64.5602 15.56C64.1602 15.2667 63.7336 14.9867 63.2802 14.72C62.8536 14.4267 62.4936 14.2 62.2002 14.04C63.2402 12.92 64.2002 11.6267 65.0802 10.16C65.9602 8.69333 66.7469 7.10666 67.4402 5.4C68.1336 3.69333 68.7202 1.96 69.2002 0.199997ZM54.9602 0.239996L58.3202 1.48C57.7869 2.46666 57.2269 3.50666 56.6402 4.6C56.0802 5.66666 55.5069 6.69333 54.9202 7.68C54.3602 8.66666 53.8136 9.52 53.2802 10.24L50.7202 9.16C51.2269 8.36 51.7336 7.44 52.2402 6.4C52.7736 5.36 53.2802 4.30666 53.7602 3.24C54.2402 2.14666 54.6402 1.14666 54.9602 0.239996ZM59.7602 4.88L63.0402 6.24C62.0802 7.76 61.0269 9.36 59.8802 11.04C58.7602 12.6933 57.6136 14.3067 56.4402 15.88C55.2936 17.4267 54.2002 18.76 53.1602 19.88L50.8002 18.68C51.5736 17.7733 52.3736 16.76 53.2002 15.64C54.0269 14.4933 54.8402 13.2933 55.6402 12.04C56.4402 10.7867 57.1869 9.54666 57.8802 8.32C58.6002 7.09333 59.2269 5.94666 59.7602 4.88ZM48.7202 9.12L50.5602 6.56C51.2802 7.17333 52.0136 7.85333 52.7602 8.6C53.5336 9.34666 54.2269 10.08 54.8402 10.8C55.4802 11.52 55.9736 12.1867 56.3202 12.8L54.3602 15.72C54.0136 15.08 53.5336 14.3733 52.9202 13.6C52.3069 12.8267 51.6269 12.0533 50.8802 11.28C50.1602 10.48 49.4402 9.76 48.7202 9.12ZM58.6402 14.32L61.3602 13.16C61.9202 14.0133 62.4536 14.9467 62.9602 15.96C63.4936 16.9467 63.9602 17.92 64.3602 18.88C64.7602 19.84 65.0536 20.6933 65.2402 21.44L62.3202 22.8C62.1336 22.0533 61.8402 21.2 61.4402 20.24C61.0669 19.2533 60.6269 18.24 60.1202 17.2C59.6402 16.16 59.1469 15.2 58.6402 14.32ZM48.6402 18C50.4802 17.9467 52.6669 17.8667 55.2002 17.76C57.7602 17.6533 60.3736 17.5467 63.0402 17.44L63.0002 20.48C60.4936 20.64 58.0136 20.8 55.5602 20.96C53.1069 21.12 50.9069 21.2533 48.9602 21.36L48.6402 18ZM59.4802 24.08L62.3202 23.16C62.8802 24.3867 63.4136 25.72 63.9202 27.16C64.4269 28.5733 64.7869 29.8 65.0002 30.84L61.9602 31.88C61.7736 30.84 61.4402 29.5867 60.9602 28.12C60.5069 26.6533 60.0136 25.3067 59.4802 24.08ZM50.6402 23.4L53.8402 23.96C53.6002 25.8533 53.2402 27.72 52.7602 29.56C52.3069 31.4 51.7736 32.96 51.1602 34.24C50.9469 34.1067 50.6669 33.9467 50.3202 33.76C49.9736 33.5733 49.6002 33.4 49.2002 33.24C48.8269 33.0533 48.5069 32.92 48.2402 32.84C48.8802 31.6133 49.3869 30.16 49.7602 28.48C50.1602 26.8 50.4536 25.1067 50.6402 23.4ZM55.2802 19.6H58.6402V37.44H55.2802V19.6Z" fill="#4AA9D5"/>
<path d="M24.6 4.24H43.68V7.68H24.6V4.24ZM22.24 12.04H45.52V15.56H22.24V12.04ZM23 19.84H45.2V23.36H23V19.84ZM32.2 0.199997H35.92V13.96H32.2V0.199997ZM37.04 15.12H40.8V32.96C40.8 33.9733 40.6666 34.76 40.4 35.32C40.16 35.9067 39.68 36.36 38.96 36.68C38.2666 36.9733 37.36 37.1467 36.24 37.2C35.1466 37.28 33.8266 37.32 32.28 37.32C32.2266 36.7867 32.08 36.16 31.84 35.44C31.6266 34.72 31.3866 34.0933 31.12 33.56C32.24 33.5867 33.28 33.6133 34.24 33.64C35.2266 33.64 35.8933 33.6267 36.24 33.6C36.56 33.6 36.7733 33.56 36.88 33.48C36.9866 33.3733 37.04 33.1733 37.04 32.88V15.12ZM24.8 25.72L27.64 24C28.28 24.5867 28.92 25.2533 29.56 26C30.2 26.72 30.8 27.4533 31.36 28.2C31.92 28.92 32.3466 29.5867 32.64 30.2L29.6 32.16C29.3333 31.5733 28.9333 30.9067 28.4 30.16C27.8933 29.3867 27.32 28.6133 26.68 27.84C26.0666 27.0667 25.44 26.36 24.8 25.72ZM8.27996 21.8C9.55996 21.48 11.0133 21.1067 12.64 20.68C14.2933 20.2267 16.0266 19.7333 17.84 19.2C19.68 18.6667 21.52 18.1333 23.36 17.6L23.84 20.92C21.3333 21.72 18.7866 22.52 16.2 23.32C13.6133 24.0933 11.2933 24.8 9.23996 25.44L8.27996 21.8ZM15.6 0.239996H19.12V37.36H15.6V0.239996ZM10.52 2.36L13.72 2.88C13.5333 4.64 13.2933 6.4 13 8.16C12.7333 9.92 12.4133 11.5733 12.04 13.12C11.6666 14.6667 11.2266 16.04 10.72 17.24C10.5066 17.08 10.2266 16.8933 9.87996 16.68C9.55996 16.4667 9.21329 16.2533 8.83996 16.04C8.49329 15.8267 8.19996 15.6667 7.95996 15.56C8.43996 14.44 8.83996 13.16 9.15996 11.72C9.47996 10.28 9.74663 8.76 9.95996 7.16C10.2 5.56 10.3866 3.96 10.52 2.36ZM11.16 8.08H22.88V11.72H10.48L11.16 8.08Z" fill="#4AA9D5"/>
</svg>
