<svg width="107" height="48" viewBox="0 0 107 48" fill="none" xmlns="http://www.w3.org/2000/svg">
<path d="M103.382 0H3.4002C1.52801 0 0 1.52278 0 3.40019V44.0825C0 45.9547 1.52279 47.4827 3.4002 47.4827H103.382C105.255 47.4827 106.783 45.9599 106.783 44.0825V3.40019C106.783 1.528 105.26 0 103.382 0ZM103.826 44.0825C103.826 44.3276 103.627 44.5257 103.382 44.5257H3.4002C3.15509 44.5257 2.95693 44.3276 2.95693 44.0825V3.40019C2.95693 3.15508 3.15509 2.95691 3.4002 2.95691H103.382C103.627 2.95691 103.826 3.15508 103.826 3.40019V44.0825Z" fill="#231815"/>
<path d="M57.5632 17.3975C57.4068 17.3975 56.8644 17.3975 56.3847 18.1276L53.3808 22.7741L50.3613 18.1276C50.1058 17.7312 49.7251 17.3975 49.214 17.3975C48.2753 17.3975 47.7017 18.211 47.7017 18.7638C47.7017 19.0819 47.9259 19.4313 47.9572 19.4939L50.1683 22.8524H48.656C48.2753 22.8524 48.0667 23.1548 48.0667 23.4417C48.0667 23.7441 48.291 24.031 48.656 24.031H50.9454L51.8997 25.4651H48.656C48.3223 25.4651 48.0667 25.7206 48.0667 26.0544C48.0667 26.3881 48.3066 26.6437 48.656 26.6437H51.9832V29.7779C51.9832 30.6384 52.3952 31.066 53.3964 31.066C54.6845 31.066 54.7628 30.2212 54.7628 29.7622V26.6437H58.0899C58.4237 26.6437 58.6949 26.3881 58.6949 26.0544C58.6949 25.7519 58.4394 25.4651 58.0899 25.4651H54.8462L55.8006 24.031H58.0899C58.4394 24.031 58.6949 23.7441 58.6949 23.426C58.6949 23.1548 58.4706 22.8524 58.0899 22.8524H56.5776L58.8044 19.4939C58.9452 19.2696 59.0443 18.9828 59.0443 18.7481C59.0443 18.1901 58.4393 17.3975 57.5632 17.3975Z" fill="#4AA9D5"/>
<path d="M14.7273 37.4333H11.1133C11.0508 37.4333 11.0038 37.4229 10.9673 37.4125V33.4021C10.9673 32.5834 10.305 31.9263 9.49145 31.9263C8.67791 31.9263 8.01562 32.5886 8.01562 33.4021V37.6002C8.01562 39.1386 9.40801 40.3902 11.1185 40.3902H14.7325C15.5513 40.3902 16.2084 39.7279 16.2084 38.9092C16.2084 38.0904 15.5461 37.4333 14.7325 37.4333H14.7273Z" fill="#231815"/>
<path d="M97.2916 31.9263C96.4729 31.9263 95.8158 32.5886 95.8158 33.4021V37.4125C95.7793 37.4229 95.7271 37.4333 95.6697 37.4333H92.0558C91.237 37.4333 90.5747 38.0956 90.5747 38.9092C90.5747 39.7227 91.237 40.3902 92.0558 40.3902H95.6697C97.3803 40.3902 98.7727 39.1386 98.7727 37.6002V33.4021C98.7727 32.5834 98.1104 31.9263 97.2916 31.9263Z" fill="#231815"/>
<path d="M14.7272 7.09213H11.1132C9.40267 7.09213 8.01025 8.34373 8.01025 9.88216V14.0802C8.01025 14.899 8.67254 15.5561 9.48608 15.5561C10.2996 15.5561 10.9619 14.8938 10.9619 14.0802V10.0699C10.9984 10.0595 11.0506 10.049 11.108 10.049H14.722C15.5407 10.049 16.1978 9.38673 16.1978 8.56798C16.1978 7.74922 15.5355 7.08691 14.722 7.08691L14.7272 7.09213Z" fill="#231815"/>
<path d="M95.6697 7.09229H92.0558C91.237 7.09229 90.5747 7.75459 90.5747 8.57335C90.5747 9.3921 91.237 10.0544 92.0558 10.0544H95.6697C95.7323 10.0544 95.7793 10.0648 95.8158 10.0753V14.0856C95.8158 14.9044 96.4781 15.5615 97.2916 15.5615C98.1052 15.5615 98.7727 14.8992 98.7727 14.0856V9.88753C98.7727 8.3491 97.3803 7.0975 95.6697 7.0975V7.09229Z" fill="#231815"/>
<path d="M53.3914 8.87598C45.1934 8.87598 38.5234 15.546 38.5234 23.744C38.5234 31.942 45.1934 38.612 53.3914 38.612C61.5894 38.612 68.2594 31.942 68.2594 23.744C68.2594 15.546 61.5894 8.87598 53.3914 8.87598ZM53.3914 35.655C46.8257 35.655 41.4803 30.3097 41.4803 23.744C41.4803 17.1783 46.8257 11.8329 53.3914 11.8329C59.9571 11.8329 65.3025 17.1783 65.3025 23.744C65.3025 30.3097 59.9571 35.655 53.3914 35.655Z" fill="#4AA9D5"/>
</svg>
