<svg width="52" height="51" viewBox="0 0 52 51" fill="none" xmlns="http://www.w3.org/2000/svg">
<g clip-path="url(#clip0_2042_25)">
<path d="M9.87297 2.25256C6.37574 4.52069 5.68872 11.6105 7.00908 17.3889C8.03737 21.8887 10.2236 27.925 13.9101 33.609C17.3781 38.9562 22.2164 43.751 25.9057 46.5251C30.6433 50.0871 37.3969 52.3513 40.8941 50.0831C42.6625 48.9363 45.2898 45.8028 45.4097 45.2405C45.4097 45.2405 43.869 42.865 43.5309 42.3437L38.3644 34.3775C37.9805 33.7856 35.5728 34.3266 34.3497 35.0194C32.6998 35.9543 31.1803 38.4626 31.1803 38.4626C30.049 39.1162 29.1015 38.465 27.1216 37.5538C24.6884 36.4342 21.9526 32.9557 19.7752 29.8051C17.7866 26.5322 15.7261 22.6156 15.6963 19.9373C15.6717 17.7581 15.4636 16.6274 16.5218 15.8609C16.5218 15.8609 19.4317 15.4965 20.9581 14.3714C22.0895 13.5371 23.5654 11.5595 23.1815 10.9674L18.015 3.00131C17.6769 2.48001 16.1363 0.104519 16.1363 0.104519C15.5739 -0.0152697 11.6414 1.10567 9.87297 2.25256Z" fill="#4AA9D5"/>
</g>
<defs>
<clipPath id="clip0_2042_25">
<rect width="50.8977" height="50.8977" fill="white" transform="translate(0.447754 0.0947266)"/>
</clipPath>
</defs>
</svg>
