<svg width="74" height="16" viewBox="0 0 74 16" fill="none" xmlns="http://www.w3.org/2000/svg">
<path d="M65.7626 13.9104H72.8074C73.1343 13.9104 73.4066 14.1646 73.4066 14.4914C73.4066 14.8182 73.1343 15.0724 72.8074 15.0724H63.0572C62.5125 15.0724 61.9678 14.7637 61.9678 14.1646C61.9678 13.293 62.6941 11.9494 63.2206 11.2776C64.419 9.75243 66.0894 8.69933 67.7417 7.75517C69.1579 6.95627 70.4107 6.15737 70.4107 4.35984C70.4107 2.70756 69.5029 1.52736 67.7961 1.52736C67.1243 1.52736 66.4344 1.67262 65.926 2.1447C65.3994 2.61678 65.0544 3.37937 65.0544 4.08749C65.0544 4.30537 65.0726 4.45062 65.0908 4.59588C65.1089 4.72298 65.1271 4.90454 65.1271 4.95901C65.1271 5.83055 64.3645 6.28447 63.5656 6.28447C62.8211 6.28447 62.0586 5.86686 62.0586 5.0498C62.0586 4.1238 62.4943 3.14333 63.039 2.41705C64.2192 0.855561 66.162 0.347168 68.0322 0.347168C70.7557 0.347168 73.3521 1.50921 73.3521 4.61403C73.3521 7.31941 71.1188 8.64486 68.5406 10.0974C67.4148 10.7329 65.2542 12.022 65.2542 13.4927C65.2542 13.7833 65.4902 13.9104 65.7626 13.9104Z" fill="white"/>
<path d="M53.7002 6.1392V12.7301C53.7002 13.4201 53.9181 14.0374 54.717 14.0374C55.0439 14.0374 55.298 13.9648 55.5341 13.8377C55.6612 13.7651 55.7338 13.7651 55.8064 13.7651C56.0788 13.7651 56.2967 14.0011 56.2967 14.2735C56.2967 14.5277 56.1333 14.6729 55.9154 14.8C55.2799 15.1632 54.5536 15.3447 53.791 15.3447C52.0298 15.3447 51.122 14.3279 51.122 12.603V6.1392H49.9236C49.6331 6.1392 49.3789 5.90316 49.3789 5.61265C49.3789 5.30398 49.6331 5.06794 49.9236 5.06794H51.122V2.88912C51.122 2.19915 51.594 1.63629 52.4111 1.63629C53.2282 1.63629 53.7002 2.181 53.7002 2.88912V5.06794H55.643C55.9335 5.06794 56.1877 5.30398 56.1877 5.61265C56.1877 5.90316 55.9335 6.1392 55.643 6.1392H53.7002Z" fill="white"/>
<path d="M38.8844 6.39343C39.647 5.35849 40.6093 4.77747 41.8985 4.77747C44.3133 4.77747 45.4209 6.30264 45.4209 8.59041V14.0919C45.4209 14.8001 45.0759 15.3448 44.1318 15.3448C43.1694 15.3448 42.8426 14.8001 42.8426 14.0919V8.13649C42.8426 7.04707 42.3887 6.12107 41.1903 6.12107C40.1009 6.12107 39.2657 7.02892 38.8844 7.97308V14.0919C38.8844 14.8727 38.4124 15.3448 37.5953 15.3448C36.7964 15.3448 36.3062 14.8727 36.3062 14.0919V6.01213C36.3062 5.30402 36.7601 4.77747 37.5953 4.77747C38.2671 4.77747 38.8844 5.19507 38.8844 5.90319V6.39343Z" fill="white"/>
<path d="M29.9691 0.347168C30.8769 0.347168 31.6214 1.0916 31.6214 1.99944C31.6214 2.88913 30.8769 3.63356 29.9691 3.63356C29.0794 3.63356 28.335 2.88913 28.335 1.99944C28.335 1.0916 29.0794 0.347168 29.9691 0.347168ZM31.2582 6.03027V14.0919C31.2582 14.7819 30.9496 15.3447 29.9691 15.3447C29.0975 15.3447 28.6981 14.8 28.6981 14.0919V6.03027C28.6981 5.32215 29.152 4.77745 29.9691 4.77745C30.7498 4.77745 31.2582 5.21321 31.2582 6.03027Z" fill="white"/>
<path d="M19.4221 4.77747C22.5451 4.77747 24.2518 7.10155 24.2518 10.0611C24.2518 13.0388 22.5451 15.3448 19.4221 15.3448C16.281 15.3448 14.5742 13.0388 14.5742 10.0611C14.5742 7.10155 16.281 4.77747 19.4221 4.77747ZM19.4221 5.90319C17.3704 5.90319 17.2614 8.57225 17.2614 10.0611C17.2614 11.55 17.3704 14.2372 19.4221 14.2372C21.4557 14.2372 21.5646 11.55 21.5646 10.0611C21.5646 8.57225 21.4557 5.90319 19.4221 5.90319Z" fill="white"/>
<path d="M3.40807 8.98983V13.983C3.40807 14.7274 2.93599 15.3447 1.99183 15.3447C0.975044 15.3447 0.59375 14.7456 0.59375 13.983V2.52598C0.59375 1.21868 1.3745 0.619507 2.62732 0.619507H7.47521C10.108 0.619507 11.9418 2.0539 11.9418 4.79559C11.9418 7.53728 10.0716 8.98983 7.43889 8.98983H3.40807ZM3.40807 7.82779H6.33132C8.25595 7.82779 8.94591 6.50234 8.94591 4.75928C8.94591 3.03437 8.27411 1.79971 6.38579 1.79971H4.06171C3.71673 1.79971 3.40807 2.10837 3.40807 2.43519V7.82779Z" fill="white"/>
</svg>
