<svg width="20" height="12" viewBox="0 0 20 12" fill="none" xmlns="http://www.w3.org/2000/svg">
<path d="M19.1227 2.58712L11.017 10.6929C10.904 10.8062 10.7698 10.8962 10.622 10.9575C10.4742 11.0189 10.3158 11.0505 10.1558 11.0505C9.99573 11.0505 9.83728 11.0189 9.68949 10.9575C9.5417 10.8962 9.40747 10.8062 9.29451 10.6929L1.18877 2.58712C0.960353 2.3587 0.832031 2.04891 0.832031 1.72588C0.832031 1.40286 0.960353 1.09306 1.18877 0.864646C1.41718 0.636232 1.72698 0.50791 2.05 0.50791C2.37303 0.50791 2.68282 0.636232 2.91124 0.864646L10.1568 8.11017L17.4023 0.863633C17.6307 0.635219 17.9405 0.506897 18.2635 0.506897C18.5865 0.506897 18.8963 0.635219 19.1248 0.863633C19.3532 1.09205 19.4815 1.40184 19.4815 1.72487C19.4815 2.04789 19.3532 2.35769 19.1248 2.5861L19.1227 2.58712Z" fill="white"/>
</svg>
