<svg width="137" height="18" viewBox="0 0 137 18" fill="none" xmlns="http://www.w3.org/2000/svg">
<path d="M125.6 6.2515C127.143 5.0713 129.031 3.52797 131.065 3.52797C131.828 3.52797 132.608 3.85479 133.026 4.49028C133.353 4.99867 133.425 5.63416 133.425 6.23334C133.425 6.99593 133.298 8.35769 133.208 9.41079C133.117 10.355 133.026 11.2991 133.026 12.2614V12.5519C133.026 13.0603 133.08 13.605 133.716 13.605C134.297 13.605 134.805 13.3145 135.223 12.9332C135.386 12.788 135.55 12.6609 135.768 12.6609C136.131 12.6609 136.385 12.9877 136.385 13.3327C136.385 13.6777 135.858 14.1316 135.332 14.5129C134.497 15.1302 133.462 15.6204 132.409 15.6204C130.738 15.6204 130.321 14.3132 130.321 12.8969C130.321 11.8801 130.375 10.8633 130.484 9.84656C130.611 8.66636 130.738 7.48616 130.738 6.50569C130.738 5.92467 130.647 5.16208 129.903 5.16208C128.505 5.16208 126.544 7.03224 125.582 7.95824C125.563 10.3913 125.563 12.8606 125.563 15.2936C125.563 15.5841 125.563 15.8565 125.491 16.1107C125.364 16.6554 124.783 16.8733 124.274 16.8733C123.875 16.8733 123.385 16.7462 123.149 16.4012C122.967 16.1288 122.967 15.7839 122.967 15.457C122.967 13.9137 123.021 12.3704 123.04 10.827C122.513 11.4625 122.005 12.1343 121.514 12.8061C121.315 13.0785 121.024 13.3327 120.679 13.3327C120.098 13.3327 119.59 12.7517 119.59 12.1888C119.59 11.8075 119.79 11.5533 120.062 11.2991C121.042 10.3186 122.041 9.37448 123.058 8.43032C123.076 7.52248 123.076 6.59648 123.094 5.67048C122.386 5.72495 121.315 5.81573 120.752 5.81573C120.371 5.81573 120.116 5.52522 120.116 5.16208C120.116 4.76263 120.389 4.50844 120.788 4.49028C121.551 4.45397 122.313 4.45397 123.094 4.41765C123.094 3.54612 123.04 2.47487 123.112 1.63965C123.203 0.877061 123.711 0.641022 124.42 0.641022C125.2 0.641022 125.727 1.02232 125.727 1.83938C125.727 2.27514 125.709 2.71091 125.691 3.14667C125.654 4.18161 125.618 5.21655 125.6 6.2515Z" fill="white"/>
<path d="M113.562 7.12304C111.71 7.50433 109.84 7.84931 107.97 8.10351C107.152 8.21245 105.3 8.44849 104.828 8.44849C104.32 8.44849 104.011 7.97641 104.011 7.48617C104.011 7.03225 104.284 6.70543 104.592 6.65096C104.792 6.61464 105.972 6.56017 106.699 6.56017C107.116 5.56155 107.497 4.50845 107.733 3.45535H104.719C104.411 3.45535 104.102 3.31009 104.102 2.94696C104.102 2.60197 104.411 2.43856 104.719 2.43856H108.841V1.53072C108.841 0.895228 109.113 0.296051 110.076 0.296051C111.02 0.296051 111.31 0.858914 111.31 1.53072V2.43856H115.541C115.85 2.43856 116.158 2.60197 116.158 2.94696C116.158 3.31009 115.85 3.45535 115.541 3.45535H110.784C110.094 4.47213 109.386 5.48892 108.641 6.48755C110.112 6.41492 111.601 6.32413 113.072 6.16072C112.781 5.67049 112.491 5.21656 112.273 4.88974C112.109 4.6537 112.037 4.5266 112.037 4.41766C112.037 4.12715 112.255 3.90927 112.545 3.90927C112.872 3.90927 114.107 4.9079 114.452 5.21656C114.996 5.7068 116.249 6.83253 116.249 7.59512C116.249 8.26692 115.65 8.82978 114.978 8.82978C114.343 8.82978 114.143 8.50296 113.562 7.12304ZM103.957 2.8017C103.957 3.45535 103.376 4.14531 102.704 4.14531C102.177 4.14531 101.923 3.76402 101.469 3.00143C101.124 2.43856 100.398 1.67597 99.8352 1.13127C99.7445 1.04048 99.69 0.949699 99.69 0.804443C99.69 0.53209 99.926 0.296051 100.198 0.296051C100.634 0.296051 101.96 0.986012 102.395 1.22205C103.14 1.6215 103.957 2.11174 103.957 2.8017ZM103.448 6.94147C103.448 7.57696 102.867 8.24876 102.214 8.24876C101.832 8.24876 101.596 7.95825 101.415 7.6859C100.87 6.90515 100.217 6.21519 99.4902 5.61602C99.3813 5.52523 99.2905 5.41629 99.2905 5.27104C99.2905 4.99868 99.5266 4.7808 99.7808 4.7808C100.253 4.7808 101.596 5.36182 102.05 5.59786C102.45 5.79758 102.922 6.06994 103.231 6.36045C103.376 6.5057 103.448 6.74174 103.448 6.94147ZM114.47 17.0912H113.308C112.454 17.0912 111.855 16.6736 111.855 15.7839V9.62868C111.855 9.04766 111.946 8.41217 112.89 8.41217C113.78 8.41217 113.925 8.99319 113.925 9.62868V15.7294C113.925 15.9473 113.998 16.0925 114.234 16.0925H114.343C114.524 16.0925 114.615 15.9473 114.651 15.7657C114.742 15.3118 114.797 14.8216 114.815 14.3313C114.833 13.8956 115.141 13.6414 115.577 13.6414C115.995 13.6414 116.449 13.9137 116.449 14.3676C116.449 14.8942 116.14 16.0744 115.886 16.4738C115.577 16.9641 115.014 17.0912 114.47 17.0912ZM110.929 9.64684V15.9473C110.929 16.5465 110.838 17.1638 109.894 17.1638C109.059 17.1638 108.841 16.6191 108.841 16.0744V9.64684C108.841 9.04767 108.932 8.44849 109.894 8.44849C110.82 8.44849 110.929 9.06582 110.929 9.64684ZM106.898 8.52112C107.443 8.52112 108.06 8.8661 108.06 9.46527C108.06 10.246 108.06 11.0268 107.988 11.7894C107.933 12.3885 107.842 13.0059 107.661 13.5869C107.28 14.8579 106.299 15.8202 105.21 16.5101C104.865 16.728 103.921 17.2909 103.521 17.2909C103.249 17.2909 103.031 17.0548 103.031 16.8007C103.031 16.5465 103.212 16.4012 103.485 16.2015C105.518 14.6218 105.7 12.9332 105.7 10.4094C105.7 10.1371 105.7 9.84657 105.7 9.57421C105.7 8.88425 106.226 8.52112 106.898 8.52112ZM103.648 9.33817C103.921 9.33817 104.138 9.57421 104.138 9.82841C104.138 10.1371 103.684 11.4807 103.43 12.1888C102.995 13.4235 102.522 14.6763 101.978 15.8383C101.669 16.5101 101.379 17.073 100.779 17.073C100.162 17.073 99.5447 16.4194 99.5447 15.8202C99.5447 15.4934 99.7626 15.2028 100.017 14.876C101.27 13.2782 102.286 11.4988 103.194 9.68316C103.285 9.50159 103.412 9.33817 103.648 9.33817Z" fill="white"/>
<path d="M89.1043 3.23746C88.8683 6.05178 88.6686 8.88425 87.7607 11.5715C87.1616 13.369 86.2719 15.3844 84.0567 15.3844C81.2061 15.3844 79.8262 12.2977 79.8262 9.84657C79.8262 7.90378 80.5343 5.97915 81.8234 4.54476C83.512 2.63829 85.8906 1.80307 88.3781 1.80307C92.6631 1.80307 95.9858 4.14531 95.9858 8.68453C95.9858 11.4081 94.7511 13.7503 92.2999 15.0394C91.501 15.4389 90.0485 16.0017 89.1406 16.0017C88.8138 16.0017 88.5233 15.7294 88.5233 15.3844C88.5233 15.0213 88.7775 14.8216 89.0862 14.7308C90.0303 14.4584 90.8111 13.95 91.4647 13.2237C92.6268 11.9165 93.2623 10.0826 93.2623 8.3577C93.2623 5.47076 91.7734 4.01821 89.1043 3.23746ZM86.4897 3.23746C85.2732 3.7277 84.4199 4.30872 83.7117 5.41629C82.6768 7.01409 82.1321 8.93872 82.1321 10.827C82.1321 11.6441 82.2047 12.5156 82.6405 13.2237C82.8584 13.605 83.2578 13.9863 83.7299 13.9863C84.4562 13.9863 84.8919 12.7335 85.2914 11.5533C86.1084 8.8661 86.3263 6.03362 86.4897 3.23746Z" fill="white"/>
<path d="M70.1121 9.71948C71.601 10.5184 73.0536 11.4262 74.3609 12.4793C74.9419 12.9514 75.5411 13.478 75.5411 13.9682C75.5411 14.7308 74.7966 15.33 74.0703 15.33C73.5256 15.33 73.1262 14.9123 72.5089 13.9682C71.6736 12.6972 70.4934 11.6623 69.2769 10.7544C67.6791 12.6791 65.4095 14.0227 63.1036 14.9305C62.2502 15.2755 61.2334 15.6205 60.8885 15.6205C60.5798 15.6205 60.3438 15.33 60.3438 15.0213C60.3438 14.7126 60.5616 14.5311 60.834 14.4221C62.577 13.7685 64.1567 12.9696 65.5548 11.7349C66.5897 10.827 67.4794 9.71948 68.1694 8.52113C68.7504 7.5225 69.7853 5.23473 69.7853 4.12716C69.7853 3.83665 69.6038 3.65508 69.3132 3.65508H61.9597C61.5966 3.65508 61.2698 3.49167 61.2698 3.07406C61.2698 2.65645 61.5966 2.49304 61.9597 2.49304H71.5102C72.2728 2.49304 72.9083 3.11038 72.9083 3.87296C72.9083 5.25289 70.9474 8.53928 70.1121 9.71948Z" fill="white"/>
<path d="M54.4063 0.277893C54.6968 0.277893 55.4231 0.87707 55.6773 1.09495C55.986 1.36731 56.3673 1.69413 56.3673 2.0028C56.3673 2.34778 56.0405 2.6746 55.6773 2.6746C55.405 2.6746 55.2416 2.49303 55.0781 2.27515C54.8058 1.91201 54.4608 1.56703 54.1158 1.24021C53.9887 1.11311 53.8616 0.986011 53.8616 0.786286C53.8616 0.495776 54.1158 0.277893 54.4063 0.277893ZM44.7287 7.25013C47.2344 6.83253 49.5403 6.06994 51.7736 4.85343C52.0641 4.69001 52.3546 4.56292 52.6633 4.56292C53.3351 4.56292 53.9524 5.14394 53.9524 5.79758C53.9524 6.26966 53.6074 6.56017 53.208 6.70543C52.5362 6.94147 51.7373 7.17751 51.011 7.37723C48.9593 7.95825 46.8531 8.3577 44.7287 8.55743V13.2237C44.7287 14.1316 44.9466 14.6763 45.8726 14.8397C46.5626 14.9668 48.1422 14.9668 49.0319 14.9668C50.4845 14.9668 51.9915 14.9123 53.2443 14.64C53.5711 14.5674 53.7527 14.531 53.9524 14.531C54.3337 14.531 54.6242 14.8579 54.6242 15.2392C54.6242 15.8202 54.025 15.9473 53.553 15.9836C52.3909 16.0744 51.1926 16.1107 50.0305 16.1107H47.2525C46.1268 16.1107 44.9466 16.0381 43.8572 15.8202C42.3683 15.5297 42.0415 14.3313 42.0415 12.9695V2.43856C42.0415 1.53072 42.5499 1.16758 43.4214 1.16758C44.293 1.16758 44.7287 1.56703 44.7287 2.43856V7.25013ZM52.7359 1.18574C52.9719 1.18574 53.444 1.56703 53.8616 1.94833C54.1703 2.22068 54.8058 2.81986 54.8058 3.14668C54.8058 3.52797 54.4608 3.87295 54.0795 3.87295C53.8072 3.87295 53.6256 3.65507 53.4803 3.43719C53.1898 3.00142 52.863 2.56566 52.4817 2.20252C52.3365 2.05727 52.1912 1.91201 52.1912 1.69413C52.1912 1.42178 52.4454 1.18574 52.7359 1.18574Z" fill="white"/>
<path d="M20.5984 7.99457H35.3055C35.7413 7.99457 36.0499 8.33955 36.0499 8.77531C36.0499 9.21108 35.7413 9.5379 35.2873 9.5379H20.5984C20.1627 9.5379 19.854 9.21108 19.854 8.77531C19.854 8.33955 20.1627 7.99457 20.5984 7.99457Z" fill="white"/>
<path d="M6.00029 5.19841H9.97664V2.14806C9.97664 1.25837 10.5032 0.913391 11.3566 0.913391C12.1918 0.913391 12.6639 1.29468 12.6639 2.14806V5.19841H15.0969C15.4419 5.19841 15.7868 5.37998 15.7868 5.77943C15.7868 6.19704 15.4419 6.36045 15.0969 6.36045H12.6639C12.6275 9.82842 12.6639 12.4612 10.6848 14.3313C9.52272 15.4207 7.92492 15.9473 6.4179 16.2923C5.54637 16.492 5.16507 16.5465 4.92903 16.5465C4.60221 16.5465 4.34801 16.2741 4.34801 15.9473C4.34801 15.4934 4.76562 15.3663 5.12876 15.3118C7.12601 14.9668 8.88723 14.059 9.48641 12.0617C9.95849 10.4821 9.97664 9.13846 9.97664 6.36045H6.00029V10.1371C6.00029 11.0268 5.51005 11.4081 4.62036 11.4081C3.76699 11.4081 3.31307 11.0086 3.31307 10.1371V6.36045H0.771106C0.407969 6.36045 0.0629883 6.19704 0.0629883 5.77943C0.0629883 5.37998 0.407969 5.19841 0.771106 5.19841H3.31307V2.18437C3.31307 1.27653 3.8033 0.913391 4.67483 0.913391C5.52821 0.913391 6.00029 1.31284 6.00029 2.18437V5.19841Z" fill="white"/>
</svg>
