<svg width="393" height="89" viewBox="0 0 393 89" fill="none" xmlns="http://www.w3.org/2000/svg">
<path d="M315.278 57.4502C315.078 58.9702 314.818 60.5902 314.498 62.3102C314.178 64.0302 313.748 65.7702 313.208 67.5302C312.628 69.5502 311.948 71.2902 311.168 72.7502C310.388 74.2102 309.528 75.3402 308.588 76.1402C307.668 76.9202 306.658 77.3102 305.558 77.3102C304.458 77.3102 303.438 76.9402 302.498 76.2002C301.578 75.4402 300.838 74.4002 300.278 73.0802C299.738 71.7602 299.468 70.2602 299.468 68.5802C299.468 66.8402 299.818 65.2002 300.518 63.6602C301.218 62.1202 302.188 60.7602 303.428 59.5802C304.688 58.3802 306.148 57.4402 307.808 56.7602C309.488 56.0802 311.298 55.7402 313.238 55.7402C315.098 55.7402 316.768 56.0402 318.248 56.6402C319.748 57.2402 321.028 58.0702 322.088 59.1302C323.148 60.1902 323.958 61.4302 324.518 62.8502C325.078 64.2702 325.358 65.8002 325.358 67.4402C325.358 69.5402 324.928 71.4202 324.068 73.0802C323.208 74.7402 321.928 76.1102 320.228 77.1902C318.548 78.2702 316.448 79.0102 313.928 79.4102L311.678 75.8402C312.258 75.7802 312.768 75.7102 313.208 75.6302C313.648 75.5502 314.068 75.4602 314.468 75.3602C315.428 75.1202 316.318 74.7802 317.138 74.3402C317.978 73.8802 318.708 73.3202 319.328 72.6602C319.948 71.9802 320.428 71.1902 320.768 70.2902C321.128 69.3902 321.308 68.4002 321.308 67.3202C321.308 66.1402 321.128 65.0602 320.768 64.0802C320.408 63.1002 319.878 62.2502 319.178 61.5302C318.478 60.7902 317.628 60.2302 316.628 59.8502C315.628 59.4502 314.478 59.2502 313.178 59.2502C311.578 59.2502 310.168 59.5402 308.948 60.1202C307.728 60.6802 306.698 61.4102 305.858 62.3102C305.018 63.2102 304.378 64.1802 303.938 65.2202C303.518 66.2602 303.308 67.2502 303.308 68.1902C303.308 69.1902 303.428 70.0302 303.668 70.7102C303.908 71.3702 304.198 71.8702 304.538 72.2102C304.898 72.5302 305.278 72.6902 305.678 72.6902C306.098 72.6902 306.508 72.4802 306.908 72.0602C307.328 71.6202 307.738 70.9602 308.138 70.0802C308.538 69.2002 308.938 68.0902 309.338 66.7502C309.798 65.3102 310.188 63.7702 310.508 62.1302C310.828 60.4902 311.058 58.8902 311.198 57.3302L315.278 57.4502Z" fill="#4AA9D5"/>
<path d="M273.918 56.8802H281.268V60.3002H273.918V56.8802ZM286.458 52.5902H290.208V80.6402H286.458V52.5902ZM270.588 65.7902L272.418 63.0902C273.158 63.4902 273.938 63.9602 274.758 64.5002C275.598 65.0402 276.388 65.5802 277.128 66.1202C277.868 66.6602 278.468 67.1802 278.928 67.6802L276.978 70.7102C276.558 70.2102 275.988 69.6702 275.268 69.0902C274.548 68.4902 273.778 67.9002 272.958 67.3202C272.138 66.7402 271.348 66.2302 270.588 65.7902ZM274.278 52.4702L277.878 53.2202C277.358 55.2402 276.708 57.1802 275.928 59.0402C275.168 60.9002 274.298 62.6202 273.318 64.2002C272.358 65.7602 271.318 67.1202 270.198 68.2802C269.998 68.0602 269.708 67.8102 269.328 67.5302C268.968 67.2302 268.598 66.9402 268.218 66.6602C267.838 66.3602 267.498 66.1302 267.198 65.9702C268.318 64.9502 269.328 63.7402 270.228 62.3402C271.128 60.9402 271.918 59.4002 272.598 57.7202C273.278 56.0202 273.838 54.2702 274.278 52.4702ZM284.598 59.7902C285.198 60.8902 285.918 61.9802 286.758 63.0602C287.618 64.1202 288.568 65.1302 289.608 66.0902C290.648 67.0502 291.748 67.9202 292.908 68.7002C294.088 69.4802 295.278 70.1502 296.478 70.7102C296.218 70.9502 295.918 71.2602 295.578 71.6402C295.238 72.0002 294.918 72.3802 294.618 72.7802C294.318 73.1602 294.068 73.5102 293.868 73.8302C292.608 73.1702 291.388 72.3802 290.208 71.4602C289.048 70.5402 287.938 69.5202 286.878 68.4002C285.818 67.2802 284.838 66.0902 283.938 64.8302C283.058 63.5702 282.268 62.2702 281.568 60.9302L284.598 59.7902ZM280.248 56.8802H280.938L281.568 56.7602L283.938 57.5702C283.338 61.4302 282.428 64.8502 281.208 67.8302C280.008 70.8102 278.538 73.3502 276.798 75.4502C275.058 77.5302 273.108 79.1902 270.948 80.4302C270.748 80.1702 270.478 79.8602 270.138 79.5002C269.798 79.1602 269.438 78.8202 269.058 78.4802C268.698 78.1602 268.368 77.9102 268.068 77.7302C270.208 76.6102 272.108 75.1402 273.768 73.3202C275.428 71.4802 276.808 69.2602 277.908 66.6602C279.008 64.0602 279.788 61.0702 280.248 57.6902V56.8802Z" fill="#4AA9D5"/>
<path d="M246.449 57.6905L249.779 56.1004C250.419 56.8204 251.049 57.6105 251.669 58.4705C252.289 59.3305 252.839 60.1804 253.319 61.0204C253.819 61.8404 254.219 62.6005 254.519 63.3005L250.979 65.1905C250.739 64.5105 250.379 63.7304 249.899 62.8504C249.419 61.9504 248.879 61.0505 248.279 60.1505C247.679 59.2505 247.069 58.4305 246.449 57.6905ZM236.729 73.4405C237.749 73.1005 238.929 72.6705 240.269 72.1505C241.629 71.6305 243.049 71.0705 244.529 70.4705C246.029 69.8705 247.509 69.2704 248.969 68.6704L249.809 72.1805C248.469 72.7805 247.109 73.3805 245.729 73.9805C244.349 74.5805 242.989 75.1605 241.649 75.7205C240.329 76.2805 239.099 76.8004 237.959 77.2804L236.729 73.4405ZM254.309 70.7704L257.069 68.2205C257.749 68.9405 258.479 69.7104 259.259 70.5304C260.059 71.3504 260.839 72.1905 261.599 73.0505C262.379 73.8905 263.099 74.7105 263.759 75.5105C264.419 76.2905 264.959 77.0104 265.379 77.6704L262.289 80.6704C261.909 79.9904 261.399 79.2304 260.759 78.3904C260.139 77.5704 259.459 76.7204 258.719 75.8404C257.999 74.9604 257.249 74.0905 256.469 73.2305C255.709 72.3505 254.989 71.5304 254.309 70.7704ZM258.389 54.2404L262.379 54.6004C262.019 58.0004 261.499 61.0704 260.819 63.8104C260.139 66.5304 259.229 68.9604 258.089 71.1004C256.949 73.2204 255.509 75.0805 253.769 76.6805C252.049 78.2805 249.959 79.6305 247.499 80.7305C247.319 80.4705 247.059 80.1404 246.719 79.7404C246.379 79.3404 246.019 78.9305 245.639 78.5105C245.259 78.1105 244.919 77.7905 244.619 77.5505C247.019 76.6305 249.029 75.4804 250.649 74.1004C252.289 72.7204 253.629 71.0805 254.669 69.1805C255.709 67.2605 256.519 65.0705 257.099 62.6105C257.679 60.1305 258.109 57.3404 258.389 54.2404ZM240.119 54.3605L243.899 54.2104L244.589 73.7104L240.809 73.8605L240.119 54.3605Z" fill="#4AA9D5"/>
<path d="M215.138 60.9305H233.918V63.9605H215.138V60.9305ZM222.968 71.8805L225.068 70.0805C225.628 70.5205 226.208 71.0105 226.808 71.5505C227.428 72.0905 228.018 72.6305 228.578 73.1705C229.158 73.6905 229.618 74.1505 229.958 74.5505L227.768 76.5905C227.428 76.1705 226.988 75.6805 226.448 75.1205C225.908 74.5605 225.328 74.0005 224.708 73.4405C224.108 72.8805 223.528 72.3605 222.968 71.8805ZM215.768 66.1205H231.038V69.1505H219.008V80.7005H215.768V66.1205ZM229.658 66.1205H233.078V77.1905C233.078 77.9505 232.978 78.5605 232.778 79.0205C232.598 79.4805 232.248 79.8405 231.728 80.1005C231.208 80.3605 230.588 80.5205 229.868 80.5805C229.168 80.6605 228.338 80.6905 227.378 80.6705C227.318 80.2105 227.168 79.6805 226.928 79.0805C226.708 78.4805 226.478 77.9705 226.238 77.5505C226.838 77.5705 227.418 77.5905 227.978 77.6105C228.558 77.6105 228.938 77.6005 229.118 77.5805C229.318 77.5805 229.458 77.5505 229.538 77.4905C229.618 77.4105 229.658 77.2905 229.658 77.1305V66.1205ZM222.578 61.9505H225.698V67.2905C225.698 68.1105 225.618 68.9505 225.458 69.8105C225.318 70.6705 225.048 71.5205 224.648 72.3605C224.268 73.2005 223.728 74.0005 223.028 74.7605C222.328 75.5005 221.428 76.1705 220.328 76.7705C220.128 76.4305 219.818 76.0305 219.398 75.5705C218.998 75.1105 218.628 74.7405 218.288 74.4605C219.248 74.0405 220.008 73.5405 220.568 72.9605C221.148 72.3805 221.578 71.7705 221.858 71.1305C222.158 70.4705 222.348 69.8105 222.428 69.1505C222.528 68.4905 222.578 67.8605 222.578 67.2605V61.9505ZM212.618 55.7405H234.098V58.9505H212.618V55.7405ZM210.668 55.7405H214.088V64.7105C214.088 65.9105 214.028 67.2205 213.908 68.6405C213.788 70.0605 213.558 71.4905 213.218 72.9305C212.878 74.3505 212.388 75.7205 211.748 77.0405C211.108 78.3605 210.268 79.5405 209.228 80.5805C209.068 80.3405 208.818 80.0605 208.478 79.7405C208.158 79.4205 207.828 79.1105 207.488 78.8105C207.168 78.5105 206.888 78.3005 206.648 78.1805C207.568 77.2405 208.288 76.2105 208.808 75.0905C209.348 73.9705 209.748 72.8205 210.008 71.6405C210.288 70.4405 210.468 69.2505 210.548 68.0705C210.628 66.8705 210.668 65.7405 210.668 64.6805V55.7405ZM219.698 52.5005H223.478V57.8705H219.698V52.5005ZM206.018 59.4605L208.628 58.2005C209.128 59.0605 209.588 60.0105 210.008 61.0505C210.428 62.0705 210.708 62.9605 210.848 63.7205L208.058 65.2205C207.978 64.7005 207.828 64.1105 207.608 63.4505C207.408 62.7905 207.168 62.1205 206.888 61.4405C206.628 60.7405 206.338 60.0805 206.018 59.4605ZM205.778 69.7205C206.498 69.4405 207.338 69.0605 208.298 68.5805C209.278 68.1005 210.288 67.6105 211.328 67.1105L212.168 69.9305C211.288 70.4705 210.388 71.0105 209.468 71.5505C208.568 72.0905 207.688 72.6105 206.828 73.1105L205.778 69.7205Z" fill="#4AA9D5"/>
<path d="M183.918 68.4305H203.058V71.6105H183.918V68.4305ZM187.308 59.0105L190.788 59.8205C190.328 61.4605 189.718 63.0605 188.958 64.6205C188.198 66.1605 187.388 67.4505 186.528 68.4905C186.308 68.2905 186.008 68.0705 185.628 67.8305C185.268 67.5705 184.898 67.3205 184.518 67.0805C184.138 66.8405 183.798 66.6505 183.498 66.5105C184.358 65.6105 185.118 64.4905 185.778 63.1505C186.438 61.8105 186.948 60.4305 187.308 59.0105ZM191.508 63.0905H195.138V68.7605C195.138 69.6005 195.058 70.4605 194.898 71.3405C194.758 72.2205 194.478 73.1005 194.058 73.9805C193.658 74.8405 193.088 75.6805 192.348 76.5005C191.608 77.3005 190.658 78.0605 189.498 78.7805C188.358 79.5205 186.948 80.1905 185.268 80.7905C185.108 80.5305 184.888 80.2305 184.608 79.8905C184.348 79.5705 184.058 79.2405 183.738 78.9005C183.438 78.5805 183.148 78.3005 182.868 78.0605C184.408 77.5805 185.688 77.0505 186.708 76.4705C187.748 75.8905 188.588 75.2805 189.228 74.6405C189.868 73.9805 190.348 73.3205 190.668 72.6605C190.988 71.9805 191.208 71.3105 191.328 70.6505C191.448 69.9705 191.508 69.3305 191.508 68.7305V63.0905ZM195.498 69.7805C196.098 71.7605 197.058 73.4305 198.378 74.7905C199.718 76.1305 201.508 77.0805 203.748 77.6405C203.508 77.8805 203.238 78.1805 202.938 78.5405C202.658 78.9005 202.388 79.2705 202.128 79.6505C201.868 80.0505 201.658 80.4205 201.498 80.7605C199.838 80.2005 198.418 79.4405 197.238 78.4805C196.078 77.5405 195.118 76.3905 194.358 75.0305C193.598 73.6505 192.968 72.0805 192.468 70.3205L195.498 69.7805ZM187.818 62.0705H202.128V65.1305H186.888L187.818 62.0705ZM181.698 55.6205H203.208V58.8305H181.698V55.6205ZM179.748 55.6205H183.168V64.7105C183.168 65.9105 183.108 67.2205 182.988 68.6405C182.868 70.0405 182.638 71.4705 182.298 72.9305C181.958 74.3705 181.468 75.7605 180.828 77.1005C180.188 78.4205 179.348 79.6105 178.308 80.6705C178.148 80.4305 177.898 80.1505 177.558 79.8305C177.238 79.5105 176.908 79.2005 176.568 78.9005C176.248 78.6005 175.968 78.3805 175.728 78.2405C176.648 77.3005 177.378 76.2705 177.918 75.1505C178.458 74.0105 178.858 72.8405 179.118 71.6405C179.378 70.4205 179.548 69.2205 179.628 68.0405C179.708 66.8405 179.748 65.7205 179.748 64.6805V55.6205ZM188.898 52.5005H192.678V57.8705H188.898V52.5005ZM175.128 59.3405L177.708 58.0805C178.208 58.9405 178.668 59.8905 179.088 60.9305C179.508 61.9505 179.788 62.8405 179.928 63.6005L177.138 65.1005C177.058 64.5805 176.908 64.0005 176.688 63.3605C176.488 62.7005 176.248 62.0205 175.968 61.3205C175.708 60.6205 175.428 59.9605 175.128 59.3405ZM174.858 69.6005C175.578 69.3205 176.418 68.9405 177.378 68.4605C178.358 67.9805 179.368 67.4905 180.408 66.9905L181.248 69.8105C180.368 70.3505 179.468 70.8905 178.548 71.4305C177.648 71.9705 176.768 72.4905 175.908 72.9905L174.858 69.6005Z" fill="#4AA9D5"/>
<path d="M145.228 60.6003H171.928V64.3203H145.228V60.6003ZM160.648 62.1003C161.248 64.3803 162.078 66.5103 163.138 68.4903C164.198 70.4703 165.508 72.2003 167.068 73.6803C168.648 75.1603 170.488 76.3303 172.588 77.1903C172.288 77.4503 171.968 77.7803 171.628 78.1803C171.308 78.5803 170.988 78.9903 170.668 79.4103C170.368 79.8503 170.118 80.2403 169.918 80.5803C167.618 79.5003 165.638 78.1103 163.978 76.4103C162.338 74.7103 160.958 72.7303 159.838 70.4703C158.718 68.1903 157.778 65.6803 157.018 62.9403L160.648 62.1003ZM156.508 52.5303H160.438C160.418 54.0503 160.368 55.6603 160.288 57.3603C160.228 59.0403 160.078 60.7503 159.838 62.4903C159.598 64.2303 159.208 65.9603 158.668 67.6803C158.148 69.3803 157.408 71.0203 156.448 72.6003C155.508 74.1603 154.288 75.6203 152.788 76.9803C151.308 78.3403 149.498 79.5403 147.358 80.5803C147.078 80.1003 146.688 79.5703 146.188 78.9903C145.688 78.4103 145.178 77.9303 144.658 77.5503C146.698 76.6303 148.408 75.5703 149.788 74.3703C151.168 73.1503 152.288 71.8403 153.148 70.4403C154.028 69.0203 154.698 67.5503 155.158 66.0303C155.618 64.4903 155.928 62.9403 156.088 61.3803C156.268 59.8203 156.378 58.2903 156.418 56.7903C156.458 55.2903 156.488 53.8703 156.508 52.5303Z" fill="#4AA9D5"/>
<path d="M133.243 78.4204C132.083 78.4204 131.043 78.2804 130.123 78.0004C129.203 77.7404 128.383 77.3804 127.663 76.9204C126.963 76.4404 126.353 75.9104 125.833 75.3304L127.903 72.5404C128.583 73.1604 129.323 73.7004 130.123 74.1604C130.943 74.6004 131.853 74.8204 132.853 74.8204C133.613 74.8204 134.273 74.7004 134.833 74.4604C135.413 74.2204 135.853 73.8704 136.153 73.4104C136.473 72.9504 136.633 72.3904 136.633 71.7304C136.633 70.9904 136.453 70.3604 136.093 69.8404C135.753 69.3004 135.143 68.8904 134.263 68.6104C133.383 68.3304 132.143 68.1904 130.543 68.1904V65.0104C131.903 65.0104 132.973 64.8704 133.753 64.5904C134.533 64.2904 135.083 63.8904 135.403 63.3904C135.743 62.8704 135.913 62.2804 135.913 61.6204C135.913 60.7604 135.653 60.0904 135.133 59.6104C134.613 59.1104 133.883 58.8604 132.943 58.8604C132.163 58.8604 131.433 59.0404 130.753 59.4004C130.093 59.7404 129.433 60.2104 128.773 60.8104L126.493 58.0804C127.473 57.2604 128.503 56.6104 129.583 56.1304C130.663 55.6304 131.853 55.3804 133.153 55.3804C134.573 55.3804 135.823 55.6104 136.903 56.0704C138.003 56.5304 138.853 57.2004 139.453 58.0804C140.053 58.9604 140.353 60.0304 140.353 61.2904C140.353 62.4904 140.033 63.5204 139.393 64.3804C138.753 65.2404 137.843 65.9004 136.663 66.3604V66.5104C137.483 66.7304 138.223 67.0904 138.883 67.5904C139.563 68.0704 140.093 68.6804 140.473 69.4204C140.873 70.1604 141.073 71.0204 141.073 72.0004C141.073 73.3404 140.713 74.4904 139.993 75.4504C139.293 76.4104 138.343 77.1504 137.143 77.6704C135.963 78.1704 134.663 78.4204 133.243 78.4204Z" fill="#4AA9D5"/>
<path d="M100.943 61.5601H117.533V65.0101H100.943V61.5601ZM109.253 68.7601H119.363V72.1501H109.253V68.7601ZM107.363 63.5701H111.113V78.0601L107.363 77.6101V63.5701ZM100.193 66.6601L103.943 67.0501C103.543 70.1101 102.863 72.8101 101.903 75.1501C100.943 77.4901 99.6031 79.4001 97.8831 80.8801C97.6831 80.6601 97.4031 80.3901 97.0431 80.0701C96.6831 79.7501 96.3031 79.4401 95.9031 79.1401C95.5231 78.8401 95.1931 78.6001 94.9131 78.4201C96.5331 77.2201 97.7531 75.6101 98.5731 73.5901C99.3931 71.5501 99.9331 69.2401 100.193 66.6601ZM103.103 70.4401C103.563 71.8001 104.163 72.9101 104.903 73.7701C105.663 74.6101 106.533 75.2501 107.513 75.6901C108.513 76.1101 109.603 76.4001 110.783 76.5601C111.963 76.7201 113.213 76.8001 114.533 76.8001C114.853 76.8001 115.283 76.8001 115.823 76.8001C116.383 76.8001 116.993 76.8001 117.653 76.8001C118.333 76.8001 119.023 76.8001 119.723 76.8001C120.423 76.7801 121.073 76.7701 121.673 76.7701C122.273 76.7501 122.773 76.7301 123.173 76.7101C122.993 77.0101 122.813 77.3801 122.633 77.8201C122.473 78.2401 122.323 78.6801 122.183 79.1401C122.043 79.6001 121.943 80.0201 121.883 80.4001H120.353H114.353C112.613 80.4001 111.013 80.2801 109.553 80.0401C108.093 79.8001 106.773 79.3601 105.593 78.7201C104.433 78.1001 103.393 77.2001 102.473 76.0201C101.573 74.8401 100.803 73.3001 100.163 71.4001L103.103 70.4401ZM107.303 52.5601H111.143V58.0201H107.303V52.5601ZM96.3831 55.5901H122.153V63.1201H118.463V58.9801H99.9231V63.1201H96.3831V55.5901Z" fill="#4AA9D5"/>
<path d="M76.7129 55.1702H91.1729V58.4402H76.7129V55.1702ZM74.9429 60.9902H92.4929V64.3502H74.9429V60.9902ZM75.5729 67.0502H92.2229V70.3502H75.5729V67.0502ZM82.0829 52.4702H85.6529V62.8502H82.0829V52.4702ZM85.6229 63.9602H89.1929V76.6802C89.1929 77.5802 89.0829 78.2902 88.8629 78.8102C88.6629 79.3302 88.2629 79.7402 87.6629 80.0402C87.0429 80.3002 86.3029 80.4602 85.4429 80.5202C84.5829 80.6002 83.5929 80.6402 82.4729 80.6402C82.3929 80.1202 82.2529 79.5202 82.0529 78.8402C81.8529 78.1602 81.6229 77.5702 81.3629 77.0702C82.1029 77.0902 82.8329 77.1102 83.5529 77.1302C84.2729 77.1302 84.7529 77.1302 84.9929 77.1302C85.2329 77.1102 85.3929 77.0702 85.4729 77.0102C85.5729 76.9502 85.6229 76.8202 85.6229 76.6202V63.9602ZM76.6229 71.9702L79.2929 70.3202C79.7529 70.7602 80.2129 71.2502 80.6729 71.7902C81.1329 72.3302 81.5629 72.8702 81.9629 73.4102C82.3829 73.9302 82.7029 74.4102 82.9229 74.8502L80.0729 76.7102C79.8729 76.2702 79.5829 75.7802 79.2029 75.2402C78.8229 74.6802 78.4029 74.1202 77.9429 73.5602C77.5029 72.9802 77.0629 72.4502 76.6229 71.9702ZM64.2629 68.4902C65.2429 68.2702 66.3529 68.0002 67.5929 67.6802C68.8529 67.3602 70.1729 67.0102 71.5529 66.6302C72.9529 66.2302 74.3429 65.8302 75.7229 65.4302L76.1729 68.6102C74.2929 69.1902 72.3729 69.7802 70.4129 70.3802C68.4729 70.9602 66.7129 71.4802 65.1329 71.9402L64.2629 68.4902ZM69.6329 52.5302H72.9329V80.7002H69.6329V52.5302ZM65.6729 54.0602L68.7029 54.5702C68.5629 55.8902 68.3929 57.2202 68.1929 58.5602C67.9929 59.8802 67.7529 61.1302 67.4729 62.3102C67.1929 63.4902 66.8729 64.5302 66.5129 65.4302C66.3329 65.2702 66.0829 65.0902 65.7629 64.8902C65.4429 64.6902 65.1229 64.4902 64.8029 64.2902C64.4829 64.0702 64.2029 63.9002 63.9629 63.7802C64.2829 62.9802 64.5529 62.0502 64.7729 60.9902C65.0129 59.9302 65.2029 58.8102 65.3429 57.6302C65.5029 56.4302 65.6129 55.2402 65.6729 54.0602ZM66.5129 58.1702H75.4529V61.5902H65.8229L66.5129 58.1702Z" fill="#4AA9D5"/>
<path d="M266.088 3.30829C265.883 3.60163 265.648 3.93896 265.384 4.32029C265.15 4.67229 264.915 5.02429 264.68 5.37629C264.152 6.16829 263.565 7.09229 262.92 8.14829C262.304 9.17496 261.659 10.275 260.984 11.4483C260.309 12.5923 259.649 13.7363 259.004 14.8803C258.388 16.0243 257.802 17.0803 257.244 18.0483C258.066 17.579 258.901 17.2416 259.752 17.0363C260.603 16.831 261.454 16.7283 262.304 16.7283C263.947 16.7283 265.237 17.227 266.176 18.2243C267.144 19.1923 267.672 20.6003 267.76 22.4483C267.789 23.0936 267.804 23.871 267.804 24.7803C267.804 25.6896 267.804 26.599 267.804 27.5083C267.834 28.4176 267.878 29.1803 267.936 29.7963C268.024 30.647 268.332 31.263 268.86 31.6443C269.418 31.9963 270.063 32.1723 270.796 32.1723C271.735 32.1723 272.585 31.8936 273.348 31.3363C274.14 30.779 274.844 30.0163 275.46 29.0483C276.076 28.051 276.604 26.9363 277.044 25.7043C277.513 24.443 277.909 23.1376 278.232 21.7883L282.984 25.6603C282.221 28.1536 281.254 30.3536 280.08 32.2603C278.907 34.1376 277.47 35.5896 275.768 36.6163C274.096 37.6723 272.131 38.2003 269.872 38.2003C268.259 38.2003 266.91 37.907 265.824 37.3203C264.739 36.763 263.932 36.0296 263.404 35.1203C262.876 34.1816 262.583 33.1696 262.524 32.0843C262.466 31.2923 262.421 30.4123 262.392 29.4443C262.392 28.4763 262.377 27.5376 262.348 26.6283C262.348 25.6896 262.319 24.927 262.26 24.3403C262.201 23.5776 261.952 22.9763 261.512 22.5363C261.072 22.0963 260.456 21.8763 259.664 21.8763C258.696 21.8763 257.772 22.1843 256.892 22.8003C256.012 23.4163 255.206 24.223 254.472 25.2203C253.768 26.2176 253.152 27.3176 252.624 28.5203C252.331 29.1656 252.023 29.9283 251.7 30.8083C251.377 31.6883 251.07 32.5976 250.776 33.5363C250.483 34.475 250.204 35.355 249.94 36.1763C249.676 37.027 249.456 37.7456 249.28 38.3323L243.076 36.2203C243.634 34.7536 244.308 33.0816 245.1 31.2043C245.921 29.2976 246.816 27.303 247.784 25.2203C248.752 23.1376 249.735 21.0696 250.732 19.0163C251.729 16.963 252.683 15.027 253.592 13.2083C254.501 11.3603 255.308 9.76163 256.012 8.41229C256.745 7.03363 257.303 5.99229 257.684 5.28829C257.977 4.70163 258.315 4.04163 258.696 3.30829C259.078 2.57496 259.459 1.73896 259.84 0.800293L266.088 3.30829Z" fill="#4AA9D5"/>
<path d="M205.449 2.78006C205.801 2.8094 206.299 2.8534 206.945 2.91206C207.59 2.9414 208.279 2.95606 209.013 2.95606C209.482 2.95606 210.201 2.95606 211.169 2.95606C212.166 2.95606 213.266 2.95606 214.469 2.95606C215.701 2.92673 216.947 2.8974 218.209 2.86806C219.47 2.8094 220.614 2.7654 221.641 2.73606C222.697 2.70673 223.503 2.6774 224.061 2.64806C224.589 2.5894 225.146 2.53073 225.733 2.47206C226.319 2.38406 226.818 2.2814 227.229 2.16406L230.177 6.03606C229.795 6.2414 229.37 6.49073 228.901 6.78406C228.431 7.0774 228.05 7.32673 227.757 7.53206C227.111 8.0014 226.378 8.55873 225.557 9.20406C224.765 9.8494 223.885 10.5387 222.917 11.2721C221.978 12.0054 221.025 12.7534 220.057 13.5161C219.089 14.2494 218.121 14.9827 217.153 15.7161C217.886 15.5107 218.619 15.3641 219.353 15.2761C220.115 15.1881 220.775 15.1441 221.333 15.1441C223.914 15.1441 226.187 15.6134 228.153 16.5521C230.118 17.4907 231.643 18.7667 232.729 20.3801C233.814 21.9934 234.357 23.8267 234.357 25.8801C234.357 28.7841 233.491 31.2481 231.761 33.2721C230.059 35.2961 227.434 36.7481 223.885 37.6281C220.365 38.5374 215.891 38.7867 210.465 38.3761L208.925 32.6561C211.975 33.0374 214.703 33.1841 217.109 33.0961C219.514 32.9787 221.538 32.6267 223.181 32.0401C224.853 31.4241 226.129 30.6027 227.009 29.5761C227.889 28.5201 228.329 27.2734 228.329 25.8361C228.329 24.1054 227.581 22.6681 226.085 21.5241C224.618 20.3507 222.623 19.7641 220.101 19.7641C218.399 19.7641 216.801 20.0134 215.305 20.5121C213.838 21.0107 212.445 21.6854 211.125 22.5361C209.834 23.3867 208.573 24.3694 207.341 25.4841C206.138 26.5694 204.95 27.7134 203.777 28.9161L199.641 24.5601C200.814 23.6801 202.149 22.6387 203.645 21.4361C205.141 20.2334 206.681 18.9867 208.265 17.6961C209.878 16.3761 211.433 15.0854 212.929 13.8241C214.425 12.5627 215.774 11.4041 216.977 10.3481C218.179 9.26273 219.133 8.3534 219.837 7.62006C219.338 7.62006 218.722 7.63473 217.989 7.66406C217.285 7.6934 216.507 7.7374 215.657 7.79606C214.806 7.85473 213.97 7.9134 213.149 7.97206C212.327 8.0014 211.565 8.03073 210.861 8.06006C210.186 8.0894 209.629 8.11873 209.189 8.14806C208.661 8.1774 208.045 8.23606 207.341 8.32406C206.637 8.38273 206.035 8.45606 205.537 8.54406L205.449 2.78006Z" fill="#4AA9D5"/>
<path d="M171.033 0.932456C170.798 1.69512 170.593 2.45779 170.417 3.22046C170.27 3.95379 170.123 4.68712 169.977 5.42046C169.83 6.12446 169.654 6.93113 169.449 7.84046C169.273 8.74979 169.067 9.71779 168.833 10.7445C168.627 11.7418 168.393 12.7538 168.129 13.7805C167.894 14.8071 167.645 15.8191 167.381 16.8165C167.117 17.7845 166.867 18.6791 166.633 19.5005C168.422 18.5031 170.197 17.7991 171.957 17.3885C173.717 16.9485 175.579 16.7285 177.545 16.7285C179.921 16.7285 181.989 17.1245 183.749 17.9165C185.538 18.7085 186.917 19.8085 187.885 21.2165C188.882 22.6245 189.381 24.2671 189.381 26.1445C189.381 28.6085 188.809 30.6911 187.665 32.3925C186.55 34.0938 184.937 35.4285 182.825 36.3965C180.742 37.3645 178.234 37.9805 175.301 38.2445C172.397 38.5085 169.17 38.4498 165.621 38.0685L164.081 32.3925C166.486 32.8031 168.833 33.0085 171.121 33.0085C173.438 33.0085 175.521 32.7885 177.369 32.3485C179.217 31.9085 180.683 31.2045 181.769 30.2365C182.883 29.2391 183.441 27.9338 183.441 26.3205C183.441 25.0005 182.883 23.8711 181.769 22.9325C180.654 21.9645 179.026 21.4805 176.885 21.4805C174.333 21.4805 171.986 21.9205 169.845 22.8005C167.733 23.6805 166.017 24.9565 164.697 26.6285C164.491 26.9511 164.286 27.2591 164.081 27.5525C163.905 27.8458 163.699 28.1831 163.465 28.5645L158.273 26.7165C159.094 25.1325 159.857 23.3285 160.561 21.3045C161.265 19.2805 161.895 17.2418 162.453 15.1885C163.01 13.1351 163.465 11.2285 163.817 9.46846C164.169 7.67913 164.418 6.22713 164.565 5.11246C164.711 4.17379 164.799 3.38179 164.829 2.73646C164.858 2.06179 164.843 1.37246 164.785 0.668457L171.033 0.932456ZM155.677 6.08046C157.085 6.31512 158.61 6.52046 160.253 6.69646C161.895 6.84313 163.406 6.91646 164.785 6.91646C166.193 6.91646 167.733 6.87246 169.405 6.78446C171.106 6.69646 172.895 6.56446 174.773 6.38846C176.65 6.21246 178.527 5.99246 180.405 5.72846C182.311 5.43512 184.174 5.09779 185.993 4.71646L186.081 9.95246C184.673 10.1871 183.074 10.4218 181.285 10.6565C179.525 10.8911 177.677 11.1111 175.741 11.3165C173.805 11.4925 171.898 11.6391 170.021 11.7565C168.143 11.8738 166.413 11.9325 164.829 11.9325C163.127 11.9325 161.499 11.9031 159.945 11.8445C158.419 11.7565 156.997 11.6538 155.677 11.5365V6.08046Z" fill="#4AA9D5"/>
<path d="M126.936 0.756295C126.76 1.5483 126.613 2.2523 126.496 2.8683C126.379 3.4843 126.276 4.08563 126.188 4.6723C126.071 5.2883 125.924 6.18296 125.748 7.3563C125.601 8.5003 125.425 9.80563 125.22 11.2723C125.044 12.7096 124.853 14.2203 124.648 15.8043C124.472 17.359 124.296 18.8843 124.12 20.3803C123.944 21.8763 123.797 23.2403 123.68 24.4723C123.592 25.7043 123.548 26.687 123.548 27.4203C123.548 29.239 124.091 30.6323 125.176 31.6003C126.291 32.539 127.933 33.0083 130.104 33.0083C132.157 33.0083 133.888 32.7296 135.296 32.1723C136.704 31.5856 137.775 30.8083 138.508 29.8403C139.241 28.8723 139.608 27.787 139.608 26.5843C139.608 25.0883 139.212 23.6363 138.42 22.2283C137.657 20.791 136.543 19.3976 135.076 18.0483L141.28 16.7283C142.747 18.5763 143.817 20.3363 144.492 22.0083C145.196 23.651 145.548 25.411 145.548 27.2883C145.548 29.4883 144.917 31.4536 143.656 33.1843C142.395 34.915 140.591 36.2643 138.244 37.2323C135.927 38.2003 133.155 38.6843 129.928 38.6843C127.64 38.6843 125.601 38.3323 123.812 37.6283C122.023 36.9243 120.629 35.8096 119.632 34.2843C118.635 32.759 118.136 30.779 118.136 28.3443C118.136 27.435 118.209 26.2323 118.356 24.7363C118.503 23.211 118.679 21.539 118.884 19.7203C119.119 17.8723 119.353 16.0096 119.588 14.1323C119.823 12.2256 120.028 10.4216 120.204 8.7203C120.409 7.01896 120.571 5.5523 120.688 4.3203C120.747 3.29363 120.776 2.51629 120.776 1.98829C120.805 1.43096 120.791 0.902962 120.732 0.404297L126.936 0.756295ZM111.228 6.2123C112.548 6.62296 113.985 6.97496 115.54 7.2683C117.095 7.5323 118.693 7.73763 120.336 7.88429C121.979 8.00163 123.533 8.0603 125 8.0603C126.731 8.0603 128.344 8.00163 129.84 7.88429C131.336 7.76696 132.641 7.6203 133.756 7.4443L133.58 12.6803C132.26 12.7976 130.94 12.9003 129.62 12.9883C128.3 13.0763 126.716 13.1203 124.868 13.1203C123.372 13.1203 121.817 13.047 120.204 12.9003C118.591 12.7243 116.992 12.5043 115.408 12.2403C113.824 11.947 112.343 11.6243 110.964 11.2723L111.228 6.2123ZM110.304 17.1243C111.888 17.6523 113.487 18.063 115.1 18.3563C116.743 18.6496 118.356 18.855 119.94 18.9723C121.553 19.0603 123.093 19.1043 124.56 19.1043C125.909 19.1043 127.361 19.0603 128.916 18.9723C130.5 18.8843 131.996 18.7523 133.404 18.5763L133.272 23.8123C132.04 23.9296 130.779 24.0323 129.488 24.1203C128.197 24.179 126.863 24.2083 125.484 24.2083C122.551 24.2083 119.735 24.0616 117.036 23.7683C114.337 23.4456 111.991 23.0056 109.996 22.4483L110.304 17.1243Z" fill="#4AA9D5"/>
<path d="M47.655 86.3736L47.712 86.5162C47.9583 87.2353 47.6249 88.0387 46.9194 88.3633C46.2139 88.6879 45.3869 88.4186 45.0009 87.7637L44.9297 87.6277L13.6381 19.6275C13.2918 18.8749 13.6211 17.9841 14.3737 17.6378C15.1262 17.2915 16.0171 17.6208 16.3634 18.3734L47.655 86.3736Z" fill="#4AA9D5"/>
<path d="M35.103 85.5857L35.2012 85.7037C35.6577 86.3118 35.5884 87.1787 35.0176 87.7053C34.4467 88.232 33.577 88.2313 33.0077 87.7273L32.898 87.62L1.89806 54.0176C1.33632 53.4087 1.37455 52.4597 1.98344 51.898C2.59233 51.3362 3.54131 51.3745 4.10304 51.9834L35.103 85.5857Z" fill="#4AA9D5"/>
<path d="M345.637 86.3736L345.58 86.5162C345.334 87.2353 345.667 88.0387 346.373 88.3633C347.078 88.6879 347.905 88.4186 348.291 87.7637L348.362 87.6277L379.654 19.6275C380 18.8749 379.671 17.9841 378.918 17.6378C378.166 17.2915 377.275 17.6208 376.929 18.3734L345.637 86.3736Z" fill="#4AA9D5"/>
<path d="M358.189 85.5857L358.091 85.7037C357.634 86.3118 357.704 87.1787 358.274 87.7053C358.845 88.232 359.715 88.2313 360.284 87.7273L360.394 87.62L391.394 54.0176C391.956 53.4087 391.917 52.4597 391.309 51.898C390.7 51.3362 389.751 51.3745 389.189 51.9834L358.189 85.5857Z" fill="#4AA9D5"/>
</svg>
