<svg width="196" height="196" viewBox="0 0 196 196" fill="none" xmlns="http://www.w3.org/2000/svg">
<g filter="url(#filter0_d_92_178)">
<path d="M98.3487 189.697C148.799 189.697 189.697 148.799 189.697 98.3487C189.697 47.8982 148.799 7 98.3487 7C47.8982 7 7 47.8982 7 98.3487C7 148.799 47.8982 189.697 98.3487 189.697Z" fill="#F49105"/>
</g>
<path d="M53.508 137.316V144.762C53.508 145.442 53.78 145.748 54.494 145.748H56.942C58.71 145.748 59.016 144.422 59.288 142.246C59.458 140.988 60.07 140.376 61.362 140.376C62.518 140.376 63.776 140.988 63.776 142.28C63.776 143.572 63.436 145.034 62.688 146.122C61.838 147.38 60.478 147.652 59.05 147.652H52.42C50.312 147.652 48.884 146.564 48.884 144.388V137.316H46.47C46.232 141.532 43.92 144.422 40.146 146.156C38.582 146.904 34.978 147.89 33.278 147.89C32.666 147.89 32.122 147.584 32.122 146.938C32.122 146.326 32.632 146.054 33.176 145.952C35.93 145.408 39.024 144.014 40.452 141.498C41.166 140.24 41.438 138.778 41.472 137.316H39.806C37.732 137.316 36.27 136.262 36.27 134.052V120.282C36.27 118.106 37.732 117.018 39.806 117.018H55.99C58.098 117.018 59.526 118.106 59.526 120.282V134.052C59.526 136.262 58.098 137.316 55.99 137.316H53.508ZM41.064 123.138H54.868V119.908C54.868 119.228 54.596 118.922 53.882 118.922H42.05C41.336 118.922 41.064 119.228 41.064 119.908V123.138ZM54.868 125.042H41.064V129.258H54.868V125.042ZM54.868 131.128H41.064V134.46C41.064 135.14 41.336 135.446 42.05 135.446H53.882C54.596 135.446 54.868 135.14 54.868 134.46V131.128ZM90.228 120.486V122.152H94.988C95.6 122.152 96.144 122.424 96.144 123.104C96.144 123.75 95.6 124.022 94.988 124.022H90.228V125.858H96.688C97.3 125.858 97.878 126.13 97.878 126.776C97.878 127.456 97.3 127.728 96.688 127.728H79.45C78.872 127.728 78.294 127.456 78.294 126.776C78.294 126.13 78.872 125.858 79.45 125.858H85.502V124.022H80.742C80.164 124.022 79.586 123.75 79.586 123.104C79.586 122.424 80.164 122.152 80.742 122.152H85.502V120.486H79.926C79.314 120.486 78.736 120.214 78.736 119.534C78.736 118.888 79.314 118.582 79.926 118.582H85.502C85.502 118.14 85.536 117.698 85.706 117.29C86.012 116.474 86.896 116.1 87.848 116.1C88.834 116.1 89.684 116.474 90.024 117.29C90.194 117.698 90.228 118.14 90.228 118.582H95.804C96.416 118.582 96.994 118.888 96.994 119.534C96.994 120.214 96.416 120.486 95.804 120.486H90.228ZM74.928 127.864C75.676 130.448 76.832 132.896 78.362 135.14C78.498 135.344 78.634 135.548 78.634 135.82C78.634 136.33 78.192 136.772 77.682 136.772C76.832 136.772 75.404 134.596 74.928 133.882V145.544C74.928 147.414 74.044 147.958 72.718 147.958C71.596 147.958 70.542 147.584 70.542 145.544V136.704C69.794 138.132 68.876 139.492 67.822 140.716C67.516 141.056 67.244 141.396 66.768 141.396C66.224 141.396 65.816 140.954 65.816 140.444C65.816 140.172 65.918 140.002 66.19 139.526C68.502 135.888 69.794 131.74 70.474 127.49H67.312C66.734 127.49 66.156 127.218 66.156 126.538C66.156 125.892 66.734 125.62 67.312 125.62H70.542V120.724C69.454 120.826 68.366 120.962 67.278 120.962C66.7 120.962 66.19 120.622 66.19 120.01C66.19 119.194 66.938 119.092 67.584 118.99C70.1 118.616 72.514 117.97 74.792 116.712C75.268 116.44 75.778 116.202 76.322 116.202C77.376 116.202 78.158 117.324 78.158 118.31C78.158 119.16 77.682 119.398 77.036 119.636C76.356 119.874 75.642 119.976 74.928 120.112V125.62H76.764C77.342 125.62 77.886 125.892 77.886 126.538C77.886 127.218 77.342 127.49 76.764 127.49H74.928V127.864ZM91.792 142.212C92.268 142.484 92.676 142.824 93.084 143.198C94.07 144.116 94.988 144.796 95.77 145.204C96.824 145.748 97.232 145.918 97.538 146.088C97.844 146.258 98.014 146.564 98.014 146.938C98.014 147.38 97.674 147.856 97.198 147.856C96.756 147.856 94.308 147.346 93.458 147.108C92.234 146.802 90.976 146.462 89.82 145.816C89.242 145.51 88.766 145.068 88.766 144.354C88.766 143.3 89.786 142.484 90.738 142.212H84.244C85.264 142.416 86.59 143.232 86.59 144.388C86.59 145.374 85.604 145.816 84.822 146.088C83.02 146.768 81.116 147.176 79.246 147.55C78.498 147.686 77.342 147.89 76.934 147.89C76.424 147.89 75.948 147.482 75.948 146.972C75.948 146.496 76.288 146.19 76.73 146.02C78.634 145.34 80.164 144.422 81.66 143.198C82.136 142.79 82.646 142.382 83.258 142.212H82.544C80.844 142.212 79.518 141.464 79.518 139.628V131.774C79.518 129.938 80.844 129.19 82.544 129.19H93.05C94.716 129.19 96.042 129.938 96.042 131.774V139.628C96.042 141.464 94.716 142.212 93.05 142.212H91.792ZM91.418 132.896V131.978C91.418 131.332 91.18 131.094 90.534 131.094H84.992C84.312 131.094 84.074 131.332 84.074 131.978V132.896H91.418ZM91.418 134.8H84.074V136.534H91.418V134.8ZM91.418 138.404H84.074V139.424C84.074 140.104 84.312 140.308 84.992 140.308H90.534C91.18 140.308 91.418 140.104 91.418 139.424V138.404ZM114.13 123.546C116.034 123.478 117.938 123.444 119.842 123.308C120.59 123.24 121.338 123.172 121.814 123.172C122.494 123.172 122.868 123.716 122.868 124.362C122.868 125.11 122.29 125.45 121.61 125.484C119.026 125.62 116.408 125.722 113.79 125.824C113.518 127.796 113.28 129.768 113.042 131.706C115.048 131.638 117.054 131.536 119.06 131.4C119.842 131.332 120.352 131.298 120.998 131.298C121.644 131.298 122.052 131.842 122.052 132.454C122.052 133.27 121.44 133.576 120.726 133.644C118.074 133.78 115.422 133.882 112.804 133.984C112.6 135.65 112.43 137.316 112.43 138.982C112.43 143.3 114.946 144.456 118.89 144.456C122.834 144.456 126.132 143.062 126.132 138.608C126.132 136.738 125.656 134.902 124.976 133.202C124.772 132.692 124.738 132.556 124.738 132.352C124.738 131.774 125.282 131.332 125.826 131.332C126.472 131.332 126.846 131.944 127.492 132.998C128.716 135.004 129.974 137.35 129.974 139.764C129.974 141.872 128.92 143.844 127.152 145C124.908 146.462 121.304 146.768 118.686 146.768C115.864 146.768 112.668 146.496 110.254 144.932C108.112 143.572 107.568 141.192 107.568 138.812C107.568 137.282 107.738 135.718 107.908 134.188C106.412 134.222 104.916 134.256 103.42 134.256C102.672 134.256 102.128 133.848 102.128 133.066C102.128 132.284 102.706 131.91 103.42 131.91H103.964C105.358 131.91 106.752 131.91 108.146 131.876C108.384 129.904 108.588 127.966 108.792 125.994C107.364 126.028 105.902 126.062 104.44 126.062C103.692 126.062 102.944 125.824 102.944 124.906C102.944 123.988 103.624 123.784 104.406 123.784H104.678C106.14 123.784 107.602 123.75 109.064 123.716C109.234 122.322 109.37 119.806 109.642 118.582C109.914 117.324 110.832 116.882 112.056 116.882C113.45 116.882 114.776 117.494 114.776 119.058C114.776 120.112 114.266 122.39 114.13 123.546ZM158.364 116.882C159.826 116.882 160.812 117.528 160.948 119.024C161.084 122.186 161.186 125.314 161.186 128.476C161.186 135.072 161.084 141.498 154.42 144.932C152.448 145.952 150.272 146.598 148.062 147.006C147.586 147.108 147.11 147.21 146.6 147.21C145.92 147.21 145.308 146.836 145.308 146.088C145.308 145.306 145.988 145.034 146.634 144.932C149.048 144.592 151.666 143.402 153.366 141.634C156.188 138.71 156.256 134.698 156.256 130.244C156.256 127.762 156.222 125.076 156.052 122.866C155.95 121.676 155.882 120.35 155.882 119.092C155.882 117.528 156.868 116.882 158.364 116.882ZM142.078 117.596C143.404 117.596 144.696 118.276 144.696 119.738C144.696 120.282 144.594 120.826 144.492 121.37C144.016 123.988 143.846 126.64 143.846 129.292C143.846 130.992 143.88 132.692 144.152 134.358C144.22 134.834 144.356 135.48 144.934 135.48C145.512 135.48 146.022 135.038 146.668 134.222C146.94 133.848 147.246 133.61 147.688 133.61C148.3 133.61 148.844 134.256 148.844 134.834C148.844 135.548 147.688 136.874 147.178 137.418C146.056 138.676 144.73 140.104 142.894 140.104C141.602 140.104 140.65 139.458 140.072 138.37C138.916 136.092 138.882 132.964 138.882 130.482C138.882 127.252 139.12 122.832 139.63 119.67C139.868 118.242 140.616 117.596 142.078 117.596Z" fill="white"/>
<g clip-path="url(#clip0_92_178)">
<path d="M69.7277 98.2C68.222 98.2 67.0023 96.9781 67 95.4723V58.3704C67 57.4745 67.4409 56.6372 68.175 56.1282L75.0471 51.3694V45.2761C75.0471 44.5232 75.6569 43.9134 76.4097 43.911H85.8195L96.5474 36.4855C97.4808 35.8382 98.7192 35.8382 99.6527 36.4855L110.381 43.911H120.062C120.815 43.911 121.425 44.5232 121.427 45.2761V51.5594L128.027 56.1282C128.764 56.6372 129.202 57.4768 129.202 58.3704V95.4723C129.202 96.9781 127.98 98.1977 126.475 98.2H69.7277ZM69.7277 95.4723H126.472V60.1248L99.0147 79.1366C98.548 79.4603 97.9288 79.4603 97.4621 79.1366L69.7277 59.9348V95.4723ZM98.236 76.355L118.697 62.1887V46.6387H77.7771V62.1887L98.2384 76.3526L98.236 76.355ZM75.0494 60.3007V54.6881L70.9942 57.4932L75.0494 60.2983V60.3007ZM121.425 60.3007L125.342 57.5894L121.425 54.8781V60.3007ZM105.587 43.911L98.1 38.7277L90.6135 43.911H105.587ZM86.2323 65.4653C85.4794 65.4653 84.8673 64.8555 84.8673 64.1002C84.8673 63.345 85.4771 62.7352 86.2323 62.7352H110.24C110.993 62.7352 111.605 63.3474 111.605 64.1002C111.605 64.8531 110.993 65.4653 110.24 65.4653H86.2323ZM86.2323 57.5542C85.4794 57.5542 84.8673 56.9421 84.8673 56.1892C84.8673 55.4363 85.4771 54.8242 86.2323 54.8242H110.24C110.993 54.8242 111.605 55.434 111.605 56.1892C111.605 56.9444 110.993 57.5542 110.24 57.5542H86.2323Z" fill="white"/>
</g>
<defs>
<filter id="filter0_d_92_178" x="0.885954" y="0.885954" width="194.925" height="194.925" filterUnits="userSpaceOnUse" color-interpolation-filters="sRGB">
<feFlood flood-opacity="0" result="BackgroundImageFix"/>
<feColorMatrix in="SourceAlpha" type="matrix" values="0 0 0 0 0 0 0 0 0 0 0 0 0 0 0 0 0 0 127 0" result="hardAlpha"/>
<feOffset/>
<feGaussianBlur stdDeviation="3.05702"/>
<feColorMatrix type="matrix" values="0 0 0 0 0.105882 0 0 0 0 0.101961 0 0 0 0 0.0901961 0 0 0 0.4 0"/>
<feBlend mode="normal" in2="BackgroundImageFix" result="effect1_dropShadow_92_178"/>
<feBlend mode="normal" in="SourceGraphic" in2="effect1_dropShadow_92_178" result="shape"/>
</filter>
<clipPath id="clip0_92_178">
<rect width="62.2" height="62.2" fill="white" transform="translate(67 36)"/>
</clipPath>
</defs>
</svg>
