<svg width="600" height="201" viewBox="0 0 600 201" fill="none" xmlns="http://www.w3.org/2000/svg">
<path d="M300 201L600 123.561V0H0.00048886L0 123.561L300 201Z" fill="#D2EAF5"/>
<path d="M523.564 115.748L522.592 103.436L522.412 98.072H528.388L528.208 103.436L527.236 115.748H523.564ZM525.4 125.324C524.488 125.324 523.732 125.024 523.132 124.424C522.532 123.824 522.232 123.068 522.232 122.156C522.232 121.22 522.532 120.452 523.132 119.852C523.732 119.252 524.488 118.952 525.4 118.952C526.312 118.952 527.068 119.252 527.668 119.852C528.268 120.452 528.568 121.22 528.568 122.156C528.568 123.068 528.268 123.824 527.668 124.424C527.068 125.024 526.312 125.324 525.4 125.324Z" fill="white"/>
<path d="M486.728 99.8359C487.832 99.9799 489.068 100.088 490.436 100.16C491.828 100.208 493.232 100.232 494.648 100.232C496.088 100.208 497.468 100.16 498.788 100.088C500.108 99.9919 501.248 99.8959 502.208 99.7999V104.444C501.104 104.54 499.892 104.624 498.572 104.696C497.252 104.744 495.896 104.768 494.504 104.768C493.112 104.768 491.744 104.744 490.4 104.696C489.08 104.624 487.856 104.54 486.728 104.444V99.8359ZM489.608 115.208C489.464 115.808 489.356 116.348 489.284 116.828C489.212 117.284 489.176 117.752 489.176 118.232C489.176 118.616 489.272 118.976 489.464 119.312C489.656 119.624 489.944 119.9 490.328 120.14C490.736 120.356 491.252 120.524 491.876 120.644C492.524 120.74 493.304 120.788 494.216 120.788C495.824 120.788 497.336 120.716 498.752 120.572C500.168 120.404 501.668 120.164 503.252 119.852L503.324 124.712C502.172 124.928 500.84 125.096 499.328 125.216C497.84 125.336 496.076 125.396 494.036 125.396C490.94 125.396 488.636 124.88 487.124 123.848C485.612 122.792 484.856 121.34 484.856 119.492C484.856 118.796 484.904 118.076 485 117.332C485.12 116.564 485.276 115.724 485.468 114.812L489.608 115.208ZM481.184 97.4239C481.088 97.6639 480.98 97.9999 480.86 98.4319C480.74 98.8639 480.62 99.2839 480.5 99.6919C480.404 100.1 480.332 100.412 480.284 100.628C480.212 101.132 480.092 101.792 479.924 102.608C479.78 103.4 479.624 104.3 479.456 105.308C479.312 106.292 479.168 107.3 479.024 108.332C478.88 109.364 478.76 110.36 478.664 111.32C478.592 112.28 478.556 113.12 478.556 113.84C478.556 114.176 478.556 114.56 478.556 114.992C478.58 115.424 478.628 115.82 478.7 116.18C478.868 115.772 479.048 115.364 479.24 114.956C479.432 114.548 479.624 114.14 479.816 113.732C480.008 113.3 480.176 112.892 480.32 112.508L482.552 114.272C482.216 115.256 481.868 116.312 481.508 117.44C481.172 118.568 480.86 119.636 480.572 120.644C480.308 121.628 480.104 122.444 479.96 123.092C479.912 123.356 479.864 123.656 479.816 123.992C479.792 124.328 479.78 124.592 479.78 124.784C479.78 124.976 479.78 125.204 479.78 125.468C479.804 125.756 479.828 126.02 479.852 126.26L475.676 126.548C475.316 125.3 474.992 123.644 474.704 121.58C474.416 119.492 474.272 117.224 474.272 114.776C474.272 113.432 474.332 112.064 474.452 110.672C474.572 109.28 474.716 107.948 474.884 106.676C475.052 105.38 475.208 104.204 475.352 103.148C475.52 102.092 475.664 101.216 475.784 100.52C475.832 100.016 475.892 99.4519 475.964 98.8279C476.06 98.1799 476.12 97.5679 476.144 96.9919L481.184 97.4239Z" fill="white"/>
<path d="M450.64 129.048H436.032V124.296H445.404V100.932H450.64V129.048Z" fill="white"/>
<path d="M416.488 87.8201H421.636V94.7721H416.488V87.8201ZM406.676 92.4401H432.196V101.152H427.312V96.9281H411.34V101.152H406.676V92.4401ZM409.932 100.492H428.808V105.024H409.932V100.492ZM407.292 108.236H431.976V112.944H407.292V108.236ZM412.264 110.48H417.28C417.192 112.856 416.986 115.012 416.664 116.948C416.37 118.855 415.842 120.571 415.08 122.096C414.346 123.592 413.261 124.897 411.824 126.012C410.386 127.156 408.494 128.124 406.148 128.916C406.001 128.476 405.766 127.992 405.444 127.464C405.15 126.965 404.813 126.467 404.432 125.968C404.05 125.469 403.684 125.073 403.332 124.78C405.326 124.193 406.91 123.475 408.084 122.624C409.257 121.773 410.122 120.776 410.68 119.632C411.266 118.459 411.662 117.124 411.868 115.628C412.073 114.103 412.205 112.387 412.264 110.48ZM420.404 109.952H425.332V122.448C425.332 123.123 425.361 123.533 425.42 123.68C425.508 123.827 425.713 123.9 426.036 123.9C426.124 123.9 426.27 123.9 426.476 123.9C426.681 123.9 426.872 123.9 427.048 123.9C427.253 123.9 427.414 123.9 427.532 123.9C427.737 123.9 427.898 123.783 428.016 123.548C428.162 123.313 428.265 122.829 428.324 122.096C428.382 121.333 428.426 120.204 428.456 118.708C428.778 118.972 429.189 119.236 429.688 119.5C430.216 119.764 430.758 119.999 431.316 120.204C431.902 120.409 432.401 120.571 432.812 120.688C432.694 122.741 432.445 124.34 432.064 125.484C431.712 126.628 431.213 127.42 430.568 127.86C429.952 128.329 429.116 128.564 428.06 128.564C427.884 128.564 427.664 128.564 427.4 128.564C427.136 128.564 426.857 128.564 426.564 128.564C426.3 128.564 426.036 128.564 425.772 128.564C425.508 128.564 425.288 128.564 425.112 128.564C423.85 128.564 422.868 128.373 422.164 127.992C421.489 127.611 421.02 126.965 420.756 126.056C420.521 125.176 420.404 123.988 420.404 122.492V109.952ZM393.124 89.4921H403.508V94.2441H397.744V128.96H393.124V89.4921ZM401.924 89.4921H402.76L403.508 89.3161L406.94 91.2961C406.588 92.5281 406.192 93.8627 405.752 95.3001C405.312 96.7374 404.857 98.1454 404.388 99.5241C403.948 100.903 403.522 102.164 403.112 103.308C404.461 104.98 405.341 106.564 405.752 108.06C406.162 109.556 406.368 110.949 406.368 112.24C406.368 113.648 406.206 114.821 405.884 115.76C405.59 116.699 405.092 117.417 404.388 117.916C404.036 118.151 403.64 118.341 403.2 118.488C402.789 118.635 402.349 118.752 401.88 118.84C401.058 118.928 400.09 118.957 398.976 118.928C398.946 118.312 398.829 117.564 398.624 116.684C398.448 115.804 398.184 115.056 397.832 114.44C398.242 114.469 398.594 114.484 398.888 114.484C399.21 114.484 399.504 114.484 399.768 114.484C400.296 114.455 400.706 114.323 401 114.088C401.264 113.883 401.44 113.575 401.528 113.164C401.645 112.724 401.704 112.196 401.704 111.58C401.704 110.553 401.498 109.38 401.088 108.06C400.706 106.74 399.9 105.347 398.668 103.88C398.961 102.883 399.254 101.797 399.548 100.624C399.87 99.4214 400.178 98.2187 400.472 97.0161C400.794 95.8134 401.073 94.6987 401.308 93.6721C401.572 92.6161 401.777 91.7361 401.924 91.0321V89.4921Z" fill="white"/>
<path d="M357.3 104.76V120.996H352.24V109.644H346.608V104.76H357.3ZM357.3 118.884C358.18 120.38 359.382 121.465 360.908 122.14C362.462 122.815 364.354 123.196 366.584 123.284C367.904 123.343 369.488 123.387 371.336 123.416C373.184 123.416 375.12 123.401 377.144 123.372C379.197 123.343 381.206 123.299 383.172 123.24C385.137 123.152 386.882 123.035 388.408 122.888C388.202 123.269 387.982 123.783 387.748 124.428C387.542 125.044 387.352 125.675 387.176 126.32C387 126.965 386.853 127.537 386.736 128.036C385.386 128.124 383.832 128.183 382.072 128.212C380.312 128.241 378.493 128.256 376.616 128.256C374.738 128.285 372.92 128.285 371.16 128.256C369.429 128.256 367.889 128.227 366.54 128.168C363.9 128.051 361.656 127.625 359.808 126.892C357.989 126.159 356.42 124.941 355.1 123.24C354.073 124.12 353.017 124.985 351.932 125.836C350.876 126.716 349.732 127.625 348.5 128.564L346.036 123.284C347.092 122.697 348.206 122.023 349.38 121.26C350.553 120.497 351.668 119.705 352.724 118.884H357.3ZM347.268 91.9119L350.876 88.5239C351.814 89.1399 352.768 89.8586 353.736 90.6799C354.733 91.4719 355.672 92.2786 356.552 93.0999C357.432 93.8919 358.121 94.6399 358.62 95.3439L354.66 99.1279C354.22 98.4239 353.589 97.6466 352.768 96.7959C351.946 95.9453 351.052 95.0946 350.084 94.2439C349.116 93.3639 348.177 92.5866 347.268 91.9119ZM365.044 96.1799L368.432 93.3639C369.722 93.8039 371.145 94.3466 372.7 94.9919C374.254 95.6079 375.75 96.2533 377.188 96.9279C378.654 97.6026 379.872 98.2186 380.84 98.7759L377.232 101.944C376.352 101.357 375.208 100.727 373.8 100.052C372.421 99.3773 370.954 98.7026 369.4 98.0279C367.845 97.3239 366.393 96.7079 365.044 96.1799ZM361.084 98.6439H383.48V102.472H366.012V121.436H361.084V98.6439ZM381.016 98.6439H386.032V116.904C386.032 117.989 385.9 118.84 385.636 119.456C385.401 120.043 384.932 120.512 384.228 120.864C383.553 121.216 382.717 121.436 381.72 121.524C380.752 121.583 379.608 121.612 378.288 121.612C378.17 120.967 377.98 120.263 377.716 119.5C377.481 118.708 377.232 118.019 376.968 117.432C377.642 117.461 378.317 117.476 378.992 117.476C379.666 117.476 380.121 117.476 380.356 117.476C380.59 117.476 380.752 117.432 380.84 117.344C380.957 117.227 381.016 117.051 381.016 116.816V98.6439ZM361.48 89.0959H382.424V93.0999H361.48V89.0959ZM363.812 104.848H382.732V108.544H363.812V104.848ZM363.812 111.008H382.732V114.836H363.812V111.008ZM371.072 100.448H375.78V121.26H371.072V100.448ZM380.532 89.0959H381.764L382.776 88.8319L385.9 91.3399C384.873 92.3079 383.714 93.2906 382.424 94.2879C381.162 95.2853 379.842 96.2239 378.464 97.1039C377.085 97.9546 375.721 98.7026 374.372 99.3479C374.078 98.9079 373.653 98.3946 373.096 97.8079C372.568 97.2213 372.128 96.7519 371.776 96.3999C372.89 95.8719 374.005 95.2413 375.12 94.5079C376.264 93.7453 377.305 92.9679 378.244 92.1759C379.212 91.3839 379.974 90.6653 380.532 90.0199V89.0959Z" fill="white"/>
<path d="M328.56 87.512H343.168V92.264H333.796V115.628H328.56V87.512Z" fill="white"/>
<path d="M286.624 96.02C287.488 96.284 288.568 96.56 289.864 96.848C291.16 97.136 292.516 97.424 293.932 97.712C295.348 97.976 296.68 98.204 297.928 98.396C299.2 98.588 300.232 98.732 301.024 98.828L299.944 103.22C299.224 103.124 298.348 102.992 297.316 102.824C296.308 102.632 295.228 102.428 294.076 102.212C292.948 101.996 291.832 101.78 290.728 101.564C289.624 101.324 288.616 101.096 287.704 100.88C286.792 100.664 286.048 100.484 285.472 100.34L286.624 96.02ZM286.84 103.256C286.72 103.736 286.588 104.36 286.444 105.128C286.324 105.872 286.204 106.652 286.084 107.468C285.964 108.284 285.844 109.064 285.724 109.808C285.628 110.552 285.544 111.176 285.472 111.68C287.104 110.504 288.808 109.64 290.584 109.088C292.384 108.536 294.22 108.26 296.092 108.26C298.204 108.26 300.004 108.644 301.492 109.412C302.98 110.18 304.108 111.188 304.876 112.436C305.668 113.684 306.064 115.04 306.064 116.504C306.064 118.136 305.716 119.648 305.02 121.04C304.324 122.432 303.184 123.62 301.6 124.604C300.016 125.588 297.94 126.284 295.372 126.692C292.804 127.1 289.648 127.148 285.904 126.836L284.536 122.12C288.136 122.6 291.16 122.672 293.608 122.336C296.056 121.976 297.904 121.28 299.152 120.248C300.424 119.192 301.06 117.908 301.06 116.396C301.06 115.604 300.832 114.908 300.376 114.308C299.92 113.684 299.284 113.204 298.468 112.868C297.652 112.508 296.728 112.328 295.696 112.328C293.68 112.328 291.784 112.7 290.008 113.444C288.256 114.164 286.816 115.208 285.688 116.576C285.376 116.96 285.112 117.32 284.896 117.656C284.704 117.968 284.524 118.304 284.356 118.664L280.216 117.62C280.36 116.924 280.504 116.108 280.648 115.172C280.792 114.212 280.936 113.192 281.08 112.112C281.224 111.008 281.356 109.904 281.476 108.8C281.596 107.696 281.704 106.604 281.8 105.524C281.896 104.444 281.968 103.46 282.016 102.572L286.84 103.256Z" fill="white"/>
<path d="M254.432 96.56C254.312 97.016 254.192 97.52 254.072 98.072C253.976 98.6 253.88 99.092 253.784 99.548C253.688 100.076 253.568 100.676 253.424 101.348C253.28 101.996 253.136 102.656 252.992 103.328C252.872 103.976 252.74 104.612 252.596 105.236C252.356 106.268 252.056 107.468 251.696 108.836C251.336 110.204 250.916 111.68 250.436 113.264C249.956 114.824 249.416 116.396 248.816 117.98C248.216 119.564 247.58 121.112 246.908 122.624C246.236 124.112 245.516 125.456 244.748 126.656L240.068 124.784C240.908 123.656 241.688 122.396 242.408 121.004C243.152 119.588 243.824 118.136 244.424 116.648C245.024 115.16 245.552 113.696 246.008 112.256C246.488 110.816 246.896 109.472 247.232 108.224C247.568 106.976 247.832 105.908 248.024 105.02C248.36 103.388 248.624 101.816 248.816 100.304C249.008 98.792 249.092 97.364 249.068 96.02L254.432 96.56ZM266.816 99.944C267.392 100.712 267.98 101.684 268.58 102.86C269.204 104.012 269.804 105.236 270.38 106.532C270.98 107.828 271.52 109.076 272 110.276C272.504 111.476 272.888 112.496 273.152 113.336L268.58 115.46C268.34 114.452 268.004 113.336 267.572 112.112C267.164 110.864 266.684 109.604 266.132 108.332C265.604 107.036 265.028 105.812 264.404 104.66C263.804 103.508 263.18 102.548 262.532 101.78L266.816 99.944ZM239.816 103.94C240.464 103.988 241.1 104.012 241.724 104.012C242.348 103.988 242.996 103.964 243.668 103.94C244.244 103.916 244.952 103.88 245.792 103.832C246.656 103.76 247.556 103.688 248.492 103.616C249.452 103.544 250.412 103.472 251.372 103.4C252.332 103.304 253.22 103.232 254.036 103.184C254.852 103.136 255.524 103.112 256.052 103.112C257.324 103.112 258.44 103.328 259.4 103.76C260.384 104.168 261.152 104.876 261.704 105.884C262.28 106.892 262.568 108.26 262.568 109.988C262.568 111.404 262.496 112.94 262.352 114.596C262.232 116.252 262.028 117.836 261.74 119.348C261.452 120.86 261.044 122.144 260.516 123.2C259.94 124.448 259.148 125.312 258.14 125.792C257.156 126.272 255.98 126.512 254.612 126.512C253.916 126.512 253.172 126.452 252.38 126.332C251.612 126.236 250.916 126.128 250.292 126.008L249.5 121.256C249.98 121.376 250.496 121.496 251.048 121.616C251.624 121.736 252.164 121.832 252.668 121.904C253.196 121.976 253.616 122.012 253.928 122.012C254.528 122.012 255.056 121.904 255.512 121.688C255.968 121.448 256.34 121.04 256.628 120.464C256.964 119.768 257.228 118.868 257.42 117.764C257.636 116.66 257.792 115.472 257.888 114.2C258.008 112.904 258.068 111.668 258.068 110.492C258.068 109.532 257.936 108.824 257.672 108.368C257.408 107.912 257.012 107.612 256.484 107.468C255.98 107.3 255.344 107.216 254.576 107.216C254.048 107.216 253.304 107.264 252.344 107.36C251.408 107.432 250.412 107.528 249.356 107.648C248.3 107.744 247.304 107.852 246.368 107.972C245.456 108.092 244.748 108.176 244.244 108.224C243.74 108.32 243.08 108.428 242.264 108.548C241.472 108.644 240.8 108.74 240.248 108.836L239.816 103.94Z" fill="white"/>
<path d="M219.84 129.048H205.232V124.296H214.604V100.932H219.84V129.048Z" fill="white"/>
<path d="M185.688 87.8201H190.836V94.7721H185.688V87.8201ZM175.876 92.4401H201.396V101.152H196.512V96.9281H180.54V101.152H175.876V92.4401ZM179.132 100.492H198.008V105.024H179.132V100.492ZM176.492 108.236H201.176V112.944H176.492V108.236ZM181.464 110.48H186.48C186.392 112.856 186.186 115.012 185.864 116.948C185.57 118.855 185.042 120.571 184.28 122.096C183.546 123.592 182.461 124.897 181.024 126.012C179.586 127.156 177.694 128.124 175.348 128.916C175.201 128.476 174.966 127.992 174.644 127.464C174.35 126.965 174.013 126.467 173.632 125.968C173.25 125.469 172.884 125.073 172.532 124.78C174.526 124.193 176.11 123.475 177.284 122.624C178.457 121.773 179.322 120.776 179.88 119.632C180.466 118.459 180.862 117.124 181.068 115.628C181.273 114.103 181.405 112.387 181.464 110.48ZM189.604 109.952H194.532V122.448C194.532 123.123 194.561 123.533 194.62 123.68C194.708 123.827 194.913 123.9 195.236 123.9C195.324 123.9 195.47 123.9 195.676 123.9C195.881 123.9 196.072 123.9 196.248 123.9C196.453 123.9 196.614 123.9 196.732 123.9C196.937 123.9 197.098 123.783 197.216 123.548C197.362 123.313 197.465 122.829 197.524 122.096C197.582 121.333 197.626 120.204 197.656 118.708C197.978 118.972 198.389 119.236 198.888 119.5C199.416 119.764 199.958 119.999 200.516 120.204C201.102 120.409 201.601 120.571 202.012 120.688C201.894 122.741 201.645 124.34 201.264 125.484C200.912 126.628 200.413 127.42 199.768 127.86C199.152 128.329 198.316 128.564 197.26 128.564C197.084 128.564 196.864 128.564 196.6 128.564C196.336 128.564 196.057 128.564 195.764 128.564C195.5 128.564 195.236 128.564 194.972 128.564C194.708 128.564 194.488 128.564 194.312 128.564C193.05 128.564 192.068 128.373 191.364 127.992C190.689 127.611 190.22 126.965 189.956 126.056C189.721 125.176 189.604 123.988 189.604 122.492V109.952ZM162.324 89.4921H172.708V94.2441H166.944V128.96H162.324V89.4921ZM171.124 89.4921H171.96L172.708 89.3161L176.14 91.2961C175.788 92.5281 175.392 93.8627 174.952 95.3001C174.512 96.7374 174.057 98.1454 173.588 99.5241C173.148 100.903 172.722 102.164 172.312 103.308C173.661 104.98 174.541 106.564 174.952 108.06C175.362 109.556 175.568 110.949 175.568 112.24C175.568 113.648 175.406 114.821 175.084 115.76C174.79 116.699 174.292 117.417 173.588 117.916C173.236 118.151 172.84 118.341 172.4 118.488C171.989 118.635 171.549 118.752 171.08 118.84C170.258 118.928 169.29 118.957 168.176 118.928C168.146 118.312 168.029 117.564 167.824 116.684C167.648 115.804 167.384 115.056 167.032 114.44C167.442 114.469 167.794 114.484 168.088 114.484C168.41 114.484 168.704 114.484 168.968 114.484C169.496 114.455 169.906 114.323 170.2 114.088C170.464 113.883 170.64 113.575 170.728 113.164C170.845 112.724 170.904 112.196 170.904 111.58C170.904 110.553 170.698 109.38 170.288 108.06C169.906 106.74 169.1 105.347 167.868 103.88C168.161 102.883 168.454 101.797 168.748 100.624C169.07 99.4214 169.378 98.2187 169.672 97.0161C169.994 95.8134 170.273 94.6987 170.508 93.6721C170.772 92.6161 170.977 91.7361 171.124 91.0321V89.4921Z" fill="white"/>
<path d="M124.476 90.064H136.972V95.432H124.476V90.064ZM134.376 90.064H139.832C139.832 91.472 139.891 93.0706 140.008 94.86C140.125 96.62 140.375 98.512 140.756 100.536C141.137 102.531 141.709 104.584 142.472 106.696C143.235 108.808 144.247 110.905 145.508 112.988C146.799 115.041 148.412 117.021 150.348 118.928C152.284 120.835 154.601 122.595 157.3 124.208C156.919 124.501 156.449 124.927 155.892 125.484C155.335 126.041 154.792 126.613 154.264 127.2C153.765 127.816 153.355 128.359 153.032 128.828C150.275 127.127 147.884 125.22 145.86 123.108C143.836 120.967 142.135 118.708 140.756 116.332C139.377 113.927 138.263 111.507 137.412 109.072C136.561 106.608 135.916 104.217 135.476 101.9C135.036 99.5533 134.743 97.368 134.596 95.344C134.449 93.32 134.376 91.56 134.376 90.064ZM132.484 99.744L138.512 100.844C137.515 105.185 136.18 109.131 134.508 112.68C132.836 116.229 130.827 119.353 128.48 122.052C126.163 124.751 123.479 127.024 120.428 128.872C120.105 128.491 119.651 128.021 119.064 127.464C118.477 126.936 117.861 126.393 117.216 125.836C116.6 125.308 116.057 124.883 115.588 124.56C120.193 122.243 123.86 118.987 126.588 114.792C129.316 110.568 131.281 105.552 132.484 99.744Z" fill="white"/>
<path d="M97.7598 87.512H112.368V92.264H102.996V115.628H97.7598V87.512Z" fill="white"/>
<path d="M394.576 40.8959C395.608 40.9919 396.64 41.0759 397.672 41.1479C398.728 41.1959 399.796 41.2199 400.876 41.2199C403.084 41.2199 405.28 41.1239 407.464 40.9319C409.648 40.7399 411.664 40.4399 413.512 40.0319V44.5319C411.64 44.7959 409.612 45.0119 407.428 45.1799C405.244 45.3239 403.06 45.3959 400.876 45.3959C399.82 45.3959 398.764 45.3839 397.708 45.3599C396.676 45.3119 395.632 45.2519 394.576 45.1799V40.8959ZM408.256 34.8119C408.208 35.1479 408.16 35.5199 408.112 35.9279C408.088 36.3359 408.064 36.7439 408.04 37.1519C408.016 37.5359 407.992 38.0519 407.968 38.6999C407.944 39.3479 407.932 40.0799 407.932 40.8959C407.932 41.6879 407.932 42.5279 407.932 43.4159C407.932 45.0479 407.956 46.5839 408.004 48.0239C408.052 49.4399 408.112 50.7599 408.184 51.9839C408.256 53.1839 408.316 54.2879 408.364 55.2959C408.436 56.3039 408.472 57.2399 408.472 58.1039C408.472 59.0399 408.34 59.9039 408.076 60.6959C407.836 61.4879 407.44 62.1839 406.888 62.7839C406.336 63.3839 405.604 63.8399 404.692 64.1519C403.804 64.4879 402.712 64.6559 401.416 64.6559C398.92 64.6559 396.952 64.1519 395.512 63.1439C394.072 62.1359 393.352 60.6839 393.352 58.7879C393.352 57.5639 393.676 56.4959 394.324 55.5839C394.972 54.6479 395.896 53.9279 397.096 53.4239C398.296 52.8959 399.712 52.6319 401.344 52.6319C403.048 52.6319 404.596 52.8119 405.988 53.1719C407.38 53.5319 408.652 54.0119 409.804 54.6119C410.956 55.2119 411.976 55.8719 412.864 56.5919C413.776 57.2879 414.592 57.9599 415.312 58.6079L412.828 62.3879C411.46 61.0919 410.128 59.9759 408.832 59.0399C407.536 58.1039 406.24 57.3839 404.944 56.8799C403.672 56.3759 402.352 56.1239 400.984 56.1239C399.976 56.1239 399.148 56.3159 398.5 56.6999C397.876 57.0839 397.564 57.6239 397.564 58.3199C397.564 59.0399 397.888 59.5679 398.536 59.9039C399.184 60.2399 399.976 60.4079 400.912 60.4079C401.656 60.4079 402.244 60.2879 402.676 60.0479C403.108 59.7839 403.408 59.4119 403.576 58.9319C403.768 58.4279 403.864 57.8279 403.864 57.1319C403.864 56.5079 403.84 55.6919 403.792 54.6839C403.744 53.6759 403.684 52.5479 403.612 51.2999C403.564 50.0519 403.516 48.7559 403.468 47.4119C403.42 46.0439 403.396 44.7119 403.396 43.4159C403.396 42.0479 403.384 40.8119 403.36 39.7079C403.36 38.5799 403.36 37.7399 403.36 37.1879C403.36 36.9239 403.336 36.5519 403.288 36.0719C403.24 35.5919 403.18 35.1719 403.108 34.8119H408.256ZM390.688 35.2079C390.616 35.4479 390.508 35.7839 390.364 36.2159C390.244 36.6479 390.136 37.0679 390.04 37.4759C389.968 37.8839 389.908 38.1959 389.86 38.4119C389.74 38.9159 389.608 39.5999 389.464 40.4639C389.32 41.3039 389.164 42.2639 388.996 43.3439C388.852 44.3999 388.708 45.4919 388.564 46.6199C388.42 47.7239 388.312 48.7799 388.24 49.7879C388.168 50.7719 388.132 51.6239 388.132 52.3439C388.132 52.7039 388.132 53.0999 388.132 53.5319C388.156 53.9399 388.204 54.3239 388.276 54.6839C388.444 54.2519 388.612 53.8319 388.78 53.4239C388.972 53.0159 389.164 52.6079 389.356 52.1999C389.548 51.7919 389.728 51.3839 389.896 50.9759L392.092 52.7759C391.756 53.7599 391.408 54.7919 391.048 55.8719C390.712 56.9519 390.4 57.9719 390.112 58.9319C389.848 59.8919 389.644 60.6959 389.5 61.3439C389.452 61.5839 389.404 61.8719 389.356 62.2079C389.332 62.5439 389.32 62.8199 389.32 63.0359C389.32 63.2279 389.32 63.4559 389.32 63.7199C389.344 64.0079 389.368 64.2719 389.392 64.5119L385.324 64.8359C384.94 63.5639 384.604 61.9439 384.316 59.9759C384.028 57.9839 383.884 55.7639 383.884 53.3159C383.884 51.9719 383.944 50.5679 384.064 49.1039C384.184 47.6159 384.316 46.1879 384.46 44.8199C384.628 43.4519 384.796 42.2039 384.964 41.0759C385.132 39.9239 385.264 38.9999 385.36 38.3039C385.432 37.7999 385.504 37.2359 385.576 36.6119C385.648 35.9639 385.696 35.3519 385.72 34.7759L390.688 35.2079Z" fill="white"/>
<path d="M355.04 41.2199H378.08V44.4599H355.04V41.2199ZM354.68 46.5119L356.876 44.6039C357.5 45.0119 358.184 45.4919 358.928 46.0439C359.672 46.5719 360.26 47.0519 360.692 47.4839L358.388 49.5719C358.004 49.1639 357.44 48.6719 356.696 48.0959C355.976 47.4959 355.304 46.9679 354.68 46.5119ZM369.728 60.0479L373.004 58.3919C373.604 58.9199 374.228 59.5199 374.876 60.1919C375.524 60.8639 376.136 61.5239 376.712 62.1719C377.312 62.8199 377.78 63.4079 378.116 63.9359L374.624 65.7719C374.336 65.2679 373.916 64.6679 373.364 63.9719C372.836 63.2999 372.248 62.6159 371.6 61.9199C370.952 61.2239 370.328 60.5999 369.728 60.0479ZM361.412 53.9279V55.3319H370.736V53.9279H361.412ZM361.412 50.2199V51.5519H370.736V50.2199H361.412ZM357.812 47.6639H374.48V57.8879H357.812V47.6639ZM357.596 58.3199L361.484 59.3999C360.836 60.5999 360.008 61.7759 359 62.9279C358.016 64.0559 357.02 65.0039 356.012 65.7719C355.772 65.5319 355.46 65.2439 355.076 64.9079C354.692 64.5959 354.296 64.2839 353.888 63.9719C353.48 63.6839 353.12 63.4439 352.808 63.2519C353.768 62.6279 354.68 61.8839 355.544 61.0199C356.408 60.1319 357.092 59.2319 357.596 58.3199ZM375.488 44.3519L377.972 46.1879C377.396 46.7399 376.772 47.2679 376.1 47.7719C375.452 48.2759 374.864 48.7079 374.336 49.0679L372.14 47.3759C372.668 46.9919 373.256 46.5119 373.904 45.9359C374.552 45.3359 375.08 44.8079 375.488 44.3519ZM370.196 42.5879C370.748 43.6199 371.468 44.6159 372.356 45.5759C373.244 46.5359 374.252 47.3999 375.38 48.1679C376.508 48.9119 377.696 49.5119 378.944 49.9679C378.512 50.3279 378.056 50.8079 377.576 51.4079C377.096 52.0079 376.712 52.5359 376.424 52.9919C375.104 52.3919 373.844 51.6119 372.644 50.6519C371.468 49.6919 370.4 48.6119 369.44 47.4119C368.48 46.1879 367.664 44.9159 366.992 43.5959L370.196 42.5879ZM363.968 56.5559H368.144V62.4959C368.144 63.3839 368.036 64.0679 367.82 64.5479C367.604 65.0519 367.172 65.4479 366.524 65.7359C365.876 65.9999 365.144 66.1559 364.328 66.2039C363.512 66.2519 362.552 66.2759 361.448 66.2759C361.328 65.7479 361.136 65.1479 360.872 64.4759C360.608 63.8279 360.356 63.2759 360.116 62.8199C360.788 62.8439 361.448 62.8559 362.096 62.8559C362.744 62.8559 363.176 62.8559 363.392 62.8559C363.632 62.8559 363.788 62.8199 363.86 62.7479C363.932 62.6519 363.968 62.5199 363.968 62.3519V56.5559ZM363.356 38.7359L367.316 39.2759C366.74 41.0999 365.948 42.8639 364.94 44.5679C363.956 46.2479 362.708 47.8199 361.196 49.2839C359.684 50.7479 357.836 52.0559 355.652 53.2079C355.388 52.7519 355.004 52.2359 354.5 51.6599C353.996 51.0839 353.516 50.6519 353.06 50.3639C355.076 49.4279 356.768 48.3359 358.136 47.0879C359.528 45.8399 360.644 44.5079 361.484 43.0919C362.348 41.6519 362.972 40.1999 363.356 38.7359ZM351.908 35.3159H378.404V38.9159H351.908V35.3159ZM349.82 35.3159H353.816V46.9439C353.816 48.3839 353.744 49.9559 353.6 51.6599C353.456 53.3639 353.192 55.0919 352.808 56.8439C352.448 58.5959 351.908 60.2879 351.188 61.9199C350.492 63.5279 349.568 64.9559 348.416 66.2039C348.224 65.9159 347.936 65.5799 347.552 65.1959C347.168 64.8359 346.784 64.4759 346.4 64.1159C346.016 63.7799 345.68 63.5279 345.392 63.3599C346.424 62.2079 347.228 60.9599 347.804 59.6159C348.404 58.2479 348.848 56.8319 349.136 55.3679C349.424 53.9039 349.604 52.4639 349.676 51.0479C349.772 49.6079 349.82 48.2399 349.82 46.9439V35.3159ZM361.16 32.3999H365.696V37.5119H361.16V32.3999ZM344.672 39.8879L347.768 38.5919C348.272 39.7439 348.728 40.9799 349.136 42.2999C349.568 43.6199 349.832 44.7359 349.928 45.6479L346.652 47.1599C346.58 46.5119 346.448 45.7799 346.256 44.9639C346.064 44.1239 345.836 43.2599 345.572 42.3719C345.308 41.4839 345.008 40.6559 344.672 39.8879ZM344.348 52.3439C345.188 51.9839 346.172 51.5279 347.3 50.9759C348.452 50.3999 349.64 49.8119 350.864 49.2119L351.836 52.4519C350.828 53.0999 349.784 53.7479 348.704 54.3959C347.624 55.0439 346.58 55.6559 345.572 56.2319L344.348 52.3439Z" fill="white"/>
<path d="M322.668 60.768H336.672V64.728H322.668V60.768ZM320.652 51.156H338.832V66.096H334.44V55.116H324.864V66.204H320.652V51.156ZM317.7 44.388C319.428 44.316 321.42 44.22 323.676 44.1C325.956 43.98 328.356 43.848 330.876 43.704C333.396 43.56 335.892 43.428 338.364 43.308L338.328 47.268C335.952 47.46 333.552 47.652 331.128 47.844C328.728 48.012 326.412 48.18 324.18 48.348C321.972 48.492 319.98 48.624 318.204 48.744L317.7 44.388ZM331.164 39.456L334.944 37.584C335.904 38.64 336.84 39.804 337.752 41.076C338.688 42.324 339.54 43.56 340.308 44.784C341.076 46.008 341.676 47.124 342.108 48.132L338.112 50.364C337.704 49.356 337.116 48.216 336.348 46.944C335.604 45.648 334.776 44.352 333.864 43.056C332.976 41.736 332.076 40.536 331.164 39.456ZM325.44 32.364L330.444 33.444C329.868 35.004 329.22 36.6 328.5 38.232C327.804 39.864 327.096 41.424 326.376 42.912C325.68 44.4 325.008 45.72 324.36 46.872L320.472 45.72C320.952 44.808 321.42 43.812 321.876 42.732C322.356 41.628 322.812 40.476 323.244 39.276C323.7 38.076 324.12 36.888 324.504 35.712C324.888 34.512 325.2 33.396 325.44 32.364ZM310.104 35.748L312.48 32.508C313.248 32.772 314.064 33.12 314.928 33.552C315.816 33.96 316.656 34.392 317.448 34.848C318.24 35.28 318.888 35.712 319.392 36.144L316.836 39.78C316.38 39.348 315.768 38.892 315 38.412C314.256 37.908 313.452 37.428 312.588 36.972C311.724 36.492 310.896 36.084 310.104 35.748ZM307.908 45.576L310.284 42.264C311.076 42.528 311.904 42.852 312.768 43.236C313.656 43.62 314.496 44.028 315.288 44.46C316.104 44.892 316.776 45.312 317.304 45.72L314.748 49.392C314.292 48.96 313.668 48.516 312.876 48.06C312.108 47.58 311.292 47.124 310.428 46.692C309.564 46.236 308.724 45.864 307.908 45.576ZM309.132 62.892C309.756 61.98 310.452 60.9 311.22 59.652C312.012 58.404 312.804 57.084 313.596 55.692C314.388 54.3 315.144 52.908 315.864 51.516L319.068 54.36C318.468 55.608 317.82 56.892 317.124 58.212C316.428 59.532 315.72 60.828 315 62.1C314.28 63.372 313.56 64.596 312.84 65.772L309.132 62.892Z" fill="white"/>
<path d="M291.376 38.3401C291.136 40.1641 290.824 42.1081 290.44 44.1721C290.056 46.2361 289.54 48.3241 288.892 50.4361C288.196 52.8601 287.38 54.9481 286.444 56.7001C285.508 58.4521 284.476 59.8081 283.348 60.7681C282.244 61.7041 281.032 62.1721 279.712 62.1721C278.392 62.1721 277.168 61.7281 276.04 60.8401C274.936 59.9281 274.048 58.6801 273.376 57.0961C272.728 55.5121 272.404 53.7121 272.404 51.6961C272.404 49.6081 272.824 47.6401 273.664 45.7921C274.504 43.9441 275.668 42.3121 277.156 40.8961C278.668 39.4561 280.42 38.3281 282.412 37.5121C284.428 36.6961 286.6 36.2881 288.928 36.2881C291.16 36.2881 293.164 36.6481 294.94 37.3681C296.74 38.0881 298.276 39.0841 299.548 40.3561C300.82 41.6281 301.792 43.1161 302.464 44.8201C303.136 46.5241 303.472 48.3601 303.472 50.3281C303.472 52.8481 302.956 55.1041 301.924 57.0961C300.892 59.0881 299.356 60.7321 297.316 62.0281C295.3 63.3241 292.78 64.2121 289.756 64.6921L287.056 60.4081C287.752 60.3361 288.364 60.2521 288.892 60.1561C289.42 60.0601 289.924 59.9521 290.404 59.8321C291.556 59.5441 292.624 59.1361 293.608 58.6081C294.616 58.0561 295.492 57.3841 296.236 56.5921C296.98 55.7761 297.556 54.8281 297.964 53.7481C298.396 52.6681 298.612 51.4801 298.612 50.1841C298.612 48.7681 298.396 47.4721 297.964 46.2961C297.532 45.1201 296.896 44.1001 296.056 43.2361C295.216 42.3481 294.196 41.6761 292.996 41.2201C291.796 40.7401 290.416 40.5001 288.856 40.5001C286.936 40.5001 285.244 40.8481 283.78 41.5441C282.316 42.2161 281.08 43.0921 280.072 44.1721C279.064 45.2521 278.296 46.4161 277.768 47.6641C277.264 48.9121 277.012 50.1001 277.012 51.2281C277.012 52.4281 277.156 53.4361 277.444 54.2521C277.732 55.0441 278.08 55.6441 278.488 56.0521C278.92 56.4361 279.376 56.6281 279.856 56.6281C280.36 56.6281 280.852 56.3761 281.332 55.8721C281.836 55.3441 282.328 54.5521 282.808 53.4961C283.288 52.4401 283.768 51.1081 284.248 49.5001C284.8 47.7721 285.268 45.9241 285.652 43.9561C286.036 41.9881 286.312 40.0681 286.48 38.1961L291.376 38.3401Z" fill="white"/>
<path d="M254.072 36.252C253.904 36.492 253.712 36.768 253.496 37.08C253.304 37.368 253.112 37.656 252.92 37.9439C252.488 38.5919 252.008 39.348 251.48 40.212C250.976 41.052 250.448 41.9519 249.896 42.912C249.344 43.8479 248.804 44.7839 248.276 45.72C247.772 46.656 247.292 47.5199 246.836 48.3119C247.508 47.9279 248.192 47.652 248.888 47.484C249.584 47.316 250.28 47.2319 250.976 47.2319C252.32 47.2319 253.376 47.64 254.144 48.456C254.936 49.248 255.368 50.3999 255.44 51.9119C255.464 52.4399 255.476 53.076 255.476 53.82C255.476 54.564 255.476 55.3079 255.476 56.0519C255.5 56.7959 255.536 57.42 255.584 57.924C255.656 58.62 255.908 59.124 256.34 59.436C256.796 59.724 257.324 59.868 257.924 59.868C258.692 59.868 259.388 59.6399 260.012 59.1839C260.66 58.7279 261.236 58.104 261.74 57.312C262.244 56.496 262.676 55.584 263.036 54.576C263.42 53.544 263.744 52.476 264.008 51.372L267.896 54.54C267.272 56.58 266.48 58.3799 265.52 59.9399C264.56 61.4759 263.384 62.664 261.992 63.504C260.624 64.368 259.016 64.7999 257.168 64.7999C255.848 64.7999 254.744 64.56 253.856 64.08C252.968 63.624 252.308 63.0239 251.876 62.2799C251.444 61.5119 251.204 60.684 251.156 59.796C251.108 59.148 251.072 58.428 251.048 57.636C251.048 56.844 251.036 56.076 251.012 55.332C251.012 54.564 250.988 53.9399 250.94 53.4599C250.892 52.8359 250.688 52.344 250.328 51.984C249.968 51.624 249.464 51.444 248.816 51.444C248.024 51.444 247.268 51.696 246.548 52.2C245.828 52.704 245.168 53.364 244.568 54.18C243.992 54.996 243.488 55.896 243.056 56.88C242.816 57.408 242.564 58.0319 242.3 58.7519C242.036 59.4719 241.784 60.216 241.544 60.984C241.304 61.752 241.076 62.472 240.86 63.144C240.644 63.84 240.464 64.428 240.32 64.908L235.244 63.18C235.7 61.98 236.252 60.612 236.9 59.076C237.572 57.516 238.304 55.884 239.096 54.18C239.888 52.476 240.692 50.784 241.508 49.104C242.324 47.424 243.104 45.84 243.848 44.352C244.592 42.84 245.252 41.532 245.828 40.428C246.428 39.3 246.884 38.448 247.196 37.872C247.436 37.392 247.712 36.8519 248.024 36.252C248.336 35.652 248.648 34.968 248.96 34.2L254.072 36.252Z" fill="white"/>
<path d="M212.88 34.812C212.784 35.268 212.676 35.772 212.556 36.324C212.436 36.852 212.328 37.344 212.232 37.8C212.136 38.328 212.016 38.928 211.872 39.6C211.728 40.248 211.584 40.908 211.44 41.58C211.32 42.228 211.188 42.864 211.044 43.488C210.804 44.52 210.504 45.72 210.144 47.088C209.784 48.456 209.364 49.932 208.884 51.516C208.404 53.076 207.864 54.648 207.264 56.232C206.664 57.816 206.028 59.364 205.356 60.876C204.684 62.364 203.964 63.708 203.196 64.908L198.516 63.036C199.356 61.908 200.136 60.648 200.856 59.256C201.6 57.84 202.272 56.4 202.872 54.936C203.472 53.448 204 51.984 204.456 50.544C204.936 49.08 205.344 47.724 205.68 46.476C206.04 45.228 206.316 44.16 206.508 43.272C206.844 41.64 207.108 40.068 207.3 38.556C207.492 37.044 207.564 35.616 207.516 34.272L212.88 34.812ZM225.264 38.448C225.84 39.24 226.428 40.212 227.028 41.364C227.652 42.492 228.264 43.692 228.864 44.964C229.464 46.236 230.004 47.46 230.484 48.636C230.964 49.812 231.336 50.832 231.6 51.696L227.028 53.784C226.812 52.776 226.488 51.66 226.056 50.436C225.648 49.212 225.168 47.976 224.616 46.728C224.064 45.456 223.476 44.256 222.852 43.128C222.252 42 221.628 41.052 220.98 40.284L225.264 38.448ZM198.264 42.192C198.912 42.24 199.548 42.264 200.172 42.264C200.82 42.24 201.468 42.216 202.116 42.192C202.716 42.168 203.436 42.132 204.276 42.084C205.116 42.012 206.004 41.94 206.94 41.868C207.9 41.796 208.86 41.724 209.82 41.652C210.78 41.556 211.668 41.484 212.484 41.436C213.3 41.388 213.972 41.364 214.5 41.364C215.796 41.364 216.924 41.58 217.884 42.012C218.844 42.42 219.6 43.128 220.152 44.136C220.728 45.144 221.016 46.512 221.016 48.24C221.016 49.656 220.956 51.192 220.836 52.848C220.716 54.504 220.5 56.088 220.188 57.6C219.9 59.112 219.492 60.396 218.964 61.452C218.388 62.7 217.596 63.564 216.588 64.044C215.604 64.524 214.428 64.764 213.06 64.764C212.388 64.764 211.656 64.704 210.864 64.584C210.072 64.488 209.364 64.38 208.74 64.26L207.984 59.508C208.44 59.628 208.944 59.748 209.496 59.868C210.072 59.988 210.612 60.084 211.116 60.156C211.644 60.228 212.064 60.264 212.376 60.264C212.976 60.264 213.504 60.156 213.96 59.94C214.416 59.7 214.788 59.292 215.076 58.716C215.412 58.02 215.688 57.12 215.904 56.016C216.12 54.912 216.276 53.724 216.372 52.452C216.492 51.156 216.552 49.92 216.552 48.744C216.552 47.784 216.408 47.076 216.12 46.62C215.856 46.164 215.46 45.864 214.932 45.72C214.428 45.552 213.804 45.468 213.06 45.468C212.508 45.468 211.764 45.516 210.828 45.612C209.892 45.684 208.884 45.78 207.804 45.9C206.748 45.996 205.764 46.104 204.852 46.224C203.94 46.344 203.232 46.428 202.728 46.476C202.2 46.572 201.528 46.68 200.712 46.8C199.92 46.896 199.248 46.992 198.696 47.088L198.264 42.192ZM224.616 33.444C224.928 33.876 225.252 34.392 225.588 34.992C225.948 35.592 226.296 36.192 226.632 36.792C226.968 37.392 227.256 37.92 227.496 38.376L224.58 39.636C224.34 39.132 224.064 38.58 223.752 37.98C223.44 37.38 223.116 36.78 222.78 36.18C222.444 35.58 222.108 35.064 221.772 34.632L224.616 33.444ZM228.9 31.824C229.212 32.28 229.548 32.808 229.908 33.408C230.268 34.008 230.616 34.608 230.952 35.208C231.312 35.808 231.588 36.312 231.78 36.72L228.936 37.944C228.552 37.2 228.096 36.36 227.568 35.424C227.04 34.464 226.524 33.648 226.02 32.976L228.9 31.824Z" fill="white"/>
<path d="M518.564 115.748L517.592 103.436L517.412 98.072H523.388L523.208 103.436L522.236 115.748H518.564ZM520.4 125.324C519.488 125.324 518.732 125.024 518.132 124.424C517.532 123.824 517.232 123.068 517.232 122.156C517.232 121.22 517.532 120.452 518.132 119.852C518.732 119.252 519.488 118.952 520.4 118.952C521.312 118.952 522.068 119.252 522.668 119.852C523.268 120.452 523.568 121.22 523.568 122.156C523.568 123.068 523.268 123.824 522.668 124.424C522.068 125.024 521.312 125.324 520.4 125.324Z" fill="#4AA9D5"/>
<path d="M481.728 99.8359C482.832 99.9799 484.068 100.088 485.436 100.16C486.828 100.208 488.232 100.232 489.648 100.232C491.088 100.208 492.468 100.16 493.788 100.088C495.108 99.9919 496.248 99.8959 497.208 99.7999V104.444C496.104 104.54 494.892 104.624 493.572 104.696C492.252 104.744 490.896 104.768 489.504 104.768C488.112 104.768 486.744 104.744 485.4 104.696C484.08 104.624 482.856 104.54 481.728 104.444V99.8359ZM484.608 115.208C484.464 115.808 484.356 116.348 484.284 116.828C484.212 117.284 484.176 117.752 484.176 118.232C484.176 118.616 484.272 118.976 484.464 119.312C484.656 119.624 484.944 119.9 485.328 120.14C485.736 120.356 486.252 120.524 486.876 120.644C487.524 120.74 488.304 120.788 489.216 120.788C490.824 120.788 492.336 120.716 493.752 120.572C495.168 120.404 496.668 120.164 498.252 119.852L498.324 124.712C497.172 124.928 495.84 125.096 494.328 125.216C492.84 125.336 491.076 125.396 489.036 125.396C485.94 125.396 483.636 124.88 482.124 123.848C480.612 122.792 479.856 121.34 479.856 119.492C479.856 118.796 479.904 118.076 480 117.332C480.12 116.564 480.276 115.724 480.468 114.812L484.608 115.208ZM476.184 97.4239C476.088 97.6639 475.98 97.9999 475.86 98.4319C475.74 98.8639 475.62 99.2839 475.5 99.6919C475.404 100.1 475.332 100.412 475.284 100.628C475.212 101.132 475.092 101.792 474.924 102.608C474.78 103.4 474.624 104.3 474.456 105.308C474.312 106.292 474.168 107.3 474.024 108.332C473.88 109.364 473.76 110.36 473.664 111.32C473.592 112.28 473.556 113.12 473.556 113.84C473.556 114.176 473.556 114.56 473.556 114.992C473.58 115.424 473.628 115.82 473.7 116.18C473.868 115.772 474.048 115.364 474.24 114.956C474.432 114.548 474.624 114.14 474.816 113.732C475.008 113.3 475.176 112.892 475.32 112.508L477.552 114.272C477.216 115.256 476.868 116.312 476.508 117.44C476.172 118.568 475.86 119.636 475.572 120.644C475.308 121.628 475.104 122.444 474.96 123.092C474.912 123.356 474.864 123.656 474.816 123.992C474.792 124.328 474.78 124.592 474.78 124.784C474.78 124.976 474.78 125.204 474.78 125.468C474.804 125.756 474.828 126.02 474.852 126.26L470.676 126.548C470.316 125.3 469.992 123.644 469.704 121.58C469.416 119.492 469.272 117.224 469.272 114.776C469.272 113.432 469.332 112.064 469.452 110.672C469.572 109.28 469.716 107.948 469.884 106.676C470.052 105.38 470.208 104.204 470.352 103.148C470.52 102.092 470.664 101.216 470.784 100.52C470.832 100.016 470.892 99.4519 470.964 98.8279C471.06 98.1799 471.12 97.5679 471.144 96.9919L476.184 97.4239Z" fill="#4AA9D5"/>
<path d="M445.64 129.048H431.032V124.296H440.404V100.932H445.64V129.048Z" fill="#4AA9D5"/>
<path d="M411.488 87.8201H416.636V94.7721H411.488V87.8201ZM401.676 92.4401H427.196V101.152H422.312V96.9281H406.34V101.152H401.676V92.4401ZM404.932 100.492H423.808V105.024H404.932V100.492ZM402.292 108.236H426.976V112.944H402.292V108.236ZM407.264 110.48H412.28C412.192 112.856 411.986 115.012 411.664 116.948C411.37 118.855 410.842 120.571 410.08 122.096C409.346 123.592 408.261 124.897 406.824 126.012C405.386 127.156 403.494 128.124 401.148 128.916C401.001 128.476 400.766 127.992 400.444 127.464C400.15 126.965 399.813 126.467 399.432 125.968C399.05 125.469 398.684 125.073 398.332 124.78C400.326 124.193 401.91 123.475 403.084 122.624C404.257 121.773 405.122 120.776 405.68 119.632C406.266 118.459 406.662 117.124 406.868 115.628C407.073 114.103 407.205 112.387 407.264 110.48ZM415.404 109.952H420.332V122.448C420.332 123.123 420.361 123.533 420.42 123.68C420.508 123.827 420.713 123.9 421.036 123.9C421.124 123.9 421.27 123.9 421.476 123.9C421.681 123.9 421.872 123.9 422.048 123.9C422.253 123.9 422.414 123.9 422.532 123.9C422.737 123.9 422.898 123.783 423.016 123.548C423.162 123.313 423.265 122.829 423.324 122.096C423.382 121.333 423.426 120.204 423.456 118.708C423.778 118.972 424.189 119.236 424.688 119.5C425.216 119.764 425.758 119.999 426.316 120.204C426.902 120.409 427.401 120.571 427.812 120.688C427.694 122.741 427.445 124.34 427.064 125.484C426.712 126.628 426.213 127.42 425.568 127.86C424.952 128.329 424.116 128.564 423.06 128.564C422.884 128.564 422.664 128.564 422.4 128.564C422.136 128.564 421.857 128.564 421.564 128.564C421.3 128.564 421.036 128.564 420.772 128.564C420.508 128.564 420.288 128.564 420.112 128.564C418.85 128.564 417.868 128.373 417.164 127.992C416.489 127.611 416.02 126.965 415.756 126.056C415.521 125.176 415.404 123.988 415.404 122.492V109.952ZM388.124 89.4921H398.508V94.2441H392.744V128.96H388.124V89.4921ZM396.924 89.4921H397.76L398.508 89.3161L401.94 91.2961C401.588 92.5281 401.192 93.8627 400.752 95.3001C400.312 96.7374 399.857 98.1454 399.388 99.5241C398.948 100.903 398.522 102.164 398.112 103.308C399.461 104.98 400.341 106.564 400.752 108.06C401.162 109.556 401.368 110.949 401.368 112.24C401.368 113.648 401.206 114.821 400.884 115.76C400.59 116.699 400.092 117.417 399.388 117.916C399.036 118.151 398.64 118.341 398.2 118.488C397.789 118.635 397.349 118.752 396.88 118.84C396.058 118.928 395.09 118.957 393.976 118.928C393.946 118.312 393.829 117.564 393.624 116.684C393.448 115.804 393.184 115.056 392.832 114.44C393.242 114.469 393.594 114.484 393.888 114.484C394.21 114.484 394.504 114.484 394.768 114.484C395.296 114.455 395.706 114.323 396 114.088C396.264 113.883 396.44 113.575 396.528 113.164C396.645 112.724 396.704 112.196 396.704 111.58C396.704 110.553 396.498 109.38 396.088 108.06C395.706 106.74 394.9 105.347 393.668 103.88C393.961 102.883 394.254 101.797 394.548 100.624C394.87 99.4214 395.178 98.2187 395.472 97.0161C395.794 95.8134 396.073 94.6987 396.308 93.6721C396.572 92.6161 396.777 91.7361 396.924 91.0321V89.4921Z" fill="#4AA9D5"/>
<path d="M352.3 104.76V120.996H347.24V109.644H341.608V104.76H352.3ZM352.3 118.884C353.18 120.38 354.382 121.465 355.908 122.14C357.462 122.815 359.354 123.196 361.584 123.284C362.904 123.343 364.488 123.387 366.336 123.416C368.184 123.416 370.12 123.401 372.144 123.372C374.197 123.343 376.206 123.299 378.172 123.24C380.137 123.152 381.882 123.035 383.408 122.888C383.202 123.269 382.982 123.783 382.748 124.428C382.542 125.044 382.352 125.675 382.176 126.32C382 126.965 381.853 127.537 381.736 128.036C380.386 128.124 378.832 128.183 377.072 128.212C375.312 128.241 373.493 128.256 371.616 128.256C369.738 128.285 367.92 128.285 366.16 128.256C364.429 128.256 362.889 128.227 361.54 128.168C358.9 128.051 356.656 127.625 354.808 126.892C352.989 126.159 351.42 124.941 350.1 123.24C349.073 124.12 348.017 124.985 346.932 125.836C345.876 126.716 344.732 127.625 343.5 128.564L341.036 123.284C342.092 122.697 343.206 122.023 344.38 121.26C345.553 120.497 346.668 119.705 347.724 118.884H352.3ZM342.268 91.9119L345.876 88.5239C346.814 89.1399 347.768 89.8586 348.736 90.6799C349.733 91.4719 350.672 92.2786 351.552 93.0999C352.432 93.8919 353.121 94.6399 353.62 95.3439L349.66 99.1279C349.22 98.4239 348.589 97.6466 347.768 96.7959C346.946 95.9453 346.052 95.0946 345.084 94.2439C344.116 93.3639 343.177 92.5866 342.268 91.9119ZM360.044 96.1799L363.432 93.3639C364.722 93.8039 366.145 94.3466 367.7 94.9919C369.254 95.6079 370.75 96.2533 372.188 96.9279C373.654 97.6026 374.872 98.2186 375.84 98.7759L372.232 101.944C371.352 101.357 370.208 100.727 368.8 100.052C367.421 99.3773 365.954 98.7026 364.4 98.0279C362.845 97.3239 361.393 96.7079 360.044 96.1799ZM356.084 98.6439H378.48V102.472H361.012V121.436H356.084V98.6439ZM376.016 98.6439H381.032V116.904C381.032 117.989 380.9 118.84 380.636 119.456C380.401 120.043 379.932 120.512 379.228 120.864C378.553 121.216 377.717 121.436 376.72 121.524C375.752 121.583 374.608 121.612 373.288 121.612C373.17 120.967 372.98 120.263 372.716 119.5C372.481 118.708 372.232 118.019 371.968 117.432C372.642 117.461 373.317 117.476 373.992 117.476C374.666 117.476 375.121 117.476 375.356 117.476C375.59 117.476 375.752 117.432 375.84 117.344C375.957 117.227 376.016 117.051 376.016 116.816V98.6439ZM356.48 89.0959H377.424V93.0999H356.48V89.0959ZM358.812 104.848H377.732V108.544H358.812V104.848ZM358.812 111.008H377.732V114.836H358.812V111.008ZM366.072 100.448H370.78V121.26H366.072V100.448ZM375.532 89.0959H376.764L377.776 88.8319L380.9 91.3399C379.873 92.3079 378.714 93.2906 377.424 94.2879C376.162 95.2853 374.842 96.2239 373.464 97.1039C372.085 97.9546 370.721 98.7026 369.372 99.3479C369.078 98.9079 368.653 98.3946 368.096 97.8079C367.568 97.2213 367.128 96.7519 366.776 96.3999C367.89 95.8719 369.005 95.2413 370.12 94.5079C371.264 93.7453 372.305 92.9679 373.244 92.1759C374.212 91.3839 374.974 90.6653 375.532 90.0199V89.0959Z" fill="#4AA9D5"/>
<path d="M323.56 87.512H338.168V92.264H328.796V115.628H323.56V87.512Z" fill="#4AA9D5"/>
<path d="M281.624 96.02C282.488 96.284 283.568 96.56 284.864 96.848C286.16 97.136 287.516 97.424 288.932 97.712C290.348 97.976 291.68 98.204 292.928 98.396C294.2 98.588 295.232 98.732 296.024 98.828L294.944 103.22C294.224 103.124 293.348 102.992 292.316 102.824C291.308 102.632 290.228 102.428 289.076 102.212C287.948 101.996 286.832 101.78 285.728 101.564C284.624 101.324 283.616 101.096 282.704 100.88C281.792 100.664 281.048 100.484 280.472 100.34L281.624 96.02ZM281.84 103.256C281.72 103.736 281.588 104.36 281.444 105.128C281.324 105.872 281.204 106.652 281.084 107.468C280.964 108.284 280.844 109.064 280.724 109.808C280.628 110.552 280.544 111.176 280.472 111.68C282.104 110.504 283.808 109.64 285.584 109.088C287.384 108.536 289.22 108.26 291.092 108.26C293.204 108.26 295.004 108.644 296.492 109.412C297.98 110.18 299.108 111.188 299.876 112.436C300.668 113.684 301.064 115.04 301.064 116.504C301.064 118.136 300.716 119.648 300.02 121.04C299.324 122.432 298.184 123.62 296.6 124.604C295.016 125.588 292.94 126.284 290.372 126.692C287.804 127.1 284.648 127.148 280.904 126.836L279.536 122.12C283.136 122.6 286.16 122.672 288.608 122.336C291.056 121.976 292.904 121.28 294.152 120.248C295.424 119.192 296.06 117.908 296.06 116.396C296.06 115.604 295.832 114.908 295.376 114.308C294.92 113.684 294.284 113.204 293.468 112.868C292.652 112.508 291.728 112.328 290.696 112.328C288.68 112.328 286.784 112.7 285.008 113.444C283.256 114.164 281.816 115.208 280.688 116.576C280.376 116.96 280.112 117.32 279.896 117.656C279.704 117.968 279.524 118.304 279.356 118.664L275.216 117.62C275.36 116.924 275.504 116.108 275.648 115.172C275.792 114.212 275.936 113.192 276.08 112.112C276.224 111.008 276.356 109.904 276.476 108.8C276.596 107.696 276.704 106.604 276.8 105.524C276.896 104.444 276.968 103.46 277.016 102.572L281.84 103.256Z" fill="#4AA9D5"/>
<path d="M249.432 96.56C249.312 97.016 249.192 97.52 249.072 98.072C248.976 98.6 248.88 99.092 248.784 99.548C248.688 100.076 248.568 100.676 248.424 101.348C248.28 101.996 248.136 102.656 247.992 103.328C247.872 103.976 247.74 104.612 247.596 105.236C247.356 106.268 247.056 107.468 246.696 108.836C246.336 110.204 245.916 111.68 245.436 113.264C244.956 114.824 244.416 116.396 243.816 117.98C243.216 119.564 242.58 121.112 241.908 122.624C241.236 124.112 240.516 125.456 239.748 126.656L235.068 124.784C235.908 123.656 236.688 122.396 237.408 121.004C238.152 119.588 238.824 118.136 239.424 116.648C240.024 115.16 240.552 113.696 241.008 112.256C241.488 110.816 241.896 109.472 242.232 108.224C242.568 106.976 242.832 105.908 243.024 105.02C243.36 103.388 243.624 101.816 243.816 100.304C244.008 98.792 244.092 97.364 244.068 96.02L249.432 96.56ZM261.816 99.944C262.392 100.712 262.98 101.684 263.58 102.86C264.204 104.012 264.804 105.236 265.38 106.532C265.98 107.828 266.52 109.076 267 110.276C267.504 111.476 267.888 112.496 268.152 113.336L263.58 115.46C263.34 114.452 263.004 113.336 262.572 112.112C262.164 110.864 261.684 109.604 261.132 108.332C260.604 107.036 260.028 105.812 259.404 104.66C258.804 103.508 258.18 102.548 257.532 101.78L261.816 99.944ZM234.816 103.94C235.464 103.988 236.1 104.012 236.724 104.012C237.348 103.988 237.996 103.964 238.668 103.94C239.244 103.916 239.952 103.88 240.792 103.832C241.656 103.76 242.556 103.688 243.492 103.616C244.452 103.544 245.412 103.472 246.372 103.4C247.332 103.304 248.22 103.232 249.036 103.184C249.852 103.136 250.524 103.112 251.052 103.112C252.324 103.112 253.44 103.328 254.4 103.76C255.384 104.168 256.152 104.876 256.704 105.884C257.28 106.892 257.568 108.26 257.568 109.988C257.568 111.404 257.496 112.94 257.352 114.596C257.232 116.252 257.028 117.836 256.74 119.348C256.452 120.86 256.044 122.144 255.516 123.2C254.94 124.448 254.148 125.312 253.14 125.792C252.156 126.272 250.98 126.512 249.612 126.512C248.916 126.512 248.172 126.452 247.38 126.332C246.612 126.236 245.916 126.128 245.292 126.008L244.5 121.256C244.98 121.376 245.496 121.496 246.048 121.616C246.624 121.736 247.164 121.832 247.668 121.904C248.196 121.976 248.616 122.012 248.928 122.012C249.528 122.012 250.056 121.904 250.512 121.688C250.968 121.448 251.34 121.04 251.628 120.464C251.964 119.768 252.228 118.868 252.42 117.764C252.636 116.66 252.792 115.472 252.888 114.2C253.008 112.904 253.068 111.668 253.068 110.492C253.068 109.532 252.936 108.824 252.672 108.368C252.408 107.912 252.012 107.612 251.484 107.468C250.98 107.3 250.344 107.216 249.576 107.216C249.048 107.216 248.304 107.264 247.344 107.36C246.408 107.432 245.412 107.528 244.356 107.648C243.3 107.744 242.304 107.852 241.368 107.972C240.456 108.092 239.748 108.176 239.244 108.224C238.74 108.32 238.08 108.428 237.264 108.548C236.472 108.644 235.8 108.74 235.248 108.836L234.816 103.94Z" fill="#4AA9D5"/>
<path d="M214.84 129.048H200.232V124.296H209.604V100.932H214.84V129.048Z" fill="#4AA9D5"/>
<path d="M180.688 87.8201H185.836V94.7721H180.688V87.8201ZM170.876 92.4401H196.396V101.152H191.512V96.9281H175.54V101.152H170.876V92.4401ZM174.132 100.492H193.008V105.024H174.132V100.492ZM171.492 108.236H196.176V112.944H171.492V108.236ZM176.464 110.48H181.48C181.392 112.856 181.186 115.012 180.864 116.948C180.57 118.855 180.042 120.571 179.28 122.096C178.546 123.592 177.461 124.897 176.024 126.012C174.586 127.156 172.694 128.124 170.348 128.916C170.201 128.476 169.966 127.992 169.644 127.464C169.35 126.965 169.013 126.467 168.632 125.968C168.25 125.469 167.884 125.073 167.532 124.78C169.526 124.193 171.11 123.475 172.284 122.624C173.457 121.773 174.322 120.776 174.88 119.632C175.466 118.459 175.862 117.124 176.068 115.628C176.273 114.103 176.405 112.387 176.464 110.48ZM184.604 109.952H189.532V122.448C189.532 123.123 189.561 123.533 189.62 123.68C189.708 123.827 189.913 123.9 190.236 123.9C190.324 123.9 190.47 123.9 190.676 123.9C190.881 123.9 191.072 123.9 191.248 123.9C191.453 123.9 191.614 123.9 191.732 123.9C191.937 123.9 192.098 123.783 192.216 123.548C192.362 123.313 192.465 122.829 192.524 122.096C192.582 121.333 192.626 120.204 192.656 118.708C192.978 118.972 193.389 119.236 193.888 119.5C194.416 119.764 194.958 119.999 195.516 120.204C196.102 120.409 196.601 120.571 197.012 120.688C196.894 122.741 196.645 124.34 196.264 125.484C195.912 126.628 195.413 127.42 194.768 127.86C194.152 128.329 193.316 128.564 192.26 128.564C192.084 128.564 191.864 128.564 191.6 128.564C191.336 128.564 191.057 128.564 190.764 128.564C190.5 128.564 190.236 128.564 189.972 128.564C189.708 128.564 189.488 128.564 189.312 128.564C188.05 128.564 187.068 128.373 186.364 127.992C185.689 127.611 185.22 126.965 184.956 126.056C184.721 125.176 184.604 123.988 184.604 122.492V109.952ZM157.324 89.4921H167.708V94.2441H161.944V128.96H157.324V89.4921ZM166.124 89.4921H166.96L167.708 89.3161L171.14 91.2961C170.788 92.5281 170.392 93.8627 169.952 95.3001C169.512 96.7374 169.057 98.1454 168.588 99.5241C168.148 100.903 167.722 102.164 167.312 103.308C168.661 104.98 169.541 106.564 169.952 108.06C170.362 109.556 170.568 110.949 170.568 112.24C170.568 113.648 170.406 114.821 170.084 115.76C169.79 116.699 169.292 117.417 168.588 117.916C168.236 118.151 167.84 118.341 167.4 118.488C166.989 118.635 166.549 118.752 166.08 118.84C165.258 118.928 164.29 118.957 163.176 118.928C163.146 118.312 163.029 117.564 162.824 116.684C162.648 115.804 162.384 115.056 162.032 114.44C162.442 114.469 162.794 114.484 163.088 114.484C163.41 114.484 163.704 114.484 163.968 114.484C164.496 114.455 164.906 114.323 165.2 114.088C165.464 113.883 165.64 113.575 165.728 113.164C165.845 112.724 165.904 112.196 165.904 111.58C165.904 110.553 165.698 109.38 165.288 108.06C164.906 106.74 164.1 105.347 162.868 103.88C163.161 102.883 163.454 101.797 163.748 100.624C164.07 99.4214 164.378 98.2187 164.672 97.0161C164.994 95.8134 165.273 94.6987 165.508 93.6721C165.772 92.6161 165.977 91.7361 166.124 91.0321V89.4921Z" fill="#4AA9D5"/>
<path d="M119.476 90.064H131.972V95.432H119.476V90.064ZM129.376 90.064H134.832C134.832 91.472 134.891 93.0706 135.008 94.86C135.125 96.62 135.375 98.512 135.756 100.536C136.137 102.531 136.709 104.584 137.472 106.696C138.235 108.808 139.247 110.905 140.508 112.988C141.799 115.041 143.412 117.021 145.348 118.928C147.284 120.835 149.601 122.595 152.3 124.208C151.919 124.501 151.449 124.927 150.892 125.484C150.335 126.041 149.792 126.613 149.264 127.2C148.765 127.816 148.355 128.359 148.032 128.828C145.275 127.127 142.884 125.22 140.86 123.108C138.836 120.967 137.135 118.708 135.756 116.332C134.377 113.927 133.263 111.507 132.412 109.072C131.561 106.608 130.916 104.217 130.476 101.9C130.036 99.5533 129.743 97.368 129.596 95.344C129.449 93.32 129.376 91.56 129.376 90.064ZM127.484 99.744L133.512 100.844C132.515 105.185 131.18 109.131 129.508 112.68C127.836 116.229 125.827 119.353 123.48 122.052C121.163 124.751 118.479 127.024 115.428 128.872C115.105 128.491 114.651 128.021 114.064 127.464C113.477 126.936 112.861 126.393 112.216 125.836C111.6 125.308 111.057 124.883 110.588 124.56C115.193 122.243 118.86 118.987 121.588 114.792C124.316 110.568 126.281 105.552 127.484 99.744Z" fill="#4AA9D5"/>
<path d="M92.7598 87.512H107.368V92.264H97.9958V115.628H92.7598V87.512Z" fill="#4AA9D5"/>
<path d="M389.576 40.8959C390.608 40.9919 391.64 41.0759 392.672 41.1479C393.728 41.1959 394.796 41.2199 395.876 41.2199C398.084 41.2199 400.28 41.1239 402.464 40.9319C404.648 40.7399 406.664 40.4399 408.512 40.0319V44.5319C406.64 44.7959 404.612 45.0119 402.428 45.1799C400.244 45.3239 398.06 45.3959 395.876 45.3959C394.82 45.3959 393.764 45.3839 392.708 45.3599C391.676 45.3119 390.632 45.2519 389.576 45.1799V40.8959ZM403.256 34.8119C403.208 35.1479 403.16 35.5199 403.112 35.9279C403.088 36.3359 403.064 36.7439 403.04 37.1519C403.016 37.5359 402.992 38.0519 402.968 38.6999C402.944 39.3479 402.932 40.0799 402.932 40.8959C402.932 41.6879 402.932 42.5279 402.932 43.4159C402.932 45.0479 402.956 46.5839 403.004 48.0239C403.052 49.4399 403.112 50.7599 403.184 51.9839C403.256 53.1839 403.316 54.2879 403.364 55.2959C403.436 56.3039 403.472 57.2399 403.472 58.1039C403.472 59.0399 403.34 59.9039 403.076 60.6959C402.836 61.4879 402.44 62.1839 401.888 62.7839C401.336 63.3839 400.604 63.8399 399.692 64.1519C398.804 64.4879 397.712 64.6559 396.416 64.6559C393.92 64.6559 391.952 64.1519 390.512 63.1439C389.072 62.1359 388.352 60.6839 388.352 58.7879C388.352 57.5639 388.676 56.4959 389.324 55.5839C389.972 54.6479 390.896 53.9279 392.096 53.4239C393.296 52.8959 394.712 52.6319 396.344 52.6319C398.048 52.6319 399.596 52.8119 400.988 53.1719C402.38 53.5319 403.652 54.0119 404.804 54.6119C405.956 55.2119 406.976 55.8719 407.864 56.5919C408.776 57.2879 409.592 57.9599 410.312 58.6079L407.828 62.3879C406.46 61.0919 405.128 59.9759 403.832 59.0399C402.536 58.1039 401.24 57.3839 399.944 56.8799C398.672 56.3759 397.352 56.1239 395.984 56.1239C394.976 56.1239 394.148 56.3159 393.5 56.6999C392.876 57.0839 392.564 57.6239 392.564 58.3199C392.564 59.0399 392.888 59.5679 393.536 59.9039C394.184 60.2399 394.976 60.4079 395.912 60.4079C396.656 60.4079 397.244 60.2879 397.676 60.0479C398.108 59.7839 398.408 59.4119 398.576 58.9319C398.768 58.4279 398.864 57.8279 398.864 57.1319C398.864 56.5079 398.84 55.6919 398.792 54.6839C398.744 53.6759 398.684 52.5479 398.612 51.2999C398.564 50.0519 398.516 48.7559 398.468 47.4119C398.42 46.0439 398.396 44.7119 398.396 43.4159C398.396 42.0479 398.384 40.8119 398.36 39.7079C398.36 38.5799 398.36 37.7399 398.36 37.1879C398.36 36.9239 398.336 36.5519 398.288 36.0719C398.24 35.5919 398.18 35.1719 398.108 34.8119H403.256ZM385.688 35.2079C385.616 35.4479 385.508 35.7839 385.364 36.2159C385.244 36.6479 385.136 37.0679 385.04 37.4759C384.968 37.8839 384.908 38.1959 384.86 38.4119C384.74 38.9159 384.608 39.5999 384.464 40.4639C384.32 41.3039 384.164 42.2639 383.996 43.3439C383.852 44.3999 383.708 45.4919 383.564 46.6199C383.42 47.7239 383.312 48.7799 383.24 49.7879C383.168 50.7719 383.132 51.6239 383.132 52.3439C383.132 52.7039 383.132 53.0999 383.132 53.5319C383.156 53.9399 383.204 54.3239 383.276 54.6839C383.444 54.2519 383.612 53.8319 383.78 53.4239C383.972 53.0159 384.164 52.6079 384.356 52.1999C384.548 51.7919 384.728 51.3839 384.896 50.9759L387.092 52.7759C386.756 53.7599 386.408 54.7919 386.048 55.8719C385.712 56.9519 385.4 57.9719 385.112 58.9319C384.848 59.8919 384.644 60.6959 384.5 61.3439C384.452 61.5839 384.404 61.8719 384.356 62.2079C384.332 62.5439 384.32 62.8199 384.32 63.0359C384.32 63.2279 384.32 63.4559 384.32 63.7199C384.344 64.0079 384.368 64.2719 384.392 64.5119L380.324 64.8359C379.94 63.5639 379.604 61.9439 379.316 59.9759C379.028 57.9839 378.884 55.7639 378.884 53.3159C378.884 51.9719 378.944 50.5679 379.064 49.1039C379.184 47.6159 379.316 46.1879 379.46 44.8199C379.628 43.4519 379.796 42.2039 379.964 41.0759C380.132 39.9239 380.264 38.9999 380.36 38.3039C380.432 37.7999 380.504 37.2359 380.576 36.6119C380.648 35.9639 380.696 35.3519 380.72 34.7759L385.688 35.2079Z" fill="#4AA9D5"/>
<path d="M350.04 41.2199H373.08V44.4599H350.04V41.2199ZM349.68 46.5119L351.876 44.6039C352.5 45.0119 353.184 45.4919 353.928 46.0439C354.672 46.5719 355.26 47.0519 355.692 47.4839L353.388 49.5719C353.004 49.1639 352.44 48.6719 351.696 48.0959C350.976 47.4959 350.304 46.9679 349.68 46.5119ZM364.728 60.0479L368.004 58.3919C368.604 58.9199 369.228 59.5199 369.876 60.1919C370.524 60.8639 371.136 61.5239 371.712 62.1719C372.312 62.8199 372.78 63.4079 373.116 63.9359L369.624 65.7719C369.336 65.2679 368.916 64.6679 368.364 63.9719C367.836 63.2999 367.248 62.6159 366.6 61.9199C365.952 61.2239 365.328 60.5999 364.728 60.0479ZM356.412 53.9279V55.3319H365.736V53.9279H356.412ZM356.412 50.2199V51.5519H365.736V50.2199H356.412ZM352.812 47.6639H369.48V57.8879H352.812V47.6639ZM352.596 58.3199L356.484 59.3999C355.836 60.5999 355.008 61.7759 354 62.9279C353.016 64.0559 352.02 65.0039 351.012 65.7719C350.772 65.5319 350.46 65.2439 350.076 64.9079C349.692 64.5959 349.296 64.2839 348.888 63.9719C348.48 63.6839 348.12 63.4439 347.808 63.2519C348.768 62.6279 349.68 61.8839 350.544 61.0199C351.408 60.1319 352.092 59.2319 352.596 58.3199ZM370.488 44.3519L372.972 46.1879C372.396 46.7399 371.772 47.2679 371.1 47.7719C370.452 48.2759 369.864 48.7079 369.336 49.0679L367.14 47.3759C367.668 46.9919 368.256 46.5119 368.904 45.9359C369.552 45.3359 370.08 44.8079 370.488 44.3519ZM365.196 42.5879C365.748 43.6199 366.468 44.6159 367.356 45.5759C368.244 46.5359 369.252 47.3999 370.38 48.1679C371.508 48.9119 372.696 49.5119 373.944 49.9679C373.512 50.3279 373.056 50.8079 372.576 51.4079C372.096 52.0079 371.712 52.5359 371.424 52.9919C370.104 52.3919 368.844 51.6119 367.644 50.6519C366.468 49.6919 365.4 48.6119 364.44 47.4119C363.48 46.1879 362.664 44.9159 361.992 43.5959L365.196 42.5879ZM358.968 56.5559H363.144V62.4959C363.144 63.3839 363.036 64.0679 362.82 64.5479C362.604 65.0519 362.172 65.4479 361.524 65.7359C360.876 65.9999 360.144 66.1559 359.328 66.2039C358.512 66.2519 357.552 66.2759 356.448 66.2759C356.328 65.7479 356.136 65.1479 355.872 64.4759C355.608 63.8279 355.356 63.2759 355.116 62.8199C355.788 62.8439 356.448 62.8559 357.096 62.8559C357.744 62.8559 358.176 62.8559 358.392 62.8559C358.632 62.8559 358.788 62.8199 358.86 62.7479C358.932 62.6519 358.968 62.5199 358.968 62.3519V56.5559ZM358.356 38.7359L362.316 39.2759C361.74 41.0999 360.948 42.8639 359.94 44.5679C358.956 46.2479 357.708 47.8199 356.196 49.2839C354.684 50.7479 352.836 52.0559 350.652 53.2079C350.388 52.7519 350.004 52.2359 349.5 51.6599C348.996 51.0839 348.516 50.6519 348.06 50.3639C350.076 49.4279 351.768 48.3359 353.136 47.0879C354.528 45.8399 355.644 44.5079 356.484 43.0919C357.348 41.6519 357.972 40.1999 358.356 38.7359ZM346.908 35.3159H373.404V38.9159H346.908V35.3159ZM344.82 35.3159H348.816V46.9439C348.816 48.3839 348.744 49.9559 348.6 51.6599C348.456 53.3639 348.192 55.0919 347.808 56.8439C347.448 58.5959 346.908 60.2879 346.188 61.9199C345.492 63.5279 344.568 64.9559 343.416 66.2039C343.224 65.9159 342.936 65.5799 342.552 65.1959C342.168 64.8359 341.784 64.4759 341.4 64.1159C341.016 63.7799 340.68 63.5279 340.392 63.3599C341.424 62.2079 342.228 60.9599 342.804 59.6159C343.404 58.2479 343.848 56.8319 344.136 55.3679C344.424 53.9039 344.604 52.4639 344.676 51.0479C344.772 49.6079 344.82 48.2399 344.82 46.9439V35.3159ZM356.16 32.3999H360.696V37.5119H356.16V32.3999ZM339.672 39.8879L342.768 38.5919C343.272 39.7439 343.728 40.9799 344.136 42.2999C344.568 43.6199 344.832 44.7359 344.928 45.6479L341.652 47.1599C341.58 46.5119 341.448 45.7799 341.256 44.9639C341.064 44.1239 340.836 43.2599 340.572 42.3719C340.308 41.4839 340.008 40.6559 339.672 39.8879ZM339.348 52.3439C340.188 51.9839 341.172 51.5279 342.3 50.9759C343.452 50.3999 344.64 49.8119 345.864 49.2119L346.836 52.4519C345.828 53.0999 344.784 53.7479 343.704 54.3959C342.624 55.0439 341.58 55.6559 340.572 56.2319L339.348 52.3439Z" fill="#4AA9D5"/>
<path d="M317.668 60.768H331.672V64.728H317.668V60.768ZM315.652 51.156H333.832V66.096H329.44V55.116H319.864V66.204H315.652V51.156ZM312.7 44.388C314.428 44.316 316.42 44.22 318.676 44.1C320.956 43.98 323.356 43.848 325.876 43.704C328.396 43.56 330.892 43.428 333.364 43.308L333.328 47.268C330.952 47.46 328.552 47.652 326.128 47.844C323.728 48.012 321.412 48.18 319.18 48.348C316.972 48.492 314.98 48.624 313.204 48.744L312.7 44.388ZM326.164 39.456L329.944 37.584C330.904 38.64 331.84 39.804 332.752 41.076C333.688 42.324 334.54 43.56 335.308 44.784C336.076 46.008 336.676 47.124 337.108 48.132L333.112 50.364C332.704 49.356 332.116 48.216 331.348 46.944C330.604 45.648 329.776 44.352 328.864 43.056C327.976 41.736 327.076 40.536 326.164 39.456ZM320.44 32.364L325.444 33.444C324.868 35.004 324.22 36.6 323.5 38.232C322.804 39.864 322.096 41.424 321.376 42.912C320.68 44.4 320.008 45.72 319.36 46.872L315.472 45.72C315.952 44.808 316.42 43.812 316.876 42.732C317.356 41.628 317.812 40.476 318.244 39.276C318.7 38.076 319.12 36.888 319.504 35.712C319.888 34.512 320.2 33.396 320.44 32.364ZM305.104 35.748L307.48 32.508C308.248 32.772 309.064 33.12 309.928 33.552C310.816 33.96 311.656 34.392 312.448 34.848C313.24 35.28 313.888 35.712 314.392 36.144L311.836 39.78C311.38 39.348 310.768 38.892 310 38.412C309.256 37.908 308.452 37.428 307.588 36.972C306.724 36.492 305.896 36.084 305.104 35.748ZM302.908 45.576L305.284 42.264C306.076 42.528 306.904 42.852 307.768 43.236C308.656 43.62 309.496 44.028 310.288 44.46C311.104 44.892 311.776 45.312 312.304 45.72L309.748 49.392C309.292 48.96 308.668 48.516 307.876 48.06C307.108 47.58 306.292 47.124 305.428 46.692C304.564 46.236 303.724 45.864 302.908 45.576ZM304.132 62.892C304.756 61.98 305.452 60.9 306.22 59.652C307.012 58.404 307.804 57.084 308.596 55.692C309.388 54.3 310.144 52.908 310.864 51.516L314.068 54.36C313.468 55.608 312.82 56.892 312.124 58.212C311.428 59.532 310.72 60.828 310 62.1C309.28 63.372 308.56 64.596 307.84 65.772L304.132 62.892Z" fill="#4AA9D5"/>
<path d="M286.376 38.3401C286.136 40.1641 285.824 42.1081 285.44 44.1721C285.056 46.2361 284.54 48.3241 283.892 50.4361C283.196 52.8601 282.38 54.9481 281.444 56.7001C280.508 58.4521 279.476 59.8081 278.348 60.7681C277.244 61.7041 276.032 62.1721 274.712 62.1721C273.392 62.1721 272.168 61.7281 271.04 60.8401C269.936 59.9281 269.048 58.6801 268.376 57.0961C267.728 55.5121 267.404 53.7121 267.404 51.6961C267.404 49.6081 267.824 47.6401 268.664 45.7921C269.504 43.9441 270.668 42.3121 272.156 40.8961C273.668 39.4561 275.42 38.3281 277.412 37.5121C279.428 36.6961 281.6 36.2881 283.928 36.2881C286.16 36.2881 288.164 36.6481 289.94 37.3681C291.74 38.0881 293.276 39.0841 294.548 40.3561C295.82 41.6281 296.792 43.1161 297.464 44.8201C298.136 46.5241 298.472 48.3601 298.472 50.3281C298.472 52.8481 297.956 55.1041 296.924 57.0961C295.892 59.0881 294.356 60.7321 292.316 62.0281C290.3 63.3241 287.78 64.2121 284.756 64.6921L282.056 60.4081C282.752 60.3361 283.364 60.2521 283.892 60.1561C284.42 60.0601 284.924 59.9521 285.404 59.8321C286.556 59.5441 287.624 59.1361 288.608 58.6081C289.616 58.0561 290.492 57.3841 291.236 56.5921C291.98 55.7761 292.556 54.8281 292.964 53.7481C293.396 52.6681 293.612 51.4801 293.612 50.1841C293.612 48.7681 293.396 47.4721 292.964 46.2961C292.532 45.1201 291.896 44.1001 291.056 43.2361C290.216 42.3481 289.196 41.6761 287.996 41.2201C286.796 40.7401 285.416 40.5001 283.856 40.5001C281.936 40.5001 280.244 40.8481 278.78 41.5441C277.316 42.2161 276.08 43.0921 275.072 44.1721C274.064 45.2521 273.296 46.4161 272.768 47.6641C272.264 48.9121 272.012 50.1001 272.012 51.2281C272.012 52.4281 272.156 53.4361 272.444 54.2521C272.732 55.0441 273.08 55.6441 273.488 56.0521C273.92 56.4361 274.376 56.6281 274.856 56.6281C275.36 56.6281 275.852 56.3761 276.332 55.8721C276.836 55.3441 277.328 54.5521 277.808 53.4961C278.288 52.4401 278.768 51.1081 279.248 49.5001C279.8 47.7721 280.268 45.9241 280.652 43.9561C281.036 41.9881 281.312 40.0681 281.48 38.1961L286.376 38.3401Z" fill="#4AA9D5"/>
<path d="M249.072 36.252C248.904 36.492 248.712 36.768 248.496 37.08C248.304 37.368 248.112 37.656 247.92 37.9439C247.488 38.5919 247.008 39.348 246.48 40.212C245.976 41.052 245.448 41.9519 244.896 42.912C244.344 43.8479 243.804 44.7839 243.276 45.72C242.772 46.656 242.292 47.5199 241.836 48.3119C242.508 47.9279 243.192 47.652 243.888 47.484C244.584 47.316 245.28 47.2319 245.976 47.2319C247.32 47.2319 248.376 47.64 249.144 48.456C249.936 49.248 250.368 50.3999 250.44 51.9119C250.464 52.4399 250.476 53.076 250.476 53.82C250.476 54.564 250.476 55.3079 250.476 56.0519C250.5 56.7959 250.536 57.42 250.584 57.924C250.656 58.62 250.908 59.124 251.34 59.436C251.796 59.724 252.324 59.868 252.924 59.868C253.692 59.868 254.388 59.6399 255.012 59.1839C255.66 58.7279 256.236 58.104 256.74 57.312C257.244 56.496 257.676 55.584 258.036 54.576C258.42 53.544 258.744 52.476 259.008 51.372L262.896 54.54C262.272 56.58 261.48 58.3799 260.52 59.9399C259.56 61.4759 258.384 62.664 256.992 63.504C255.624 64.368 254.016 64.7999 252.168 64.7999C250.848 64.7999 249.744 64.56 248.856 64.08C247.968 63.624 247.308 63.0239 246.876 62.2799C246.444 61.5119 246.204 60.684 246.156 59.796C246.108 59.148 246.072 58.428 246.048 57.636C246.048 56.844 246.036 56.076 246.012 55.332C246.012 54.564 245.988 53.9399 245.94 53.4599C245.892 52.8359 245.688 52.344 245.328 51.984C244.968 51.624 244.464 51.444 243.816 51.444C243.024 51.444 242.268 51.696 241.548 52.2C240.828 52.704 240.168 53.364 239.568 54.18C238.992 54.996 238.488 55.896 238.056 56.88C237.816 57.408 237.564 58.0319 237.3 58.7519C237.036 59.4719 236.784 60.216 236.544 60.984C236.304 61.752 236.076 62.472 235.86 63.144C235.644 63.84 235.464 64.428 235.32 64.908L230.244 63.18C230.7 61.98 231.252 60.612 231.9 59.076C232.572 57.516 233.304 55.884 234.096 54.18C234.888 52.476 235.692 50.784 236.508 49.104C237.324 47.424 238.104 45.84 238.848 44.352C239.592 42.84 240.252 41.532 240.828 40.428C241.428 39.3 241.884 38.448 242.196 37.872C242.436 37.392 242.712 36.8519 243.024 36.252C243.336 35.652 243.648 34.968 243.96 34.2L249.072 36.252Z" fill="#4AA9D5"/>
<path d="M207.88 34.812C207.784 35.268 207.676 35.772 207.556 36.324C207.436 36.852 207.328 37.344 207.232 37.8C207.136 38.328 207.016 38.928 206.872 39.6C206.728 40.248 206.584 40.908 206.44 41.58C206.32 42.228 206.188 42.864 206.044 43.488C205.804 44.52 205.504 45.72 205.144 47.088C204.784 48.456 204.364 49.932 203.884 51.516C203.404 53.076 202.864 54.648 202.264 56.232C201.664 57.816 201.028 59.364 200.356 60.876C199.684 62.364 198.964 63.708 198.196 64.908L193.516 63.036C194.356 61.908 195.136 60.648 195.856 59.256C196.6 57.84 197.272 56.4 197.872 54.936C198.472 53.448 199 51.984 199.456 50.544C199.936 49.08 200.344 47.724 200.68 46.476C201.04 45.228 201.316 44.16 201.508 43.272C201.844 41.64 202.108 40.068 202.3 38.556C202.492 37.044 202.564 35.616 202.516 34.272L207.88 34.812ZM220.264 38.448C220.84 39.24 221.428 40.212 222.028 41.364C222.652 42.492 223.264 43.692 223.864 44.964C224.464 46.236 225.004 47.46 225.484 48.636C225.964 49.812 226.336 50.832 226.6 51.696L222.028 53.784C221.812 52.776 221.488 51.66 221.056 50.436C220.648 49.212 220.168 47.976 219.616 46.728C219.064 45.456 218.476 44.256 217.852 43.128C217.252 42 216.628 41.052 215.98 40.284L220.264 38.448ZM193.264 42.192C193.912 42.24 194.548 42.264 195.172 42.264C195.82 42.24 196.468 42.216 197.116 42.192C197.716 42.168 198.436 42.132 199.276 42.084C200.116 42.012 201.004 41.94 201.94 41.868C202.9 41.796 203.86 41.724 204.82 41.652C205.78 41.556 206.668 41.484 207.484 41.436C208.3 41.388 208.972 41.364 209.5 41.364C210.796 41.364 211.924 41.58 212.884 42.012C213.844 42.42 214.6 43.128 215.152 44.136C215.728 45.144 216.016 46.512 216.016 48.24C216.016 49.656 215.956 51.192 215.836 52.848C215.716 54.504 215.5 56.088 215.188 57.6C214.9 59.112 214.492 60.396 213.964 61.452C213.388 62.7 212.596 63.564 211.588 64.044C210.604 64.524 209.428 64.764 208.06 64.764C207.388 64.764 206.656 64.704 205.864 64.584C205.072 64.488 204.364 64.38 203.74 64.26L202.984 59.508C203.44 59.628 203.944 59.748 204.496 59.868C205.072 59.988 205.612 60.084 206.116 60.156C206.644 60.228 207.064 60.264 207.376 60.264C207.976 60.264 208.504 60.156 208.96 59.94C209.416 59.7 209.788 59.292 210.076 58.716C210.412 58.02 210.688 57.12 210.904 56.016C211.12 54.912 211.276 53.724 211.372 52.452C211.492 51.156 211.552 49.92 211.552 48.744C211.552 47.784 211.408 47.076 211.12 46.62C210.856 46.164 210.46 45.864 209.932 45.72C209.428 45.552 208.804 45.468 208.06 45.468C207.508 45.468 206.764 45.516 205.828 45.612C204.892 45.684 203.884 45.78 202.804 45.9C201.748 45.996 200.764 46.104 199.852 46.224C198.94 46.344 198.232 46.428 197.728 46.476C197.2 46.572 196.528 46.68 195.712 46.8C194.92 46.896 194.248 46.992 193.696 47.088L193.264 42.192ZM219.616 33.444C219.928 33.876 220.252 34.392 220.588 34.992C220.948 35.592 221.296 36.192 221.632 36.792C221.968 37.392 222.256 37.92 222.496 38.376L219.58 39.636C219.34 39.132 219.064 38.58 218.752 37.98C218.44 37.38 218.116 36.78 217.78 36.18C217.444 35.58 217.108 35.064 216.772 34.632L219.616 33.444ZM223.9 31.824C224.212 32.28 224.548 32.808 224.908 33.408C225.268 34.008 225.616 34.608 225.952 35.208C226.312 35.808 226.588 36.312 226.78 36.72L223.936 37.944C223.552 37.2 223.096 36.36 222.568 35.424C222.04 34.464 221.524 33.648 221.02 32.976L223.9 31.824Z" fill="#4AA9D5"/>
</svg>
