<svg width="353" height="121" viewBox="0 0 353 121" fill="none" xmlns="http://www.w3.org/2000/svg">
<path d="M322.026 73.544V112.288H324.752C325.796 112.288 326.666 113.1 326.666 114.144C326.666 115.188 325.796 116 324.752 116H294.592C293.606 116 292.736 115.188 292.736 114.144C292.736 113.1 293.606 112.288 294.592 112.288H297.318V73.544H294.592C293.606 73.544 292.736 72.732 292.736 71.688C292.736 70.644 293.606 69.832 294.592 69.832H324.752C325.796 69.832 326.666 70.644 326.666 71.688C326.666 72.732 325.796 73.544 324.752 73.544H322.026ZM313.036 73.544H306.308V112.288H313.036V73.544Z" fill="#4AA9D5"/>
<path d="M242.16 96.686C241.696 103.994 239.55 110.026 235.084 115.826C234.156 116.986 231.198 120.582 229.748 120.582C228.878 120.582 228.124 119.886 228.124 119.016C228.124 118.61 228.182 118.378 228.82 117.45C231.256 114.028 232.648 111.07 233.634 107.01C234.098 105.038 234.446 103.066 234.562 101.036C233.576 102.196 231.72 104.4 230.096 104.4C228.298 104.4 227.602 102.254 227.602 100.746C227.602 98.832 228.53 98.252 230.212 97.556C231.778 96.918 233.286 96.164 234.794 95.236V90.248C234.272 90.596 233.692 90.77 233.054 90.77C231.372 90.77 230.85 89.32 230.502 87.986C229.922 85.84 229.11 83.288 228.24 81.954C227.892 81.374 227.66 80.852 227.66 80.388C227.66 79.518 228.414 78.822 229.284 78.822C230.618 78.822 233.866 82.012 234.794 82.998V77.082C234.794 73.312 237.23 71.514 240.826 71.514H253.354V70.412C253.354 68.15 254.688 66.584 257.356 66.584C259.328 66.584 261.416 67.918 261.416 70.18V71.514H280.672C281.658 71.514 282.644 72.036 282.644 73.138C282.644 74.298 281.658 74.762 280.672 74.762H261.648C263.388 75.168 264.722 75.922 264.722 77.952C264.722 78.532 264.548 79.054 264.316 79.634H280.324C281.31 79.634 282.296 80.098 282.296 81.2C282.296 82.36 281.31 82.824 280.324 82.824H269.884C270.812 84.622 272.088 86.246 273.48 87.696C274.234 86.652 274.872 85.55 275.452 84.448C275.858 83.636 276.496 83.114 277.424 83.114C278.874 83.114 280.788 84.274 280.788 85.898C280.788 87.812 277.54 89.262 276.032 89.958C277.888 91.408 280.034 92.742 282.18 93.67C282.934 94.018 283.63 94.482 283.63 95.41C283.63 96.222 282.992 96.976 282.122 96.976C280.73 96.976 278.468 95.99 276.554 95.12C276.612 95.41 276.612 95.7 276.612 96.048V102.95C276.612 106.198 274.35 107.822 271.276 107.822H266.288V114.956C266.288 118.726 263.794 120.524 260.256 120.524H253.354C252.368 120.524 251.44 120.06 251.44 118.9C251.44 117.798 252.368 117.276 253.354 117.276H256.95C258.168 117.276 258.632 116.812 258.632 115.594V107.822H253.296C250.222 107.822 247.96 106.198 247.96 102.95V95.468C246.8 96.106 244.422 97.324 243.378 97.324C242.914 97.324 242.45 97.034 242.16 96.686ZM242.218 94.772C242.334 94.598 242.798 94.25 243.03 94.134C244.77 93.206 246.394 92.046 247.902 90.828C247.264 90.422 247.032 89.958 246.742 89.32C246.162 87.986 245.466 86.826 244.77 85.84C244.422 85.376 244.248 85.028 244.248 84.68C244.248 83.926 244.77 83.288 245.524 83.288C245.814 83.288 246.568 83.578 247.38 83.926C249.004 84.622 250.802 85.492 251.846 86.71C252.832 85.492 253.702 84.216 254.456 82.824H245.176C244.19 82.824 243.204 82.36 243.204 81.2C243.204 80.098 244.19 79.634 245.176 79.634H255.906C257.066 76.212 257.588 75.226 259.212 74.762H243.9C242.74 74.762 242.218 75.284 242.218 76.444V94.772ZM262.286 83.114C260.024 86.13 257.53 88.798 254.572 91.176H269.768C266.636 88.914 264.374 86.362 262.286 83.114ZM269.188 97.846V96.106C269.188 94.888 268.724 94.366 267.506 94.366H256.95C255.79 94.366 255.268 94.888 255.268 96.106V97.846H269.188ZM269.188 101.036H255.268V102.892C255.268 104.11 255.79 104.632 256.95 104.632H267.506C268.724 104.632 269.188 104.11 269.188 102.892V101.036ZM242.392 119.886C241.58 119.886 240.826 119.132 240.826 118.262C240.826 117.566 241.174 117.218 242.102 116.522C244.538 114.724 246.626 112.172 248.192 109.736C248.83 108.75 249.7 108.112 250.918 108.112C252.832 108.112 255.094 109.388 255.094 111.534C255.094 113.274 253.354 114.434 251.614 115.594C249.874 116.754 244.074 119.886 242.392 119.886ZM277.308 119.596C276.09 119.596 275.394 118.958 274.698 117.972C273.074 115.536 271.682 113.796 269.652 111.65C269.246 111.186 268.898 110.78 268.898 110.142C268.898 109.214 269.594 108.576 270.522 108.576C271.856 108.576 277.192 111.012 278.642 111.824C280.092 112.636 281.774 114.028 281.774 115.594C281.774 117.856 279.454 119.596 277.308 119.596Z" fill="#4AA9D5"/>
<path d="M180.68 73.892V113.854C180.68 114.84 181.608 115.768 182.594 115.768H222.672C223.658 115.768 224.644 116.29 224.644 117.392C224.644 118.552 223.658 119.016 222.672 119.016H179.636C175.402 119.016 172.676 116.87 172.676 112.52V75.226C172.676 70.876 175.402 68.73 179.636 68.73H221.628C222.672 68.73 223.6 69.252 223.6 70.354C223.6 71.514 222.672 71.978 221.628 71.978H182.594C181.55 71.978 180.68 72.906 180.68 73.892ZM203.01 101.268C201.038 104.168 198.196 106.546 195.354 108.518C192.338 110.606 189.496 112.172 185.9 113.39C185.378 113.564 184.972 113.622 184.74 113.622C183.87 113.622 183.174 112.868 183.174 111.998C183.174 111.186 183.696 110.722 184.334 110.432C189.67 108.112 194.484 103.82 196.688 98.426C197.21 97.208 197.5 95.932 197.79 94.656H184.856C183.87 94.656 182.884 94.192 182.884 93.09C182.884 91.93 183.87 91.466 184.856 91.466H198.254C198.544 88.45 198.428 85.318 198.486 82.302H192.86C191.758 83.52 189.38 86.072 187.408 87.696C186.422 88.508 185.552 89.088 185.03 89.088C184.16 89.088 183.406 88.392 183.406 87.522C183.406 87.058 183.58 86.71 183.87 86.246C185.726 83.23 187.408 79.692 188.51 76.328C189.206 74.24 189.786 72.442 192.338 72.442C194.252 72.442 196.978 73.544 196.978 75.806C196.978 77.024 196.224 78.126 195.47 79.054H217.452C218.438 79.054 219.424 79.518 219.424 80.678C219.424 81.838 218.438 82.302 217.452 82.302H206.548C206.548 85.318 206.49 88.392 206.258 91.466H220.004C221.048 91.466 221.976 91.93 221.976 93.09C221.976 94.192 221.048 94.656 220.004 94.656H207.882C210.086 101.442 215.422 107.068 221.512 110.432C222.208 110.78 222.672 111.244 222.672 111.998C222.672 112.868 221.976 113.622 221.106 113.622C220.584 113.622 219.482 113.274 218.264 112.752C216.466 111.998 214.436 111.012 213.566 110.548C209.506 108.228 205.736 105.096 203.01 101.268Z" fill="#4AA9D5"/>
<path d="M128.919 69.832H142.143C155.773 69.832 161.631 80.446 161.631 92.858C161.631 105.444 155.889 116 142.085 116H128.919C124.859 116 122.481 114.202 122.481 109.968V75.922C122.481 71.688 124.917 69.89 128.919 69.832ZM131.471 75.632V110.2C131.471 111.302 132.399 112.288 133.501 112.288H138.547C141.737 112.288 145.101 111.418 147.421 109.214C151.423 105.444 152.061 98.368 152.061 93.206C152.061 88.16 151.365 80.388 147.479 76.792C145.043 74.53 141.737 73.602 138.489 73.602H133.501C132.341 73.602 131.471 74.588 131.471 75.632Z" fill="#4AA9D5"/>
<path d="M91.1031 73.08L98.2951 104.98C98.4111 105.502 98.5851 105.966 99.1071 105.966C99.6291 105.966 99.8031 105.27 99.8611 104.922L106.415 70.586C106.589 69.658 107.401 68.962 108.329 68.962C109.431 68.962 110.359 69.832 110.359 70.934C110.359 71.05 110.243 71.746 110.185 72.036L102.587 112.288C102.065 115.072 99.6871 116.87 96.9031 116.87C93.9451 116.87 91.9151 115.13 91.2771 112.288L84.0851 80.156C83.9691 79.634 83.8531 79.286 83.3891 79.286C82.9251 79.286 82.8091 79.808 82.7511 80.156L75.9651 112.462C75.3851 115.246 73.0071 116.87 70.2231 116.87C67.4971 116.87 65.0611 115.304 64.4811 112.404L56.9411 74.182C56.8251 73.66 56.7671 73.312 56.7671 72.906C56.7671 70.412 59.4351 68.962 61.6391 68.962C64.0751 68.962 65.2931 70.18 65.7571 72.442L71.9631 104.748C72.0211 105.096 72.1371 105.85 72.6591 105.85C73.1811 105.85 73.2971 105.328 73.4131 104.748L80.0831 73.08C80.6631 70.412 83.2731 68.962 85.8251 68.962C88.3771 68.962 90.5231 70.528 91.1031 73.08Z" fill="#4AA9D5"/>
<path d="M25.5379 90.712H43.3439C44.3879 90.712 45.2579 91.524 45.2579 92.568C45.2579 93.612 44.3879 94.424 43.3439 94.424H25.5379V112.52C25.5379 115.362 23.3919 116.87 21.0139 116.87C18.5779 116.87 16.5479 115.246 16.5479 112.52V75.922C16.5479 71.746 18.9839 69.832 22.9859 69.832H45.4319C46.4759 69.832 47.3459 70.644 47.3459 71.688C47.3459 72.732 46.4759 73.602 45.4319 73.602H27.5679C26.5239 73.602 25.5379 74.588 25.5379 75.632V90.712Z" fill="#4AA9D5"/>
<path d="M343.906 11.4881V14.0441H347.866C349.63 14.0441 351.034 14.8361 351.034 16.7801V20.9561C351.034 22.9001 349.63 23.6921 347.866 23.6921H344.59C345.814 27.3641 348.514 30.3161 352.042 31.9361C352.51 32.1521 352.906 32.4041 352.906 32.9441C352.906 33.4841 352.474 33.9521 351.934 33.9521C350.854 33.9521 348.19 32.6921 347.218 32.1521C344.95 30.8561 343.006 29.1641 341.386 27.1481C339.802 29.1641 337.858 30.8561 335.59 32.1521C334.654 32.6921 331.918 33.9521 330.874 33.9521C330.334 33.9521 329.902 33.5201 329.902 32.9441C329.902 32.4041 330.118 32.2241 330.73 31.9361C334.258 30.2801 336.958 27.5801 338.218 23.6921H335.158C333.394 23.6921 331.99 22.9001 331.99 20.9561V16.7801C331.99 14.8361 333.394 14.0441 335.158 14.0441H339.01V11.4881H335.842C335.23 11.4881 334.618 11.2001 334.618 10.4801C334.618 10.3721 334.654 10.2641 334.654 10.1561C334.042 10.5881 332.062 11.8481 331.378 11.8481C330.838 11.8481 330.37 11.3801 330.37 10.8401C330.37 10.4441 330.622 10.1561 330.91 9.94011C333.682 7.88812 335.914 5.76411 337.786 2.41611C338.758 0.688113 339.766 0.400116 341.638 0.400116C343.51 0.400116 344.518 0.724115 345.49 2.41611C347.218 5.36812 349.594 7.88812 352.366 9.94011C352.69 10.1561 352.906 10.4441 352.906 10.8401C352.906 11.3801 352.474 11.8481 351.898 11.8481C351.286 11.8481 349.018 10.4441 348.19 9.90412C348.298 10.0841 348.406 10.2641 348.406 10.4801C348.406 11.2001 347.794 11.4881 347.182 11.4881H343.906ZM324.286 4.57612V31.7921C324.286 32.5121 324.214 33.2681 323.602 33.7361C323.17 34.0961 322.666 34.1681 322.126 34.1681C321.442 34.1681 320.722 34.0241 320.326 33.4481C320.074 33.0521 320.002 32.6201 320.002 32.0801V4.36012C320.002 2.48811 321.298 1.62411 323.062 1.62411H328.822C329.506 1.62411 330.262 1.80411 330.802 2.23612C331.27 2.59612 331.522 3.13611 331.522 3.64011C331.522 4.25212 331.342 4.86412 331.126 5.44011L327.958 13.6121C327.886 13.7921 327.85 13.9001 327.85 14.0441C327.85 14.1521 327.922 14.2601 328.138 14.5121C330.226 16.9601 331.558 20.2001 331.558 23.4401C331.558 25.9961 330.55 28.1921 327.67 28.1921H325.402C324.826 28.1921 324.394 27.7601 324.394 27.1841C324.394 26.7161 324.79 26.2121 325.294 26.2121H325.87C326.338 26.2121 326.77 25.5641 326.878 25.1321C327.022 24.5201 327.094 23.5841 327.094 22.8281C327.094 19.7681 326.302 17.6081 324.862 14.8001C324.682 14.4761 324.61 14.2601 324.61 13.9721C324.61 13.7201 324.646 13.4681 324.718 13.2161L327.022 4.90012C327.094 4.64812 327.166 4.39612 327.166 4.32411C327.166 3.89212 326.842 3.64011 326.446 3.64011H325.186C324.466 3.64011 324.286 3.89212 324.286 4.57612ZM335.734 9.47211H347.11C347.254 9.47211 347.434 9.47211 347.614 9.50812C345.562 8.21212 343.69 6.59212 342.358 5.18812C341.89 4.68412 341.782 4.61211 341.638 4.61211C341.494 4.61211 341.35 4.72012 341.134 4.93612C339.478 6.70012 337.75 8.14011 335.734 9.47211ZM343.906 21.6761H345.562C346.282 21.6761 346.498 21.4601 346.498 20.7401V16.9961C346.498 16.2761 346.282 16.0241 345.562 16.0241H343.906V21.6761ZM339.01 21.6761V16.0241H337.462C336.742 16.0241 336.49 16.2761 336.49 16.9961V20.7401C336.49 21.4601 336.742 21.6761 337.462 21.6761H339.01Z" fill="#4AA9D5"/>
<path d="M289.762 8.50012V31.7201C289.762 32.3321 289.582 33.0881 289.294 33.4481C288.826 34.0601 288.178 34.2041 287.35 34.2041C286.522 34.2041 285.586 33.9161 285.262 33.0881C285.118 32.6921 285.01 32.3321 285.01 31.5761V15.3761C284.218 16.3481 283.498 17.2481 282.526 18.1841C282.274 18.4361 282.022 18.5801 281.662 18.5801C281.158 18.5801 280.69 18.1481 280.69 17.6441C280.69 17.3201 280.834 17.0681 281.014 16.8161C284.074 12.1001 285.838 7.49212 286.81 2.52412C287.098 1.12012 287.674 0.292114 289.186 0.292114C290.554 0.292114 292.318 1.12011 292.318 2.66811C292.318 3.46011 291.562 5.36812 289.762 8.50012ZM307.438 19.1921C308.626 22.9001 311.686 27.1121 314.746 29.5961C315.034 29.8121 315.286 30.1001 315.286 30.5321C315.286 31.0721 314.854 31.5401 314.278 31.5401C314.026 31.5401 312.586 30.7481 311.686 30.1361C311.29 29.8481 311.002 29.6681 310.822 29.5241C308.77 28.0121 306.898 26.2121 305.314 24.2321V31.7561C305.314 32.3681 305.242 32.9801 304.846 33.4481C304.306 34.0601 303.622 34.2041 302.902 34.2041C301.786 34.2041 301.102 33.8801 300.742 33.0521C300.598 32.6921 300.526 32.3681 300.526 31.8281V24.3401C298.654 26.8601 296.35 29.0921 293.65 30.8561C292.822 31.3961 291.706 31.9361 291.418 31.9361C290.842 31.9361 290.446 31.4681 290.446 30.9641C290.446 30.4601 290.77 30.1721 291.13 29.8841C294.262 27.3641 297.25 23.0801 298.402 19.1921H291.814C291.202 19.1921 290.59 18.8681 290.59 18.1841C290.59 17.4641 291.202 17.1761 291.814 17.1761H300.526V13.7561H296.386C294.586 13.7561 293.218 12.9641 293.218 11.0201V4.36012C293.218 2.41612 294.586 1.62411 296.386 1.62411H309.526C311.29 1.62411 312.694 2.41612 312.694 4.36012V11.0201C312.694 12.9641 311.29 13.7561 309.526 13.7561H305.314V17.1761H313.666C314.314 17.1761 314.89 17.4641 314.89 18.1841C314.89 18.8681 314.314 19.1921 313.666 19.1921H307.438ZM306.79 3.64011H299.05C298.33 3.64011 298.078 3.85612 298.078 4.57612V10.8041C298.078 11.5241 298.33 11.7401 299.05 11.7401H306.79C307.51 11.7401 307.726 11.5241 307.726 10.8041V4.57612C307.726 3.85612 307.51 3.64011 306.79 3.64011Z" fill="#4AA9D5"/>
<path d="M251.926 19.0121C251.638 23.5481 250.306 27.2921 247.534 30.8921C246.958 31.6121 245.122 33.8441 244.222 33.8441C243.682 33.8441 243.214 33.4121 243.214 32.8721C243.214 32.6201 243.25 32.4761 243.646 31.9001C245.158 29.7761 246.022 27.9401 246.634 25.4201C246.922 24.1961 247.138 22.9721 247.21 21.7121C246.598 22.4321 245.446 23.8001 244.438 23.8001C243.322 23.8001 242.89 22.4681 242.89 21.5321C242.89 20.3441 243.466 19.9841 244.51 19.5521C245.482 19.1561 246.418 18.6881 247.354 18.1121V15.0161C247.03 15.2321 246.67 15.3401 246.274 15.3401C245.23 15.3401 244.906 14.4401 244.69 13.6121C244.33 12.2801 243.826 10.6961 243.286 9.86813C243.07 9.50813 242.926 9.18413 242.926 8.89613C242.926 8.35613 243.394 7.92413 243.934 7.92413C244.762 7.92413 246.778 9.90413 247.354 10.5161V6.84413C247.354 4.50412 248.866 3.38813 251.098 3.38813H258.874V2.70413C258.874 1.30013 259.702 0.328125 261.358 0.328125C262.582 0.328125 263.878 1.15613 263.878 2.56013V3.38813H275.83C276.442 3.38813 277.054 3.71213 277.054 4.39613C277.054 5.11613 276.442 5.40413 275.83 5.40413H264.022C265.102 5.65613 265.93 6.12412 265.93 7.38413C265.93 7.74413 265.822 8.06813 265.678 8.42813H275.614C276.226 8.42813 276.838 8.71613 276.838 9.40013C276.838 10.1201 276.226 10.4081 275.614 10.4081H269.134C269.71 11.5241 270.502 12.5321 271.366 13.4321C271.834 12.7841 272.23 12.1001 272.59 11.4161C272.842 10.9121 273.238 10.5881 273.814 10.5881C274.714 10.5881 275.902 11.3081 275.902 12.3161C275.902 13.5041 273.886 14.4041 272.95 14.8361C274.102 15.7361 275.434 16.5641 276.766 17.1401C277.234 17.3561 277.666 17.6441 277.666 18.2201C277.666 18.7241 277.27 19.1921 276.73 19.1921C275.866 19.1921 274.462 18.5801 273.274 18.0401C273.31 18.2201 273.31 18.4001 273.31 18.6161V22.9001C273.31 24.9161 271.906 25.9241 269.998 25.9241H266.902V30.3521C266.902 32.6921 265.354 33.8081 263.158 33.8081H258.874C258.262 33.8081 257.686 33.5201 257.686 32.8001C257.686 32.1161 258.262 31.7921 258.874 31.7921H261.106C261.862 31.7921 262.15 31.5041 262.15 30.7481V25.9241H258.838C256.93 25.9241 255.526 24.9161 255.526 22.9001V18.2561C254.806 18.6521 253.33 19.4081 252.682 19.4081C252.394 19.4081 252.106 19.2281 251.926 19.0121ZM251.962 17.8241C252.034 17.7161 252.322 17.5001 252.466 17.4281C253.546 16.8521 254.554 16.1321 255.49 15.3761C255.094 15.1241 254.95 14.8361 254.77 14.4401C254.41 13.6121 253.978 12.8921 253.546 12.2801C253.33 11.9921 253.222 11.7761 253.222 11.5601C253.222 11.0921 253.546 10.6961 254.014 10.6961C254.194 10.6961 254.662 10.8761 255.166 11.0921C256.174 11.5241 257.29 12.0641 257.938 12.8201C258.55 12.0641 259.09 11.2721 259.558 10.4081H253.798C253.186 10.4081 252.574 10.1201 252.574 9.40013C252.574 8.71613 253.186 8.42813 253.798 8.42813H260.458C261.178 6.30413 261.502 5.69213 262.51 5.40413H253.006C252.286 5.40413 251.962 5.72813 251.962 6.44812V17.8241ZM264.418 10.5881C263.014 12.4601 261.466 14.1161 259.63 15.5921H269.062C267.118 14.1881 265.714 12.6041 264.418 10.5881ZM268.702 19.7321V18.6521C268.702 17.8961 268.414 17.5721 267.658 17.5721H261.106C260.386 17.5721 260.062 17.8961 260.062 18.6521V19.7321H268.702ZM268.702 21.7121H260.062V22.8641C260.062 23.6201 260.386 23.9441 261.106 23.9441H267.658C268.414 23.9441 268.702 23.6201 268.702 22.8641V21.7121ZM252.07 33.4121C251.566 33.4121 251.098 32.9441 251.098 32.4041C251.098 31.9721 251.314 31.7561 251.89 31.3241C253.402 30.2081 254.698 28.6241 255.67 27.1121C256.066 26.5001 256.606 26.1041 257.362 26.1041C258.55 26.1041 259.954 26.8961 259.954 28.2281C259.954 29.3081 258.874 30.0281 257.794 30.7481C256.714 31.4681 253.114 33.4121 252.07 33.4121ZM273.742 33.2321C272.986 33.2321 272.554 32.8361 272.122 32.2241C271.114 30.7121 270.25 29.6321 268.99 28.3001C268.738 28.0121 268.522 27.7601 268.522 27.3641C268.522 26.7881 268.954 26.3921 269.53 26.3921C270.358 26.3921 273.67 27.9041 274.57 28.4081C275.47 28.9121 276.514 29.7761 276.514 30.7481C276.514 32.1521 275.074 33.2321 273.742 33.2321Z" fill="#4AA9D5"/>
<path d="M211.966 4.86413V29.6681C211.966 30.2801 212.542 30.8561 213.154 30.8561H238.03C238.642 30.8561 239.254 31.1801 239.254 31.8641C239.254 32.5841 238.642 32.8721 238.03 32.8721H211.318C208.69 32.8721 206.998 31.5401 206.998 28.8401V5.69213C206.998 2.99213 208.69 1.66013 211.318 1.66013H237.382C238.03 1.66013 238.606 1.98413 238.606 2.66813C238.606 3.38813 238.03 3.67613 237.382 3.67613H213.154C212.506 3.67613 211.966 4.25213 211.966 4.86413ZM225.826 21.8561C224.602 23.6561 222.838 25.1321 221.074 26.3561C219.202 27.6521 217.438 28.6241 215.206 29.3801C214.882 29.4881 214.63 29.5241 214.486 29.5241C213.946 29.5241 213.514 29.0561 213.514 28.5161C213.514 28.0121 213.838 27.7241 214.234 27.5441C217.546 26.1041 220.534 23.4401 221.902 20.0921C222.226 19.3361 222.406 18.5441 222.586 17.7521H214.558C213.946 17.7521 213.334 17.4641 213.334 16.7801C213.334 16.0601 213.946 15.7721 214.558 15.7721H222.874C223.054 13.9001 222.982 11.9561 223.018 10.0841H219.526C218.842 10.8401 217.366 12.4241 216.142 13.4321C215.53 13.9361 214.99 14.2961 214.666 14.2961C214.126 14.2961 213.658 13.8641 213.658 13.3241C213.658 13.0361 213.766 12.8201 213.946 12.5321C215.098 10.6601 216.142 8.46413 216.826 6.37613C217.258 5.08013 217.618 3.96413 219.202 3.96413C220.39 3.96413 222.082 4.64813 222.082 6.05213C222.082 6.80813 221.614 7.49213 221.146 8.06813H234.79C235.402 8.06813 236.014 8.35613 236.014 9.07613C236.014 9.79613 235.402 10.0841 234.79 10.0841H228.022C228.022 11.9561 227.986 13.8641 227.842 15.7721H236.374C237.022 15.7721 237.598 16.0601 237.598 16.7801C237.598 17.4641 237.022 17.7521 236.374 17.7521H228.85C230.218 21.9641 233.53 25.4561 237.31 27.5441C237.742 27.7601 238.03 28.0481 238.03 28.5161C238.03 29.0561 237.598 29.5241 237.058 29.5241C236.734 29.5241 236.05 29.3081 235.294 28.9841C234.178 28.5161 232.918 27.9041 232.378 27.6161C229.858 26.1761 227.518 24.2321 225.826 21.8561Z" fill="#4AA9D5"/>
<path d="M187.198 6.30411C186.73 11.8841 186.334 17.5001 184.534 22.8281C183.346 26.3921 181.582 30.3881 177.19 30.3881C171.538 30.3881 168.802 24.2681 168.802 19.4081C168.802 15.5561 170.206 11.7401 172.762 8.89612C176.11 5.11611 180.826 3.46011 185.758 3.46011C194.254 3.46011 200.842 8.10411 200.842 17.1041C200.842 22.5041 198.394 27.1481 193.534 29.7041C191.95 30.4961 189.07 31.6121 187.27 31.6121C186.622 31.6121 186.046 31.0721 186.046 30.3881C186.046 29.6681 186.55 29.2721 187.162 29.0921C189.034 28.5521 190.582 27.5441 191.878 26.1041C194.182 23.5121 195.442 19.8761 195.442 16.4561C195.442 10.7321 192.49 7.85211 187.198 6.30411ZM182.014 6.30411C179.602 7.27611 177.91 8.42811 176.506 10.6241C174.454 13.7921 173.374 17.6081 173.374 21.3521C173.374 22.9721 173.518 24.7001 174.382 26.1041C174.814 26.8601 175.606 27.6161 176.542 27.6161C177.982 27.6161 178.846 25.1321 179.638 22.7921C181.258 17.4641 181.69 11.8481 182.014 6.30411Z" fill="#4AA9D5"/>
<path d="M146.914 4.86413C146.662 4.86413 146.482 4.97213 146.302 5.15213C143.674 8.03213 139.498 10.8761 135.61 12.7481C134.71 13.1801 131.614 14.6561 130.75 14.6561C130.21 14.6561 129.814 14.1881 129.814 13.6481C129.814 13.0721 130.282 12.7841 130.714 12.5681C133.774 10.9121 136.366 9.07613 138.778 6.80813C140.434 5.26013 141.838 3.53213 143.278 1.76813C144.286 0.580126 145.402 0.328125 146.914 0.328125C149.434 0.328125 149.866 0.904126 151.342 2.74013C154.546 6.73613 158.542 10.2281 163.114 12.5681C163.582 12.8201 164.05 13.0721 164.05 13.6481C164.05 14.1881 163.654 14.6561 163.114 14.6561C162.25 14.6561 159.118 13.1801 158.218 12.7481C154.366 10.8761 150.298 8.28413 147.526 5.15213C147.346 4.93613 147.202 4.86413 146.914 4.86413ZM139.39 11.3441H154.582C155.23 11.3441 155.806 11.6321 155.806 12.3521C155.806 13.0361 155.23 13.3241 154.582 13.3241H139.39C138.778 13.3241 138.166 13.0361 138.166 12.3521C138.166 11.6321 138.778 11.3441 139.39 11.3441ZM152.17 19.3721V32.0441C152.17 32.5841 152.134 33.0881 151.738 33.4841C151.234 33.9881 150.514 34.2401 149.83 34.2401C149.002 34.2401 148.03 33.8801 147.706 33.0881C147.526 32.6561 147.526 32.2601 147.526 31.8281V19.1561C147.526 17.2121 148.894 16.4201 150.694 16.4201H157.714C159.514 16.4201 160.882 17.2121 160.882 19.1561V28.2641C160.882 30.2081 159.514 31.0001 157.714 31.0001H154.186C153.574 31.0001 152.962 30.7121 152.962 30.0281C152.962 29.3081 153.574 29.0201 154.186 29.0201H155.482C156.202 29.0201 156.418 28.8041 156.418 28.0841V19.3721C156.418 18.6521 156.202 18.4001 155.482 18.4001H153.142C152.386 18.4001 152.17 18.6521 152.17 19.3721ZM145.258 19.1561V28.6961C145.258 30.6401 143.854 31.4321 142.09 31.4321H136.078C134.314 31.4321 132.91 30.6401 132.91 28.6961V19.1561C132.91 17.2121 134.314 16.4201 136.078 16.4201H142.09C143.962 16.4201 145.258 17.1761 145.258 19.1561ZM139.966 18.4001H138.382C137.662 18.4001 137.446 18.6521 137.446 19.3721V28.4801C137.446 29.2001 137.662 29.4521 138.382 29.4521H139.966C140.686 29.4521 140.902 29.2001 140.902 28.4801V19.3721C140.902 18.6161 140.686 18.4001 139.966 18.4001Z" fill="#4AA9D5"/>
<path d="M106.63 31.0001V20.5961H97.198C96.586 20.5961 95.974 20.3081 95.974 19.5881C95.974 18.8681 96.586 18.5801 97.198 18.5801H106.63V9.40012H99.538C98.062 11.8481 96.298 14.1161 94.282 16.1321C93.994 16.4201 93.67 16.7081 93.274 16.7081C92.698 16.7081 92.23 16.2761 92.23 15.7361C92.23 15.5201 92.338 15.3401 92.446 15.1601C94.642 11.7761 95.974 7.81611 96.658 3.85612C96.946 2.23612 97.27 1.04812 99.214 1.04812C100.546 1.04812 102.166 1.69612 102.166 3.20812C102.166 4.39612 101.302 6.23212 100.69 7.42012H106.63V2.99211C106.63 0.940115 107.782 0.400116 109.15 0.400116C110.41 0.400116 111.634 0.904115 111.634 2.88412V7.42012H122.794C123.406 7.42012 124.018 7.70811 124.018 8.39211C124.018 9.11211 123.406 9.40012 122.794 9.40012H111.634V18.5801H121.102C121.714 18.5801 122.29 18.8681 122.29 19.5881C122.29 20.3081 121.714 20.5961 121.102 20.5961H111.634V31.0001H124.666C125.278 31.0001 125.89 31.2881 125.89 31.9721C125.89 32.6921 125.278 32.9801 124.666 32.9801H93.67C93.022 32.9801 92.446 32.6921 92.446 31.9721C92.446 31.2881 93.022 31.0001 93.67 31.0001H106.63Z" fill="#4AA9D5"/>
<path d="M67.1581 2.34412H75.3661C83.8261 2.34412 87.4621 8.93212 87.4621 16.6361C87.4621 24.4481 83.8981 31.0001 75.3301 31.0001H67.1581C64.6381 31.0001 63.1621 29.8841 63.1621 27.2561V6.12412C63.1621 3.49612 64.6741 2.38012 67.1581 2.34412ZM68.7421 5.94412V27.4001C68.7421 28.0841 69.3181 28.6961 70.0021 28.6961H73.1341C75.1141 28.6961 77.2021 28.1561 78.6421 26.7881C81.1261 24.4481 81.5221 20.0561 81.5221 16.8521C81.5221 13.7201 81.0901 8.89612 78.6781 6.66412C77.1661 5.26012 75.1141 4.68412 73.0981 4.68412H70.0021C69.2821 4.68412 68.7421 5.29612 68.7421 5.94412Z" fill="#4AA9D5"/>
<path d="M44.7661 4.36011L49.2301 24.1601C49.3021 24.4841 49.4101 24.7721 49.7341 24.7721C50.0581 24.7721 50.1661 24.3401 50.2021 24.1241L54.2701 2.81211C54.3781 2.23611 54.8821 1.80411 55.4581 1.80411C56.1421 1.80411 56.7181 2.34411 56.7181 3.02811C56.7181 3.10011 56.6461 3.53211 56.6101 3.71211L51.8941 28.6961C51.5701 30.4241 50.0941 31.5401 48.3661 31.5401C46.5301 31.5401 45.2701 30.4601 44.8741 28.6961L40.4101 8.75211C40.3381 8.42811 40.2661 8.21211 39.9781 8.21211C39.6901 8.21211 39.6181 8.53611 39.5821 8.75211L35.3701 28.8041C35.0101 30.5321 33.5341 31.5401 31.8061 31.5401C30.1141 31.5401 28.6021 30.5681 28.2421 28.7681L23.5621 5.04411C23.4901 4.72011 23.4541 4.50411 23.4541 4.25211C23.4541 2.70411 25.1101 1.80411 26.4781 1.80411C27.9901 1.80411 28.7461 2.56011 29.0341 3.96411L32.8861 24.0161C32.9221 24.2321 32.9941 24.7001 33.3181 24.7001C33.6421 24.7001 33.7141 24.3761 33.7861 24.0161L37.9261 4.36011C38.2861 2.70411 39.9061 1.80411 41.4901 1.80411C43.0741 1.80411 44.4061 2.77611 44.7661 4.36011Z" fill="#4AA9D5"/>
<path d="M5.87053 15.3041H16.9225C17.5705 15.3041 18.1105 15.8081 18.1105 16.4561C18.1105 17.1041 17.5705 17.6081 16.9225 17.6081H5.87053V28.8401C5.87053 30.6041 4.53853 31.5401 3.06253 31.5401C1.55053 31.5401 0.290527 30.5321 0.290527 28.8401V6.12412C0.290527 3.53212 1.80253 2.34412 4.28653 2.34412H18.2185C18.8665 2.34412 19.4065 2.84812 19.4065 3.49612C19.4065 4.14412 18.8665 4.68412 18.2185 4.68412H7.13053C6.48253 4.68412 5.87053 5.29612 5.87053 5.94412V15.3041Z" fill="#4AA9D5"/>
</svg>
