<svg width="117" height="40" viewBox="0 0 117 40" fill="none" xmlns="http://www.w3.org/2000/svg">
<path d="M90.1599 25.7789V37.8895C90.1599 38.6158 89.7605 39.2513 88.7618 39.2513C87.8177 39.2513 87.3456 38.6521 87.3456 37.8895V27.1588C87.3456 27.0499 87.3456 26.9046 87.2003 26.9046C87.164 26.9046 87.0732 26.9046 86.8191 26.9954C86.3833 27.1588 85.4573 27.3404 84.7492 27.3404C84.4042 27.3404 84.1318 27.0499 84.1318 26.7049C84.1318 26.2691 84.4768 26.1239 84.84 26.0512C85.7115 25.8878 86.4922 25.4339 87.1459 24.8529C87.5998 24.4534 87.9811 24.2537 88.5984 24.2537C89.6152 24.2537 90.1599 24.7258 90.1599 25.7789Z" fill="#444444"/>
<path d="M74.4844 30.0457V36.6367C74.4844 37.3266 74.7023 37.944 75.5012 37.944C75.828 37.944 76.0822 37.8713 76.3183 37.7442C76.4454 37.6716 76.518 37.6716 76.5906 37.6716C76.863 37.6716 77.0809 37.9076 77.0809 38.18C77.0809 38.4342 76.9174 38.5795 76.6996 38.7066C76.0641 39.0697 75.3378 39.2513 74.5752 39.2513C72.814 39.2513 71.9061 38.2345 71.9061 36.5096V30.0457H70.7078C70.4173 30.0457 70.1631 29.8097 70.1631 29.5192C70.1631 29.2105 70.4173 28.9745 70.7078 28.9745H71.9061V26.7956C71.9061 26.1057 72.3782 25.5428 73.1953 25.5428C74.0123 25.5428 74.4844 26.0875 74.4844 26.7956V28.9745H76.4272C76.7177 28.9745 76.9719 29.2105 76.9719 29.5192C76.9719 29.8097 76.7177 30.0457 76.4272 30.0457H74.4844Z" fill="#444444"/>
<path d="M59.6681 30.2999C60.4307 29.265 61.393 28.684 62.6822 28.684C65.097 28.684 66.2046 30.2091 66.2046 32.4969V37.9984C66.2046 38.7066 65.8596 39.2513 64.9155 39.2513C63.9531 39.2513 63.6263 38.7066 63.6263 37.9984V32.043C63.6263 30.9536 63.1724 30.0276 61.974 30.0276C60.8846 30.0276 60.0494 30.9354 59.6681 31.8796V37.9984C59.6681 38.7792 59.196 39.2513 58.379 39.2513C57.5801 39.2513 57.0898 38.7792 57.0898 37.9984V29.9186C57.0898 29.2105 57.5438 28.684 58.379 28.684C59.0508 28.684 59.6681 29.1016 59.6681 29.8097V30.2999Z" fill="#444444"/>
<path d="M50.7533 24.2537C51.6611 24.2537 52.4055 24.9981 52.4055 25.906C52.4055 26.7957 51.6611 27.5401 50.7533 27.5401C49.8636 27.5401 49.1191 26.7957 49.1191 25.906C49.1191 24.9981 49.8636 24.2537 50.7533 24.2537ZM52.0424 29.9368V37.9984C52.0424 38.6884 51.7337 39.2513 50.7533 39.2513C49.8817 39.2513 49.4823 38.7066 49.4823 37.9984V29.9368C49.4823 29.2287 49.9362 28.684 50.7533 28.684C51.534 28.684 52.0424 29.1197 52.0424 29.9368Z" fill="#444444"/>
<path d="M40.2063 28.684C43.3293 28.684 45.036 31.008 45.036 33.9676C45.036 36.9453 43.3293 39.2513 40.2063 39.2513C37.0651 39.2513 35.3584 36.9453 35.3584 33.9676C35.3584 31.008 37.0651 28.684 40.2063 28.684ZM40.2063 29.8097C38.1546 29.8097 38.0456 32.4787 38.0456 33.9676C38.0456 35.4565 38.1546 38.1437 40.2063 38.1437C42.2399 38.1437 42.3488 35.4565 42.3488 33.9676C42.3488 32.4787 42.2399 29.8097 40.2063 29.8097Z" fill="#444444"/>
<path d="M24.1922 32.8964V37.8895C24.1922 38.6339 23.7202 39.2513 22.776 39.2513C21.7592 39.2513 21.3779 38.6521 21.3779 37.8895V26.4325C21.3779 25.1252 22.1587 24.526 23.4115 24.526H28.2594C30.8921 24.526 32.726 25.9604 32.726 28.7021C32.726 31.4438 30.8558 32.8964 28.2231 32.8964H24.1922ZM24.1922 31.7343H27.1155C29.0401 31.7343 29.7301 30.4089 29.7301 28.6658C29.7301 26.9409 29.0583 25.7062 27.17 25.7062H24.8459C24.5009 25.7062 24.1922 26.0149 24.1922 26.3417V31.7343Z" fill="#444444"/>
<path d="M109.849 3.52329C109.613 6.33761 109.414 9.17008 108.506 11.8573C107.907 13.6548 107.017 15.6702 104.802 15.6702C101.951 15.6702 100.571 12.5836 100.571 10.1324C100.571 8.18961 101.279 6.26498 102.569 4.83059C104.257 2.92411 106.636 2.0889 109.123 2.0889C113.408 2.0889 116.731 4.43113 116.731 8.97035C116.731 11.6939 115.496 14.0361 113.045 15.3253C112.246 15.7247 110.794 16.2876 109.886 16.2876C109.559 16.2876 109.268 16.0152 109.268 15.6702C109.268 15.3071 109.523 15.1074 109.831 15.0166C110.775 14.7442 111.556 14.2358 112.21 13.5096C113.372 12.2023 114.007 10.3684 114.007 8.64353C114.007 5.75659 112.519 4.30404 109.849 3.52329ZM107.235 3.52329C106.018 4.01353 105.165 4.59455 104.457 5.70212C103.422 7.29992 102.877 9.22455 102.877 11.1129C102.877 11.9299 102.95 12.8015 103.386 13.5096C103.603 13.8909 104.003 14.2722 104.475 14.2722C105.201 14.2722 105.637 13.0193 106.037 11.8391C106.854 9.15192 107.071 6.31945 107.235 3.52329Z" fill="#444444"/>
<path d="M92.5091 2.68807V14.8169H93.3624C93.6893 14.8169 93.9616 15.0711 93.9616 15.3979C93.9616 15.7247 93.6893 15.9789 93.3624 15.9789H83.9209C83.6122 15.9789 83.3398 15.7247 83.3398 15.3979C83.3398 15.0711 83.6122 14.8169 83.9209 14.8169H84.7742V2.68807H83.9209C83.6122 2.68807 83.3398 2.43388 83.3398 2.10705C83.3398 1.78023 83.6122 1.52603 83.9209 1.52603H93.3624C93.6893 1.52603 93.9616 1.78023 93.9616 2.10705C93.9616 2.43388 93.6893 2.68807 93.3624 2.68807H92.5091ZM89.6948 2.68807H87.5886V14.8169H89.6948V2.68807Z" fill="#444444"/>
<path d="M61.7152 8.698C62.2236 8.11698 62.6775 7.53596 63.1314 6.91863C62.6593 6.846 62.4959 6.42839 62.2962 6.0471C61.8604 5.30266 61.3702 4.55823 60.7347 3.95905C60.4442 3.6867 60.3353 3.5596 60.3353 3.34172C60.3353 3.08753 60.5531 2.85149 60.8255 2.85149C61.0071 2.85149 61.6789 3.19647 62.2054 3.54145C62.6049 2.79702 62.9135 2.01627 63.1859 1.23552C63.3493 0.781602 63.6761 0.545563 64.1482 0.545563C64.6929 0.545563 65.51 0.854229 65.51 1.50788C65.51 1.78023 65.165 2.28862 64.7474 2.77886C64.2935 3.30541 63.8214 3.79564 63.3311 4.26772C63.658 4.50376 64.0937 4.79427 64.2934 5.17557C64.6384 4.59455 64.9653 4.01353 65.2921 3.37804C65.4736 3.0149 65.8005 2.81517 66.2181 2.81517C66.7991 2.81517 67.6525 3.19647 67.6525 3.90458C67.6525 4.37666 66.908 5.17557 66.1091 5.99263C65.2376 6.90047 64.3479 7.79016 63.4219 8.64353C64.3116 8.58906 65.1831 8.53459 66.0547 8.4438C65.9639 8.20776 65.6007 7.37255 65.6007 7.19098C65.6007 6.91863 65.8368 6.70074 66.1091 6.70074C66.1999 6.70074 66.3452 6.79153 66.4541 6.88231C66.8717 7.24545 67.2893 7.69937 67.6888 8.15329C68.0519 8.55275 68.6874 9.33349 68.6874 9.76926C68.6874 10.4229 67.9975 10.9495 67.3801 10.9495C66.9262 10.9495 66.672 10.6771 66.5812 10.314C66.4904 9.96898 66.4178 9.66031 66.3452 9.38796C66.0365 9.47875 65.7278 9.55137 65.4192 9.624V16.451C65.4192 17.3225 64.9471 17.5949 64.2934 17.5949C63.7306 17.5949 63.1859 17.3588 63.1859 16.4873V10.1324C62.6956 10.2413 61.0434 10.5863 60.8618 10.5863C60.3716 10.5863 60.0811 9.98714 60.0811 9.58769C60.0811 9.11561 60.3171 8.80694 60.6984 8.73431C60.88 8.698 61.2976 8.698 61.7152 8.698ZM71.1386 4.08615H74.9879C76.2588 4.08615 76.8762 4.6127 76.8762 5.90184C76.8762 8.5709 76.7309 11.5486 76.4222 14.2903C76.2044 16.1786 75.4599 17.377 73.39 17.377H70.7028C70.3942 17.377 70.0855 17.2136 70.0855 16.8686C70.0855 16.5055 70.3942 16.3602 70.7028 16.3602H72.3188C72.918 16.3602 73.2811 16.2513 73.5898 15.7066C73.9348 15.0892 73.9892 14.3085 74.0619 13.6185C74.3524 11.0039 74.3524 8.35302 74.3524 5.73843C74.3524 5.35713 74.2434 5.08478 73.8258 5.08478H70.4123C70.031 5.57502 68.3243 7.55412 67.7796 7.55412C67.5072 7.55412 67.2712 7.33623 67.2712 7.06388C67.2712 6.95494 67.3257 6.86416 67.3983 6.75521C68.4695 5.23004 69.1776 3.37804 69.6497 1.56235C69.8131 0.945013 70.1763 0.636347 70.8118 0.636347C71.4473 0.636347 72.3188 0.963171 72.3188 1.68945C72.3188 2.36125 71.5199 3.52329 71.1386 4.08615ZM72.9724 11.5486C72.9724 12.3112 72.1372 12.9286 71.4291 12.9286C70.7391 12.9286 70.4668 12.5473 70.3397 11.9299C70.0855 10.6771 69.795 9.60584 69.2321 8.46196C69.1595 8.31671 69.0869 8.15329 69.0869 8.04435C69.0869 7.79016 69.3411 7.57227 69.5953 7.57227C70.031 7.57227 71.2112 8.84326 71.5199 9.20639C71.9557 9.67847 72.9724 10.9131 72.9724 11.5486ZM68.869 14.5808C68.869 15.2889 68.1427 15.761 67.5072 15.761C66.6538 15.761 66.6175 15.0892 66.5631 14.254C66.4904 13.3462 66.327 12.402 66.0002 11.5486C65.9639 11.4578 65.9276 11.3671 65.9276 11.2763C65.9276 11.0039 66.1636 10.786 66.436 10.786C66.7809 10.786 67.0896 11.2581 67.4709 11.8391C67.834 12.3657 68.869 13.9998 68.869 14.5808ZM60.6439 16.8323C60.3716 16.8323 60.1355 16.6144 60.1355 16.342C60.1355 16.2513 60.1537 16.1242 60.2082 15.9608C60.5894 14.6898 60.7347 13.4551 60.7347 12.1115C60.7347 11.3852 60.9163 10.9313 61.7152 10.9313C62.278 10.9313 62.9498 11.2036 62.9498 11.8573C62.9498 12.6744 61.4973 16.8323 60.6439 16.8323Z" fill="#444444"/>
<path d="M50.9842 6.35576V4.068H48.2243C47.8975 4.068 47.607 3.92274 47.607 3.55961C47.607 3.21462 47.8794 3.06937 48.2243 3.06937H50.9842V1.94364C50.9842 1.54419 51.0387 1.14474 51.2565 0.908701C51.5107 0.636348 51.8376 0.563721 52.2189 0.563721C52.6546 0.563721 53.0178 0.672662 53.2356 0.981329C53.4172 1.23553 53.4717 1.56235 53.4717 1.94364V3.06937H56.0136C56.3405 3.06937 56.631 3.21462 56.631 3.55961C56.631 3.92274 56.3405 4.068 56.0136 4.068H53.4717V6.35576H56.4676C56.7944 6.35576 57.0849 6.50102 57.0849 6.86416C57.0849 7.20914 56.8307 7.35439 56.4676 7.35439H47.8612C47.4799 7.35439 47.2439 7.20914 47.2439 6.86416C47.2439 6.50102 47.5162 6.35576 47.8612 6.35576H50.9842ZM45.8095 8.9522C45.9366 8.89773 46.2452 8.75247 46.4994 8.62537C46.9352 8.40749 46.9897 8.38933 47.1168 8.38933C47.4073 8.38933 47.6252 8.60722 47.6252 8.89773C47.6252 9.06114 47.5525 9.20639 47.3347 9.36981C46.9897 9.624 46.3542 10.0598 45.8095 10.4229V16.5055C45.8095 16.9049 45.755 17.0683 45.4827 17.3044C45.2829 17.4678 44.9561 17.5767 44.6656 17.5767C44.3206 17.5767 43.8848 17.4315 43.6851 17.1591C43.5943 17.032 43.5399 16.8504 43.5399 16.4873V11.7665C41.706 12.7288 41.4337 12.8559 41.1432 12.8559C40.5803 12.8559 40.1445 12.3838 40.1445 11.821C40.1445 11.3852 40.4714 11.0402 40.8526 10.9131C42.0873 10.4774 42.8317 10.205 43.5399 9.93267V5.55686H42.4505C42.1599 6.55549 41.7968 7.49965 41.3429 8.38933C41.1976 8.67984 41.0705 8.84326 40.78 8.84326C40.4895 8.84326 40.2353 8.62537 40.2353 8.33486C40.2353 8.28039 40.2898 8.06251 40.3261 7.95357C40.4895 7.39071 40.6529 6.73706 40.7437 6.22867C40.9434 5.03031 41.0342 3.66855 41.0342 2.56098C41.0342 2.05258 41.2703 1.54419 42.0692 1.54419C42.632 1.54419 43.0315 1.79839 43.0315 2.45204C43.0315 2.81517 42.8499 3.9409 42.7047 4.54008H43.5399V1.8347C43.5399 1.27184 43.5762 1.07211 43.8304 0.872388C44.0483 0.690818 44.3751 0.600034 44.6656 0.600034C45.065 0.600034 45.5008 0.763446 45.6824 1.0358C45.7732 1.18105 45.8095 1.39894 45.8095 1.81655V4.54008H46.9715C47.3347 4.54008 47.5888 4.70349 47.5888 5.04847C47.5888 5.41161 47.3165 5.55686 46.9715 5.55686H45.8095V8.9522ZM52.7454 10.6226H47.8249C47.4981 10.6226 47.2076 10.4774 47.2076 10.1324C47.2076 9.76926 47.4981 9.624 47.8249 9.624H52.7454V8.84326C52.7454 8.51643 52.818 8.11698 52.9996 7.8991C53.2538 7.60859 53.5806 7.53596 53.9619 7.53596C54.3977 7.53596 54.7427 7.6449 54.9787 7.93541C55.1421 8.13514 55.2147 8.49828 55.2147 8.80694V9.624H56.4676C56.8125 9.624 57.0849 9.76926 57.0849 10.1324C57.0849 10.4774 56.8852 10.6226 56.4676 10.6226H55.2147V15.6521C55.2147 16.8323 54.4521 17.3951 53.3264 17.3951H50.3669C50.0582 17.3951 49.7495 17.2499 49.7495 16.8868C49.7495 16.7415 49.7858 16.6144 49.8948 16.5236C50.0219 16.4147 50.1308 16.3784 50.3669 16.3784H52.0373C52.5638 16.3784 52.7454 16.1605 52.7454 15.6702V10.6226ZM47.6615 11.5123C47.6615 11.2036 47.9157 10.9313 48.2243 10.9313C48.3878 10.9313 49.1503 11.4578 49.9311 12.1841C50.8026 13.0012 51.1476 13.6004 51.1476 13.9817C51.1476 14.7079 50.4576 15.3071 49.7677 15.3071C49.1322 15.3071 48.878 15.0348 48.6601 14.0724C48.4785 13.2917 48.188 12.5291 47.7886 11.821C47.7159 11.6939 47.6615 11.5668 47.6615 11.5123Z" fill="#444444"/>
<path d="M30.3216 2.56098V1.59866C30.3216 0.963172 30.8844 0.563721 31.5744 0.563721C32.3733 0.563721 32.8091 0.999485 32.8091 1.78023V2.56098H35.0424C36.1681 2.56098 36.9307 3.12384 36.9307 4.30404V5.33898C36.9307 6.13788 36.5494 6.48286 35.7868 6.48286C34.9153 6.48286 34.6247 6.02894 34.6247 5.28451V4.10431C34.6247 3.74117 34.4795 3.57776 34.0982 3.57776H29.2685C28.8872 3.57776 28.7419 3.74117 28.7419 4.10431V5.33898C28.7419 6.11972 28.3243 6.48286 27.5799 6.48286C26.6902 6.48286 26.436 5.99263 26.436 5.23004V4.30404C26.436 3.12384 27.1986 2.56098 28.3243 2.56098H30.3216ZM20.6621 16.4873V2.54282C20.6621 1.56235 21.3521 1.1629 22.2599 1.1629H25.4011C26.1818 1.1629 26.7265 1.58051 26.7265 2.36125C26.7265 2.52466 26.7084 2.68808 26.6539 2.83333L24.8745 7.15467C24.82 7.28177 24.8019 7.33624 24.8019 7.39071C24.8019 7.46333 24.8382 7.53596 24.8927 7.60859C25.274 8.17145 25.5645 8.71616 25.8187 9.29718C26.2181 10.1869 26.3997 11.131 26.3997 12.0933C26.3997 12.8559 26.2726 13.7456 25.6189 14.2358C25.274 14.49 24.9108 14.5445 24.4932 14.5445H23.5491C23.2404 14.5445 22.9317 14.3811 22.9317 14.0361C22.9317 13.673 23.2404 13.5277 23.5491 13.5277H23.7125C24.2209 13.5277 24.4024 12.8196 24.4024 11.7484C24.4024 10.2776 23.9485 9.22455 23.313 7.91726C23.2222 7.73569 23.1314 7.53596 23.1314 7.29992C23.1314 7.20914 23.1496 7.11835 23.1678 7.04573L24.3843 2.7607C24.4024 2.68807 24.4569 2.52466 24.4569 2.48835C24.4569 2.27047 24.239 2.17968 24.0574 2.17968H23.2949C22.9317 2.17968 22.8228 2.28862 22.8228 2.65176V16.451C22.8228 17.2317 22.496 17.613 21.7515 17.613C21.0252 17.613 20.6621 17.2499 20.6621 16.4873ZM34.8063 7.40886H28.524C28.1972 7.40886 27.9067 7.24545 27.9067 6.90047C27.9067 6.53733 28.1972 6.39208 28.524 6.39208H34.8063C35.115 6.39208 35.4237 6.53733 35.4237 6.90047C35.4237 7.24545 35.115 7.40886 34.8063 7.40886ZM30.6121 10.4955C30.6121 11.6757 30.5395 12.8378 30.1763 13.909C29.7587 15.1437 28.7601 16.0515 27.6343 16.7052C27.126 16.9957 25.7823 17.5404 25.3284 17.5404C25.0561 17.5404 24.8382 17.3044 24.8382 17.032C24.8382 16.7597 25.0379 16.6144 25.274 16.5055C26.7628 15.87 27.5254 15.0529 27.8704 14.0361C28.1972 13.0557 28.2517 12.1841 28.2517 10.4955H26.9807C26.672 10.4955 26.3634 10.3503 26.3634 9.98714C26.3634 9.64216 26.672 9.4969 26.9807 9.4969H36.4767C36.7854 9.4969 37.0941 9.64216 37.0941 9.98714C37.0941 10.3503 36.7854 10.4955 36.4767 10.4955H33.8622V15.8155C33.8622 16.1786 33.9893 16.2876 34.3524 16.2876H34.5521C35.0424 16.2876 35.1876 16.1968 35.2602 15.7066C35.2966 15.4705 35.3147 15.1618 35.3329 14.7624C35.3692 14.1269 35.5144 13.7638 36.2044 13.7638C36.7854 13.7638 37.2938 13.9635 37.2938 14.6353C37.2938 15.2163 37.2393 15.9426 36.9851 16.4691C36.6402 17.1773 35.9865 17.268 35.2421 17.268H33.1359C32.2462 17.268 31.5381 16.8686 31.5381 15.8881V10.4955H30.6121Z" fill="#444444"/>
<path d="M4.61185 4.68534C4.61185 5.44793 3.86741 6.11974 3.12298 6.11974C2.59643 6.11974 2.28777 5.73844 2.16067 5.26636C1.77937 3.97723 1.28914 2.7244 0.417608 1.63499C0.326824 1.52605 0.272353 1.41711 0.272353 1.29001C0.272353 1.01765 0.508393 0.781616 0.780746 0.781616C1.07126 0.781616 2.08804 1.58052 2.56012 1.99813C3.1593 2.52468 4.61185 3.86828 4.61185 4.68534ZM11.8928 11.5668V13.909C11.8928 14.6353 11.8564 14.8714 11.6567 15.1255C11.457 15.3979 11.2209 15.5068 10.7307 15.5068C10.3857 15.5068 9.98628 15.4161 9.7684 15.1255C9.62314 14.9258 9.55052 14.7987 9.55052 13.909V11.5668H7.82561V14.1632C7.82561 14.8532 7.7893 15.0711 7.60773 15.3253C7.38985 15.6158 7.02671 15.6884 6.69989 15.6884C6.35491 15.6884 5.97361 15.5795 5.75573 15.3071C5.57416 15.0892 5.53785 14.7987 5.53785 14.1632V6.4284C5.53785 5.44793 6.17334 5.04848 7.13565 5.04848H10.2405C9.55052 4.52193 8.86056 4.06801 8.0435 3.63225C7.80746 3.50515 7.57142 3.35989 7.57142 3.03307C7.57142 2.76072 7.7893 2.54283 8.06165 2.54283C8.49742 2.54283 9.87734 3.06938 10.6581 3.37805C10.8215 3.23279 11.802 2.52468 11.802 2.36126C11.802 2.21601 11.6749 2.16154 11.5659 2.16154H5.73757C5.42891 2.16154 5.12024 2.01628 5.12024 1.65315C5.12024 1.29001 5.42891 1.14475 5.73757 1.14475H14.8523C15.2336 1.14475 15.5968 1.38079 15.5968 1.7984C15.5968 2.10707 15.3607 2.30679 15.1065 2.45205C14.1261 3.03307 13.073 3.54146 12.0562 4.0317C12.5282 4.26774 12.8188 4.50378 12.8188 4.90323C12.8188 4.9577 12.8006 4.99401 12.8006 5.04848H14.4166C15.3244 5.04848 16.0144 5.44793 16.0144 6.4284V14.0361C16.0144 15.0166 15.3244 15.4161 14.4166 15.4161H12.8732C12.5646 15.4161 12.2559 15.2708 12.2559 14.9258C12.2559 14.5808 12.5464 14.4174 12.8551 14.4174H13.1819C13.5632 14.4174 13.6721 14.3085 13.6721 13.9454V11.5668H11.8928ZM11.8928 7.79017H13.6721V6.53735C13.6721 6.17421 13.5632 6.04711 13.1819 6.04711H11.8928V7.79017ZM9.55052 7.79017V6.04711H8.29769C7.93455 6.04711 7.82561 6.17421 7.82561 6.53735V7.79017H9.55052ZM4.2124 14.1814C4.35765 15.0711 4.77526 15.6158 5.61048 15.9245C6.40938 16.1968 7.26275 16.2331 8.11612 16.2331H16.5046C16.8133 16.2331 17.1219 16.3784 17.1219 16.7415C17.1219 17.0865 16.8133 17.2317 16.5046 17.2317H7.5351C6.6091 17.2317 5.62863 17.2136 4.73895 16.9049C4.01267 16.6507 3.48612 16.1242 3.05036 15.5068C2.6509 16.0152 2.2333 16.5055 1.76122 16.9412C1.52518 17.1773 1.16204 17.4133 0.889687 17.4133C0.254196 17.4133 0 16.7234 0 16.1786C0 15.5613 0.236039 15.3434 0.635491 15.1437C1.03494 14.944 1.41624 14.7987 1.94279 14.5264V9.8419C1.94279 9.47876 1.83384 9.36982 1.47071 9.36982H0.744432C0.435765 9.36982 0.127098 9.22456 0.127098 8.86143C0.127098 8.51644 0.435765 8.35303 0.744432 8.35303H2.61459C3.52243 8.35303 4.2124 8.77064 4.2124 9.73296V14.1814ZM11.8928 10.55H13.6721V8.7888H11.8928V10.55ZM9.55052 10.55V8.7888H7.82561V10.55H9.55052Z" fill="#444444"/>
</svg>
