<svg width="126" height="40" viewBox="0 0 126 40" fill="none" xmlns="http://www.w3.org/2000/svg">
<path d="M93.9714 25.8152V37.9258C93.9714 38.6521 93.572 39.2876 92.5734 39.2876C91.6292 39.2876 91.1571 38.6884 91.1571 37.9258V27.1951C91.1571 27.0862 91.1571 26.9409 91.0119 26.9409C90.9756 26.9409 90.8848 26.9409 90.6306 27.0317C90.1948 27.1951 89.2688 27.3767 88.5607 27.3767C88.2157 27.3767 87.9434 27.0862 87.9434 26.7412C87.9434 26.3054 88.2883 26.1602 88.6515 26.0875C89.523 25.9241 90.3038 25.4702 90.9574 24.8892C91.4113 24.4897 91.7926 24.29 92.41 24.29C93.4267 24.29 93.9714 24.7621 93.9714 25.8152Z" fill="#444444"/>
<path d="M78.2959 30.082V36.673C78.2959 37.3629 78.5138 37.9803 79.3127 37.9803C79.6396 37.9803 79.8938 37.9077 80.1298 37.7806C80.2569 37.7079 80.3295 37.7079 80.4021 37.7079C80.6745 37.7079 80.8924 37.944 80.8924 38.2163C80.8924 38.4705 80.729 38.6158 80.5111 38.7429C79.8756 39.106 79.1493 39.2876 78.3867 39.2876C76.6255 39.2876 75.7177 38.2708 75.7177 36.5459V30.082H74.5193C74.2288 30.082 73.9746 29.846 73.9746 29.5555C73.9746 29.2468 74.2288 29.0108 74.5193 29.0108H75.7177V26.832C75.7177 26.142 76.1897 25.5791 77.0068 25.5791C77.8239 25.5791 78.2959 26.1238 78.2959 26.832V29.0108H80.2387C80.5292 29.0108 80.7834 29.2468 80.7834 29.5555C80.7834 29.846 80.5292 30.082 80.2387 30.082H78.2959Z" fill="#444444"/>
<path d="M63.4806 30.3362C64.2432 29.3013 65.2055 28.7203 66.4947 28.7203C68.9095 28.7203 70.0171 30.2455 70.0171 32.5332V38.0348C70.0171 38.7429 69.6721 39.2876 68.728 39.2876C67.7656 39.2876 67.4388 38.7429 67.4388 38.0348V32.0793C67.4388 30.9899 66.9849 30.0639 65.7865 30.0639C64.6971 30.0639 63.8619 30.9717 63.4806 31.9159V38.0348C63.4806 38.8155 63.0085 39.2876 62.1915 39.2876C61.3926 39.2876 60.9023 38.8155 60.9023 38.0348V29.9549C60.9023 29.2468 61.3563 28.7203 62.1915 28.7203C62.8633 28.7203 63.4806 29.1379 63.4806 29.846V30.3362Z" fill="#444444"/>
<path d="M54.5648 24.29C55.4726 24.29 56.2171 25.0344 56.2171 25.9423C56.2171 26.832 55.4726 27.5764 54.5648 27.5764C53.6751 27.5764 52.9307 26.832 52.9307 25.9423C52.9307 25.0344 53.6751 24.29 54.5648 24.29ZM55.8539 29.9731V38.0348C55.8539 38.7247 55.5453 39.2876 54.5648 39.2876C53.6933 39.2876 53.2938 38.7429 53.2938 38.0348V29.9731C53.2938 29.265 53.7477 28.7203 54.5648 28.7203C55.3455 28.7203 55.8539 29.1561 55.8539 29.9731Z" fill="#444444"/>
<path d="M44.0178 28.7203C47.1408 28.7203 48.8475 31.0444 48.8475 34.0039C48.8475 36.9817 47.1408 39.2876 44.0178 39.2876C40.8767 39.2876 39.1699 36.9817 39.1699 34.0039C39.1699 31.0444 40.8767 28.7203 44.0178 28.7203ZM44.0178 29.846C41.9661 29.846 41.8571 32.5151 41.8571 34.0039C41.8571 35.4928 41.9661 38.18 44.0178 38.18C46.0514 38.18 46.1603 35.4928 46.1603 34.0039C46.1603 32.5151 46.0514 29.846 44.0178 29.846Z" fill="#444444"/>
<path d="M28.0038 32.9327V37.9258C28.0038 38.6702 27.5317 39.2876 26.5875 39.2876C25.5707 39.2876 25.1895 38.6884 25.1895 37.9258V26.4688C25.1895 25.1615 25.9702 24.5623 27.223 24.5623H32.0709C34.7037 24.5623 36.5375 25.9967 36.5375 28.7384C36.5375 31.4801 34.6673 32.9327 32.0346 32.9327H28.0038ZM28.0038 31.7706H30.927C32.8517 31.7706 33.5416 30.4452 33.5416 28.7021C33.5416 26.9772 32.8698 25.7425 30.9815 25.7425H28.6574C28.3124 25.7425 28.0038 26.0512 28.0038 26.378V31.7706Z" fill="#444444"/>
<path d="M118.78 3.55961C118.544 6.37392 118.344 9.2064 117.437 11.8936C116.837 13.6911 115.948 15.7066 113.733 15.7066C110.882 15.7066 109.502 12.6199 109.502 10.1687C109.502 8.22592 110.21 6.3013 111.499 4.8669C113.188 2.96043 115.566 2.12521 118.054 2.12521C122.339 2.12521 125.662 4.46745 125.662 9.00667C125.662 11.7302 124.427 14.0724 121.976 15.3616C121.177 15.761 119.724 16.3239 118.816 16.3239C118.49 16.3239 118.199 16.0515 118.199 15.7066C118.199 15.3434 118.453 15.1437 118.762 15.0529C119.706 14.7806 120.487 14.2722 121.141 13.5459C122.303 12.2386 122.938 10.4047 122.938 8.67985C122.938 5.7929 121.449 4.34035 118.78 3.55961ZM116.166 3.55961C114.949 4.04984 114.096 4.63086 113.388 5.73843C112.353 7.33624 111.808 9.26087 111.808 11.1492C111.808 11.9662 111.881 12.8378 112.316 13.5459C112.534 13.9272 112.934 14.3085 113.406 14.3085C114.132 14.3085 114.568 13.0557 114.967 11.8755C115.784 9.18824 116.002 6.35577 116.166 3.55961Z" fill="#444444"/>
<path d="M101.44 2.72439V14.8532H102.293C102.62 14.8532 102.892 15.1074 102.892 15.4342C102.892 15.761 102.62 16.0152 102.293 16.0152H92.8515C92.5429 16.0152 92.2705 15.761 92.2705 15.4342C92.2705 15.1074 92.5429 14.8532 92.8515 14.8532H93.7049V2.72439H92.8515C92.5429 2.72439 92.2705 2.47019 92.2705 2.14337C92.2705 1.81654 92.5429 1.56235 92.8515 1.56235H102.293C102.62 1.56235 102.892 1.81654 102.892 2.14337C102.892 2.47019 102.62 2.72439 102.293 2.72439H101.44ZM98.6254 2.72439H96.5192V14.8532H98.6254V2.72439Z" fill="#444444"/>
<path d="M73.3513 9.96898C73.2061 12.2567 72.5343 14.1451 71.1362 15.9608C70.8457 16.3239 69.9197 17.4496 69.4658 17.4496C69.1934 17.4496 68.9574 17.2317 68.9574 16.9594C68.9574 16.8323 68.9755 16.7597 69.1752 16.4691C69.9378 15.3979 70.3736 14.4719 70.6823 13.2009C70.8275 12.5836 70.9365 11.9662 70.9728 11.3307C70.6641 11.6939 70.0831 12.3838 69.5747 12.3838C69.0118 12.3838 68.7939 11.712 68.7939 11.24C68.7939 10.6408 69.0845 10.4592 69.611 10.2413C70.1012 10.0416 70.5733 9.80557 71.0454 9.51506V7.95357C70.882 8.06251 70.7004 8.11698 70.5007 8.11698C69.9741 8.11698 69.8107 7.66306 69.7018 7.24545C69.5202 6.57365 69.266 5.77474 68.9937 5.35714C68.8847 5.17557 68.8121 5.01215 68.8121 4.8669C68.8121 4.59455 69.0481 4.37666 69.3205 4.37666C69.7381 4.37666 70.7549 5.37529 71.0454 5.68396V3.83196C71.0454 2.65176 71.808 2.0889 72.9337 2.0889H76.8556V1.74392C76.8556 1.0358 77.2732 0.545563 78.1084 0.545563C78.7258 0.545563 79.3794 0.963171 79.3794 1.67129V2.0889H85.4075C85.7162 2.0889 86.0248 2.25231 86.0248 2.59729C86.0248 2.96043 85.7162 3.10568 85.4075 3.10568H79.452C79.9967 3.23278 80.4143 3.46882 80.4143 4.10431C80.4143 4.28588 80.3599 4.44929 80.2872 4.63086H85.2985C85.6072 4.63086 85.9159 4.77612 85.9159 5.1211C85.9159 5.48423 85.6072 5.62949 85.2985 5.62949H82.0303C82.3208 6.19235 82.7203 6.70074 83.156 7.15467C83.3921 6.82784 83.5918 6.48286 83.7734 6.13788C83.9005 5.88368 84.1002 5.72027 84.3907 5.72027C84.8446 5.72027 85.4438 6.08341 85.4438 6.5918C85.4438 7.19098 84.427 7.6449 83.9549 7.86278C84.536 8.31671 85.2078 8.73431 85.8796 9.02482C86.1156 9.13377 86.3335 9.27902 86.3335 9.56953C86.3335 9.82373 86.1338 10.0598 85.8614 10.0598C85.4256 10.0598 84.7175 9.7511 84.1183 9.47875C84.1365 9.56953 84.1365 9.66032 84.1365 9.76926V11.9299C84.1365 12.9467 83.4284 13.4551 82.4661 13.4551H80.9046V15.6884C80.9046 16.8686 80.1238 17.4315 79.0163 17.4315H76.8556C76.5469 17.4315 76.2564 17.2862 76.2564 16.9231C76.2564 16.5781 76.5469 16.4147 76.8556 16.4147H77.9813C78.3626 16.4147 78.5079 16.2694 78.5079 15.8881V13.4551H76.8374C75.8751 13.4551 75.167 12.9467 75.167 11.9299V9.58769C74.8039 9.78741 74.0594 10.1687 73.7326 10.1687C73.5874 10.1687 73.4421 10.0779 73.3513 9.96898ZM73.3695 9.3698C73.4058 9.31533 73.551 9.20639 73.6237 9.17008C74.1684 8.87957 74.6768 8.51643 75.1488 8.13514C74.9491 8.00804 74.8765 7.86278 74.7857 7.66306C74.6041 7.24545 74.3863 6.88231 74.1684 6.57365C74.0594 6.42839 74.005 6.31945 74.005 6.21051C74.005 5.97447 74.1684 5.77474 74.4044 5.77474C74.4952 5.77474 74.7312 5.86553 74.9854 5.97447C75.4938 6.19235 76.0567 6.4647 76.3835 6.846C76.6922 6.4647 76.9645 6.06525 77.2006 5.62949H74.2955C73.9868 5.62949 73.6781 5.48423 73.6781 5.1211C73.6781 4.77612 73.9868 4.63086 74.2955 4.63086H77.6545C78.0176 3.5596 78.181 3.25094 78.6894 3.10568H73.896C73.5329 3.10568 73.3695 3.26909 73.3695 3.63223V9.3698ZM79.6518 5.72027C78.9436 6.66443 78.1629 7.49965 77.2369 8.24408H81.994C81.0135 7.53596 80.3054 6.73706 79.6518 5.72027ZM81.8124 10.3321V9.78741C81.8124 9.40612 81.6672 9.24271 81.2859 9.24271H77.9813C77.6182 9.24271 77.4548 9.40612 77.4548 9.78741V10.3321H81.8124ZM81.8124 11.3307H77.4548V11.9118C77.4548 12.2931 77.6182 12.4565 77.9813 12.4565H81.2859C81.6672 12.4565 81.8124 12.2931 81.8124 11.9118V11.3307ZM73.424 17.2317C73.1698 17.2317 72.9337 16.9957 72.9337 16.7233C72.9337 16.5055 73.0427 16.3965 73.3332 16.1786C74.0957 15.6158 74.7494 14.8169 75.2396 14.0543C75.4394 13.7456 75.7117 13.5459 76.093 13.5459C76.6922 13.5459 77.4003 13.9453 77.4003 14.6171C77.4003 15.1618 76.8556 15.525 76.3109 15.8881C75.7662 16.2513 73.9505 17.2317 73.424 17.2317ZM84.3544 17.1409C83.9731 17.1409 83.7552 16.9412 83.5373 16.6326C83.0289 15.87 82.5932 15.3253 81.9577 14.6535C81.8306 14.5082 81.7216 14.3811 81.7216 14.1814C81.7216 13.8909 81.9395 13.6911 82.23 13.6911C82.6476 13.6911 84.3181 14.4537 84.772 14.7079C85.2259 14.9621 85.7525 15.3979 85.7525 15.8881C85.7525 16.5962 85.0262 17.1409 84.3544 17.1409Z" fill="#444444"/>
<path d="M52.2898 2.83334V15.3434C52.2898 15.6521 52.5803 15.9426 52.889 15.9426H65.4354C65.7441 15.9426 66.0527 16.106 66.0527 16.451C66.0527 16.8141 65.7441 16.9594 65.4354 16.9594H51.963C50.6376 16.9594 49.7842 16.2876 49.7842 14.9258V3.25095C49.7842 1.88918 50.6376 1.21738 51.963 1.21738H65.1086C65.4354 1.21738 65.7259 1.38079 65.7259 1.72577C65.7259 2.08891 65.4354 2.23416 65.1086 2.23416H52.889C52.5622 2.23416 52.2898 2.52467 52.2898 2.83334ZM59.2802 11.4034C58.6629 12.3112 57.7732 13.0557 56.8835 13.673C55.9394 14.3266 55.0497 14.8169 53.9239 15.1982C53.7605 15.2526 53.6334 15.2708 53.5608 15.2708C53.2885 15.2708 53.0706 15.0348 53.0706 14.7624C53.0706 14.5082 53.234 14.363 53.4337 14.2722C55.1041 13.5459 56.6112 12.2023 57.3011 10.5137C57.4645 10.1324 57.5553 9.73295 57.6461 9.3335H53.5971C53.2885 9.3335 52.9798 9.18825 52.9798 8.84327C52.9798 8.48013 53.2885 8.33487 53.5971 8.33487H57.7914C57.8821 7.39071 57.8458 6.41024 57.864 5.46609H56.1028C55.7578 5.84738 55.0134 6.64628 54.396 7.15468C54.0874 7.40887 53.815 7.59044 53.6516 7.59044C53.3792 7.59044 53.1432 7.37256 53.1432 7.1002C53.1432 6.95495 53.1977 6.84601 53.2885 6.70075C53.8695 5.7566 54.396 4.64903 54.741 3.59593C54.9589 2.94228 55.1405 2.37942 55.9394 2.37942C56.5385 2.37942 57.3919 2.7244 57.3919 3.43252C57.3919 3.81381 57.1559 4.15879 56.9198 4.4493H63.8013C64.11 4.4493 64.4186 4.59456 64.4186 4.95769C64.4186 5.32083 64.11 5.46609 63.8013 5.46609H60.3878C60.3878 6.41024 60.3696 7.37256 60.297 8.33487H64.6002C64.927 8.33487 65.2175 8.48013 65.2175 8.84327C65.2175 9.18825 64.927 9.3335 64.6002 9.3335H60.8054C61.4954 11.4579 63.1658 13.2191 65.0723 14.2722C65.2901 14.3811 65.4354 14.5264 65.4354 14.7624C65.4354 15.0348 65.2175 15.2708 64.9452 15.2708C64.7818 15.2708 64.4368 15.1619 64.0555 14.9984C63.4926 14.7624 62.8571 14.4537 62.5848 14.3085C61.3138 13.5822 60.1336 12.6017 59.2802 11.4034Z" fill="#444444"/>
<path d="M35.5408 1.56235H39.6806C43.9474 1.56235 45.7813 4.88506 45.7813 8.77063C45.7813 12.7107 43.9838 16.0152 39.6624 16.0152H35.5408C34.2698 16.0152 33.5254 15.4524 33.5254 14.1269V3.46882C33.5254 2.14337 34.288 1.58051 35.5408 1.56235ZM36.3397 3.37804V14.1995C36.3397 14.5445 36.6302 14.8532 36.9752 14.8532H38.5548C39.5535 14.8532 40.6066 14.5808 41.3328 13.8909C42.5857 12.7107 42.7854 10.4955 42.7854 8.87957C42.7854 7.29992 42.5675 4.8669 41.351 3.74117C40.5884 3.03306 39.5535 2.74255 38.5367 2.74255H36.9752C36.6121 2.74255 36.3397 3.05121 36.3397 3.37804Z" fill="#444444"/>
<path d="M23.3397 2.57915L25.5911 12.5654C25.6275 12.7288 25.6819 12.8741 25.8453 12.8741C26.0088 12.8741 26.0632 12.6562 26.0814 12.5473L28.1331 1.7984C28.1876 1.50789 28.4418 1.29001 28.7323 1.29001C29.0773 1.29001 29.3678 1.56236 29.3678 1.90734C29.3678 1.94366 29.3315 2.16154 29.3133 2.25232L26.9348 14.8532C26.7713 15.7247 26.0269 16.2876 25.1554 16.2876C24.2294 16.2876 23.5939 15.7429 23.3942 14.8532L21.1427 4.79429C21.1064 4.63087 21.0701 4.52193 20.9248 4.52193C20.7796 4.52193 20.7433 4.68535 20.7251 4.79429L18.6007 14.9077C18.4192 15.7792 17.6747 16.2876 16.8032 16.2876C15.9498 16.2876 15.1873 15.7974 15.0057 14.8895L12.6453 2.92413C12.609 2.76072 12.5908 2.65177 12.5908 2.52468C12.5908 1.74393 13.426 1.29001 14.116 1.29001C14.8786 1.29001 15.2599 1.6713 15.4051 2.37942L17.3479 12.4928C17.3661 12.6017 17.4024 12.8378 17.5658 12.8378C17.7292 12.8378 17.7655 12.6744 17.8018 12.4928L19.8899 2.57915C20.0715 1.74393 20.8885 1.29001 21.6874 1.29001C22.4863 1.29001 23.1581 1.78024 23.3397 2.57915Z" fill="#444444"/>
<path d="M2.81432 8.09882H8.38848C8.7153 8.09882 8.98765 8.35302 8.98765 8.67984C8.98765 9.00667 8.7153 9.26086 8.38848 9.26086H2.81432V14.9258C2.81432 15.8155 2.14251 16.2876 1.39808 16.2876C0.635491 16.2876 0 15.7792 0 14.9258V3.46882C0 2.16153 0.762589 1.56235 2.01541 1.56235H9.04212C9.36895 1.56235 9.6413 1.81654 9.6413 2.14337C9.6413 2.47019 9.36895 2.74255 9.04212 2.74255H3.44981C3.12298 2.74255 2.81432 3.05121 2.81432 3.37804V8.09882Z" fill="#444444"/>
</svg>
