<svg width="74" height="16" viewBox="0 0 74 16" fill="none" xmlns="http://www.w3.org/2000/svg">
<path d="M66.0184 14.1248H73.0633C73.3901 14.1248 73.6625 14.379 73.6625 14.7058C73.6625 15.0327 73.3901 15.2869 73.0633 15.2869H63.313C62.7683 15.2869 62.2236 14.9782 62.2236 14.379C62.2236 13.5075 62.9499 12.1639 63.4765 11.4921C64.6748 9.96689 66.3452 8.91379 67.9975 7.96964C69.4138 7.17073 70.6666 6.37183 70.6666 4.5743C70.6666 2.92202 69.7587 1.74183 68.052 1.74183C67.3802 1.74183 66.6902 1.88708 66.1818 2.35916C65.6553 2.83124 65.3103 3.59383 65.3103 4.30195C65.3103 4.51983 65.3285 4.66508 65.3466 4.81034C65.3648 4.93744 65.3829 5.11901 65.3829 5.17348C65.3829 6.04501 64.6203 6.49893 63.8214 6.49893C63.077 6.49893 62.3144 6.08132 62.3144 5.26426C62.3144 4.33826 62.7502 3.35779 63.2949 2.63151C64.4751 1.07002 66.4179 0.56163 68.288 0.56163C71.0116 0.56163 73.608 1.72367 73.608 4.8285C73.608 7.53387 71.3747 8.85932 68.7964 10.3119C67.6707 10.9474 65.51 12.2365 65.51 13.7072C65.51 13.9977 65.7461 14.1248 66.0184 14.1248Z" fill="#444444"/>
<path d="M53.9561 6.35367V12.9446C53.9561 13.6346 54.174 14.2519 54.9729 14.2519C55.2997 14.2519 55.5539 14.1793 55.7899 14.0522C55.917 13.9796 55.9897 13.9796 56.0623 13.9796C56.3347 13.9796 56.5525 14.2156 56.5525 14.488C56.5525 14.7422 56.3891 14.8874 56.1712 15.0145C55.5358 15.3776 54.8095 15.5592 54.0469 15.5592C52.2857 15.5592 51.3778 14.5424 51.3778 12.8175V6.35367H50.1795C49.889 6.35367 49.6348 6.11763 49.6348 5.82712C49.6348 5.51846 49.889 5.28242 50.1795 5.28242H51.3778V3.10359C51.3778 2.41363 51.8499 1.85077 52.667 1.85077C53.484 1.85077 53.9561 2.39547 53.9561 3.10359V5.28242H55.8989C56.1894 5.28242 56.4436 5.51846 56.4436 5.82712C56.4436 6.11763 56.1894 6.35367 55.8989 6.35367H53.9561Z" fill="#444444"/>
<path d="M39.1403 6.60788C39.9029 5.57293 40.8652 4.99191 42.1543 4.99191C44.5692 4.99191 45.6768 6.51709 45.6768 8.80486V14.3064C45.6768 15.0145 45.3318 15.5592 44.3876 15.5592C43.4253 15.5592 43.0985 15.0145 43.0985 14.3064V8.35093C43.0985 7.26152 42.6446 6.33552 41.4462 6.33552C40.3568 6.33552 39.5216 7.24337 39.1403 8.18752V14.3064C39.1403 15.0871 38.6682 15.5592 37.8512 15.5592C37.0522 15.5592 36.562 15.0871 36.562 14.3064V6.22658C36.562 5.51846 37.0159 4.99191 37.8512 4.99191C38.523 4.99191 39.1403 5.40952 39.1403 6.11764V6.60788Z" fill="#444444"/>
<path d="M30.2249 0.56163C31.1328 0.56163 31.8772 1.30606 31.8772 2.21391C31.8772 3.10359 31.1328 3.84802 30.2249 3.84802C29.3353 3.84802 28.5908 3.10359 28.5908 2.21391C28.5908 1.30606 29.3353 0.56163 30.2249 0.56163ZM31.5141 6.24473V14.3064C31.5141 14.9963 31.2054 15.5592 30.2249 15.5592C29.3534 15.5592 28.954 15.0145 28.954 14.3064V6.24473C28.954 5.53662 29.4079 4.99191 30.2249 4.99191C31.0057 4.99191 31.5141 5.42767 31.5141 6.24473Z" fill="#444444"/>
<path d="M19.678 4.99191C22.8009 4.99191 24.5077 7.31599 24.5077 10.2756C24.5077 13.2533 22.8009 15.5592 19.678 15.5592C16.5368 15.5592 14.8301 13.2533 14.8301 10.2756C14.8301 7.31599 16.5368 4.99191 19.678 4.99191ZM19.678 6.11764C17.6262 6.11764 17.5173 8.7867 17.5173 10.2756C17.5173 11.7644 17.6262 14.4516 19.678 14.4516C21.7115 14.4516 21.8205 11.7644 21.8205 10.2756C21.8205 8.7867 21.7115 6.11764 19.678 6.11764Z" fill="#444444"/>
<path d="M3.66393 9.2043V14.1974C3.66393 14.9419 3.19185 15.5592 2.24769 15.5592C1.2309 15.5592 0.849609 14.96 0.849609 14.1974V2.74046C0.849609 1.43316 1.63036 0.833984 2.88318 0.833984H7.73107C10.3638 0.833984 12.1977 2.26838 12.1977 5.01007C12.1977 7.75175 10.3275 9.2043 7.69475 9.2043H3.66393ZM3.66393 8.04226H6.58718C8.51181 8.04226 9.20177 6.71681 9.20177 4.97375C9.20177 3.24885 8.52997 2.01418 6.64165 2.01418H4.31757C3.97259 2.01418 3.66393 2.32285 3.66393 2.64967V8.04226Z" fill="#444444"/>
</svg>
