<svg width="70" height="16" viewBox="0 0 70 16" fill="none" xmlns="http://www.w3.org/2000/svg">
<path d="M69.6316 1.54114V13.6518C69.6316 14.3781 69.2321 15.0135 68.2335 15.0135C67.2894 15.0135 66.8173 14.4144 66.8173 13.6518V2.92106C66.8173 2.81212 66.8173 2.66687 66.672 2.66687C66.6357 2.66687 66.5449 2.66687 66.2907 2.75765C65.855 2.92106 64.929 3.10263 64.2208 3.10263C63.8759 3.10263 63.6035 2.81212 63.6035 2.46714C63.6035 2.03137 63.9485 1.88612 64.3116 1.81349C65.1832 1.65008 65.9639 1.19616 66.6176 0.615138C67.0715 0.215687 67.4528 0.0159607 68.0701 0.0159607C69.0869 0.0159607 69.6316 0.48804 69.6316 1.54114Z" fill="#444444"/>
<path d="M53.9561 5.80802V12.399C53.9561 13.0889 54.174 13.7063 54.9729 13.7063C55.2997 13.7063 55.5539 13.6336 55.7899 13.5065C55.917 13.4339 55.9897 13.4339 56.0623 13.4339C56.3347 13.4339 56.5525 13.6699 56.5525 13.9423C56.5525 14.1965 56.3891 14.3418 56.1712 14.4689C55.5358 14.832 54.8095 15.0136 54.0469 15.0136C52.2857 15.0136 51.3778 13.9968 51.3778 12.2719V5.80802H50.1795C49.889 5.80802 49.6348 5.57198 49.6348 5.28147C49.6348 4.9728 49.889 4.73676 50.1795 4.73676H51.3778V2.55794C51.3778 1.86798 51.8499 1.30511 52.667 1.30511C53.484 1.30511 53.9561 1.84982 53.9561 2.55794V4.73676H55.8989C56.1894 4.73676 56.4436 4.9728 56.4436 5.28147C56.4436 5.57198 56.1894 5.80802 55.8989 5.80802H53.9561Z" fill="#444444"/>
<path d="M39.1403 6.06219C39.9029 5.02725 40.8652 4.44623 42.1543 4.44623C44.5692 4.44623 45.6768 5.97141 45.6768 8.25917V13.7607C45.6768 14.4688 45.3318 15.0135 44.3876 15.0135C43.4253 15.0135 43.0985 14.4688 43.0985 13.7607V7.80525C43.0985 6.71584 42.6446 5.78984 41.4462 5.78984C40.3568 5.78984 39.5216 6.69768 39.1403 7.64184V13.7607C39.1403 14.5415 38.6682 15.0135 37.8512 15.0135C37.0522 15.0135 36.562 14.5415 36.562 13.7607V5.6809C36.562 4.97278 37.0159 4.44623 37.8512 4.44623C38.523 4.44623 39.1403 4.86384 39.1403 5.57196V6.06219Z" fill="#444444"/>
<path d="M30.2249 0.0159607C31.1328 0.0159607 31.8772 0.760393 31.8772 1.66824C31.8772 2.55792 31.1328 3.30236 30.2249 3.30236C29.3353 3.30236 28.5908 2.55792 28.5908 1.66824C28.5908 0.760393 29.3353 0.0159607 30.2249 0.0159607ZM31.5141 5.69906V13.7607C31.5141 14.4507 31.2054 15.0135 30.2249 15.0135C29.3534 15.0135 28.954 14.4688 28.954 13.7607V5.69906C28.954 4.99095 29.4079 4.44624 30.2249 4.44624C31.0057 4.44624 31.5141 4.882 31.5141 5.69906Z" fill="#444444"/>
<path d="M19.678 4.44623C22.8009 4.44623 24.5077 6.77031 24.5077 9.72988C24.5077 12.7076 22.8009 15.0135 19.678 15.0135C16.5368 15.0135 14.8301 12.7076 14.8301 9.72988C14.8301 6.77031 16.5368 4.44623 19.678 4.44623ZM19.678 5.57196C17.6262 5.57196 17.5173 8.24102 17.5173 9.72988C17.5173 11.2187 17.6262 13.906 19.678 13.906C21.7115 13.906 21.8205 11.2187 21.8205 9.72988C21.8205 8.24102 21.7115 5.57196 19.678 5.57196Z" fill="#444444"/>
<path d="M3.66393 8.65862V13.6518C3.66393 14.3962 3.19185 15.0135 2.24769 15.0135C1.2309 15.0135 0.849609 14.4143 0.849609 13.6518V2.19477C0.849609 0.887477 1.63036 0.2883 2.88318 0.2883H7.73107C10.3638 0.2883 12.1977 1.72269 12.1977 4.46438C12.1977 7.20607 10.3275 8.65862 7.69475 8.65862H3.66393ZM3.66393 7.49658H6.58718C8.51181 7.49658 9.20177 6.17113 9.20177 4.42807C9.20177 2.70316 8.52997 1.4685 6.64165 1.4685H4.31757C3.97259 1.4685 3.66393 1.77716 3.66393 2.10399V7.49658Z" fill="#444444"/>
</svg>
