<svg width="20" height="12" viewBox="0 0 20 12" fill="none" xmlns="http://www.w3.org/2000/svg">
<path d="M18.7531 2.58709L10.6474 10.6928C10.5344 10.8062 10.4002 10.8961 10.2524 10.9575C10.1046 11.0189 9.94615 11.0504 9.78612 11.0504C9.6261 11.0504 9.46765 11.0189 9.31986 10.9575C9.17207 10.8961 9.03784 10.8062 8.92489 10.6928L0.819138 2.58709C0.590724 2.35867 0.462402 2.04888 0.462402 1.72585C0.462402 1.40282 0.590724 1.09303 0.819138 0.864615C1.04755 0.636201 1.35735 0.50788 1.68037 0.50788C2.0034 0.50788 2.3132 0.636201 2.54161 0.864615L9.78714 8.11014L17.0327 0.863602C17.2611 0.635189 17.5709 0.506866 17.8939 0.506866C18.2169 0.506866 18.5267 0.635189 18.7551 0.863602C18.9835 1.09202 19.1119 1.40181 19.1119 1.72484C19.1119 2.04786 18.9835 2.35766 18.7551 2.58607L18.7531 2.58709Z" fill="#444444"/>
</svg>
