<svg width="662" height="191" viewBox="0 0 662 191" fill="none" xmlns="http://www.w3.org/2000/svg">
<path d="M226.086 84.4138V77.6195C226.086 73.1327 230.06 70.3124 234.931 70.3124C240.572 70.3124 243.648 73.3891 243.648 78.9014V84.4138H259.416C267.364 84.4138 272.749 88.3879 272.749 96.7206V104.028C272.749 109.668 270.057 112.104 264.672 112.104C258.519 112.104 256.468 108.899 256.468 103.643V95.3104C256.468 92.7465 255.442 91.5928 252.75 91.5928H218.65C215.958 91.5928 214.933 92.7465 214.933 95.3104V104.028C214.933 109.54 211.984 112.104 206.728 112.104C200.447 112.104 198.652 108.643 198.652 103.259V96.7206C198.652 88.3879 204.036 84.4138 211.984 84.4138H226.086ZM157.886 182.74V84.2856C157.886 77.3631 162.757 74.5428 169.167 74.5428H191.345C196.857 74.5428 200.703 77.4913 200.703 83.0037C200.703 84.1574 200.575 85.3112 200.19 86.3368L187.627 116.847C187.242 117.745 187.114 118.129 187.114 118.514C187.114 119.027 187.371 119.539 187.755 120.052C190.447 124.026 192.498 127.872 194.293 131.974C197.113 138.256 198.395 144.922 198.395 151.716C198.395 157.1 197.498 163.382 192.883 166.843C190.447 168.638 187.883 169.023 184.935 169.023H178.269C176.089 169.023 173.91 167.869 173.91 165.433C173.91 162.869 176.089 161.844 178.269 161.844H179.423C183.012 161.844 184.294 156.844 184.294 149.281C184.294 138.897 181.089 131.461 176.602 122.231C175.961 120.949 175.32 119.539 175.32 117.873C175.32 117.232 175.448 116.591 175.577 116.078L184.166 85.824C184.294 85.3112 184.679 84.1574 184.679 83.9011C184.679 82.3627 183.14 81.7217 181.858 81.7217H176.474C173.91 81.7217 173.141 82.4909 173.141 85.0548V182.483C173.141 187.996 170.833 190.688 165.577 190.688C160.45 190.688 157.886 188.124 157.886 182.74ZM257.75 118.642H213.394C211.087 118.642 209.036 117.488 209.036 115.052C209.036 112.489 211.087 111.463 213.394 111.463H257.75C259.929 111.463 262.108 112.489 262.108 115.052C262.108 117.488 259.929 118.642 257.75 118.642ZM228.137 140.435C228.137 148.768 227.624 156.972 225.06 164.536C222.112 173.253 215.061 179.663 207.113 184.278C203.523 186.329 194.037 190.175 190.832 190.175C188.909 190.175 187.371 188.508 187.371 186.585C187.371 184.662 188.781 183.637 190.447 182.868C200.959 178.381 206.344 172.612 208.779 165.433C211.087 158.511 211.471 152.357 211.471 140.435H202.498C200.318 140.435 198.139 139.41 198.139 136.846C198.139 134.41 200.318 133.384 202.498 133.384H269.544C271.723 133.384 273.902 134.41 273.902 136.846C273.902 139.41 271.723 140.435 269.544 140.435H251.084V177.996C251.084 180.56 251.981 181.329 254.545 181.329H255.955C259.416 181.329 260.442 180.688 260.955 177.227C261.211 175.561 261.339 173.381 261.467 170.561C261.724 166.074 262.749 163.51 267.621 163.51C271.723 163.51 275.313 164.92 275.313 169.664C275.313 173.766 274.928 178.894 273.133 182.611C270.697 187.611 266.082 188.252 260.826 188.252H245.956C239.674 188.252 234.675 185.432 234.675 178.509V140.435H228.137Z" fill="white"/>
<path d="M67.3799 136.461C59.3036 154.28 48.1507 168.253 31.4853 178.765C21.7424 184.919 12.6406 189.021 10.3331 189.021C8.53834 189.021 7 187.226 7 185.432C7 183.893 7.64098 182.74 10.4613 181.458C27.383 173.509 40.0744 158.382 49.048 139.794C54.945 127.616 58.7908 106.463 58.7908 96.336V84.2856C58.7908 81.7217 57.7653 80.568 55.0732 80.568H33.6646C31.4853 80.568 29.306 79.5424 29.306 77.1067C29.306 74.5428 31.4853 73.5172 33.6646 73.5172H64.0469C71.9949 73.5172 77.3791 77.4913 77.3791 85.824V97.6179C77.3791 116.206 81.4814 133.513 91.096 149.665C99.1723 163.126 110.71 174.791 124.94 181.586C126.606 182.355 128.144 183.381 128.144 185.303C128.144 187.226 126.606 188.893 124.683 188.893C123.914 188.893 122.247 188.252 119.684 187.098C109.172 182.483 104.685 179.535 96.352 173.509C82.8915 163.767 73.6615 151.844 67.3799 136.461Z" fill="white"/>
<path d="M356.594 124.321L356.935 124.33C360.436 124.507 363.222 127.402 363.222 130.948C363.222 134.494 360.436 137.389 356.935 137.566L356.594 137.575H310.939C307.279 137.575 304.312 134.608 304.312 130.948C304.312 127.288 307.279 124.321 310.939 124.321H356.594Z" fill="white"/>
<path d="M328.035 107.673L328.044 107.333C328.221 103.831 331.116 101.045 334.662 101.045C338.208 101.045 341.103 103.831 341.28 107.333L341.289 107.673V153.328C341.289 156.988 338.322 159.955 334.662 159.955C331.002 159.955 328.035 156.988 328.035 153.328V107.673Z" fill="white"/>
<path d="M612.713 84.4149V77.6207C612.713 73.1339 616.687 70.3137 621.558 70.3137C627.199 70.3137 630.275 73.3903 630.275 78.9026V84.4149H646.043C653.991 84.4149 659.375 88.3888 659.375 96.7213V104.028C659.375 109.669 656.683 112.104 651.299 112.104C645.146 112.104 643.095 108.9 643.095 103.644V95.3112C643.095 92.7474 642.069 91.5936 639.377 91.5936H605.278C602.586 91.5936 601.56 92.7474 601.56 95.3112V104.028C601.56 109.541 598.612 112.104 593.356 112.104C587.075 112.104 585.28 108.643 585.28 103.259V96.7213C585.28 88.3888 590.664 84.4149 598.612 84.4149H612.713ZM544.515 182.738V84.2867C544.515 77.3643 549.386 74.544 555.796 74.544H577.973C583.485 74.544 587.331 77.4925 587.331 83.0047C587.331 84.1585 587.203 85.3122 586.818 86.3377L574.255 116.848C573.871 117.745 573.743 118.129 573.743 118.514C573.743 119.027 573.999 119.54 574.383 120.052C577.076 124.026 579.127 127.872 580.921 131.974C583.741 138.256 585.023 144.922 585.023 151.716C585.023 157.1 584.126 163.381 579.511 166.843C577.075 168.637 574.512 169.022 571.563 169.022H564.897C562.718 169.022 560.539 167.868 560.539 165.432C560.539 162.869 562.718 161.843 564.897 161.843H566.051C569.64 161.843 570.922 156.844 570.922 149.28C570.922 138.897 567.717 131.461 563.231 122.232C562.59 120.95 561.949 119.54 561.949 117.873C561.949 117.232 562.077 116.591 562.205 116.078L570.794 85.825C570.922 85.3122 571.307 84.1585 571.307 83.9021C571.307 82.3638 569.769 81.7228 568.487 81.7228H563.103C560.539 81.7228 559.77 82.492 559.77 85.0558V182.482C559.77 187.994 557.462 190.686 552.206 190.686C547.078 190.686 544.515 188.122 544.515 182.738ZM644.376 118.642H600.022C597.714 118.642 595.663 117.488 595.663 115.053C595.663 112.489 597.714 111.463 600.022 111.463H644.376C646.556 111.463 648.735 112.489 648.735 115.053C648.735 117.488 646.556 118.642 644.376 118.642ZM614.764 140.435C614.764 148.767 614.251 156.972 611.687 164.535C608.739 173.252 601.688 179.662 593.741 184.277C590.151 186.328 580.665 190.174 577.46 190.174C575.537 190.174 573.999 188.507 573.999 186.584C573.999 184.661 575.409 183.636 577.076 182.867C587.587 178.38 592.971 172.611 595.407 165.432C597.714 158.51 598.099 152.357 598.099 140.435H589.126C586.946 140.435 584.767 139.409 584.767 136.846C584.767 134.41 586.946 133.384 589.126 133.384H656.17C658.349 133.384 660.529 134.41 660.529 136.846C660.529 139.409 658.349 140.435 656.17 140.435H637.71V177.995C637.71 180.559 638.608 181.328 641.172 181.328H642.582C646.043 181.328 647.069 180.687 647.581 177.226C647.838 175.56 647.966 173.38 648.094 170.56C648.35 166.073 649.376 163.51 654.247 163.51C658.349 163.51 661.939 164.92 661.939 169.663C661.939 173.765 661.554 178.893 659.76 182.61C657.324 187.61 652.709 188.251 647.453 188.251H632.583C626.301 188.251 621.302 185.43 621.302 178.508V140.435H614.764Z" fill="white"/>
<path d="M424.783 99.4134C424.783 104.797 419.527 109.541 414.271 109.541C410.553 109.541 408.374 106.849 407.477 103.516C404.785 94.4139 401.323 85.5686 395.17 77.877C394.529 77.1079 394.145 76.3387 394.145 75.4414C394.145 73.5185 395.811 71.852 397.734 71.852C399.785 71.852 406.964 77.4925 410.297 80.4409C414.527 84.1585 424.783 93.6447 424.783 99.4134ZM476.188 147.998V164.535C476.188 169.663 475.931 171.329 474.521 173.124C473.111 175.047 471.445 175.816 467.983 175.816C465.548 175.816 462.727 175.175 461.189 173.124C460.164 171.714 459.651 170.816 459.651 164.535V147.998H447.473V166.33C447.473 171.201 447.216 172.739 445.934 174.534C444.396 176.585 441.832 177.098 439.525 177.098C437.089 177.098 434.397 176.329 432.859 174.406C431.577 172.868 431.32 170.816 431.32 166.33V111.72C431.32 104.797 435.807 101.977 442.601 101.977H464.522C459.651 98.2596 454.78 95.0548 449.011 91.9782C447.344 91.0809 445.678 90.0553 445.678 87.7479C445.678 85.825 447.216 84.2867 449.139 84.2867C452.216 84.2867 461.958 88.0042 467.471 90.1835C468.624 89.158 475.547 84.1585 475.547 83.0047C475.547 81.9792 474.649 81.5946 473.88 81.5946H432.73C430.551 81.5946 428.372 80.5691 428.372 78.0052C428.372 75.4414 430.551 74.4159 432.73 74.4159H497.083C499.775 74.4159 502.339 76.0824 502.339 79.0308C502.339 81.21 500.672 82.6202 498.878 83.6457C491.955 87.7479 484.52 91.3372 477.341 94.7984C480.674 96.4649 482.725 98.1314 482.725 100.952C482.725 101.336 482.597 101.593 482.597 101.977H494.006C500.416 101.977 505.287 104.797 505.287 111.72V165.432C505.287 172.355 500.416 175.175 494.006 175.175H483.11C480.931 175.175 478.752 174.149 478.752 171.714C478.752 169.278 480.803 168.124 482.982 168.124H485.289C487.981 168.124 488.751 167.355 488.751 164.791V147.998H476.188ZM476.188 121.334H488.751V112.489C488.751 109.925 487.981 109.028 485.289 109.028H476.188V121.334ZM459.651 121.334V109.028H450.806C448.242 109.028 447.473 109.925 447.473 112.489V121.334H459.651ZM421.962 166.458C422.988 172.739 425.936 176.585 431.833 178.764C437.474 180.687 443.499 180.944 449.524 180.944H508.749C510.928 180.944 513.107 181.969 513.107 184.533C513.107 186.969 510.928 187.994 508.749 187.994H445.422C438.884 187.994 431.961 187.866 425.68 185.687C420.552 183.892 416.835 180.175 413.758 175.816C410.938 179.405 407.989 182.867 404.656 185.943C402.99 187.61 400.426 189.276 398.503 189.276C394.016 189.276 392.222 184.405 392.222 180.559C392.222 176.201 393.888 174.662 396.708 173.252C399.529 171.842 402.221 170.816 405.938 168.894V135.82C405.938 133.256 405.169 132.487 402.605 132.487H397.478C395.298 132.487 393.119 131.461 393.119 128.898C393.119 126.462 395.298 125.308 397.478 125.308H410.681C417.091 125.308 421.962 128.257 421.962 135.051V166.458ZM476.188 140.819H488.751V128.385H476.188V140.819ZM459.651 140.819V128.385H447.473V140.819H459.651Z" fill="white"/>
<path d="M219.086 84.4138V77.6195C219.086 73.1327 223.06 70.3124 227.931 70.3124C233.572 70.3124 236.648 73.3891 236.648 78.9014V84.4138H252.416C260.364 84.4138 265.749 88.3879 265.749 96.7206V104.028C265.749 109.668 263.057 112.104 257.672 112.104C251.519 112.104 249.468 108.899 249.468 103.643V95.3104C249.468 92.7465 248.442 91.5928 245.75 91.5928H211.65C208.958 91.5928 207.933 92.7465 207.933 95.3104V104.028C207.933 109.54 204.984 112.104 199.728 112.104C193.447 112.104 191.652 108.643 191.652 103.259V96.7206C191.652 88.3879 197.036 84.4138 204.984 84.4138H219.086ZM150.886 182.74V84.2856C150.886 77.3631 155.757 74.5428 162.167 74.5428H184.345C189.857 74.5428 193.703 77.4913 193.703 83.0037C193.703 84.1574 193.575 85.3112 193.19 86.3368L180.627 116.847C180.242 117.745 180.114 118.129 180.114 118.514C180.114 119.027 180.371 119.539 180.755 120.052C183.447 124.026 185.498 127.872 187.293 131.974C190.113 138.256 191.395 144.922 191.395 151.716C191.395 157.1 190.498 163.382 185.883 166.843C183.447 168.638 180.883 169.023 177.935 169.023H171.269C169.089 169.023 166.91 167.869 166.91 165.433C166.91 162.869 169.089 161.844 171.269 161.844H172.423C176.012 161.844 177.294 156.844 177.294 149.281C177.294 138.897 174.089 131.461 169.602 122.231C168.961 120.949 168.32 119.539 168.32 117.873C168.32 117.232 168.448 116.591 168.577 116.078L177.166 85.824C177.294 85.3112 177.679 84.1574 177.679 83.9011C177.679 82.3627 176.14 81.7217 174.858 81.7217H169.474C166.91 81.7217 166.141 82.4909 166.141 85.0548V182.483C166.141 187.996 163.833 190.688 158.577 190.688C153.45 190.688 150.886 188.124 150.886 182.74ZM250.75 118.642H206.394C204.087 118.642 202.036 117.488 202.036 115.052C202.036 112.489 204.087 111.463 206.394 111.463H250.75C252.929 111.463 255.108 112.489 255.108 115.052C255.108 117.488 252.929 118.642 250.75 118.642ZM221.137 140.435C221.137 148.768 220.624 156.972 218.06 164.536C215.112 173.253 208.061 179.663 200.113 184.278C196.523 186.329 187.037 190.175 183.832 190.175C181.909 190.175 180.371 188.508 180.371 186.585C180.371 184.662 181.781 183.637 183.447 182.868C193.959 178.381 199.344 172.612 201.779 165.433C204.087 158.511 204.471 152.357 204.471 140.435H195.498C193.318 140.435 191.139 139.41 191.139 136.846C191.139 134.41 193.318 133.384 195.498 133.384H262.544C264.723 133.384 266.902 134.41 266.902 136.846C266.902 139.41 264.723 140.435 262.544 140.435H244.084V177.996C244.084 180.56 244.981 181.329 247.545 181.329H248.955C252.416 181.329 253.442 180.688 253.955 177.227C254.211 175.561 254.339 173.381 254.467 170.561C254.724 166.074 255.749 163.51 260.621 163.51C264.723 163.51 268.313 164.92 268.313 169.664C268.313 173.766 267.928 178.894 266.133 182.611C263.697 187.611 259.082 188.252 253.826 188.252H238.956C232.674 188.252 227.675 185.432 227.675 178.509V140.435H221.137Z" fill="#4AA9D5"/>
<path d="M60.3799 136.461C52.3036 154.28 41.1507 168.253 24.4853 178.765C14.7424 184.919 5.64059 189.021 3.33307 189.021C1.53834 189.021 0 187.226 0 185.432C0 183.893 0.640976 182.74 3.46127 181.458C20.383 173.509 33.0744 158.382 42.048 139.794C47.945 127.616 51.7908 106.463 51.7908 96.336V84.2856C51.7908 81.7217 50.7653 80.568 48.0732 80.568H26.6646C24.4853 80.568 22.306 79.5424 22.306 77.1067C22.306 74.5428 24.4853 73.5172 26.6646 73.5172H57.0469C64.9949 73.5172 70.3791 77.4913 70.3791 85.824V97.6179C70.3791 116.206 74.4814 133.513 84.096 149.665C92.1723 163.126 103.71 174.791 117.94 181.586C119.606 182.355 121.144 183.381 121.144 185.303C121.144 187.226 119.606 188.893 117.683 188.893C116.914 188.893 115.247 188.252 112.684 187.098C102.172 182.483 97.6847 179.535 89.352 173.509C75.8915 163.767 66.6615 151.844 60.3799 136.461Z" fill="#4AA9D5"/>
<path d="M349.594 124.321L349.935 124.33C353.436 124.507 356.222 127.402 356.222 130.948C356.222 134.494 353.436 137.389 349.935 137.566L349.594 137.575H303.939C300.279 137.575 297.312 134.608 297.312 130.948C297.312 127.288 300.279 124.321 303.939 124.321H349.594Z" fill="#F49105"/>
<path d="M321.035 107.673L321.044 107.333C321.221 103.831 324.116 101.045 327.662 101.045C331.208 101.045 334.103 103.831 334.28 107.333L334.289 107.673V153.328C334.289 156.988 331.322 159.955 327.662 159.955C324.002 159.955 321.035 156.988 321.035 153.328V107.673Z" fill="#F49105"/>
<path d="M605.713 84.4149V77.6207C605.713 73.1339 609.687 70.3137 614.558 70.3137C620.199 70.3137 623.275 73.3903 623.275 78.9026V84.4149H639.043C646.991 84.4149 652.375 88.3888 652.375 96.7213V104.028C652.375 109.669 649.683 112.104 644.299 112.104C638.146 112.104 636.095 108.9 636.095 103.644V95.3112C636.095 92.7474 635.069 91.5936 632.377 91.5936H598.278C595.586 91.5936 594.56 92.7474 594.56 95.3112V104.028C594.56 109.541 591.612 112.104 586.356 112.104C580.075 112.104 578.28 108.643 578.28 103.259V96.7213C578.28 88.3888 583.664 84.4149 591.612 84.4149H605.713ZM537.515 182.738V84.2867C537.515 77.3643 542.386 74.544 548.796 74.544H570.973C576.485 74.544 580.331 77.4925 580.331 83.0047C580.331 84.1585 580.203 85.3122 579.818 86.3377L567.255 116.848C566.871 117.745 566.743 118.129 566.743 118.514C566.743 119.027 566.999 119.54 567.383 120.052C570.076 124.026 572.127 127.872 573.921 131.974C576.741 138.256 578.023 144.922 578.023 151.716C578.023 157.1 577.126 163.381 572.511 166.843C570.075 168.637 567.512 169.022 564.563 169.022H557.897C555.718 169.022 553.539 167.868 553.539 165.432C553.539 162.869 555.718 161.843 557.897 161.843H559.051C562.64 161.843 563.922 156.844 563.922 149.28C563.922 138.897 560.717 131.461 556.231 122.232C555.59 120.95 554.949 119.54 554.949 117.873C554.949 117.232 555.077 116.591 555.205 116.078L563.794 85.825C563.922 85.3122 564.307 84.1585 564.307 83.9021C564.307 82.3638 562.769 81.7228 561.487 81.7228H556.103C553.539 81.7228 552.77 82.492 552.77 85.0558V182.482C552.77 187.994 550.462 190.686 545.206 190.686C540.078 190.686 537.515 188.122 537.515 182.738ZM637.376 118.642H593.022C590.714 118.642 588.663 117.488 588.663 115.053C588.663 112.489 590.714 111.463 593.022 111.463H637.376C639.556 111.463 641.735 112.489 641.735 115.053C641.735 117.488 639.556 118.642 637.376 118.642ZM607.764 140.435C607.764 148.767 607.251 156.972 604.687 164.535C601.739 173.252 594.688 179.662 586.741 184.277C583.151 186.328 573.665 190.174 570.46 190.174C568.537 190.174 566.999 188.507 566.999 186.584C566.999 184.661 568.409 183.636 570.076 182.867C580.587 178.38 585.971 172.611 588.407 165.432C590.714 158.51 591.099 152.357 591.099 140.435H582.126C579.946 140.435 577.767 139.409 577.767 136.846C577.767 134.41 579.946 133.384 582.126 133.384H649.17C651.349 133.384 653.529 134.41 653.529 136.846C653.529 139.409 651.349 140.435 649.17 140.435H630.71V177.995C630.71 180.559 631.608 181.328 634.172 181.328H635.582C639.043 181.328 640.069 180.687 640.581 177.226C640.838 175.56 640.966 173.38 641.094 170.56C641.35 166.073 642.376 163.51 647.247 163.51C651.349 163.51 654.939 164.92 654.939 169.663C654.939 173.765 654.554 178.893 652.76 182.61C650.324 187.61 645.709 188.251 640.453 188.251H625.583C619.301 188.251 614.302 185.43 614.302 178.508V140.435H607.764Z" fill="#F49105"/>
<path d="M417.783 99.4134C417.783 104.797 412.527 109.541 407.271 109.541C403.553 109.541 401.374 106.849 400.477 103.516C397.785 94.4139 394.323 85.5686 388.17 77.877C387.529 77.1079 387.145 76.3387 387.145 75.4414C387.145 73.5185 388.811 71.852 390.734 71.852C392.785 71.852 399.964 77.4925 403.297 80.4409C407.527 84.1585 417.783 93.6447 417.783 99.4134ZM469.188 147.998V164.535C469.188 169.663 468.931 171.329 467.521 173.124C466.111 175.047 464.445 175.816 460.983 175.816C458.548 175.816 455.727 175.175 454.189 173.124C453.164 171.714 452.651 170.816 452.651 164.535V147.998H440.473V166.33C440.473 171.201 440.216 172.739 438.934 174.534C437.396 176.585 434.832 177.098 432.525 177.098C430.089 177.098 427.397 176.329 425.859 174.406C424.577 172.868 424.32 170.816 424.32 166.33V111.72C424.32 104.797 428.807 101.977 435.601 101.977H457.522C452.651 98.2596 447.78 95.0548 442.011 91.9782C440.344 91.0809 438.678 90.0553 438.678 87.7479C438.678 85.825 440.216 84.2867 442.139 84.2867C445.216 84.2867 454.958 88.0042 460.471 90.1835C461.624 89.158 468.547 84.1585 468.547 83.0047C468.547 81.9792 467.649 81.5946 466.88 81.5946H425.73C423.551 81.5946 421.372 80.5691 421.372 78.0052C421.372 75.4414 423.551 74.4159 425.73 74.4159H490.083C492.775 74.4159 495.339 76.0824 495.339 79.0308C495.339 81.21 493.672 82.6202 491.878 83.6457C484.955 87.7479 477.52 91.3372 470.341 94.7984C473.674 96.4649 475.725 98.1314 475.725 100.952C475.725 101.336 475.597 101.593 475.597 101.977H487.006C493.416 101.977 498.287 104.797 498.287 111.72V165.432C498.287 172.355 493.416 175.175 487.006 175.175H476.11C473.931 175.175 471.752 174.149 471.752 171.714C471.752 169.278 473.803 168.124 475.982 168.124H478.289C480.981 168.124 481.751 167.355 481.751 164.791V147.998H469.188ZM469.188 121.334H481.751V112.489C481.751 109.925 480.981 109.028 478.289 109.028H469.188V121.334ZM452.651 121.334V109.028H443.806C441.242 109.028 440.473 109.925 440.473 112.489V121.334H452.651ZM414.962 166.458C415.988 172.739 418.936 176.585 424.833 178.764C430.474 180.687 436.499 180.944 442.524 180.944H501.749C503.928 180.944 506.107 181.969 506.107 184.533C506.107 186.969 503.928 187.994 501.749 187.994H438.422C431.884 187.994 424.961 187.866 418.68 185.687C413.552 183.892 409.835 180.175 406.758 175.816C403.938 179.405 400.989 182.867 397.656 185.943C395.99 187.61 393.426 189.276 391.503 189.276C387.016 189.276 385.222 184.405 385.222 180.559C385.222 176.201 386.888 174.662 389.708 173.252C392.529 171.842 395.221 170.816 398.938 168.894V135.82C398.938 133.256 398.169 132.487 395.605 132.487H390.478C388.298 132.487 386.119 131.461 386.119 128.898C386.119 126.462 388.298 125.308 390.478 125.308H403.681C410.091 125.308 414.962 128.257 414.962 135.051V166.458ZM469.188 140.819H481.751V128.385H469.188V140.819ZM452.651 140.819V128.385H440.473V140.819H452.651Z" fill="#F49105"/>
<path d="M620.595 2.562H629.753V5.792H623.749V36.23H620.595V2.562ZM628.689 2.562H629.297L629.829 2.41L632.223 3.816C631.868 4.88 631.463 6.03266 631.007 7.274C630.576 8.49 630.133 9.706 629.677 10.922C629.221 12.1127 628.777 13.2273 628.347 14.266C629.74 15.7353 630.652 17.1287 631.083 18.446C631.539 19.738 631.767 20.954 631.767 22.094C631.767 23.1833 631.64 24.1207 631.387 24.906C631.133 25.666 630.703 26.2613 630.095 26.692C629.816 26.8947 629.487 27.0593 629.107 27.186C628.752 27.2873 628.385 27.3633 628.005 27.414C627.194 27.5153 626.282 27.5407 625.269 27.49C625.243 27.034 625.155 26.502 625.003 25.894C624.876 25.286 624.686 24.7667 624.433 24.336C624.863 24.3613 625.256 24.3867 625.611 24.412C625.965 24.412 626.282 24.3993 626.561 24.374C627.067 24.3487 627.473 24.2347 627.777 24.032C628.081 23.8547 628.283 23.5633 628.385 23.158C628.486 22.7273 628.537 22.2207 628.537 21.638C628.537 20.7007 628.296 19.6493 627.815 18.484C627.359 17.3187 626.485 16.052 625.193 14.684C625.522 13.7973 625.851 12.8473 626.181 11.834C626.51 10.7953 626.827 9.76933 627.131 8.756C627.46 7.74266 627.751 6.79266 628.005 5.906C628.283 4.994 628.511 4.22133 628.689 3.588V2.562ZM635.491 9.896H650.083V12.898H635.491V9.896ZM642.597 4.044C641.887 5.08266 640.988 6.14666 639.899 7.236C638.809 8.32533 637.593 9.364 636.251 10.352C634.908 11.3147 633.527 12.1633 632.109 12.898C631.931 12.4673 631.665 11.9607 631.311 11.378C630.981 10.7953 630.665 10.3267 630.361 9.972C631.805 9.31333 633.198 8.50266 634.541 7.54C635.883 6.552 637.099 5.488 638.189 4.348C639.303 3.18266 640.177 2.05533 640.811 0.965996H644.117C645.029 2.15666 646.067 3.30933 647.233 4.424C648.423 5.51333 649.69 6.50133 651.033 7.388C652.375 8.24933 653.705 8.946 655.023 9.478C654.693 9.88333 654.351 10.3773 653.997 10.96C653.667 11.5427 653.389 12.0873 653.161 12.594C651.869 11.9607 650.564 11.188 649.247 10.276C647.929 9.33866 646.688 8.338 645.523 7.274C644.383 6.18466 643.407 5.108 642.597 4.044ZM636.099 18.598V22.968H649.361V18.598H636.099ZM632.945 15.786H652.629V25.818H632.945V15.786ZM640.963 11.644H644.231V21.562C644.231 22.9553 644.079 24.3613 643.775 25.78C643.471 27.1733 642.901 28.5287 642.065 29.846C641.229 31.138 640 32.3413 638.379 33.456C636.783 34.596 634.693 35.5713 632.109 36.382C632.007 36.1287 631.83 35.8247 631.577 35.47C631.349 35.1407 631.108 34.8113 630.855 34.482C630.601 34.1527 630.373 33.8993 630.171 33.722C632.577 32.962 634.503 32.126 635.947 31.214C637.391 30.2767 638.467 29.276 639.177 28.212C639.886 27.148 640.355 26.046 640.583 24.906C640.836 23.766 640.963 22.626 640.963 21.486V11.644ZM644.611 24.184C645.371 26.084 646.245 27.6167 647.233 28.782C648.221 29.9473 649.335 30.8847 650.577 31.594C651.843 32.278 653.249 32.8607 654.795 33.342C654.364 33.722 653.946 34.178 653.541 34.71C653.161 35.2673 652.882 35.8247 652.705 36.382C650.982 35.7233 649.437 34.938 648.069 34.026C646.701 33.114 645.472 31.9233 644.383 30.454C643.319 28.9847 642.381 27.11 641.571 24.83L644.611 24.184Z" fill="#4AA9D5"/>
<path d="M601.747 14.152H605.357V36.192H601.747V14.152ZM591.145 19.358H615.693V22.626H591.145V19.358ZM606.193 20.764C606.928 22.208 607.865 23.6393 609.005 25.058C610.145 26.4513 611.386 27.7433 612.729 28.934C614.072 30.0993 615.414 31.062 616.757 31.822C616.478 32.05 616.174 32.3287 615.845 32.658C615.516 32.9873 615.212 33.3293 614.933 33.684C614.654 34.064 614.414 34.3933 614.211 34.672C612.843 33.76 611.488 32.62 610.145 31.252C608.802 29.8587 607.561 28.3513 606.421 26.73C605.281 25.1087 604.293 23.4493 603.457 21.752L606.193 20.764ZM601.101 20.46L603.951 21.486C603.09 23.234 602.051 24.944 600.835 26.616C599.619 28.288 598.289 29.808 596.845 31.176C595.401 32.544 593.919 33.684 592.399 34.596C592.222 34.292 591.981 33.9627 591.677 33.608C591.398 33.2787 591.107 32.9493 590.803 32.62C590.499 32.2653 590.208 31.974 589.929 31.746C591.398 31.0113 592.842 30.0487 594.261 28.858C595.705 27.642 597.01 26.312 598.175 24.868C599.366 23.424 600.341 21.9547 601.101 20.46ZM597.225 5.83V11.986H610.107V5.83H597.225ZM593.843 2.676H613.679V15.216H593.843V2.676ZM589.435 1.004L592.779 2.106C591.943 4.234 590.955 6.362 589.815 8.49C588.675 10.5927 587.446 12.5687 586.129 14.418C584.812 16.2673 583.456 17.914 582.063 19.358C581.936 19.054 581.759 18.674 581.531 18.218C581.303 17.762 581.05 17.306 580.771 16.85C580.518 16.394 580.29 16.014 580.087 15.71C581.328 14.5193 582.519 13.1513 583.659 11.606C584.824 10.0353 585.901 8.35067 586.889 6.552C587.877 4.728 588.726 2.87867 589.435 1.004ZM585.597 11.112L589.017 7.73L589.055 7.768V36.078H585.597V11.112Z" fill="#4AA9D5"/>
<path d="M552.536 10.276H577.046V13.05H552.536V10.276ZM552.422 15.064L554.322 13.468C555.006 13.8733 555.741 14.38 556.526 14.988C557.312 15.5707 557.92 16.09 558.35 16.546L556.374 18.332C555.944 17.876 555.348 17.344 554.588 16.736C553.854 16.1027 553.132 15.5453 552.422 15.064ZM568.496 29.656L571.194 28.288C571.904 28.8453 572.613 29.4787 573.322 30.188C574.057 30.872 574.741 31.556 575.374 32.24C576.008 32.924 576.514 33.5573 576.894 34.14L574.044 35.698C573.69 35.1407 573.208 34.5073 572.6 33.798C571.992 33.0887 571.334 32.3793 570.624 31.67C569.915 30.9353 569.206 30.264 568.496 29.656ZM558.768 23.31V25.286H569.902V23.31H558.768ZM558.768 19.244V21.182H569.902V19.244H558.768ZM555.69 17.002H573.056V27.528H555.69V17.002ZM556.032 28.212L559.262 29.124C558.553 30.3653 557.641 31.5687 556.526 32.734C555.437 33.874 554.335 34.8367 553.22 35.622C553.043 35.4193 552.79 35.1787 552.46 34.9C552.156 34.6467 551.827 34.3807 551.472 34.102C551.143 33.8487 550.839 33.646 550.56 33.494C551.65 32.8353 552.676 32.0373 553.638 31.1C554.626 30.1627 555.424 29.2 556.032 28.212ZM574.462 13.202L576.59 14.722C575.982 15.33 575.324 15.9127 574.614 16.47C573.93 17.0273 573.297 17.496 572.714 17.876L570.814 16.47C571.397 16.0393 572.043 15.5073 572.752 14.874C573.462 14.2153 574.032 13.658 574.462 13.202ZM568.268 11.378C568.902 12.518 569.712 13.62 570.7 14.684C571.714 15.748 572.828 16.698 574.044 17.534C575.286 18.3447 576.565 18.9907 577.882 19.472C577.528 19.776 577.148 20.1813 576.742 20.688C576.337 21.1693 576.02 21.6127 575.792 22.018C574.399 21.3847 573.056 20.574 571.764 19.586C570.498 18.598 569.332 17.4833 568.268 16.242C567.23 14.9753 566.343 13.658 565.608 12.29L568.268 11.378ZM562.568 26.274H566.026V32.924C566.026 33.7093 565.925 34.3173 565.722 34.748C565.545 35.204 565.152 35.546 564.544 35.774C563.962 36.002 563.24 36.1413 562.378 36.192C561.542 36.2427 560.529 36.268 559.338 36.268C559.237 35.812 559.072 35.3053 558.844 34.748C558.616 34.216 558.401 33.7473 558.198 33.342C559.034 33.3673 559.807 33.38 560.516 33.38C561.226 33.38 561.707 33.3673 561.96 33.342C562.188 33.342 562.34 33.304 562.416 33.228C562.518 33.152 562.568 33.0127 562.568 32.81V26.274ZM561.96 7.31199L565.342 7.72999C564.734 9.57933 563.898 11.3907 562.834 13.164C561.77 14.912 560.415 16.5587 558.768 18.104C557.147 19.6493 555.184 21.0173 552.878 22.208C552.65 21.8027 552.321 21.372 551.89 20.916C551.46 20.4347 551.054 20.08 550.674 19.852C552.853 18.8133 554.702 17.6227 556.222 16.28C557.742 14.912 558.971 13.4553 559.908 11.91C560.871 10.3647 561.555 8.83199 561.96 7.31199ZM549.42 4.23399H577.426V7.31199H549.42V4.23399ZM547.672 4.23399H550.978V16.508C550.978 18.0027 550.902 19.624 550.75 21.372C550.624 23.0947 550.37 24.8427 549.99 26.616C549.61 28.3893 549.053 30.0993 548.318 31.746C547.584 33.3927 546.621 34.8747 545.43 36.192C545.278 35.964 545.038 35.6853 544.708 35.356C544.404 35.052 544.088 34.748 543.758 34.444C543.454 34.1653 543.176 33.9627 542.922 33.836C544.012 32.5947 544.873 31.2647 545.506 29.846C546.14 28.402 546.608 26.92 546.912 25.4C547.216 23.8547 547.419 22.3347 547.52 20.84C547.622 19.32 547.672 17.876 547.672 16.508V4.23399ZM559.87 0.927994H563.67V6.01999H559.87V0.927994ZM542.314 8.67999L544.936 7.61599C545.519 8.80666 546.038 10.0987 546.494 11.492C546.95 12.86 547.242 14.0253 547.368 14.988L544.556 16.242C544.48 15.5833 544.328 14.8233 544.1 13.962C543.898 13.0753 543.632 12.176 543.302 11.264C542.998 10.352 542.669 9.49066 542.314 8.67999ZM541.82 22.284C542.682 21.904 543.695 21.41 544.86 20.802C546.051 20.194 547.28 19.5733 548.546 18.94L549.382 21.638C548.318 22.322 547.229 22.9933 546.114 23.652C545.025 24.2853 543.974 24.906 542.96 25.514L541.82 22.284Z" fill="#4AA9D5"/>
<path d="M516.551 9.972H535.475V13.012H516.551V9.972ZM511.497 16.85H537.185V19.966H511.497V16.85ZM522.327 11.112H525.899V17.23C525.899 18.3953 525.734 19.5607 525.405 20.726C525.076 21.866 524.48 22.9933 523.619 24.108C522.758 25.2227 521.516 26.274 519.895 27.262C518.274 28.2247 516.146 29.0987 513.511 29.884C513.359 29.6307 513.156 29.3393 512.903 29.01C512.65 28.6807 512.384 28.3513 512.105 28.022C511.826 27.6927 511.56 27.4267 511.307 27.224C513.764 26.5907 515.728 25.8813 517.197 25.096C518.692 24.2853 519.794 23.4367 520.503 22.55C521.238 21.638 521.719 20.726 521.947 19.814C522.2 18.902 522.327 18.028 522.327 17.192V11.112ZM516.855 6.59L520.237 7.388C519.553 9.06 518.666 10.6433 517.577 12.138C516.513 13.6327 515.398 14.8867 514.233 15.9C514.005 15.7227 513.701 15.52 513.321 15.292C512.966 15.064 512.599 14.8487 512.219 14.646C511.864 14.418 511.535 14.2407 511.231 14.114C512.447 13.202 513.549 12.0873 514.537 10.77C515.525 9.42733 516.298 8.034 516.855 6.59ZM525.785 18.826C526.697 20.9793 528.154 22.7273 530.155 24.07C532.156 25.3873 534.652 26.2867 537.641 26.768C537.261 27.1227 536.856 27.5913 536.425 28.174C536.02 28.7567 535.703 29.2887 535.475 29.77C532.232 29.0607 529.56 27.8573 527.457 26.16C525.38 24.4627 523.796 22.246 522.707 19.51L525.785 18.826ZM505.911 2.866H537.983V6.324H509.483V36.192H505.911V2.866ZM508.115 31.062H538.857V34.52H508.115V31.062Z" fill="#4AA9D5"/>
<path d="M472.888 4.576C473.37 4.62666 473.876 4.66466 474.408 4.68999C474.966 4.71533 475.472 4.728 475.928 4.728C476.308 4.728 476.916 4.728 477.752 4.728C478.614 4.70266 479.576 4.67733 480.64 4.65199C481.73 4.62666 482.806 4.60133 483.87 4.576C484.934 4.52533 485.884 4.47466 486.72 4.424C487.582 4.37333 488.215 4.33533 488.62 4.30999C489.304 4.25933 489.824 4.20866 490.178 4.15799C490.558 4.10733 490.85 4.044 491.052 3.96799L493.142 6.704C492.762 6.95733 492.37 7.21066 491.964 7.46399C491.559 7.71733 491.154 8.00866 490.748 8.338C490.267 8.69266 489.634 9.18666 488.848 9.82C488.088 10.428 487.265 11.112 486.378 11.872C485.492 12.6067 484.618 13.3287 483.756 14.038C482.895 14.7473 482.122 15.3807 481.438 15.938C482.198 15.6847 482.958 15.52 483.718 15.444C484.478 15.3427 485.238 15.292 485.998 15.292C488.101 15.292 489.988 15.6973 491.66 16.508C493.332 17.3187 494.65 18.408 495.612 19.776C496.575 21.144 497.056 22.7273 497.056 24.526C497.056 26.5273 496.524 28.3133 495.46 29.884C494.422 31.4547 492.902 32.6833 490.9 33.57C488.924 34.4567 486.518 34.9 483.68 34.9C481.932 34.9 480.4 34.6593 479.082 34.178C477.765 33.6967 476.739 33.0253 476.004 32.164C475.295 31.2773 474.94 30.264 474.94 29.124C474.94 28.1867 475.194 27.3127 475.7 26.502C476.232 25.666 476.967 25.0073 477.904 24.526C478.867 24.0193 479.969 23.766 481.21 23.766C482.933 23.766 484.364 24.1207 485.504 24.83C486.67 25.514 487.556 26.426 488.164 27.566C488.798 28.706 489.14 29.9473 489.19 31.29L485.732 31.784C485.656 30.264 485.213 29.0227 484.402 28.06C483.617 27.0973 482.553 26.616 481.21 26.616C480.4 26.616 479.728 26.8313 479.196 27.262C478.69 27.6927 478.436 28.1993 478.436 28.782C478.436 29.618 478.854 30.2767 479.69 30.758C480.552 31.2393 481.654 31.48 482.996 31.48C485.15 31.48 486.986 31.214 488.506 30.682C490.026 30.1247 491.179 29.3267 491.964 28.288C492.75 27.224 493.142 25.9447 493.142 24.45C493.142 23.2593 492.788 22.1953 492.078 21.258C491.369 20.3207 490.394 19.5987 489.152 19.092C487.911 18.56 486.492 18.294 484.896 18.294C483.376 18.294 481.983 18.4713 480.716 18.826C479.475 19.1553 478.31 19.6493 477.22 20.308C476.131 20.9413 475.054 21.7393 473.99 22.702C472.952 23.6393 471.875 24.716 470.76 25.932L467.986 23.12C468.746 22.512 469.582 21.828 470.494 21.068C471.406 20.308 472.318 19.548 473.23 18.788C474.168 18.0027 475.042 17.268 475.852 16.584C476.688 15.8747 477.385 15.292 477.942 14.836C478.474 14.4053 479.12 13.886 479.88 13.278C480.64 12.6447 481.426 11.986 482.236 11.302C483.047 10.618 483.82 9.972 484.554 9.364C485.289 8.73066 485.897 8.19866 486.378 7.768C485.973 7.79333 485.416 7.81866 484.706 7.84399C483.997 7.86933 483.212 7.90733 482.35 7.958C481.514 7.98333 480.666 8.02133 479.804 8.072C478.943 8.09733 478.158 8.13533 477.448 8.186C476.739 8.21133 476.194 8.23666 475.814 8.262C475.358 8.28733 474.877 8.32533 474.37 8.376C473.889 8.40133 473.433 8.43933 473.002 8.49L472.888 4.576Z" fill="#4AA9D5"/>
<path d="M433.085 6.43799C435.796 6.74199 438.342 6.91933 440.723 6.96999C443.105 7.02066 445.283 6.97 447.259 6.818C448.881 6.66599 450.464 6.43799 452.009 6.134C453.58 5.82999 455.1 5.43733 456.569 4.95599L457.063 8.414C455.771 8.794 454.34 9.136 452.769 9.44C451.199 9.71866 449.628 9.934 448.057 10.086C446.107 10.238 443.852 10.314 441.293 10.314C438.76 10.2887 436.1 10.1493 433.313 9.89599L433.085 6.43799ZM432.363 14.304C434.593 14.5067 436.746 14.646 438.823 14.722C440.926 14.798 442.915 14.798 444.789 14.722C446.664 14.646 448.349 14.5193 449.843 14.342C451.743 14.1647 453.428 13.9113 454.897 13.582C456.392 13.2527 457.671 12.9233 458.735 12.594L459.343 16.166C458.254 16.4447 457.013 16.7233 455.619 17.002C454.226 17.2553 452.744 17.4707 451.173 17.648C449.603 17.8253 447.791 17.9647 445.739 18.066C443.687 18.142 441.534 18.1673 439.279 18.142C437.025 18.0913 434.783 17.99 432.553 17.838L432.363 14.304ZM445.207 6.58999C445.055 5.95666 444.878 5.336 444.675 4.728C444.473 4.09466 444.257 3.46133 444.029 2.828L448.095 2.37199C448.222 3.48666 448.412 4.62666 448.665 5.792C448.944 6.932 449.248 8.04666 449.577 9.136C449.907 10.2 450.223 11.2007 450.527 12.138C450.857 13.0753 451.262 14.1013 451.743 15.216C452.225 16.3307 452.757 17.4327 453.339 18.522C453.922 19.6113 454.517 20.6247 455.125 21.562C455.353 21.8913 455.594 22.208 455.847 22.512C456.101 22.7907 456.379 23.0693 456.683 23.348L454.783 26.16C454.074 25.9827 453.213 25.8307 452.199 25.704C451.211 25.552 450.185 25.4127 449.121 25.286C448.083 25.1593 447.107 25.058 446.195 24.982L446.499 22.094C447.411 22.17 448.374 22.2587 449.387 22.36C450.401 22.4613 451.199 22.55 451.781 22.626C450.743 20.9793 449.843 19.3073 449.083 17.61C448.323 15.9127 447.677 14.3293 447.145 12.86C446.841 11.9733 446.575 11.1753 446.347 10.466C446.119 9.75666 445.917 9.09799 445.739 8.49C445.562 7.85666 445.385 7.22333 445.207 6.58999ZM438.671 22.74C438.215 23.3987 437.823 24.07 437.493 24.754C437.189 25.4127 437.037 26.16 437.037 26.996C437.037 28.4907 437.721 29.6053 439.089 30.34C440.457 31.0493 442.535 31.404 445.321 31.404C447.095 31.404 448.741 31.3407 450.261 31.214C451.781 31.062 453.225 30.8467 454.593 30.568L454.403 34.406C453.086 34.6087 451.642 34.7733 450.071 34.9C448.526 35.0267 446.955 35.09 445.359 35.09C442.851 35.09 440.711 34.824 438.937 34.292C437.164 33.7853 435.796 33 434.833 31.936C433.871 30.8467 433.377 29.4407 433.351 27.718C433.351 26.578 433.503 25.5647 433.807 24.678C434.111 23.766 434.491 22.8793 434.947 22.018L438.671 22.74Z" fill="#4AA9D5"/>
<path d="M390.98 7.54C391.715 7.51467 392.386 7.48933 392.994 7.464C393.628 7.41333 394.134 7.37533 394.514 7.35C395.198 7.274 396.11 7.18533 397.25 7.084C398.416 6.95733 399.733 6.83067 401.202 6.704C402.672 6.57733 404.242 6.438 405.914 6.286C407.586 6.134 409.296 5.982 411.044 5.83C412.387 5.72867 413.692 5.64 414.958 5.564C416.25 5.46267 417.454 5.38667 418.568 5.336C419.683 5.26 420.671 5.20933 421.532 5.184V9.022C420.823 8.99667 420.012 8.99667 419.1 9.022C418.214 9.04733 417.327 9.098 416.44 9.174C415.579 9.25 414.806 9.37667 414.122 9.554C412.881 9.934 411.741 10.5293 410.702 11.34C409.664 12.1507 408.764 13.088 408.004 14.152C407.27 15.216 406.7 16.3433 406.294 17.534C405.914 18.7247 405.724 19.8773 405.724 20.992C405.724 22.3853 405.952 23.6013 406.408 24.64C406.89 25.6533 407.548 26.5273 408.384 27.262C409.22 27.9713 410.183 28.5667 411.272 29.048C412.362 29.504 413.514 29.846 414.73 30.074C415.972 30.302 417.213 30.4413 418.454 30.492L417.086 34.558C415.592 34.482 414.11 34.254 412.64 33.874C411.171 33.5193 409.79 33.0127 408.498 32.354C407.206 31.67 406.054 30.8213 405.04 29.808C404.052 28.7947 403.267 27.6293 402.684 26.312C402.127 24.9947 401.848 23.5 401.848 21.828C401.848 19.9027 402.165 18.1293 402.798 16.508C403.457 14.8867 404.28 13.4807 405.268 12.29C406.256 11.074 407.27 10.1367 408.308 9.478C407.548 9.554 406.611 9.65533 405.496 9.782C404.382 9.88333 403.178 10.01 401.886 10.162C400.62 10.314 399.34 10.4787 398.048 10.656C396.756 10.808 395.528 10.9727 394.362 11.15C393.222 11.3273 392.222 11.5047 391.36 11.682L390.98 7.54ZM416.06 13.24C416.364 13.6707 416.706 14.2027 417.086 14.836C417.466 15.444 417.846 16.0773 418.226 16.736C418.606 17.3693 418.923 17.952 419.176 18.484L416.82 19.548C416.364 18.5853 415.883 17.6607 415.376 16.774C414.895 15.8873 414.363 15.0387 413.78 14.228L416.06 13.24ZM420.278 11.606C420.582 12.0367 420.937 12.556 421.342 13.164C421.748 13.7467 422.14 14.3547 422.52 14.988C422.9 15.6213 423.23 16.2167 423.508 16.774L421.19 17.876C420.684 16.9133 420.177 16.014 419.67 15.178C419.164 14.3167 418.606 13.468 417.998 12.632L420.278 11.606Z" fill="#4AA9D5"/>
<path d="M353.437 16.052C353.867 16.0773 354.387 16.1153 354.995 16.166C355.628 16.1913 356.299 16.2167 357.009 16.242C357.743 16.2673 358.44 16.28 359.099 16.28C359.605 16.28 360.302 16.28 361.189 16.28C362.075 16.28 363.076 16.28 364.191 16.28C365.331 16.28 366.521 16.28 367.763 16.28C369.004 16.28 370.233 16.28 371.449 16.28C372.69 16.28 373.855 16.28 374.945 16.28C376.034 16.28 376.997 16.28 377.833 16.28C378.669 16.28 379.315 16.28 379.771 16.28C380.683 16.28 381.506 16.2547 382.241 16.204C382.975 16.128 383.571 16.0773 384.027 16.052V20.764C383.596 20.7387 382.988 20.7007 382.203 20.65C381.417 20.5993 380.607 20.574 379.771 20.574C379.34 20.574 378.694 20.574 377.833 20.574C376.997 20.574 376.034 20.574 374.945 20.574C373.855 20.574 372.69 20.574 371.449 20.574C370.233 20.574 369.004 20.574 367.763 20.574C366.521 20.574 365.331 20.574 364.191 20.574C363.076 20.574 362.075 20.574 361.189 20.574C360.302 20.574 359.605 20.574 359.099 20.574C358.06 20.574 357.021 20.5993 355.983 20.65C354.944 20.6753 354.095 20.7133 353.437 20.764V16.052Z" fill="#4AA9D5"/>
<path d="M340.707 3.094C341.036 3.52467 341.378 4.05667 341.733 4.69C342.113 5.32333 342.48 5.95667 342.835 6.59C343.189 7.22333 343.493 7.79333 343.747 8.3L341.277 9.364C340.897 8.604 340.415 7.71733 339.833 6.704C339.275 5.69067 338.743 4.82933 338.237 4.12L340.707 3.094ZM345.001 1.46C345.33 1.94133 345.685 2.49867 346.065 3.132C346.47 3.76533 346.863 4.39867 347.243 5.032C347.623 5.64 347.927 6.172 348.155 6.628L345.685 7.73C345.279 6.91933 344.785 6.02 344.203 5.032C343.645 4.044 343.101 3.19533 342.569 2.486L345.001 1.46ZM319.237 21.41C319.642 20.3713 320.035 19.2693 320.415 18.104C320.82 16.9387 321.187 15.7353 321.517 14.494C321.846 13.2273 322.125 11.9733 322.353 10.732C322.606 9.49067 322.796 8.3 322.923 7.16L327.217 8.034C327.141 8.36333 327.052 8.73067 326.951 9.136C326.849 9.516 326.748 9.896 326.647 10.276C326.571 10.656 326.495 10.9853 326.419 11.264C326.292 11.872 326.115 12.6573 325.887 13.62C325.684 14.5573 325.431 15.5707 325.127 16.66C324.823 17.724 324.493 18.8133 324.139 19.928C323.809 21.0173 323.455 22.0307 323.075 22.968C322.619 24.1587 322.087 25.3873 321.479 26.654C320.871 27.8953 320.225 29.1113 319.541 30.302C318.857 31.4927 318.173 32.582 317.489 33.57L313.347 31.822C314.537 30.2513 315.652 28.5287 316.691 26.654C317.729 24.754 318.578 23.006 319.237 21.41ZM337.971 20.232C337.591 19.244 337.16 18.1927 336.679 17.078C336.223 15.9633 335.741 14.8487 335.235 13.734C334.753 12.594 334.272 11.53 333.791 10.542C333.309 9.554 332.866 8.70533 332.461 7.996L336.375 6.704C336.755 7.41333 337.185 8.262 337.667 9.25C338.173 10.238 338.68 11.302 339.187 12.442C339.693 13.5567 340.187 14.6713 340.669 15.786C341.15 16.9007 341.581 17.9393 341.961 18.902C342.315 19.814 342.695 20.84 343.101 21.98C343.531 23.12 343.949 24.298 344.355 25.514C344.785 26.7047 345.178 27.87 345.533 29.01C345.887 30.1247 346.191 31.138 346.445 32.05L342.113 33.456C341.783 32.0627 341.391 30.606 340.935 29.086C340.479 27.566 339.997 26.046 339.491 24.526C339.009 23.006 338.503 21.5747 337.971 20.232Z" fill="#4AA9D5"/>
<path d="M292.675 2.866C292.65 3.29666 292.612 3.82866 292.561 4.462C292.536 5.07 292.51 5.602 292.485 6.058C292.358 9.90866 292.016 13.2907 291.459 16.204C290.901 19.092 290.116 21.6507 289.103 23.88C288.115 26.084 286.874 28.0347 285.379 29.732C283.91 31.404 282.187 32.9367 280.211 34.33L276.715 31.48C277.399 31.1253 278.134 30.6693 278.919 30.112C279.704 29.5547 280.426 28.9467 281.085 28.288C282.301 27.148 283.365 25.8687 284.277 24.45C285.189 23.0313 285.949 21.448 286.557 19.7C287.19 17.9267 287.672 15.9253 288.001 13.696C288.33 11.4413 288.495 8.92067 288.495 6.134C288.495 5.85533 288.482 5.51333 288.457 5.108C288.457 4.70266 288.432 4.29733 288.381 3.892C288.33 3.48666 288.28 3.14466 288.229 2.866H292.675ZM305.785 10.846C305.734 11.1753 305.684 11.5173 305.633 11.872C305.582 12.2267 305.544 12.5307 305.519 12.784C305.494 13.544 305.456 14.5447 305.405 15.786C305.354 17.0273 305.266 18.3827 305.139 19.852C305.038 21.3213 304.898 22.778 304.721 24.222C304.544 25.666 304.341 27.0087 304.113 28.25C303.885 29.466 303.594 30.454 303.239 31.214C302.859 32.1007 302.314 32.7467 301.605 33.152C300.921 33.5827 299.996 33.798 298.831 33.798C297.818 33.798 296.766 33.7727 295.677 33.722C294.613 33.6713 293.6 33.608 292.637 33.532L292.181 29.542C293.169 29.6687 294.132 29.7827 295.069 29.884C296.032 29.96 296.906 29.998 297.691 29.998C298.274 29.998 298.73 29.9093 299.059 29.732C299.388 29.5293 299.654 29.1873 299.857 28.706C300.11 28.174 300.338 27.4393 300.541 26.502C300.743 25.5393 300.908 24.488 301.035 23.348C301.187 22.1827 301.301 20.992 301.377 19.776C301.478 18.5347 301.542 17.3693 301.567 16.28C301.617 15.1653 301.643 14.19 301.643 13.354H282.263C281.554 13.354 280.781 13.3667 279.945 13.392C279.134 13.4173 278.361 13.4553 277.627 13.506V9.554C278.361 9.60466 279.134 9.65533 279.945 9.706C280.756 9.75666 281.528 9.782 282.263 9.782H300.503C301.01 9.782 301.478 9.76933 301.909 9.744C302.34 9.69333 302.745 9.63 303.125 9.554L305.785 10.846Z" fill="#4AA9D5"/>
<path d="M251.863 2.866C251.737 3.44867 251.623 3.98067 251.521 4.462C251.445 4.94333 251.369 5.412 251.293 5.868C251.217 6.50133 251.103 7.33733 250.951 8.376C250.825 9.38933 250.673 10.5293 250.495 11.796C250.318 13.0627 250.153 14.3673 250.001 15.71C249.849 17.0527 249.697 18.37 249.545 19.662C249.393 20.9287 249.279 22.094 249.203 23.158C249.127 24.1967 249.089 25.0453 249.089 25.704C249.089 27.4267 249.583 28.7693 250.571 29.732C251.585 30.6947 253.117 31.176 255.169 31.176C257.019 31.176 258.602 30.9227 259.919 30.416C261.262 29.9093 262.288 29.2 262.997 28.288C263.707 27.376 264.061 26.3247 264.061 25.134C264.061 23.842 263.719 22.55 263.035 21.258C262.377 19.966 261.376 18.7247 260.033 17.534L264.251 16.66C265.518 18.1547 266.468 19.6113 267.101 21.03C267.735 22.4233 268.051 23.9433 268.051 25.59C268.051 27.4647 267.507 29.1113 266.417 30.53C265.353 31.9487 263.859 33.0507 261.933 33.836C260.008 34.6213 257.728 35.014 255.093 35.014C253.244 35.014 251.585 34.7227 250.115 34.14C248.646 33.5573 247.481 32.6327 246.619 31.366C245.783 30.0993 245.365 28.4147 245.365 26.312C245.365 25.5267 245.429 24.4753 245.555 23.158C245.682 21.8407 245.834 20.3967 246.011 18.826C246.214 17.2553 246.417 15.6593 246.619 14.038C246.847 12.3913 247.037 10.846 247.189 9.402C247.367 7.93267 247.493 6.67867 247.569 5.64C247.645 4.88 247.683 4.28467 247.683 3.854C247.683 3.42333 247.658 3.018 247.607 2.638L251.863 2.866ZM239.095 7.768C240.185 8.12267 241.388 8.414 242.705 8.642C244.023 8.87 245.365 9.04733 246.733 9.174C248.101 9.27533 249.381 9.326 250.571 9.326C252.041 9.326 253.421 9.288 254.713 9.212C256.005 9.11067 257.171 8.984 258.209 8.832L258.095 12.404C256.905 12.5053 255.727 12.594 254.561 12.67C253.396 12.746 252.028 12.784 250.457 12.784C249.292 12.784 248.025 12.7207 246.657 12.594C245.315 12.4673 243.972 12.29 242.629 12.062C241.287 11.8087 240.045 11.5427 238.905 11.264L239.095 7.768ZM238.221 17.23C239.513 17.6607 240.843 18.0027 242.211 18.256C243.579 18.5093 244.935 18.6867 246.277 18.788C247.645 18.864 248.937 18.902 250.153 18.902C251.395 18.902 252.674 18.864 253.991 18.788C255.334 18.712 256.651 18.598 257.943 18.446L257.829 22.018C256.664 22.1447 255.499 22.246 254.333 22.322C253.168 22.3727 251.965 22.398 250.723 22.398C248.443 22.398 246.189 22.2713 243.959 22.018C241.73 21.7393 239.754 21.3593 238.031 20.878L238.221 17.23Z" fill="#4AA9D5"/>
<path d="M219.335 1.042H222.831V6.856H219.335V1.042ZM210.481 5.222H232.369V12.404H229.063V8.3H213.711V12.404H210.481V5.222ZM213.407 12.062H229.367V15.178H213.407V12.062ZM210.975 18.826H232.369V22.056H210.975V18.826ZM215.725 20.308H219.145C219.044 22.3347 218.854 24.184 218.575 25.856C218.297 27.5027 217.828 28.9847 217.169 30.302C216.536 31.6193 215.611 32.7593 214.395 33.722C213.205 34.71 211.647 35.5333 209.721 36.192C209.62 35.9133 209.455 35.5967 209.227 35.242C208.999 34.8873 208.759 34.5453 208.505 34.216C208.252 33.8867 207.999 33.6207 207.745 33.418C209.468 32.8607 210.836 32.1893 211.849 31.404C212.863 30.6187 213.635 29.694 214.167 28.63C214.725 27.566 215.105 26.3373 215.307 24.944C215.51 23.5507 215.649 22.0053 215.725 20.308ZM222.755 19.966H226.137V31.404C226.137 31.9107 226.175 32.2273 226.251 32.354C226.353 32.4807 226.568 32.544 226.897 32.544C226.999 32.544 227.189 32.544 227.467 32.544C227.746 32.544 228.025 32.544 228.303 32.544C228.607 32.544 228.81 32.544 228.911 32.544C229.165 32.544 229.355 32.4427 229.481 32.24C229.608 32.0373 229.697 31.6067 229.747 30.948C229.798 30.264 229.836 29.2507 229.861 27.908C230.089 28.1107 230.381 28.3007 230.735 28.478C231.09 28.6553 231.457 28.82 231.837 28.972C232.243 29.0987 232.597 29.2 232.901 29.276C232.8 30.9733 232.623 32.2907 232.369 33.228C232.116 34.1907 231.749 34.8493 231.267 35.204C230.786 35.584 230.127 35.774 229.291 35.774C229.139 35.774 228.924 35.774 228.645 35.774C228.392 35.774 228.113 35.774 227.809 35.774C227.505 35.774 227.214 35.774 226.935 35.774C226.682 35.774 226.479 35.774 226.327 35.774C225.365 35.774 224.617 35.6347 224.085 35.356C223.579 35.1027 223.224 34.6593 223.021 34.026C222.844 33.3927 222.755 32.5187 222.755 31.404V19.966ZM199.157 2.562H208.087V5.792H202.311V36.23H199.157V2.562ZM207.023 2.562H207.593L208.125 2.41L210.481 3.778C210.127 4.842 209.747 5.982 209.341 7.198C208.936 8.38867 208.518 9.56667 208.087 10.732C207.682 11.8973 207.277 12.9867 206.871 14C208.163 15.52 209.012 16.9387 209.417 18.256C209.823 19.5733 210.025 20.8147 210.025 21.98C210.025 23.0693 209.899 24.0067 209.645 24.792C209.417 25.5773 209.012 26.1727 208.429 26.578C208.151 26.7807 207.834 26.9453 207.479 27.072C207.15 27.1733 206.783 27.262 206.377 27.338C205.643 27.414 204.807 27.4267 203.869 27.376C203.844 26.9453 203.755 26.4387 203.603 25.856C203.477 25.248 203.287 24.7287 203.033 24.298C203.413 24.3233 203.768 24.336 204.097 24.336C204.427 24.336 204.731 24.336 205.009 24.336C205.491 24.3107 205.871 24.1967 206.149 23.994C206.403 23.7913 206.58 23.4747 206.681 23.044C206.783 22.6133 206.833 22.1193 206.833 21.562C206.833 20.5993 206.631 19.51 206.225 18.294C205.82 17.078 204.997 15.7733 203.755 14.38C204.085 13.5187 204.401 12.594 204.705 11.606C205.009 10.618 205.301 9.63 205.579 8.642C205.883 7.62866 206.149 6.69133 206.377 5.83C206.631 4.94333 206.846 4.196 207.023 3.588V2.562Z" fill="#4AA9D5"/>
<path d="M167.959 15.824V29.542H164.501V19.168H159.295V15.824H167.959ZM167.959 28.098C168.795 29.4407 169.96 30.4287 171.455 31.062C172.949 31.6953 174.748 32.0627 176.851 32.164C177.94 32.1893 179.257 32.2147 180.803 32.24C182.373 32.24 184.007 32.24 185.705 32.24C187.427 32.2147 189.087 32.1767 190.683 32.126C192.304 32.05 193.735 31.974 194.977 31.898C194.85 32.1513 194.698 32.4933 194.521 32.924C194.369 33.3293 194.229 33.7473 194.103 34.178C193.976 34.634 193.875 35.0393 193.799 35.394C192.709 35.4447 191.417 35.4827 189.923 35.508C188.453 35.5587 186.921 35.584 185.325 35.584C183.729 35.6093 182.196 35.6093 180.727 35.584C179.257 35.5587 177.965 35.5333 176.851 35.508C174.469 35.4067 172.43 35.014 170.733 34.33C169.035 33.646 167.604 32.5567 166.439 31.062C165.527 31.8727 164.577 32.6707 163.589 33.456C162.601 34.2413 161.575 35.052 160.511 35.888L158.801 32.316C159.713 31.7333 160.701 31.0747 161.765 30.34C162.854 29.6053 163.88 28.858 164.843 28.098H167.959ZM159.865 4.006L162.373 1.764C163.183 2.296 164.007 2.91667 164.843 3.626C165.704 4.33533 166.489 5.05733 167.199 5.792C167.933 6.50133 168.516 7.17267 168.947 7.806L166.249 10.314C165.843 9.706 165.286 9.03467 164.577 8.3C163.893 7.54 163.133 6.79267 162.297 6.058C161.486 5.298 160.675 4.614 159.865 4.006ZM175.141 7.73L177.459 5.754C178.624 6.18467 179.878 6.67867 181.221 7.236C182.589 7.768 183.893 8.32533 185.135 8.908C186.376 9.49067 187.427 10.0353 188.289 10.542L185.819 12.746C185.059 12.2647 184.071 11.7327 182.855 11.15C181.639 10.542 180.347 9.934 178.979 9.326C177.636 8.718 176.357 8.186 175.141 7.73ZM171.607 10.466H191.139V13.126H174.989V30.15H171.607V10.466ZM189.429 10.466H192.887V26.844C192.887 27.6293 192.785 28.25 192.583 28.706C192.38 29.1367 192.013 29.4787 191.481 29.732C190.949 29.96 190.252 30.112 189.391 30.188C188.555 30.2387 187.529 30.264 186.313 30.264C186.237 29.808 186.11 29.314 185.933 28.782C185.755 28.2247 185.565 27.756 185.363 27.376C186.123 27.4013 186.832 27.414 187.491 27.414C188.175 27.414 188.618 27.414 188.821 27.414C189.074 27.3887 189.239 27.338 189.315 27.262C189.391 27.1607 189.429 26.996 189.429 26.768V10.466ZM171.759 2.372H190.341V5.146H171.759V2.372ZM173.469 15.938H190.683V18.522H173.469V15.938ZM173.469 21.41H190.683V24.108H173.469V21.41ZM180.499 11.644H183.729V29.998H180.499V11.644ZM189.125 2.372H189.923L190.645 2.182L192.811 3.892C191.949 4.70267 190.974 5.51333 189.885 6.324C188.795 7.13467 187.655 7.89467 186.465 8.604C185.274 9.288 184.096 9.896 182.931 10.428C182.703 10.0987 182.399 9.73133 182.019 9.326C181.664 8.92067 181.347 8.604 181.069 8.376C182.082 7.92 183.095 7.388 184.109 6.78C185.147 6.172 186.11 5.53867 186.997 4.88C187.883 4.22133 188.593 3.60067 189.125 3.018V2.372Z" fill="#4AA9D5"/>
<path d="M141.358 7.008C141.105 8.95867 140.776 11.0233 140.37 13.202C139.99 15.3553 139.471 17.496 138.812 19.624C138.052 22.208 137.191 24.3993 136.228 26.198C135.291 27.9713 134.265 29.3267 133.15 30.264C132.036 31.2013 130.858 31.67 129.616 31.67C128.35 31.67 127.172 31.2393 126.082 30.378C124.993 29.4913 124.106 28.2627 123.422 26.692C122.738 25.096 122.396 23.2467 122.396 21.144C122.396 19.016 122.827 17.002 123.688 15.102C124.575 13.202 125.791 11.5173 127.336 10.048C128.882 8.57866 130.68 7.426 132.732 6.59C134.784 5.754 137.001 5.336 139.382 5.336C141.662 5.336 143.714 5.70333 145.538 6.438C147.388 7.17267 148.958 8.19867 150.25 9.516C151.568 10.808 152.568 12.328 153.252 14.076C153.936 15.824 154.278 17.686 154.278 19.662C154.278 22.322 153.721 24.6907 152.606 26.768C151.517 28.82 149.908 30.5047 147.78 31.822C145.652 33.114 143.043 33.988 139.952 34.444L137.71 30.872C138.369 30.796 138.977 30.72 139.534 30.644C140.092 30.5427 140.611 30.4413 141.092 30.34C142.308 30.0613 143.461 29.6307 144.55 29.048C145.665 28.4653 146.653 27.7307 147.514 26.844C148.376 25.932 149.047 24.868 149.528 23.652C150.035 22.436 150.288 21.068 150.288 19.548C150.288 18.028 150.048 16.622 149.566 15.33C149.085 14.0127 148.376 12.8727 147.438 11.91C146.501 10.9473 145.348 10.2 143.98 9.668C142.612 9.11067 141.067 8.832 139.344 8.832C137.267 8.832 135.418 9.19933 133.796 9.934C132.175 10.6687 130.794 11.644 129.654 12.86C128.54 14.0507 127.691 15.3427 127.108 16.736C126.526 18.1293 126.234 19.472 126.234 20.764C126.234 22.208 126.412 23.4113 126.766 24.374C127.121 25.3113 127.564 26.008 128.096 26.464C128.628 26.92 129.173 27.148 129.73 27.148C130.288 27.148 130.858 26.8693 131.44 26.312C132.023 25.7293 132.606 24.8173 133.188 23.576C133.796 22.3347 134.392 20.7513 134.974 18.826C135.557 17.002 136.038 15.064 136.418 13.012C136.824 10.9347 137.115 8.908 137.292 6.932L141.358 7.008Z" fill="#4AA9D5"/>
<path d="M102.181 16.546L105.449 17.534C104.613 19.0287 103.599 20.46 102.409 21.828C101.243 23.1707 99.9892 24.412 98.6465 25.552C97.3038 26.692 95.9358 27.6927 94.5425 28.554C94.3905 28.3007 94.1625 28.0093 93.8585 27.68C93.5798 27.3507 93.2885 27.0213 92.9845 26.692C92.6805 26.3373 92.4018 26.0587 92.1485 25.856C94.1752 24.792 96.0878 23.4493 97.8865 21.828C99.7105 20.2067 101.142 18.446 102.181 16.546ZM102.522 0.851997L105.676 2.486C104.714 3.65133 103.675 4.82933 102.561 6.02C101.471 7.21066 100.458 8.23666 99.5205 9.098L97.0125 7.654C97.6458 7.046 98.2918 6.34933 98.9505 5.564C99.6345 4.77866 100.293 3.98066 100.926 3.17C101.56 2.334 102.092 1.56133 102.522 0.851997ZM109.781 3.74L113.01 5.488C111.693 6.88133 110.262 8.32533 108.716 9.82C107.171 11.2893 105.613 12.708 104.043 14.076C102.472 15.444 100.977 16.6473 99.5585 17.686L97.1645 16.09C98.2032 15.3047 99.2925 14.4053 100.433 13.392C101.573 12.3787 102.713 11.3273 103.853 10.238C104.993 9.12333 106.069 8.00866 107.082 6.894C108.096 5.77933 108.995 4.728 109.781 3.74ZM93.6685 7.426L95.8345 5.108C96.7972 5.716 97.7978 6.4 98.8365 7.16C99.8752 7.89466 100.838 8.642 101.725 9.402C102.637 10.162 103.371 10.8587 103.928 11.492L101.611 14.114C101.104 13.4553 100.407 12.7333 99.5205 11.948C98.6338 11.1373 97.6838 10.3393 96.6705 9.554C95.6572 8.76866 94.6565 8.05933 93.6685 7.426ZM109.325 11.796L112.099 10.276C112.909 11.112 113.707 12.024 114.493 13.012C115.278 14 116 14.9753 116.659 15.938C117.343 16.9007 117.862 17.7873 118.216 18.598L115.215 20.308C114.885 19.548 114.404 18.674 113.771 17.686C113.137 16.6727 112.428 15.6593 111.643 14.646C110.883 13.6073 110.11 12.6573 109.325 11.796ZM92.6045 15.102C94.4538 15.0767 96.5818 15.0513 98.9885 15.026C101.395 15.0007 103.966 14.9627 106.702 14.912C109.439 14.836 112.162 14.76 114.873 14.684L114.721 17.61C112.111 17.7113 109.489 17.8127 106.854 17.914C104.245 17.99 101.737 18.066 99.3305 18.142C96.9492 18.218 94.8085 18.2813 92.9085 18.332L92.6045 15.102ZM100.243 22.588C101.307 24.3613 102.725 25.97 104.499 27.414C106.272 28.8327 108.324 30.036 110.655 31.024C113.011 31.9867 115.544 32.7087 118.255 33.19C118.001 33.4433 117.735 33.7473 117.456 34.102C117.178 34.482 116.912 34.862 116.659 35.242C116.431 35.622 116.228 35.964 116.05 36.268C113.264 35.66 110.68 34.7733 108.299 33.608C105.917 32.4427 103.802 31.024 101.952 29.352C100.103 27.6547 98.5578 25.7167 97.3165 23.538L100.243 22.588ZM101.117 20.688H111.984V23.424H98.7225L101.117 20.688ZM110.845 20.688H111.491L112.099 20.536L114.379 21.6C113.517 23.6773 112.377 25.5267 110.959 27.148C109.565 28.744 107.956 30.1373 106.132 31.328C104.334 32.5187 102.383 33.5193 100.281 34.33C98.2032 35.166 96.0625 35.8373 93.8585 36.344C93.6812 35.888 93.4152 35.356 93.0605 34.748C92.7312 34.14 92.4145 33.646 92.1105 33.266C94.1625 32.886 96.1512 32.354 98.0765 31.67C100.002 30.986 101.801 30.1373 103.473 29.124C105.17 28.1107 106.639 26.9453 107.881 25.628C109.147 24.3107 110.135 22.8287 110.845 21.182V20.688ZM90.8185 8.87L94.0105 10.048C93.1492 11.568 92.1612 13.088 91.0465 14.608C89.9318 16.1027 88.7412 17.5213 87.4745 18.864C86.2332 20.1813 84.9918 21.3593 83.7505 22.398C83.6492 22.1193 83.4718 21.7773 83.2185 21.372C82.9905 20.9667 82.7498 20.5487 82.4965 20.118C82.2432 19.6873 82.0152 19.358 81.8125 19.13C82.9272 18.2687 84.0418 17.2933 85.1565 16.204C86.2712 15.1147 87.3098 13.9493 88.2725 12.708C89.2605 11.4413 90.1092 10.162 90.8185 8.87ZM90.0205 0.927996L93.2125 2.182C92.4525 3.27133 91.5658 4.37333 90.5525 5.488C89.5392 6.60266 88.4878 7.66666 87.3985 8.68C86.3092 9.69333 85.2198 10.5927 84.1305 11.378C83.9785 11.1247 83.7885 10.846 83.5605 10.542C83.3325 10.2127 83.0918 9.88333 82.8385 9.554C82.6105 9.22466 82.3952 8.95866 82.1925 8.756C83.1552 8.072 84.1305 7.29933 85.1185 6.438C86.1065 5.55133 87.0312 4.62666 87.8925 3.664C88.7538 2.70133 89.4632 1.78933 90.0205 0.927996ZM87.4745 16.432L90.4765 13.43L90.8565 13.582V36.306H87.4745V16.432Z" fill="#4AA9D5"/>
<path d="M65.8147 1.042H69.3107V6.856H65.8147V1.042ZM56.9607 5.222H78.8487V12.404H75.5427V8.3H60.1907V12.404H56.9607V5.222ZM59.8867 12.062H75.8467V15.178H59.8867V12.062ZM57.4547 18.826H78.8487V22.056H57.4547V18.826ZM62.2047 20.308H65.6247C65.5234 22.3347 65.3334 24.184 65.0547 25.856C64.7761 27.5027 64.3074 28.9847 63.6487 30.302C63.0154 31.6193 62.0907 32.7593 60.8747 33.722C59.6841 34.71 58.1261 35.5333 56.2007 36.192C56.0994 35.9133 55.9347 35.5967 55.7067 35.242C55.4787 34.8873 55.2381 34.5453 54.9847 34.216C54.7314 33.8867 54.4781 33.6207 54.2247 33.418C55.9474 32.8607 57.3154 32.1893 58.3287 31.404C59.3421 30.6187 60.1147 29.694 60.6467 28.63C61.2041 27.566 61.5841 26.3373 61.7867 24.944C61.9894 23.5507 62.1287 22.0053 62.2047 20.308ZM69.2347 19.966H72.6167V31.404C72.6167 31.9107 72.6547 32.2273 72.7307 32.354C72.8321 32.4807 73.0474 32.544 73.3767 32.544C73.4781 32.544 73.6681 32.544 73.9467 32.544C74.2254 32.544 74.5041 32.544 74.7827 32.544C75.0867 32.544 75.2894 32.544 75.3907 32.544C75.6441 32.544 75.8341 32.4427 75.9607 32.24C76.0874 32.0373 76.1761 31.6067 76.2267 30.948C76.2774 30.264 76.3154 29.2507 76.3407 27.908C76.5687 28.1107 76.8601 28.3007 77.2147 28.478C77.5694 28.6553 77.9367 28.82 78.3167 28.972C78.7221 29.0987 79.0767 29.2 79.3807 29.276C79.2794 30.9733 79.1021 32.2907 78.8487 33.228C78.5954 34.1907 78.2281 34.8493 77.7467 35.204C77.2654 35.584 76.6067 35.774 75.7707 35.774C75.6187 35.774 75.4034 35.774 75.1247 35.774C74.8714 35.774 74.5927 35.774 74.2887 35.774C73.9847 35.774 73.6934 35.774 73.4147 35.774C73.1614 35.774 72.9587 35.774 72.8067 35.774C71.8441 35.774 71.0967 35.6347 70.5647 35.356C70.0581 35.1027 69.7034 34.6593 69.5007 34.026C69.3234 33.3927 69.2347 32.5187 69.2347 31.404V19.966ZM45.6367 2.562H54.5667V5.792H48.7907V36.23H45.6367V2.562ZM53.5027 2.562H54.0727L54.6047 2.41L56.9607 3.778C56.6061 4.842 56.2261 5.982 55.8207 7.198C55.4154 8.38867 54.9974 9.56667 54.5667 10.732C54.1614 11.8973 53.7561 12.9867 53.3507 14C54.6427 15.52 55.4914 16.9387 55.8967 18.256C56.3021 19.5733 56.5047 20.8147 56.5047 21.98C56.5047 23.0693 56.3781 24.0067 56.1247 24.792C55.8967 25.5773 55.4914 26.1727 54.9087 26.578C54.6301 26.7807 54.3134 26.9453 53.9587 27.072C53.6294 27.1733 53.2621 27.262 52.8567 27.338C52.1221 27.414 51.2861 27.4267 50.3487 27.376C50.3234 26.9453 50.2347 26.4387 50.0827 25.856C49.9561 25.248 49.7661 24.7287 49.5127 24.298C49.8927 24.3233 50.2474 24.336 50.5767 24.336C50.9061 24.336 51.2101 24.336 51.4887 24.336C51.9701 24.3107 52.3501 24.1967 52.6287 23.994C52.8821 23.7913 53.0594 23.4747 53.1607 23.044C53.2621 22.6133 53.3127 22.1193 53.3127 21.562C53.3127 20.5993 53.1101 19.51 52.7047 18.294C52.2994 17.078 51.4761 15.7733 50.2347 14.38C50.5641 13.5187 50.8807 12.594 51.1847 11.606C51.4887 10.618 51.7801 9.63 52.0587 8.642C52.3627 7.62866 52.6287 6.69133 52.8567 5.83C53.1101 4.94333 53.3254 4.196 53.5027 3.588V2.562Z" fill="#4AA9D5"/>
<path d="M12.9949 3.132H23.7869V6.77999H12.9949V3.132ZM22.0009 3.132H25.6869C25.6869 4.29733 25.7249 5.65266 25.8009 7.198C25.9022 8.718 26.1175 10.352 26.4469 12.1C26.7762 13.8227 27.2829 15.6087 27.9669 17.458C28.6509 19.3073 29.5502 21.144 30.6649 22.968C31.8049 24.792 33.2362 26.5653 34.9589 28.288C36.6815 29.9853 38.7589 31.556 41.1909 33C40.9375 33.2027 40.6209 33.4813 40.2409 33.836C39.8609 34.216 39.4935 34.6087 39.1389 35.014C38.7842 35.4193 38.5055 35.774 38.3029 36.078C35.8202 34.558 33.6922 32.886 31.9189 31.062C30.1455 29.2127 28.6509 27.262 27.4349 25.21C26.2442 23.158 25.2815 21.0933 24.5469 19.016C23.8122 16.9387 23.2549 14.9247 22.8749 12.974C22.5202 11.0233 22.2795 9.212 22.1529 7.54C22.0515 5.84266 22.0009 4.37333 22.0009 3.132ZM20.6709 10.998L24.7369 11.72C23.8502 15.5453 22.6849 19.0033 21.2409 22.094C19.7969 25.1593 18.0489 27.8573 15.9969 30.188C13.9702 32.5187 11.5762 34.5073 8.81488 36.154C8.61221 35.8753 8.30821 35.5587 7.90288 35.204C7.49754 34.8493 7.07954 34.482 6.64887 34.102C6.24354 33.722 5.87621 33.4307 5.54688 33.228C9.67621 31.1 12.9442 28.174 15.3509 24.45C17.7829 20.7007 19.5562 16.2167 20.6709 10.998Z" fill="#4AA9D5"/>
</svg>
