<svg width="135" height="138" viewBox="0 0 135 138" fill="none" xmlns="http://www.w3.org/2000/svg">
<path d="M67.5 0C104.779 0.000126712 134.999 30.2211 134.999 67.5C134.999 89.2861 124.677 108.66 108.657 121.002L114 138L92.5615 130.191C84.8128 133.292 76.3559 134.999 67.5 134.999C30.2211 134.999 0.000214436 104.779 0 67.5C0 30.221 30.221 0 67.5 0Z" fill="#F49105"/>
<path d="M104.489 81.3012C101.173 81.43 97.9218 81.6875 94.6061 81.9772C94.0911 82.0094 93.2219 82.106 92.4171 82.2026C91.548 82.2991 90.6466 82.3957 90.1315 82.3957C89.4877 82.3957 88.9727 81.8485 88.9727 81.2368C88.9727 80.6896 89.3268 80.1745 89.874 80.1101C90.8719 79.9814 92.3205 79.8848 93.3829 79.8204C97.4712 79.5629 101.559 79.3375 105.648 79.2088C108.32 79.1122 110.959 78.9834 113.631 78.8547C113.985 78.8225 114.275 78.8225 114.597 78.8225C115.337 78.8225 115.885 79.2088 115.885 79.9814C115.885 80.9471 115.112 81.0759 114.339 81.0759H113.309C106.42 81.0759 101.141 85.0354 101.141 92.2784C101.141 95.5941 102.429 99.1674 105.648 100.552C107.289 101.228 108.996 101.485 110.766 101.55C111.474 101.582 111.957 102 111.957 102.708C111.957 103.706 111.281 103.996 110.412 103.996C103.523 103.996 96.0547 101.131 96.0547 93.1154C96.0547 90.2826 97.0849 87.6429 98.8876 85.5183C100.465 83.6512 102.396 82.4601 104.489 81.3012ZM114.919 83.7477C115.498 83.7477 116.432 84.6491 116.85 85.0676C117.526 85.7114 118.235 86.3552 118.235 86.9669C118.235 87.6429 117.623 88.1901 116.979 88.1901C116.4 88.1901 116.078 87.7073 115.82 87.2888C115.402 86.6128 114.919 86.0011 114.372 85.4217C114.178 85.1964 113.985 84.971 113.985 84.6491C113.985 84.134 114.436 83.7477 114.919 83.7477ZM111.796 85.0676C112.472 85.0676 113.374 86.1299 113.792 86.6128C114.5 87.3854 115.241 88.2545 115.241 88.8018C115.241 89.51 114.597 90.0572 113.921 90.0572C113.374 90.0572 113.052 89.6066 112.826 89.1881C112.376 88.2867 111.828 87.4176 111.185 86.6772C110.991 86.4518 110.863 86.2265 110.863 85.9689C110.863 85.4539 111.281 85.0676 111.796 85.0676Z" fill="white"/>
<path d="M59.2281 82.1704V77.9211C59.2281 76.3437 60.1616 75.8287 61.2883 75.8287C62.3506 75.8287 63.4129 76.215 63.4129 77.8889V82.1704H67.2759C68.2094 82.1704 69.0786 82.2669 69.7868 82.9108C70.4306 83.5224 70.6238 84.3272 70.6238 85.1964C70.6238 89.8963 70.495 94.5962 70.0765 99.0708C69.9156 100.841 69.5615 103.063 68.4991 104.382C67.5656 105.573 65.9238 105.67 64.4752 105.67H61.3849C60.8376 105.67 60.2904 105.412 60.2904 104.801C60.2904 104.157 60.8376 103.899 61.3849 103.899H63.1554C65.3444 103.899 65.5697 100.358 65.7629 98.7811C66.3101 94.2099 66.3423 89.51 66.3423 85.0354C66.3423 84.3594 66.0848 83.9731 65.3766 83.9731H63.4129C63.2842 90.0894 63.1876 95.5298 60.065 101.002C59.1637 102.58 58.1335 104.06 56.8459 105.348C56.6206 105.573 56.363 105.767 56.1055 105.767C55.6548 105.767 55.2363 105.38 55.2363 104.897C55.2363 104.543 55.4295 104.254 55.6226 103.964C59.228 98.5879 59.2281 90.2504 59.2281 83.9731H56.5884C56.0411 83.9731 55.4939 83.7156 55.4939 83.0717C55.4939 82.4279 56.0411 82.1704 56.5884 82.1704H59.2281ZM84.7236 81.5909V101.936C84.7236 104.028 83.3393 105.026 81.3757 105.026H75.8066C73.8429 105.026 72.4587 104.028 72.4587 101.936V81.5909C72.4587 79.4985 73.8429 78.5006 75.8066 78.5006H81.3757C83.5003 78.5006 84.7236 79.4663 84.7236 81.5909ZM79.5408 80.3033H77.6737C76.9976 80.3033 76.7401 80.593 76.7401 81.2368V102.29C76.7401 102.934 76.9976 103.223 77.6737 103.223H79.5408C80.1846 103.223 80.4743 102.934 80.4743 102.29V81.2368C80.4743 80.5608 80.1846 80.3033 79.5408 80.3033Z" fill="white"/>
<path d="M31.5432 84.3916V103.288C31.5432 104.189 31.4789 104.994 31.1248 105.412C30.6741 105.96 29.9981 106.089 29.3864 106.089C28.646 106.089 27.7447 105.799 27.455 105.058C27.2296 104.511 27.2296 103.803 27.2296 103.223V89.6066C26.2961 90.6045 25.5557 91.3449 24.944 91.8278C24.429 92.2462 24.0427 92.4716 23.7851 92.4716C23.3023 92.4716 22.8838 92.0853 22.8838 91.5702C22.8838 91.2805 23.0447 91.023 23.2379 90.7655C25.105 88.3511 26.618 85.647 27.9056 82.8464C28.646 81.1403 29.2255 79.4019 29.7727 77.6314C30.1268 76.4725 30.5775 75.8287 31.8974 75.8287C33.2172 75.8287 34.9877 76.6013 34.9877 78.1465C34.9877 78.6615 34.5692 79.5951 33.9898 80.6252C33.1528 82.0738 32.0261 83.7156 31.5432 84.3916ZM44.6451 85.3251H33.7323C33.185 85.3251 32.6378 85.0676 32.6378 84.4238C32.6378 83.8121 33.185 83.5224 33.7323 83.5224H44.6451V78.1787C44.6451 77.6314 44.7095 77.1485 45.0958 76.6657C45.5143 76.1184 46.2225 75.9575 46.8985 75.9575C47.6711 75.9575 48.5081 76.1828 48.8622 76.9554C49.0231 77.3095 49.1197 77.6314 49.1197 78.2108V83.5224H52.1457C52.6929 83.5224 53.2402 83.8121 53.2402 84.4238C53.2402 85.0676 52.6929 85.3251 52.1457 85.3251H49.1197V102.612C49.1197 104.672 47.7677 105.702 45.7718 105.702H39.6876C39.1404 105.702 38.5931 105.412 38.5931 104.801C38.5931 104.157 39.1404 103.899 39.6876 103.899H43.7116C44.3554 103.899 44.6451 103.61 44.6451 102.966V85.3251ZM33.8932 88.5121C33.8932 88.0292 34.2795 87.6107 34.7946 87.6107C35.2452 87.6107 36.1144 88.4155 36.9836 89.2847C37.4021 89.7031 37.9493 90.2504 38.561 90.862C40.1061 92.4716 41.8767 94.5962 41.8767 96.077C41.8767 97.4934 40.6212 98.427 39.2692 98.427C37.724 98.427 37.3699 97.4612 37.0158 96.1736C36.2754 93.4695 35.4384 91.3449 34.022 88.9627C33.9254 88.8018 33.8932 88.6408 33.8932 88.5121Z" fill="white"/>
<path d="M104.447 46.7572C104.116 50.6964 103.837 54.661 102.566 58.4223C101.727 60.9383 100.482 63.7592 97.3815 63.7592C93.3914 63.7592 91.46 59.4388 91.46 56.0079C91.46 53.2886 92.4511 50.5947 94.2555 48.587C96.619 45.9185 99.9483 44.7494 103.43 44.7494C109.428 44.7494 114.079 48.0279 114.079 54.3814C114.079 58.1935 112.35 61.472 108.92 63.2764C107.801 63.8355 105.768 64.6233 104.497 64.6233C104.04 64.6233 103.633 64.2421 103.633 63.7592C103.633 63.251 103.989 62.9714 104.421 62.8443C105.743 62.4631 106.836 61.7515 107.75 60.735C109.377 58.9051 110.266 56.3383 110.266 53.924C110.266 49.8831 108.182 47.85 104.447 46.7572ZM100.787 46.7572C99.0842 47.4433 97.8898 48.2566 96.8986 49.8069C95.45 52.0433 94.6876 54.7372 94.6876 57.3803C94.6876 58.5239 94.7892 59.7438 95.3992 60.735C95.7041 61.2687 96.2632 61.8024 96.924 61.8024C97.9406 61.8024 98.5505 60.0488 99.1096 58.3969C100.253 54.6356 100.558 50.6709 100.787 46.7572Z" fill="white"/>
<path d="M61.5867 51.2826C62.488 50.2525 63.2928 49.2223 64.0976 48.1278C63.2606 47.9991 62.9709 47.2587 62.6168 46.5827C61.8442 45.2628 60.975 43.943 59.8483 42.8807C59.3333 42.3978 59.1401 42.1724 59.1401 41.7861C59.1401 41.3355 59.5264 40.917 60.0093 40.917C60.3312 40.917 61.5223 41.5286 62.4558 42.1403C63.164 40.8204 63.7113 39.4362 64.1942 38.052C64.4839 37.2472 65.0633 36.8287 65.9003 36.8287C66.866 36.8287 68.3147 37.3759 68.3147 38.5348C68.3147 39.0177 67.703 39.9191 66.9626 40.7882C66.1578 41.7218 65.3209 42.5909 64.4517 43.4279C65.0311 43.8464 65.8037 44.3615 66.1578 45.0375C66.7695 44.0073 67.3489 42.9772 67.9284 41.8505C68.2503 41.2067 68.8297 40.8526 69.5701 40.8526C70.6002 40.8526 72.1132 41.5286 72.1132 42.7841C72.1132 43.6211 70.7934 45.0375 69.377 46.4861C67.8318 48.0956 66.2544 49.673 64.6127 51.186C66.19 51.0894 67.7352 50.9929 69.2804 50.8319C69.1194 50.4134 68.4756 48.9326 68.4756 48.6107C68.4756 48.1278 68.8941 47.7415 69.377 47.7415C69.5379 47.7415 69.7955 47.9025 69.9886 48.0635C70.729 48.7073 71.4694 49.5121 72.1776 50.3168C72.8214 51.0251 73.9481 52.4093 73.9481 53.1819C73.9481 54.3408 72.7249 55.2743 71.6304 55.2743C70.8256 55.2743 70.3749 54.7914 70.2139 54.1476C70.053 53.536 69.9242 52.9887 69.7955 52.5059C69.2482 52.6668 68.7009 52.7956 68.1537 52.9243V65.0283C68.1537 66.5734 67.3167 67.0563 66.1578 67.0563C65.1599 67.0563 64.1942 66.6378 64.1942 65.0926V53.8257C63.325 54.0188 60.3956 54.6305 60.0737 54.6305C59.2045 54.6305 58.6895 53.5682 58.6895 52.86C58.6895 52.023 59.1079 51.4757 59.784 51.347C60.1059 51.2826 60.8463 51.2826 61.5867 51.2826ZM78.294 43.106H85.1185C87.3719 43.106 88.4664 44.0395 88.4664 46.3251C88.4664 51.0572 88.2089 56.3366 87.6616 61.1975C87.2753 64.5454 85.9555 66.67 82.2857 66.67H77.5214C76.9741 66.67 76.4269 66.3803 76.4269 65.7687C76.4269 65.1248 76.9741 64.8673 77.5214 64.8673H80.3864C81.4487 64.8673 82.0925 64.6742 82.6398 63.7084C83.2514 62.6139 83.348 61.2297 83.4768 60.0064C83.9918 55.3709 83.9918 50.6709 83.9918 46.0354C83.9918 45.3594 83.7987 44.8765 83.0583 44.8765H77.0063C76.3303 45.7457 73.3043 49.2545 72.3386 49.2545C71.8557 49.2545 71.4372 48.8682 71.4372 48.3854C71.4372 48.1922 71.5338 48.0313 71.6625 47.8381C73.5618 45.134 74.8173 41.8505 75.6543 38.6314C75.944 37.5369 76.5878 36.9896 77.7145 36.9896C78.8412 36.9896 80.3864 37.5691 80.3864 38.8567C80.3864 40.0478 78.97 42.1081 78.294 43.106ZM81.5453 56.3366C81.5453 57.6886 80.0645 58.7832 78.809 58.7832C77.5857 58.7832 77.1029 58.1071 76.8775 57.0126C76.4269 54.7914 75.9118 52.8921 74.9139 50.8641C74.7851 50.6066 74.6563 50.3168 74.6563 50.1237C74.6563 49.673 75.107 49.2867 75.5577 49.2867C76.3303 49.2867 78.4227 51.5401 78.97 52.1839C79.7426 53.0209 81.5453 55.2099 81.5453 56.3366ZM74.27 61.7126C74.27 62.968 72.9824 63.805 71.8557 63.805C70.3427 63.805 70.2783 62.6139 70.1817 61.1331C70.053 59.5236 69.7633 57.8496 69.1838 56.3366C69.1194 56.1757 69.0551 56.0147 69.0551 55.8537C69.0551 55.3709 69.4735 54.9846 69.9564 54.9846C70.568 54.9846 71.1153 55.8216 71.7913 56.8517C72.4351 57.7852 74.27 60.6824 74.27 61.7126ZM59.6874 65.7043C59.2045 65.7043 58.786 65.318 58.786 64.8351C58.786 64.6742 58.8182 64.4488 58.9148 64.1591C59.5908 61.9057 59.8483 59.7167 59.8483 57.3345C59.8483 56.0469 60.1703 55.2421 61.5867 55.2421C62.5846 55.2421 63.7757 55.725 63.7757 56.8839C63.7757 58.3325 61.2004 65.7043 59.6874 65.7043Z" fill="white"/>
<path d="M45.7807 47.1299V43.0738H40.8876C40.3082 43.0738 39.7931 42.8163 39.7931 42.1725C39.7931 41.5608 40.276 41.3033 40.8876 41.3033H45.7807V39.3074C45.7807 38.5992 45.8773 37.891 46.2636 37.4725C46.7143 36.9897 47.2937 36.8609 47.9697 36.8609C48.7423 36.8609 49.3861 37.054 49.7724 37.6013C50.0943 38.052 50.1909 38.6314 50.1909 39.3074V41.3033H54.6977C55.2771 41.3033 55.7922 41.5608 55.7922 42.1725C55.7922 42.8163 55.2771 43.0738 54.6977 43.0738H50.1909V47.1299H55.5025C56.0819 47.1299 56.597 47.3874 56.597 48.0313C56.597 48.6429 56.1463 48.9004 55.5025 48.9004H40.2438C39.5678 48.9004 39.1493 48.6429 39.1493 48.0313C39.1493 47.3874 39.6322 47.1299 40.2438 47.1299H45.7807ZM36.6062 51.7333C36.8315 51.6367 37.3788 51.3792 37.8295 51.1538C38.602 50.7675 38.6986 50.7353 38.924 50.7353C39.439 50.7353 39.8253 51.1216 39.8253 51.6367C39.8253 51.9264 39.6965 52.1839 39.3103 52.4737C38.6986 52.9243 37.5719 53.6969 36.6062 54.3408V65.1248C36.6062 65.8331 36.5096 66.1228 36.0267 66.5413C35.6726 66.831 35.0932 67.0241 34.5781 67.0241C33.9665 67.0241 33.1939 66.7666 32.8398 66.2837C32.6788 66.0584 32.5823 65.7365 32.5823 65.0927V56.7229C29.331 58.4291 28.8481 58.6544 28.333 58.6544C27.3351 58.6544 26.5625 57.8174 26.5625 56.8195C26.5625 56.0469 27.1419 55.4353 27.818 55.2099C30.007 54.4373 31.3268 53.9545 32.5823 53.4716V45.7135H30.6508C30.1357 47.484 29.4919 49.158 28.6871 50.7353C28.4296 51.2504 28.2043 51.5401 27.6892 51.5401C27.1741 51.5401 26.7235 51.1538 26.7235 50.6388C26.7235 50.5422 26.82 50.1559 26.8844 49.9627C27.1741 48.9648 27.4639 47.8059 27.6248 46.9046C27.9789 44.7799 28.1399 42.3656 28.1399 40.4019C28.1399 39.5006 28.5584 38.5992 29.9748 38.5992C30.9727 38.5992 31.6809 39.0499 31.6809 40.2088C31.6809 40.8526 31.359 42.8485 31.1015 43.9108H32.5823V39.1143C32.5823 38.1163 32.6467 37.7622 33.0973 37.4081C33.4836 37.0862 34.0631 36.9253 34.5781 36.9253C35.2863 36.9253 36.0589 37.215 36.3808 37.6979C36.5418 37.9554 36.6062 38.3417 36.6062 39.0821V43.9108H38.6664C39.3103 43.9108 39.7609 44.2005 39.7609 44.8121C39.7609 45.456 39.2781 45.7135 38.6664 45.7135H36.6062V51.7333ZM48.9033 54.6949H40.1794C39.6 54.6949 39.0849 54.4373 39.0849 53.8257C39.0849 53.1819 39.6 52.9243 40.1794 52.9243H48.9033V51.5401C48.9033 50.9607 49.032 50.2525 49.3539 49.8662C49.8046 49.3511 50.3841 49.2223 51.0601 49.2223C51.8327 49.2223 52.4443 49.4155 52.8628 49.9306C53.1525 50.2847 53.2813 50.9285 53.2813 51.4757V52.9243H55.5025C56.1141 52.9243 56.597 53.1819 56.597 53.8257C56.597 54.4373 56.2429 54.6949 55.5025 54.6949H53.2813V63.6119C53.2813 65.7043 51.9292 66.7022 49.9334 66.7022H44.6862C44.1389 66.7022 43.5917 66.4447 43.5917 65.8009C43.5917 65.5433 43.6561 65.318 43.8492 65.157C44.0746 64.9639 44.2677 64.8995 44.6862 64.8995H47.6478C48.5813 64.8995 48.9033 64.5132 48.9033 63.644V54.6949ZM39.8897 56.2722C39.8897 55.725 40.3404 55.2421 40.8876 55.2421C41.1773 55.2421 42.5294 56.1757 43.9136 57.4633C45.4588 58.9119 46.0704 59.9742 46.0704 60.6503C46.0704 61.9379 44.8472 63.0002 43.6239 63.0002C42.4972 63.0002 42.0465 62.5173 41.6602 60.8112C41.3383 59.427 40.8232 58.0749 40.115 56.8195C39.9863 56.5941 39.8897 56.3688 39.8897 56.2722Z" fill="white"/>
</svg>
