<svg width="81" height="91" viewBox="0 0 81 91" fill="none" xmlns="http://www.w3.org/2000/svg">
<g clip-path="url(#clip0_50_617)">
<path fill-rule="evenodd" clip-rule="evenodd" d="M4.10285 12.5933C3.35957 12.5933 2.7488 13.204 2.7488 13.9473V85.8159C2.7488 86.5592 3.35957 87.17 4.10285 87.17H69.0486C69.8071 87.17 70.4221 87.7849 70.4221 88.5434C70.4221 89.3019 69.8071 89.9168 69.0486 89.9168H4.10285C1.84252 89.9168 0.00195312 88.0763 0.00195312 85.8159V13.9473C0.00195312 11.687 1.84252 9.84644 4.10285 9.84644H75.9715C78.2318 9.84644 80.0724 11.687 80.0724 13.9473V79.8717C80.0724 80.6302 79.4575 81.2451 78.6989 81.2451C77.9404 81.2451 77.3255 80.6302 77.3255 79.8717V13.9473C77.3255 13.204 76.7147 12.5933 75.9715 12.5933H4.10285Z" fill="#444444"/>
<path fill-rule="evenodd" clip-rule="evenodd" d="M-0.00292969 28.8202C-0.00292969 28.0617 0.611973 27.4468 1.37049 27.4468H78.6989C79.4574 27.4468 80.0723 28.0617 80.0723 28.8202C80.0723 29.5787 79.4574 30.1936 78.6989 30.1936H1.37049C0.611973 30.1936 -0.00292969 29.5787 -0.00292969 28.8202Z" fill="#444444"/>
<path d="M22.163 0H20.8938C19.6122 0 18.5732 1.03894 18.5732 2.32053V16.8832C18.5732 18.1648 19.6122 19.2037 20.8938 19.2037H22.163C23.4446 19.2037 24.4836 18.1648 24.4836 16.8832V2.32053C24.4836 1.03894 23.4446 0 22.163 0Z" fill="#4AA9D5"/>
<path d="M59.1801 0H57.9109C56.6293 0 55.5903 1.03894 55.5903 2.32053V16.8832C55.5903 18.1648 56.6293 19.2037 57.9109 19.2037H59.1801C60.4617 19.2037 61.5007 18.1648 61.5007 16.8832V2.32053C61.5007 1.03894 60.4617 0 59.1801 0Z" fill="#4AA9D5"/>
<path d="M18.6511 36.4988H12.5809C11.7194 36.4988 11.021 37.1972 11.021 38.0587V44.1289C11.021 44.9904 11.7194 45.6889 12.5809 45.6889H18.6511C19.5127 45.6889 20.2111 44.9904 20.2111 44.1289V38.0587C20.2111 37.1972 19.5127 36.4988 18.6511 36.4988Z" fill="#4AA9D5"/>
<path d="M34.9334 36.4988H28.8632C28.0016 36.4988 27.3032 37.1972 27.3032 38.0587V44.1289C27.3032 44.9904 28.0016 45.6889 28.8632 45.6889H34.9334C35.7949 45.6889 36.4933 44.9904 36.4933 44.1289V38.0587C36.4933 37.1972 35.7949 36.4988 34.9334 36.4988Z" fill="#4AA9D5"/>
<path d="M51.2112 36.4988H45.141C44.2795 36.4988 43.5811 37.1972 43.5811 38.0587V44.1289C43.5811 44.9904 44.2795 45.6889 45.141 45.6889H51.2112C52.0727 45.6889 52.7711 44.9904 52.7711 44.1289V38.0587C52.7711 37.1972 52.0727 36.4988 51.2112 36.4988Z" fill="#4AA9D5"/>
<path d="M67.4885 36.4988H61.4183C60.5568 36.4988 59.8584 37.1972 59.8584 38.0587V44.1289C59.8584 44.9904 60.5568 45.6889 61.4183 45.6889H67.4885C68.3501 45.6889 69.0485 44.9904 69.0485 44.1289V38.0587C69.0485 37.1972 68.3501 36.4988 67.4885 36.4988Z" fill="#4AA9D5"/>
<path d="M18.6511 52.7764H12.5809C11.7194 52.7764 11.021 53.4748 11.021 54.3363V60.4065C11.021 61.268 11.7194 61.9664 12.5809 61.9664H18.6511C19.5127 61.9664 20.2111 61.268 20.2111 60.4065V54.3363C20.2111 53.4748 19.5127 52.7764 18.6511 52.7764Z" fill="#4AA9D5"/>
<path d="M34.9334 52.7764H28.8632C28.0016 52.7764 27.3032 53.4748 27.3032 54.3363V60.4065C27.3032 61.268 28.0016 61.9664 28.8632 61.9664H34.9334C35.7949 61.9664 36.4933 61.268 36.4933 60.4065V54.3363C36.4933 53.4748 35.7949 52.7764 34.9334 52.7764Z" fill="#4AA9D5"/>
<path d="M51.2112 52.7764H45.141C44.2795 52.7764 43.5811 53.4748 43.5811 54.3363V60.4065C43.5811 61.268 44.2795 61.9664 45.141 61.9664H51.2112C52.0727 61.9664 52.7711 61.268 52.7711 60.4065V54.3363C52.7711 53.4748 52.0727 52.7764 51.2112 52.7764Z" fill="#4AA9D5"/>
<path d="M67.4885 52.7764H61.4183C60.5568 52.7764 59.8584 53.4748 59.8584 54.3363V60.4065C59.8584 61.268 60.5568 61.9664 61.4183 61.9664H67.4885C68.3501 61.9664 69.0485 61.268 69.0485 60.4065V54.3363C69.0485 53.4748 68.3501 52.7764 67.4885 52.7764Z" fill="#4AA9D5"/>
<path d="M18.6511 69.054H12.5809C11.7194 69.054 11.021 69.7524 11.021 70.6139V76.6841C11.021 77.5456 11.7194 78.244 12.5809 78.244H18.6511C19.5127 78.244 20.2111 77.5456 20.2111 76.6841V70.6139C20.2111 69.7524 19.5127 69.054 18.6511 69.054Z" fill="#4AA9D5"/>
<path d="M34.9334 69.054H28.8632C28.0016 69.054 27.3032 69.7524 27.3032 70.6139V76.6841C27.3032 77.5456 28.0016 78.244 28.8632 78.244H34.9334C35.7949 78.244 36.4933 77.5456 36.4933 76.6841V70.6139C36.4933 69.7524 35.7949 69.054 34.9334 69.054Z" fill="#4AA9D5"/>
<path d="M51.2112 69.054H45.141C44.2795 69.054 43.5811 69.7524 43.5811 70.6139V76.6841C43.5811 77.5456 44.2795 78.244 45.141 78.244H51.2112C52.0727 78.244 52.7711 77.5456 52.7711 76.6841V70.6139C52.7711 69.7524 52.0727 69.054 51.2112 69.054Z" fill="#4AA9D5"/>
<path d="M68.5983 79.1839L77.2894 80.2594L69.669 87.8798L68.5935 79.1888M68.5983 76.8537C67.9831 76.8537 67.392 77.0959 66.9512 77.5368C66.4425 78.0454 66.1954 78.7576 66.2875 79.4697L67.363 88.1608C67.4744 89.0474 68.0751 89.7886 68.9181 90.0793C69.1651 90.1665 69.4219 90.2052 69.6738 90.2052C70.2842 90.2052 70.8801 89.9678 71.321 89.5221L78.9414 81.9017C79.5712 81.2719 79.7892 80.3369 79.4985 79.494C79.2079 78.651 78.4618 78.0454 77.5801 77.9389L68.889 76.8634C68.7921 76.8537 68.7001 76.844 68.6032 76.844L68.5983 76.8537Z" fill="#444444"/>
</g>
<defs>
<clipPath id="clip0_50_617">
<rect width="80.0704" height="90.21" fill="white"/>
</clipPath>
</defs>
</svg>
