<svg width="596" height="61" viewBox="0 0 596 61" fill="none" xmlns="http://www.w3.org/2000/svg">
<g clip-path="url(#clip0_2042_28)">
<path d="M77.782 0.0351562L66.6815 54.8711C57.6153 59.264 48.4175 59.264 40.3245 59.264C34.7392 59.264 26.9881 57.7471 18.0534 58.0101C7.08445 58.3258 0.11377 60.5178 0.11377 60.5178L77.782 0.0351562Z" fill="#103869"/>
<path d="M66.6114 54.9237L77.9749 0C77.8083 0.0876815 77.6505 0.184131 77.4839 0.271813L77.782 0.0438407C68.7158 4.43668 57.0278 6.76024 48.7858 4.96277C43.3933 3.7703 37.7554 2.1745 26.2165 3.03378C17.2906 3.69139 11.2055 6.00618 11.2055 6.00618L0.11377 60.5178L35.8703 32.6789H60.4211L55.1164 58.3959C56.1685 58.5449 61.5083 56.8877 62.8236 56.4669C62.806 56.4669 62.7973 56.4669 62.7797 56.4844C59.3514 57.6155 68.3563 55.0903 66.6026 54.9237H66.6114ZM47.2952 23.7704L65.1208 9.89047L62.2624 23.7704H47.2952Z" fill="url(#paint0_linear_2042_28)"/>
<path d="M55.0026 5.60244C52.3458 5.62874 47.3831 4.61163 43.7794 3.86634C40.0003 3.07721 34.8271 2.51605 28.6981 2.69141C19.7634 2.94569 12.5472 5.1991 11.3021 5.47968H11.1969V5.50599C11.1443 5.51475 11.1268 5.52352 11.1268 5.52352L0 60.9996C2.20957 60.0176 3.46342 59.7633 4.5682 59.5178C5.95357 59.2284 7.04959 59.0092 8.53141 58.79C8.53141 58.79 8.75061 57.6326 9.09257 55.8439H12.7752L17.2294 32.6697H34.8183L46.7605 23.77H18.9392L21.1663 12.1785H46.287L55.0026 5.59367V5.60244Z" fill="#103869"/>
<path d="M104.534 57.817C103.184 57.7118 101.842 57.554 100.466 57.554C99.089 57.554 97.6685 57.7118 96.2656 57.817L107.287 7.71582H134.959C134.679 8.45234 134.346 9.23271 134.179 9.978C134.012 10.7058 134.004 11.4861 133.951 12.2226C130.663 11.8632 120.501 11.4949 114.705 11.4949L111.338 26.8567H118.747C120.895 26.8567 123.149 26.6463 125.516 26.3832C125.236 27.1197 124.902 27.9089 124.736 28.6366C124.578 29.3731 124.569 30.1623 124.517 30.89C122.254 30.6796 120.097 30.4166 117.897 30.4166H110.54L104.525 57.8258L104.534 57.817Z" fill="#103869"/>
<path d="M138.335 12.2842C139.685 12.3982 141.035 12.556 142.412 12.556C143.789 12.556 145.2 12.3982 146.603 12.2842L138.589 50.0924C137.239 49.9872 135.897 49.8206 134.521 49.8206C133.144 49.8206 131.724 49.9784 130.321 50.0924L138.326 12.2842H138.335Z" fill="#103869"/>
<path d="M153.697 12.2842H159.151C165.165 20.8244 171.601 29.1979 177.485 38.0801L182.956 12.2842C183.649 12.3982 184.412 12.4508 185.122 12.4508C185.832 12.4508 186.621 12.3982 187.358 12.2842L179.352 50.0924L174.679 50.0311C169.786 42.9289 165.279 36.1423 160.439 29.5837L155.766 23.3057L150.111 49.9784C149.409 49.9258 148.655 49.8206 147.945 49.8206C147.235 49.8206 146.437 49.9258 145.7 49.9784L153.688 12.2842H153.697Z" fill="#103869"/>
<path d="M194.802 35.2127L202.693 22.3761L204.885 35.2127H194.802ZM205.429 38.5709C206.139 42.2623 206.507 46.0063 206.911 50.0922C208.533 49.987 210.102 49.8204 211.707 49.8204C213.311 49.8204 214.819 49.9782 216.398 50.0922L209.129 11.7842C208.392 11.8982 207.708 11.9508 206.998 11.9508C206.288 11.9508 205.63 11.8982 204.938 11.7842L181.08 49.987C181.983 49.9344 182.877 49.8292 183.763 49.8292C184.648 49.8292 185.446 49.9344 186.314 49.987C188.164 46.1904 190.269 42.7708 192.592 38.5796H205.429V38.5709Z" fill="#103869"/>
<path d="M227.139 12.2842H232.601C238.616 20.8244 245.052 29.1979 250.944 38.0801L256.407 12.2842C257.099 12.3982 257.862 12.4508 258.572 12.4508C259.283 12.4508 260.072 12.3982 260.817 12.2842L252.803 50.0924L248.13 50.0311C243.246 42.9289 238.73 36.1423 233.899 29.5837L229.217 23.3057L223.561 49.9784C222.86 49.9258 222.115 49.8206 221.396 49.8206C220.677 49.8206 219.887 49.9258 219.151 49.9784L227.139 12.2842Z" fill="#103869"/>
<path d="M289.761 43.7L287.543 48.4348C283.869 50.1358 279.818 50.8022 276.127 50.8022C264.334 50.8022 256.951 43.5247 259.336 32.2225C262.387 17.8428 273.698 11.2842 285.71 11.2842C289.349 11.2842 293.558 12.2224 296.381 13.9848C295.496 15.8612 294.759 17.7463 293.909 19.6665H293.137C291.734 16.6854 288.648 14.5898 285.061 14.5898C275.916 14.5898 270.366 23.3579 268.656 31.4509C266.657 40.8767 269.884 47.4879 278.371 47.4879C281.791 47.4879 286.131 45.7255 289.112 43.3493L289.761 43.6825V43.7Z" fill="#103869"/>
<path d="M301.3 12.2842C302.65 12.3982 304 12.556 305.377 12.556C306.754 12.556 308.165 12.3982 309.568 12.2842L301.563 50.0924C300.204 49.9872 298.862 49.8206 297.494 49.8206C296.127 49.8206 294.697 49.9784 293.303 50.0924L301.309 12.2842H301.3Z" fill="#103869"/>
<path d="M318.477 35.2127L326.377 22.3761L328.569 35.2127H318.477ZM329.112 38.5709C329.823 42.2623 330.182 46.0063 330.594 50.0922C332.208 49.987 333.786 49.8204 335.39 49.8204C336.995 49.8204 338.494 49.9782 340.073 50.0922L332.804 11.7842C332.067 11.8982 331.392 11.9508 330.682 11.9508C329.972 11.9508 329.314 11.8982 328.621 11.7842L304.772 49.987C305.658 49.9344 306.561 49.8292 307.446 49.8292C308.332 49.8292 309.13 49.9344 310.007 49.987C311.865 46.1904 313.961 42.7708 316.285 38.5796H329.121L329.112 38.5709Z" fill="#103869"/>
<path d="M351.103 45.8486C355.89 45.8486 360.055 45.4628 363.878 45.0683C363.606 45.8486 363.264 46.6728 363.106 47.4444C362.949 48.2073 362.931 49.0402 362.878 49.8206H341.993L349.937 12.2842C351.296 12.3982 352.628 12.556 354.014 12.556C355.399 12.556 356.811 12.3982 358.205 12.2842L351.103 45.8486Z" fill="#103869"/>
<path d="M391.936 33.9762L401.695 17.6762L403.747 33.9762H391.936ZM404.308 37.1766C405.009 40.6751 406.824 53.9413 407.228 57.8168C408.85 57.7028 410.428 57.5537 412.033 57.5537C413.637 57.5537 415.137 57.7028 416.715 57.8168L408.14 7.61914C407.403 7.72436 406.728 7.78574 406.009 7.78574C405.29 7.78574 404.65 7.72436 403.949 7.61914L372.348 57.6239C373.251 57.5713 374.154 57.4748 375.031 57.4748C375.908 57.4748 376.715 57.58 377.583 57.6239C379.433 54.0114 387.657 40.9995 389.981 37.0275L404.308 37.1766Z" fill="#103869"/>
<path d="M451.673 48.3296C446.421 49.7062 441.283 50.811 436.434 50.811C424.808 50.811 415.689 44.9627 418.424 32.0121C421.335 18.2899 432.848 11.293 445.579 11.293C450.314 11.293 454.514 12.2838 458.153 14.6512C457.004 16.4136 456.049 18.3426 455.426 20.2189H454.654C452.901 16.5276 449.341 14.5986 444.992 14.5986C435.777 14.5986 429.499 22.9108 427.543 32.1699C425.518 41.7798 429.148 47.4966 437.521 47.4966C440.283 47.4966 442.423 46.725 443.913 45.9447L446.982 31.7227C448.333 31.828 449.683 31.9946 451.051 31.9946C452.419 31.9946 453.839 31.828 455.242 31.7227L451.673 48.3209V48.3296Z" fill="#103869"/>
<path d="M486.43 12.2842C486.15 13.0558 485.817 13.8887 485.65 14.6516C485.492 15.4144 485.483 16.2474 485.431 17.019C482.16 16.5806 478.504 16.1334 472.857 16.2474L470.35 28.1019H476.084C478.565 28.1019 480.871 27.8739 482.967 27.6021C482.704 28.3649 482.353 29.1979 482.187 29.9695C482.02 30.7411 482.011 31.5653 481.959 32.3281C479.986 32.0563 477.759 31.8371 475.277 31.8371H469.552L466.588 45.8399C472.217 45.7785 476.023 45.5067 479.486 45.0595C479.214 45.8399 478.864 46.6641 478.706 47.4357C478.539 48.1985 478.539 49.0315 478.487 49.8118H457.478L465.431 12.2754H486.43V12.2842Z" fill="#103869"/>
<path d="M491.867 12.2842H497.32C503.344 20.8244 509.771 29.1979 515.663 38.0801L521.126 12.2842C521.819 12.3982 522.582 12.4508 523.292 12.4508C524.002 12.4508 524.791 12.3982 525.536 12.2842L517.531 50.0924L512.858 50.0311C507.974 42.9289 503.458 36.1423 498.618 29.5837L493.945 23.3057L488.281 49.9784C487.579 49.9258 486.834 49.8206 486.115 49.8206C485.396 49.8206 484.598 49.9258 483.87 49.9784L491.858 12.2842H491.867Z" fill="#103869"/>
<path d="M555.795 43.7L553.577 48.4348C549.92 50.1358 545.861 50.8022 542.152 50.8022C530.367 50.8022 522.976 43.5247 525.378 32.2225C528.421 17.8428 539.723 11.2842 551.744 11.2842C555.374 11.2842 559.592 12.2224 562.406 13.9848C561.521 15.8612 560.793 17.7463 559.942 19.6665H559.179C557.768 16.6854 554.69 14.5898 551.104 14.5898C541.95 14.5898 536.409 23.3579 534.69 31.4509C532.691 40.8767 535.918 47.4879 544.414 47.4879C547.834 47.4879 552.165 45.7255 555.146 43.3493L555.795 43.6825V43.7Z" fill="#103869"/>
<path d="M571.175 34.1607C568.553 27.0585 566.493 19.6231 563.967 12.293C565.589 12.407 567.211 12.5648 568.869 12.5648C570.526 12.5648 572.218 12.407 573.884 12.293C574.726 15.3267 575.638 18.8515 576.497 22.0958C577.321 25.1821 578.075 27.8827 578.566 28.7157C581.205 26.1203 587.229 16.9752 590.307 12.293C591.175 12.407 592.034 12.4596 592.972 12.4596C593.911 12.4596 594.743 12.407 595.655 12.293C590.193 19.3513 584.651 26.0151 579.68 33.0735L576.085 50.1012C574.726 49.996 573.375 49.8294 572.008 49.8294C570.64 49.8294 569.219 49.9872 567.817 50.1012L571.183 34.1695L571.175 34.1607Z" fill="#103869"/>
<path d="M455.111 32.3459H443.931C441.45 32.3459 439.153 32.5563 437.048 32.8457C437.32 32.0653 437.732 30.9342 437.899 30.1626C438.065 29.3823 438.083 28.2862 438.136 27.5146C440.108 27.7865 442.406 27.8829 444.878 27.8829H456.058L455.102 32.3371L455.111 32.3459Z" fill="#A68C38"/>
</g>
<defs>
<linearGradient id="paint0_linear_2042_28" x1="24.8926" y1="11.0919" x2="80.3779" y2="63.9983" gradientUnits="userSpaceOnUse">
<stop stop-color="#AF9546"/>
<stop offset="0.22" stop-color="#DDD2B7"/>
<stop offset="0.39" stop-color="#C8B57B"/>
<stop offset="0.54" stop-color="#BAA460"/>
<stop offset="0.7" stop-color="#AF9649"/>
<stop offset="0.86" stop-color="#A88E3C"/>
<stop offset="1" stop-color="#A68C38"/>
</linearGradient>
<clipPath id="clip0_2042_28">
<rect width="595.655" height="61" fill="white"/>
</clipPath>
</defs>
</svg>
