<svg width="456" height="123" viewBox="0 0 456 123" fill="none" xmlns="http://www.w3.org/2000/svg">
<path d="M428.596 97.57V113.52C428.596 115.898 427.088 117.87 424.072 117.87C420.824 117.87 419.606 115.956 419.606 113.52V76.922C419.606 72.746 422.1 70.832 426.102 70.832H441.588C449.998 70.832 455.856 75.414 455.856 84.172C455.856 92.93 449.882 97.57 441.472 97.57H428.596ZM428.596 93.858H437.934C444.082 93.858 446.286 89.624 446.286 84.056C446.286 78.546 444.14 74.602 438.108 74.602H430.684C429.582 74.602 428.596 75.588 428.596 76.632V93.858Z" fill="#4AA9D5"/>
<path d="M389.478 91.77H407.168C408.212 91.77 409.082 92.582 409.082 93.626C409.082 94.67 408.154 95.482 407.168 95.482H389.478V111.2C389.478 112.302 390.406 113.288 391.508 113.288H409.198C410.242 113.288 411.112 114.1 411.112 115.144C411.112 116.188 410.242 117 409.198 117H386.926C382.866 117 380.488 115.202 380.488 110.968V76.922C380.488 72.746 382.924 70.832 386.926 70.832H408.56C409.604 70.832 410.474 71.644 410.474 72.688C410.474 73.732 409.546 74.602 408.56 74.602H391.508C390.406 74.602 389.478 75.588 389.478 76.632V91.77Z" fill="#4AA9D5"/>
<path d="M359.227 74.602V113.52C359.227 115.782 357.835 117.87 354.761 117.87C351.861 117.87 350.237 115.898 350.237 113.52V74.602H338.695C337.651 74.602 336.781 73.79 336.781 72.746C336.781 71.644 337.651 70.832 338.695 70.832H370.827C371.813 70.832 372.683 71.644 372.683 72.688C372.683 73.732 371.813 74.602 370.827 74.602H359.227Z" fill="#4AA9D5"/>
<path d="M314.472 69.9624C320.446 69.9624 325.666 71.3544 329.668 76.0524C330.77 77.3864 331.93 79.2424 331.93 80.8664C331.93 83.1864 329.436 84.4624 327.406 84.4624C326.014 84.4624 324.622 83.9404 323.694 82.8964C323.172 82.3164 322.998 81.6784 322.882 80.9244C322.128 75.9364 318.996 73.8484 314.124 73.8484C310.006 73.8484 306.41 75.6464 306.41 80.2864C306.41 81.9104 306.874 83.4764 308.15 84.5784C310.238 86.3764 312.964 87.4204 315.458 88.3484C319.692 89.9144 325.608 92.4084 328.972 95.1344C331.872 97.5124 333.264 100.876 333.264 104.646C333.264 114.738 324.158 117.87 315.574 117.87C309.658 117.87 303.8 116.188 299.856 111.606C298.406 109.924 297.014 107.662 297.014 105.4C297.014 103.022 299.392 101.63 301.596 101.63C302.872 101.63 304.206 102.094 305.192 103.022C306.004 103.834 306.12 104.936 306.236 106.038C306.816 111.432 310.122 113.984 315.4 113.984C319.866 113.984 323.984 111.954 323.984 106.966C323.984 102.384 321.142 100.586 313.544 97.6864C305.598 94.6704 297.71 91.5964 297.71 82.6064C297.71 73.0364 306.294 69.9624 314.472 69.9624Z" fill="#4AA9D5"/>
<path d="M257.864 113.288H280.368C281.412 113.288 282.282 114.1 282.282 115.144C282.282 116.188 281.412 117 280.368 117H249.222C247.482 117 245.742 116.014 245.742 114.1C245.742 111.316 248.062 107.024 249.744 104.878C253.572 100.006 258.908 96.6424 264.186 93.6264C268.71 91.0744 272.712 88.5224 272.712 82.7804C272.712 77.5024 269.812 73.7324 264.36 73.7324C262.214 73.7324 260.01 74.1964 258.386 75.7044C256.704 77.2124 255.602 79.6484 255.602 81.9104C255.602 82.6064 255.66 83.0704 255.718 83.5344C255.776 83.9404 255.834 84.5204 255.834 84.6944C255.834 87.4784 253.398 88.9284 250.846 88.9284C248.468 88.9284 246.032 87.5944 246.032 84.9844C246.032 82.0264 247.424 78.8944 249.164 76.5744C252.934 71.5864 259.14 69.9624 265.114 69.9624C273.814 69.9624 282.108 73.6744 282.108 83.5924C282.108 92.2344 274.974 96.4684 266.738 101.108C263.142 103.138 256.24 107.256 256.24 111.954C256.24 112.882 256.994 113.288 257.864 113.288Z" fill="#4AA9D5"/>
<path d="M219.178 69.0342C221.672 69.0342 223.354 70.1362 223.586 72.6882C223.818 78.0822 223.992 83.4182 223.992 88.8122C223.992 100.064 223.818 111.026 212.45 116.884C209.086 118.624 205.374 119.726 201.604 120.422C200.792 120.596 199.98 120.77 199.11 120.77C197.95 120.77 196.906 120.132 196.906 118.856C196.906 117.522 198.066 117.058 199.168 116.884C203.286 116.304 207.752 114.274 210.652 111.258C215.466 106.27 215.582 99.4262 215.582 91.8282C215.582 87.5942 215.524 83.0122 215.234 79.2422C215.06 77.2122 214.944 74.9502 214.944 72.8042C214.944 70.1362 216.626 69.0342 219.178 69.0342ZM191.396 70.2522C193.658 70.2522 195.862 71.4122 195.862 73.9062C195.862 74.8342 195.688 75.7622 195.514 76.6902C194.702 81.1562 194.412 85.6802 194.412 90.2042C194.412 93.1042 194.47 96.0042 194.934 98.8462C195.05 99.6582 195.282 100.76 196.268 100.76C197.254 100.76 198.124 100.006 199.226 98.6142C199.69 97.9762 200.212 97.5702 200.966 97.5702C202.01 97.5702 202.938 98.6722 202.938 99.6582C202.938 100.876 200.966 103.138 200.096 104.066C198.182 106.212 195.92 108.648 192.788 108.648C190.584 108.648 188.96 107.546 187.974 105.69C186.002 101.804 185.944 96.4682 185.944 92.2342C185.944 86.7242 186.35 79.1842 187.22 73.7902C187.626 71.3542 188.902 70.2522 191.396 70.2522Z" fill="#4AA9D5"/>
<path d="M142.56 80.4022C145.808 80.2862 149.056 80.2282 152.304 79.9962C153.58 79.8802 154.856 79.7642 155.668 79.7642C156.828 79.7642 157.466 80.6922 157.466 81.7942C157.466 83.0702 156.48 83.6502 155.32 83.7082C150.912 83.9402 146.446 84.1142 141.98 84.2882C141.516 87.6522 141.11 91.0162 140.704 94.3222C144.126 94.2062 147.548 94.0322 150.97 93.8002C152.304 93.6842 153.174 93.6262 154.276 93.6262C155.378 93.6262 156.074 94.5542 156.074 95.5982C156.074 96.9902 155.03 97.5122 153.812 97.6282C149.288 97.8602 144.764 98.0342 140.298 98.2082C139.95 101.05 139.66 103.892 139.66 106.734C139.66 114.1 143.952 116.072 150.68 116.072C157.408 116.072 163.034 113.694 163.034 106.096C163.034 102.906 162.222 99.7742 161.062 96.8742C160.714 96.0042 160.656 95.7722 160.656 95.4242C160.656 94.4382 161.584 93.6842 162.512 93.6842C163.614 93.6842 164.252 94.7282 165.354 96.5262C167.442 99.9482 169.588 103.95 169.588 108.068C169.588 111.664 167.79 115.028 164.774 117C160.946 119.494 154.798 120.016 150.332 120.016C145.518 120.016 140.066 119.552 135.948 116.884C132.294 114.564 131.366 110.504 131.366 106.444C131.366 103.834 131.656 101.166 131.946 98.5562C129.394 98.6142 126.842 98.6722 124.29 98.6722C123.014 98.6722 122.086 97.9762 122.086 96.6422C122.086 95.3082 123.072 94.6702 124.29 94.6702H125.218C127.596 94.6702 129.974 94.6702 132.352 94.6122C132.758 91.2482 133.106 87.9422 133.454 84.5782C131.018 84.6362 128.524 84.6942 126.03 84.6942C124.754 84.6942 123.478 84.2882 123.478 82.7222C123.478 81.1562 124.638 80.8082 125.972 80.8082H126.436C128.93 80.8082 131.424 80.7502 133.918 80.6922C134.208 78.3142 134.44 74.0222 134.904 71.9342C135.368 69.7882 136.934 69.0342 139.022 69.0342C141.4 69.0342 143.662 70.0782 143.662 72.7462C143.662 74.5442 142.792 78.4302 142.56 80.4022Z" fill="#4AA9D5"/>
<path d="M100.626 75.1822V78.0242H108.746C109.79 78.0242 110.718 78.4882 110.718 79.6482C110.718 80.7502 109.79 81.2142 108.746 81.2142H100.626V84.3462H111.646C112.69 84.3462 113.676 84.8102 113.676 85.9122C113.676 87.0722 112.69 87.5362 111.646 87.5362H82.2404C81.2544 87.5362 80.2684 87.0722 80.2684 85.9122C80.2684 84.8102 81.2544 84.3462 82.2404 84.3462H92.5644V81.2142H84.4444C83.4584 81.2142 82.4724 80.7502 82.4724 79.6482C82.4724 78.4882 83.4584 78.0242 84.4444 78.0242H92.5644V75.1822H83.0524C82.0084 75.1822 81.0224 74.7182 81.0224 73.5582C81.0224 72.4562 82.0084 71.9342 83.0524 71.9342H92.5644C92.5644 71.1802 92.6224 70.4262 92.9124 69.7302C93.4344 68.3382 94.9424 67.7002 96.5664 67.7002C98.2484 67.7002 99.6984 68.3382 100.278 69.7302C100.568 70.4262 100.626 71.1802 100.626 71.9342H110.138C111.182 71.9342 112.168 72.4562 112.168 73.5582C112.168 74.7182 111.182 75.1822 110.138 75.1822H100.626ZM74.5264 87.7682C75.8024 92.1762 77.7744 96.3522 80.3844 100.18C80.6164 100.528 80.8484 100.876 80.8484 101.34C80.8484 102.21 80.0944 102.964 79.2244 102.964C77.7744 102.964 75.3384 99.2522 74.5264 98.0342V117.928C74.5264 121.118 73.0184 122.046 70.7564 122.046C68.8424 122.046 67.0444 121.408 67.0444 117.928V102.848C65.7684 105.284 64.2024 107.604 62.4044 109.692C61.8824 110.272 61.4184 110.852 60.6064 110.852C59.6784 110.852 58.9824 110.098 58.9824 109.228C58.9824 108.764 59.1564 108.474 59.6204 107.662C63.5644 101.456 65.7684 94.3802 66.9284 87.1302H61.5344C60.5484 87.1302 59.5624 86.6662 59.5624 85.5062C59.5624 84.4042 60.5484 83.9402 61.5344 83.9402H67.0444V75.5882C65.1884 75.7622 63.3324 75.9942 61.4764 75.9942C60.4904 75.9942 59.6204 75.4142 59.6204 74.3702C59.6204 72.9782 60.8964 72.8042 61.9984 72.6302C66.2904 71.9922 70.4084 70.8902 74.2944 68.7442C75.1064 68.2802 75.9764 67.8742 76.9044 67.8742C78.7024 67.8742 80.0364 69.7882 80.0364 71.4702C80.0364 72.9202 79.2244 73.3262 78.1224 73.7322C76.9624 74.1382 75.7444 74.3122 74.5264 74.5442V83.9402H77.6584C78.6444 83.9402 79.5724 84.4042 79.5724 85.5062C79.5724 86.6662 78.6444 87.1302 77.6584 87.1302H74.5264V87.7682ZM103.294 112.244C104.106 112.708 104.802 113.288 105.498 113.926C107.18 115.492 108.746 116.652 110.08 117.348C111.878 118.276 112.574 118.566 113.096 118.856C113.618 119.146 113.908 119.668 113.908 120.306C113.908 121.06 113.328 121.872 112.516 121.872C111.762 121.872 107.586 121.002 106.136 120.596C104.048 120.074 101.902 119.494 99.9304 118.392C98.9444 117.87 98.1324 117.116 98.1324 115.898C98.1324 114.1 99.8724 112.708 101.496 112.244H90.4184C92.1584 112.592 94.4204 113.984 94.4204 115.956C94.4204 117.638 92.7384 118.392 91.4044 118.856C88.3304 120.016 85.0824 120.712 81.8924 121.35C80.6164 121.582 78.6444 121.93 77.9484 121.93C77.0784 121.93 76.2664 121.234 76.2664 120.364C76.2664 119.552 76.8464 119.03 77.6004 118.74C80.8484 117.58 83.4584 116.014 86.0104 113.926C86.8224 113.23 87.6924 112.534 88.7364 112.244H87.5184C84.6184 112.244 82.3564 110.968 82.3564 107.836V94.4382C82.3564 91.3062 84.6184 90.0302 87.5184 90.0302H105.44C108.282 90.0302 110.544 91.3062 110.544 94.4382V107.836C110.544 110.968 108.282 112.244 105.44 112.244H103.294ZM102.656 96.3522V94.7862C102.656 93.6842 102.25 93.2782 101.148 93.2782H91.6944C90.5344 93.2782 90.1284 93.6842 90.1284 94.7862V96.3522H102.656ZM102.656 99.6002H90.1284V102.558H102.656V99.6002ZM102.656 105.748H90.1284V107.488C90.1284 108.648 90.5344 108.996 91.6944 108.996H101.148C102.25 108.996 102.656 108.648 102.656 107.488V105.748Z" fill="#4AA9D5"/>
<path d="M36.8262 103.892V116.594C36.8262 117.754 37.2902 118.276 38.5082 118.276H42.6842C45.7002 118.276 46.2222 116.014 46.6862 112.302C46.9762 110.156 48.0202 109.112 50.2242 109.112C52.1962 109.112 54.3422 110.156 54.3422 112.36C54.3422 114.564 53.7622 117.058 52.4862 118.914C51.0362 121.06 48.7162 121.524 46.2802 121.524H34.9702C31.3742 121.524 28.9382 119.668 28.9382 115.956V103.892H24.8202C24.4142 111.084 20.4702 116.014 14.0322 118.972C11.3642 120.248 5.21624 121.93 2.31624 121.93C1.27224 121.93 0.344238 121.408 0.344238 120.306C0.344238 119.262 1.21424 118.798 2.14224 118.624C6.84024 117.696 12.1182 115.318 14.5542 111.026C15.7722 108.88 16.2362 106.386 16.2942 103.892H13.4522C9.91424 103.892 7.42024 102.094 7.42024 98.3241V74.8341C7.42024 71.1221 9.91424 69.2661 13.4522 69.2661H41.0602C44.6562 69.2661 47.0922 71.1221 47.0922 74.8341V98.3241C47.0922 102.094 44.6562 103.892 41.0602 103.892H36.8262ZM15.5982 79.7061H39.1462V74.1961C39.1462 73.0361 38.6822 72.5141 37.4642 72.5141H17.2802C16.0622 72.5141 15.5982 73.0361 15.5982 74.1961V79.7061ZM39.1462 82.9541H15.5982V90.1461H39.1462V82.9541ZM39.1462 93.3361H15.5982V99.0201C15.5982 100.18 16.0622 100.702 17.2802 100.702H37.4642C38.6822 100.702 39.1462 100.18 39.1462 99.0201V93.3361Z" fill="#4AA9D5"/>
<path d="M361.34 9.1402C361.34 10.6522 360.08 11.9842 358.568 11.9842C357.632 11.9842 356.948 11.3722 356.12 10.4002C354.212 8.2402 352.124 6.5842 349.604 5.1802C348.884 4.7842 348.38 4.4962 348.38 3.8842C348.38 3.3082 348.884 2.8042 349.46 2.8042C350.72 2.8042 354.716 4.3522 355.976 4.9282C357.344 5.5402 358.712 6.1882 359.972 7.0162C360.728 7.5202 361.34 8.1682 361.34 9.1402ZM349.856 33.2602C348.236 33.2602 347.3 31.7122 347.3 30.2362C347.3 28.2562 348.596 27.8602 351.152 27.4642C353.6 27.0682 355.94 26.4202 358.244 25.4842C360.692 24.4762 363.068 23.2522 365.192 21.7042C368.648 19.2202 371.78 16.1602 373.868 12.4162C374.12 11.9482 374.408 11.5162 375.02 11.5162C375.632 11.5162 376.172 11.9842 376.172 12.5962C376.172 13.0642 375.596 14.2522 374.984 15.4042C373.4 18.4282 371.348 21.0922 368.936 23.4322C365.264 26.9962 360.98 29.4802 356.228 31.3882C354.14 32.2162 351.332 33.2602 349.856 33.2602Z" fill="#4AA9D5"/>
<path d="M313.784 4.74805H332.36C333.08 4.74805 333.764 5.10805 333.764 5.90005C333.764 6.69205 333.08 7.05205 332.36 7.05205H313.784C313.064 7.05205 312.38 6.69205 312.38 5.90005C312.38 5.10805 313.064 4.74805 313.784 4.74805ZM310.004 12.272H334.016C335.636 12.272 336.644 13.496 336.644 15.044C336.644 16.592 336.176 18.212 335.6 19.652C334.268 23.036 332.108 25.7 329.156 27.824C325.844 30.2 322.028 31.64 317.996 32.288C317.168 32.432 316.304 32.576 315.44 32.576C314.792 32.576 314.216 32.108 314.216 31.424C314.216 30.596 314.9 30.272 315.62 30.164C320.84 29.444 325.52 27.464 328.364 22.82C329.516 20.912 330.2 18.932 330.668 16.772C330.74 16.376 330.776 15.98 330.776 15.62C330.776 15.044 330.416 14.576 329.804 14.576H310.004C309.284 14.576 308.6 14.252 308.6 13.424C308.6 12.632 309.284 12.272 310.004 12.272Z" fill="#4AA9D5"/>
<path d="M299.528 0.39209C301.508 0.39209 303.2 2.04809 303.2 4.06409C303.2 6.04409 301.508 7.73609 299.528 7.73609C297.512 7.73609 295.856 6.04409 295.856 4.06409C295.856 2.04809 297.512 0.39209 299.528 0.39209ZM299.528 2.26409C298.556 2.26409 297.728 3.09209 297.728 4.06409C297.728 5.03609 298.556 5.82809 299.528 5.82809C300.5 5.82809 301.292 5.03609 301.292 4.06409C301.292 3.09209 300.5 2.26409 299.528 2.26409ZM272.06 5.90009H294.056C295.928 5.90009 297.26 7.37609 297.26 9.21209C297.26 10.4001 296.252 13.3521 295.712 14.7561C294.2 18.6801 292.112 22.3161 289.052 25.2321C285.308 28.7961 280.088 31.2081 275.372 32.3601C273.824 32.7201 273.212 32.8641 272.708 32.8641C272.024 32.8641 271.52 32.3961 271.52 31.7121C271.52 30.9201 272.204 30.5961 272.888 30.4161C279.728 28.5801 285.272 24.6561 288.584 18.2841C289.592 16.3401 290.348 14.2521 290.888 12.1281C291.284 10.6161 291.392 10.0041 291.392 9.50009C291.392 8.78009 290.96 8.20409 290.204 8.20409H272.06C271.34 8.20409 270.656 7.84409 270.656 7.05209C270.656 6.22409 271.34 5.90009 272.06 5.90009Z" fill="#4AA9D5"/>
<path d="M249.992 22.6401V31.2441C249.992 32.6481 249.992 34.4121 247.58 34.4121C245.06 34.4121 245.06 32.6121 245.06 31.2441V22.6401H237.68C236.996 26.8881 235.52 30.6681 232.496 33.8721C231.92 34.4841 231.632 34.7721 231.164 34.7721C230.624 34.7721 230.192 34.3401 230.192 33.8001C230.192 33.5481 230.264 33.3681 230.516 32.9001C233 28.5081 233.144 23.2161 233.144 18.2481V6.36811C233.144 4.02811 234.656 2.91211 236.888 2.91211H258.74C260.972 2.91211 262.484 4.02811 262.484 6.36811V31.2081C262.484 33.5481 260.972 34.6641 258.74 34.6641H253.7C253.088 34.6641 252.476 34.3761 252.476 33.6561C252.476 32.9721 253.088 32.6481 253.7 32.6481H256.184C257.192 32.6481 257.588 32.2521 257.588 31.2441V22.6401H249.992ZM249.992 11.7681H257.588V5.97211C257.588 5.25211 257.3 4.92811 256.544 4.92811H249.992V11.7681ZM245.06 11.7681V4.92811H239.12C238.364 4.92811 238.076 5.25211 238.076 5.97211V11.7681H245.06ZM249.992 20.6601H257.588V13.7481H249.992V20.6601ZM245.06 20.6601V13.7481H238.076V17.0961C238.076 18.2841 238.004 19.4721 237.932 20.6601H245.06Z" fill="#4AA9D5"/>
<path d="M214.208 21.5599H200.204C197.828 21.5599 196.46 20.4439 196.46 18.1039V12.3799C196.46 10.0399 197.972 8.9239 200.204 8.9239H207.116V6.4039H193.976C193.328 6.4039 192.752 6.0799 192.752 5.3959C192.752 4.6759 193.328 4.3879 193.976 4.3879H207.116V4.0639C207.116 2.0119 208.124 1.3999 209.6 1.3999C210.86 1.3999 212.012 1.8319 212.012 4.0639V4.3879H225.224C225.836 4.3879 226.448 4.6759 226.448 5.3959C226.448 6.0799 225.836 6.4039 225.224 6.4039H212.012V8.9239H218.888C221.12 8.9239 222.632 10.0399 222.632 12.3799V18.1039C222.632 20.5879 221.12 21.5599 218.888 21.5599H218.492C218.78 22.0279 218.816 22.6399 218.816 23.2159V24.2239H225.152C225.8 24.2239 226.376 24.5479 226.376 25.2319C226.376 25.9519 225.8 26.2399 225.152 26.2399H218.816V31.3879C218.816 33.8359 217.304 34.8439 215.072 34.8439H209.348C208.736 34.8439 208.124 34.5559 208.124 33.8359C208.124 33.1519 208.736 32.8279 209.348 32.8279H212.48C213.452 32.8279 213.884 32.4679 213.884 31.4239V26.2399H198.764C200.384 26.7079 202.04 27.5359 203.444 28.3279C205.064 29.2279 206.18 30.1999 206.18 31.4959C206.18 32.9359 204.776 34.0879 203.408 34.0879C202.04 34.0879 201.68 33.4039 200.852 31.9639C200.024 30.5239 198.98 29.2279 197.828 28.0399C197.576 27.7879 197.36 27.5359 197.36 27.1759C197.36 26.7439 197.648 26.3839 198.044 26.2399H193.976C193.328 26.2399 192.752 25.9519 192.752 25.2319C192.752 24.5479 193.328 24.2239 193.976 24.2239H213.884V23.1799C213.884 22.6399 213.92 22.0279 214.208 21.5599ZM212.012 10.9399V14.2159H217.736V11.9839C217.736 11.2639 217.412 10.9399 216.692 10.9399H212.012ZM201.572 14.2159H207.116V10.9399H202.616C201.86 10.9399 201.572 11.2279 201.572 11.9839V14.2159ZM217.736 16.1959H212.012V19.5439H216.692C217.412 19.5439 217.736 19.2199 217.736 18.4999V16.1959ZM207.116 19.5439V16.1959H201.572V18.4999C201.572 19.2919 201.86 19.5439 202.616 19.5439H207.116Z" fill="#4AA9D5"/>
<path d="M168.596 11.0839C166.724 16.8079 164.636 23.1079 163.232 28.3279C162.836 29.8039 162.512 31.0279 162.044 32.1439C161.684 32.9719 160.784 33.3319 159.92 33.3319C158.66 33.3319 157.112 32.5038 157.112 31.0998C157.112 29.7678 159.236 23.5399 160.064 21.1279C161.18 17.8519 162.152 14.5759 163.16 11.2999C161.36 11.3719 159.56 11.4439 157.724 11.4439C156.932 11.4439 156.284 11.0839 156.284 10.2199C156.284 9.39185 156.896 8.95985 157.652 8.95985H158.588C160.388 8.95985 162.152 8.92385 163.952 8.85185C164.312 7.69985 165.428 4.20785 165.824 3.34385C166.328 2.26385 166.976 2.04785 167.948 2.04785C169.208 2.04785 170.792 2.83985 170.792 4.24385C170.792 4.85585 169.784 7.62785 169.388 8.63585C170.36 8.56385 173.996 8.31185 174.644 8.31185C175.328 8.31185 175.76 8.85185 175.76 9.49985C175.76 10.3279 175.22 10.6879 174.5 10.7599C172.52 10.9399 170.576 11.0119 168.596 11.0839ZM185.372 17.8159C184.76 17.8159 184.148 17.5639 183.608 17.3479C180.764 16.3039 177.776 15.6919 174.752 15.4759C173.852 15.4039 172.916 15.2959 172.916 14.1439C172.916 12.8119 173.996 12.8119 175.94 12.8119C178.712 12.8119 181.952 12.9559 184.652 13.3519C186.02 13.5319 187.064 13.9999 187.064 15.5839C187.064 16.5919 186.524 17.8159 185.372 17.8159ZM170.612 23.6839C171.26 23.6839 171.944 24.1518 171.944 24.8358C171.944 25.0159 171.908 25.1958 171.692 25.6638C171.368 26.3118 171.152 27.0678 171.152 27.7878C171.152 30.1278 174.428 30.1639 176.12 30.1639C178.676 30.1639 181.196 29.8759 183.716 29.4439C184.04 29.3719 184.364 29.3358 184.688 29.3358C185.84 29.3358 186.524 30.2719 186.524 31.3519C186.524 32.7199 185.696 33.4759 184.4 33.5839C182.024 33.7999 179.576 33.7999 177.164 33.7999C175.22 33.7999 173.132 33.7639 171.332 33.0799C169.496 32.3959 168.128 30.7039 168.128 28.7239C168.128 27.4639 169.028 23.6839 170.612 23.6839Z" fill="#4AA9D5"/>
<path d="M124.748 9.06825C125.396 7.30424 126.08 5.46825 126.728 3.77625C127.052 2.91225 127.844 2.55225 128.744 2.55225C129.896 2.55225 131.3 3.16424 131.3 4.46025C131.3 4.78425 131.12 5.39625 130.868 6.04425C130.508 6.98025 130.004 8.16825 129.752 8.74425C130.292 8.70825 131.444 8.63625 132.596 8.45625C133.532 8.31225 134.324 8.20425 134.396 8.20425C135.08 8.20425 135.584 8.74425 135.584 9.42825C135.584 10.5082 134.828 10.7242 133.928 10.8322C132.2 11.0482 130.508 11.1562 128.78 11.2642C126.944 16.2682 125.216 21.2362 123.956 26.3842C123.632 27.7162 123.128 28.8682 121.58 28.8682C120.284 28.8682 118.916 28.0762 118.916 26.6722C118.916 25.9162 119.6 23.9002 120.32 21.8842C121.544 18.4282 122.624 15.1882 123.848 11.5162C122.948 11.5522 122.012 11.5882 121.076 11.5882C120.176 11.5882 119.024 11.5882 119.024 10.3642C119.024 9.53625 119.636 9.03225 120.392 9.03225C121.112 9.03225 121.832 9.06825 122.552 9.06825C123.308 9.06825 124.028 9.06825 124.748 9.06825ZM149.12 11.4082C149.12 12.4882 148.364 13.7122 147.176 13.7122C146.528 13.7122 145.952 13.3162 145.448 12.9562C144.368 12.2002 143.216 11.5522 142.064 10.9402C140.948 10.3642 139.76 9.89625 138.608 9.46425C138.14 9.28425 137.744 8.96024 137.744 8.38425C137.744 7.80824 138.248 7.23225 138.86 7.23225C139.868 7.23225 143.9 8.42025 145.052 8.78025C146.132 9.10425 147.32 9.46425 148.292 9.96825C148.832 10.2562 149.12 10.7962 149.12 11.4082ZM137.024 24.4042C136.844 21.8482 136.7 19.2922 136.7 16.7362C136.7 14.9002 137.06 13.6042 139.184 13.6042C141.092 13.6042 141.668 14.9002 141.668 16.5922C141.668 17.7442 141.632 18.8962 141.632 20.0842C141.632 21.8842 141.776 23.6842 141.848 25.4842C143.468 25.9882 145.052 26.6002 146.6 27.3202C147.644 27.8242 148.688 28.2922 148.688 29.6602C148.688 30.8842 147.788 32.0362 146.456 32.0362C145.772 32.0362 145.268 31.6042 144.764 31.1362C143.936 30.4162 143 29.8042 142.064 29.1922C141.92 30.3082 141.812 31.0642 140.984 31.8922C139.364 33.5482 136.664 33.9082 134.432 33.9082C131.516 33.9082 126.836 32.9362 126.836 29.2282C126.836 27.2842 128.384 25.7722 130.04 25.0522C131.444 24.4402 133.064 24.2242 134.576 24.2242C135.368 24.2242 136.196 24.2962 137.024 24.4042ZM137.204 26.9962C136.412 26.8162 135.62 26.6362 134.792 26.6362C133.208 26.6362 131.192 27.1042 131.192 29.0122C131.192 30.7042 132.74 31.3882 134.216 31.3882C135.98 31.3882 137.312 30.7042 137.312 28.7962C137.312 28.1842 137.24 27.6082 137.204 26.9962Z" fill="#4AA9D5"/>
<path d="M90.8721 10.4719C88.4601 10.5439 86.0121 10.6159 83.6001 10.6519C82.8081 10.6519 82.1961 10.3279 82.1961 9.42786C82.1961 8.49186 82.8441 8.20386 83.6721 8.20386H84.5001C86.6961 8.20386 88.8921 8.16785 91.0881 8.09586C91.2321 6.61986 91.3761 5.10786 91.6641 3.66785C91.9521 2.22786 92.7801 1.65186 94.2201 1.65186C95.5161 1.65186 97.0641 2.22786 97.0641 3.77586C97.0641 4.24386 96.8481 5.25186 96.6321 6.22386C96.4881 6.83585 96.3441 7.48385 96.2721 7.87986C99.2961 7.77186 102.32 7.66385 105.308 7.37586C105.92 7.30386 106.532 7.19586 107.144 7.19586C107.864 7.19586 108.368 7.66386 108.368 8.41986C108.368 9.28386 107.792 9.57186 107 9.67986C105.848 9.78786 105.056 9.82386 103.508 9.89586C100.952 10.0399 98.4321 10.1479 95.9121 10.2559C95.6961 11.6599 95.5161 13.0279 95.3721 14.4319C96.4521 14.2519 97.4961 14.1439 98.5401 14.1439C104.588 14.1439 110.78 16.4479 110.78 23.5039C110.78 28.1479 107.936 31.3879 103.688 32.8639C102.032 33.4399 99.3681 34.0879 97.6041 34.0879C96.9201 34.0879 96.3441 33.6559 96.3441 32.8999C96.3441 31.8919 97.1721 31.7479 98.0001 31.6399C102.284 31.0999 105.344 28.0399 105.344 23.6119C105.344 21.0919 104.264 18.4279 101.78 17.4199C100.736 21.3079 99.3321 25.1599 96.7041 28.2559C94.4001 30.9919 91.0521 33.0799 87.4161 33.0799C83.6001 33.0799 82.0161 30.5239 82.0161 26.9599C82.0161 23.8999 83.4201 21.1639 85.5081 19.0039C86.9481 17.5279 88.7121 16.5199 90.5841 15.6919C90.6561 13.9639 90.7641 12.1999 90.8721 10.4719ZM95.4081 25.0519C97.0641 22.4239 98.0721 19.4719 98.6481 16.4479C98.2881 16.4119 97.9281 16.3759 97.5681 16.3759C96.7761 16.3759 95.9841 16.4479 95.1921 16.6639C95.1561 17.9599 95.1201 19.2919 95.1201 20.5879C95.1201 22.0639 95.1561 23.5759 95.4081 25.0519ZM91.5561 28.7959C90.7641 25.9519 90.5841 22.0999 90.5841 19.1119C87.9561 20.7679 86.3721 23.9359 86.3721 26.9959C86.3721 28.2199 86.7321 29.9839 88.2801 29.9839C89.4681 29.9839 90.6561 29.4799 91.5561 28.7959Z" fill="#4AA9D5"/>
</svg>
