<svg width="70" height="16" viewBox="0 0 70 16" fill="none" xmlns="http://www.w3.org/2000/svg">
<path d="M69.3909 1.93399V14.0446C69.3909 14.7709 68.9914 15.4064 67.9928 15.4064C67.0486 15.4064 66.5766 14.8072 66.5766 14.0446V3.31391C66.5766 3.20497 66.5766 3.05972 66.4313 3.05972C66.395 3.05972 66.3042 3.05972 66.05 3.1505C65.6142 3.31391 64.6882 3.49548 63.9801 3.49548C63.6351 3.49548 63.3628 3.20497 63.3628 2.85999C63.3628 2.42423 63.7078 2.27897 64.0709 2.20634C64.9424 2.04293 65.7232 1.58901 66.3768 1.00799C66.8308 0.60854 67.212 0.408813 67.8294 0.408813C68.8462 0.408813 69.3909 0.880893 69.3909 1.93399Z" fill="white"/>
<path d="M53.7154 6.20084V12.7918C53.7154 13.4817 53.9333 14.0991 54.7322 14.0991C55.059 14.0991 55.3132 14.0265 55.5492 13.8994C55.6763 13.8267 55.749 13.8267 55.8216 13.8267C56.0939 13.8267 56.3118 14.0628 56.3118 14.3351C56.3118 14.5893 56.1484 14.7346 55.9305 14.8617C55.295 15.2248 54.5688 15.4064 53.8062 15.4064C52.0449 15.4064 51.1371 14.3896 51.1371 12.6647V6.20084H49.9388C49.6482 6.20084 49.394 5.9648 49.394 5.67429C49.394 5.36562 49.6482 5.12959 49.9388 5.12959H51.1371V2.95076C51.1371 2.2608 51.6092 1.69794 52.4262 1.69794C53.2433 1.69794 53.7154 2.24264 53.7154 2.95076V5.12959H55.6582C55.9487 5.12959 56.2029 5.36562 56.2029 5.67429C56.2029 5.9648 55.9487 6.20084 55.6582 6.20084H53.7154Z" fill="white"/>
<path d="M38.8996 6.45507C39.6622 5.42013 40.6245 4.83911 41.9136 4.83911C44.3285 4.83911 45.436 6.36429 45.436 8.65206V14.1536C45.436 14.8617 45.0911 15.4064 44.1469 15.4064C43.1846 15.4064 42.8578 14.8617 42.8578 14.1536V8.19813C42.8578 7.10872 42.4038 6.18272 41.2055 6.18272C40.1161 6.18272 39.2809 7.09056 38.8996 8.03472V14.1536C38.8996 14.9343 38.4275 15.4064 37.6104 15.4064C36.8115 15.4064 36.3213 14.9343 36.3213 14.1536V6.07378C36.3213 5.36566 36.7752 4.83911 37.6104 4.83911C38.2822 4.83911 38.8996 5.25672 38.8996 5.96484V6.45507Z" fill="white"/>
<path d="M29.9842 0.408813C30.8921 0.408813 31.6365 1.15325 31.6365 2.06109C31.6365 2.95078 30.8921 3.69521 29.9842 3.69521C29.0945 3.69521 28.3501 2.95078 28.3501 2.06109C28.3501 1.15325 29.0945 0.408813 29.9842 0.408813ZM31.2734 6.09192V14.1536C31.2734 14.8435 30.9647 15.4064 29.9842 15.4064C29.1127 15.4064 28.7132 14.8617 28.7132 14.1536V6.09192C28.7132 5.3838 29.1672 4.83909 29.9842 4.83909C30.765 4.83909 31.2734 5.27486 31.2734 6.09192Z" fill="white"/>
<path d="M19.4372 4.83911C22.5602 4.83911 24.267 7.16319 24.267 10.1228C24.267 13.1005 22.5602 15.4064 19.4372 15.4064C16.2961 15.4064 14.5894 13.1005 14.5894 10.1228C14.5894 7.16319 16.2961 4.83911 19.4372 4.83911ZM19.4372 5.96484C17.3855 5.96484 17.2766 8.6339 17.2766 10.1228C17.2766 11.6116 17.3855 14.2988 19.4372 14.2988C21.4708 14.2988 21.5798 11.6116 21.5798 10.1228C21.5798 8.6339 21.4708 5.96484 19.4372 5.96484Z" fill="white"/>
<path d="M3.4232 9.05147V14.0446C3.4232 14.789 2.95112 15.4064 2.00697 15.4064C0.990181 15.4064 0.608887 14.8072 0.608887 14.0446V2.58762C0.608887 1.28033 1.38963 0.681152 2.64246 0.681152H7.49034C10.1231 0.681152 11.9569 2.11555 11.9569 4.85723C11.9569 7.59892 10.0868 9.05147 7.45403 9.05147H3.4232ZM3.4232 7.88943H6.34646C8.27109 7.88943 8.96105 6.56398 8.96105 4.82092C8.96105 3.09602 8.28925 1.86135 6.40093 1.86135H4.07685C3.73187 1.86135 3.4232 2.17002 3.4232 2.49684V7.88943Z" fill="white"/>
</svg>
