<svg width="117" height="40" viewBox="0 0 117 40" fill="none" xmlns="http://www.w3.org/2000/svg">
<path d="M70.0349 26.1717V38.2824C70.0349 39.0086 69.6355 39.6441 68.6368 39.6441C67.6927 39.6441 67.2206 39.0449 67.2206 38.2824V27.5516C67.2206 27.4427 67.2206 27.2975 67.0753 27.2975C67.039 27.2975 66.9482 27.2975 66.6941 27.3882C66.2583 27.5516 65.3323 27.7332 64.6242 27.7332C64.2792 27.7332 64.0068 27.4427 64.0068 27.0977C64.0068 26.662 64.3518 26.5167 64.715 26.4441C65.5865 26.2807 66.3672 25.8267 67.0209 25.2457C67.4748 24.8463 67.8561 24.6465 68.4734 24.6465C69.4902 24.6465 70.0349 25.1186 70.0349 26.1717Z" fill="white"/>
<path d="M54.3594 30.4386V37.0295C54.3594 37.7195 54.5773 38.3368 55.3762 38.3368C55.703 38.3368 55.9572 38.2642 56.1933 38.1371C56.3204 38.0645 56.393 38.0645 56.4656 38.0645C56.738 38.0645 56.9559 38.3005 56.9559 38.5729C56.9559 38.827 56.7924 38.9723 56.5746 39.0994C55.9391 39.4625 55.2128 39.6441 54.4502 39.6441C52.689 39.6441 51.7811 38.6273 51.7811 36.9024V30.4386H50.5828C50.2923 30.4386 50.0381 30.2025 50.0381 29.912C50.0381 29.6034 50.2923 29.3673 50.5828 29.3673H51.7811V27.1885C51.7811 26.4985 52.2532 25.9357 53.0703 25.9357C53.8873 25.9357 54.3594 26.4804 54.3594 27.1885V29.3673H56.3022C56.5927 29.3673 56.8469 29.6034 56.8469 29.912C56.8469 30.2025 56.5927 30.4386 56.3022 30.4386H54.3594Z" fill="white"/>
<path d="M39.5431 30.6927C40.3057 29.6578 41.268 29.0768 42.5572 29.0768C44.972 29.0768 46.0796 30.602 46.0796 32.8897V38.3913C46.0796 39.0994 45.7346 39.6441 44.7905 39.6441C43.8281 39.6441 43.5013 39.0994 43.5013 38.3913V32.4358C43.5013 31.3464 43.0474 30.4204 41.849 30.4204C40.7596 30.4204 39.9244 31.3282 39.5431 32.2724V38.3913C39.5431 39.172 39.071 39.6441 38.254 39.6441C37.4551 39.6441 36.9648 39.172 36.9648 38.3913V30.3114C36.9648 29.6033 37.4188 29.0768 38.254 29.0768C38.9258 29.0768 39.5431 29.4944 39.5431 30.2025V30.6927Z" fill="white"/>
<path d="M30.6283 24.6465C31.5361 24.6465 32.2805 25.391 32.2805 26.2988C32.2805 27.1885 31.5361 27.9329 30.6283 27.9329C29.7386 27.9329 28.9941 27.1885 28.9941 26.2988C28.9941 25.391 29.7386 24.6465 30.6283 24.6465ZM31.9174 30.3296V38.3913C31.9174 39.0813 31.6087 39.6441 30.6283 39.6441C29.7567 39.6441 29.3573 39.0994 29.3573 38.3913V30.3296C29.3573 29.6215 29.8112 29.0768 30.6283 29.0768C31.409 29.0768 31.9174 29.5126 31.9174 30.3296Z" fill="white"/>
<path d="M20.0813 29.0768C23.2043 29.0768 24.911 31.4009 24.911 34.3604C24.911 37.3382 23.2043 39.6441 20.0813 39.6441C16.9401 39.6441 15.2334 37.3382 15.2334 34.3604C15.2334 31.4009 16.9401 29.0768 20.0813 29.0768ZM20.0813 30.2025C18.0296 30.2025 17.9206 32.8716 17.9206 34.3604C17.9206 35.8493 18.0296 38.5365 20.0813 38.5365C22.1149 38.5365 22.2238 35.8493 22.2238 34.3604C22.2238 32.8716 22.1149 30.2025 20.0813 30.2025Z" fill="white"/>
<path d="M4.06725 33.2892V38.2823C4.06725 39.0268 3.59517 39.6441 2.65101 39.6441C1.63422 39.6441 1.25293 39.0449 1.25293 38.2823V26.8254C1.25293 25.5181 2.03368 24.9189 3.2865 24.9189H8.13439C10.7671 24.9189 12.601 26.3533 12.601 29.095C12.601 31.8367 10.7308 33.2892 8.09807 33.2892H4.06725ZM4.06725 32.1272H6.9905C8.91513 32.1272 9.60509 30.8017 9.60509 29.0587C9.60509 27.3337 8.93329 26.0991 7.04497 26.0991H4.72089C4.37591 26.0991 4.06725 26.4077 4.06725 26.7346V32.1272Z" fill="white"/>
<path d="M109.849 3.91614C109.613 6.73046 109.414 9.56293 108.506 12.2502C107.907 14.0477 107.017 16.0631 104.802 16.0631C101.951 16.0631 100.571 12.9764 100.571 10.5252C100.571 8.58246 101.279 6.65783 102.569 5.22344C104.257 3.31697 106.636 2.48175 109.123 2.48175C113.408 2.48175 116.731 4.82399 116.731 9.36321C116.731 12.0867 115.496 14.429 113.045 15.7181C112.246 16.1176 110.794 16.6804 109.886 16.6804C109.559 16.6804 109.268 16.4081 109.268 16.0631C109.268 15.7 109.523 15.5002 109.831 15.4094C110.775 15.1371 111.556 14.6287 112.21 13.9024C113.372 12.5951 114.007 10.7613 114.007 9.03638C114.007 6.14944 112.519 4.69689 109.849 3.91614ZM107.235 3.91614C106.018 4.40638 105.165 4.9874 104.457 6.09497C103.422 7.69277 102.877 9.6174 102.877 11.5057C102.877 12.3228 102.95 13.1943 103.386 13.9024C103.603 14.2837 104.003 14.665 104.475 14.665C105.201 14.665 105.637 13.4122 106.037 12.232C106.854 9.54478 107.071 6.7123 107.235 3.91614Z" fill="white"/>
<path d="M92.5091 3.08092V15.2097H93.3624C93.6893 15.2097 93.9616 15.4639 93.9616 15.7907C93.9616 16.1176 93.6893 16.3718 93.3624 16.3718H83.9209C83.6122 16.3718 83.3398 16.1176 83.3398 15.7907C83.3398 15.4639 83.6122 15.2097 83.9209 15.2097H84.7742V3.08092H83.9209C83.6122 3.08092 83.3398 2.82673 83.3398 2.4999C83.3398 2.17308 83.6122 1.91888 83.9209 1.91888H93.3624C93.6893 1.91888 93.9616 2.17308 93.9616 2.4999C93.9616 2.82673 93.6893 3.08092 93.3624 3.08092H92.5091ZM89.6948 3.08092H87.5886V15.2097H89.6948V3.08092Z" fill="white"/>
<path d="M61.7152 9.09085C62.2236 8.50983 62.6775 7.92881 63.1314 7.31148C62.6593 7.23885 62.4959 6.82124 62.2962 6.43995C61.8604 5.69552 61.3702 4.95109 60.7347 4.35191C60.4442 4.07955 60.3353 3.95246 60.3353 3.73457C60.3353 3.48038 60.5531 3.24434 60.8255 3.24434C61.0071 3.24434 61.6789 3.58932 62.2054 3.9343C62.6049 3.18987 62.9135 2.40912 63.1859 1.62838C63.3493 1.17446 63.6761 0.938416 64.1482 0.938416C64.6929 0.938416 65.51 1.24708 65.51 1.90073C65.51 2.17308 65.165 2.68148 64.7474 3.17171C64.2934 3.69826 63.8214 4.1885 63.3311 4.66057C63.658 4.89661 64.0937 5.18712 64.2935 5.56842C64.6384 4.9874 64.9653 4.40638 65.2921 3.77089C65.4736 3.40775 65.8005 3.20802 66.2181 3.20802C66.7991 3.20802 67.6525 3.58932 67.6525 4.29744C67.6525 4.76952 66.908 5.56842 66.1091 6.38548C65.2376 7.29332 64.3479 8.18301 63.4219 9.03638C64.3116 8.98191 65.1831 8.92744 66.0547 8.83666C65.9639 8.60062 65.6007 7.7654 65.6007 7.58383C65.6007 7.31148 65.8368 7.0936 66.1091 7.0936C66.1999 7.0936 66.3452 7.18438 66.4541 7.27516C66.8717 7.6383 67.2893 8.09222 67.6888 8.54615C68.0519 8.9456 68.6874 9.72634 68.6874 10.1621C68.6874 10.8158 67.9975 11.3423 67.3801 11.3423C66.9262 11.3423 66.672 11.07 66.5812 10.7068C66.4904 10.3618 66.4178 10.0532 66.3452 9.78081C66.0365 9.8716 65.7278 9.94423 65.4192 10.0169V16.8438C65.4192 17.7154 64.9471 17.9877 64.2935 17.9877C63.7306 17.9877 63.1859 17.7517 63.1859 16.8802V10.5252C62.6956 10.6342 61.0434 10.9792 60.8618 10.9792C60.3716 10.9792 60.0811 10.38 60.0811 9.98054C60.0811 9.50846 60.3171 9.19979 60.6984 9.12717C60.88 9.09085 61.2976 9.09085 61.7152 9.09085ZM71.1386 4.47901H74.9879C76.2588 4.47901 76.8762 5.00556 76.8762 6.29469C76.8762 8.96375 76.7309 11.9415 76.4222 14.6832C76.2044 16.5715 75.4599 17.7698 73.39 17.7698H70.7028C70.3942 17.7698 70.0855 17.6064 70.0855 17.2614C70.0855 16.8983 70.3942 16.7531 70.7028 16.7531H72.3188C72.918 16.7531 73.2811 16.6441 73.5898 16.0994C73.9348 15.4821 73.9892 14.7013 74.0618 14.0114C74.3524 11.3968 74.3524 8.74587 74.3524 6.13128C74.3524 5.74999 74.2434 5.47763 73.8258 5.47763H70.4123C70.031 5.96787 68.3243 7.94697 67.7796 7.94697C67.5072 7.94697 67.2712 7.72909 67.2712 7.45673C67.2712 7.34779 67.3256 7.25701 67.3983 7.14807C68.4695 5.62289 69.1777 3.77089 69.6497 1.9552C69.8131 1.33787 70.1763 1.0292 70.8118 1.0292C71.4473 1.0292 72.3188 1.35602 72.3188 2.0823C72.3188 2.7541 71.5199 3.91614 71.1386 4.47901ZM72.9724 11.9415C72.9724 12.7041 72.1372 13.3214 71.4291 13.3214C70.7391 13.3214 70.4668 12.9401 70.3397 12.3228C70.0855 11.07 69.795 9.9987 69.2321 8.85481C69.1595 8.70956 69.0869 8.54615 69.0869 8.43721C69.0869 8.18301 69.3411 7.96513 69.5953 7.96513C70.031 7.96513 71.2112 9.23611 71.5199 9.59925C71.9557 10.0713 72.9724 11.306 72.9724 11.9415ZM68.869 14.9737C68.869 15.6818 68.1427 16.1539 67.5072 16.1539C66.6538 16.1539 66.6175 15.4821 66.5631 14.6469C66.4904 13.739 66.327 12.7949 66.0002 11.9415C65.9639 11.8507 65.9276 11.7599 65.9276 11.6691C65.9276 11.3968 66.1636 11.1789 66.436 11.1789C66.7809 11.1789 67.0896 11.651 67.4709 12.232C67.834 12.7585 68.869 14.3927 68.869 14.9737ZM60.6439 17.2251C60.3716 17.2251 60.1355 17.0073 60.1355 16.7349C60.1355 16.6441 60.1537 16.517 60.2082 16.3536C60.5894 15.0826 60.7347 13.848 60.7347 12.5043C60.7347 11.7781 60.9163 11.3241 61.7152 11.3241C62.278 11.3241 62.9498 11.5965 62.9498 12.2501C62.9498 13.0672 61.4973 17.2251 60.6439 17.2251Z" fill="white"/>
<path d="M50.9842 6.74859V4.46082H48.2243C47.8975 4.46082 47.607 4.31556 47.607 3.95243C47.607 3.60745 47.8794 3.46219 48.2243 3.46219H50.9842V2.33647C50.9842 1.93701 51.0387 1.53756 51.2565 1.30152C51.5107 1.02917 51.8376 0.956543 52.2189 0.956543C52.6546 0.956543 53.0178 1.06548 53.2356 1.37415C53.4172 1.62835 53.4717 1.95517 53.4717 2.33647V3.46219H56.0136C56.3405 3.46219 56.631 3.60745 56.631 3.95243C56.631 4.31556 56.3405 4.46082 56.0136 4.46082H53.4717V6.74859H56.4676C56.7944 6.74859 57.0849 6.89384 57.0849 7.25698C57.0849 7.60196 56.8307 7.74721 56.4676 7.74721H47.8612C47.4799 7.74721 47.2439 7.60196 47.2439 7.25698C47.2439 6.89384 47.5162 6.74859 47.8612 6.74859H50.9842ZM45.8095 9.34502C45.9366 9.29055 46.2452 9.14529 46.4994 9.0182C46.9352 8.80031 46.9897 8.78216 47.1168 8.78216C47.4073 8.78216 47.6252 9.00004 47.6252 9.29055C47.6252 9.45396 47.5525 9.59922 47.3347 9.76263C46.9897 10.0168 46.3542 10.4526 45.8095 10.8157V16.8983C45.8095 17.2977 45.755 17.4611 45.4827 17.6972C45.2829 17.8606 44.9561 17.9695 44.6656 17.9695C44.3206 17.9695 43.8848 17.8243 43.6851 17.5519C43.5943 17.4248 43.5399 17.2433 43.5399 16.8801V12.1593C41.706 13.1216 41.4337 13.2487 41.1432 13.2487C40.5803 13.2487 40.1445 12.7767 40.1445 12.2138C40.1445 11.778 40.4714 11.4331 40.8526 11.306C42.0873 10.8702 42.8317 10.5978 43.5399 10.3255V5.94968H42.4505C42.1599 6.94831 41.7968 7.89247 41.3429 8.78216C41.1976 9.07267 41.0705 9.23608 40.78 9.23608C40.4895 9.23608 40.2353 9.0182 40.2353 8.72769C40.2353 8.67322 40.2898 8.45533 40.3261 8.34639C40.4895 7.78353 40.6529 7.12988 40.7437 6.62149C40.9434 5.42313 41.0342 4.06137 41.0342 2.9538C41.0342 2.44541 41.2703 1.93701 42.0692 1.93701C42.632 1.93701 43.0315 2.19121 43.0315 2.84486C43.0315 3.208 42.8499 4.33372 42.7047 4.9329H43.5399V2.22752C43.5399 1.66466 43.5762 1.46494 43.8304 1.26521C44.0483 1.08364 44.3751 0.992856 44.6656 0.992856C45.065 0.992856 45.5008 1.15627 45.6824 1.42862C45.7732 1.57388 45.8095 1.79176 45.8095 2.20937V4.9329H46.9715C47.3347 4.9329 47.5888 5.09631 47.5888 5.44129C47.5888 5.80443 47.3165 5.94968 46.9715 5.94968H45.8095V9.34502ZM52.7454 11.0155H47.8249C47.4981 11.0155 47.2076 10.8702 47.2076 10.5252C47.2076 10.1621 47.4981 10.0168 47.8249 10.0168H52.7454V9.23608C52.7454 8.90925 52.818 8.5098 52.9996 8.29192C53.2538 8.00141 53.5806 7.92878 53.9619 7.92878C54.3977 7.92878 54.7427 8.03772 54.9787 8.32823C55.1421 8.52796 55.2147 8.8911 55.2147 9.19977V10.0168H56.4676C56.8125 10.0168 57.0849 10.1621 57.0849 10.5252C57.0849 10.8702 56.8852 11.0155 56.4676 11.0155H55.2147V16.0449C55.2147 17.2251 54.4521 17.788 53.3264 17.788H50.3669C50.0582 17.788 49.7495 17.6427 49.7495 17.2796C49.7495 17.1343 49.7858 17.0072 49.8948 16.9164C50.0219 16.8075 50.1308 16.7712 50.3669 16.7712H52.0373C52.5638 16.7712 52.7454 16.5533 52.7454 16.0631V11.0155ZM47.6615 11.9051C47.6615 11.5965 47.9157 11.3241 48.2243 11.3241C48.3878 11.3241 49.1503 11.8507 49.9311 12.5769C50.8026 13.394 51.1476 13.9932 51.1476 14.3745C51.1476 15.1007 50.4576 15.6999 49.7677 15.6999C49.1322 15.6999 48.878 15.4276 48.6601 14.4653C48.4785 13.6845 48.188 12.9219 47.7886 12.2138C47.7159 12.0867 47.6615 11.9596 47.6615 11.9051Z" fill="white"/>
<path d="M30.3216 2.9538V1.99148C30.3216 1.35599 30.8844 0.956543 31.5744 0.956543C32.3733 0.956543 32.8091 1.39231 32.8091 2.17305V2.9538H35.0424C36.1681 2.9538 36.9307 3.51666 36.9307 4.69686V5.7318C36.9307 6.5307 36.5494 6.87568 35.7868 6.87568C34.9153 6.87568 34.6247 6.42176 34.6247 5.67733V4.49713C34.6247 4.134 34.4795 3.97058 34.0982 3.97058H29.2685C28.8872 3.97058 28.7419 4.134 28.7419 4.49713V5.7318C28.7419 6.51255 28.3243 6.87568 27.5799 6.87568C26.6902 6.87568 26.436 6.38545 26.436 5.62286V4.69686C26.436 3.51666 27.1986 2.9538 28.3243 2.9538H30.3216ZM20.6621 16.8801V2.93564C20.6621 1.95517 21.3521 1.55572 22.2599 1.55572H25.4011C26.1818 1.55572 26.7265 1.97333 26.7265 2.75407C26.7265 2.91749 26.7084 3.0809 26.6539 3.22615L24.8745 7.54749C24.82 7.67459 24.8019 7.72906 24.8019 7.78353C24.8019 7.85616 24.8382 7.92878 24.8927 8.00141C25.274 8.56427 25.5645 9.10898 25.8187 9.69C26.2181 10.5797 26.3997 11.5238 26.3997 12.4862C26.3997 13.2487 26.2726 14.1384 25.6189 14.6287C25.274 14.8829 24.9108 14.9373 24.4932 14.9373H23.5491C23.2404 14.9373 22.9317 14.7739 22.9317 14.4289C22.9317 14.0658 23.2404 13.9206 23.5491 13.9206H23.7125C24.2209 13.9206 24.4024 13.2124 24.4024 12.1412C24.4024 10.6705 23.9485 9.61737 23.313 8.31008C23.2222 8.12851 23.1314 7.92878 23.1314 7.69274C23.1314 7.60196 23.1496 7.51118 23.1678 7.43855L24.3843 3.15352C24.4024 3.0809 24.4569 2.91749 24.4569 2.88117C24.4569 2.66329 24.239 2.5725 24.0574 2.5725H23.2949C22.9317 2.5725 22.8228 2.68145 22.8228 3.04458V16.8438C22.8228 17.6246 22.496 18.0058 21.7515 18.0058C21.0252 18.0058 20.6621 17.6427 20.6621 16.8801ZM34.8063 7.80169H28.524C28.1972 7.80169 27.9067 7.63827 27.9067 7.29329C27.9067 6.93015 28.1972 6.7849 28.524 6.7849H34.8063C35.115 6.7849 35.4237 6.93015 35.4237 7.29329C35.4237 7.63827 35.115 7.80169 34.8063 7.80169ZM30.6121 10.8884C30.6121 12.0686 30.5395 13.2306 30.1763 14.3018C29.7587 15.5365 28.7601 16.4444 27.6343 17.098C27.126 17.3885 25.7823 17.9332 25.3284 17.9332C25.0561 17.9332 24.8382 17.6972 24.8382 17.4248C24.8382 17.1525 25.0379 17.0072 25.274 16.8983C26.7628 16.2628 27.5254 15.4457 27.8704 14.4289C28.1972 13.4485 28.2517 12.5769 28.2517 10.8884H26.9807C26.672 10.8884 26.3634 10.7431 26.3634 10.38C26.3634 10.035 26.672 9.88973 26.9807 9.88973H36.4767C36.7854 9.88973 37.0941 10.035 37.0941 10.38C37.0941 10.7431 36.7854 10.8884 36.4767 10.8884H33.8622V16.2083C33.8622 16.5715 33.9893 16.6804 34.3524 16.6804H34.5521C35.0424 16.6804 35.1876 16.5896 35.2602 16.0994C35.2966 15.8633 35.3147 15.5547 35.3329 15.1552C35.3692 14.5197 35.5144 14.1566 36.2044 14.1566C36.7854 14.1566 37.2938 14.3563 37.2938 15.0281C37.2938 15.6091 37.2393 16.3354 36.9851 16.862C36.6402 17.5701 35.9865 17.6609 35.2421 17.6609H33.1359C32.2462 17.6609 31.5381 17.2614 31.5381 16.2809V10.8884H30.6121Z" fill="white"/>
<path d="M4.61185 5.07817C4.61185 5.84076 3.86741 6.51256 3.12298 6.51256C2.59643 6.51256 2.28777 6.13127 2.16067 5.65919C1.77937 4.37005 1.28914 3.11722 0.417608 2.02781C0.326824 1.91887 0.272353 1.80993 0.272353 1.68283C0.272353 1.41048 0.508393 1.17444 0.780746 1.17444C1.07126 1.17444 2.08804 1.97334 2.56012 2.39095C3.1593 2.9175 4.61185 4.26111 4.61185 5.07817ZM11.8928 11.9596V14.3019C11.8928 15.0281 11.8564 15.2642 11.6567 15.5184C11.457 15.7907 11.2209 15.8997 10.7307 15.8997C10.3857 15.8997 9.98628 15.8089 9.7684 15.5184C9.62314 15.3186 9.55052 15.1915 9.55052 14.3019V11.9596H7.82561V14.5561C7.82561 15.246 7.7893 15.4639 7.60773 15.7181C7.38985 16.0086 7.02671 16.0812 6.69989 16.0812C6.35491 16.0812 5.97361 15.9723 5.75573 15.6999C5.57416 15.4821 5.53785 15.1915 5.53785 14.5561V6.82123C5.53785 5.84075 6.17334 5.4413 7.13565 5.4413H10.2405C9.55052 4.91475 8.86056 4.46083 8.0435 4.02507C7.80746 3.89797 7.57142 3.75271 7.57142 3.42589C7.57142 3.15354 7.7893 2.93566 8.06165 2.93566C8.49742 2.93566 9.87734 3.4622 10.6581 3.77087C10.8215 3.62562 11.802 2.9175 11.802 2.75409C11.802 2.60883 11.6749 2.55436 11.5659 2.55436H5.73757C5.42891 2.55436 5.12024 2.40911 5.12024 2.04597C5.12024 1.68283 5.42891 1.53758 5.73757 1.53758H14.8523C15.2336 1.53758 15.5968 1.77362 15.5968 2.19122C15.5968 2.49989 15.3607 2.69962 15.1065 2.84487C14.1261 3.42589 13.073 3.93428 12.0562 4.42452C12.5282 4.66056 12.8188 4.8966 12.8188 5.29605C12.8188 5.35052 12.8006 5.38683 12.8006 5.4413H14.4166C15.3244 5.4413 16.0144 5.84075 16.0144 6.82123V14.429C16.0144 15.4094 15.3244 15.8089 14.4166 15.8089H12.8732C12.5646 15.8089 12.2559 15.6636 12.2559 15.3186C12.2559 14.9737 12.5464 14.8103 12.8551 14.8103H13.1819C13.5632 14.8103 13.6721 14.7013 13.6721 14.3382V11.9596H11.8928ZM11.8928 8.18299H13.6721V6.93017C13.6721 6.56703 13.5632 6.43993 13.1819 6.43993H11.8928V8.18299ZM9.55052 8.18299V6.43993H8.29769C7.93455 6.43993 7.82561 6.56703 7.82561 6.93017V8.18299H9.55052ZM4.2124 14.5742C4.35765 15.4639 4.77526 16.0086 5.61048 16.3173C6.40938 16.5896 7.26275 16.6259 8.11612 16.6259H16.5046C16.8133 16.6259 17.1219 16.7712 17.1219 17.1343C17.1219 17.4793 16.8133 17.6246 16.5046 17.6246H7.5351C6.6091 17.6246 5.62863 17.6064 4.73895 17.2977C4.01267 17.0435 3.48612 16.517 3.05036 15.8997C2.6509 16.4081 2.2333 16.8983 1.76122 17.3341C1.52518 17.5701 1.16204 17.8061 0.889687 17.8061C0.254196 17.8061 0 17.1162 0 16.5715C0 15.9541 0.236039 15.7363 0.635491 15.5365C1.03494 15.3368 1.41624 15.1915 1.94279 14.9192V10.2347C1.94279 9.87158 1.83384 9.76264 1.47071 9.76264H0.744432C0.435765 9.76264 0.127098 9.61739 0.127098 9.25425C0.127098 8.90927 0.435765 8.74586 0.744432 8.74586H2.61459C3.52243 8.74586 4.2124 9.16346 4.2124 10.1258V14.5742ZM11.8928 10.9428H13.6721V9.18162H11.8928V10.9428ZM9.55052 10.9428V9.18162H7.82561V10.9428H9.55052Z" fill="white"/>
</svg>
