<svg width="126" height="40" viewBox="0 0 126 40" fill="none" xmlns="http://www.w3.org/2000/svg">
<path d="M65.1688 37.9881H72.2137C72.5405 37.9881 72.8129 38.2422 72.8129 38.5691C72.8129 38.8959 72.5405 39.1501 72.2137 39.1501H62.4634C61.9187 39.1501 61.374 38.8414 61.374 38.2422C61.374 37.3707 62.1003 36.0271 62.6268 35.3553C63.8252 33.8301 65.4956 32.777 67.1479 31.8329C68.5641 31.034 69.817 30.2351 69.817 28.4375C69.817 26.7853 68.9091 25.6051 67.2024 25.6051C66.5306 25.6051 65.8406 25.7503 65.3322 26.2224C64.8057 26.6945 64.4607 27.4571 64.4607 28.1652C64.4607 28.3831 64.4788 28.5283 64.497 28.6736C64.5152 28.8007 64.5333 28.9822 64.5333 29.0367C64.5333 29.9082 63.7707 30.3622 62.9718 30.3622C62.2274 30.3622 61.4648 29.9446 61.4648 29.1275C61.4648 28.2015 61.9006 27.221 62.4453 26.4948C63.6255 24.9333 65.5683 24.4249 67.4384 24.4249C70.1619 24.4249 72.7584 25.5869 72.7584 28.6917C72.7584 31.3971 70.5251 32.7226 67.9468 34.1751C66.8211 34.8106 64.6604 36.0997 64.6604 37.5704C64.6604 37.861 64.8965 37.9881 65.1688 37.9881Z" fill="white"/>
<path d="M53.1065 30.2169V36.8078C53.1065 37.4978 53.3244 38.1151 54.1233 38.1151C54.4501 38.1151 54.7043 38.0425 54.9403 37.9154C55.0674 37.8428 55.1401 37.8428 55.2127 37.8428C55.485 37.8428 55.7029 38.0788 55.7029 38.3512C55.7029 38.6054 55.5395 38.7506 55.3216 38.8777C54.6861 39.2409 53.9599 39.4224 53.1973 39.4224C51.4361 39.4224 50.5282 38.4056 50.5282 36.6807V30.2169H49.3299C49.0394 30.2169 48.7852 29.9809 48.7852 29.6903C48.7852 29.3817 49.0394 29.1456 49.3299 29.1456H50.5282V26.9668C50.5282 26.2769 51.0003 25.714 51.8174 25.714C52.6344 25.714 53.1065 26.2587 53.1065 26.9668V29.1456H55.0493C55.3398 29.1456 55.594 29.3817 55.594 29.6903C55.594 29.9809 55.3398 30.2169 55.0493 30.2169H53.1065Z" fill="white"/>
<path d="M38.2902 30.4711C39.0528 29.4361 40.0151 28.8551 41.3042 28.8551C43.7191 28.8551 44.8267 30.3803 44.8267 32.668V38.1696C44.8267 38.8777 44.4817 39.4224 43.5375 39.4224C42.5752 39.4224 42.2484 38.8777 42.2484 38.1696V32.2141C42.2484 31.1247 41.7945 30.1987 40.5961 30.1987C39.5067 30.1987 38.6715 31.1066 38.2902 32.0507V38.1696C38.2902 38.9503 37.8181 39.4224 37.0011 39.4224C36.2022 39.4224 35.7119 38.9503 35.7119 38.1696V30.0898C35.7119 29.3817 36.1658 28.8551 37.0011 28.8551C37.6729 28.8551 38.2902 29.2727 38.2902 29.9808V30.4711Z" fill="white"/>
<path d="M29.3753 24.4249C30.2832 24.4249 31.0276 25.1693 31.0276 26.0771C31.0276 26.9668 30.2832 27.7113 29.3753 27.7113C28.4856 27.7113 27.7412 26.9668 27.7412 26.0771C27.7412 25.1693 28.4856 24.4249 29.3753 24.4249ZM30.6645 30.108V38.1696C30.6645 38.8596 30.3558 39.4224 29.3753 39.4224C28.5038 39.4224 28.1043 38.8777 28.1043 38.1696V30.108C28.1043 29.3999 28.5583 28.8551 29.3753 28.8551C30.1561 28.8551 30.6645 29.2909 30.6645 30.108Z" fill="white"/>
<path d="M18.8284 28.8551C21.9513 28.8551 23.6581 31.1792 23.6581 34.1388C23.6581 37.1165 21.9513 39.4224 18.8284 39.4224C15.6872 39.4224 13.9805 37.1165 13.9805 34.1388C13.9805 31.1792 15.6872 28.8551 18.8284 28.8551ZM18.8284 29.9808C16.7766 29.9808 16.6677 32.6499 16.6677 34.1388C16.6677 35.6276 16.7766 38.3148 18.8284 38.3148C20.8619 38.3148 20.9709 35.6276 20.9709 34.1388C20.9709 32.6499 20.8619 29.9808 18.8284 29.9808Z" fill="white"/>
<path d="M2.81432 33.0675V38.0607C2.81432 38.8051 2.34224 39.4224 1.39808 39.4224C0.381294 39.4224 0 38.8233 0 38.0607V26.6037C0 25.2964 0.780746 24.6972 2.03357 24.6972H6.88146C9.5142 24.6972 11.348 26.1316 11.348 28.8733C11.348 31.615 9.47789 33.0675 6.84514 33.0675H2.81432ZM2.81432 31.9055H5.73757C7.6622 31.9055 8.35216 30.58 8.35216 28.837C8.35216 27.1121 7.68036 25.8774 5.79204 25.8774H3.46796C3.12298 25.8774 2.81432 26.1861 2.81432 26.5129V31.9055Z" fill="white"/>
<path d="M118.835 3.69446C118.599 6.50878 118.399 9.34125 117.491 12.0285C116.892 13.826 116.002 15.8414 113.787 15.8414C110.937 15.8414 109.557 12.7547 109.557 10.3036C109.557 8.36078 110.265 6.43615 111.554 5.00176C113.242 3.09529 115.621 2.26007 118.109 2.26007C122.394 2.26007 125.716 4.60231 125.716 9.14153C125.716 11.8651 124.482 14.2073 122.03 15.4964C121.232 15.8959 119.779 16.4587 118.871 16.4587C118.544 16.4587 118.254 16.1864 118.254 15.8414C118.254 15.4783 118.508 15.2786 118.817 15.1878C119.761 14.9154 120.542 14.407 121.195 13.6807C122.357 12.3735 122.993 10.5396 122.993 8.8147C122.993 5.92776 121.504 4.47521 118.835 3.69446ZM116.22 3.69446C115.004 4.1847 114.15 4.76572 113.442 5.87329C112.407 7.47109 111.863 9.39572 111.863 11.284C111.863 12.1011 111.935 12.9726 112.371 13.6807C112.589 14.062 112.988 14.4433 113.46 14.4433C114.187 14.4433 114.622 13.1905 115.022 12.0103C115.839 9.3231 116.057 6.49062 116.22 3.69446Z" fill="white"/>
<path d="M101.494 2.85924V14.988H102.348C102.675 14.988 102.947 15.2422 102.947 15.5691C102.947 15.8959 102.675 16.1501 102.348 16.1501H92.9062C92.5976 16.1501 92.3252 15.8959 92.3252 15.5691C92.3252 15.2422 92.5976 14.988 92.9062 14.988H93.7596V2.85924H92.9062C92.5976 2.85924 92.3252 2.60505 92.3252 2.27822C92.3252 1.9514 92.5976 1.6972 92.9062 1.6972H102.348C102.675 1.6972 102.947 1.9514 102.947 2.27822C102.947 2.60505 102.675 2.85924 102.348 2.85924H101.494ZM98.6801 2.85924H96.5739V14.988H98.6801V2.85924Z" fill="white"/>
<path d="M73.406 10.1038C73.2608 12.3916 72.589 14.2799 71.1909 16.0956C70.9004 16.4587 69.9744 17.5845 69.5204 17.5845C69.2481 17.5845 69.012 17.3666 69.012 17.0942C69.012 16.9671 69.0302 16.8945 69.2299 16.604C69.9925 15.5327 70.4283 14.6067 70.7369 13.3358C70.8822 12.7184 70.9911 12.1011 71.0275 11.4656C70.7188 11.8287 70.1378 12.5187 69.6294 12.5187C69.0665 12.5187 68.8486 11.8469 68.8486 11.3748C68.8486 10.7756 69.1391 10.5941 69.6657 10.3762C70.1559 10.1765 70.628 9.94043 71.1001 9.64992V8.08843C70.9367 8.19737 70.7551 8.25184 70.5554 8.25184C70.0288 8.25184 69.8654 7.79792 69.7565 7.38031C69.5749 6.7085 69.3207 5.9096 69.0484 5.49199C68.9394 5.31042 68.8668 5.14701 68.8668 5.00176C68.8668 4.7294 69.1028 4.51152 69.3752 4.51152C69.7928 4.51152 70.8096 5.51015 71.1001 5.81882V3.96682C71.1001 2.78662 71.8627 2.22376 72.9884 2.22376H76.9103V1.87877C76.9103 1.17066 77.3279 0.68042 78.1631 0.68042C78.7804 0.68042 79.4341 1.09803 79.4341 1.80615V2.22376H85.4622C85.7708 2.22376 86.0795 2.38717 86.0795 2.73215C86.0795 3.09528 85.7708 3.24054 85.4622 3.24054H79.5067C80.0514 3.36764 80.469 3.60368 80.469 4.23917C80.469 4.42074 80.4146 4.58415 80.3419 4.76572H85.3532C85.6619 4.76572 85.9706 4.91097 85.9706 5.25595C85.9706 5.61909 85.6619 5.76435 85.3532 5.76435H82.085C82.3755 6.32721 82.775 6.8356 83.2107 7.28952C83.4468 6.9627 83.6465 6.61772 83.8281 6.27274C83.9552 6.01854 84.1549 5.85513 84.4454 5.85513C84.8993 5.85513 85.4985 6.21827 85.4985 6.72666C85.4985 7.32584 84.4817 7.77976 84.0096 7.99764C84.5906 8.45156 85.2624 8.86917 85.9342 9.15968C86.1703 9.26862 86.3882 9.41388 86.3882 9.70439C86.3882 9.95858 86.1884 10.1946 85.9161 10.1946C85.4803 10.1946 84.7722 9.88596 84.173 9.6136C84.1912 9.70439 84.1912 9.79517 84.1912 9.90411V12.0648C84.1912 13.0816 83.4831 13.59 82.5208 13.59H80.9593V15.8233C80.9593 17.0035 80.1785 17.5663 79.071 17.5663H76.9103C76.6016 17.5663 76.3111 17.4211 76.3111 17.0579C76.3111 16.7129 76.6016 16.5495 76.9103 16.5495H78.036C78.4173 16.5495 78.5626 16.4043 78.5626 16.023V13.59H76.8921C75.9298 13.59 75.2217 13.0816 75.2217 12.0648V9.72254C74.8586 9.92227 74.1141 10.3036 73.7873 10.3036C73.642 10.3036 73.4968 10.2128 73.406 10.1038ZM73.4242 9.50466C73.4605 9.45019 73.6057 9.34125 73.6784 9.30494C74.2231 9.01443 74.7315 8.65129 75.2035 8.26999C75.0038 8.1429 74.9312 7.99764 74.8404 7.79792C74.6588 7.38031 74.441 7.01717 74.2231 6.7085C74.1141 6.56325 74.0597 6.45431 74.0597 6.34537C74.0597 6.10933 74.2231 5.9096 74.4591 5.9096C74.5499 5.9096 74.7859 6.00039 75.0401 6.10933C75.5485 6.32721 76.1114 6.59956 76.4382 6.98086C76.7469 6.59956 77.0192 6.20011 77.2553 5.76435H74.3502C74.0415 5.76435 73.7328 5.61909 73.7328 5.25595C73.7328 4.91097 74.0415 4.76572 74.3502 4.76572H77.7092C78.0723 3.69446 78.2357 3.3858 78.7441 3.24054H73.9507C73.5876 3.24054 73.4242 3.40395 73.4242 3.76709V9.50466ZM79.7064 5.85513C78.9983 6.79929 78.2176 7.6345 77.2916 8.37894H82.0487C81.0682 7.67082 80.3601 6.87192 79.7064 5.85513ZM81.8671 10.467V9.92227C81.8671 9.54098 81.7219 9.37756 81.3406 9.37756H78.036C77.6729 9.37756 77.5095 9.54098 77.5095 9.92227V10.467H81.8671ZM81.8671 11.4656H77.5095V12.0466C77.5095 12.4279 77.6729 12.5913 78.036 12.5913H81.3406C81.7219 12.5913 81.8671 12.4279 81.8671 12.0466V11.4656ZM73.4786 17.3666C73.2244 17.3666 72.9884 17.1306 72.9884 16.8582C72.9884 16.6403 73.0973 16.5314 73.3878 16.3135C74.1504 15.7506 74.8041 14.9517 75.2943 14.1891C75.494 13.8805 75.7664 13.6807 76.1477 13.6807C76.7469 13.6807 77.455 14.0802 77.455 14.752C77.455 15.2967 76.9103 15.6598 76.3656 16.023C75.8209 16.3861 74.0052 17.3666 73.4786 17.3666ZM84.4091 17.2758C84.0278 17.2758 83.8099 17.0761 83.592 16.7674C83.0836 16.0048 82.6479 15.4601 82.0124 14.7883C81.8853 14.6431 81.7763 14.516 81.7763 14.3162C81.7763 14.0257 81.9942 13.826 82.2847 13.826C82.7023 13.826 84.3728 14.5886 84.8267 14.8428C85.2806 15.097 85.8072 15.5327 85.8072 16.023C85.8072 16.7311 85.0809 17.2758 84.4091 17.2758Z" fill="white"/>
<path d="M52.3435 2.9682V15.4783C52.3435 15.787 52.634 16.0775 52.9427 16.0775H65.4891C65.7978 16.0775 66.1065 16.2409 66.1065 16.5859C66.1065 16.949 65.7978 17.0942 65.4891 17.0942H52.0167C50.6913 17.0942 49.8379 16.4224 49.8379 15.0607V3.3858C49.8379 2.02404 50.6913 1.35223 52.0167 1.35223H65.1623C65.4891 1.35223 65.7796 1.51565 65.7796 1.86063C65.7796 2.22376 65.4891 2.36902 65.1623 2.36902H52.9427C52.6159 2.36902 52.3435 2.65953 52.3435 2.9682ZM59.3339 11.5382C58.7166 12.4461 57.8269 13.1905 56.9372 13.8079C55.9931 14.4615 55.1034 14.9517 53.9777 15.333C53.8142 15.3875 53.6871 15.4057 53.6145 15.4057C53.3422 15.4057 53.1243 15.1696 53.1243 14.8973C53.1243 14.6431 53.2877 14.4978 53.4874 14.407C55.1579 13.6808 56.6649 12.3371 57.3548 10.6486C57.5182 10.2673 57.609 9.86781 57.6998 9.46836H53.6508C53.3422 9.46836 53.0335 9.3231 53.0335 8.97812C53.0335 8.61499 53.3422 8.46973 53.6508 8.46973H57.8451C57.9359 7.52557 57.8995 6.5451 57.9177 5.60094H56.1565C55.8115 5.98224 55.0671 6.78114 54.4497 7.28953C54.1411 7.54373 53.8687 7.7253 53.7053 7.7253C53.4329 7.7253 53.1969 7.50742 53.1969 7.23506C53.1969 7.08981 53.2514 6.98087 53.3422 6.83561C53.9232 5.89145 54.4497 4.78388 54.7947 3.73079C55.0126 3.07714 55.1942 2.51427 55.9931 2.51427C56.5922 2.51427 57.4456 2.85925 57.4456 3.56737C57.4456 3.94867 57.2096 4.29365 56.9735 4.58416H63.855C64.1637 4.58416 64.4723 4.72941 64.4723 5.09255C64.4723 5.45569 64.1637 5.60094 63.855 5.60094H60.4415C60.4415 6.5451 60.4233 7.50741 60.3507 8.46973H64.6539C64.9807 8.46973 65.2712 8.61499 65.2712 8.97812C65.2712 9.3231 64.9807 9.46836 64.6539 9.46836H60.8591C61.5491 11.5927 63.2195 13.3539 65.126 14.407C65.3439 14.516 65.4891 14.6612 65.4891 14.8973C65.4891 15.1696 65.2712 15.4057 64.9989 15.4057C64.8355 15.4057 64.4905 15.2967 64.1092 15.1333C63.5463 14.8973 62.9108 14.5886 62.6385 14.4433C61.3675 13.7171 60.1873 12.7366 59.3339 11.5382Z" fill="white"/>
<path d="M35.5955 1.6972H39.7353C44.0021 1.6972 45.836 5.01991 45.836 8.90549C45.836 12.8455 44.0384 16.1501 39.7171 16.1501H35.5955C34.3245 16.1501 33.5801 15.5872 33.5801 14.2618V3.60368C33.5801 2.27822 34.3427 1.71536 35.5955 1.6972ZM36.3944 3.51289V14.3344C36.3944 14.6794 36.6849 14.988 37.0299 14.988H38.6095C39.6082 14.988 40.6613 14.7157 41.3875 14.0257C42.6404 12.8455 42.8401 10.6304 42.8401 9.01443C42.8401 7.43478 42.6222 5.00176 41.4057 3.87603C40.6431 3.16791 39.6082 2.8774 38.5914 2.8774H37.0299C36.6667 2.8774 36.3944 3.18607 36.3944 3.51289Z" fill="white"/>
<path d="M23.3944 2.714L25.6458 12.7003C25.6821 12.8637 25.7366 13.009 25.9 13.009C26.0634 13.009 26.1179 12.7911 26.1361 12.6821L28.1878 1.93326C28.2423 1.64275 28.4965 1.42487 28.787 1.42487C29.132 1.42487 29.4225 1.69722 29.4225 2.0422C29.4225 2.07851 29.3861 2.2964 29.368 2.38718L26.9894 14.9881C26.826 15.8596 26.0816 16.4224 25.2101 16.4224C24.2841 16.4224 23.6486 15.8777 23.4488 14.9881L21.1974 4.92914C21.1611 4.76573 21.1248 4.65679 20.9795 4.65679C20.8343 4.65679 20.7979 4.8202 20.7798 4.92914L18.6554 15.0425C18.4739 15.9141 17.7294 16.4224 16.8579 16.4224C16.0045 16.4224 15.2419 15.9322 15.0604 15.0244L12.7 3.05899C12.6637 2.89557 12.6455 2.78663 12.6455 2.65953C12.6455 1.87879 13.4807 1.42487 14.1707 1.42487C14.9333 1.42487 15.3146 1.80616 15.4598 2.51428L17.4026 12.6277C17.4208 12.7366 17.4571 12.9726 17.6205 12.9726C17.7839 12.9726 17.8202 12.8092 17.8565 12.6277L19.9446 2.714C20.1261 1.87879 20.9432 1.42487 21.7421 1.42487C22.541 1.42487 23.2128 1.9151 23.3944 2.714Z" fill="white"/>
<path d="M2.869 8.23368H8.44316C8.76999 8.23368 9.04234 8.48788 9.04234 8.8147C9.04234 9.14152 8.76999 9.39572 8.44316 9.39572H2.869V15.0607C2.869 15.9504 2.1972 16.4224 1.45277 16.4224C0.690178 16.4224 0.0546875 15.914 0.0546875 15.0607V3.60368C0.0546875 2.29638 0.817276 1.6972 2.0701 1.6972H9.09681C9.42364 1.6972 9.69599 1.9514 9.69599 2.27822C9.69599 2.60505 9.42364 2.8774 9.09681 2.8774H3.50449C3.17767 2.8774 2.869 3.18607 2.869 3.51289V8.23368Z" fill="white"/>
</svg>
