<svg width="117" height="40" viewBox="0 0 117 40" fill="none" xmlns="http://www.w3.org/2000/svg">
<path d="M66.4217 37.9154H73.4666C73.7934 37.9154 74.0658 38.1696 74.0658 38.4964C74.0658 38.8233 73.7934 39.0775 73.4666 39.0775H63.7164C63.1717 39.0775 62.627 38.7688 62.627 38.1696C62.627 37.2981 63.3532 35.9545 63.8798 35.2827C65.0781 33.7575 66.7486 32.7044 68.4008 31.7602C69.8171 30.9613 71.0699 30.1624 71.0699 28.3649C71.0699 26.7126 70.1621 25.5324 68.4553 25.5324C67.7835 25.5324 67.0935 25.6777 66.5852 26.1498C66.0586 26.6218 65.7136 27.3844 65.7136 28.0926C65.7136 28.3104 65.7318 28.4557 65.7499 28.6009C65.7681 28.728 65.7862 28.9096 65.7862 28.9641C65.7862 29.8356 65.0237 30.2895 64.2248 30.2895C63.4803 30.2895 62.7177 29.8719 62.7177 29.0549C62.7177 28.1289 63.1535 27.1484 63.6982 26.4221C64.8784 24.8606 66.8212 24.3522 68.6913 24.3522C71.4149 24.3522 74.0113 25.5143 74.0113 28.6191C74.0113 31.3245 71.778 32.6499 69.1997 34.1025C68.074 34.738 65.9133 36.0271 65.9133 37.4978C65.9133 37.7883 66.1494 37.9154 66.4217 37.9154Z" fill="white"/>
<path d="M54.3594 30.1443V36.7352C54.3594 37.4252 54.5773 38.0425 55.3762 38.0425C55.703 38.0425 55.9572 37.9699 56.1933 37.8428C56.3204 37.7701 56.393 37.7701 56.4656 37.7701C56.738 37.7701 56.9559 38.0062 56.9559 38.2785C56.9559 38.5327 56.7924 38.678 56.5746 38.8051C55.9391 39.1682 55.2128 39.3498 54.4502 39.3498C52.689 39.3498 51.7811 38.333 51.7811 36.6081V30.1443H50.5828C50.2923 30.1443 50.0381 29.9082 50.0381 29.6177C50.0381 29.309 50.2923 29.073 50.5828 29.073H51.7811V26.8942C51.7811 26.2042 52.2532 25.6414 53.0703 25.6414C53.8873 25.6414 54.3594 26.1861 54.3594 26.8942V29.073H56.3022C56.5927 29.073 56.8469 29.309 56.8469 29.6177C56.8469 29.9082 56.5927 30.1443 56.3022 30.1443H54.3594Z" fill="white"/>
<path d="M39.5431 30.3984C40.3057 29.3635 41.268 28.7825 42.5572 28.7825C44.972 28.7825 46.0796 30.3076 46.0796 32.5954V38.0969C46.0796 38.8051 45.7346 39.3498 44.7905 39.3498C43.8281 39.3498 43.5013 38.8051 43.5013 38.0969V32.1415C43.5013 31.0521 43.0474 30.1261 41.849 30.1261C40.7596 30.1261 39.9244 31.0339 39.5431 31.9781V38.0969C39.5431 38.8777 39.071 39.3498 38.254 39.3498C37.4551 39.3498 36.9648 38.8777 36.9648 38.0969V30.0171C36.9648 29.309 37.4188 28.7825 38.254 28.7825C38.9258 28.7825 39.5431 29.2001 39.5431 29.9082V30.3984Z" fill="white"/>
<path d="M30.6283 24.3522C31.5361 24.3522 32.2805 25.0967 32.2805 26.0045C32.2805 26.8942 31.5361 27.6386 30.6283 27.6386C29.7386 27.6386 28.9941 26.8942 28.9941 26.0045C28.9941 25.0967 29.7386 24.3522 30.6283 24.3522ZM31.9174 30.0353V38.097C31.9174 38.7869 31.6087 39.3498 30.6283 39.3498C29.7567 39.3498 29.3573 38.8051 29.3573 38.097V30.0353C29.3573 29.3272 29.8112 28.7825 30.6283 28.7825C31.409 28.7825 31.9174 29.2183 31.9174 30.0353Z" fill="white"/>
<path d="M20.0813 28.7825C23.2043 28.7825 24.911 31.1065 24.911 34.0661C24.911 37.0438 23.2043 39.3498 20.0813 39.3498C16.9401 39.3498 15.2334 37.0438 15.2334 34.0661C15.2334 31.1065 16.9401 28.7825 20.0813 28.7825ZM20.0813 29.9082C18.0296 29.9082 17.9206 32.5773 17.9206 34.0661C17.9206 35.555 18.0296 38.2422 20.0813 38.2422C22.1149 38.2422 22.2238 35.555 22.2238 34.0661C22.2238 32.5773 22.1149 29.9082 20.0813 29.9082Z" fill="white"/>
<path d="M4.06725 32.9949V37.988C4.06725 38.7325 3.59517 39.3498 2.65101 39.3498C1.63422 39.3498 1.25293 38.7506 1.25293 37.988V26.531C1.25293 25.2237 2.03368 24.6246 3.2865 24.6246H8.13439C10.7671 24.6246 12.601 26.059 12.601 28.8007C12.601 31.5423 10.7308 32.9949 8.09807 32.9949H4.06725ZM4.06725 31.8329H6.9905C8.91513 31.8329 9.60509 30.5074 9.60509 28.7643C9.60509 27.0394 8.93329 25.8048 7.04497 25.8048H4.72089C4.37591 25.8048 4.06725 26.1134 4.06725 26.4403V31.8329Z" fill="white"/>
<path d="M109.849 3.62183C109.613 6.43615 109.414 9.26862 108.506 11.9558C107.907 13.7534 107.017 15.7688 104.802 15.7688C101.951 15.7688 100.571 12.6821 100.571 10.2309C100.571 8.28815 101.279 6.36352 102.569 4.92913C104.257 3.02266 106.636 2.18744 109.123 2.18744C113.408 2.18744 116.731 4.52968 116.731 9.0689C116.731 11.7924 115.496 14.1347 113.045 15.4238C112.246 15.8233 110.794 16.3861 109.886 16.3861C109.559 16.3861 109.268 16.1138 109.268 15.7688C109.268 15.4056 109.523 15.2059 109.831 15.1151C110.775 14.8428 111.556 14.3344 112.21 13.6081C113.372 12.3008 114.007 10.467 114.007 8.74207C114.007 5.85513 112.519 4.40258 109.849 3.62183ZM107.235 3.62183C106.018 4.11207 105.165 4.69309 104.457 5.80066C103.422 7.39846 102.877 9.32309 102.877 11.2114C102.877 12.0285 102.95 12.9 103.386 13.6081C103.603 13.9894 104.003 14.3707 104.475 14.3707C105.201 14.3707 105.637 13.1179 106.037 11.9377C106.854 9.25046 107.071 6.41799 107.235 3.62183Z" fill="white"/>
<path d="M92.5091 2.78661V14.9154H93.3624C93.6893 14.9154 93.9616 15.1696 93.9616 15.4964C93.9616 15.8233 93.6893 16.0774 93.3624 16.0774H83.9209C83.6122 16.0774 83.3398 15.8233 83.3398 15.4964C83.3398 15.1696 83.6122 14.9154 83.9209 14.9154H84.7742V2.78661H83.9209C83.6122 2.78661 83.3398 2.53242 83.3398 2.20559C83.3398 1.87877 83.6122 1.62457 83.9209 1.62457H93.3624C93.6893 1.62457 93.9616 1.87877 93.9616 2.20559C93.9616 2.53242 93.6893 2.78661 93.3624 2.78661H92.5091ZM89.6948 2.78661H87.5886V14.9154H89.6948V2.78661Z" fill="white"/>
<path d="M61.7152 8.79654C62.2236 8.21552 62.6775 7.6345 63.1314 7.01717C62.6593 6.94454 62.4959 6.52693 62.2962 6.14564C61.8604 5.40121 61.3702 4.65677 60.7347 4.0576C60.4442 3.78524 60.3353 3.65815 60.3353 3.44026C60.3353 3.18607 60.5531 2.95003 60.8255 2.95003C61.0071 2.95003 61.6789 3.29501 62.2054 3.63999C62.6049 2.89556 62.9135 2.11481 63.1859 1.33406C63.3493 0.880143 63.6761 0.644104 64.1482 0.644104C64.6929 0.644104 65.51 0.95277 65.51 1.60642C65.51 1.87877 65.165 2.38716 64.7474 2.8774C64.2934 3.40395 63.8214 3.89419 63.3311 4.36626C63.658 4.6023 64.0937 4.89281 64.2935 5.27411C64.6384 4.69309 64.9653 4.11207 65.2921 3.47658C65.4736 3.11344 65.8005 2.91371 66.2181 2.91371C66.7991 2.91371 67.6525 3.29501 67.6525 4.00313C67.6525 4.4752 66.908 5.27411 66.1091 6.09117C65.2376 6.99901 64.3479 7.8887 63.4219 8.74207C64.3116 8.6876 65.1831 8.63313 66.0547 8.54235C65.9639 8.30631 65.6007 7.47109 65.6007 7.28952C65.6007 7.01717 65.8368 6.79928 66.1091 6.79928C66.1999 6.79928 66.3452 6.89007 66.4541 6.98085C66.8717 7.34399 67.2893 7.79791 67.6888 8.25183C68.0519 8.65129 68.6874 9.43203 68.6874 9.8678C68.6874 10.5214 67.9975 11.048 67.3801 11.048C66.9262 11.048 66.672 10.7756 66.5812 10.4125C66.4904 10.0675 66.4178 9.75886 66.3452 9.4865C66.0365 9.57729 65.7278 9.64991 65.4192 9.72254V16.5495C65.4192 17.4211 64.9471 17.6934 64.2935 17.6934C63.7306 17.6934 63.1859 17.4574 63.1859 16.5858V10.2309C62.6956 10.3399 61.0434 10.6849 60.8618 10.6849C60.3716 10.6849 60.0811 10.0857 60.0811 9.68623C60.0811 9.21415 60.3171 8.90548 60.6984 8.83286C60.88 8.79654 61.2976 8.79654 61.7152 8.79654ZM71.1386 4.18469H74.9879C76.2588 4.18469 76.8762 4.71124 76.8762 6.00038C76.8762 8.66944 76.7309 11.6472 76.4222 14.3889C76.2044 16.2772 75.4599 17.4755 73.39 17.4755H70.7028C70.3942 17.4755 70.0855 17.3121 70.0855 16.9671C70.0855 16.604 70.3942 16.4587 70.7028 16.4587H72.3188C72.918 16.4587 73.2811 16.3498 73.5898 15.8051C73.9348 15.1878 73.9892 14.407 74.0618 13.7171C74.3524 11.1025 74.3524 8.45156 74.3524 5.83697C74.3524 5.45568 74.2434 5.18332 73.8258 5.18332H70.4123C70.031 5.67356 68.3243 7.65266 67.7796 7.65266C67.5072 7.65266 67.2712 7.43478 67.2712 7.16242C67.2712 7.05348 67.3256 6.9627 67.3983 6.85376C68.4695 5.32858 69.1777 3.47658 69.6497 1.66089C69.8131 1.04355 70.1763 0.734888 70.8118 0.734888C71.4473 0.734888 72.3188 1.06171 72.3188 1.78799C72.3188 2.45979 71.5199 3.62183 71.1386 4.18469ZM72.9724 11.6472C72.9724 12.4098 72.1372 13.0271 71.4291 13.0271C70.7391 13.0271 70.4668 12.6458 70.3397 12.0285C70.0855 10.7756 69.795 9.70439 69.2321 8.5605C69.1595 8.41525 69.0869 8.25183 69.0869 8.14289C69.0869 7.8887 69.3411 7.67081 69.5953 7.67081C70.031 7.67081 71.2112 8.9418 71.5199 9.30493C71.9557 9.77701 72.9724 11.0117 72.9724 11.6472ZM68.869 14.6794C68.869 15.3875 68.1427 15.8596 67.5072 15.8596C66.6538 15.8596 66.6175 15.1878 66.5631 14.3525C66.4904 13.4447 66.327 12.5005 66.0002 11.6472C65.9639 11.5564 65.9276 11.4656 65.9276 11.3748C65.9276 11.1025 66.1636 10.8846 66.436 10.8846C66.7809 10.8846 67.0896 11.3567 67.4709 11.9377C67.834 12.4642 68.869 14.0983 68.869 14.6794ZM60.6439 16.9308C60.3716 16.9308 60.1355 16.7129 60.1355 16.4406C60.1355 16.3498 60.1537 16.2227 60.2082 16.0593C60.5894 14.7883 60.7347 13.5536 60.7347 12.21C60.7347 11.4838 60.9163 11.0298 61.7152 11.0298C62.278 11.0298 62.9498 11.3022 62.9498 11.9558C62.9498 12.7729 61.4973 16.9308 60.6439 16.9308Z" fill="white"/>
<path d="M50.9842 6.45427V4.16651H48.2243C47.8975 4.16651 47.607 4.02125 47.607 3.65812C47.607 3.31314 47.8794 3.16788 48.2243 3.16788H50.9842V2.04215C50.9842 1.6427 51.0387 1.24325 51.2565 1.00721C51.5107 0.734859 51.8376 0.662231 52.2189 0.662231C52.6546 0.662231 53.0178 0.771172 53.2356 1.07984C53.4172 1.33404 53.4717 1.66086 53.4717 2.04215V3.16788H56.0136C56.3405 3.16788 56.631 3.31314 56.631 3.65812C56.631 4.02125 56.3405 4.16651 56.0136 4.16651H53.4717V6.45427H56.4676C56.7944 6.45427 57.0849 6.59953 57.0849 6.96267C57.0849 7.30765 56.8307 7.4529 56.4676 7.4529H47.8612C47.4799 7.4529 47.2439 7.30765 47.2439 6.96267C47.2439 6.59953 47.5162 6.45427 47.8612 6.45427H50.9842ZM45.8095 9.05071C45.9366 8.99624 46.2452 8.85098 46.4994 8.72388C46.9352 8.506 46.9897 8.48785 47.1168 8.48785C47.4073 8.48785 47.6252 8.70573 47.6252 8.99624C47.6252 9.15965 47.5525 9.3049 47.3347 9.46832C46.9897 9.72251 46.3542 10.1583 45.8095 10.5214V16.604C45.8095 17.0034 45.755 17.1668 45.4827 17.4029C45.2829 17.5663 44.9561 17.6752 44.6656 17.6752C44.3206 17.6752 43.8848 17.53 43.6851 17.2576C43.5943 17.1305 43.5399 16.9489 43.5399 16.5858V11.865C41.706 12.8273 41.4337 12.9544 41.1432 12.9544C40.5803 12.9544 40.1445 12.4824 40.1445 11.9195C40.1445 11.4837 40.4714 11.1387 40.8526 11.0117C42.0873 10.5759 42.8317 10.3035 43.5399 10.0312V5.65537H42.4505C42.1599 6.654 41.7968 7.59816 41.3429 8.48785C41.1976 8.77836 41.0705 8.94177 40.78 8.94177C40.4895 8.94177 40.2353 8.72388 40.2353 8.43337C40.2353 8.3789 40.2898 8.16102 40.3261 8.05208C40.4895 7.48922 40.6529 6.83557 40.7437 6.32718C40.9434 5.12882 41.0342 3.76706 41.0342 2.65949C41.0342 2.1511 41.2703 1.6427 42.0692 1.6427C42.632 1.6427 43.0315 1.8969 43.0315 2.55055C43.0315 2.91368 42.8499 4.03941 42.7047 4.63859H43.5399V1.93321C43.5399 1.37035 43.5762 1.17062 43.8304 0.970899C44.0483 0.789329 44.3751 0.698545 44.6656 0.698545C45.065 0.698545 45.5008 0.861957 45.6824 1.13431C45.7732 1.27956 45.8095 1.49745 45.8095 1.91506V4.63859H46.9715C47.3347 4.63859 47.5888 4.802 47.5888 5.14698C47.5888 5.51012 47.3165 5.65537 46.9715 5.65537H45.8095V9.05071ZM52.7454 10.7211H47.8249C47.4981 10.7211 47.2076 10.5759 47.2076 10.2309C47.2076 9.86777 47.4981 9.72251 47.8249 9.72251H52.7454V8.94177C52.7454 8.61494 52.818 8.21549 52.9996 7.99761C53.2538 7.7071 53.5806 7.63447 53.9619 7.63447C54.3977 7.63447 54.7427 7.74341 54.9787 8.03392C55.1421 8.23365 55.2147 8.59679 55.2147 8.90545V9.72251H56.4676C56.8125 9.72251 57.0849 9.86777 57.0849 10.2309C57.0849 10.5759 56.8852 10.7211 56.4676 10.7211H55.2147V15.7506C55.2147 16.9308 54.4521 17.4937 53.3264 17.4937H50.3669C50.0582 17.4937 49.7495 17.3484 49.7495 16.9853C49.7495 16.84 49.7858 16.7129 49.8948 16.6221C50.0219 16.5132 50.1308 16.4769 50.3669 16.4769H52.0373C52.5638 16.4769 52.7454 16.259 52.7454 15.7688V10.7211ZM47.6615 11.6108C47.6615 11.3022 47.9157 11.0298 48.2243 11.0298C48.3878 11.0298 49.1503 11.5564 49.9311 12.2826C50.8026 13.0997 51.1476 13.6989 51.1476 14.0802C51.1476 14.8064 50.4576 15.4056 49.7677 15.4056C49.1322 15.4056 48.878 15.1333 48.6601 14.1709C48.4785 13.3902 48.188 12.6276 47.7886 11.9195C47.7159 11.7924 47.6615 11.6653 47.6615 11.6108Z" fill="white"/>
<path d="M30.3216 2.65949V1.69717C30.3216 1.06168 30.8844 0.662231 31.5744 0.662231C32.3733 0.662231 32.8091 1.098 32.8091 1.87874V2.65949H35.0424C36.1681 2.65949 36.9307 3.22235 36.9307 4.40255V5.43749C36.9307 6.23639 36.5494 6.58137 35.7868 6.58137C34.9153 6.58137 34.6247 6.12745 34.6247 5.38302V4.20282C34.6247 3.83968 34.4795 3.67627 34.0982 3.67627H29.2685C28.8872 3.67627 28.7419 3.83968 28.7419 4.20282V5.43749C28.7419 6.21823 28.3243 6.58137 27.5799 6.58137C26.6902 6.58137 26.436 6.09114 26.436 5.32855V4.40255C26.436 3.22235 27.1986 2.65949 28.3243 2.65949H30.3216ZM20.6621 16.5858V2.64133C20.6621 1.66086 21.3521 1.26141 22.2599 1.26141H25.4011C26.1818 1.26141 26.7265 1.67902 26.7265 2.45976C26.7265 2.62317 26.7084 2.78659 26.6539 2.93184L24.8745 7.25318C24.82 7.38028 24.8019 7.43475 24.8019 7.48922C24.8019 7.56184 24.8382 7.63447 24.8927 7.7071C25.274 8.26996 25.5645 8.81467 25.8187 9.39569C26.2181 10.2854 26.3997 11.2295 26.3997 12.1918C26.3997 12.9544 26.2726 13.8441 25.6189 14.3344C25.274 14.5886 24.9108 14.643 24.4932 14.643H23.5491C23.2404 14.643 22.9317 14.4796 22.9317 14.1346C22.9317 13.7715 23.2404 13.6262 23.5491 13.6262H23.7125C24.2209 13.6262 24.4024 12.9181 24.4024 11.8469C24.4024 10.3762 23.9485 9.32306 23.313 8.01577C23.2222 7.8342 23.1314 7.63447 23.1314 7.39843C23.1314 7.30765 23.1496 7.21686 23.1678 7.14424L24.3843 2.85921C24.4024 2.78659 24.4569 2.62317 24.4569 2.58686C24.4569 2.36898 24.239 2.27819 24.0574 2.27819H23.2949C22.9317 2.27819 22.8228 2.38714 22.8228 2.75027V16.5495C22.8228 17.3302 22.496 17.7115 21.7515 17.7115C21.0252 17.7115 20.6621 17.3484 20.6621 16.5858ZM34.8063 7.50737H28.524C28.1972 7.50737 27.9067 7.34396 27.9067 6.99898C27.9067 6.63584 28.1972 6.49059 28.524 6.49059H34.8063C35.115 6.49059 35.4237 6.63584 35.4237 6.99898C35.4237 7.34396 35.115 7.50737 34.8063 7.50737ZM30.6121 10.594C30.6121 11.7742 30.5395 12.9363 30.1763 14.0075C29.7587 15.2422 28.7601 16.15 27.6343 16.8037C27.126 17.0942 25.7823 17.6389 25.3284 17.6389C25.0561 17.6389 24.8382 17.4029 24.8382 17.1305C24.8382 16.8582 25.0379 16.7129 25.274 16.604C26.7628 15.9685 27.5254 15.1514 27.8704 14.1346C28.1972 13.1542 28.2517 12.2826 28.2517 10.594H26.9807C26.672 10.594 26.3634 10.4488 26.3634 10.0857C26.3634 9.74067 26.672 9.59541 26.9807 9.59541H36.4767C36.7854 9.59541 37.0941 9.74067 37.0941 10.0857C37.0941 10.4488 36.7854 10.594 36.4767 10.594H33.8622V15.914C33.8622 16.2771 33.9893 16.3861 34.3524 16.3861H34.5521C35.0424 16.3861 35.1876 16.2953 35.2602 15.8051C35.2966 15.569 35.3147 15.2604 35.3329 14.8609C35.3692 14.2254 35.5144 13.8623 36.2044 13.8623C36.7854 13.8623 37.2938 14.062 37.2938 14.7338C37.2938 15.3148 37.2393 16.0411 36.9851 16.5677C36.6402 17.2758 35.9865 17.3666 35.2421 17.3666H33.1359C32.2462 17.3666 31.5381 16.9671 31.5381 15.9866V10.594H30.6121Z" fill="white"/>
<path d="M4.61185 4.78385C4.61185 5.54644 3.86741 6.21825 3.12298 6.21825C2.59643 6.21825 2.28777 5.83695 2.16067 5.36487C1.77937 4.07574 1.28914 2.82291 0.417608 1.7335C0.326824 1.62456 0.272353 1.51562 0.272353 1.38852C0.272353 1.11617 0.508393 0.880127 0.780746 0.880127C1.07126 0.880127 2.08804 1.67903 2.56012 2.09664C3.1593 2.62319 4.61185 3.9668 4.61185 4.78385ZM11.8928 11.6653V14.0075C11.8928 14.7338 11.8564 14.9699 11.6567 15.2241C11.457 15.4964 11.2209 15.6054 10.7307 15.6054C10.3857 15.6054 9.98628 15.5146 9.7684 15.2241C9.62314 15.0243 9.55052 14.8972 9.55052 14.0075V11.6653H7.82561V14.2617C7.82561 14.9517 7.7893 15.1696 7.60773 15.4238C7.38985 15.7143 7.02671 15.7869 6.69989 15.7869C6.35491 15.7869 5.97361 15.678 5.75573 15.4056C5.57416 15.1877 5.53785 14.8972 5.53785 14.2617V6.52692C5.53785 5.54644 6.17334 5.14699 7.13565 5.14699H10.2405C9.55052 4.62044 8.86056 4.16652 8.0435 3.73076C7.80746 3.60366 7.57142 3.4584 7.57142 3.13158C7.57142 2.85923 7.7893 2.64134 8.06165 2.64134C8.49742 2.64134 9.87734 3.16789 10.6581 3.47656C10.8215 3.33131 11.802 2.62319 11.802 2.45977C11.802 2.31452 11.6749 2.26005 11.5659 2.26005H5.73757C5.42891 2.26005 5.12024 2.11479 5.12024 1.75166C5.12024 1.38852 5.42891 1.24326 5.73757 1.24326H14.8523C15.2336 1.24326 15.5968 1.4793 15.5968 1.89691C15.5968 2.20558 15.3607 2.4053 15.1065 2.55056C14.1261 3.13158 13.073 3.63997 12.0562 4.13021C12.5282 4.36625 12.8188 4.60229 12.8188 5.00174C12.8188 5.05621 12.8006 5.09252 12.8006 5.14699H14.4166C15.3244 5.14699 16.0144 5.54644 16.0144 6.52692V14.1346C16.0144 15.1151 15.3244 15.5146 14.4166 15.5146H12.8732C12.5646 15.5146 12.2559 15.3693 12.2559 15.0243C12.2559 14.6794 12.5464 14.5159 12.8551 14.5159H13.1819C13.5632 14.5159 13.6721 14.407 13.6721 14.0439V11.6653H11.8928ZM11.8928 7.88868H13.6721V6.63586C13.6721 6.27272 13.5632 6.14562 13.1819 6.14562H11.8928V7.88868ZM9.55052 7.88868V6.14562H8.29769C7.93455 6.14562 7.82561 6.27272 7.82561 6.63586V7.88868H9.55052ZM4.2124 14.2799C4.35765 15.1696 4.77526 15.7143 5.61048 16.023C6.40938 16.2953 7.26275 16.3316 8.11612 16.3316H16.5046C16.8133 16.3316 17.1219 16.4769 17.1219 16.84C17.1219 17.185 16.8133 17.3303 16.5046 17.3303H7.5351C6.6091 17.3303 5.62863 17.3121 4.73895 17.0034C4.01267 16.7492 3.48612 16.2227 3.05036 15.6054C2.6509 16.1137 2.2333 16.604 1.76122 17.0397C1.52518 17.2758 1.16204 17.5118 0.889687 17.5118C0.254196 17.5118 0 16.8219 0 16.2772C0 15.6598 0.236039 15.4419 0.635491 15.2422C1.03494 15.0425 1.41624 14.8972 1.94279 14.6249V9.94041C1.94279 9.57727 1.83384 9.46833 1.47071 9.46833H0.744432C0.435765 9.46833 0.127098 9.32307 0.127098 8.95994C0.127098 8.61496 0.435765 8.45154 0.744432 8.45154H2.61459C3.52243 8.45154 4.2124 8.86915 4.2124 9.83147V14.2799ZM11.8928 10.6485H13.6721V8.88731H11.8928V10.6485ZM9.55052 10.6485V8.88731H7.82561V10.6485H9.55052Z" fill="white"/>
</svg>
