<svg width="126" height="40" viewBox="0 0 126 40" fill="none" xmlns="http://www.w3.org/2000/svg">
<path d="M68.782 26.208V38.3187C68.782 39.045 68.3825 39.6804 67.3839 39.6804C66.4398 39.6804 65.9677 39.0813 65.9677 38.3187V27.588C65.9677 27.479 65.9677 27.3338 65.8224 27.3338C65.7861 27.3338 65.6953 27.3338 65.4411 27.4246C65.0054 27.588 64.0794 27.7695 63.3712 27.7695C63.0263 27.7695 62.7539 27.479 62.7539 27.134C62.7539 26.6983 63.0989 26.553 63.462 26.4804C64.3336 26.317 65.1143 25.8631 65.768 25.282C66.2219 24.8826 66.6032 24.6829 67.2205 24.6829C68.2373 24.6829 68.782 25.1549 68.782 26.208Z" fill="white"/>
<path d="M53.1065 30.4749V37.0658C53.1065 37.7558 53.3244 38.3731 54.1233 38.3731C54.4501 38.3731 54.7043 38.3005 54.9403 38.1734C55.0674 38.1008 55.1401 38.1008 55.2127 38.1008C55.485 38.1008 55.7029 38.3368 55.7029 38.6092C55.7029 38.8634 55.5395 39.0086 55.3216 39.1357C54.6861 39.4989 53.9599 39.6804 53.1973 39.6804C51.4361 39.6804 50.5282 38.6636 50.5282 36.9387V30.4749H49.3299C49.0394 30.4749 48.7852 30.2389 48.7852 29.9483C48.7852 29.6397 49.0394 29.4036 49.3299 29.4036H50.5282V27.2248C50.5282 26.5348 51.0003 25.972 51.8174 25.972C52.6344 25.972 53.1065 26.5167 53.1065 27.2248V29.4036H55.0493C55.3398 29.4036 55.594 29.6397 55.594 29.9483C55.594 30.2389 55.3398 30.4749 55.0493 30.4749H53.1065Z" fill="white"/>
<path d="M38.2902 30.7291C39.0528 29.6941 40.0151 29.1131 41.3042 29.1131C43.7191 29.1131 44.8267 30.6383 44.8267 32.926V38.4276C44.8267 39.1357 44.4817 39.6804 43.5375 39.6804C42.5752 39.6804 42.2484 39.1357 42.2484 38.4276V32.4721C42.2484 31.3827 41.7945 30.4567 40.5961 30.4567C39.5067 30.4567 38.6715 31.3646 38.2902 32.3087V38.4276C38.2902 39.2083 37.8181 39.6804 37.0011 39.6804C36.2022 39.6804 35.7119 39.2083 35.7119 38.4276V30.3478C35.7119 29.6396 36.1658 29.1131 37.0011 29.1131C37.6729 29.1131 38.2902 29.5307 38.2902 30.2388V30.7291Z" fill="white"/>
<path d="M29.3753 24.6829C30.2832 24.6829 31.0276 25.4273 31.0276 26.3351C31.0276 27.2248 30.2832 27.9693 29.3753 27.9693C28.4856 27.9693 27.7412 27.2248 27.7412 26.3351C27.7412 25.4273 28.4856 24.6829 29.3753 24.6829ZM30.6645 30.366V38.4276C30.6645 39.1176 30.3558 39.6804 29.3753 39.6804C28.5038 39.6804 28.1043 39.1357 28.1043 38.4276V30.366C28.1043 29.6578 28.5583 29.1131 29.3753 29.1131C30.1561 29.1131 30.6645 29.5489 30.6645 30.366Z" fill="white"/>
<path d="M18.8284 29.1131C21.9513 29.1131 23.6581 31.4372 23.6581 34.3967C23.6581 37.3745 21.9513 39.6804 18.8284 39.6804C15.6872 39.6804 13.9805 37.3745 13.9805 34.3967C13.9805 31.4372 15.6872 29.1131 18.8284 29.1131ZM18.8284 30.2388C16.7766 30.2388 16.6677 32.9079 16.6677 34.3967C16.6677 35.8856 16.7766 38.5728 18.8284 38.5728C20.8619 38.5728 20.9709 35.8856 20.9709 34.3967C20.9709 32.9079 20.8619 30.2388 18.8284 30.2388Z" fill="white"/>
<path d="M2.81432 33.3255V38.3187C2.81432 39.0631 2.34224 39.6804 1.39808 39.6804C0.381294 39.6804 0 39.0812 0 38.3187V26.8617C0 25.5544 0.780746 24.9552 2.03357 24.9552H6.88146C9.5142 24.9552 11.348 26.3896 11.348 29.1313C11.348 31.873 9.47789 33.3255 6.84514 33.3255H2.81432ZM2.81432 32.1635H5.73757C7.6622 32.1635 8.35216 30.838 8.35216 29.095C8.35216 27.3701 7.68036 26.1354 5.79204 26.1354H3.46796C3.12298 26.1354 2.81432 26.4441 2.81432 26.7709V32.1635Z" fill="white"/>
<path d="M118.835 3.95246C118.599 6.76678 118.399 9.59925 117.491 12.2865C116.892 14.084 116.002 16.0994 113.787 16.0994C110.937 16.0994 109.557 13.0127 109.557 10.5616C109.557 8.61878 110.265 6.69415 111.554 5.25976C113.242 3.35328 115.621 2.51807 118.109 2.51807C122.394 2.51807 125.716 4.8603 125.716 9.39952C125.716 12.1231 124.482 14.4653 122.03 15.7544C121.232 16.1539 119.779 16.7167 118.871 16.7167C118.544 16.7167 118.254 16.4444 118.254 16.0994C118.254 15.7363 118.508 15.5365 118.817 15.4458C119.761 15.1734 120.542 14.665 121.195 13.9387C122.357 12.6314 122.993 10.7976 122.993 9.0727C122.993 6.18576 121.504 4.73321 118.835 3.95246ZM116.22 3.95246C115.004 4.4427 114.15 5.02372 113.442 6.13128C112.407 7.72909 111.863 9.65372 111.863 11.542C111.863 12.3591 111.935 13.2306 112.371 13.9387C112.589 14.32 112.988 14.7013 113.46 14.7013C114.187 14.7013 114.622 13.4485 115.022 12.2683C115.839 9.58109 116.057 6.74862 116.22 3.95246Z" fill="white"/>
<path d="M101.494 3.11724V15.246H102.348C102.675 15.246 102.947 15.5002 102.947 15.8271C102.947 16.1539 102.675 16.4081 102.348 16.4081H92.9062C92.5976 16.4081 92.3252 16.1539 92.3252 15.8271C92.3252 15.5002 92.5976 15.246 92.9062 15.246H93.7596V3.11724H92.9062C92.5976 3.11724 92.3252 2.86304 92.3252 2.53622C92.3252 2.2094 92.5976 1.9552 92.9062 1.9552H102.348C102.675 1.9552 102.947 2.2094 102.947 2.53622C102.947 2.86304 102.675 3.11724 102.348 3.11724H101.494ZM98.6801 3.11724H96.5739V15.246H98.6801V3.11724Z" fill="white"/>
<path d="M73.406 10.3618C73.2608 12.6496 72.589 14.5379 71.1909 16.3536C70.9004 16.7167 69.9744 17.8425 69.5204 17.8425C69.2481 17.8425 69.012 17.6246 69.012 17.3522C69.012 17.2251 69.0302 17.1525 69.2299 16.862C69.9925 15.7907 70.4283 14.8647 70.7369 13.5938C70.8822 12.9764 70.9911 12.3591 71.0275 11.7236C70.7188 12.0867 70.1378 12.7767 69.6294 12.7767C69.0665 12.7767 68.8486 12.1049 68.8486 11.6328C68.8486 11.0336 69.1391 10.8521 69.6657 10.6342C70.1559 10.4345 70.628 10.1984 71.1001 9.90791V8.34642C70.9367 8.45536 70.7551 8.50983 70.5554 8.50983C70.0288 8.50983 69.8654 8.05591 69.7565 7.6383C69.5749 6.9665 69.3207 6.1676 69.0484 5.74999C68.9394 5.56842 68.8668 5.40501 68.8668 5.25975C68.8668 4.9874 69.1028 4.76952 69.3752 4.76952C69.7928 4.76952 70.8096 5.76815 71.1001 6.07681V4.22481C71.1001 3.04461 71.8627 2.48175 72.9884 2.48175H76.9103V2.13677C76.9103 1.42865 77.3279 0.938416 78.1631 0.938416C78.7804 0.938416 79.4341 1.35602 79.4341 2.06414V2.48175H85.4622C85.7708 2.48175 86.0795 2.64516 86.0795 2.99014C86.0795 3.35328 85.7708 3.49854 85.4622 3.49854H79.5067C80.0514 3.62563 80.469 3.86167 80.469 4.49716C80.469 4.67873 80.4146 4.84214 80.3419 5.02371H85.3532C85.6619 5.02371 85.9706 5.16897 85.9706 5.51395C85.9706 5.87709 85.6619 6.02234 85.3532 6.02234H82.085C82.3755 6.58521 82.775 7.0936 83.2107 7.54752C83.4468 7.22069 83.6465 6.87571 83.8281 6.53073C83.9552 6.27654 84.1549 6.11313 84.4454 6.11313C84.8993 6.11313 85.4985 6.47626 85.4985 6.98466C85.4985 7.58383 84.4817 8.03775 84.0096 8.25564C84.5906 8.70956 85.2624 9.12717 85.9342 9.41768C86.1703 9.52662 86.3882 9.67187 86.3882 9.96238C86.3882 10.2166 86.1884 10.4526 85.9161 10.4526C85.4803 10.4526 84.7722 10.144 84.173 9.8716C84.1912 9.96238 84.1912 10.0532 84.1912 10.1621V12.3228C84.1912 13.3396 83.4831 13.848 82.5208 13.848H80.9593V16.0813C80.9593 17.2614 80.1785 17.8243 79.071 17.8243H76.9103C76.6016 17.8243 76.3111 17.6791 76.3111 17.3159C76.3111 16.9709 76.6016 16.8075 76.9103 16.8075H78.036C78.4173 16.8075 78.5626 16.6623 78.5626 16.281V13.848H76.8921C75.9298 13.848 75.2217 13.3396 75.2217 12.3228V9.98054C74.8586 10.1803 74.1141 10.5616 73.7873 10.5616C73.642 10.5616 73.4968 10.4708 73.406 10.3618ZM73.4242 9.76266C73.4605 9.70819 73.6057 9.59925 73.6784 9.56293C74.2231 9.27242 74.7315 8.90928 75.2035 8.52799C75.0038 8.40089 74.9312 8.25564 74.8404 8.05591C74.6588 7.6383 74.441 7.27517 74.2231 6.9665C74.1141 6.82124 74.0597 6.7123 74.0597 6.60336C74.0597 6.36732 74.2231 6.1676 74.4591 6.1676C74.5499 6.1676 74.7859 6.25838 75.0401 6.36732C75.5485 6.5852 76.1114 6.85756 76.4382 7.23885C76.7469 6.85756 77.0192 6.45811 77.2553 6.02234H74.3502C74.0415 6.02234 73.7328 5.87709 73.7328 5.51395C73.7328 5.16897 74.0415 5.02371 74.3502 5.02371H77.7092C78.0723 3.95246 78.2357 3.64379 78.7441 3.49854H73.9507C73.5876 3.49854 73.4242 3.66195 73.4242 4.02508V9.76266ZM79.7064 6.11313C78.9983 7.05728 78.2176 7.8925 77.2916 8.63693H82.0487C81.0682 7.92881 80.3601 7.12991 79.7064 6.11313ZM81.8671 10.725V10.1803C81.8671 9.79897 81.7219 9.63556 81.3406 9.63556H78.036C77.6729 9.63556 77.5095 9.79897 77.5095 10.1803V10.725H81.8671ZM81.8671 11.7236H77.5095V12.3046C77.5095 12.6859 77.6729 12.8493 78.036 12.8493H81.3406C81.7219 12.8493 81.8671 12.6859 81.8671 12.3046V11.7236ZM73.4786 17.6246C73.2244 17.6246 72.9884 17.3885 72.9884 17.1162C72.9884 16.8983 73.0973 16.7894 73.3878 16.5715C74.1504 16.0086 74.8041 15.2097 75.2943 14.4471C75.494 14.1385 75.7664 13.9387 76.1477 13.9387C76.7469 13.9387 77.455 14.3382 77.455 15.01C77.455 15.5547 76.9103 15.9178 76.3656 16.281C75.8209 16.6441 74.0052 17.6246 73.4786 17.6246ZM84.4091 17.5338C84.0278 17.5338 83.8099 17.3341 83.592 17.0254C83.0836 16.2628 82.6479 15.7181 82.0124 15.0463C81.8853 14.9011 81.7763 14.774 81.7763 14.5742C81.7763 14.2837 81.9942 14.084 82.2847 14.084C82.7023 14.084 84.3728 14.8466 84.8267 15.1008C85.2806 15.355 85.8072 15.7907 85.8072 16.281C85.8072 16.9891 85.0809 17.5338 84.4091 17.5338Z" fill="white"/>
<path d="M52.3435 3.22619V15.7363C52.3435 16.0449 52.634 16.3355 52.9427 16.3355H65.4891C65.7978 16.3355 66.1065 16.4989 66.1065 16.8438C66.1065 17.207 65.7978 17.3522 65.4891 17.3522H52.0167C50.6913 17.3522 49.8379 16.6804 49.8379 15.3187V3.6438C49.8379 2.28203 50.6913 1.61023 52.0167 1.61023H65.1623C65.4891 1.61023 65.7796 1.77364 65.7796 2.11862C65.7796 2.48176 65.4891 2.62701 65.1623 2.62701H52.9427C52.6159 2.62701 52.3435 2.91752 52.3435 3.22619ZM59.3339 11.7962C58.7166 12.7041 57.8269 13.4485 56.9372 14.0658C55.9931 14.7195 55.1034 15.2097 53.9777 15.591C53.8142 15.6455 53.6871 15.6637 53.6145 15.6637C53.3422 15.6637 53.1243 15.4276 53.1243 15.1553C53.1243 14.9011 53.2877 14.7558 53.4874 14.665C55.1579 13.9387 56.6649 12.5951 57.3548 10.9066C57.5182 10.5253 57.609 10.1258 57.6998 9.72635H53.6508C53.3422 9.72635 53.0335 9.5811 53.0335 9.23612C53.0335 8.87298 53.3422 8.72773 53.6508 8.72773H57.8451C57.9359 7.78357 57.8995 6.8031 57.9177 5.85894H56.1565C55.8115 6.24023 55.0671 7.03914 54.4497 7.54753C54.1411 7.80172 53.8687 7.98329 53.7053 7.98329C53.4329 7.98329 53.1969 7.76541 53.1969 7.49306C53.1969 7.3478 53.2514 7.23886 53.3422 7.09361C53.9232 6.14945 54.4497 5.04188 54.7947 3.98878C55.0126 3.33513 55.1942 2.77227 55.9931 2.77227C56.5922 2.77227 57.4456 3.11725 57.4456 3.82537C57.4456 4.20666 57.2096 4.55164 56.9735 4.84215H63.855C64.1637 4.84215 64.4723 4.98741 64.4723 5.35055C64.4723 5.71368 64.1637 5.85894 63.855 5.85894H60.4415C60.4415 6.8031 60.4233 7.76541 60.3507 8.72773H64.6539C64.9807 8.72773 65.2712 8.87298 65.2712 9.23612C65.2712 9.5811 64.9807 9.72635 64.6539 9.72635H60.8591C61.5491 11.8507 63.2195 13.6119 65.126 14.665C65.3439 14.774 65.4891 14.9192 65.4891 15.1553C65.4891 15.4276 65.2712 15.6637 64.9989 15.6637C64.8355 15.6637 64.4905 15.5547 64.1092 15.3913C63.5463 15.1553 62.9108 14.8466 62.6385 14.7013C61.3675 13.9751 60.1873 12.9946 59.3339 11.7962Z" fill="white"/>
<path d="M35.5955 1.9552H39.7353C44.0021 1.9552 45.836 5.27791 45.836 9.16348C45.836 13.1035 44.0384 16.4081 39.7171 16.4081H35.5955C34.3245 16.4081 33.5801 15.8452 33.5801 14.5198V3.86167C33.5801 2.53622 34.3427 1.97336 35.5955 1.9552ZM36.3944 3.77089V14.5924C36.3944 14.9374 36.6849 15.246 37.0299 15.246H38.6095C39.6082 15.246 40.6613 14.9737 41.3875 14.2837C42.6404 13.1035 42.8401 10.8884 42.8401 9.27242C42.8401 7.69277 42.6222 5.25975 41.4057 4.13403C40.6431 3.42591 39.6082 3.1354 38.5914 3.1354H37.0299C36.6667 3.1354 36.3944 3.44406 36.3944 3.77089Z" fill="white"/>
<path d="M23.3944 2.972L25.6458 12.9583C25.6821 13.1217 25.7366 13.2669 25.9 13.2669C26.0634 13.2669 26.1179 13.0491 26.1361 12.9401L28.1878 2.19125C28.2423 1.90074 28.4965 1.68286 28.787 1.68286C29.132 1.68286 29.4225 1.95521 29.4225 2.3002C29.4225 2.33651 29.3861 2.55439 29.368 2.64518L26.9894 15.246C26.826 16.1176 26.0816 16.6804 25.2101 16.6804C24.2841 16.6804 23.6486 16.1357 23.4488 15.246L21.1974 5.18714C21.1611 5.02373 21.1248 4.91479 20.9795 4.91479C20.8343 4.91479 20.7979 5.0782 20.7798 5.18714L18.6554 15.3005C18.4739 16.1721 17.7294 16.6804 16.8579 16.6804C16.0045 16.6804 15.2419 16.1902 15.0604 15.2824L12.7 3.31698C12.6637 3.15357 12.6455 3.04463 12.6455 2.91753C12.6455 2.13678 13.4807 1.68286 14.1707 1.68286C14.9333 1.68286 15.3146 2.06416 15.4598 2.77227L17.4026 12.8857C17.4208 12.9946 17.4571 13.2306 17.6205 13.2306C17.7839 13.2306 17.8202 13.0672 17.8565 12.8857L19.9446 2.972C20.1261 2.13678 20.9432 1.68286 21.7421 1.68286C22.541 1.68286 23.2128 2.1731 23.3944 2.972Z" fill="white"/>
<path d="M2.869 8.49168H8.44316C8.76999 8.49168 9.04234 8.74587 9.04234 9.0727C9.04234 9.39952 8.76999 9.65372 8.44316 9.65372H2.869V15.3187C2.869 16.2083 2.1972 16.6804 1.45277 16.6804C0.690178 16.6804 0.0546875 16.172 0.0546875 15.3187V3.86167C0.0546875 2.55438 0.817276 1.9552 2.0701 1.9552H9.09681C9.42364 1.9552 9.69599 2.2094 9.69599 2.53622C9.69599 2.86304 9.42364 3.1354 9.09681 3.1354H3.50449C3.17767 3.1354 2.869 3.44406 2.869 3.77089V8.49168Z" fill="white"/>
</svg>
