<svg width="142" height="18" viewBox="0 0 142 18" fill="none" xmlns="http://www.w3.org/2000/svg">
<path d="M137.808 5.00191C138.099 4.98375 139.007 4.89297 139.679 4.82034C139.987 4.78403 140.169 4.76587 140.205 4.76587C140.496 4.76587 140.732 5.02007 140.732 5.36505C140.732 5.78266 140.441 5.92791 140.078 5.98238C139.406 6.07317 138.553 6.12764 137.79 6.18211C137.79 8.03411 137.772 9.86795 137.881 11.72C138.644 12.0286 139.37 12.3918 140.078 12.8094C140.714 13.1907 141.204 13.4812 141.204 14.0803C141.204 14.6795 140.804 15.3513 140.151 15.3513C139.751 15.3513 139.497 15.1516 138.916 14.6069C138.626 14.3527 138.335 14.0985 138.026 13.8625C137.99 14.4616 137.881 15.0245 137.518 15.5147C136.755 16.5315 135.23 16.7857 134.032 16.7857C132.307 16.7857 130.019 16.2773 130.019 14.1348C130.019 11.7926 132.525 11.0845 134.449 11.0845C134.758 11.0845 135.067 11.1026 135.375 11.1389C135.285 9.54113 135.248 7.92517 135.23 6.30921C134.213 6.34552 133.197 6.38183 132.198 6.38183C131.835 6.38183 130.655 6.4363 130.382 6.34552C130.128 6.25474 130.001 6.0187 130.001 5.7645C130.001 5.40136 130.273 5.16532 130.636 5.16532C131.218 5.16532 131.799 5.18348 132.361 5.18348C133.324 5.18348 134.268 5.16532 135.212 5.12901V4.8385C135.212 4.13038 135.176 3.42226 135.176 2.69599C135.176 1.73367 135.503 1.22528 136.537 1.22528C137.445 1.22528 137.881 1.69736 137.881 2.58705C137.881 3.38595 137.845 4.20301 137.808 5.00191ZM127.659 1.5521C128.367 1.5521 129.057 1.84261 129.057 2.64152C129.057 3.05913 128.857 4.40273 128.73 5.23795C128.476 7.01732 128.403 8.83301 128.403 10.6305C128.403 12.1194 128.53 13.5901 128.676 15.079C128.694 15.2061 128.712 15.3332 128.712 15.4421C128.712 16.2955 127.967 16.4952 127.259 16.4952C126.606 16.4952 126.206 15.9687 126.115 15.3695C125.898 13.7898 125.879 12.1739 125.879 10.5942C125.879 8.39725 126.043 6.18211 126.243 4.00328C126.315 3.24069 126.388 2.44179 126.588 2.02418C126.769 1.64289 127.277 1.5521 127.659 1.5521ZM135.412 12.5552C135.121 12.4825 134.813 12.4099 134.504 12.4099C133.396 12.4099 132.361 12.9002 132.361 14.153C132.361 15.1153 133.16 15.4603 134.014 15.4603C135.03 15.4603 135.448 14.8974 135.448 13.9169C135.448 13.463 135.43 13.0091 135.412 12.5552Z" fill="white"/>
<path d="M111.19 8.28829C110.9 7.36229 110.791 6.63601 110.755 5.6737C110.718 4.63876 110.7 3.60382 110.7 2.56887C110.7 1.57025 110.936 0.971069 112.062 0.971069C112.825 0.971069 113.424 1.29789 113.424 2.11495C113.424 2.33284 113.406 2.55072 113.387 2.7686C113.297 3.60382 113.242 4.43903 113.242 5.29241C113.242 6.03684 113.315 6.74496 113.478 7.47123C114.368 7.18072 118.253 5.96421 118.889 5.96421C119.416 5.96421 119.742 6.45445 119.742 6.94468C119.742 7.70727 119.161 7.76174 118.253 7.85253C116.147 8.08856 113.86 8.59696 111.917 9.48664C110.573 10.104 109.593 11.0663 109.593 12.6278C109.593 15.1879 112.425 15.4784 114.368 15.4784C115.693 15.4784 117.001 15.3332 118.29 15.0608C118.707 14.9519 118.816 14.9337 118.98 14.9337C119.452 14.9337 119.706 15.3332 119.706 15.7689C119.706 16.1321 119.543 16.4407 119.198 16.5497C118.707 16.7131 118.017 16.7494 117.473 16.7676C116.329 16.822 115.185 16.8583 114.041 16.8583C111.299 16.8583 106.778 16.6041 106.778 12.882C106.778 11.6655 107.505 10.5034 108.467 9.759C109.284 9.10535 110.246 8.7059 111.19 8.28829Z" fill="white"/>
<path d="M100.659 2.51442V15.0064C100.659 15.7145 100.351 16.2592 99.3701 16.2592C98.4441 16.2592 98.0991 15.7145 98.0991 15.0064V2.51442C98.0991 1.69736 98.6438 1.2616 99.3701 1.2616C100.151 1.2616 100.659 1.73368 100.659 2.51442Z" fill="white"/>
<path d="M92.7974 2.51442V15.0064C92.7974 15.7145 92.4888 16.2592 91.5083 16.2592C90.5823 16.2592 90.2373 15.7145 90.2373 15.0064V2.51442C90.2373 1.69736 90.782 1.2616 91.5083 1.2616C92.289 1.2616 92.7974 1.73368 92.7974 2.51442Z" fill="white"/>
<path d="M73.3513 9.94057C73.2061 12.2283 72.5343 14.1167 71.1362 15.9323C70.8457 16.2955 69.9197 17.4212 69.4658 17.4212C69.1934 17.4212 68.9574 17.2033 68.9574 16.931C68.9574 16.8039 68.9755 16.7312 69.1752 16.4407C69.9378 15.3695 70.3736 14.4435 70.6823 13.1725C70.8275 12.5552 70.9365 11.9378 70.9728 11.3023C70.6641 11.6655 70.0831 12.3554 69.5747 12.3554C69.0118 12.3554 68.7939 11.6836 68.7939 11.2116C68.7939 10.6124 69.0845 10.4308 69.611 10.2129C70.1012 10.0132 70.5733 9.77716 71.0454 9.48665V7.92516C70.882 8.0341 70.7004 8.08857 70.5007 8.08857C69.9741 8.08857 69.8107 7.63465 69.7018 7.21704C69.5202 6.54523 69.266 5.74633 68.9937 5.32872C68.8847 5.14716 68.8121 4.98374 68.8121 4.83849C68.8121 4.56613 69.0481 4.34825 69.3205 4.34825C69.7381 4.34825 70.7549 5.34688 71.0454 5.65555V3.80355C71.0454 2.62335 71.808 2.06049 72.9337 2.06049H76.8556V1.71551C76.8556 1.00739 77.2732 0.517151 78.1084 0.517151C78.7258 0.517151 79.3794 0.934759 79.3794 1.64288V2.06049H85.4075C85.7162 2.06049 86.0248 2.2239 86.0248 2.56888C86.0248 2.93202 85.7162 3.07727 85.4075 3.07727H79.452C79.9967 3.20437 80.4143 3.44041 80.4143 4.0759C80.4143 4.25747 80.3599 4.42088 80.2872 4.60245H85.2985C85.6072 4.60245 85.9159 4.7477 85.9159 5.09268C85.9159 5.45582 85.6072 5.60108 85.2985 5.60108H82.0303C82.3208 6.16394 82.7203 6.67233 83.156 7.12625C83.3921 6.79943 83.5918 6.45445 83.7734 6.10947C83.9005 5.85527 84.1002 5.69186 84.3907 5.69186C84.8446 5.69186 85.4438 6.055 85.4438 6.56339C85.4438 7.16257 84.427 7.61649 83.9549 7.83437C84.536 8.28829 85.2078 8.7059 85.8796 8.99641C86.1156 9.10535 86.3335 9.25061 86.3335 9.54112C86.3335 9.79531 86.1338 10.0314 85.8614 10.0314C85.4256 10.0314 84.7175 9.72269 84.1183 9.45033C84.1365 9.54112 84.1365 9.6319 84.1365 9.74084V11.9015C84.1365 12.9183 83.4284 13.4267 82.4661 13.4267H80.9046V15.66C80.9046 16.8402 80.1238 17.403 79.0163 17.403H76.8556C76.5469 17.403 76.2564 17.2578 76.2564 16.8947C76.2564 16.5497 76.5469 16.3863 76.8556 16.3863H77.9813C78.3626 16.3863 78.5079 16.241 78.5079 15.8597V13.4267H76.8374C75.8751 13.4267 75.167 12.9183 75.167 11.9015V9.55928C74.8039 9.759 74.0594 10.1403 73.7326 10.1403C73.5874 10.1403 73.4421 10.0495 73.3513 9.94057ZM73.3695 9.34139C73.4058 9.28692 73.551 9.17798 73.6237 9.14167C74.1684 8.85116 74.6768 8.48802 75.1488 8.10673C74.9491 7.97963 74.8765 7.83437 74.7857 7.63465C74.6041 7.21704 74.3863 6.8539 74.1684 6.54523C74.0594 6.39998 74.005 6.29104 74.005 6.1821C74.005 5.94606 74.1684 5.74633 74.4044 5.74633C74.4952 5.74633 74.7312 5.83712 74.9854 5.94606C75.4938 6.16394 76.0567 6.43629 76.3835 6.81759C76.6922 6.43629 76.9645 6.03684 77.2006 5.60108H74.2955C73.9868 5.60108 73.6781 5.45582 73.6781 5.09268C73.6781 4.7477 73.9868 4.60245 74.2955 4.60245H77.6545C78.0176 3.53119 78.181 3.22253 78.6894 3.07727H73.896C73.5329 3.07727 73.3695 3.24068 73.3695 3.60382V9.34139ZM79.6518 5.69186C78.9436 6.63602 78.1629 7.47124 77.2369 8.21567H81.994C81.0135 7.50755 80.3054 6.70865 79.6518 5.69186ZM81.8124 10.3037V9.759C81.8124 9.37771 81.6672 9.21429 81.2859 9.21429H77.9813C77.6182 9.21429 77.4548 9.37771 77.4548 9.759V10.3037H81.8124ZM81.8124 11.3023H77.4548V11.8834C77.4548 12.2647 77.6182 12.4281 77.9813 12.4281H81.2859C81.6672 12.4281 81.8124 12.2647 81.8124 11.8834V11.3023ZM73.424 17.2033C73.1698 17.2033 72.9337 16.9673 72.9337 16.6949C72.9337 16.477 73.0427 16.3681 73.3332 16.1502C74.0957 15.5874 74.7494 14.7885 75.2396 14.0259C75.4394 13.7172 75.7117 13.5175 76.093 13.5175C76.6922 13.5175 77.4003 13.9169 77.4003 14.5887C77.4003 15.1334 76.8556 15.4966 76.3109 15.8597C75.7662 16.2228 73.9505 17.2033 73.424 17.2033ZM84.3544 17.1125C83.9731 17.1125 83.7552 16.9128 83.5373 16.6041C83.0289 15.8416 82.5932 15.2968 81.9577 14.625C81.8306 14.4798 81.7216 14.3527 81.7216 14.153C81.7216 13.8625 81.9395 13.6627 82.23 13.6627C82.6476 13.6627 84.3181 14.4253 84.772 14.6795C85.2259 14.9337 85.7525 15.3695 85.7525 15.8597C85.7525 16.5678 85.0262 17.1125 84.3544 17.1125Z" fill="white"/>
<path d="M52.2893 2.80493V15.315C52.2893 15.6237 52.5798 15.9142 52.8885 15.9142H65.4349C65.7436 15.9142 66.0523 16.0776 66.0523 16.4226C66.0523 16.7857 65.7436 16.931 65.4349 16.931H51.9625C50.6371 16.931 49.7837 16.2592 49.7837 14.8974V3.22254C49.7837 1.86077 50.6371 1.18896 51.9625 1.18896H65.1081C65.4349 1.18896 65.7254 1.35238 65.7254 1.69736C65.7254 2.0605 65.4349 2.20575 65.1081 2.20575H52.8885C52.5617 2.20575 52.2893 2.49626 52.2893 2.80493ZM59.2797 11.375C58.6624 12.2828 57.7727 13.0272 56.883 13.6446C55.9389 14.2982 55.0492 14.7885 53.9235 15.1698C53.76 15.2242 53.6329 15.2424 53.5603 15.2424C53.288 15.2424 53.0701 15.0063 53.0701 14.734C53.0701 14.4798 53.2335 14.3345 53.4332 14.2438C55.1037 13.5175 56.6107 12.1739 57.3006 10.4853C57.464 10.104 57.5548 9.70454 57.6456 9.30509H53.5966C53.288 9.30509 52.9793 9.15983 52.9793 8.81485C52.9793 8.45172 53.288 8.30646 53.5966 8.30646H57.7909C57.8817 7.3623 57.8453 6.38183 57.8635 5.43767H56.1023C55.7573 5.81897 55.0129 6.61787 54.3955 7.12626C54.0869 7.38046 53.8145 7.56203 53.6511 7.56203C53.3788 7.56203 53.1427 7.34415 53.1427 7.07179C53.1427 6.92654 53.1972 6.8176 53.288 6.67234C53.869 5.72818 54.3955 4.62061 54.7405 3.56752C54.9584 2.91387 55.14 2.351 55.9389 2.351C56.538 2.351 57.3914 2.69599 57.3914 3.4041C57.3914 3.7854 57.1554 4.13038 56.9193 4.42089H63.8008C64.1095 4.42089 64.4181 4.56614 64.4181 4.92928C64.4181 5.29242 64.1095 5.43767 63.8008 5.43767H60.3873C60.3873 6.38183 60.3691 7.34415 60.2965 8.30646H64.5997C64.9265 8.30646 65.217 8.45172 65.217 8.81485C65.217 9.15983 64.9265 9.30509 64.5997 9.30509H60.8049C61.4949 11.4294 63.1653 13.1907 65.0718 14.2438C65.2897 14.3527 65.4349 14.498 65.4349 14.734C65.4349 15.0063 65.217 15.2424 64.9447 15.2424C64.7813 15.2424 64.4363 15.1334 64.055 14.97C63.4921 14.734 62.8566 14.4253 62.5843 14.2801C61.3133 13.5538 60.1331 12.5733 59.2797 11.375Z" fill="white"/>
<path d="M35.5408 1.53394H39.6806C43.9474 1.53394 45.7813 4.85664 45.7813 8.74222C45.7813 12.6823 43.9838 15.9868 39.6624 15.9868H35.5408C34.2698 15.9868 33.5254 15.4239 33.5254 14.0985V3.44041C33.5254 2.11496 34.288 1.55209 35.5408 1.53394ZM36.3397 3.34962V14.1711C36.3397 14.5161 36.6302 14.8248 36.9752 14.8248H38.5548C39.5535 14.8248 40.6066 14.5524 41.3328 13.8625C42.5857 12.6823 42.7854 10.4671 42.7854 8.85116C42.7854 7.27151 42.5675 4.83849 41.351 3.71276C40.5884 3.00464 39.5535 2.71413 38.5367 2.71413H36.9752C36.6121 2.71413 36.3397 3.0228 36.3397 3.34962Z" fill="white"/>
<path d="M23.3397 2.55074L25.5911 12.537C25.6275 12.7004 25.6819 12.8457 25.8453 12.8457C26.0088 12.8457 26.0632 12.6278 26.0814 12.5189L28.1331 1.76999C28.1876 1.47948 28.4418 1.2616 28.7323 1.2616C29.0773 1.2616 29.3678 1.53395 29.3678 1.87893C29.3678 1.91524 29.3315 2.13313 29.3133 2.22391L26.9348 14.8248C26.7713 15.6963 26.0269 16.2592 25.1554 16.2592C24.2294 16.2592 23.5939 15.7145 23.3942 14.8248L21.1427 4.76587C21.1064 4.60246 21.0701 4.49352 20.9248 4.49352C20.7796 4.49352 20.7433 4.65693 20.7251 4.76587L18.6007 14.8793C18.4192 15.7508 17.6747 16.2592 16.8032 16.2592C15.9498 16.2592 15.1873 15.7689 15.0057 14.8611L12.6453 2.89572C12.609 2.7323 12.5908 2.62336 12.5908 2.49626C12.5908 1.71552 13.426 1.2616 14.116 1.2616C14.8786 1.2616 15.2599 1.64289 15.4051 2.35101L17.3479 12.4644C17.3661 12.5733 17.4024 12.8094 17.5658 12.8094C17.7292 12.8094 17.7655 12.646 17.8018 12.4644L19.8899 2.55074C20.0715 1.71552 20.8885 1.2616 21.6874 1.2616C22.4863 1.2616 23.1581 1.75183 23.3397 2.55074Z" fill="white"/>
<path d="M2.81432 8.07041H8.38848C8.7153 8.07041 8.98765 8.32461 8.98765 8.65143C8.98765 8.97826 8.7153 9.23245 8.38848 9.23245H2.81432V14.8974C2.81432 15.7871 2.14251 16.2592 1.39808 16.2592C0.635491 16.2592 0 15.7508 0 14.8974V3.44041C0 2.13311 0.762589 1.53394 2.01541 1.53394H9.04212C9.36895 1.53394 9.6413 1.78813 9.6413 2.11496C9.6413 2.44178 9.36895 2.71413 9.04212 2.71413H3.44981C3.12298 2.71413 2.81432 3.0228 2.81432 3.34962V8.07041Z" fill="white"/>
</svg>
